<svg width="192" height="35" viewBox="0 0 192 35" fill="none" xmlns="http://www.w3.org/2000/svg">
<path d="M38.6 29L47.09 7.91H50.42L58.88 29H54.53L47.99 11.69H49.49L42.86 29H38.6ZM43.1 25.07V21.65H54.44V25.07H43.1ZM70.9353 29V20.69C70.9353 19.83 70.6653 19.13 70.1253 18.59C69.5853 18.05 68.8853 17.78 68.0253 17.78C67.4653 17.78 66.9653 17.9 66.5253 18.14C66.0853 18.38 65.7353 18.72 65.4753 19.16C65.2353 19.6 65.1153 20.11 65.1153 20.69L63.5853 19.91C63.5853 18.77 63.8253 17.78 64.3053 16.94C64.8053 16.08 65.4853 15.41 66.3453 14.93C67.2253 14.45 68.2153 14.21 69.3153 14.21C70.3753 14.21 71.3253 14.48 72.1653 15.02C73.0053 15.54 73.6653 16.23 74.1453 17.09C74.6253 17.93 74.8653 18.84 74.8653 19.82V29H70.9353ZM61.1853 29V14.51H65.1153V29H61.1853ZM83.011 29.33C82.191 29.33 81.381 29.22 80.581 29C79.801 28.78 79.081 28.48 78.421 28.1C77.761 27.7 77.191 27.22 76.711 26.66L79.051 24.29C79.551 24.85 80.131 25.27 80.791 25.55C81.451 25.83 82.181 25.97 82.981 25.97C83.621 25.97 84.101 25.88 84.421 25.7C84.761 25.52 84.931 25.25 84.931 24.89C84.931 24.49 84.751 24.18 84.391 23.96C84.051 23.74 83.601 23.56 83.041 23.42C82.481 23.26 81.891 23.09 81.271 22.91C80.671 22.71 80.091 22.46 79.531 22.16C78.971 21.84 78.511 21.41 78.151 20.87C77.811 20.31 77.641 19.59 77.641 18.71C77.641 17.79 77.861 16.99 78.301 16.31C78.761 15.63 79.411 15.1 80.251 14.72C81.091 14.34 82.081 14.15 83.221 14.15C84.421 14.15 85.501 14.36 86.461 14.78C87.441 15.2 88.251 15.83 88.891 16.67L86.521 19.04C86.081 18.5 85.581 18.11 85.021 17.87C84.481 17.63 83.891 17.51 83.251 17.51C82.671 17.51 82.221 17.6 81.901 17.78C81.601 17.96 81.451 18.21 81.451 18.53C81.451 18.89 81.621 19.17 81.961 19.37C82.321 19.57 82.781 19.75 83.341 19.91C83.901 20.05 84.481 20.22 85.081 20.42C85.701 20.6 86.281 20.86 86.821 21.2C87.381 21.54 87.831 21.99 88.171 22.55C88.531 23.11 88.711 23.83 88.711 24.71C88.711 26.13 88.201 27.26 87.181 28.1C86.161 28.92 84.771 29.33 83.011 29.33ZM95.2311 29L89.8011 14.51H93.7611L97.3011 25.04L96.1011 25.07L99.7311 14.51H102.581L106.211 25.07L105.011 25.04L108.551 14.51H112.511L107.111 29H104.261L100.601 18.98H101.711L98.0511 29H95.2311ZM121.025 29.3C119.505 29.3 118.155 28.98 116.975 28.34C115.795 27.68 114.855 26.78 114.155 25.64C113.475 24.5 113.135 23.2 113.135 21.74C113.135 20.3 113.465 19.02 114.125 17.9C114.805 16.76 115.725 15.86 116.885 15.2C118.045 14.52 119.335 14.18 120.755 14.18C122.155 14.18 123.385 14.5 124.445 15.14C125.525 15.76 126.365 16.62 126.965 17.72C127.585 18.8 127.895 20.03 127.895 21.41C127.895 21.67 127.875 21.94 127.835 22.22C127.815 22.48 127.765 22.78 127.685 23.12L115.505 23.15V20.21L125.855 20.18L124.265 21.41C124.225 20.55 124.065 19.83 123.785 19.25C123.525 18.67 123.135 18.23 122.615 17.93C122.115 17.61 121.495 17.45 120.755 17.45C119.975 17.45 119.295 17.63 118.715 17.99C118.135 18.33 117.685 18.82 117.365 19.46C117.065 20.08 116.915 20.82 116.915 21.68C116.915 22.56 117.075 23.33 117.395 23.99C117.735 24.63 118.215 25.13 118.835 25.49C119.455 25.83 120.175 26 120.995 26C121.735 26 122.405 25.88 123.005 25.64C123.605 25.38 124.125 25 124.565 24.5L126.875 26.81C126.175 27.63 125.315 28.25 124.295 28.67C123.295 29.09 122.205 29.3 121.025 29.3ZM130.326 29V14.51H134.256V29H130.326ZM134.256 20.99L132.726 19.97C132.906 18.19 133.426 16.79 134.286 15.77C135.146 14.73 136.386 14.21 138.006 14.21C138.706 14.21 139.336 14.33 139.896 14.57C140.456 14.79 140.966 15.16 141.426 15.68L138.966 18.5C138.746 18.26 138.476 18.08 138.156 17.96C137.856 17.84 137.506 17.78 137.106 17.78C136.266 17.78 135.576 18.05 135.036 18.59C134.516 19.11 134.256 19.91 134.256 20.99Z" fill="url(#paint0_linear_4397_968)"/>
<path d="M30.9617 16.2407C30.8733 15.6359 30.6037 15.1091 30.3527 14.6784C30.2923 14.573 30.1807 14.4722 30.0412 14.3944C29.8134 14.2615 29.5624 14.2661 29.251 14.4127L22.622 17.5052L22.4872 17.5648L22.4174 17.0791C22.3617 16.6989 22.3059 16.3232 22.2547 15.9521C22.1385 15.0724 21.4273 9.63413 21.4273 9.63413C21.2134 8.02142 21.0042 6.4133 20.7951 4.8006C20.6138 3.39864 19.5074 2.267 18.1035 2.04251C17.6154 1.96462 17.0994 1.99211 16.4067 2.13872C16.2952 2.16163 16.1743 2.23035 16.0581 2.33114C15.7931 2.5648 15.7977 2.87177 15.8256 3.0871C16.1417 5.48783 16.4532 7.88856 16.7647 10.2801L16.7786 10.3947L16.3137 10.3168C15.9465 10.2572 15.5839 10.1977 15.226 10.1289C11.5721 9.45544 7.92292 8.77738 4.27372 8.09473C3.72983 7.99393 3.01858 7.92521 2.46074 8.09473C0.94063 8.54372 0.141061 9.62038 0.00160083 11.3889C-0.0169938 11.6592 0.127115 11.902 0.396737 12.044C0.522251 12.1082 0.666359 12.1402 0.80117 12.1677C2.70712 12.5251 7.93686 13.4964 7.93686 13.4964L8.11351 13.533L8.06702 13.6063C8.03448 13.6567 8.00194 13.7071 7.97405 13.7575L7.56497 14.5135C7.33254 14.9441 7.09545 15.3748 6.85837 15.8009L1.87501 24.7899C1.14982 26.1002 1.36831 27.6625 2.4189 28.6704C2.7629 29.0003 3.16734 29.2156 3.59501 29.4447C4.12961 29.7334 4.56193 29.6051 4.8548 29.0782L8.36454 22.7511L8.43892 22.6182L14.9006 29.3577C15.7234 30.219 16.5462 31.0803 17.3736 31.9371C18.0337 32.6243 18.8891 33 19.7863 33C20.2279 33 20.6649 32.9084 21.0926 32.7251C21.6783 32.4731 22.1339 32.047 22.5383 31.621C22.6173 31.5385 22.6778 31.4194 22.7149 31.2865C22.794 31.007 22.715 30.7505 22.4686 30.4939C21.1158 29.0874 17.4155 25.216 17.4155 25.216L17.3225 25.1106L17.5456 25.0144C17.7223 24.9411 17.8943 24.8632 18.0663 24.7853L19.4562 24.121C20.1163 23.8048 20.7811 23.4887 21.4459 23.1772C22.8219 22.5312 24.1932 21.8898 25.5739 21.2483L29.079 19.6127C30.4317 18.9805 31.1709 17.6518 30.9663 16.2315L30.9617 16.2407ZM19.2192 18.2658C16.8669 18.9209 15.3375 20.4237 14.6774 22.7465C14.6635 22.6869 14.6495 22.6274 14.6309 22.5678C13.9197 20.332 12.4042 18.8843 10.131 18.2658C12.4972 17.6106 14.0266 16.0987 14.6821 13.7667C14.7053 13.84 14.7286 13.9133 14.7471 13.9912C14.8169 14.2294 14.8866 14.4722 14.9935 14.7059C15.8303 16.5477 17.2528 17.748 19.2192 18.2703V18.2658Z" fill="url(#paint1_linear_4397_968)"/>
<defs>
<linearGradient id="paint0_linear_4397_968" x1="192" y1="17.5" x2="38" y2="17.5" gradientUnits="userSpaceOnUse">
<stop stop-color="#2DD5C3"/>
<stop offset="1" stop-color="#0076FF"/>
</linearGradient>
<linearGradient id="paint1_linear_4397_968" x1="0.00160083" y1="17.4961" x2="30.9942" y2="17.4961" gradientUnits="userSpaceOnUse">
<stop stop-color="#0076FF"/>
<stop offset="1" stop-color="#2DD5C3"/>
</linearGradient>
</defs>
</svg>
