<svg xmlns="http://www.w3.org/2000/svg" width="31" height="31" viewBox="0 0 31 31" fill="none">
  <path d="M30.9617 14.2407C30.8733 13.6359 30.6037 13.1091 30.3527 12.6784C30.2923 12.573 30.1807 12.4722 30.0412 12.3944C29.8134 12.2615 29.5624 12.2661 29.251 12.4127L22.622 15.5052L22.4872 15.5648L22.4174 15.0791C22.3616 14.6989 22.3059 14.3232 22.2547 13.9521C22.1385 13.0724 21.4273 7.63413 21.4273 7.63413C21.2134 6.02142 21.0042 4.4133 20.795 2.8006C20.6138 1.39864 19.5074 0.267002 18.1035 0.0425063C17.6154 -0.03538 17.0994 -0.00789071 16.4067 0.138719C16.2951 0.161626 16.1743 0.23035 16.0581 0.331144C15.7931 0.564802 15.7977 0.871766 15.8256 1.0871C16.1417 3.48783 16.4532 5.88856 16.7647 8.28012L16.7786 8.39466L16.3137 8.31678C15.9465 8.25722 15.5839 8.19765 15.226 8.12893C11.5721 7.45544 7.92291 6.77738 4.27372 6.09473C3.72982 5.99393 3.01858 5.92521 2.46074 6.09473C0.94063 6.54372 0.141061 7.62038 0.00160083 9.38886C-0.0169938 9.65917 0.127115 9.90199 0.396737 10.044C0.522251 10.1082 0.666359 10.1402 0.80117 10.1677C2.70712 10.5251 7.93686 11.4964 7.93686 11.4964L8.11351 11.533L8.06702 11.6063C8.03448 11.6567 8.00194 11.7071 7.97405 11.7575L7.56497 12.5135C7.33253 12.9441 7.09545 13.3748 6.85837 13.8009L1.87501 22.7899C1.14982 24.1002 1.36831 25.6625 2.4189 26.6704C2.7629 27.0003 3.16734 27.2156 3.59501 27.4447C4.12961 27.7334 4.56193 27.6051 4.8548 27.0782L8.36454 20.7511L8.43892 20.6182L14.9006 27.3577C15.7234 28.219 16.5462 29.0803 17.3736 29.9371C18.0337 30.6243 18.8891 31 19.7863 31C20.2279 31 20.6649 30.9084 21.0926 30.7251C21.6783 30.4731 22.1339 30.047 22.5383 29.621C22.6173 29.5385 22.6778 29.4194 22.7149 29.2865C22.794 29.007 22.7149 28.7505 22.4686 28.4939C21.1158 27.0874 17.4155 23.216 17.4155 23.216L17.3225 23.1106L17.5456 23.0144C17.7223 22.9411 17.8943 22.8632 18.0663 22.7853L19.4562 22.121C20.1163 21.8048 20.7811 21.4887 21.4459 21.1772C22.8219 20.5312 24.1932 19.8898 25.5739 19.2483L29.079 17.6127C30.4317 16.9805 31.1709 15.6518 30.9663 14.2315L30.9617 14.2407ZM19.2192 16.2658C16.8669 16.9209 15.3375 18.4237 14.6774 20.7465C14.6635 20.6869 14.6495 20.6274 14.6309 20.5678C13.9197 18.332 12.4042 16.8843 10.131 16.2658C12.4972 15.6106 14.0266 14.0987 14.6821 11.7667C14.7053 11.84 14.7285 11.9133 14.7471 11.9912C14.8169 12.2294 14.8866 12.4722 14.9935 12.7059C15.8303 14.5477 17.2528 15.748 19.2192 16.2703V16.2658Z" fill="white"/>
</svg>