<svg width="493" height="260" viewBox="0 0 493 260" fill="none" xmlns="http://www.w3.org/2000/svg">
<g filter="url(#filter0_b_7142_1013)">
<rect y="20" width="492.548" height="240" rx="20" fill="white" fill-opacity="0.75"/>
<rect x="0.75" y="20.75" width="491.048" height="238.5" rx="19.25" stroke="url(#paint0_linear_7142_1013)" stroke-width="1.5"/>
</g>
<path d="M63.5079 97V94.096H67.8039C68.8919 94.096 69.8439 93.872 70.6599 93.424C71.4759 92.96 72.1079 92.312 72.5559 91.48C73.0199 90.648 73.2519 89.664 73.2519 88.528C73.2519 87.424 73.0199 86.464 72.5559 85.648C72.0919 84.816 71.4519 84.176 70.6359 83.728C69.8199 83.264 68.8759 83.032 67.8039 83.032H63.4359V80.128H67.8519C69.0999 80.128 70.2519 80.336 71.3079 80.752C72.3799 81.168 73.3079 81.76 74.0919 82.528C74.8919 83.28 75.5079 84.168 75.9399 85.192C76.3879 86.216 76.6119 87.336 76.6119 88.552C76.6119 89.768 76.3879 90.896 75.9399 91.936C75.5079 92.96 74.8999 93.856 74.1159 94.624C73.3319 95.376 72.4039 95.96 71.3319 96.376C70.2759 96.792 69.1319 97 67.8999 97H63.5079ZM61.2759 97V80.128H64.5399V97H61.2759ZM84.3175 97.24C83.1495 97.24 82.0935 96.976 81.1495 96.448C80.2215 95.904 79.4775 95.176 78.9175 94.264C78.3735 93.336 78.1015 92.304 78.1015 91.168C78.1015 90.032 78.3735 89.016 78.9175 88.12C79.4615 87.208 80.2055 86.488 81.1495 85.96C82.0935 85.416 83.1415 85.144 84.2935 85.144C85.4775 85.144 86.5335 85.416 87.4615 85.96C88.4055 86.488 89.1495 87.208 89.6935 88.12C90.2375 89.016 90.5095 90.032 90.5095 91.168C90.5095 92.304 90.2375 93.336 89.6935 94.264C89.1495 95.176 88.4055 95.904 87.4615 96.448C86.5335 96.976 85.4855 97.24 84.3175 97.24ZM84.2935 94.312C84.8855 94.312 85.4055 94.184 85.8535 93.928C86.3175 93.656 86.6695 93.288 86.9095 92.824C87.1655 92.344 87.2935 91.8 87.2935 91.192C87.2935 90.584 87.1655 90.048 86.9095 89.584C86.6535 89.12 86.3015 88.76 85.8535 88.504C85.4055 88.232 84.8855 88.096 84.2935 88.096C83.7175 88.096 83.2055 88.232 82.7575 88.504C82.3095 88.76 81.9575 89.12 81.7015 89.584C81.4455 90.048 81.3175 90.584 81.3175 91.192C81.3175 91.8 81.4455 92.344 81.7015 92.824C81.9575 93.288 82.3095 93.656 82.7575 93.928C83.2055 94.184 83.7175 94.312 84.2935 94.312ZM97.5571 97V80.128H99.8611L106.701 91.072H105.381L112.197 80.128H114.501V97H111.261V85.72L111.885 85.912L107.133 93.544H104.925L100.173 85.912L100.821 85.72V97H97.5571ZM123.06 97.24C121.892 97.24 120.836 96.976 119.892 96.448C118.964 95.904 118.22 95.176 117.66 94.264C117.116 93.336 116.844 92.304 116.844 91.168C116.844 90.032 117.116 89.016 117.66 88.12C118.204 87.208 118.948 86.488 119.892 85.96C120.836 85.416 121.884 85.144 123.036 85.144C124.22 85.144 125.276 85.416 126.204 85.96C127.148 86.488 127.892 87.208 128.436 88.12C128.98 89.016 129.252 90.032 129.252 91.168C129.252 92.304 128.98 93.336 128.436 94.264C127.892 95.176 127.148 95.904 126.204 96.448C125.276 96.976 124.228 97.24 123.06 97.24ZM123.036 94.312C123.628 94.312 124.148 94.184 124.596 93.928C125.06 93.656 125.412 93.288 125.652 92.824C125.908 92.344 126.036 91.8 126.036 91.192C126.036 90.584 125.908 90.048 125.652 89.584C125.396 89.12 125.044 88.76 124.596 88.504C124.148 88.232 123.628 88.096 123.036 88.096C122.46 88.096 121.948 88.232 121.5 88.504C121.052 88.76 120.7 89.12 120.444 89.584C120.188 90.048 120.06 90.584 120.06 91.192C120.06 91.8 120.188 92.344 120.444 92.824C120.7 93.288 121.052 93.656 121.5 93.928C121.948 94.184 122.46 94.312 123.036 94.312ZM131.276 97V85.408H134.42V97H131.276ZM134.42 90.592L133.196 89.776C133.34 88.352 133.756 87.232 134.444 86.416C135.132 85.584 136.124 85.168 137.42 85.168C137.98 85.168 138.484 85.264 138.932 85.456C139.38 85.632 139.788 85.928 140.156 86.344L138.188 88.6C138.012 88.408 137.796 88.264 137.54 88.168C137.3 88.072 137.02 88.024 136.7 88.024C136.028 88.024 135.476 88.24 135.044 88.672C134.628 89.088 134.42 89.728 134.42 90.592ZM146.476 97.24C145.26 97.24 144.18 96.984 143.236 96.472C142.292 95.944 141.54 95.224 140.98 94.312C140.436 93.4 140.164 92.36 140.164 91.192C140.164 90.04 140.428 89.016 140.956 88.12C141.5 87.208 142.236 86.488 143.164 85.96C144.092 85.416 145.124 85.144 146.26 85.144C147.38 85.144 148.364 85.4 149.212 85.912C150.076 86.408 150.748 87.096 151.228 87.976C151.724 88.84 151.972 89.824 151.972 90.928C151.972 91.136 151.956 91.352 151.924 91.576C151.908 91.784 151.868 92.024 151.804 92.296L142.06 92.32V89.968L150.34 89.944L149.068 90.928C149.036 90.24 148.908 89.664 148.684 89.2C148.476 88.736 148.164 88.384 147.748 88.144C147.348 87.888 146.852 87.76 146.26 87.76C145.636 87.76 145.092 87.904 144.628 88.192C144.164 88.464 143.804 88.856 143.548 89.368C143.308 89.864 143.188 90.456 143.188 91.144C143.188 91.848 143.316 92.464 143.572 92.992C143.844 93.504 144.228 93.904 144.724 94.192C145.22 94.464 145.796 94.6 146.452 94.6C147.044 94.6 147.58 94.504 148.06 94.312C148.54 94.104 148.956 93.8 149.308 93.4L151.156 95.248C150.596 95.904 149.908 96.4 149.092 96.736C148.292 97.072 147.42 97.24 146.476 97.24ZM169.644 97L161.772 88.36C161.18 87.704 160.74 87.08 160.452 86.488C160.164 85.88 160.02 85.216 160.02 84.496C160.02 83.648 160.228 82.872 160.644 82.168C161.076 81.464 161.66 80.904 162.396 80.488C163.148 80.072 164.004 79.864 164.964 79.864C165.716 79.864 166.388 79.984 166.98 80.224C167.572 80.448 168.084 80.744 168.516 81.112C168.964 81.48 169.324 81.872 169.596 82.288L167.436 84.304C167.1 83.84 166.74 83.48 166.356 83.224C165.972 82.952 165.524 82.816 165.012 82.816C164.468 82.816 164.012 82.976 163.644 83.296C163.276 83.616 163.092 84.016 163.092 84.496C163.092 84.944 163.188 85.328 163.38 85.648C163.572 85.952 163.836 86.304 164.172 86.704L173.364 97H169.644ZM164.004 97.24C162.852 97.24 161.844 97.016 160.98 96.568C160.132 96.12 159.468 95.512 158.988 94.744C158.524 93.96 158.292 93.072 158.292 92.08C158.292 91.056 158.564 90.136 159.108 89.32C159.668 88.504 160.492 87.84 161.58 87.328L162.996 89.344C162.452 89.6 162.036 89.944 161.748 90.376C161.476 90.792 161.34 91.312 161.34 91.936C161.34 92.416 161.452 92.84 161.676 93.208C161.9 93.56 162.22 93.84 162.636 94.048C163.052 94.24 163.532 94.336 164.076 94.336C164.764 94.336 165.34 94.192 165.804 93.904C166.268 93.616 166.636 93.248 166.908 92.8L169.02 95.104C168.7 95.488 168.284 95.84 167.772 96.16C167.26 96.48 166.684 96.744 166.044 96.952C165.404 97.144 164.724 97.24 164.004 97.24ZM181.426 89.944V87.4H185.338C186.138 87.4 186.754 87.2 187.186 86.8C187.634 86.384 187.858 85.816 187.858 85.096C187.858 84.44 187.634 83.896 187.186 83.464C186.754 83.016 186.138 82.792 185.338 82.792H181.426V80.128H185.626C186.714 80.128 187.666 80.344 188.482 80.776C189.314 81.192 189.954 81.768 190.402 82.504C190.866 83.24 191.098 84.088 191.098 85.048C191.098 86.04 190.866 86.904 190.402 87.64C189.954 88.36 189.314 88.928 188.482 89.344C187.65 89.744 186.682 89.944 185.578 89.944H181.426ZM179.026 97V80.128H182.29V97H179.026ZM188.242 97L182.674 89.704L185.674 88.768L192.202 97H188.242ZM198.929 97.24C197.713 97.24 196.633 96.984 195.689 96.472C194.745 95.944 193.993 95.224 193.433 94.312C192.889 93.4 192.617 92.36 192.617 91.192C192.617 90.04 192.881 89.016 193.409 88.12C193.953 87.208 194.689 86.488 195.617 85.96C196.545 85.416 197.577 85.144 198.713 85.144C199.833 85.144 200.817 85.4 201.665 85.912C202.529 86.408 203.201 87.096 203.681 87.976C204.177 88.84 204.425 89.824 204.425 90.928C204.425 91.136 204.409 91.352 204.377 91.576C204.361 91.784 204.321 92.024 204.257 92.296L194.513 92.32V89.968L202.793 89.944L201.521 90.928C201.489 90.24 201.361 89.664 201.137 89.2C200.929 88.736 200.617 88.384 200.201 88.144C199.801 87.888 199.305 87.76 198.713 87.76C198.089 87.76 197.545 87.904 197.081 88.192C196.617 88.464 196.257 88.856 196.001 89.368C195.761 89.864 195.641 90.456 195.641 91.144C195.641 91.848 195.769 92.464 196.025 92.992C196.297 93.504 196.681 93.904 197.177 94.192C197.673 94.464 198.249 94.6 198.905 94.6C199.497 94.6 200.033 94.504 200.513 94.312C200.993 94.104 201.409 93.8 201.761 93.4L203.609 95.248C203.049 95.904 202.361 96.4 201.545 96.736C200.745 97.072 199.873 97.24 198.929 97.24ZM211.266 97.24C210.194 97.24 209.234 96.976 208.386 96.448C207.538 95.92 206.866 95.2 206.37 94.288C205.89 93.376 205.65 92.352 205.65 91.216C205.65 90.064 205.89 89.032 206.37 88.12C206.866 87.208 207.53 86.488 208.362 85.96C209.21 85.432 210.178 85.168 211.266 85.168C212.098 85.168 212.842 85.336 213.498 85.672C214.17 86.008 214.706 86.48 215.106 87.088C215.522 87.68 215.746 88.352 215.778 89.104V93.232C215.746 93.984 215.53 94.664 215.13 95.272C214.73 95.88 214.194 96.36 213.522 96.712C212.85 97.064 212.098 97.24 211.266 97.24ZM211.794 94.336C212.386 94.336 212.898 94.208 213.33 93.952C213.778 93.68 214.122 93.312 214.362 92.848C214.618 92.368 214.746 91.816 214.746 91.192C214.746 90.584 214.618 90.048 214.362 89.584C214.122 89.104 213.778 88.736 213.33 88.48C212.898 88.208 212.394 88.072 211.818 88.072C211.226 88.072 210.706 88.208 210.258 88.48C209.826 88.752 209.482 89.12 209.226 89.584C208.986 90.048 208.866 90.584 208.866 91.192C208.866 91.816 208.986 92.368 209.226 92.848C209.482 93.312 209.834 93.68 210.282 93.952C210.73 94.208 211.234 94.336 211.794 94.336ZM217.698 97H214.578V93.88L215.082 91.048L214.554 88.264V79.648H217.698V97ZM225.423 97.24C224.399 97.24 223.487 97.024 222.687 96.592C221.903 96.16 221.287 95.56 220.839 94.792C220.391 94.024 220.167 93.136 220.167 92.128V85.408H223.335V92.056C223.335 92.536 223.415 92.952 223.575 93.304C223.735 93.64 223.975 93.896 224.295 94.072C224.615 94.248 224.991 94.336 225.423 94.336C226.079 94.336 226.591 94.136 226.959 93.736C227.327 93.336 227.511 92.776 227.511 92.056V85.408H230.655V92.128C230.655 93.152 230.431 94.048 229.983 94.816C229.551 95.584 228.935 96.184 228.135 96.616C227.351 97.032 226.447 97.24 225.423 97.24ZM238.631 97.24C237.447 97.24 236.383 96.976 235.439 96.448C234.495 95.92 233.751 95.2 233.207 94.288C232.663 93.376 232.391 92.352 232.391 91.216C232.391 90.064 232.663 89.032 233.207 88.12C233.751 87.208 234.495 86.488 235.439 85.96C236.399 85.416 237.463 85.144 238.631 85.144C239.543 85.144 240.383 85.312 241.151 85.648C241.919 85.984 242.583 86.464 243.143 87.088L241.127 89.128C240.823 88.792 240.455 88.536 240.023 88.36C239.607 88.184 239.143 88.096 238.631 88.096C238.055 88.096 237.535 88.232 237.071 88.504C236.623 88.76 236.263 89.12 235.991 89.584C235.735 90.032 235.607 90.568 235.607 91.192C235.607 91.8 235.735 92.344 235.991 92.824C236.263 93.288 236.623 93.656 237.071 93.928C237.535 94.184 238.055 94.312 238.631 94.312C239.159 94.312 239.631 94.224 240.047 94.048C240.479 93.856 240.847 93.584 241.151 93.232L243.191 95.272C242.599 95.912 241.919 96.4 241.151 96.736C240.383 97.072 239.543 97.24 238.631 97.24ZM250.257 97.24C249.041 97.24 247.961 96.984 247.017 96.472C246.073 95.944 245.321 95.224 244.761 94.312C244.217 93.4 243.945 92.36 243.945 91.192C243.945 90.04 244.209 89.016 244.737 88.12C245.281 87.208 246.017 86.488 246.945 85.96C247.873 85.416 248.905 85.144 250.041 85.144C251.161 85.144 252.145 85.4 252.993 85.912C253.857 86.408 254.529 87.096 255.009 87.976C255.505 88.84 255.753 89.824 255.753 90.928C255.753 91.136 255.737 91.352 255.705 91.576C255.689 91.784 255.649 92.024 255.585 92.296L245.841 92.32V89.968L254.121 89.944L252.849 90.928C252.817 90.24 252.689 89.664 252.465 89.2C252.257 88.736 251.945 88.384 251.529 88.144C251.129 87.888 250.633 87.76 250.041 87.76C249.417 87.76 248.873 87.904 248.409 88.192C247.945 88.464 247.585 88.856 247.329 89.368C247.089 89.864 246.969 90.456 246.969 91.144C246.969 91.848 247.097 92.464 247.353 92.992C247.625 93.504 248.009 93.904 248.505 94.192C249.001 94.464 249.577 94.6 250.233 94.6C250.825 94.6 251.361 94.504 251.841 94.312C252.321 94.104 252.737 93.8 253.089 93.4L254.937 95.248C254.377 95.904 253.689 96.4 252.873 96.736C252.073 97.072 251.201 97.24 250.257 97.24ZM270.545 97.24C269.313 97.24 268.169 97.024 267.113 96.592C266.057 96.144 265.129 95.528 264.329 94.744C263.545 93.944 262.937 93.016 262.505 91.96C262.089 90.904 261.881 89.768 261.881 88.552C261.881 87.336 262.089 86.2 262.505 85.144C262.937 84.088 263.545 83.168 264.329 82.384C265.129 81.6 266.049 80.984 267.089 80.536C268.145 80.088 269.297 79.864 270.545 79.864C271.889 79.864 273.073 80.088 274.097 80.536C275.121 80.968 276.025 81.568 276.809 82.336L274.601 84.544C274.137 84.032 273.569 83.632 272.897 83.344C272.225 83.056 271.441 82.912 270.545 82.912C269.761 82.912 269.041 83.048 268.385 83.32C267.745 83.576 267.185 83.96 266.705 84.472C266.225 84.968 265.857 85.568 265.601 86.272C265.345 86.96 265.217 87.72 265.217 88.552C265.217 89.4 265.345 90.168 265.601 90.856C265.857 91.544 266.225 92.144 266.705 92.656C267.185 93.152 267.745 93.536 268.385 93.808C269.041 94.08 269.761 94.216 270.545 94.216C271.489 94.216 272.297 94.072 272.969 93.784C273.657 93.496 274.233 93.088 274.697 92.56L276.905 94.768C276.121 95.552 275.209 96.16 274.169 96.592C273.129 97.024 271.921 97.24 270.545 97.24ZM284.005 97.24C282.837 97.24 281.781 96.976 280.837 96.448C279.909 95.904 279.165 95.176 278.605 94.264C278.061 93.336 277.789 92.304 277.789 91.168C277.789 90.032 278.061 89.016 278.605 88.12C279.149 87.208 279.893 86.488 280.837 85.96C281.781 85.416 282.829 85.144 283.981 85.144C285.165 85.144 286.221 85.416 287.149 85.96C288.093 86.488 288.837 87.208 289.381 88.12C289.925 89.016 290.197 90.032 290.197 91.168C290.197 92.304 289.925 93.336 289.381 94.264C288.837 95.176 288.093 95.904 287.149 96.448C286.221 96.976 285.173 97.24 284.005 97.24ZM283.981 94.312C284.573 94.312 285.093 94.184 285.541 93.928C286.005 93.656 286.357 93.288 286.597 92.824C286.853 92.344 286.981 91.8 286.981 91.192C286.981 90.584 286.853 90.048 286.597 89.584C286.341 89.12 285.989 88.76 285.541 88.504C285.093 88.232 284.573 88.096 283.981 88.096C283.405 88.096 282.893 88.232 282.445 88.504C281.997 88.76 281.645 89.12 281.389 89.584C281.133 90.048 281.005 90.584 281.005 91.192C281.005 91.8 281.133 92.344 281.389 92.824C281.645 93.288 281.997 93.656 282.445 93.928C282.893 94.184 283.405 94.312 283.981 94.312ZM296.205 97.264C295.549 97.264 294.901 97.176 294.261 97C293.637 96.824 293.061 96.584 292.533 96.28C292.005 95.96 291.549 95.576 291.165 95.128L293.037 93.232C293.437 93.68 293.901 94.016 294.429 94.24C294.957 94.464 295.541 94.576 296.181 94.576C296.693 94.576 297.077 94.504 297.333 94.36C297.605 94.216 297.741 94 297.741 93.712C297.741 93.392 297.597 93.144 297.309 92.968C297.037 92.792 296.677 92.648 296.229 92.536C295.781 92.408 295.309 92.272 294.813 92.128C294.333 91.968 293.869 91.768 293.421 91.528C292.973 91.272 292.605 90.928 292.317 90.496C292.045 90.048 291.909 89.472 291.909 88.768C291.909 88.032 292.085 87.392 292.437 86.848C292.805 86.304 293.325 85.88 293.997 85.576C294.669 85.272 295.461 85.12 296.373 85.12C297.333 85.12 298.197 85.288 298.965 85.624C299.749 85.96 300.397 86.464 300.909 87.136L299.013 89.032C298.661 88.6 298.261 88.288 297.813 88.096C297.381 87.904 296.909 87.808 296.397 87.808C295.933 87.808 295.573 87.88 295.317 88.024C295.077 88.168 294.957 88.368 294.957 88.624C294.957 88.912 295.093 89.136 295.365 89.296C295.653 89.456 296.021 89.6 296.469 89.728C296.917 89.84 297.381 89.976 297.861 90.136C298.357 90.28 298.821 90.488 299.253 90.76C299.701 91.032 300.061 91.392 300.333 91.84C300.621 92.288 300.765 92.864 300.765 93.568C300.765 94.704 300.357 95.608 299.541 96.28C298.725 96.936 297.613 97.264 296.205 97.264ZM304.589 97V80.584H307.733V97H304.589ZM301.877 88.168V85.408H310.445V88.168H301.877ZM315.963 97.264C315.307 97.264 314.659 97.176 314.019 97C313.395 96.824 312.819 96.584 312.291 96.28C311.763 95.96 311.307 95.576 310.923 95.128L312.795 93.232C313.195 93.68 313.659 94.016 314.187 94.24C314.715 94.464 315.299 94.576 315.939 94.576C316.451 94.576 316.835 94.504 317.091 94.36C317.363 94.216 317.499 94 317.499 93.712C317.499 93.392 317.355 93.144 317.067 92.968C316.795 92.792 316.435 92.648 315.987 92.536C315.539 92.408 315.067 92.272 314.571 92.128C314.091 91.968 313.627 91.768 313.179 91.528C312.731 91.272 312.363 90.928 312.075 90.496C311.803 90.048 311.667 89.472 311.667 88.768C311.667 88.032 311.843 87.392 312.195 86.848C312.563 86.304 313.083 85.88 313.755 85.576C314.427 85.272 315.219 85.12 316.131 85.12C317.091 85.12 317.955 85.288 318.723 85.624C319.507 85.96 320.155 86.464 320.667 87.136L318.771 89.032C318.419 88.6 318.019 88.288 317.571 88.096C317.139 87.904 316.667 87.808 316.155 87.808C315.691 87.808 315.331 87.88 315.075 88.024C314.835 88.168 314.715 88.368 314.715 88.624C314.715 88.912 314.851 89.136 315.123 89.296C315.411 89.456 315.779 89.6 316.227 89.728C316.675 89.84 317.139 89.976 317.619 90.136C318.115 90.28 318.579 90.488 319.011 90.76C319.459 91.032 319.819 91.392 320.091 91.84C320.379 92.288 320.523 92.864 320.523 93.568C320.523 94.704 320.115 95.608 319.299 96.28C318.483 96.936 317.371 97.264 315.963 97.264Z" fill="black"/>
<path d="M63.64 140V126.12H65.52V140H63.64ZM68.4762 140V130.5H70.2763V140H68.4762ZM74.8963 140V134.26C74.8963 133.553 74.6763 133 74.2363 132.6C73.8096 132.187 73.2696 131.98 72.6163 131.98C72.1763 131.98 71.7829 132.073 71.4363 132.26C71.0896 132.447 70.8096 132.707 70.5963 133.04C70.3829 133.373 70.2763 133.773 70.2763 134.24L69.5363 133.88C69.5363 133.16 69.6896 132.533 69.9963 132C70.3163 131.467 70.7496 131.053 71.2963 130.76C71.8429 130.453 72.4563 130.3 73.1363 130.3C73.8029 130.3 74.4029 130.447 74.9363 130.74C75.4829 131.033 75.9096 131.447 76.2163 131.98C76.5363 132.513 76.6963 133.147 76.6963 133.88V140H74.8963ZM81.3163 140V134.26C81.3163 133.553 81.0963 133 80.6563 132.6C80.2296 132.187 79.6963 131.98 79.0563 131.98C78.6163 131.98 78.2163 132.073 77.8563 132.26C77.5096 132.447 77.2296 132.707 77.0163 133.04C76.8029 133.373 76.6963 133.773 76.6963 134.24L75.6763 133.88C75.7163 133.147 75.9096 132.52 76.2563 132C76.6163 131.467 77.0763 131.053 77.6363 130.76C78.1963 130.453 78.8096 130.3 79.4763 130.3C80.1696 130.3 80.7896 130.447 81.3363 130.74C81.8829 131.033 82.3163 131.447 82.6363 131.98C82.9696 132.513 83.1363 133.153 83.1363 133.9V140H81.3163ZM90.5856 140.2C89.8656 140.2 89.2123 140.053 88.6256 139.76C88.0523 139.453 87.5923 139.033 87.2456 138.5C86.899 137.967 86.7056 137.36 86.6656 136.68V133.82C86.7056 133.127 86.899 132.52 87.2456 132C87.6056 131.467 88.0723 131.053 88.6456 130.76C89.2323 130.453 89.879 130.3 90.5856 130.3C91.4523 130.3 92.2323 130.52 92.9256 130.96C93.6323 131.4 94.1856 131.993 94.5856 132.74C94.9856 133.487 95.1856 134.327 95.1856 135.26C95.1856 136.193 94.9856 137.033 94.5856 137.78C94.1856 138.527 93.6323 139.12 92.9256 139.56C92.2323 139.987 91.4523 140.2 90.5856 140.2ZM85.5856 143.98V130.5H87.3856V133L87.0456 135.3L87.3856 137.62V143.98H85.5856ZM90.2856 138.5C90.8856 138.5 91.4123 138.36 91.8656 138.08C92.319 137.8 92.679 137.42 92.9456 136.94C93.2123 136.447 93.3456 135.88 93.3456 135.24C93.3456 134.613 93.2123 134.053 92.9456 133.56C92.679 133.067 92.319 132.687 91.8656 132.42C91.4123 132.14 90.8923 132 90.3056 132C89.7056 132 89.179 132.14 88.7256 132.42C88.2723 132.687 87.919 133.067 87.6656 133.56C87.4123 134.053 87.2856 134.62 87.2856 135.26C87.2856 135.887 87.4056 136.447 87.6456 136.94C87.899 137.42 88.2523 137.8 88.7056 138.08C89.1723 138.36 89.699 138.5 90.2856 138.5ZM97.2262 140V130.5H99.0263V140H97.2262ZM99.0263 134.58L98.3463 134.28C98.3463 133.067 98.6263 132.1 99.1863 131.38C99.7463 130.66 100.553 130.3 101.606 130.3C102.086 130.3 102.52 130.387 102.906 130.56C103.293 130.72 103.653 130.993 103.986 131.38L102.806 132.6C102.606 132.387 102.386 132.233 102.146 132.14C101.906 132.047 101.626 132 101.306 132C100.64 132 100.093 132.213 99.6663 132.64C99.2396 133.067 99.0263 133.713 99.0263 134.58ZM109.281 140.2C108.348 140.2 107.508 139.98 106.761 139.54C106.014 139.1 105.421 138.507 104.981 137.76C104.541 137 104.321 136.153 104.321 135.22C104.321 134.3 104.541 133.473 104.981 132.74C105.421 131.993 106.014 131.4 106.761 130.96C107.508 130.52 108.348 130.3 109.281 130.3C110.201 130.3 111.034 130.52 111.781 130.96C112.541 131.387 113.141 131.973 113.581 132.72C114.021 133.467 114.241 134.3 114.241 135.22C114.241 136.153 114.021 137 113.581 137.76C113.141 138.507 112.541 139.1 111.781 139.54C111.034 139.98 110.201 140.2 109.281 140.2ZM109.281 138.46C109.881 138.46 110.414 138.32 110.881 138.04C111.348 137.76 111.714 137.38 111.981 136.9C112.248 136.407 112.381 135.847 112.381 135.22C112.381 134.607 112.241 134.06 111.961 133.58C111.694 133.1 111.328 132.727 110.861 132.46C110.408 132.18 109.881 132.04 109.281 132.04C108.681 132.04 108.148 132.18 107.681 132.46C107.214 132.727 106.848 133.1 106.581 133.58C106.314 134.06 106.181 134.607 106.181 135.22C106.181 135.847 106.314 136.407 106.581 136.9C106.848 137.38 107.214 137.76 107.681 138.04C108.148 138.32 108.681 138.46 109.281 138.46ZM119.178 140L114.818 130.5H116.818L120.318 138.52H119.158L122.678 130.5H124.598L120.238 140H119.178ZM130.181 140.2C129.234 140.2 128.381 139.987 127.621 139.56C126.861 139.12 126.261 138.527 125.821 137.78C125.381 137.033 125.161 136.187 125.161 135.24C125.161 134.307 125.374 133.467 125.801 132.72C126.241 131.973 126.828 131.387 127.561 130.96C128.308 130.52 129.141 130.3 130.061 130.3C130.941 130.3 131.714 130.5 132.381 130.9C133.061 131.3 133.588 131.853 133.961 132.56C134.348 133.267 134.541 134.067 134.541 134.96C134.541 135.093 134.534 135.24 134.521 135.4C134.508 135.547 134.481 135.72 134.441 135.92H126.421V134.42H133.481L132.821 135C132.821 134.36 132.708 133.82 132.481 133.38C132.254 132.927 131.934 132.58 131.521 132.34C131.108 132.087 130.608 131.96 130.021 131.96C129.408 131.96 128.868 132.093 128.401 132.36C127.934 132.627 127.574 133 127.321 133.48C127.068 133.96 126.941 134.527 126.941 135.18C126.941 135.847 127.074 136.433 127.341 136.94C127.608 137.433 127.988 137.82 128.481 138.1C128.974 138.367 129.541 138.5 130.181 138.5C130.714 138.5 131.201 138.407 131.641 138.22C132.094 138.033 132.481 137.753 132.801 137.38L133.961 138.56C133.508 139.093 132.948 139.5 132.281 139.78C131.628 140.06 130.928 140.2 130.181 140.2ZM143.784 140.08L139.664 130.5H141.664L144.724 138H144.084L147.304 130.5H149.304L144.864 140.08H143.784ZM141.064 143.98L143.864 138.24L144.864 140.08L143.064 143.98H141.064ZM154.75 140.2C153.817 140.2 152.977 139.98 152.23 139.54C151.483 139.1 150.89 138.507 150.45 137.76C150.01 137 149.79 136.153 149.79 135.22C149.79 134.3 150.01 133.473 150.45 132.74C150.89 131.993 151.483 131.4 152.23 130.96C152.977 130.52 153.817 130.3 154.75 130.3C155.67 130.3 156.503 130.52 157.25 130.96C158.01 131.387 158.61 131.973 159.05 132.72C159.49 133.467 159.71 134.3 159.71 135.22C159.71 136.153 159.49 137 159.05 137.76C158.61 138.507 158.01 139.1 157.25 139.54C156.503 139.98 155.67 140.2 154.75 140.2ZM154.75 138.46C155.35 138.46 155.883 138.32 156.35 138.04C156.817 137.76 157.183 137.38 157.45 136.9C157.717 136.407 157.85 135.847 157.85 135.22C157.85 134.607 157.71 134.06 157.43 133.58C157.163 133.1 156.797 132.727 156.33 132.46C155.877 132.18 155.35 132.04 154.75 132.04C154.15 132.04 153.617 132.18 153.15 132.46C152.683 132.727 152.317 133.1 152.05 133.58C151.783 134.06 151.65 134.607 151.65 135.22C151.65 135.847 151.783 136.407 152.05 136.9C152.317 137.38 152.683 137.76 153.15 138.04C153.617 138.32 154.15 138.46 154.75 138.46ZM165.578 140.2C164.791 140.2 164.085 140.027 163.458 139.68C162.845 139.32 162.365 138.827 162.018 138.2C161.671 137.573 161.498 136.847 161.498 136.02V130.5H163.298V135.94C163.298 136.46 163.385 136.913 163.558 137.3C163.745 137.673 164.011 137.96 164.358 138.16C164.705 138.36 165.111 138.46 165.578 138.46C166.285 138.46 166.838 138.24 167.238 137.8C167.638 137.347 167.838 136.727 167.838 135.94V130.5H169.638V136.02C169.638 136.847 169.465 137.573 169.118 138.2C168.771 138.827 168.291 139.32 167.678 139.68C167.078 140.027 166.378 140.2 165.578 140.2ZM172.05 140V130.5H173.85V140H172.05ZM173.85 134.58L173.17 134.28C173.17 133.067 173.45 132.1 174.01 131.38C174.57 130.66 175.377 130.3 176.43 130.3C176.91 130.3 177.344 130.387 177.73 130.56C178.117 130.72 178.477 130.993 178.81 131.38L177.63 132.6C177.43 132.387 177.21 132.233 176.97 132.14C176.73 132.047 176.45 132 176.13 132C175.464 132 174.917 132.213 174.49 132.64C174.064 133.067 173.85 133.713 173.85 134.58ZM189.59 140.2C188.87 140.2 188.216 140.053 187.63 139.76C187.056 139.453 186.596 139.033 186.25 138.5C185.903 137.967 185.71 137.36 185.67 136.68V133.82C185.71 133.127 185.903 132.52 186.25 132C186.61 131.467 187.076 131.053 187.65 130.76C188.236 130.453 188.883 130.3 189.59 130.3C190.456 130.3 191.236 130.52 191.93 130.96C192.636 131.4 193.19 131.993 193.59 132.74C193.99 133.487 194.19 134.327 194.19 135.26C194.19 136.193 193.99 137.033 193.59 137.78C193.19 138.527 192.636 139.12 191.93 139.56C191.236 139.987 190.456 140.2 189.59 140.2ZM184.59 143.98V130.5H186.39V133L186.05 135.3L186.39 137.62V143.98H184.59ZM189.29 138.5C189.89 138.5 190.416 138.36 190.87 138.08C191.323 137.8 191.683 137.42 191.95 136.94C192.216 136.447 192.35 135.88 192.35 135.24C192.35 134.613 192.216 134.053 191.95 133.56C191.683 133.067 191.323 132.687 190.87 132.42C190.416 132.14 189.896 132 189.31 132C188.71 132 188.183 132.14 187.73 132.42C187.276 132.687 186.923 133.067 186.67 133.56C186.416 134.053 186.29 134.62 186.29 135.26C186.29 135.887 186.41 136.447 186.65 136.94C186.903 137.42 187.256 137.8 187.71 138.08C188.176 138.36 188.703 138.5 189.29 138.5ZM196.23 140V130.5H198.03V140H196.23ZM198.03 134.58L197.35 134.28C197.35 133.067 197.63 132.1 198.19 131.38C198.75 130.66 199.557 130.3 200.61 130.3C201.09 130.3 201.523 130.387 201.91 130.56C202.297 130.72 202.657 130.993 202.99 131.38L201.81 132.6C201.61 132.387 201.39 132.233 201.15 132.14C200.91 132.047 200.63 132 200.31 132C199.643 132 199.097 132.213 198.67 132.64C198.243 133.067 198.03 133.713 198.03 134.58ZM208.285 140.2C207.352 140.2 206.512 139.98 205.765 139.54C205.018 139.1 204.425 138.507 203.985 137.76C203.545 137 203.325 136.153 203.325 135.22C203.325 134.3 203.545 133.473 203.985 132.74C204.425 131.993 205.018 131.4 205.765 130.96C206.512 130.52 207.352 130.3 208.285 130.3C209.205 130.3 210.038 130.52 210.785 130.96C211.545 131.387 212.145 131.973 212.585 132.72C213.025 133.467 213.245 134.3 213.245 135.22C213.245 136.153 213.025 137 212.585 137.76C212.145 138.507 211.545 139.1 210.785 139.54C210.038 139.98 209.205 140.2 208.285 140.2ZM208.285 138.46C208.885 138.46 209.418 138.32 209.885 138.04C210.352 137.76 210.718 137.38 210.985 136.9C211.252 136.407 211.385 135.847 211.385 135.22C211.385 134.607 211.245 134.06 210.965 133.58C210.698 133.1 210.332 132.727 209.865 132.46C209.412 132.18 208.885 132.04 208.285 132.04C207.685 132.04 207.152 132.18 206.685 132.46C206.218 132.727 205.852 133.1 205.585 133.58C205.318 134.06 205.185 134.607 205.185 135.22C205.185 135.847 205.318 136.407 205.585 136.9C205.852 137.38 206.218 137.76 206.685 138.04C207.152 138.32 207.685 138.46 208.285 138.46ZM219.293 140.2C218.413 140.2 217.626 139.987 216.933 139.56C216.24 139.12 215.686 138.527 215.273 137.78C214.873 137.033 214.673 136.193 214.673 135.26C214.673 134.327 214.873 133.487 215.273 132.74C215.686 131.993 216.24 131.4 216.933 130.96C217.626 130.52 218.413 130.3 219.293 130.3C220 130.3 220.64 130.453 221.213 130.76C221.786 131.053 222.246 131.467 222.593 132C222.953 132.52 223.153 133.127 223.193 133.82V136.68C223.153 137.36 222.96 137.967 222.613 138.5C222.266 139.033 221.806 139.453 221.233 139.76C220.66 140.053 220.013 140.2 219.293 140.2ZM219.593 138.5C220.193 138.5 220.713 138.36 221.153 138.08C221.606 137.8 221.96 137.42 222.213 136.94C222.466 136.447 222.593 135.887 222.593 135.26C222.593 134.607 222.46 134.04 222.193 133.56C221.94 133.08 221.586 132.7 221.133 132.42C220.693 132.14 220.173 132 219.573 132C218.973 132 218.446 132.14 217.993 132.42C217.54 132.7 217.18 133.087 216.913 133.58C216.66 134.06 216.533 134.613 216.533 135.24C216.533 135.88 216.66 136.447 216.913 136.94C217.18 137.42 217.54 137.8 217.993 138.08C218.46 138.36 218.993 138.5 219.593 138.5ZM224.293 140H222.473V137.44L222.813 135.12L222.473 132.82V125.72H224.293V140ZM230.754 140.2C229.967 140.2 229.26 140.027 228.634 139.68C228.02 139.32 227.54 138.827 227.194 138.2C226.847 137.573 226.674 136.847 226.674 136.02V130.5H228.474V135.94C228.474 136.46 228.56 136.913 228.734 137.3C228.92 137.673 229.187 137.96 229.534 138.16C229.88 138.36 230.287 138.46 230.754 138.46C231.46 138.46 232.014 138.24 232.414 137.8C232.814 137.347 233.014 136.727 233.014 135.94V130.5H234.814V136.02C234.814 136.847 234.64 137.573 234.294 138.2C233.947 138.827 233.467 139.32 232.854 139.68C232.254 140.027 231.554 140.2 230.754 140.2ZM241.566 140.2C240.633 140.2 239.786 139.98 239.026 139.54C238.28 139.1 237.686 138.507 237.246 137.76C236.82 137 236.606 136.16 236.606 135.24C236.606 134.307 236.82 133.467 237.246 132.72C237.686 131.973 238.28 131.387 239.026 130.96C239.786 130.52 240.633 130.3 241.566 130.3C242.3 130.3 242.98 130.44 243.606 130.72C244.233 130.987 244.773 131.38 245.226 131.9L244.026 133.1C243.733 132.753 243.373 132.493 242.946 132.32C242.533 132.133 242.073 132.04 241.566 132.04C240.966 132.04 240.433 132.18 239.966 132.46C239.5 132.727 239.133 133.1 238.866 133.58C238.6 134.06 238.466 134.613 238.466 135.24C238.466 135.867 238.6 136.42 238.866 136.9C239.133 137.38 239.5 137.76 239.966 138.04C240.433 138.32 240.966 138.46 241.566 138.46C242.073 138.46 242.533 138.373 242.946 138.2C243.373 138.013 243.74 137.747 244.046 137.4L245.226 138.6C244.786 139.107 244.246 139.5 243.606 139.78C242.98 140.06 242.3 140.2 241.566 140.2ZM248.354 140V126.52H250.154V140H248.354ZM246.014 132.14V130.5H252.494V132.14H246.014ZM254.278 140V130.5H256.078V140H254.278ZM255.178 128.6C254.844 128.6 254.571 128.493 254.358 128.28C254.144 128.053 254.038 127.773 254.038 127.44C254.038 127.12 254.144 126.853 254.358 126.64C254.571 126.413 254.844 126.3 255.178 126.3C255.511 126.3 255.784 126.413 255.998 126.64C256.211 126.853 256.318 127.12 256.318 127.44C256.318 127.773 256.211 128.053 255.998 128.28C255.784 128.493 255.511 128.6 255.178 128.6ZM261.99 140L257.63 130.5H259.63L263.13 138.52H261.97L265.49 130.5H267.41L263.05 140H261.99ZM268.965 140V130.5H270.765V140H268.965ZM269.865 128.6C269.532 128.6 269.258 128.493 269.045 128.28C268.832 128.053 268.725 127.773 268.725 127.44C268.725 127.12 268.832 126.853 269.045 126.64C269.258 126.413 269.532 126.3 269.865 126.3C270.198 126.3 270.472 126.413 270.685 126.64C270.898 126.853 271.005 127.12 271.005 127.44C271.005 127.773 270.898 128.053 270.685 128.28C270.472 128.493 270.198 128.6 269.865 128.6ZM274.878 140V126.52H276.678V140H274.878ZM272.538 132.14V130.5H279.018V132.14H272.538ZM283.901 140.08L279.781 130.5H281.781L284.841 138H284.201L287.421 130.5H289.421L284.981 140.08H283.901ZM281.181 143.98L283.981 138.24L284.981 140.08L283.181 143.98H281.181ZM289.787 142.2L291.027 139.82L291.667 139.66C291.601 139.807 291.514 139.927 291.407 140.02C291.314 140.113 291.194 140.16 291.047 140.16C290.767 140.16 290.507 140.047 290.267 139.82C290.041 139.58 289.927 139.287 289.927 138.94C289.927 138.553 290.054 138.233 290.307 137.98C290.561 137.713 290.881 137.58 291.267 137.58C291.614 137.58 291.921 137.713 292.187 137.98C292.454 138.233 292.587 138.553 292.587 138.94C292.587 139.087 292.554 139.267 292.487 139.48C292.434 139.68 292.321 139.94 292.147 140.26L290.827 142.76L289.787 142.2ZM299.355 140V130.5H301.155V140H299.355ZM301.155 134.58L300.475 134.28C300.475 133.067 300.755 132.1 301.315 131.38C301.875 130.66 302.682 130.3 303.735 130.3C304.215 130.3 304.648 130.387 305.035 130.56C305.422 130.72 305.782 130.993 306.115 131.38L304.935 132.6C304.735 132.387 304.515 132.233 304.275 132.14C304.035 132.047 303.755 132 303.435 132C302.768 132 302.222 132.213 301.795 132.64C301.368 133.067 301.155 133.713 301.155 134.58ZM311.47 140.2C310.523 140.2 309.67 139.987 308.91 139.56C308.15 139.12 307.55 138.527 307.11 137.78C306.67 137.033 306.45 136.187 306.45 135.24C306.45 134.307 306.663 133.467 307.09 132.72C307.53 131.973 308.117 131.387 308.85 130.96C309.597 130.52 310.43 130.3 311.35 130.3C312.23 130.3 313.003 130.5 313.67 130.9C314.35 131.3 314.877 131.853 315.25 132.56C315.637 133.267 315.83 134.067 315.83 134.96C315.83 135.093 315.823 135.24 315.81 135.4C315.797 135.547 315.77 135.72 315.73 135.92H307.71V134.42H314.77L314.11 135C314.11 134.36 313.997 133.82 313.77 133.38C313.543 132.927 313.223 132.58 312.81 132.34C312.397 132.087 311.897 131.96 311.31 131.96C310.697 131.96 310.157 132.093 309.69 132.36C309.223 132.627 308.863 133 308.61 133.48C308.357 133.96 308.23 134.527 308.23 135.18C308.23 135.847 308.363 136.433 308.63 136.94C308.897 137.433 309.277 137.82 309.77 138.1C310.263 138.367 310.83 138.5 311.47 138.5C312.003 138.5 312.49 138.407 312.93 138.22C313.383 138.033 313.77 137.753 314.09 137.38L315.25 138.56C314.797 139.093 314.237 139.5 313.57 139.78C312.917 140.06 312.217 140.2 311.47 140.2ZM321.813 140.2C320.933 140.2 320.146 139.987 319.453 139.56C318.759 139.12 318.206 138.527 317.793 137.78C317.393 137.033 317.193 136.193 317.193 135.26C317.193 134.327 317.393 133.487 317.793 132.74C318.206 131.993 318.759 131.4 319.453 130.96C320.146 130.52 320.933 130.3 321.813 130.3C322.519 130.3 323.159 130.453 323.733 130.76C324.306 131.053 324.766 131.467 325.113 132C325.473 132.52 325.673 133.127 325.713 133.82V136.68C325.673 137.36 325.479 137.967 325.133 138.5C324.786 139.033 324.326 139.453 323.753 139.76C323.179 140.053 322.533 140.2 321.813 140.2ZM322.113 138.5C322.713 138.5 323.233 138.36 323.673 138.08C324.126 137.8 324.479 137.42 324.733 136.94C324.986 136.447 325.113 135.887 325.113 135.26C325.113 134.607 324.979 134.04 324.713 133.56C324.459 133.08 324.106 132.7 323.653 132.42C323.213 132.14 322.693 132 322.093 132C321.493 132 320.966 132.14 320.513 132.42C320.059 132.7 319.699 133.087 319.433 133.58C319.179 134.06 319.053 134.613 319.053 135.24C319.053 135.88 319.179 136.447 319.433 136.94C319.699 137.42 320.059 137.8 320.513 138.08C320.979 138.36 321.513 138.5 322.113 138.5ZM326.813 140H324.993V137.44L325.333 135.12L324.993 132.82V125.72H326.813V140ZM333.273 140.2C332.487 140.2 331.78 140.027 331.153 139.68C330.54 139.32 330.06 138.827 329.713 138.2C329.367 137.573 329.193 136.847 329.193 136.02V130.5H330.993V135.94C330.993 136.46 331.08 136.913 331.253 137.3C331.44 137.673 331.707 137.96 332.053 138.16C332.4 138.36 332.807 138.46 333.273 138.46C333.98 138.46 334.533 138.24 334.933 137.8C335.333 137.347 335.533 136.727 335.533 135.94V130.5H337.333V136.02C337.333 136.847 337.16 137.573 336.813 138.2C336.467 138.827 335.987 139.32 335.373 139.68C334.773 140.027 334.073 140.2 333.273 140.2ZM344.086 140.2C343.152 140.2 342.306 139.98 341.546 139.54C340.799 139.1 340.206 138.507 339.766 137.76C339.339 137 339.126 136.16 339.126 135.24C339.126 134.307 339.339 133.467 339.766 132.72C340.206 131.973 340.799 131.387 341.546 130.96C342.306 130.52 343.152 130.3 344.086 130.3C344.819 130.3 345.499 130.44 346.126 130.72C346.752 130.987 347.292 131.38 347.746 131.9L346.546 133.1C346.252 132.753 345.892 132.493 345.466 132.32C345.052 132.133 344.592 132.04 344.086 132.04C343.486 132.04 342.952 132.18 342.486 132.46C342.019 132.727 341.652 133.1 341.386 133.58C341.119 134.06 340.986 134.613 340.986 135.24C340.986 135.867 341.119 136.42 341.386 136.9C341.652 137.38 342.019 137.76 342.486 138.04C342.952 138.32 343.486 138.46 344.086 138.46C344.592 138.46 345.052 138.373 345.466 138.2C345.892 138.013 346.259 137.747 346.566 137.4L347.746 138.6C347.306 139.107 346.766 139.5 346.126 139.78C345.499 140.06 344.819 140.2 344.086 140.2ZM353.755 140.2C352.808 140.2 351.955 139.987 351.195 139.56C350.435 139.12 349.835 138.527 349.395 137.78C348.955 137.033 348.735 136.187 348.735 135.24C348.735 134.307 348.948 133.467 349.375 132.72C349.815 131.973 350.402 131.387 351.135 130.96C351.882 130.52 352.715 130.3 353.635 130.3C354.515 130.3 355.288 130.5 355.955 130.9C356.635 131.3 357.162 131.853 357.535 132.56C357.922 133.267 358.115 134.067 358.115 134.96C358.115 135.093 358.108 135.24 358.095 135.4C358.082 135.547 358.055 135.72 358.015 135.92H349.995V134.42H357.055L356.395 135C356.395 134.36 356.282 133.82 356.055 133.38C355.828 132.927 355.508 132.58 355.095 132.34C354.682 132.087 354.182 131.96 353.595 131.96C352.982 131.96 352.442 132.093 351.975 132.36C351.508 132.627 351.148 133 350.895 133.48C350.642 133.96 350.515 134.527 350.515 135.18C350.515 135.847 350.648 136.433 350.915 136.94C351.182 137.433 351.562 137.82 352.055 138.1C352.548 138.367 353.115 138.5 353.755 138.5C354.288 138.5 354.775 138.407 355.215 138.22C355.668 138.033 356.055 137.753 356.375 137.38L357.535 138.56C357.082 139.093 356.522 139.5 355.855 139.78C355.202 140.06 354.502 140.2 353.755 140.2ZM365.698 140V126.52H367.498V140H365.698ZM363.358 132.14V130.5H369.838V132.14H363.358ZM375.708 140.2C374.762 140.2 373.908 139.987 373.148 139.56C372.388 139.12 371.788 138.527 371.348 137.78C370.908 137.033 370.688 136.187 370.688 135.24C370.688 134.307 370.902 133.467 371.328 132.72C371.768 131.973 372.355 131.387 373.088 130.96C373.835 130.52 374.668 130.3 375.588 130.3C376.468 130.3 377.242 130.5 377.908 130.9C378.588 131.3 379.115 131.853 379.488 132.56C379.875 133.267 380.068 134.067 380.068 134.96C380.068 135.093 380.062 135.24 380.048 135.4C380.035 135.547 380.008 135.72 379.968 135.92H371.948V134.42H379.008L378.348 135C378.348 134.36 378.235 133.82 378.008 133.38C377.782 132.927 377.462 132.58 377.048 132.34C376.635 132.087 376.135 131.96 375.548 131.96C374.935 131.96 374.395 132.093 373.928 132.36C373.462 132.627 373.102 133 372.848 133.48C372.595 133.96 372.468 134.527 372.468 135.18C372.468 135.847 372.602 136.433 372.868 136.94C373.135 137.433 373.515 137.82 374.008 138.1C374.502 138.367 375.068 138.5 375.708 138.5C376.242 138.5 376.728 138.407 377.168 138.22C377.622 138.033 378.008 137.753 378.328 137.38L379.488 138.56C379.035 139.093 378.475 139.5 377.808 139.78C377.155 140.06 376.455 140.2 375.708 140.2ZM386.071 140.2C385.204 140.2 384.418 139.987 383.711 139.56C383.004 139.12 382.444 138.527 382.031 137.78C381.631 137.033 381.431 136.193 381.431 135.26C381.431 134.327 381.631 133.487 382.031 132.74C382.444 131.993 382.998 131.4 383.691 130.96C384.398 130.52 385.191 130.3 386.071 130.3C386.791 130.3 387.431 130.453 387.991 130.76C388.564 131.053 389.024 131.467 389.371 132C389.718 132.52 389.911 133.127 389.951 133.82V136.68C389.911 137.36 389.718 137.967 389.371 138.5C389.038 139.033 388.584 139.453 388.011 139.76C387.451 140.053 386.804 140.2 386.071 140.2ZM386.371 138.5C387.264 138.5 387.984 138.2 388.531 137.6C389.078 136.987 389.351 136.207 389.351 135.26C389.351 134.607 389.224 134.04 388.971 133.56C388.731 133.067 388.384 132.687 387.931 132.42C387.478 132.14 386.951 132 386.351 132C385.751 132 385.218 132.14 384.751 132.42C384.298 132.7 383.938 133.087 383.671 133.58C383.418 134.06 383.291 134.613 383.291 135.24C383.291 135.88 383.418 136.447 383.671 136.94C383.938 137.42 384.304 137.8 384.771 138.08C385.238 138.36 385.771 138.5 386.371 138.5ZM389.231 140V137.44L389.571 135.12L389.231 132.82V130.5H391.051V140H389.231ZM393.672 140V130.5H395.472V140H393.672ZM400.092 140V134.26C400.092 133.553 399.872 133 399.432 132.6C399.005 132.187 398.465 131.98 397.812 131.98C397.372 131.98 396.978 132.073 396.632 132.26C396.285 132.447 396.005 132.707 395.792 133.04C395.578 133.373 395.472 133.773 395.472 134.24L394.732 133.88C394.732 133.16 394.885 132.533 395.192 132C395.512 131.467 395.945 131.053 396.492 130.76C397.038 130.453 397.652 130.3 398.332 130.3C398.998 130.3 399.598 130.447 400.132 130.74C400.678 131.033 401.105 131.447 401.412 131.98C401.732 132.513 401.892 133.147 401.892 133.88V140H400.092ZM406.512 140V134.26C406.512 133.553 406.292 133 405.852 132.6C405.425 132.187 404.892 131.98 404.252 131.98C403.812 131.98 403.412 132.073 403.052 132.26C402.705 132.447 402.425 132.707 402.212 133.04C401.998 133.373 401.892 133.773 401.892 134.24L400.872 133.88C400.912 133.147 401.105 132.52 401.452 132C401.812 131.467 402.272 131.053 402.832 130.76C403.392 130.453 404.005 130.3 404.672 130.3C405.365 130.3 405.985 130.447 406.532 130.74C407.078 131.033 407.512 131.447 407.832 131.98C408.165 132.513 408.332 133.153 408.332 133.9V140H406.512ZM66.34 170.2C65.8067 170.2 65.3 170.133 64.82 170C64.3533 169.853 63.92 169.653 63.52 169.4C63.12 169.133 62.7733 168.82 62.48 168.46L63.64 167.3C63.9867 167.727 64.3867 168.047 64.84 168.26C65.2933 168.46 65.8 168.56 66.36 168.56C66.92 168.56 67.3533 168.467 67.66 168.28C67.9667 168.08 68.12 167.807 68.12 167.46C68.12 167.113 67.9933 166.847 67.74 166.66C67.5 166.46 67.1867 166.3 66.8 166.18C66.4133 166.047 66 165.92 65.56 165.8C65.1333 165.667 64.7267 165.5 64.34 165.3C63.9533 165.1 63.6333 164.827 63.38 164.48C63.14 164.133 63.02 163.673 63.02 163.1C63.02 162.527 63.16 162.033 63.44 161.62C63.72 161.193 64.1067 160.867 64.6 160.64C65.1067 160.413 65.7133 160.3 66.42 160.3C67.1667 160.3 67.8267 160.433 68.4 160.7C68.9867 160.953 69.4667 161.34 69.84 161.86L68.68 163.02C68.4133 162.673 68.08 162.407 67.68 162.22C67.2933 162.033 66.8533 161.94 66.36 161.94C65.84 161.94 65.44 162.033 65.16 162.22C64.8933 162.393 64.76 162.64 64.76 162.96C64.76 163.28 64.88 163.527 65.12 163.7C65.36 163.873 65.6733 164.02 66.06 164.14C66.46 164.26 66.8733 164.387 67.3 164.52C67.7267 164.64 68.1333 164.807 68.52 165.02C68.9067 165.233 69.22 165.52 69.46 165.88C69.7133 166.24 69.84 166.713 69.84 167.3C69.84 168.193 69.52 168.9 68.88 169.42C68.2533 169.94 67.4067 170.2 66.34 170.2ZM71.8752 170V160.5H73.6752V170H71.8752ZM72.7752 158.6C72.4418 158.6 72.1685 158.493 71.9552 158.28C71.7418 158.053 71.6352 157.773 71.6352 157.44C71.6352 157.12 71.7418 156.853 71.9552 156.64C72.1685 156.413 72.4418 156.3 72.7752 156.3C73.1085 156.3 73.3818 156.413 73.5952 156.64C73.8085 156.853 73.9152 157.12 73.9152 157.44C73.9152 157.773 73.8085 158.053 73.5952 158.28C73.3818 158.493 73.1085 158.6 72.7752 158.6ZM75.5678 169.02L81.2078 161.48H83.3278L77.6878 169.02H75.5678ZM75.5678 170V169.02L77.1678 168.36H83.2078V170H75.5678ZM75.9078 162.14V160.5H83.3278V161.48L81.6678 162.14H75.9078ZM89.4973 170.2C88.5507 170.2 87.6973 169.987 86.9373 169.56C86.1773 169.12 85.5773 168.527 85.1373 167.78C84.6973 167.033 84.4773 166.187 84.4773 165.24C84.4773 164.307 84.6907 163.467 85.1173 162.72C85.5573 161.973 86.144 161.387 86.8773 160.96C87.624 160.52 88.4573 160.3 89.3773 160.3C90.2573 160.3 91.0307 160.5 91.6973 160.9C92.3773 161.3 92.904 161.853 93.2773 162.56C93.664 163.267 93.8573 164.067 93.8573 164.96C93.8573 165.093 93.8507 165.24 93.8373 165.4C93.824 165.547 93.7973 165.72 93.7573 165.92H85.7373V164.42H92.7973L92.1373 165C92.1373 164.36 92.024 163.82 91.7973 163.38C91.5707 162.927 91.2507 162.58 90.8373 162.34C90.424 162.087 89.924 161.96 89.3373 161.96C88.724 161.96 88.184 162.093 87.7173 162.36C87.2507 162.627 86.8907 163 86.6373 163.48C86.384 163.96 86.2573 164.527 86.2573 165.18C86.2573 165.847 86.3907 166.433 86.6573 166.94C86.924 167.433 87.304 167.82 87.7973 168.1C88.2907 168.367 88.8573 168.5 89.4973 168.5C90.0307 168.5 90.5173 168.407 90.9573 168.22C91.4107 168.033 91.7973 167.753 92.1173 167.38L93.2773 168.56C92.824 169.093 92.264 169.5 91.5973 169.78C90.944 170.06 90.244 170.2 89.4973 170.2ZM98.84 170.2C98.3067 170.2 97.8 170.133 97.32 170C96.8533 169.853 96.42 169.653 96.02 169.4C95.62 169.133 95.2733 168.82 94.98 168.46L96.14 167.3C96.4867 167.727 96.8867 168.047 97.34 168.26C97.7933 168.46 98.3 168.56 98.86 168.56C99.42 168.56 99.8533 168.467 100.16 168.28C100.467 168.08 100.62 167.807 100.62 167.46C100.62 167.113 100.493 166.847 100.24 166.66C100 166.46 99.6867 166.3 99.3 166.18C98.9133 166.047 98.5 165.92 98.06 165.8C97.6333 165.667 97.2267 165.5 96.84 165.3C96.4533 165.1 96.1333 164.827 95.88 164.48C95.64 164.133 95.52 163.673 95.52 163.1C95.52 162.527 95.66 162.033 95.94 161.62C96.22 161.193 96.6067 160.867 97.1 160.64C97.6067 160.413 98.2133 160.3 98.92 160.3C99.6667 160.3 100.327 160.433 100.9 160.7C101.487 160.953 101.967 161.34 102.34 161.86L101.18 163.02C100.913 162.673 100.58 162.407 100.18 162.22C99.7933 162.033 99.3533 161.94 98.86 161.94C98.34 161.94 97.94 162.033 97.66 162.22C97.3933 162.393 97.26 162.64 97.26 162.96C97.26 163.28 97.38 163.527 97.62 163.7C97.86 163.873 98.1733 164.02 98.56 164.14C98.96 164.26 99.3733 164.387 99.8 164.52C100.227 164.64 100.633 164.807 101.02 165.02C101.407 165.233 101.72 165.52 101.96 165.88C102.213 166.24 102.34 166.713 102.34 167.3C102.34 168.193 102.02 168.9 101.38 169.42C100.753 169.94 99.9067 170.2 98.84 170.2ZM104.455 172.2L105.695 169.82L106.335 169.66C106.268 169.807 106.182 169.927 106.075 170.02C105.982 170.113 105.862 170.16 105.715 170.16C105.435 170.16 105.175 170.047 104.935 169.82C104.708 169.58 104.595 169.287 104.595 168.94C104.595 168.553 104.722 168.233 104.975 167.98C105.228 167.713 105.548 167.58 105.935 167.58C106.282 167.58 106.588 167.713 106.855 167.98C107.122 168.233 107.255 168.553 107.255 168.94C107.255 169.087 107.222 169.267 107.155 169.48C107.102 169.68 106.988 169.94 106.815 170.26L105.495 172.76L104.455 172.2ZM118.063 170.2C117.196 170.2 116.41 169.987 115.703 169.56C114.996 169.12 114.436 168.527 114.023 167.78C113.623 167.033 113.423 166.193 113.423 165.26C113.423 164.327 113.623 163.487 114.023 162.74C114.436 161.993 114.99 161.4 115.683 160.96C116.39 160.52 117.183 160.3 118.063 160.3C118.783 160.3 119.423 160.453 119.983 160.76C120.556 161.053 121.016 161.467 121.363 162C121.71 162.52 121.903 163.127 121.943 163.82V166.68C121.903 167.36 121.71 167.967 121.363 168.5C121.03 169.033 120.576 169.453 120.003 169.76C119.443 170.053 118.796 170.2 118.063 170.2ZM118.363 168.5C119.256 168.5 119.976 168.2 120.523 167.6C121.07 166.987 121.343 166.207 121.343 165.26C121.343 164.607 121.216 164.04 120.963 163.56C120.723 163.067 120.376 162.687 119.923 162.42C119.47 162.14 118.943 162 118.343 162C117.743 162 117.21 162.14 116.743 162.42C116.29 162.7 115.93 163.087 115.663 163.58C115.41 164.06 115.283 164.613 115.283 165.24C115.283 165.88 115.41 166.447 115.663 166.94C115.93 167.42 116.296 167.8 116.763 168.08C117.23 168.36 117.763 168.5 118.363 168.5ZM121.223 170V167.44L121.563 165.12L121.223 162.82V160.5H123.043V170H121.223ZM132.384 170V164.46C132.384 163.74 132.157 163.147 131.704 162.68C131.25 162.213 130.664 161.98 129.944 161.98C129.464 161.98 129.037 162.087 128.664 162.3C128.29 162.513 127.997 162.807 127.784 163.18C127.57 163.553 127.464 163.98 127.464 164.46L126.724 164.04C126.724 163.32 126.884 162.68 127.204 162.12C127.524 161.56 127.97 161.12 128.544 160.8C129.117 160.467 129.764 160.3 130.484 160.3C131.204 160.3 131.837 160.48 132.384 160.84C132.944 161.2 133.384 161.673 133.704 162.26C134.024 162.833 134.184 163.447 134.184 164.1V170H132.384ZM125.664 170V160.5H127.464V170H125.664ZM140.641 170.2C139.761 170.2 138.974 169.987 138.281 169.56C137.587 169.12 137.034 168.527 136.621 167.78C136.221 167.033 136.021 166.193 136.021 165.26C136.021 164.327 136.221 163.487 136.621 162.74C137.034 161.993 137.587 161.4 138.281 160.96C138.974 160.52 139.761 160.3 140.641 160.3C141.347 160.3 141.987 160.453 142.561 160.76C143.134 161.053 143.594 161.467 143.941 162C144.301 162.52 144.501 163.127 144.541 163.82V166.68C144.501 167.36 144.307 167.967 143.961 168.5C143.614 169.033 143.154 169.453 142.581 169.76C142.007 170.053 141.361 170.2 140.641 170.2ZM140.941 168.5C141.541 168.5 142.061 168.36 142.501 168.08C142.954 167.8 143.307 167.42 143.561 166.94C143.814 166.447 143.941 165.887 143.941 165.26C143.941 164.607 143.807 164.04 143.541 163.56C143.287 163.08 142.934 162.7 142.481 162.42C142.041 162.14 141.521 162 140.921 162C140.321 162 139.794 162.14 139.341 162.42C138.887 162.7 138.527 163.087 138.261 163.58C138.007 164.06 137.881 164.613 137.881 165.24C137.881 165.88 138.007 166.447 138.261 166.94C138.527 167.42 138.887 167.8 139.341 168.08C139.807 168.36 140.341 168.5 140.941 168.5ZM145.641 170H143.821V167.44L144.161 165.12L143.821 162.82V155.72H145.641V170ZM156.362 174.18C155.388 174.18 154.522 174 153.762 173.64C153.015 173.28 152.415 172.773 151.962 172.12L153.122 170.94C153.508 171.433 153.968 171.807 154.502 172.06C155.035 172.327 155.668 172.46 156.402 172.46C157.375 172.46 158.142 172.2 158.702 171.68C159.275 171.173 159.562 170.487 159.562 169.62V167.26L159.882 165.12L159.562 163V160.5H161.362V169.62C161.362 170.527 161.148 171.32 160.722 172C160.308 172.68 159.722 173.213 158.962 173.6C158.215 173.987 157.348 174.18 156.362 174.18ZM156.362 169.84C155.495 169.84 154.715 169.633 154.022 169.22C153.342 168.807 152.802 168.24 152.402 167.52C152.002 166.787 151.802 165.967 151.802 165.06C151.802 164.153 152.002 163.347 152.402 162.64C152.802 161.92 153.342 161.353 154.022 160.94C154.715 160.513 155.495 160.3 156.362 160.3C157.108 160.3 157.768 160.447 158.342 160.74C158.915 161.033 159.368 161.447 159.702 161.98C160.048 162.5 160.235 163.113 160.262 163.82V166.34C160.222 167.033 160.028 167.647 159.682 168.18C159.348 168.7 158.895 169.107 158.322 169.4C157.748 169.693 157.095 169.84 156.362 169.84ZM156.722 168.14C157.308 168.14 157.822 168.013 158.262 167.76C158.715 167.507 159.062 167.153 159.302 166.7C159.542 166.233 159.662 165.693 159.662 165.08C159.662 164.467 159.535 163.933 159.282 163.48C159.042 163.013 158.702 162.653 158.262 162.4C157.822 162.133 157.302 162 156.702 162C156.102 162 155.575 162.133 155.122 162.4C154.668 162.653 154.308 163.013 154.042 163.48C153.788 163.933 153.662 164.46 153.662 165.06C153.662 165.66 153.788 166.193 154.042 166.66C154.308 167.127 154.668 167.493 155.122 167.76C155.588 168.013 156.122 168.14 156.722 168.14ZM168.404 170.2C167.457 170.2 166.604 169.987 165.844 169.56C165.084 169.12 164.484 168.527 164.044 167.78C163.604 167.033 163.384 166.187 163.384 165.24C163.384 164.307 163.597 163.467 164.024 162.72C164.464 161.973 165.05 161.387 165.784 160.96C166.53 160.52 167.364 160.3 168.284 160.3C169.164 160.3 169.937 160.5 170.604 160.9C171.284 161.3 171.81 161.853 172.184 162.56C172.57 163.267 172.764 164.067 172.764 164.96C172.764 165.093 172.757 165.24 172.744 165.4C172.73 165.547 172.704 165.72 172.664 165.92H164.644V164.42H171.704L171.044 165C171.044 164.36 170.93 163.82 170.704 163.38C170.477 162.927 170.157 162.58 169.744 162.34C169.33 162.087 168.83 161.96 168.244 161.96C167.63 161.96 167.09 162.093 166.624 162.36C166.157 162.627 165.797 163 165.544 163.48C165.29 163.96 165.164 164.527 165.164 165.18C165.164 165.847 165.297 166.433 165.564 166.94C165.83 167.433 166.21 167.82 166.704 168.1C167.197 168.367 167.764 168.5 168.404 168.5C168.937 168.5 169.424 168.407 169.864 168.22C170.317 168.033 170.704 167.753 171.024 167.38L172.184 168.56C171.73 169.093 171.17 169.5 170.504 169.78C169.85 170.06 169.15 170.2 168.404 170.2ZM175.913 170V156.52H177.713V170H175.913ZM173.573 162.14V160.5H180.053V162.14H173.573ZM185.976 170V160.5H187.776V170H185.976ZM187.776 164.58L187.096 164.28C187.096 163.067 187.376 162.1 187.936 161.38C188.496 160.66 189.303 160.3 190.356 160.3C190.836 160.3 191.27 160.387 191.656 160.56C192.043 160.72 192.403 160.993 192.736 161.38L191.556 162.6C191.356 162.387 191.136 162.233 190.896 162.14C190.656 162.047 190.376 162 190.056 162C189.39 162 188.843 162.213 188.416 162.64C187.99 163.067 187.776 163.713 187.776 164.58ZM198.091 170.2C197.144 170.2 196.291 169.987 195.531 169.56C194.771 169.12 194.171 168.527 193.731 167.78C193.291 167.033 193.071 166.187 193.071 165.24C193.071 164.307 193.284 163.467 193.711 162.72C194.151 161.973 194.738 161.387 195.471 160.96C196.218 160.52 197.051 160.3 197.971 160.3C198.851 160.3 199.624 160.5 200.291 160.9C200.971 161.3 201.498 161.853 201.871 162.56C202.258 163.267 202.451 164.067 202.451 164.96C202.451 165.093 202.444 165.24 202.431 165.4C202.418 165.547 202.391 165.72 202.351 165.92H194.331V164.42H201.391L200.731 165C200.731 164.36 200.618 163.82 200.391 163.38C200.164 162.927 199.844 162.58 199.431 162.34C199.018 162.087 198.518 161.96 197.931 161.96C197.318 161.96 196.778 162.093 196.311 162.36C195.844 162.627 195.484 163 195.231 163.48C194.978 163.96 194.851 164.527 194.851 165.18C194.851 165.847 194.984 166.433 195.251 166.94C195.518 167.433 195.898 167.82 196.391 168.1C196.884 168.367 197.451 168.5 198.091 168.5C198.624 168.5 199.111 168.407 199.551 168.22C200.004 168.033 200.391 167.753 200.711 167.38L201.871 168.56C201.418 169.093 200.858 169.5 200.191 169.78C199.538 170.06 198.838 170.2 198.091 170.2ZM208.454 170.2C207.587 170.2 206.8 169.987 206.094 169.56C205.387 169.12 204.827 168.527 204.414 167.78C204.014 167.033 203.814 166.193 203.814 165.26C203.814 164.327 204.014 163.487 204.414 162.74C204.827 161.993 205.38 161.4 206.074 160.96C206.78 160.52 207.574 160.3 208.454 160.3C209.174 160.3 209.814 160.453 210.374 160.76C210.947 161.053 211.407 161.467 211.754 162C212.1 162.52 212.294 163.127 212.334 163.82V166.68C212.294 167.36 212.1 167.967 211.754 168.5C211.42 169.033 210.967 169.453 210.394 169.76C209.834 170.053 209.187 170.2 208.454 170.2ZM208.754 168.5C209.647 168.5 210.367 168.2 210.914 167.6C211.46 166.987 211.734 166.207 211.734 165.26C211.734 164.607 211.607 164.04 211.354 163.56C211.114 163.067 210.767 162.687 210.314 162.42C209.86 162.14 209.334 162 208.734 162C208.134 162 207.6 162.14 207.134 162.42C206.68 162.7 206.32 163.087 206.054 163.58C205.8 164.06 205.674 164.613 205.674 165.24C205.674 165.88 205.8 166.447 206.054 166.94C206.32 167.42 206.687 167.8 207.154 168.08C207.62 168.36 208.154 168.5 208.754 168.5ZM211.614 170V167.44L211.954 165.12L211.614 162.82V160.5H213.434V170H211.614ZM216.054 170V155.72H217.854V170H216.054ZM227.368 170L223.608 160.5H225.488L228.208 167.9H227.608L230.308 160.5H231.348L234.048 167.9H233.448L236.168 160.5H238.048L234.308 170H233.248L230.508 162.82H231.168L228.408 170H227.368ZM243.715 170.2C242.781 170.2 241.941 169.98 241.195 169.54C240.448 169.1 239.855 168.507 239.415 167.76C238.975 167 238.755 166.153 238.755 165.22C238.755 164.3 238.975 163.473 239.415 162.74C239.855 161.993 240.448 161.4 241.195 160.96C241.941 160.52 242.781 160.3 243.715 160.3C244.635 160.3 245.468 160.52 246.215 160.96C246.975 161.387 247.575 161.973 248.015 162.72C248.455 163.467 248.675 164.3 248.675 165.22C248.675 166.153 248.455 167 248.015 167.76C247.575 168.507 246.975 169.1 246.215 169.54C245.468 169.98 244.635 170.2 243.715 170.2ZM243.715 168.46C244.315 168.46 244.848 168.32 245.315 168.04C245.781 167.76 246.148 167.38 246.415 166.9C246.681 166.407 246.815 165.847 246.815 165.22C246.815 164.607 246.675 164.06 246.395 163.58C246.128 163.1 245.761 162.727 245.295 162.46C244.841 162.18 244.315 162.04 243.715 162.04C243.115 162.04 242.581 162.18 242.115 162.46C241.648 162.727 241.281 163.1 241.015 163.58C240.748 164.06 240.615 164.607 240.615 165.22C240.615 165.847 240.748 166.407 241.015 166.9C241.281 167.38 241.648 167.76 242.115 168.04C242.581 168.32 243.115 168.46 243.715 168.46ZM250.703 170V160.5H252.503V170H250.703ZM252.503 164.58L251.823 164.28C251.823 163.067 252.103 162.1 252.663 161.38C253.223 160.66 254.029 160.3 255.083 160.3C255.563 160.3 255.996 160.387 256.383 160.56C256.769 160.72 257.129 160.993 257.463 161.38L256.283 162.6C256.083 162.387 255.863 162.233 255.623 162.14C255.383 162.047 255.103 162 254.783 162C254.116 162 253.569 162.213 253.143 162.64C252.716 163.067 252.503 163.713 252.503 164.58ZM264.81 170L260.37 165.14L264.77 160.5H266.95L262.05 165.62L262.13 164.58L267.13 170H264.81ZM258.73 170V155.72H260.53V170H258.73ZM276.871 170.2C275.991 170.2 275.205 169.987 274.511 169.56C273.818 169.12 273.265 168.527 272.851 167.78C272.451 167.033 272.251 166.193 272.251 165.26C272.251 164.327 272.451 163.487 272.851 162.74C273.265 161.993 273.818 161.4 274.511 160.96C275.205 160.52 275.991 160.3 276.871 160.3C277.578 160.3 278.218 160.453 278.791 160.76C279.365 161.053 279.825 161.467 280.171 162C280.531 162.52 280.731 163.127 280.771 163.82V166.68C280.731 167.36 280.538 167.967 280.191 168.5C279.845 169.033 279.385 169.453 278.811 169.76C278.238 170.053 277.591 170.2 276.871 170.2ZM277.171 168.5C277.771 168.5 278.291 168.36 278.731 168.08C279.185 167.8 279.538 167.42 279.791 166.94C280.045 166.447 280.171 165.887 280.171 165.26C280.171 164.607 280.038 164.04 279.771 163.56C279.518 163.08 279.165 162.7 278.711 162.42C278.271 162.14 277.751 162 277.151 162C276.551 162 276.025 162.14 275.571 162.42C275.118 162.7 274.758 163.087 274.491 163.58C274.238 164.06 274.111 164.613 274.111 165.24C274.111 165.88 274.238 166.447 274.491 166.94C274.758 167.42 275.118 167.8 275.571 168.08C276.038 168.36 276.571 168.5 277.171 168.5ZM281.871 170H280.051V167.44L280.391 165.12L280.051 162.82V155.72H281.871V170ZM288.832 170.2C287.899 170.2 287.059 169.98 286.312 169.54C285.565 169.1 284.972 168.507 284.532 167.76C284.092 167 283.872 166.153 283.872 165.22C283.872 164.3 284.092 163.473 284.532 162.74C284.972 161.993 285.565 161.4 286.312 160.96C287.059 160.52 287.899 160.3 288.832 160.3C289.752 160.3 290.585 160.52 291.332 160.96C292.092 161.387 292.692 161.973 293.132 162.72C293.572 163.467 293.792 164.3 293.792 165.22C293.792 166.153 293.572 167 293.132 167.76C292.692 168.507 292.092 169.1 291.332 169.54C290.585 169.98 289.752 170.2 288.832 170.2ZM288.832 168.46C289.432 168.46 289.965 168.32 290.432 168.04C290.899 167.76 291.265 167.38 291.532 166.9C291.799 166.407 291.932 165.847 291.932 165.22C291.932 164.607 291.792 164.06 291.512 163.58C291.245 163.1 290.879 162.727 290.412 162.46C289.959 162.18 289.432 162.04 288.832 162.04C288.232 162.04 287.699 162.18 287.232 162.46C286.765 162.727 286.399 163.1 286.132 163.58C285.865 164.06 285.732 164.607 285.732 165.22C285.732 165.847 285.865 166.407 286.132 166.9C286.399 167.38 286.765 167.76 287.232 168.04C287.699 168.32 288.232 168.46 288.832 168.46ZM302.54 170V164.46C302.54 163.74 302.313 163.147 301.86 162.68C301.407 162.213 300.82 161.98 300.1 161.98C299.62 161.98 299.193 162.087 298.82 162.3C298.447 162.513 298.153 162.807 297.94 163.18C297.727 163.553 297.62 163.98 297.62 164.46L296.88 164.04C296.88 163.32 297.04 162.68 297.36 162.12C297.68 161.56 298.127 161.12 298.7 160.8C299.273 160.467 299.92 160.3 300.64 160.3C301.36 160.3 301.993 160.48 302.54 160.84C303.1 161.2 303.54 161.673 303.86 162.26C304.18 162.833 304.34 163.447 304.34 164.1V170H302.54ZM295.82 170V160.5H297.62V170H295.82ZM311.177 170.2C310.23 170.2 309.377 169.987 308.617 169.56C307.857 169.12 307.257 168.527 306.817 167.78C306.377 167.033 306.157 166.187 306.157 165.24C306.157 164.307 306.37 163.467 306.797 162.72C307.237 161.973 307.824 161.387 308.557 160.96C309.304 160.52 310.137 160.3 311.057 160.3C311.937 160.3 312.71 160.5 313.377 160.9C314.057 161.3 314.584 161.853 314.957 162.56C315.344 163.267 315.537 164.067 315.537 164.96C315.537 165.093 315.53 165.24 315.517 165.4C315.504 165.547 315.477 165.72 315.437 165.92H307.417V164.42H314.477L313.817 165C313.817 164.36 313.704 163.82 313.477 163.38C313.25 162.927 312.93 162.58 312.517 162.34C312.104 162.087 311.604 161.96 311.017 161.96C310.404 161.96 309.864 162.093 309.397 162.36C308.93 162.627 308.57 163 308.317 163.48C308.064 163.96 307.937 164.527 307.937 165.18C307.937 165.847 308.07 166.433 308.337 166.94C308.604 167.433 308.984 167.82 309.477 168.1C309.97 168.367 310.537 168.5 311.177 168.5C311.71 168.5 312.197 168.407 312.637 168.22C313.09 168.033 313.477 167.753 313.797 167.38L314.957 168.56C314.504 169.093 313.944 169.5 313.277 169.78C312.624 170.06 311.924 170.2 311.177 170.2ZM325.72 170.2C324.84 170.2 324.047 169.987 323.34 169.56C322.633 169.12 322.073 168.527 321.66 167.78C321.26 167.033 321.06 166.193 321.06 165.26C321.06 164.327 321.26 163.487 321.66 162.74C322.073 161.993 322.633 161.4 323.34 160.96C324.047 160.52 324.833 160.3 325.7 160.3C326.433 160.3 327.08 160.453 327.64 160.76C328.213 161.053 328.667 161.467 329 162C329.347 162.52 329.54 163.127 329.58 163.82V166.68C329.54 167.36 329.347 167.967 329 168.5C328.667 169.033 328.213 169.453 327.64 169.76C327.08 170.053 326.44 170.2 325.72 170.2ZM326 168.5C326.893 168.5 327.613 168.2 328.16 167.6C328.707 166.987 328.98 166.207 328.98 165.26C328.98 164.607 328.853 164.04 328.6 163.56C328.36 163.067 328.013 162.687 327.56 162.42C327.12 162.14 326.6 162 326 162C325.4 162 324.867 162.14 324.4 162.42C323.947 162.7 323.587 163.087 323.32 163.58C323.053 164.06 322.92 164.613 322.92 165.24C322.92 165.88 323.053 166.447 323.32 166.94C323.587 167.42 323.947 167.8 324.4 168.08C324.867 168.36 325.4 168.5 326 168.5ZM328.88 173.98V167.62L329.2 165.3L328.88 163V160.5H330.68V173.98H328.88ZM337.16 170.2C336.373 170.2 335.667 170.027 335.04 169.68C334.427 169.32 333.947 168.827 333.6 168.2C333.253 167.573 333.08 166.847 333.08 166.02V160.5H334.88V165.94C334.88 166.46 334.967 166.913 335.14 167.3C335.327 167.673 335.593 167.96 335.94 168.16C336.287 168.36 336.693 168.46 337.16 168.46C337.867 168.46 338.42 168.24 338.82 167.8C339.22 167.347 339.42 166.727 339.42 165.94V160.5H341.22V166.02C341.22 166.847 341.047 167.573 340.7 168.2C340.353 168.827 339.873 169.32 339.26 169.68C338.66 170.027 337.96 170.2 337.16 170.2ZM343.653 170V160.5H345.453V170H343.653ZM344.553 158.6C344.219 158.6 343.946 158.493 343.733 158.28C343.519 158.053 343.413 157.773 343.413 157.44C343.413 157.12 343.519 156.853 343.733 156.64C343.946 156.413 344.219 156.3 344.553 156.3C344.886 156.3 345.159 156.413 345.373 156.64C345.586 156.853 345.693 157.12 345.693 157.44C345.693 157.773 345.586 158.053 345.373 158.28C345.159 158.493 344.886 158.6 344.553 158.6ZM352.445 170.2C351.512 170.2 350.665 169.98 349.905 169.54C349.158 169.1 348.565 168.507 348.125 167.76C347.698 167 347.485 166.16 347.485 165.24C347.485 164.307 347.698 163.467 348.125 162.72C348.565 161.973 349.158 161.387 349.905 160.96C350.665 160.52 351.512 160.3 352.445 160.3C353.178 160.3 353.858 160.44 354.485 160.72C355.112 160.987 355.652 161.38 356.105 161.9L354.905 163.1C354.612 162.753 354.252 162.493 353.825 162.32C353.412 162.133 352.952 162.04 352.445 162.04C351.845 162.04 351.312 162.18 350.845 162.46C350.378 162.727 350.012 163.1 349.745 163.58C349.478 164.06 349.345 164.613 349.345 165.24C349.345 165.867 349.478 166.42 349.745 166.9C350.012 167.38 350.378 167.76 350.845 168.04C351.312 168.32 351.845 168.46 352.445 168.46C352.952 168.46 353.412 168.373 353.825 168.2C354.252 168.013 354.618 167.747 354.925 167.4L356.105 168.6C355.665 169.107 355.125 169.5 354.485 169.78C353.858 170.06 353.178 170.2 352.445 170.2ZM363.97 170L359.53 165.14L363.93 160.5H366.11L361.21 165.62L361.29 164.58L366.29 170H363.97ZM357.89 170V155.72H359.69V170H357.89ZM367.851 170V155.72H369.651V170H367.851ZM375.405 170.08L371.285 160.5H373.285L376.345 168H375.705L378.925 160.5H380.925L376.485 170.08H375.405ZM372.685 173.98L375.485 168.24L376.485 170.08L374.685 173.98H372.685Z" fill="black"/>
<g filter="url(#filter1_b_7142_1013)">
<circle cx="425.048" cy="37.5" r="37.5" fill="url(#paint1_linear_7142_1013)"/>
</g>
<path d="M425.048 23.2812C417.208 23.2812 410.829 29.6599 410.829 37.5C410.829 45.3401 417.208 51.7188 425.048 51.7188C432.888 51.7188 439.267 45.3401 439.267 37.5C439.267 29.6599 432.888 23.2812 425.048 23.2812ZM432.448 32.7347L423.26 43.6722C423.159 43.7922 423.034 43.8892 422.893 43.9565C422.751 44.0239 422.597 44.06 422.44 44.0625H422.421C422.268 44.0624 422.117 44.0302 421.977 43.9677C421.837 43.9053 421.711 43.8142 421.609 43.7002L417.671 39.3252C417.571 39.2191 417.493 39.0942 417.442 38.9576C417.391 38.821 417.368 38.6757 417.374 38.53C417.38 38.3844 417.415 38.2414 417.477 38.1095C417.539 37.9776 417.627 37.8594 417.735 37.7619C417.844 37.6644 417.97 37.5895 418.108 37.5417C418.246 37.4938 418.392 37.474 418.537 37.4834C418.683 37.4927 418.825 37.5311 418.955 37.5962C419.086 37.6612 419.202 37.7517 419.297 37.8623L422.393 41.3021L430.773 31.3278C430.961 31.1105 431.227 30.9759 431.513 30.9531C431.8 30.9302 432.084 31.021 432.304 31.2059C432.524 31.3907 432.662 31.6547 432.689 31.9407C432.716 32.2268 432.629 32.512 432.448 32.7347Z" fill="white"/>
<defs>
<filter id="filter0_b_7142_1013" x="-14" y="6" width="520.548" height="268" filterUnits="userSpaceOnUse" color-interpolation-filters="sRGB">
<feFlood flood-opacity="0" result="BackgroundImageFix"/>
<feGaussianBlur in="BackgroundImageFix" stdDeviation="7"/>
<feComposite in2="SourceAlpha" operator="in" result="effect1_backgroundBlur_7142_1013"/>
<feBlend mode="normal" in="SourceGraphic" in2="effect1_backgroundBlur_7142_1013" result="shape"/>
</filter>
<filter id="filter1_b_7142_1013" x="377.548" y="-10" width="95" height="95" filterUnits="userSpaceOnUse" color-interpolation-filters="sRGB">
<feFlood flood-opacity="0" result="BackgroundImageFix"/>
<feGaussianBlur in="BackgroundImageFix" stdDeviation="5"/>
<feComposite in2="SourceAlpha" operator="in" result="effect1_backgroundBlur_7142_1013"/>
<feBlend mode="normal" in="SourceGraphic" in2="effect1_backgroundBlur_7142_1013" result="shape"/>
</filter>
<linearGradient id="paint0_linear_7142_1013" x1="492.548" y1="140" x2="0" y2="140" gradientUnits="userSpaceOnUse">
<stop stop-color="#2DD5C3"/>
<stop offset="0.33" stop-color="#0076FF"/>
<stop offset="0.625" stop-color="#FCFEFF"/>
<stop offset="0.92" stop-color="#0886F5"/>
</linearGradient>
<linearGradient id="paint1_linear_7142_1013" x1="462.548" y1="37.5" x2="387.548" y2="37.5" gradientUnits="userSpaceOnUse">
<stop stop-color="#2DD5C3"/>
<stop offset="1" stop-color="#0076FF"/>
</linearGradient>
</defs>
</svg>
