<svg width="493" height="260" viewBox="0 0 493 260" fill="none" xmlns="http://www.w3.org/2000/svg">
<g filter="url(#filter0_b_7142_1014)">
<rect x="0.452148" y="20" width="492.548" height="240" rx="20" fill="white" fill-opacity="0.75"/>
<rect x="1.20215" y="20.75" width="491.048" height="238.5" rx="19.25" stroke="url(#paint0_linear_7142_1014)" stroke-width="1.5"/>
</g>
<path d="M60.48 93L67.272 76.128H69.936L76.704 93H73.224L67.992 79.152H69.192L63.888 93H60.48ZM64.08 89.856V87.12H73.152V89.856H64.08ZM85.2921 93V90.336H89.6841C90.4681 90.336 91.0761 90.096 91.5081 89.616C91.9561 89.136 92.1801 88.568 92.1801 87.912C92.1801 87.464 92.0841 87.056 91.8921 86.688C91.7001 86.32 91.4121 86.032 91.0281 85.824C90.6601 85.6 90.2121 85.488 89.6841 85.488H85.2921V82.848H89.3241C89.9961 82.848 90.5321 82.68 90.9321 82.344C91.3481 82.008 91.5561 81.504 91.5561 80.832C91.5561 80.144 91.3481 79.632 90.9321 79.296C90.5321 78.96 89.9961 78.792 89.3241 78.792H85.2921V76.128H89.7081C90.8281 76.128 91.7641 76.336 92.5161 76.752C93.2841 77.152 93.8601 77.688 94.2441 78.36C94.6281 79.016 94.8201 79.736 94.8201 80.52C94.8201 81.48 94.5241 82.312 93.9321 83.016C93.3561 83.704 92.5081 84.216 91.3881 84.552L91.5321 83.496C92.7801 83.848 93.7401 84.432 94.4121 85.248C95.1001 86.048 95.4441 87.016 95.4441 88.152C95.4441 89.048 95.2201 89.864 94.7721 90.6C94.3401 91.32 93.7001 91.904 92.8521 92.352C92.0201 92.784 91.0041 93 89.8041 93H85.2921ZM82.8921 93V76.128H86.1321V93H82.8921ZM97.6967 93V81.408H100.841V93H97.6967ZM100.841 86.592L99.6167 85.776C99.7607 84.352 100.177 83.232 100.865 82.416C101.553 81.584 102.545 81.168 103.841 81.168C104.401 81.168 104.905 81.264 105.353 81.456C105.801 81.632 106.209 81.928 106.577 82.344L104.609 84.6C104.433 84.408 104.217 84.264 103.961 84.168C103.721 84.072 103.441 84.024 103.121 84.024C102.449 84.024 101.897 84.24 101.465 84.672C101.049 85.088 100.841 85.728 100.841 86.592ZM112.897 93.24C111.681 93.24 110.601 92.984 109.657 92.472C108.713 91.944 107.961 91.224 107.401 90.312C106.857 89.4 106.585 88.36 106.585 87.192C106.585 86.04 106.849 85.016 107.377 84.12C107.921 83.208 108.657 82.488 109.585 81.96C110.513 81.416 111.545 81.144 112.681 81.144C113.801 81.144 114.785 81.4 115.633 81.912C116.497 82.408 117.169 83.096 117.649 83.976C118.145 84.84 118.393 85.824 118.393 86.928C118.393 87.136 118.377 87.352 118.345 87.576C118.329 87.784 118.289 88.024 118.225 88.296L108.481 88.32V85.968L116.761 85.944L115.489 86.928C115.457 86.24 115.329 85.664 115.105 85.2C114.897 84.736 114.585 84.384 114.169 84.144C113.769 83.888 113.273 83.76 112.681 83.76C112.057 83.76 111.513 83.904 111.049 84.192C110.585 84.464 110.225 84.856 109.969 85.368C109.729 85.864 109.609 86.456 109.609 87.144C109.609 87.848 109.737 88.464 109.993 88.992C110.265 89.504 110.649 89.904 111.145 90.192C111.641 90.464 112.217 90.6 112.873 90.6C113.465 90.6 114.001 90.504 114.481 90.312C114.961 90.104 115.377 89.8 115.729 89.4L117.577 91.248C117.017 91.904 116.329 92.4 115.513 92.736C114.713 93.072 113.841 93.24 112.897 93.24ZM125.881 93.24C124.665 93.24 123.585 92.984 122.641 92.472C121.697 91.944 120.945 91.224 120.385 90.312C119.841 89.4 119.569 88.36 119.569 87.192C119.569 86.04 119.833 85.016 120.361 84.12C120.905 83.208 121.641 82.488 122.569 81.96C123.497 81.416 124.529 81.144 125.665 81.144C126.785 81.144 127.769 81.4 128.617 81.912C129.481 82.408 130.153 83.096 130.633 83.976C131.129 84.84 131.377 85.824 131.377 86.928C131.377 87.136 131.361 87.352 131.329 87.576C131.313 87.784 131.273 88.024 131.209 88.296L121.465 88.32V85.968L129.745 85.944L128.473 86.928C128.441 86.24 128.313 85.664 128.089 85.2C127.881 84.736 127.569 84.384 127.153 84.144C126.753 83.888 126.257 83.76 125.665 83.76C125.041 83.76 124.497 83.904 124.033 84.192C123.569 84.464 123.209 84.856 122.953 85.368C122.713 85.864 122.593 86.456 122.593 87.144C122.593 87.848 122.721 88.464 122.977 88.992C123.249 89.504 123.633 89.904 124.129 90.192C124.625 90.464 125.201 90.6 125.857 90.6C126.449 90.6 126.985 90.504 127.465 90.312C127.945 90.104 128.361 89.8 128.713 89.4L130.561 91.248C130.001 91.904 129.313 92.4 128.497 92.736C127.697 93.072 126.825 93.24 125.881 93.24ZM132.506 91.2L138.65 83.208H142.442L136.298 91.2H132.506ZM132.506 93V91.2L135.002 90.264H142.298V93H132.506ZM132.938 84.144V81.408H142.442V83.208L139.922 84.144H132.938ZM149.834 93.24C148.618 93.24 147.538 92.984 146.594 92.472C145.65 91.944 144.898 91.224 144.338 90.312C143.794 89.4 143.522 88.36 143.522 87.192C143.522 86.04 143.786 85.016 144.314 84.12C144.858 83.208 145.594 82.488 146.522 81.96C147.45 81.416 148.482 81.144 149.618 81.144C150.738 81.144 151.722 81.4 152.57 81.912C153.434 82.408 154.106 83.096 154.586 83.976C155.082 84.84 155.33 85.824 155.33 86.928C155.33 87.136 155.314 87.352 155.282 87.576C155.266 87.784 155.226 88.024 155.162 88.296L145.418 88.32V85.968L153.698 85.944L152.426 86.928C152.394 86.24 152.266 85.664 152.042 85.2C151.834 84.736 151.522 84.384 151.106 84.144C150.706 83.888 150.21 83.76 149.618 83.76C148.994 83.76 148.45 83.904 147.986 84.192C147.522 84.464 147.162 84.856 146.906 85.368C146.666 85.864 146.546 86.456 146.546 87.144C146.546 87.848 146.674 88.464 146.93 88.992C147.202 89.504 147.586 89.904 148.082 90.192C148.578 90.464 149.154 90.6 149.81 90.6C150.402 90.6 150.938 90.504 151.418 90.312C151.898 90.104 152.314 89.8 152.666 89.4L154.514 91.248C153.954 91.904 153.266 92.4 152.45 92.736C151.65 93.072 150.778 93.24 149.834 93.24ZM166.099 93V76.488H169.387V93H166.099ZM160.723 79.032V76.128H174.763V79.032H160.723ZM179.246 93.24C178.078 93.24 177.022 92.976 176.078 92.448C175.15 91.904 174.406 91.176 173.846 90.264C173.302 89.336 173.03 88.304 173.03 87.168C173.03 86.032 173.302 85.016 173.846 84.12C174.39 83.208 175.134 82.488 176.078 81.96C177.022 81.416 178.07 81.144 179.222 81.144C180.406 81.144 181.462 81.416 182.39 81.96C183.334 82.488 184.078 83.208 184.622 84.12C185.166 85.016 185.438 86.032 185.438 87.168C185.438 88.304 185.166 89.336 184.622 90.264C184.078 91.176 183.334 91.904 182.39 92.448C181.462 92.976 180.414 93.24 179.246 93.24ZM179.222 90.312C179.814 90.312 180.334 90.184 180.782 89.928C181.246 89.656 181.598 89.288 181.838 88.824C182.094 88.344 182.222 87.8 182.222 87.192C182.222 86.584 182.094 86.048 181.838 85.584C181.582 85.12 181.23 84.76 180.782 84.504C180.334 84.232 179.814 84.096 179.222 84.096C178.646 84.096 178.134 84.232 177.686 84.504C177.238 84.76 176.886 85.12 176.63 85.584C176.374 86.048 176.246 86.584 176.246 87.192C176.246 87.8 176.374 88.344 176.63 88.824C176.886 89.288 177.238 89.656 177.686 89.928C178.134 90.184 178.646 90.312 179.222 90.312ZM200.286 93.24C199.086 93.24 197.958 93.024 196.902 92.592C195.862 92.144 194.942 91.52 194.142 90.72C193.358 89.92 192.742 89 192.294 87.96C191.862 86.904 191.646 85.768 191.646 84.552C191.646 83.32 191.87 82.184 192.318 81.144C192.766 80.088 193.39 79.168 194.19 78.384C194.99 77.584 195.926 76.968 196.998 76.536C198.07 76.088 199.23 75.864 200.478 75.864C201.87 75.864 203.15 76.128 204.318 76.656C205.486 77.168 206.454 77.896 207.222 78.84L205.014 81.048C204.486 80.36 203.83 79.832 203.046 79.464C202.262 79.096 201.398 78.912 200.454 78.912C199.382 78.912 198.43 79.152 197.598 79.632C196.782 80.096 196.142 80.752 195.678 81.6C195.214 82.432 194.982 83.408 194.982 84.528C194.982 85.648 195.206 86.64 195.654 87.504C196.118 88.352 196.742 89.016 197.526 89.496C198.326 89.976 199.238 90.216 200.262 90.216C201.318 90.216 202.222 90.024 202.974 89.64C203.726 89.24 204.302 88.664 204.702 87.912C205.102 87.144 205.302 86.208 205.302 85.104L207.438 86.568L200.07 86.496V83.664H208.662V84.12C208.662 86.136 208.302 87.824 207.582 89.184C206.862 90.528 205.87 91.544 204.606 92.232C203.358 92.904 201.918 93.24 200.286 93.24ZM216.374 93.24C215.158 93.24 214.078 92.984 213.134 92.472C212.19 91.944 211.438 91.224 210.878 90.312C210.334 89.4 210.062 88.36 210.062 87.192C210.062 86.04 210.326 85.016 210.854 84.12C211.398 83.208 212.134 82.488 213.062 81.96C213.99 81.416 215.022 81.144 216.158 81.144C217.278 81.144 218.262 81.4 219.11 81.912C219.974 82.408 220.646 83.096 221.126 83.976C221.622 84.84 221.87 85.824 221.87 86.928C221.87 87.136 221.854 87.352 221.822 87.576C221.806 87.784 221.766 88.024 221.702 88.296L211.958 88.32V85.968L220.238 85.944L218.966 86.928C218.934 86.24 218.806 85.664 218.582 85.2C218.374 84.736 218.062 84.384 217.646 84.144C217.246 83.888 216.75 83.76 216.158 83.76C215.534 83.76 214.99 83.904 214.526 84.192C214.062 84.464 213.702 84.856 213.446 85.368C213.206 85.864 213.086 86.456 213.086 87.144C213.086 87.848 213.214 88.464 213.47 88.992C213.742 89.504 214.126 89.904 214.622 90.192C215.118 90.464 215.694 90.6 216.35 90.6C216.942 90.6 217.478 90.504 217.958 90.312C218.438 90.104 218.854 89.8 219.206 89.4L221.054 91.248C220.494 91.904 219.806 92.4 218.99 92.736C218.19 93.072 217.318 93.24 216.374 93.24ZM225.26 93V76.584H228.404V93H225.26ZM222.548 84.168V81.408H231.116V84.168H222.548ZM245.708 93.24C244.508 93.24 243.38 93.024 242.324 92.592C241.284 92.144 240.364 91.52 239.564 90.72C238.78 89.92 238.164 89 237.716 87.96C237.284 86.904 237.068 85.768 237.068 84.552C237.068 83.32 237.292 82.184 237.74 81.144C238.188 80.088 238.812 79.168 239.612 78.384C240.412 77.584 241.348 76.968 242.42 76.536C243.492 76.088 244.652 75.864 245.9 75.864C247.292 75.864 248.572 76.128 249.74 76.656C250.908 77.168 251.876 77.896 252.644 78.84L250.436 81.048C249.908 80.36 249.252 79.832 248.468 79.464C247.684 79.096 246.82 78.912 245.876 78.912C244.804 78.912 243.852 79.152 243.02 79.632C242.204 80.096 241.564 80.752 241.1 81.6C240.636 82.432 240.404 83.408 240.404 84.528C240.404 85.648 240.628 86.64 241.076 87.504C241.54 88.352 242.164 89.016 242.948 89.496C243.748 89.976 244.66 90.216 245.684 90.216C246.74 90.216 247.644 90.024 248.396 89.64C249.148 89.24 249.724 88.664 250.124 87.912C250.524 87.144 250.724 86.208 250.724 85.104L252.86 86.568L245.492 86.496V83.664H254.084V84.12C254.084 86.136 253.724 87.824 253.004 89.184C252.284 90.528 251.292 91.544 250.028 92.232C248.78 92.904 247.34 93.24 245.708 93.24ZM261.699 93.24C260.531 93.24 259.475 92.976 258.531 92.448C257.603 91.904 256.859 91.176 256.299 90.264C255.755 89.336 255.483 88.304 255.483 87.168C255.483 86.032 255.755 85.016 256.299 84.12C256.843 83.208 257.587 82.488 258.531 81.96C259.475 81.416 260.523 81.144 261.675 81.144C262.859 81.144 263.915 81.416 264.843 81.96C265.787 82.488 266.531 83.208 267.075 84.12C267.619 85.016 267.891 86.032 267.891 87.168C267.891 88.304 267.619 89.336 267.075 90.264C266.531 91.176 265.787 91.904 264.843 92.448C263.915 92.976 262.867 93.24 261.699 93.24ZM261.675 90.312C262.267 90.312 262.787 90.184 263.235 89.928C263.699 89.656 264.051 89.288 264.291 88.824C264.547 88.344 264.675 87.8 264.675 87.192C264.675 86.584 264.547 86.048 264.291 85.584C264.035 85.12 263.683 84.76 263.235 84.504C262.787 84.232 262.267 84.096 261.675 84.096C261.099 84.096 260.587 84.232 260.139 84.504C259.691 84.76 259.339 85.12 259.083 85.584C258.827 86.048 258.699 86.584 258.699 87.192C258.699 87.8 258.827 88.344 259.083 88.824C259.339 89.288 259.691 89.656 260.139 89.928C260.587 90.184 261.099 90.312 261.675 90.312ZM269.915 93V81.408H273.083V93H269.915ZM271.499 79.536C270.987 79.536 270.563 79.368 270.227 79.032C269.891 78.68 269.723 78.248 269.723 77.736C269.723 77.24 269.891 76.816 270.227 76.464C270.563 76.112 270.987 75.936 271.499 75.936C272.027 75.936 272.451 76.112 272.771 76.464C273.107 76.816 273.275 77.24 273.275 77.736C273.275 78.248 273.107 78.68 272.771 79.032C272.451 79.368 272.027 79.536 271.499 79.536ZM283.669 93V86.352C283.669 85.664 283.453 85.104 283.021 84.672C282.589 84.24 282.029 84.024 281.341 84.024C280.893 84.024 280.493 84.12 280.141 84.312C279.789 84.504 279.509 84.776 279.301 85.128C279.109 85.48 279.013 85.888 279.013 86.352L277.789 85.728C277.789 84.816 277.981 84.024 278.365 83.352C278.765 82.664 279.309 82.128 279.997 81.744C280.701 81.36 281.493 81.168 282.373 81.168C283.221 81.168 283.981 81.384 284.653 81.816C285.325 82.232 285.853 82.784 286.237 83.472C286.621 84.144 286.813 84.872 286.813 85.656V93H283.669ZM275.869 93V81.408H279.013V93H275.869ZM294.193 98.136C292.961 98.136 291.873 97.912 290.929 97.464C289.985 97.032 289.233 96.416 288.673 95.616L290.665 93.624C291.113 94.152 291.609 94.552 292.153 94.824C292.713 95.112 293.385 95.256 294.169 95.256C295.145 95.256 295.913 95.008 296.473 94.512C297.049 94.016 297.337 93.328 297.337 92.448V89.544L297.865 87L297.361 84.456V81.408H300.481V92.4C300.481 93.552 300.209 94.552 299.665 95.4C299.137 96.264 298.401 96.936 297.457 97.416C296.513 97.896 295.425 98.136 294.193 98.136ZM294.049 92.688C293.009 92.688 292.073 92.44 291.241 91.944C290.409 91.432 289.753 90.736 289.273 89.856C288.809 88.976 288.577 87.992 288.577 86.904C288.577 85.816 288.809 84.84 289.273 83.976C289.753 83.112 290.409 82.432 291.241 81.936C292.073 81.424 293.009 81.168 294.049 81.168C294.913 81.168 295.673 81.336 296.329 81.672C297.001 82.008 297.529 82.472 297.913 83.064C298.297 83.64 298.505 84.32 298.537 85.104V88.752C298.505 89.52 298.289 90.208 297.889 90.816C297.505 91.408 296.977 91.872 296.305 92.208C295.649 92.528 294.897 92.688 294.049 92.688ZM294.673 89.832C295.249 89.832 295.745 89.712 296.161 89.472C296.593 89.216 296.929 88.872 297.169 88.44C297.409 87.992 297.529 87.488 297.529 86.928C297.529 86.352 297.409 85.848 297.169 85.416C296.929 84.984 296.593 84.648 296.161 84.408C295.745 84.152 295.249 84.024 294.673 84.024C294.097 84.024 293.593 84.152 293.161 84.408C292.729 84.648 292.393 84.992 292.153 85.44C291.913 85.872 291.793 86.368 291.793 86.928C291.793 87.472 291.913 87.968 292.153 88.416C292.393 88.848 292.729 89.192 293.161 89.448C293.593 89.704 294.097 89.832 294.673 89.832Z" fill="black"/>
<path d="M64.9 128.96V127.38H68.66C69.4733 127.38 70.1 127.173 70.54 126.76C70.98 126.347 71.2 125.787 71.2 125.08C71.2 124.413 70.98 123.86 70.54 123.42C70.1133 122.98 69.4933 122.76 68.68 122.76H64.9V121.12H68.74C69.62 121.12 70.3867 121.293 71.04 121.64C71.6933 121.973 72.1933 122.433 72.54 123.02C72.9 123.607 73.08 124.28 73.08 125.04C73.08 125.827 72.9 126.513 72.54 127.1C72.1933 127.687 71.6933 128.147 71.04 128.48C70.3867 128.8 69.62 128.96 68.74 128.96H64.9ZM63.64 135V121.12H65.52V135H63.64ZM71.64 135L66.6 128.78L68.38 128.16L74.02 135H71.64ZM79.3717 135.2C78.5051 135.2 77.7184 134.987 77.0117 134.56C76.3051 134.12 75.7451 133.527 75.3317 132.78C74.9317 132.033 74.7317 131.193 74.7317 130.26C74.7317 129.327 74.9317 128.487 75.3317 127.74C75.7451 126.993 76.2984 126.4 76.9917 125.96C77.6984 125.52 78.4917 125.3 79.3717 125.3C80.0917 125.3 80.7317 125.453 81.2917 125.76C81.8651 126.053 82.3251 126.467 82.6717 127C83.0184 127.52 83.2117 128.127 83.2517 128.82V131.68C83.2117 132.36 83.0184 132.967 82.6717 133.5C82.3384 134.033 81.8851 134.453 81.3117 134.76C80.7517 135.053 80.1051 135.2 79.3717 135.2ZM79.6717 133.5C80.5651 133.5 81.2851 133.2 81.8317 132.6C82.3784 131.987 82.6517 131.207 82.6517 130.26C82.6517 129.607 82.5251 129.04 82.2717 128.56C82.0317 128.067 81.6851 127.687 81.2317 127.42C80.7784 127.14 80.2517 127 79.6517 127C79.0517 127 78.5184 127.14 78.0517 127.42C77.5984 127.7 77.2384 128.087 76.9717 128.58C76.7184 129.06 76.5917 129.613 76.5917 130.24C76.5917 130.88 76.7184 131.447 76.9717 131.94C77.2384 132.42 77.6051 132.8 78.0717 133.08C78.5384 133.36 79.0717 133.5 79.6717 133.5ZM82.5317 135V132.44L82.8717 130.12L82.5317 127.82V125.5H84.3517V135H82.5317ZM91.9723 135.2C91.2523 135.2 90.599 135.053 90.0123 134.76C89.439 134.453 88.979 134.033 88.6323 133.5C88.2857 132.967 88.0923 132.36 88.0523 131.68V128.82C88.0923 128.127 88.2857 127.52 88.6323 127C88.9923 126.467 89.459 126.053 90.0323 125.76C90.619 125.453 91.2657 125.3 91.9723 125.3C92.839 125.3 93.619 125.52 94.3123 125.96C95.019 126.4 95.5723 126.993 95.9723 127.74C96.3723 128.487 96.5723 129.327 96.5723 130.26C96.5723 131.193 96.3723 132.033 95.9723 132.78C95.5723 133.527 95.019 134.12 94.3123 134.56C93.619 134.987 92.839 135.2 91.9723 135.2ZM86.9723 138.98V125.5H88.7723V128L88.4323 130.3L88.7723 132.62V138.98H86.9723ZM91.6723 133.5C92.2723 133.5 92.799 133.36 93.2523 133.08C93.7057 132.8 94.0657 132.42 94.3323 131.94C94.599 131.447 94.7323 130.88 94.7323 130.24C94.7323 129.613 94.599 129.053 94.3323 128.56C94.0657 128.067 93.7057 127.687 93.2523 127.42C92.799 127.14 92.279 127 91.6923 127C91.0923 127 90.5657 127.14 90.1123 127.42C89.659 127.687 89.3057 128.067 89.0523 128.56C88.799 129.053 88.6723 129.62 88.6723 130.26C88.6723 130.887 88.7923 131.447 89.0323 131.94C89.2857 132.42 89.639 132.8 90.0923 133.08C90.559 133.36 91.0857 133.5 91.6723 133.5ZM98.633 135V125.5H100.433V135H98.633ZM99.533 123.6C99.1996 123.6 98.9263 123.493 98.713 123.28C98.4996 123.053 98.393 122.773 98.393 122.44C98.393 122.12 98.4996 121.853 98.713 121.64C98.9263 121.413 99.1996 121.3 99.533 121.3C99.8663 121.3 100.14 121.413 100.353 121.64C100.566 121.853 100.673 122.12 100.673 122.44C100.673 122.773 100.566 123.053 100.353 123.28C100.14 123.493 99.8663 123.6 99.533 123.6ZM107.106 135.2C106.226 135.2 105.439 134.987 104.746 134.56C104.052 134.12 103.499 133.527 103.086 132.78C102.686 132.033 102.486 131.193 102.486 130.26C102.486 129.327 102.686 128.487 103.086 127.74C103.499 126.993 104.052 126.4 104.746 125.96C105.439 125.52 106.226 125.3 107.106 125.3C107.812 125.3 108.452 125.453 109.026 125.76C109.599 126.053 110.059 126.467 110.406 127C110.766 127.52 110.966 128.127 111.006 128.82V131.68C110.966 132.36 110.772 132.967 110.426 133.5C110.079 134.033 109.619 134.453 109.046 134.76C108.472 135.053 107.826 135.2 107.106 135.2ZM107.406 133.5C108.006 133.5 108.526 133.36 108.966 133.08C109.419 132.8 109.772 132.42 110.026 131.94C110.279 131.447 110.406 130.887 110.406 130.26C110.406 129.607 110.272 129.04 110.006 128.56C109.752 128.08 109.399 127.7 108.946 127.42C108.506 127.14 107.986 127 107.386 127C106.786 127 106.259 127.14 105.806 127.42C105.352 127.7 104.992 128.087 104.726 128.58C104.472 129.06 104.346 129.613 104.346 130.24C104.346 130.88 104.472 131.447 104.726 131.94C104.992 132.42 105.352 132.8 105.806 133.08C106.272 133.36 106.806 133.5 107.406 133.5ZM112.106 135H110.286V132.44L110.626 130.12L110.286 127.82V120.72H112.106V135ZM122.906 135.2C122.026 135.2 121.24 134.987 120.546 134.56C119.853 134.12 119.3 133.527 118.886 132.78C118.486 132.033 118.286 131.193 118.286 130.26C118.286 129.327 118.486 128.487 118.886 127.74C119.3 126.993 119.853 126.4 120.546 125.96C121.24 125.52 122.026 125.3 122.906 125.3C123.613 125.3 124.253 125.453 124.826 125.76C125.4 126.053 125.86 126.467 126.206 127C126.566 127.52 126.766 128.127 126.806 128.82V131.68C126.766 132.36 126.573 132.967 126.226 133.5C125.88 134.033 125.42 134.453 124.846 134.76C124.273 135.053 123.626 135.2 122.906 135.2ZM123.206 133.5C123.806 133.5 124.326 133.36 124.766 133.08C125.22 132.8 125.573 132.42 125.826 131.94C126.08 131.447 126.206 130.887 126.206 130.26C126.206 129.607 126.073 129.04 125.806 128.56C125.553 128.08 125.2 127.7 124.746 127.42C124.306 127.14 123.786 127 123.186 127C122.586 127 122.06 127.14 121.606 127.42C121.153 127.7 120.793 128.087 120.526 128.58C120.273 129.06 120.146 129.613 120.146 130.24C120.146 130.88 120.273 131.447 120.526 131.94C120.793 132.42 121.153 132.8 121.606 133.08C122.073 133.36 122.606 133.5 123.206 133.5ZM127.906 135H126.086V132.44L126.426 130.12L126.086 127.82V120.72H127.906V135ZM134.927 135.2C133.98 135.2 133.127 134.987 132.367 134.56C131.607 134.12 131.007 133.527 130.567 132.78C130.127 132.033 129.907 131.187 129.907 130.24C129.907 129.307 130.12 128.467 130.547 127.72C130.987 126.973 131.574 126.387 132.307 125.96C133.054 125.52 133.887 125.3 134.807 125.3C135.687 125.3 136.46 125.5 137.127 125.9C137.807 126.3 138.334 126.853 138.707 127.56C139.094 128.267 139.287 129.067 139.287 129.96C139.287 130.093 139.28 130.24 139.267 130.4C139.254 130.547 139.227 130.72 139.187 130.92H131.167V129.42H138.227L137.567 130C137.567 129.36 137.454 128.82 137.227 128.38C137 127.927 136.68 127.58 136.267 127.34C135.854 127.087 135.354 126.96 134.767 126.96C134.154 126.96 133.614 127.093 133.147 127.36C132.68 127.627 132.32 128 132.067 128.48C131.814 128.96 131.687 129.527 131.687 130.18C131.687 130.847 131.82 131.433 132.087 131.94C132.354 132.433 132.734 132.82 133.227 133.1C133.72 133.367 134.287 133.5 134.927 133.5C135.46 133.5 135.947 133.407 136.387 133.22C136.84 133.033 137.227 132.753 137.547 132.38L138.707 133.56C138.254 134.093 137.694 134.5 137.027 134.78C136.374 135.06 135.674 135.2 134.927 135.2ZM146.25 135.2C145.53 135.2 144.876 135.053 144.29 134.76C143.716 134.453 143.256 134.033 142.91 133.5C142.563 132.967 142.37 132.36 142.33 131.68V128.82C142.37 128.127 142.563 127.52 142.91 127C143.27 126.467 143.736 126.053 144.31 125.76C144.896 125.453 145.543 125.3 146.25 125.3C147.116 125.3 147.896 125.52 148.59 125.96C149.296 126.4 149.85 126.993 150.25 127.74C150.65 128.487 150.85 129.327 150.85 130.26C150.85 131.193 150.65 132.033 150.25 132.78C149.85 133.527 149.296 134.12 148.59 134.56C147.896 134.987 147.116 135.2 146.25 135.2ZM141.25 138.98V125.5H143.05V128L142.71 130.3L143.05 132.62V138.98H141.25ZM145.95 133.5C146.55 133.5 147.076 133.36 147.53 133.08C147.983 132.8 148.343 132.42 148.61 131.94C148.876 131.447 149.01 130.88 149.01 130.24C149.01 129.613 148.876 129.053 148.61 128.56C148.343 128.067 147.983 127.687 147.53 127.42C147.076 127.14 146.556 127 145.97 127C145.37 127 144.843 127.14 144.39 127.42C143.936 127.687 143.583 128.067 143.33 128.56C143.076 129.053 142.95 129.62 142.95 130.26C142.95 130.887 143.07 131.447 143.31 131.94C143.563 132.42 143.916 132.8 144.37 133.08C144.836 133.36 145.363 133.5 145.95 133.5ZM152.89 135V120.72H154.69V135H152.89ZM161.664 135.2C160.731 135.2 159.891 134.98 159.144 134.54C158.397 134.1 157.804 133.507 157.364 132.76C156.924 132 156.704 131.153 156.704 130.22C156.704 129.3 156.924 128.473 157.364 127.74C157.804 126.993 158.397 126.4 159.144 125.96C159.891 125.52 160.731 125.3 161.664 125.3C162.584 125.3 163.417 125.52 164.164 125.96C164.924 126.387 165.524 126.973 165.964 127.72C166.404 128.467 166.624 129.3 166.624 130.22C166.624 131.153 166.404 132 165.964 132.76C165.524 133.507 164.924 134.1 164.164 134.54C163.417 134.98 162.584 135.2 161.664 135.2ZM161.664 133.46C162.264 133.46 162.797 133.32 163.264 133.04C163.731 132.76 164.097 132.38 164.364 131.9C164.631 131.407 164.764 130.847 164.764 130.22C164.764 129.607 164.624 129.06 164.344 128.58C164.077 128.1 163.711 127.727 163.244 127.46C162.791 127.18 162.264 127.04 161.664 127.04C161.064 127.04 160.531 127.18 160.064 127.46C159.597 127.727 159.231 128.1 158.964 128.58C158.697 129.06 158.564 129.607 158.564 130.22C158.564 130.847 158.697 131.407 158.964 131.9C159.231 132.38 159.597 132.76 160.064 133.04C160.531 133.32 161.064 133.46 161.664 133.46ZM171.42 135.08L167.3 125.5H169.3L172.36 133H171.72L174.94 125.5H176.94L172.5 135.08H171.42ZM168.7 138.98L171.5 133.24L172.5 135.08L170.7 138.98H168.7ZM178.34 135V125.5H180.14V135H178.34ZM184.76 135V129.26C184.76 128.553 184.54 128 184.1 127.6C183.673 127.187 183.133 126.98 182.48 126.98C182.04 126.98 181.646 127.073 181.3 127.26C180.953 127.447 180.673 127.707 180.46 128.04C180.246 128.373 180.14 128.773 180.14 129.24L179.4 128.88C179.4 128.16 179.553 127.533 179.86 127C180.18 126.467 180.613 126.053 181.16 125.76C181.706 125.453 182.32 125.3 183 125.3C183.666 125.3 184.266 125.447 184.8 125.74C185.346 126.033 185.773 126.447 186.08 126.98C186.4 127.513 186.56 128.147 186.56 128.88V135H184.76ZM191.18 135V129.26C191.18 128.553 190.96 128 190.52 127.6C190.093 127.187 189.56 126.98 188.92 126.98C188.48 126.98 188.08 127.073 187.72 127.26C187.373 127.447 187.093 127.707 186.88 128.04C186.666 128.373 186.56 128.773 186.56 129.24L185.54 128.88C185.58 128.147 185.773 127.52 186.12 127C186.48 126.467 186.94 126.053 187.5 125.76C188.06 125.453 188.673 125.3 189.34 125.3C190.033 125.3 190.653 125.447 191.2 125.74C191.746 126.033 192.18 126.447 192.5 126.98C192.833 127.513 193 128.153 193 128.9V135H191.18ZM199.849 135.2C198.902 135.2 198.049 134.987 197.289 134.56C196.529 134.12 195.929 133.527 195.489 132.78C195.049 132.033 194.829 131.187 194.829 130.24C194.829 129.307 195.042 128.467 195.469 127.72C195.909 126.973 196.496 126.387 197.229 125.96C197.976 125.52 198.809 125.3 199.729 125.3C200.609 125.3 201.382 125.5 202.049 125.9C202.729 126.3 203.256 126.853 203.629 127.56C204.016 128.267 204.209 129.067 204.209 129.96C204.209 130.093 204.202 130.24 204.189 130.4C204.176 130.547 204.149 130.72 204.109 130.92H196.089V129.42H203.149L202.489 130C202.489 129.36 202.376 128.82 202.149 128.38C201.922 127.927 201.602 127.58 201.189 127.34C200.776 127.087 200.276 126.96 199.689 126.96C199.076 126.96 198.536 127.093 198.069 127.36C197.602 127.627 197.242 128 196.989 128.48C196.736 128.96 196.609 129.527 196.609 130.18C196.609 130.847 196.742 131.433 197.009 131.94C197.276 132.433 197.656 132.82 198.149 133.1C198.642 133.367 199.209 133.5 199.849 133.5C200.382 133.5 200.869 133.407 201.309 133.22C201.762 133.033 202.149 132.753 202.469 132.38L203.629 133.56C203.176 134.093 202.616 134.5 201.949 134.78C201.296 135.06 200.596 135.2 199.849 135.2ZM212.892 135V129.46C212.892 128.74 212.665 128.147 212.212 127.68C211.758 127.213 211.172 126.98 210.452 126.98C209.972 126.98 209.545 127.087 209.172 127.3C208.798 127.513 208.505 127.807 208.292 128.18C208.078 128.553 207.972 128.98 207.972 129.46L207.232 129.04C207.232 128.32 207.392 127.68 207.712 127.12C208.032 126.56 208.478 126.12 209.052 125.8C209.625 125.467 210.272 125.3 210.992 125.3C211.712 125.3 212.345 125.48 212.892 125.84C213.452 126.2 213.892 126.673 214.212 127.26C214.532 127.833 214.692 128.447 214.692 129.1V135H212.892ZM206.172 135V125.5H207.972V135H206.172ZM218.471 135V121.52H220.271V135H218.471ZM216.131 127.14V125.5H222.611V127.14H216.131ZM232.575 135.2C231.708 135.2 230.922 134.987 230.215 134.56C229.508 134.12 228.948 133.527 228.535 132.78C228.135 132.033 227.935 131.193 227.935 130.26C227.935 129.327 228.135 128.487 228.535 127.74C228.948 126.993 229.502 126.4 230.195 125.96C230.902 125.52 231.695 125.3 232.575 125.3C233.295 125.3 233.935 125.453 234.495 125.76C235.068 126.053 235.528 126.467 235.875 127C236.222 127.52 236.415 128.127 236.455 128.82V131.68C236.415 132.36 236.222 132.967 235.875 133.5C235.542 134.033 235.088 134.453 234.515 134.76C233.955 135.053 233.308 135.2 232.575 135.2ZM232.875 133.5C233.768 133.5 234.488 133.2 235.035 132.6C235.582 131.987 235.855 131.207 235.855 130.26C235.855 129.607 235.728 129.04 235.475 128.56C235.235 128.067 234.888 127.687 234.435 127.42C233.982 127.14 233.455 127 232.855 127C232.255 127 231.722 127.14 231.255 127.42C230.802 127.7 230.442 128.087 230.175 128.58C229.922 129.06 229.795 129.613 229.795 130.24C229.795 130.88 229.922 131.447 230.175 131.94C230.442 132.42 230.808 132.8 231.275 133.08C231.742 133.36 232.275 133.5 232.875 133.5ZM235.735 135V132.44L236.075 130.12L235.735 127.82V125.5H237.555V135H235.735ZM246.895 135V129.46C246.895 128.74 246.669 128.147 246.215 127.68C245.762 127.213 245.175 126.98 244.455 126.98C243.975 126.98 243.549 127.087 243.175 127.3C242.802 127.513 242.509 127.807 242.295 128.18C242.082 128.553 241.975 128.98 241.975 129.46L241.235 129.04C241.235 128.32 241.395 127.68 241.715 127.12C242.035 126.56 242.482 126.12 243.055 125.8C243.629 125.467 244.275 125.3 244.995 125.3C245.715 125.3 246.349 125.48 246.895 125.84C247.455 126.2 247.895 126.673 248.215 127.26C248.535 127.833 248.695 128.447 248.695 129.1V135H246.895ZM240.175 135V125.5H241.975V135H240.175ZM255.153 135.2C254.273 135.2 253.486 134.987 252.793 134.56C252.099 134.12 251.546 133.527 251.132 132.78C250.733 132.033 250.533 131.193 250.533 130.26C250.533 129.327 250.733 128.487 251.132 127.74C251.546 126.993 252.099 126.4 252.793 125.96C253.486 125.52 254.273 125.3 255.153 125.3C255.859 125.3 256.499 125.453 257.073 125.76C257.646 126.053 258.106 126.467 258.453 127C258.813 127.52 259.013 128.127 259.053 128.82V131.68C259.013 132.36 258.819 132.967 258.473 133.5C258.126 134.033 257.666 134.453 257.093 134.76C256.519 135.053 255.873 135.2 255.153 135.2ZM255.453 133.5C256.053 133.5 256.573 133.36 257.013 133.08C257.466 132.8 257.819 132.42 258.073 131.94C258.326 131.447 258.453 130.887 258.453 130.26C258.453 129.607 258.319 129.04 258.053 128.56C257.799 128.08 257.446 127.7 256.993 127.42C256.553 127.14 256.033 127 255.433 127C254.833 127 254.306 127.14 253.853 127.42C253.399 127.7 253.039 128.087 252.773 128.58C252.519 129.06 252.393 129.613 252.393 130.24C252.393 130.88 252.519 131.447 252.773 131.94C253.039 132.42 253.399 132.8 253.853 133.08C254.319 133.36 254.853 133.5 255.453 133.5ZM260.153 135H258.333V132.44L258.673 130.12L258.333 127.82V120.72H260.153V135ZM271.333 135.2C270.387 135.2 269.533 134.987 268.773 134.56C268.013 134.12 267.413 133.527 266.973 132.78C266.533 132.033 266.313 131.187 266.313 130.24C266.313 129.307 266.527 128.467 266.953 127.72C267.393 126.973 267.98 126.387 268.713 125.96C269.46 125.52 270.293 125.3 271.213 125.3C272.093 125.3 272.867 125.5 273.533 125.9C274.213 126.3 274.74 126.853 275.113 127.56C275.5 128.267 275.693 129.067 275.693 129.96C275.693 130.093 275.687 130.24 275.673 130.4C275.66 130.547 275.633 130.72 275.593 130.92H267.573V129.42H274.633L273.973 130C273.973 129.36 273.86 128.82 273.633 128.38C273.407 127.927 273.087 127.58 272.673 127.34C272.26 127.087 271.76 126.96 271.173 126.96C270.56 126.96 270.02 127.093 269.553 127.36C269.087 127.627 268.727 128 268.473 128.48C268.22 128.96 268.093 129.527 268.093 130.18C268.093 130.847 268.227 131.433 268.493 131.94C268.76 132.433 269.14 132.82 269.633 133.1C270.127 133.367 270.693 133.5 271.333 133.5C271.867 133.5 272.353 133.407 272.793 133.22C273.247 133.033 273.633 132.753 273.953 132.38L275.113 133.56C274.66 134.093 274.1 134.5 273.433 134.78C272.78 135.06 272.08 135.2 271.333 135.2ZM281.696 135.2C280.829 135.2 280.043 134.987 279.336 134.56C278.629 134.12 278.069 133.527 277.656 132.78C277.256 132.033 277.056 131.193 277.056 130.26C277.056 129.327 277.256 128.487 277.656 127.74C278.069 126.993 278.623 126.4 279.316 125.96C280.023 125.52 280.816 125.3 281.696 125.3C282.416 125.3 283.056 125.453 283.616 125.76C284.189 126.053 284.649 126.467 284.996 127C285.343 127.52 285.536 128.127 285.576 128.82V131.68C285.536 132.36 285.343 132.967 284.996 133.5C284.663 134.033 284.209 134.453 283.636 134.76C283.076 135.053 282.429 135.2 281.696 135.2ZM281.996 133.5C282.889 133.5 283.609 133.2 284.156 132.6C284.703 131.987 284.976 131.207 284.976 130.26C284.976 129.607 284.849 129.04 284.596 128.56C284.356 128.067 284.009 127.687 283.556 127.42C283.103 127.14 282.576 127 281.976 127C281.376 127 280.843 127.14 280.376 127.42C279.923 127.7 279.563 128.087 279.296 128.58C279.043 129.06 278.916 129.613 278.916 130.24C278.916 130.88 279.043 131.447 279.296 131.94C279.563 132.42 279.929 132.8 280.396 133.08C280.863 133.36 281.396 133.5 281.996 133.5ZM284.856 135V132.44L285.196 130.12L284.856 127.82V125.5H286.676V135H284.856ZM292.317 135.2C291.783 135.2 291.277 135.133 290.797 135C290.33 134.853 289.897 134.653 289.497 134.4C289.097 134.133 288.75 133.82 288.457 133.46L289.617 132.3C289.963 132.727 290.363 133.047 290.817 133.26C291.27 133.46 291.777 133.56 292.337 133.56C292.897 133.56 293.33 133.467 293.637 133.28C293.943 133.08 294.097 132.807 294.097 132.46C294.097 132.113 293.97 131.847 293.717 131.66C293.477 131.46 293.163 131.3 292.777 131.18C292.39 131.047 291.977 130.92 291.537 130.8C291.11 130.667 290.703 130.5 290.317 130.3C289.93 130.1 289.61 129.827 289.357 129.48C289.117 129.133 288.997 128.673 288.997 128.1C288.997 127.527 289.137 127.033 289.417 126.62C289.697 126.193 290.083 125.867 290.577 125.64C291.083 125.413 291.69 125.3 292.397 125.3C293.143 125.3 293.803 125.433 294.377 125.7C294.963 125.953 295.443 126.34 295.817 126.86L294.657 128.02C294.39 127.673 294.057 127.407 293.657 127.22C293.27 127.033 292.83 126.94 292.337 126.94C291.817 126.94 291.417 127.033 291.137 127.22C290.87 127.393 290.737 127.64 290.737 127.96C290.737 128.28 290.857 128.527 291.097 128.7C291.337 128.873 291.65 129.02 292.037 129.14C292.437 129.26 292.85 129.387 293.277 129.52C293.703 129.64 294.11 129.807 294.497 130.02C294.883 130.233 295.197 130.52 295.437 130.88C295.69 131.24 295.817 131.713 295.817 132.3C295.817 133.193 295.497 133.9 294.857 134.42C294.23 134.94 293.383 135.2 292.317 135.2ZM300.952 135.08L296.832 125.5H298.832L301.892 133H301.252L304.472 125.5H306.472L302.032 135.08H300.952ZM298.232 138.98L301.032 133.24L302.032 135.08L300.232 138.98H298.232ZM316.665 135.2C315.719 135.2 314.865 134.987 314.105 134.56C313.345 134.12 312.745 133.527 312.305 132.78C311.865 132.033 311.645 131.187 311.645 130.24C311.645 129.307 311.859 128.467 312.285 127.72C312.725 126.973 313.312 126.387 314.045 125.96C314.792 125.52 315.625 125.3 316.545 125.3C317.425 125.3 318.199 125.5 318.865 125.9C319.545 126.3 320.072 126.853 320.445 127.56C320.832 128.267 321.025 129.067 321.025 129.96C321.025 130.093 321.019 130.24 321.005 130.4C320.992 130.547 320.965 130.72 320.925 130.92H312.905V129.42H319.965L319.305 130C319.305 129.36 319.192 128.82 318.965 128.38C318.739 127.927 318.419 127.58 318.005 127.34C317.592 127.087 317.092 126.96 316.505 126.96C315.892 126.96 315.352 127.093 314.885 127.36C314.419 127.627 314.059 128 313.805 128.48C313.552 128.96 313.425 129.527 313.425 130.18C313.425 130.847 313.559 131.433 313.825 131.94C314.092 132.433 314.472 132.82 314.965 133.1C315.459 133.367 316.025 133.5 316.665 133.5C317.199 133.5 317.685 133.407 318.125 133.22C318.579 133.033 318.965 132.753 319.285 132.38L320.445 133.56C319.992 134.093 319.432 134.5 318.765 134.78C318.112 135.06 317.412 135.2 316.665 135.2ZM322.988 135V125.5H324.788V135H322.988ZM329.408 135V129.26C329.408 128.553 329.188 128 328.748 127.6C328.321 127.187 327.781 126.98 327.128 126.98C326.688 126.98 326.295 127.073 325.948 127.26C325.601 127.447 325.321 127.707 325.108 128.04C324.895 128.373 324.788 128.773 324.788 129.24L324.048 128.88C324.048 128.16 324.201 127.533 324.508 127C324.828 126.467 325.261 126.053 325.808 125.76C326.355 125.453 326.968 125.3 327.648 125.3C328.315 125.3 328.915 125.447 329.448 125.74C329.995 126.033 330.421 126.447 330.728 126.98C331.048 127.513 331.208 128.147 331.208 128.88V135H329.408ZM335.828 135V129.26C335.828 128.553 335.608 128 335.168 127.6C334.741 127.187 334.208 126.98 333.568 126.98C333.128 126.98 332.728 127.073 332.368 127.26C332.021 127.447 331.741 127.707 331.528 128.04C331.315 128.373 331.208 128.773 331.208 129.24L330.188 128.88C330.228 128.147 330.421 127.52 330.768 127C331.128 126.467 331.588 126.053 332.148 125.76C332.708 125.453 333.321 125.3 333.988 125.3C334.681 125.3 335.301 125.447 335.848 125.74C336.395 126.033 336.828 126.447 337.148 126.98C337.481 127.513 337.648 128.153 337.648 128.9V135H335.828ZM345.097 135.2C344.377 135.2 343.724 135.053 343.137 134.76C342.564 134.453 342.104 134.033 341.757 133.5C341.411 132.967 341.217 132.36 341.177 131.68V128.82C341.217 128.127 341.411 127.52 341.757 127C342.117 126.467 342.584 126.053 343.157 125.76C343.744 125.453 344.391 125.3 345.097 125.3C345.964 125.3 346.744 125.52 347.437 125.96C348.144 126.4 348.697 126.993 349.097 127.74C349.497 128.487 349.697 129.327 349.697 130.26C349.697 131.193 349.497 132.033 349.097 132.78C348.697 133.527 348.144 134.12 347.437 134.56C346.744 134.987 345.964 135.2 345.097 135.2ZM340.097 138.98V125.5H341.897V128L341.557 130.3L341.897 132.62V138.98H340.097ZM344.797 133.5C345.397 133.5 345.924 133.36 346.377 133.08C346.831 132.8 347.191 132.42 347.457 131.94C347.724 131.447 347.857 130.88 347.857 130.24C347.857 129.613 347.724 129.053 347.457 128.56C347.191 128.067 346.831 127.687 346.377 127.42C345.924 127.14 345.404 127 344.817 127C344.217 127 343.691 127.14 343.237 127.42C342.784 127.687 342.431 128.067 342.177 128.56C341.924 129.053 341.797 129.62 341.797 130.26C341.797 130.887 341.917 131.447 342.157 131.94C342.411 132.42 342.764 132.8 343.217 133.08C343.684 133.36 344.211 133.5 344.797 133.5ZM351.738 135V120.72H353.538V135H351.738ZM360.512 135.2C359.578 135.2 358.738 134.98 357.992 134.54C357.245 134.1 356.652 133.507 356.212 132.76C355.772 132 355.552 131.153 355.552 130.22C355.552 129.3 355.772 128.473 356.212 127.74C356.652 126.993 357.245 126.4 357.992 125.96C358.738 125.52 359.578 125.3 360.512 125.3C361.432 125.3 362.265 125.52 363.012 125.96C363.772 126.387 364.372 126.973 364.812 127.72C365.252 128.467 365.472 129.3 365.472 130.22C365.472 131.153 365.252 132 364.812 132.76C364.372 133.507 363.772 134.1 363.012 134.54C362.265 134.98 361.432 135.2 360.512 135.2ZM360.512 133.46C361.112 133.46 361.645 133.32 362.112 133.04C362.578 132.76 362.945 132.38 363.212 131.9C363.478 131.407 363.612 130.847 363.612 130.22C363.612 129.607 363.472 129.06 363.192 128.58C362.925 128.1 362.558 127.727 362.092 127.46C361.638 127.18 361.112 127.04 360.512 127.04C359.912 127.04 359.378 127.18 358.912 127.46C358.445 127.727 358.078 128.1 357.812 128.58C357.545 129.06 357.412 129.607 357.412 130.22C357.412 130.847 357.545 131.407 357.812 131.9C358.078 132.38 358.445 132.76 358.912 133.04C359.378 133.32 359.912 133.46 360.512 133.46ZM370.268 135.08L366.148 125.5H368.148L371.208 133H370.568L373.788 125.5H375.788L371.348 135.08H370.268ZM367.548 138.98L370.348 133.24L371.348 135.08L369.548 138.98H367.548ZM381.294 135.2C380.348 135.2 379.494 134.987 378.734 134.56C377.974 134.12 377.374 133.527 376.934 132.78C376.494 132.033 376.274 131.187 376.274 130.24C376.274 129.307 376.488 128.467 376.914 127.72C377.354 126.973 377.941 126.387 378.674 125.96C379.421 125.52 380.254 125.3 381.174 125.3C382.054 125.3 382.828 125.5 383.494 125.9C384.174 126.3 384.701 126.853 385.074 127.56C385.461 128.267 385.654 129.067 385.654 129.96C385.654 130.093 385.648 130.24 385.634 130.4C385.621 130.547 385.594 130.72 385.554 130.92H377.534V129.42H384.594L383.934 130C383.934 129.36 383.821 128.82 383.594 128.38C383.368 127.927 383.048 127.58 382.634 127.34C382.221 127.087 381.721 126.96 381.134 126.96C380.521 126.96 379.981 127.093 379.514 127.36C379.048 127.627 378.688 128 378.434 128.48C378.181 128.96 378.054 129.527 378.054 130.18C378.054 130.847 378.188 131.433 378.454 131.94C378.721 132.433 379.101 132.82 379.594 133.1C380.088 133.367 380.654 133.5 381.294 133.5C381.828 133.5 382.314 133.407 382.754 133.22C383.208 133.033 383.594 132.753 383.914 132.38L385.074 133.56C384.621 134.093 384.061 134.5 383.394 134.78C382.741 135.06 382.041 135.2 381.294 135.2ZM392.017 135.2C391.07 135.2 390.217 134.987 389.457 134.56C388.697 134.12 388.097 133.527 387.657 132.78C387.217 132.033 386.997 131.187 386.997 130.24C386.997 129.307 387.21 128.467 387.637 127.72C388.077 126.973 388.664 126.387 389.397 125.96C390.144 125.52 390.977 125.3 391.897 125.3C392.777 125.3 393.55 125.5 394.217 125.9C394.897 126.3 395.424 126.853 395.797 127.56C396.184 128.267 396.377 129.067 396.377 129.96C396.377 130.093 396.37 130.24 396.357 130.4C396.344 130.547 396.317 130.72 396.277 130.92H388.257V129.42H395.317L394.657 130C394.657 129.36 394.544 128.82 394.317 128.38C394.09 127.927 393.77 127.58 393.357 127.34C392.944 127.087 392.444 126.96 391.857 126.96C391.244 126.96 390.704 127.093 390.237 127.36C389.77 127.627 389.41 128 389.157 128.48C388.904 128.96 388.777 129.527 388.777 130.18C388.777 130.847 388.91 131.433 389.177 131.94C389.444 132.433 389.824 132.82 390.317 133.1C390.81 133.367 391.377 133.5 392.017 133.5C392.55 133.5 393.037 133.407 393.477 133.22C393.93 133.033 394.317 132.753 394.637 132.38L395.797 133.56C395.344 134.093 394.784 134.5 394.117 134.78C393.464 135.06 392.764 135.2 392.017 135.2ZM63.32 165V155.5H65.12V165H63.32ZM65.12 159.58L64.44 159.28C64.44 158.067 64.72 157.1 65.28 156.38C65.84 155.66 66.6467 155.3 67.7 155.3C68.18 155.3 68.6133 155.387 69 155.56C69.3867 155.72 69.7467 155.993 70.08 156.38L68.9 157.6C68.7 157.387 68.48 157.233 68.24 157.14C68 157.047 67.72 157 67.4 157C66.7333 157 66.1867 157.213 65.76 157.64C65.3333 158.067 65.12 158.713 65.12 159.58ZM75.0748 165.2C74.2082 165.2 73.4215 164.987 72.7148 164.56C72.0082 164.12 71.4482 163.527 71.0348 162.78C70.6348 162.033 70.4348 161.193 70.4348 160.26C70.4348 159.327 70.6348 158.487 71.0348 157.74C71.4482 156.993 72.0015 156.4 72.6948 155.96C73.4015 155.52 74.1948 155.3 75.0748 155.3C75.7948 155.3 76.4348 155.453 76.9948 155.76C77.5682 156.053 78.0282 156.467 78.3748 157C78.7215 157.52 78.9148 158.127 78.9548 158.82V161.68C78.9148 162.36 78.7215 162.967 78.3748 163.5C78.0415 164.033 77.5882 164.453 77.0148 164.76C76.4548 165.053 75.8082 165.2 75.0748 165.2ZM75.3748 163.5C76.2682 163.5 76.9882 163.2 77.5348 162.6C78.0815 161.987 78.3548 161.207 78.3548 160.26C78.3548 159.607 78.2282 159.04 77.9748 158.56C77.7348 158.067 77.3882 157.687 76.9348 157.42C76.4815 157.14 75.9548 157 75.3548 157C74.7548 157 74.2215 157.14 73.7548 157.42C73.3015 157.7 72.9415 158.087 72.6748 158.58C72.4215 159.06 72.2948 159.613 72.2948 160.24C72.2948 160.88 72.4215 161.447 72.6748 161.94C72.9415 162.42 73.3082 162.8 73.7748 163.08C74.2415 163.36 74.7748 163.5 75.3748 163.5ZM78.2348 165V162.44L78.5748 160.12L78.2348 157.82V155.5H80.0548V165H78.2348ZM82.6755 165V155.5H84.4755V165H82.6755ZM89.0955 165V159.26C89.0955 158.553 88.8755 158 88.4355 157.6C88.0088 157.187 87.4688 156.98 86.8155 156.98C86.3755 156.98 85.9821 157.073 85.6355 157.26C85.2888 157.447 85.0088 157.707 84.7955 158.04C84.5821 158.373 84.4755 158.773 84.4755 159.24L83.7355 158.88C83.7355 158.16 83.8888 157.533 84.1955 157C84.5155 156.467 84.9488 156.053 85.4955 155.76C86.0421 155.453 86.6555 155.3 87.3355 155.3C88.0021 155.3 88.6021 155.447 89.1355 155.74C89.6821 156.033 90.1088 156.447 90.4155 156.98C90.7355 157.513 90.8955 158.147 90.8955 158.88V165H89.0955ZM95.5155 165V159.26C95.5155 158.553 95.2955 158 94.8555 157.6C94.4288 157.187 93.8955 156.98 93.2555 156.98C92.8155 156.98 92.4155 157.073 92.0555 157.26C91.7088 157.447 91.4288 157.707 91.2155 158.04C91.0021 158.373 90.8955 158.773 90.8955 159.24L89.8755 158.88C89.9155 158.147 90.1088 157.52 90.4555 157C90.8155 156.467 91.2755 156.053 91.8355 155.76C92.3955 155.453 93.0088 155.3 93.6755 155.3C94.3688 155.3 94.9888 155.447 95.5355 155.74C96.0821 156.033 96.5155 156.447 96.8355 156.98C97.1688 157.513 97.3355 158.153 97.3355 158.9V165H95.5155ZM104.785 165.2C104.065 165.2 103.412 165.053 102.825 164.76C102.252 164.453 101.792 164.033 101.445 163.5C101.098 162.967 100.905 162.36 100.865 161.68V158.82C100.905 158.127 101.098 157.52 101.445 157C101.805 156.467 102.272 156.053 102.845 155.76C103.432 155.453 104.078 155.3 104.785 155.3C105.652 155.3 106.432 155.52 107.125 155.96C107.832 156.4 108.385 156.993 108.785 157.74C109.185 158.487 109.385 159.327 109.385 160.26C109.385 161.193 109.185 162.033 108.785 162.78C108.385 163.527 107.832 164.12 107.125 164.56C106.432 164.987 105.652 165.2 104.785 165.2ZM99.7848 168.98V155.5H101.585V158L101.245 160.3L101.585 162.62V168.98H99.7848ZM104.485 163.5C105.085 163.5 105.612 163.36 106.065 163.08C106.518 162.8 106.878 162.42 107.145 161.94C107.412 161.447 107.545 160.88 107.545 160.24C107.545 159.613 107.412 159.053 107.145 158.56C106.878 158.067 106.518 157.687 106.065 157.42C105.612 157.14 105.092 157 104.505 157C103.905 157 103.378 157.14 102.925 157.42C102.472 157.687 102.118 158.067 101.865 158.56C101.612 159.053 101.485 159.62 101.485 160.26C101.485 160.887 101.605 161.447 101.845 161.94C102.098 162.42 102.452 162.8 102.905 163.08C103.372 163.36 103.898 163.5 104.485 163.5ZM119.426 165.2C118.639 165.2 117.932 165.027 117.306 164.68C116.692 164.32 116.212 163.827 115.866 163.2C115.519 162.573 115.346 161.847 115.346 161.02V155.5H117.146V160.94C117.146 161.46 117.232 161.913 117.406 162.3C117.592 162.673 117.859 162.96 118.206 163.16C118.552 163.36 118.959 163.46 119.426 163.46C120.132 163.46 120.686 163.24 121.086 162.8C121.486 162.347 121.686 161.727 121.686 160.94V155.5H123.486V161.02C123.486 161.847 123.312 162.573 122.966 163.2C122.619 163.827 122.139 164.32 121.526 164.68C120.926 165.027 120.226 165.2 119.426 165.2ZM130.898 165.2C130.178 165.2 129.525 165.053 128.938 164.76C128.365 164.453 127.905 164.033 127.558 163.5C127.211 162.967 127.018 162.36 126.978 161.68V158.82C127.018 158.127 127.211 157.52 127.558 157C127.918 156.467 128.385 156.053 128.958 155.76C129.545 155.453 130.191 155.3 130.898 155.3C131.765 155.3 132.545 155.52 133.238 155.96C133.945 156.4 134.498 156.993 134.898 157.74C135.298 158.487 135.498 159.327 135.498 160.26C135.498 161.193 135.298 162.033 134.898 162.78C134.498 163.527 133.945 164.12 133.238 164.56C132.545 164.987 131.765 165.2 130.898 165.2ZM125.898 168.98V155.5H127.698V158L127.358 160.3L127.698 162.62V168.98H125.898ZM130.598 163.5C131.198 163.5 131.725 163.36 132.178 163.08C132.631 162.8 132.991 162.42 133.258 161.94C133.525 161.447 133.658 160.88 133.658 160.24C133.658 159.613 133.525 159.053 133.258 158.56C132.991 158.067 132.631 157.687 132.178 157.42C131.725 157.14 131.205 157 130.618 157C130.018 157 129.491 157.14 129.038 157.42C128.585 157.687 128.231 158.067 127.978 158.56C127.725 159.053 127.598 159.62 127.598 160.26C127.598 160.887 127.718 161.447 127.958 161.94C128.211 162.42 128.565 162.8 129.018 163.08C129.485 163.36 130.011 163.5 130.598 163.5ZM143.159 165V151.52H144.959V165H143.159ZM140.819 157.14V155.5H147.299V157.14H140.819ZM153.109 165.2C152.176 165.2 151.336 164.98 150.589 164.54C149.843 164.1 149.249 163.507 148.809 162.76C148.369 162 148.149 161.153 148.149 160.22C148.149 159.3 148.369 158.473 148.809 157.74C149.249 156.993 149.843 156.4 150.589 155.96C151.336 155.52 152.176 155.3 153.109 155.3C154.029 155.3 154.863 155.52 155.609 155.96C156.369 156.387 156.969 156.973 157.409 157.72C157.849 158.467 158.069 159.3 158.069 160.22C158.069 161.153 157.849 162 157.409 162.76C156.969 163.507 156.369 164.1 155.609 164.54C154.863 164.98 154.029 165.2 153.109 165.2ZM153.109 163.46C153.709 163.46 154.243 163.32 154.709 163.04C155.176 162.76 155.543 162.38 155.809 161.9C156.076 161.407 156.209 160.847 156.209 160.22C156.209 159.607 156.069 159.06 155.789 158.58C155.523 158.1 155.156 157.727 154.689 157.46C154.236 157.18 153.709 157.04 153.109 157.04C152.509 157.04 151.976 157.18 151.509 157.46C151.043 157.727 150.676 158.1 150.409 158.58C150.143 159.06 150.009 159.607 150.009 160.22C150.009 160.847 150.143 161.407 150.409 161.9C150.676 162.38 151.043 162.76 151.509 163.04C151.976 163.32 152.509 163.46 153.109 163.46ZM168.658 165.2C167.711 165.2 166.858 164.987 166.098 164.56C165.338 164.12 164.738 163.527 164.298 162.78C163.858 162.033 163.638 161.187 163.638 160.24C163.638 159.307 163.851 158.467 164.278 157.72C164.718 156.973 165.304 156.387 166.038 155.96C166.784 155.52 167.618 155.3 168.538 155.3C169.418 155.3 170.191 155.5 170.858 155.9C171.538 156.3 172.064 156.853 172.438 157.56C172.824 158.267 173.018 159.067 173.018 159.96C173.018 160.093 173.011 160.24 172.998 160.4C172.984 160.547 172.958 160.72 172.918 160.92H164.898V159.42H171.958L171.298 160C171.298 159.36 171.184 158.82 170.958 158.38C170.731 157.927 170.411 157.58 169.998 157.34C169.584 157.087 169.084 156.96 168.498 156.96C167.884 156.96 167.344 157.093 166.878 157.36C166.411 157.627 166.051 158 165.798 158.48C165.544 158.96 165.418 159.527 165.418 160.18C165.418 160.847 165.551 161.433 165.818 161.94C166.084 162.433 166.464 162.82 166.958 163.1C167.451 163.367 168.018 163.5 168.658 163.5C169.191 163.5 169.678 163.407 170.118 163.22C170.571 163.033 170.958 162.753 171.278 162.38L172.438 163.56C171.984 164.093 171.424 164.5 170.758 164.78C170.104 165.06 169.404 165.2 168.658 165.2ZM181.7 165V159.46C181.7 158.74 181.473 158.147 181.02 157.68C180.567 157.213 179.98 156.98 179.26 156.98C178.78 156.98 178.353 157.087 177.98 157.3C177.607 157.513 177.313 157.807 177.1 158.18C176.887 158.553 176.78 158.98 176.78 159.46L176.04 159.04C176.04 158.32 176.2 157.68 176.52 157.12C176.84 156.56 177.287 156.12 177.86 155.8C178.433 155.467 179.08 155.3 179.8 155.3C180.52 155.3 181.153 155.48 181.7 155.84C182.26 156.2 182.7 156.673 183.02 157.26C183.34 157.833 183.5 158.447 183.5 159.1V165H181.7ZM174.98 165V155.5H176.78V165H174.98ZM188.957 165.2C188.424 165.2 187.917 165.133 187.437 165C186.971 164.853 186.537 164.653 186.137 164.4C185.737 164.133 185.391 163.82 185.097 163.46L186.257 162.3C186.604 162.727 187.004 163.047 187.457 163.26C187.911 163.46 188.417 163.56 188.977 163.56C189.537 163.56 189.971 163.467 190.277 163.28C190.584 163.08 190.737 162.807 190.737 162.46C190.737 162.113 190.611 161.847 190.357 161.66C190.117 161.46 189.804 161.3 189.417 161.18C189.031 161.047 188.617 160.92 188.177 160.8C187.751 160.667 187.344 160.5 186.957 160.3C186.571 160.1 186.251 159.827 185.997 159.48C185.757 159.133 185.637 158.673 185.637 158.1C185.637 157.527 185.777 157.033 186.057 156.62C186.337 156.193 186.724 155.867 187.217 155.64C187.724 155.413 188.331 155.3 189.037 155.3C189.784 155.3 190.444 155.433 191.017 155.7C191.604 155.953 192.084 156.34 192.457 156.86L191.297 158.02C191.031 157.673 190.697 157.407 190.297 157.22C189.911 157.033 189.471 156.94 188.977 156.94C188.457 156.94 188.057 157.033 187.777 157.22C187.511 157.393 187.377 157.64 187.377 157.96C187.377 158.28 187.497 158.527 187.737 158.7C187.977 158.873 188.291 159.02 188.677 159.14C189.077 159.26 189.491 159.387 189.917 159.52C190.344 159.64 190.751 159.807 191.137 160.02C191.524 160.233 191.837 160.52 192.077 160.88C192.331 161.24 192.457 161.713 192.457 162.3C192.457 163.193 192.137 163.9 191.497 164.42C190.871 164.94 190.024 165.2 188.957 165.2ZM198.312 165.2C197.526 165.2 196.819 165.027 196.192 164.68C195.579 164.32 195.099 163.827 194.752 163.2C194.406 162.573 194.232 161.847 194.232 161.02V155.5H196.032V160.94C196.032 161.46 196.119 161.913 196.292 162.3C196.479 162.673 196.746 162.96 197.092 163.16C197.439 163.36 197.846 163.46 198.312 163.46C199.019 163.46 199.572 163.24 199.972 162.8C200.372 162.347 200.572 161.727 200.572 160.94V155.5H202.372V161.02C202.372 161.847 202.199 162.573 201.852 163.2C201.506 163.827 201.026 164.32 200.412 164.68C199.812 165.027 199.112 165.2 198.312 165.2ZM204.785 165V155.5H206.585V165H204.785ZM206.585 159.58L205.905 159.28C205.905 158.067 206.185 157.1 206.745 156.38C207.305 155.66 208.112 155.3 209.165 155.3C209.645 155.3 210.078 155.387 210.465 155.56C210.852 155.72 211.212 155.993 211.545 156.38L210.365 157.6C210.165 157.387 209.945 157.233 209.705 157.14C209.465 157.047 209.185 157 208.865 157C208.198 157 207.652 157.213 207.225 157.64C206.798 158.067 206.585 158.713 206.585 159.58ZM216.9 165.2C215.953 165.2 215.1 164.987 214.34 164.56C213.58 164.12 212.98 163.527 212.54 162.78C212.1 162.033 211.88 161.187 211.88 160.24C211.88 159.307 212.093 158.467 212.52 157.72C212.96 156.973 213.546 156.387 214.28 155.96C215.026 155.52 215.86 155.3 216.78 155.3C217.66 155.3 218.433 155.5 219.1 155.9C219.78 156.3 220.306 156.853 220.68 157.56C221.066 158.267 221.26 159.067 221.26 159.96C221.26 160.093 221.253 160.24 221.24 160.4C221.226 160.547 221.2 160.72 221.16 160.92H213.14V159.42H220.2L219.54 160C219.54 159.36 219.426 158.82 219.2 158.38C218.973 157.927 218.653 157.58 218.24 157.34C217.826 157.087 217.326 156.96 216.74 156.96C216.126 156.96 215.586 157.093 215.12 157.36C214.653 157.627 214.293 158 214.04 158.48C213.786 158.96 213.66 159.527 213.66 160.18C213.66 160.847 213.793 161.433 214.06 161.94C214.326 162.433 214.706 162.82 215.2 163.1C215.693 163.367 216.26 163.5 216.9 163.5C217.433 163.5 217.92 163.407 218.36 163.22C218.813 163.033 219.2 162.753 219.52 162.38L220.68 163.56C220.226 164.093 219.666 164.5 219 164.78C218.346 165.06 217.646 165.2 216.9 165.2ZM230.503 165.08L226.383 155.5H228.383L231.443 163H230.803L234.023 155.5H236.023L231.583 165.08H230.503ZM227.783 168.98L230.583 163.24L231.583 165.08L229.783 168.98H227.783ZM241.469 165.2C240.535 165.2 239.695 164.98 238.949 164.54C238.202 164.1 237.609 163.507 237.169 162.76C236.729 162 236.509 161.153 236.509 160.22C236.509 159.3 236.729 158.473 237.169 157.74C237.609 156.993 238.202 156.4 238.949 155.96C239.695 155.52 240.535 155.3 241.469 155.3C242.389 155.3 243.222 155.52 243.969 155.96C244.729 156.387 245.329 156.973 245.769 157.72C246.209 158.467 246.429 159.3 246.429 160.22C246.429 161.153 246.209 162 245.769 162.76C245.329 163.507 244.729 164.1 243.969 164.54C243.222 164.98 242.389 165.2 241.469 165.2ZM241.469 163.46C242.069 163.46 242.602 163.32 243.069 163.04C243.535 162.76 243.902 162.38 244.169 161.9C244.435 161.407 244.569 160.847 244.569 160.22C244.569 159.607 244.429 159.06 244.149 158.58C243.882 158.1 243.515 157.727 243.049 157.46C242.595 157.18 242.069 157.04 241.469 157.04C240.869 157.04 240.335 157.18 239.869 157.46C239.402 157.727 239.035 158.1 238.769 158.58C238.502 159.06 238.369 159.607 238.369 160.22C238.369 160.847 238.502 161.407 238.769 161.9C239.035 162.38 239.402 162.76 239.869 163.04C240.335 163.32 240.869 163.46 241.469 163.46ZM252.297 165.2C251.51 165.2 250.803 165.027 250.177 164.68C249.563 164.32 249.083 163.827 248.737 163.2C248.39 162.573 248.217 161.847 248.217 161.02V155.5H250.017V160.94C250.017 161.46 250.103 161.913 250.277 162.3C250.463 162.673 250.73 162.96 251.077 163.16C251.423 163.36 251.83 163.46 252.297 163.46C253.003 163.46 253.557 163.24 253.957 162.8C254.357 162.347 254.557 161.727 254.557 160.94V155.5H256.357V161.02C256.357 161.847 256.183 162.573 255.837 163.2C255.49 163.827 255.01 164.32 254.397 164.68C253.797 165.027 253.097 165.2 252.297 165.2ZM266.969 165.2C266.103 165.2 265.316 164.987 264.609 164.56C263.903 164.12 263.343 163.527 262.929 162.78C262.529 162.033 262.329 161.193 262.329 160.26C262.329 159.327 262.529 158.487 262.929 157.74C263.343 156.993 263.896 156.4 264.589 155.96C265.296 155.52 266.089 155.3 266.969 155.3C267.689 155.3 268.329 155.453 268.889 155.76C269.463 156.053 269.923 156.467 270.269 157C270.616 157.52 270.809 158.127 270.849 158.82V161.68C270.809 162.36 270.616 162.967 270.269 163.5C269.936 164.033 269.483 164.453 268.909 164.76C268.349 165.053 267.703 165.2 266.969 165.2ZM267.269 163.5C268.163 163.5 268.883 163.2 269.429 162.6C269.976 161.987 270.249 161.207 270.249 160.26C270.249 159.607 270.123 159.04 269.869 158.56C269.629 158.067 269.283 157.687 268.829 157.42C268.376 157.14 267.849 157 267.249 157C266.649 157 266.116 157.14 265.649 157.42C265.196 157.7 264.836 158.087 264.569 158.58C264.316 159.06 264.189 159.613 264.189 160.24C264.189 160.88 264.316 161.447 264.569 161.94C264.836 162.42 265.203 162.8 265.669 163.08C266.136 163.36 266.669 163.5 267.269 163.5ZM270.129 165V162.44L270.469 160.12L270.129 157.82V155.5H271.949V165H270.129ZM274.57 165V155.5H276.37V165H274.57ZM276.37 159.58L275.69 159.28C275.69 158.067 275.97 157.1 276.53 156.38C277.09 155.66 277.897 155.3 278.95 155.3C279.43 155.3 279.863 155.387 280.25 155.56C280.637 155.72 280.997 155.993 281.33 156.38L280.15 157.6C279.95 157.387 279.73 157.233 279.49 157.14C279.25 157.047 278.97 157 278.65 157C277.983 157 277.437 157.213 277.01 157.64C276.583 158.067 276.37 158.713 276.37 159.58ZM286.685 165.2C285.738 165.2 284.885 164.987 284.125 164.56C283.365 164.12 282.765 163.527 282.325 162.78C281.885 162.033 281.665 161.187 281.665 160.24C281.665 159.307 281.878 158.467 282.305 157.72C282.745 156.973 283.332 156.387 284.065 155.96C284.812 155.52 285.645 155.3 286.565 155.3C287.445 155.3 288.218 155.5 288.885 155.9C289.565 156.3 290.092 156.853 290.465 157.56C290.852 158.267 291.045 159.067 291.045 159.96C291.045 160.093 291.038 160.24 291.025 160.4C291.012 160.547 290.985 160.72 290.945 160.92H282.925V159.42H289.985L289.325 160C289.325 159.36 289.212 158.82 288.985 158.38C288.758 157.927 288.438 157.58 288.025 157.34C287.612 157.087 287.112 156.96 286.525 156.96C285.912 156.96 285.372 157.093 284.905 157.36C284.438 157.627 284.078 158 283.825 158.48C283.572 158.96 283.445 159.527 283.445 160.18C283.445 160.847 283.578 161.433 283.845 161.94C284.112 162.433 284.492 162.82 284.985 163.1C285.478 163.367 286.045 163.5 286.685 163.5C287.218 163.5 287.705 163.407 288.145 163.22C288.598 163.033 288.985 162.753 289.305 162.38L290.465 163.56C290.012 164.093 289.452 164.5 288.785 164.78C288.132 165.06 287.432 165.2 286.685 165.2ZM297.168 165V155.5H298.968V165H297.168ZM298.968 159.58L298.288 159.28C298.288 158.067 298.568 157.1 299.128 156.38C299.688 155.66 300.494 155.3 301.548 155.3C302.028 155.3 302.461 155.387 302.848 155.56C303.234 155.72 303.594 155.993 303.928 156.38L302.748 157.6C302.548 157.387 302.328 157.233 302.088 157.14C301.848 157.047 301.568 157 301.248 157C300.581 157 300.034 157.213 299.608 157.64C299.181 158.067 298.968 158.713 298.968 159.58ZM309.283 165.2C308.336 165.2 307.483 164.987 306.723 164.56C305.963 164.12 305.363 163.527 304.923 162.78C304.483 162.033 304.263 161.187 304.263 160.24C304.263 159.307 304.476 158.467 304.903 157.72C305.343 156.973 305.929 156.387 306.663 155.96C307.409 155.52 308.243 155.3 309.163 155.3C310.043 155.3 310.816 155.5 311.483 155.9C312.163 156.3 312.689 156.853 313.063 157.56C313.449 158.267 313.643 159.067 313.643 159.96C313.643 160.093 313.636 160.24 313.623 160.4C313.609 160.547 313.583 160.72 313.543 160.92H305.523V159.42H312.583L311.923 160C311.923 159.36 311.809 158.82 311.583 158.38C311.356 157.927 311.036 157.58 310.623 157.34C310.209 157.087 309.709 156.96 309.123 156.96C308.509 156.96 307.969 157.093 307.503 157.36C307.036 157.627 306.676 158 306.423 158.48C306.169 158.96 306.043 159.527 306.043 160.18C306.043 160.847 306.176 161.433 306.443 161.94C306.709 162.433 307.089 162.82 307.583 163.1C308.076 163.367 308.643 163.5 309.283 163.5C309.816 163.5 310.303 163.407 310.743 163.22C311.196 163.033 311.583 162.753 311.903 162.38L313.063 163.56C312.609 164.093 312.049 164.5 311.383 164.78C310.729 165.06 310.029 165.2 309.283 165.2ZM319.645 165.2C318.778 165.2 317.992 164.987 317.285 164.56C316.578 164.12 316.018 163.527 315.605 162.78C315.205 162.033 315.005 161.193 315.005 160.26C315.005 159.327 315.205 158.487 315.605 157.74C316.018 156.993 316.572 156.4 317.265 155.96C317.972 155.52 318.765 155.3 319.645 155.3C320.365 155.3 321.005 155.453 321.565 155.76C322.138 156.053 322.598 156.467 322.945 157C323.292 157.52 323.485 158.127 323.525 158.82V161.68C323.485 162.36 323.292 162.967 322.945 163.5C322.612 164.033 322.158 164.453 321.585 164.76C321.025 165.053 320.378 165.2 319.645 165.2ZM319.945 163.5C320.838 163.5 321.558 163.2 322.105 162.6C322.652 161.987 322.925 161.207 322.925 160.26C322.925 159.607 322.798 159.04 322.545 158.56C322.305 158.067 321.958 157.687 321.505 157.42C321.052 157.14 320.525 157 319.925 157C319.325 157 318.792 157.14 318.325 157.42C317.872 157.7 317.512 158.087 317.245 158.58C316.992 159.06 316.865 159.613 316.865 160.24C316.865 160.88 316.992 161.447 317.245 161.94C317.512 162.42 317.878 162.8 318.345 163.08C318.812 163.36 319.345 163.5 319.945 163.5ZM322.805 165V162.44L323.145 160.12L322.805 157.82V155.5H324.625V165H322.805ZM331.266 165.2C330.386 165.2 329.599 164.987 328.906 164.56C328.212 164.12 327.659 163.527 327.246 162.78C326.846 162.033 326.646 161.193 326.646 160.26C326.646 159.327 326.846 158.487 327.246 157.74C327.659 156.993 328.212 156.4 328.906 155.96C329.599 155.52 330.386 155.3 331.266 155.3C331.972 155.3 332.612 155.453 333.186 155.76C333.759 156.053 334.219 156.467 334.566 157C334.926 157.52 335.126 158.127 335.166 158.82V161.68C335.126 162.36 334.932 162.967 334.586 163.5C334.239 164.033 333.779 164.453 333.206 164.76C332.632 165.053 331.986 165.2 331.266 165.2ZM331.566 163.5C332.166 163.5 332.686 163.36 333.126 163.08C333.579 162.8 333.932 162.42 334.186 161.94C334.439 161.447 334.566 160.887 334.566 160.26C334.566 159.607 334.432 159.04 334.166 158.56C333.912 158.08 333.559 157.7 333.106 157.42C332.666 157.14 332.146 157 331.546 157C330.946 157 330.419 157.14 329.966 157.42C329.512 157.7 329.152 158.087 328.886 158.58C328.632 159.06 328.506 159.613 328.506 160.24C328.506 160.88 328.632 161.447 328.886 161.94C329.152 162.42 329.512 162.8 329.966 163.08C330.432 163.36 330.966 163.5 331.566 163.5ZM336.266 165H334.446V162.44L334.786 160.12L334.446 157.82V150.72H336.266V165ZM342.006 165.08L337.886 155.5H339.886L342.946 163H342.306L345.526 155.5H347.526L343.086 165.08H342.006ZM339.286 168.98L342.086 163.24L343.086 165.08L341.286 168.98H339.286ZM354.78 165V151.52H356.58V165H354.78ZM352.44 157.14V155.5H358.92V157.14H352.44ZM364.73 165.2C363.797 165.2 362.957 164.98 362.21 164.54C361.464 164.1 360.87 163.507 360.43 162.76C359.99 162 359.77 161.153 359.77 160.22C359.77 159.3 359.99 158.473 360.43 157.74C360.87 156.993 361.464 156.4 362.21 155.96C362.957 155.52 363.797 155.3 364.73 155.3C365.65 155.3 366.484 155.52 367.23 155.96C367.99 156.387 368.59 156.973 369.03 157.72C369.47 158.467 369.69 159.3 369.69 160.22C369.69 161.153 369.47 162 369.03 162.76C368.59 163.507 367.99 164.1 367.23 164.54C366.484 164.98 365.65 165.2 364.73 165.2ZM364.73 163.46C365.33 163.46 365.864 163.32 366.33 163.04C366.797 162.76 367.164 162.38 367.43 161.9C367.697 161.407 367.83 160.847 367.83 160.22C367.83 159.607 367.69 159.06 367.41 158.58C367.144 158.1 366.777 157.727 366.31 157.46C365.857 157.18 365.33 157.04 364.73 157.04C364.13 157.04 363.597 157.18 363.13 157.46C362.664 157.727 362.297 158.1 362.03 158.58C361.764 159.06 361.63 159.607 361.63 160.22C361.63 160.847 361.764 161.407 362.03 161.9C362.297 162.38 362.664 162.76 363.13 163.04C363.597 163.32 364.13 163.46 364.73 163.46ZM67.34 195.2C66.46 195.2 65.6733 194.987 64.98 194.56C64.2867 194.12 63.7333 193.527 63.32 192.78C62.92 192.033 62.72 191.193 62.72 190.26C62.72 189.327 62.92 188.487 63.32 187.74C63.7333 186.993 64.2867 186.4 64.98 185.96C65.6733 185.52 66.46 185.3 67.34 185.3C68.0467 185.3 68.6867 185.453 69.26 185.76C69.8333 186.053 70.2933 186.467 70.64 187C71 187.52 71.2 188.127 71.24 188.82V191.68C71.2 192.36 71.0067 192.967 70.66 193.5C70.3133 194.033 69.8533 194.453 69.28 194.76C68.7067 195.053 68.06 195.2 67.34 195.2ZM67.64 193.5C68.24 193.5 68.76 193.36 69.2 193.08C69.6533 192.8 70.0067 192.42 70.26 191.94C70.5133 191.447 70.64 190.887 70.64 190.26C70.64 189.607 70.5067 189.04 70.24 188.56C69.9867 188.08 69.6333 187.7 69.18 187.42C68.74 187.14 68.22 187 67.62 187C67.02 187 66.4933 187.14 66.04 187.42C65.5867 187.7 65.2267 188.087 64.96 188.58C64.7067 189.06 64.58 189.613 64.58 190.24C64.58 190.88 64.7067 191.447 64.96 191.94C65.2267 192.42 65.5867 192.8 66.04 193.08C66.5067 193.36 67.04 193.5 67.64 193.5ZM72.34 195H70.52V192.44L70.86 190.12L70.52 187.82V180.72H72.34V195ZM79.3606 195.2C78.414 195.2 77.5606 194.987 76.8006 194.56C76.0406 194.12 75.4406 193.527 75.0006 192.78C74.5606 192.033 74.3406 191.187 74.3406 190.24C74.3406 189.307 74.554 188.467 74.9806 187.72C75.4206 186.973 76.0073 186.387 76.7406 185.96C77.4873 185.52 78.3206 185.3 79.2406 185.3C80.1206 185.3 80.894 185.5 81.5606 185.9C82.2406 186.3 82.7673 186.853 83.1406 187.56C83.5273 188.267 83.7206 189.067 83.7206 189.96C83.7206 190.093 83.714 190.24 83.7006 190.4C83.6873 190.547 83.6606 190.72 83.6206 190.92H75.6006V189.42H82.6606L82.0006 190C82.0006 189.36 81.8873 188.82 81.6606 188.38C81.434 187.927 81.114 187.58 80.7006 187.34C80.2873 187.087 79.7873 186.96 79.2006 186.96C78.5873 186.96 78.0473 187.093 77.5806 187.36C77.114 187.627 76.754 188 76.5006 188.48C76.2473 188.96 76.1206 189.527 76.1206 190.18C76.1206 190.847 76.254 191.433 76.5206 191.94C76.7873 192.433 77.1673 192.82 77.6606 193.1C78.154 193.367 78.7206 193.5 79.3606 193.5C79.894 193.5 80.3806 193.407 80.8206 193.22C81.274 193.033 81.6606 192.753 81.9806 192.38L83.1406 193.56C82.6873 194.093 82.1273 194.5 81.4606 194.78C80.8073 195.06 80.1073 195.2 79.3606 195.2ZM90.6833 195.2C89.9633 195.2 89.3099 195.053 88.7233 194.76C88.1499 194.453 87.6899 194.033 87.3433 193.5C86.9966 192.967 86.8033 192.36 86.7633 191.68V188.82C86.8033 188.127 86.9966 187.52 87.3433 187C87.7033 186.467 88.1699 186.053 88.7433 185.76C89.3299 185.453 89.9766 185.3 90.6833 185.3C91.5499 185.3 92.3299 185.52 93.0233 185.96C93.7299 186.4 94.2833 186.993 94.6833 187.74C95.0833 188.487 95.2833 189.327 95.2833 190.26C95.2833 191.193 95.0833 192.033 94.6833 192.78C94.2833 193.527 93.7299 194.12 93.0233 194.56C92.3299 194.987 91.5499 195.2 90.6833 195.2ZM85.6833 198.98V185.5H87.4833V188L87.1433 190.3L87.4833 192.62V198.98H85.6833ZM90.3833 193.5C90.9833 193.5 91.5099 193.36 91.9633 193.08C92.4166 192.8 92.7766 192.42 93.0433 191.94C93.3099 191.447 93.4433 190.88 93.4433 190.24C93.4433 189.613 93.3099 189.053 93.0433 188.56C92.7766 188.067 92.4166 187.687 91.9633 187.42C91.5099 187.14 90.9899 187 90.4033 187C89.8033 187 89.2766 187.14 88.8233 187.42C88.3699 187.687 88.0166 188.067 87.7633 188.56C87.5099 189.053 87.3833 189.62 87.3833 190.26C87.3833 190.887 87.5033 191.447 87.7433 191.94C87.9966 192.42 88.3499 192.8 88.8033 193.08C89.2699 193.36 89.7966 193.5 90.3833 193.5ZM97.3239 195V180.72H99.1239V195H97.3239ZM106.098 195.2C105.164 195.2 104.324 194.98 103.578 194.54C102.831 194.1 102.238 193.507 101.798 192.76C101.358 192 101.138 191.153 101.138 190.22C101.138 189.3 101.358 188.473 101.798 187.74C102.238 186.993 102.831 186.4 103.578 185.96C104.324 185.52 105.164 185.3 106.098 185.3C107.018 185.3 107.851 185.52 108.598 185.96C109.358 186.387 109.958 186.973 110.398 187.72C110.838 188.467 111.058 189.3 111.058 190.22C111.058 191.153 110.838 192 110.398 192.76C109.958 193.507 109.358 194.1 108.598 194.54C107.851 194.98 107.018 195.2 106.098 195.2ZM106.098 193.46C106.698 193.46 107.231 193.32 107.698 193.04C108.164 192.76 108.531 192.38 108.798 191.9C109.064 191.407 109.198 190.847 109.198 190.22C109.198 189.607 109.058 189.06 108.778 188.58C108.511 188.1 108.144 187.727 107.678 187.46C107.224 187.18 106.698 187.04 106.098 187.04C105.498 187.04 104.964 187.18 104.498 187.46C104.031 187.727 103.664 188.1 103.398 188.58C103.131 189.06 102.998 189.607 102.998 190.22C102.998 190.847 103.131 191.407 103.398 191.9C103.664 192.38 104.031 192.76 104.498 193.04C104.964 193.32 105.498 193.46 106.098 193.46ZM115.854 195.08L111.734 185.5H113.734L116.794 193H116.154L119.374 185.5H121.374L116.934 195.08H115.854ZM113.134 198.98L115.934 193.24L116.934 195.08L115.134 198.98H113.134ZM127.188 195V185.5H128.988V195H127.188ZM128.088 183.6C127.754 183.6 127.481 183.493 127.268 183.28C127.054 183.053 126.948 182.773 126.948 182.44C126.948 182.12 127.054 181.853 127.268 181.64C127.481 181.413 127.754 181.3 128.088 181.3C128.421 181.3 128.694 181.413 128.908 181.64C129.121 181.853 129.228 182.12 129.228 182.44C129.228 182.773 129.121 183.053 128.908 183.28C128.694 183.493 128.421 183.6 128.088 183.6ZM138.36 195V189.46C138.36 188.74 138.134 188.147 137.68 187.68C137.227 187.213 136.64 186.98 135.92 186.98C135.44 186.98 135.014 187.087 134.64 187.3C134.267 187.513 133.974 187.807 133.76 188.18C133.547 188.553 133.44 188.98 133.44 189.46L132.7 189.04C132.7 188.32 132.86 187.68 133.18 187.12C133.5 186.56 133.947 186.12 134.52 185.8C135.094 185.467 135.74 185.3 136.46 185.3C137.18 185.3 137.814 185.48 138.36 185.84C138.92 186.2 139.36 186.673 139.68 187.26C140 187.833 140.16 188.447 140.16 189.1V195H138.36ZM131.64 195V185.5H133.44V195H131.64ZM149.778 195.2C149.244 195.2 148.738 195.133 148.258 195C147.791 194.853 147.358 194.653 146.958 194.4C146.558 194.133 146.211 193.82 145.918 193.46L147.078 192.3C147.424 192.727 147.824 193.047 148.278 193.26C148.731 193.46 149.238 193.56 149.798 193.56C150.358 193.56 150.791 193.467 151.098 193.28C151.404 193.08 151.558 192.807 151.558 192.46C151.558 192.113 151.431 191.847 151.178 191.66C150.938 191.46 150.624 191.3 150.238 191.18C149.851 191.047 149.438 190.92 148.998 190.8C148.571 190.667 148.164 190.5 147.778 190.3C147.391 190.1 147.071 189.827 146.818 189.48C146.578 189.133 146.458 188.673 146.458 188.1C146.458 187.527 146.598 187.033 146.878 186.62C147.158 186.193 147.544 185.867 148.038 185.64C148.544 185.413 149.151 185.3 149.858 185.3C150.604 185.3 151.264 185.433 151.838 185.7C152.424 185.953 152.904 186.34 153.278 186.86L152.118 188.02C151.851 187.673 151.518 187.407 151.118 187.22C150.731 187.033 150.291 186.94 149.798 186.94C149.278 186.94 148.878 187.033 148.598 187.22C148.331 187.393 148.198 187.64 148.198 187.96C148.198 188.28 148.318 188.527 148.558 188.7C148.798 188.873 149.111 189.02 149.498 189.14C149.898 189.26 150.311 189.387 150.738 189.52C151.164 189.64 151.571 189.807 151.958 190.02C152.344 190.233 152.658 190.52 152.898 190.88C153.151 191.24 153.278 191.713 153.278 192.3C153.278 193.193 152.958 193.9 152.318 194.42C151.691 194.94 150.844 195.2 149.778 195.2ZM155.293 195V185.5H157.093V195H155.293ZM161.713 195V189.26C161.713 188.553 161.493 188 161.053 187.6C160.626 187.187 160.086 186.98 159.433 186.98C158.993 186.98 158.599 187.073 158.253 187.26C157.906 187.447 157.626 187.707 157.413 188.04C157.199 188.373 157.093 188.773 157.093 189.24L156.353 188.88C156.353 188.16 156.506 187.533 156.813 187C157.133 186.467 157.566 186.053 158.113 185.76C158.659 185.453 159.273 185.3 159.953 185.3C160.619 185.3 161.219 185.447 161.753 185.74C162.299 186.033 162.726 186.447 163.033 186.98C163.353 187.513 163.513 188.147 163.513 188.88V195H161.713ZM168.133 195V189.26C168.133 188.553 167.913 188 167.473 187.6C167.046 187.187 166.513 186.98 165.873 186.98C165.433 186.98 165.033 187.073 164.673 187.26C164.326 187.447 164.046 187.707 163.833 188.04C163.619 188.373 163.513 188.773 163.513 189.24L162.493 188.88C162.533 188.147 162.726 187.52 163.073 187C163.433 186.467 163.893 186.053 164.453 185.76C165.013 185.453 165.626 185.3 166.293 185.3C166.986 185.3 167.606 185.447 168.153 185.74C168.699 186.033 169.133 186.447 169.453 186.98C169.786 187.513 169.953 188.153 169.953 188.9V195H168.133ZM176.442 195.2C175.575 195.2 174.789 194.987 174.082 194.56C173.375 194.12 172.815 193.527 172.402 192.78C172.002 192.033 171.802 191.193 171.802 190.26C171.802 189.327 172.002 188.487 172.402 187.74C172.815 186.993 173.369 186.4 174.062 185.96C174.769 185.52 175.562 185.3 176.442 185.3C177.162 185.3 177.802 185.453 178.362 185.76C178.935 186.053 179.395 186.467 179.742 187C180.089 187.52 180.282 188.127 180.322 188.82V191.68C180.282 192.36 180.089 192.967 179.742 193.5C179.409 194.033 178.955 194.453 178.382 194.76C177.822 195.053 177.175 195.2 176.442 195.2ZM176.742 193.5C177.635 193.5 178.355 193.2 178.902 192.6C179.449 191.987 179.722 191.207 179.722 190.26C179.722 189.607 179.595 189.04 179.342 188.56C179.102 188.067 178.755 187.687 178.302 187.42C177.849 187.14 177.322 187 176.722 187C176.122 187 175.589 187.14 175.122 187.42C174.669 187.7 174.309 188.087 174.042 188.58C173.789 189.06 173.662 189.613 173.662 190.24C173.662 190.88 173.789 191.447 174.042 191.94C174.309 192.42 174.675 192.8 175.142 193.08C175.609 193.36 176.142 193.5 176.742 193.5ZM179.602 195V192.44L179.942 190.12L179.602 187.82V185.5H181.422V195H179.602ZM184.043 195V180.72H185.843V195H184.043ZM188.476 195V180.72H190.276V195H188.476ZM198.53 195V181.52H200.33V195H198.53ZM196.19 187.14V185.5H202.67V187.14H196.19ZM208.54 195.2C207.594 195.2 206.74 194.987 205.98 194.56C205.22 194.12 204.62 193.527 204.18 192.78C203.74 192.033 203.52 191.187 203.52 190.24C203.52 189.307 203.734 188.467 204.16 187.72C204.6 186.973 205.187 186.387 205.92 185.96C206.667 185.52 207.5 185.3 208.42 185.3C209.3 185.3 210.074 185.5 210.74 185.9C211.42 186.3 211.947 186.853 212.32 187.56C212.707 188.267 212.9 189.067 212.9 189.96C212.9 190.093 212.894 190.24 212.88 190.4C212.867 190.547 212.84 190.72 212.8 190.92H204.78V189.42H211.84L211.18 190C211.18 189.36 211.067 188.82 210.84 188.38C210.614 187.927 210.294 187.58 209.88 187.34C209.467 187.087 208.967 186.96 208.38 186.96C207.767 186.96 207.227 187.093 206.76 187.36C206.294 187.627 205.934 188 205.68 188.48C205.427 188.96 205.3 189.527 205.3 190.18C205.3 190.847 205.434 191.433 205.7 191.94C205.967 192.433 206.347 192.82 206.84 193.1C207.334 193.367 207.9 193.5 208.54 193.5C209.074 193.5 209.56 193.407 210 193.22C210.454 193.033 210.84 192.753 211.16 192.38L212.32 193.56C211.867 194.093 211.307 194.5 210.64 194.78C209.987 195.06 209.287 195.2 208.54 195.2ZM218.903 195.2C218.036 195.2 217.25 194.987 216.543 194.56C215.836 194.12 215.276 193.527 214.863 192.78C214.463 192.033 214.263 191.193 214.263 190.26C214.263 189.327 214.463 188.487 214.863 187.74C215.276 186.993 215.83 186.4 216.523 185.96C217.23 185.52 218.023 185.3 218.903 185.3C219.623 185.3 220.263 185.453 220.823 185.76C221.396 186.053 221.856 186.467 222.203 187C222.55 187.52 222.743 188.127 222.783 188.82V191.68C222.743 192.36 222.55 192.967 222.203 193.5C221.87 194.033 221.416 194.453 220.843 194.76C220.283 195.053 219.636 195.2 218.903 195.2ZM219.203 193.5C220.096 193.5 220.816 193.2 221.363 192.6C221.91 191.987 222.183 191.207 222.183 190.26C222.183 189.607 222.056 189.04 221.803 188.56C221.563 188.067 221.216 187.687 220.763 187.42C220.31 187.14 219.783 187 219.183 187C218.583 187 218.05 187.14 217.583 187.42C217.13 187.7 216.77 188.087 216.503 188.58C216.25 189.06 216.123 189.613 216.123 190.24C216.123 190.88 216.25 191.447 216.503 191.94C216.77 192.42 217.136 192.8 217.603 193.08C218.07 193.36 218.603 193.5 219.203 193.5ZM222.063 195V192.44L222.403 190.12L222.063 187.82V185.5H223.883V195H222.063ZM226.504 195V185.5H228.304V195H226.504ZM232.924 195V189.26C232.924 188.553 232.704 188 232.264 187.6C231.837 187.187 231.297 186.98 230.644 186.98C230.204 186.98 229.81 187.073 229.464 187.26C229.117 187.447 228.837 187.707 228.624 188.04C228.41 188.373 228.304 188.773 228.304 189.24L227.564 188.88C227.564 188.16 227.717 187.533 228.024 187C228.344 186.467 228.777 186.053 229.324 185.76C229.87 185.453 230.484 185.3 231.164 185.3C231.83 185.3 232.43 185.447 232.964 185.74C233.51 186.033 233.937 186.447 234.244 186.98C234.564 187.513 234.724 188.147 234.724 188.88V195H232.924ZM239.344 195V189.26C239.344 188.553 239.124 188 238.684 187.6C238.257 187.187 237.724 186.98 237.084 186.98C236.644 186.98 236.244 187.073 235.884 187.26C235.537 187.447 235.257 187.707 235.044 188.04C234.83 188.373 234.724 188.773 234.724 189.24L233.704 188.88C233.744 188.147 233.937 187.52 234.284 187C234.644 186.467 235.104 186.053 235.664 185.76C236.224 185.453 236.837 185.3 237.504 185.3C238.197 185.3 238.817 185.447 239.364 185.74C239.91 186.033 240.344 186.447 240.664 186.98C240.997 187.513 241.164 188.153 241.164 188.9V195H239.344ZM246.633 195.2C246.1 195.2 245.593 195.133 245.113 195C244.646 194.853 244.213 194.653 243.813 194.4C243.413 194.133 243.066 193.82 242.773 193.46L243.933 192.3C244.28 192.727 244.68 193.047 245.133 193.26C245.586 193.46 246.093 193.56 246.653 193.56C247.213 193.56 247.646 193.467 247.953 193.28C248.26 193.08 248.413 192.807 248.413 192.46C248.413 192.113 248.286 191.847 248.033 191.66C247.793 191.46 247.48 191.3 247.093 191.18C246.706 191.047 246.293 190.92 245.853 190.8C245.426 190.667 245.02 190.5 244.633 190.3C244.246 190.1 243.926 189.827 243.673 189.48C243.433 189.133 243.313 188.673 243.313 188.1C243.313 187.527 243.453 187.033 243.733 186.62C244.013 186.193 244.4 185.867 244.893 185.64C245.4 185.413 246.006 185.3 246.713 185.3C247.46 185.3 248.12 185.433 248.693 185.7C249.28 185.953 249.76 186.34 250.133 186.86L248.973 188.02C248.706 187.673 248.373 187.407 247.973 187.22C247.586 187.033 247.146 186.94 246.653 186.94C246.133 186.94 245.733 187.033 245.453 187.22C245.186 187.393 245.053 187.64 245.053 187.96C245.053 188.28 245.173 188.527 245.413 188.7C245.653 188.873 245.966 189.02 246.353 189.14C246.753 189.26 247.166 189.387 247.593 189.52C248.02 189.64 248.426 189.807 248.813 190.02C249.2 190.233 249.513 190.52 249.753 190.88C250.006 191.24 250.133 191.713 250.133 192.3C250.133 193.193 249.813 193.9 249.173 194.42C248.546 194.94 247.7 195.2 246.633 195.2ZM252.248 197.2L253.488 194.82L254.128 194.66C254.061 194.807 253.975 194.927 253.868 195.02C253.775 195.113 253.655 195.16 253.508 195.16C253.228 195.16 252.968 195.047 252.728 194.82C252.501 194.58 252.388 194.287 252.388 193.94C252.388 193.553 252.515 193.233 252.768 192.98C253.021 192.713 253.341 192.58 253.728 192.58C254.075 192.58 254.381 192.713 254.648 192.98C254.915 193.233 255.048 193.553 255.048 193.94C255.048 194.087 255.015 194.267 254.948 194.48C254.895 194.68 254.781 194.94 254.608 195.26L253.288 197.76L252.248 197.2ZM266.156 195.2C265.223 195.2 264.383 194.98 263.636 194.54C262.889 194.1 262.296 193.507 261.856 192.76C261.416 192 261.196 191.153 261.196 190.22C261.196 189.3 261.416 188.473 261.856 187.74C262.296 186.993 262.889 186.4 263.636 185.96C264.383 185.52 265.223 185.3 266.156 185.3C267.076 185.3 267.909 185.52 268.656 185.96C269.416 186.387 270.016 186.973 270.456 187.72C270.896 188.467 271.116 189.3 271.116 190.22C271.116 191.153 270.896 192 270.456 192.76C270.016 193.507 269.416 194.1 268.656 194.54C267.909 194.98 267.076 195.2 266.156 195.2ZM266.156 193.46C266.756 193.46 267.289 193.32 267.756 193.04C268.223 192.76 268.589 192.38 268.856 191.9C269.123 191.407 269.256 190.847 269.256 190.22C269.256 189.607 269.116 189.06 268.836 188.58C268.569 188.1 268.203 187.727 267.736 187.46C267.283 187.18 266.756 187.04 266.156 187.04C265.556 187.04 265.023 187.18 264.556 187.46C264.089 187.727 263.723 188.1 263.456 188.58C263.189 189.06 263.056 189.607 263.056 190.22C263.056 190.847 263.189 191.407 263.456 191.9C263.723 192.38 264.089 192.76 264.556 193.04C265.023 193.32 265.556 193.46 266.156 193.46ZM273.144 195V185.5H274.944V195H273.144ZM274.944 189.58L274.264 189.28C274.264 188.067 274.544 187.1 275.104 186.38C275.664 185.66 276.471 185.3 277.524 185.3C278.004 185.3 278.438 185.387 278.824 185.56C279.211 185.72 279.571 185.993 279.904 186.38L278.724 187.6C278.524 187.387 278.304 187.233 278.064 187.14C277.824 187.047 277.544 187 277.224 187C276.558 187 276.011 187.213 275.584 187.64C275.158 188.067 274.944 188.713 274.944 189.58ZM289.723 195.2C288.857 195.2 288.07 194.987 287.363 194.56C286.657 194.12 286.097 193.527 285.683 192.78C285.283 192.033 285.083 191.193 285.083 190.26C285.083 189.327 285.283 188.487 285.683 187.74C286.097 186.993 286.65 186.4 287.343 185.96C288.05 185.52 288.843 185.3 289.723 185.3C290.443 185.3 291.083 185.453 291.643 185.76C292.217 186.053 292.677 186.467 293.023 187C293.37 187.52 293.563 188.127 293.603 188.82V191.68C293.563 192.36 293.37 192.967 293.023 193.5C292.69 194.033 292.237 194.453 291.663 194.76C291.103 195.053 290.457 195.2 289.723 195.2ZM290.023 193.5C290.917 193.5 291.637 193.2 292.183 192.6C292.73 191.987 293.003 191.207 293.003 190.26C293.003 189.607 292.877 189.04 292.623 188.56C292.383 188.067 292.037 187.687 291.583 187.42C291.13 187.14 290.603 187 290.003 187C289.403 187 288.87 187.14 288.403 187.42C287.95 187.7 287.59 188.087 287.323 188.58C287.07 189.06 286.943 189.613 286.943 190.24C286.943 190.88 287.07 191.447 287.323 191.94C287.59 192.42 287.957 192.8 288.423 193.08C288.89 193.36 289.423 193.5 290.023 193.5ZM292.883 195V192.44L293.223 190.12L292.883 187.82V185.5H294.703V195H292.883ZM301.664 195.2C300.731 195.2 299.884 194.98 299.124 194.54C298.377 194.1 297.784 193.507 297.344 192.76C296.917 192 296.704 191.16 296.704 190.24C296.704 189.307 296.917 188.467 297.344 187.72C297.784 186.973 298.377 186.387 299.124 185.96C299.884 185.52 300.731 185.3 301.664 185.3C302.397 185.3 303.077 185.44 303.704 185.72C304.331 185.987 304.871 186.38 305.324 186.9L304.124 188.1C303.831 187.753 303.471 187.493 303.044 187.32C302.631 187.133 302.171 187.04 301.664 187.04C301.064 187.04 300.531 187.18 300.064 187.46C299.597 187.727 299.231 188.1 298.964 188.58C298.697 189.06 298.564 189.613 298.564 190.24C298.564 190.867 298.697 191.42 298.964 191.9C299.231 192.38 299.597 192.76 300.064 193.04C300.531 193.32 301.064 193.46 301.664 193.46C302.171 193.46 302.631 193.373 303.044 193.2C303.471 193.013 303.837 192.747 304.144 192.4L305.324 193.6C304.884 194.107 304.344 194.5 303.704 194.78C303.077 195.06 302.397 195.2 301.664 195.2ZM307.109 195V185.5H308.909V195H307.109ZM308.909 189.58L308.229 189.28C308.229 188.067 308.509 187.1 309.069 186.38C309.629 185.66 310.436 185.3 311.489 185.3C311.969 185.3 312.402 185.387 312.789 185.56C313.176 185.72 313.536 185.993 313.869 186.38L312.689 187.6C312.489 187.387 312.269 187.233 312.029 187.14C311.789 187.047 311.509 187 311.189 187C310.522 187 309.976 187.213 309.549 187.64C309.122 188.067 308.909 188.713 308.909 189.58ZM319.164 195.2C318.231 195.2 317.391 194.98 316.644 194.54C315.897 194.1 315.304 193.507 314.864 192.76C314.424 192 314.204 191.153 314.204 190.22C314.204 189.3 314.424 188.473 314.864 187.74C315.304 186.993 315.897 186.4 316.644 185.96C317.391 185.52 318.231 185.3 319.164 185.3C320.084 185.3 320.917 185.52 321.664 185.96C322.424 186.387 323.024 186.973 323.464 187.72C323.904 188.467 324.124 189.3 324.124 190.22C324.124 191.153 323.904 192 323.464 192.76C323.024 193.507 322.424 194.1 321.664 194.54C320.917 194.98 320.084 195.2 319.164 195.2ZM319.164 193.46C319.764 193.46 320.297 193.32 320.764 193.04C321.231 192.76 321.597 192.38 321.864 191.9C322.131 191.407 322.264 190.847 322.264 190.22C322.264 189.607 322.124 189.06 321.844 188.58C321.577 188.1 321.211 187.727 320.744 187.46C320.291 187.18 319.764 187.04 319.164 187.04C318.564 187.04 318.031 187.18 317.564 187.46C317.097 187.727 316.731 188.1 316.464 188.58C316.197 189.06 316.064 189.607 316.064 190.22C316.064 190.847 316.197 191.407 316.464 191.9C316.731 192.38 317.097 192.76 317.564 193.04C318.031 193.32 318.564 193.46 319.164 193.46ZM329.172 195.2C328.639 195.2 328.132 195.133 327.652 195C327.185 194.853 326.752 194.653 326.352 194.4C325.952 194.133 325.605 193.82 325.312 193.46L326.472 192.3C326.819 192.727 327.219 193.047 327.672 193.26C328.125 193.46 328.632 193.56 329.192 193.56C329.752 193.56 330.185 193.467 330.492 193.28C330.799 193.08 330.952 192.807 330.952 192.46C330.952 192.113 330.825 191.847 330.572 191.66C330.332 191.46 330.019 191.3 329.632 191.18C329.245 191.047 328.832 190.92 328.392 190.8C327.965 190.667 327.559 190.5 327.172 190.3C326.785 190.1 326.465 189.827 326.212 189.48C325.972 189.133 325.852 188.673 325.852 188.1C325.852 187.527 325.992 187.033 326.272 186.62C326.552 186.193 326.939 185.867 327.432 185.64C327.939 185.413 328.545 185.3 329.252 185.3C329.999 185.3 330.659 185.433 331.232 185.7C331.819 185.953 332.299 186.34 332.672 186.86L331.512 188.02C331.245 187.673 330.912 187.407 330.512 187.22C330.125 187.033 329.685 186.94 329.192 186.94C328.672 186.94 328.272 187.033 327.992 187.22C327.725 187.393 327.592 187.64 327.592 187.96C327.592 188.28 327.712 188.527 327.952 188.7C328.192 188.873 328.505 189.02 328.892 189.14C329.292 189.26 329.705 189.387 330.132 189.52C330.559 189.64 330.965 189.807 331.352 190.02C331.739 190.233 332.052 190.52 332.292 190.88C332.545 191.24 332.672 191.713 332.672 192.3C332.672 193.193 332.352 193.9 331.712 194.42C331.085 194.94 330.239 195.2 329.172 195.2ZM337.707 195.2C337.174 195.2 336.667 195.133 336.187 195C335.721 194.853 335.287 194.653 334.887 194.4C334.487 194.133 334.141 193.82 333.847 193.46L335.007 192.3C335.354 192.727 335.754 193.047 336.207 193.26C336.661 193.46 337.167 193.56 337.727 193.56C338.287 193.56 338.721 193.467 339.027 193.28C339.334 193.08 339.487 192.807 339.487 192.46C339.487 192.113 339.361 191.847 339.107 191.66C338.867 191.46 338.554 191.3 338.167 191.18C337.781 191.047 337.367 190.92 336.927 190.8C336.501 190.667 336.094 190.5 335.707 190.3C335.321 190.1 335.001 189.827 334.747 189.48C334.507 189.133 334.387 188.673 334.387 188.1C334.387 187.527 334.527 187.033 334.807 186.62C335.087 186.193 335.474 185.867 335.967 185.64C336.474 185.413 337.081 185.3 337.787 185.3C338.534 185.3 339.194 185.433 339.767 185.7C340.354 185.953 340.834 186.34 341.207 186.86L340.047 188.02C339.781 187.673 339.447 187.407 339.047 187.22C338.661 187.033 338.221 186.94 337.727 186.94C337.207 186.94 336.807 187.033 336.527 187.22C336.261 187.393 336.127 187.64 336.127 187.96C336.127 188.28 336.247 188.527 336.487 188.7C336.727 188.873 337.041 189.02 337.427 189.14C337.827 189.26 338.241 189.387 338.667 189.52C339.094 189.64 339.501 189.807 339.887 190.02C340.274 190.233 340.587 190.52 340.827 190.88C341.081 191.24 341.207 191.713 341.207 192.3C341.207 193.193 340.887 193.9 340.247 194.42C339.621 194.94 338.774 195.2 337.707 195.2ZM348.843 195V181.52H350.643V195H348.843ZM346.503 187.14V185.5H352.983V187.14H346.503ZM361.466 195V189.46C361.466 188.74 361.239 188.147 360.786 187.68C360.332 187.213 359.746 186.98 359.026 186.98C358.546 186.98 358.119 187.087 357.746 187.3C357.372 187.513 357.079 187.807 356.866 188.18C356.652 188.553 356.546 188.98 356.546 189.46L355.806 189.04C355.806 188.32 355.966 187.68 356.286 187.12C356.606 186.56 357.052 186.12 357.626 185.8C358.199 185.467 358.846 185.3 359.566 185.3C360.286 185.3 360.919 185.46 361.466 185.78C362.026 186.1 362.466 186.547 362.786 187.12C363.106 187.693 363.266 188.353 363.266 189.1V195H361.466ZM354.746 195V180.72H356.546V195H354.746ZM370.103 195.2C369.156 195.2 368.303 194.987 367.543 194.56C366.783 194.12 366.183 193.527 365.743 192.78C365.303 192.033 365.083 191.187 365.083 190.24C365.083 189.307 365.296 188.467 365.723 187.72C366.163 186.973 366.749 186.387 367.483 185.96C368.229 185.52 369.063 185.3 369.983 185.3C370.863 185.3 371.636 185.5 372.303 185.9C372.983 186.3 373.509 186.853 373.883 187.56C374.269 188.267 374.463 189.067 374.463 189.96C374.463 190.093 374.456 190.24 374.443 190.4C374.429 190.547 374.403 190.72 374.363 190.92H366.343V189.42H373.403L372.743 190C372.743 189.36 372.629 188.82 372.403 188.38C372.176 187.927 371.856 187.58 371.443 187.34C371.029 187.087 370.529 186.96 369.943 186.96C369.329 186.96 368.789 187.093 368.323 187.36C367.856 187.627 367.496 188 367.243 188.48C366.989 188.96 366.863 189.527 366.863 190.18C366.863 190.847 366.996 191.433 367.263 191.94C367.529 192.433 367.909 192.82 368.403 193.1C368.896 193.367 369.463 193.5 370.103 193.5C370.636 193.5 371.123 193.407 371.563 193.22C372.016 193.033 372.403 192.753 372.723 192.38L373.883 193.56C373.429 194.093 372.869 194.5 372.203 194.78C371.549 195.06 370.849 195.2 370.103 195.2ZM384.926 195.2C383.992 195.2 383.152 194.98 382.406 194.54C381.659 194.1 381.066 193.507 380.626 192.76C380.186 192 379.966 191.153 379.966 190.22C379.966 189.3 380.186 188.473 380.626 187.74C381.066 186.993 381.659 186.4 382.406 185.96C383.152 185.52 383.992 185.3 384.926 185.3C385.846 185.3 386.679 185.52 387.426 185.96C388.186 186.387 388.786 186.973 389.226 187.72C389.666 188.467 389.886 189.3 389.886 190.22C389.886 191.153 389.666 192 389.226 192.76C388.786 193.507 388.186 194.1 387.426 194.54C386.679 194.98 385.846 195.2 384.926 195.2ZM384.926 193.46C385.526 193.46 386.059 193.32 386.526 193.04C386.992 192.76 387.359 192.38 387.626 191.9C387.892 191.407 388.026 190.847 388.026 190.22C388.026 189.607 387.886 189.06 387.606 188.58C387.339 188.1 386.972 187.727 386.506 187.46C386.052 187.18 385.526 187.04 384.926 187.04C384.326 187.04 383.792 187.18 383.326 187.46C382.859 187.727 382.492 188.1 382.226 188.58C381.959 189.06 381.826 189.607 381.826 190.22C381.826 190.847 381.959 191.407 382.226 191.9C382.492 192.38 382.859 192.76 383.326 193.04C383.792 193.32 384.326 193.46 384.926 193.46ZM391.914 195V185.5H393.714V195H391.914ZM393.714 189.58L393.034 189.28C393.034 188.067 393.314 187.1 393.874 186.38C394.434 185.66 395.24 185.3 396.294 185.3C396.774 185.3 397.207 185.387 397.594 185.56C397.98 185.72 398.34 185.993 398.674 186.38L397.494 187.6C397.294 187.387 397.074 187.233 396.834 187.14C396.594 187.047 396.314 187 395.994 187C395.327 187 394.78 187.213 394.354 187.64C393.927 188.067 393.714 188.713 393.714 189.58ZM403.569 199.18C402.595 199.18 401.729 199 400.969 198.64C400.222 198.28 399.622 197.773 399.169 197.12L400.329 195.94C400.715 196.433 401.175 196.807 401.709 197.06C402.242 197.327 402.875 197.46 403.609 197.46C404.582 197.46 405.349 197.2 405.909 196.68C406.482 196.173 406.769 195.487 406.769 194.62V192.26L407.089 190.12L406.769 188V185.5H408.569V194.62C408.569 195.527 408.355 196.32 407.929 197C407.515 197.68 406.929 198.213 406.169 198.6C405.422 198.987 404.555 199.18 403.569 199.18ZM403.569 194.84C402.702 194.84 401.922 194.633 401.229 194.22C400.549 193.807 400.009 193.24 399.609 192.52C399.209 191.787 399.009 190.967 399.009 190.06C399.009 189.153 399.209 188.347 399.609 187.64C400.009 186.92 400.549 186.353 401.229 185.94C401.922 185.513 402.702 185.3 403.569 185.3C404.315 185.3 404.975 185.447 405.549 185.74C406.122 186.033 406.575 186.447 406.909 186.98C407.255 187.5 407.442 188.113 407.469 188.82V191.34C407.429 192.033 407.235 192.647 406.889 193.18C406.555 193.7 406.102 194.107 405.529 194.4C404.955 194.693 404.302 194.84 403.569 194.84ZM403.929 193.14C404.515 193.14 405.029 193.013 405.469 192.76C405.922 192.507 406.269 192.153 406.509 191.7C406.749 191.233 406.869 190.693 406.869 190.08C406.869 189.467 406.742 188.933 406.489 188.48C406.249 188.013 405.909 187.653 405.469 187.4C405.029 187.133 404.509 187 403.909 187C403.309 187 402.782 187.133 402.329 187.4C401.875 187.653 401.515 188.013 401.249 188.48C400.995 188.933 400.869 189.46 400.869 190.06C400.869 190.66 400.995 191.193 401.249 191.66C401.515 192.127 401.875 192.493 402.329 192.76C402.795 193.013 403.329 193.14 403.929 193.14Z" fill="black"/>
<g filter="url(#filter1_b_7142_1014)">
<circle cx="425.5" cy="37.5" r="37.5" fill="url(#paint1_linear_7142_1014)"/>
</g>
<path d="M438.987 25.2416C438.976 25.1898 438.951 25.1421 438.914 25.1041C438.877 25.0661 438.83 25.0394 438.779 25.0272C435.347 24.1881 427.417 27.1781 423.121 31.4725C422.355 32.2325 421.656 33.0579 421.033 33.9393C419.709 33.8221 418.384 33.9199 417.255 34.4121C414.069 35.8143 413.141 39.4729 412.883 41.0467C412.868 41.1328 412.874 41.2212 412.899 41.3048C412.924 41.3885 412.969 41.4651 413.029 41.5287C413.089 41.5923 413.162 41.6412 413.244 41.6714C413.326 41.7016 413.414 41.7124 413.501 41.7029L418.617 41.1387C418.621 41.5244 418.644 41.9096 418.687 42.293C418.712 42.5592 418.831 42.808 419.021 42.9961L421.002 44.9725C421.19 45.1623 421.439 45.2804 421.705 45.3064C422.086 45.3491 422.469 45.3724 422.853 45.3762L422.291 50.4856C422.282 50.5724 422.293 50.6602 422.323 50.7421C422.353 50.8241 422.402 50.8979 422.466 50.9578C422.529 51.0176 422.606 51.062 422.69 51.0873C422.773 51.1126 422.862 51.1182 422.948 51.1037C424.519 50.8518 428.184 49.9242 429.578 46.7385C430.07 45.6094 430.171 44.291 430.057 42.9727C430.94 42.3497 431.768 41.651 432.53 40.8844C436.84 36.5965 439.813 28.844 438.987 25.2416ZM428.23 35.7691C427.837 35.3759 427.569 34.8747 427.46 34.3291C427.352 33.7835 427.407 33.2179 427.62 32.7039C427.833 32.1899 428.193 31.7505 428.656 31.4414C429.118 31.1323 429.662 30.9673 430.219 30.9673C430.775 30.9673 431.319 31.1323 431.781 31.4414C432.244 31.7505 432.604 32.1899 432.817 32.7039C433.03 33.2179 433.086 33.7835 432.977 34.3291C432.868 34.8747 432.6 35.3759 432.207 35.7691C431.946 36.0305 431.636 36.2378 431.295 36.3792C430.954 36.5207 430.588 36.5935 430.219 36.5935C429.849 36.5935 429.484 36.5207 429.142 36.3792C428.801 36.2378 428.491 36.0305 428.23 35.7691Z" fill="white"/>
<path d="M420.867 46.4041C420.546 46.7258 420.031 46.8512 419.411 46.9584C418.018 47.1957 416.788 45.9922 417.039 44.5842C417.134 44.0504 417.417 43.3022 417.592 43.1264C417.631 43.0887 417.656 43.0399 417.665 42.9868C417.675 42.9338 417.667 42.8792 417.643 42.8309C417.619 42.7826 417.581 42.7429 417.534 42.7176C417.486 42.6923 417.432 42.6826 417.379 42.6898C416.6 42.7851 415.875 43.1383 415.32 43.693C413.943 45.0717 413.812 50.1875 413.812 50.1875C413.812 50.1875 418.931 50.0574 420.309 48.6787C420.865 48.1242 421.219 47.3985 421.313 46.6186C421.334 46.3736 421.036 46.2277 420.867 46.4041Z" fill="white"/>
<defs>
<filter id="filter0_b_7142_1014" x="-13.5479" y="6" width="520.548" height="268" filterUnits="userSpaceOnUse" color-interpolation-filters="sRGB">
<feFlood flood-opacity="0" result="BackgroundImageFix"/>
<feGaussianBlur in="BackgroundImageFix" stdDeviation="7"/>
<feComposite in2="SourceAlpha" operator="in" result="effect1_backgroundBlur_7142_1014"/>
<feBlend mode="normal" in="SourceGraphic" in2="effect1_backgroundBlur_7142_1014" result="shape"/>
</filter>
<filter id="filter1_b_7142_1014" x="378" y="-10" width="95" height="95" filterUnits="userSpaceOnUse" color-interpolation-filters="sRGB">
<feFlood flood-opacity="0" result="BackgroundImageFix"/>
<feGaussianBlur in="BackgroundImageFix" stdDeviation="5"/>
<feComposite in2="SourceAlpha" operator="in" result="effect1_backgroundBlur_7142_1014"/>
<feBlend mode="normal" in="SourceGraphic" in2="effect1_backgroundBlur_7142_1014" result="shape"/>
</filter>
<linearGradient id="paint0_linear_7142_1014" x1="493" y1="140" x2="0.452148" y2="140" gradientUnits="userSpaceOnUse">
<stop stop-color="#2DD5C3"/>
<stop offset="0.33" stop-color="#0076FF"/>
<stop offset="0.625" stop-color="#FCFEFF"/>
<stop offset="0.92" stop-color="#0886F5"/>
</linearGradient>
<linearGradient id="paint1_linear_7142_1014" x1="463" y1="37.5" x2="388" y2="37.5" gradientUnits="userSpaceOnUse">
<stop stop-color="#2DD5C3"/>
<stop offset="1" stop-color="#0076FF"/>
</linearGradient>
</defs>
</svg>
