<svg width="493" height="260" viewBox="0 0 493 260" fill="none" xmlns="http://www.w3.org/2000/svg">
<g filter="url(#filter0_b_7139_1012)">
<rect y="20" width="492.548" height="240" rx="20" fill="white" fill-opacity="0.75"/>
<rect x="0.75" y="20.75" width="491.048" height="238.5" rx="19.25" stroke="url(#paint0_linear_7139_1012)" stroke-width="1.5"/>
</g>
<path d="M66.376 97.24C65.048 97.24 63.864 96.952 62.824 96.376C61.8 95.784 60.992 94.976 60.4 93.952C59.808 92.928 59.512 91.768 59.512 90.472V80.128H62.776V90.568C62.776 91.32 62.928 91.968 63.232 92.512C63.552 93.056 63.984 93.48 64.528 93.784C65.088 94.072 65.704 94.216 66.376 94.216C67.064 94.216 67.672 94.072 68.2 93.784C68.728 93.48 69.144 93.056 69.448 92.512C69.768 91.968 69.928 91.328 69.928 90.592V80.128H73.216V90.496C73.216 91.792 72.92 92.952 72.328 93.976C71.736 94.984 70.928 95.784 69.904 96.376C68.896 96.952 67.72 97.24 66.376 97.24ZM83.9029 97V90.352C83.9029 89.664 83.6869 89.104 83.2549 88.672C82.8229 88.24 82.2629 88.024 81.5749 88.024C81.1269 88.024 80.7269 88.12 80.3749 88.312C80.0229 88.504 79.7429 88.776 79.5349 89.128C79.3429 89.48 79.2469 89.888 79.2469 90.352L78.0229 89.728C78.0229 88.816 78.2149 88.024 78.5989 87.352C78.9989 86.664 79.5429 86.128 80.2309 85.744C80.9349 85.36 81.7269 85.168 82.6069 85.168C83.4549 85.168 84.2149 85.384 84.8869 85.816C85.5589 86.232 86.0869 86.784 86.4709 87.472C86.8549 88.144 87.0469 88.872 87.0469 89.656V97H83.9029ZM76.1029 97V85.408H79.2469V97H76.1029ZM89.5795 97V79.648H92.7235V97H89.5795ZM100.957 97.24C99.7892 97.24 98.7332 96.976 97.7892 96.448C96.8612 95.904 96.1172 95.176 95.5572 94.264C95.0132 93.336 94.7412 92.304 94.7412 91.168C94.7412 90.032 95.0132 89.016 95.5572 88.12C96.1012 87.208 96.8452 86.488 97.7892 85.96C98.7332 85.416 99.7812 85.144 100.933 85.144C102.117 85.144 103.173 85.416 104.101 85.96C105.045 86.488 105.789 87.208 106.333 88.12C106.877 89.016 107.149 90.032 107.149 91.168C107.149 92.304 106.877 93.336 106.333 94.264C105.789 95.176 105.045 95.904 104.101 96.448C103.173 96.976 102.125 97.24 100.957 97.24ZM100.933 94.312C101.525 94.312 102.045 94.184 102.493 93.928C102.957 93.656 103.309 93.288 103.549 92.824C103.805 92.344 103.933 91.8 103.933 91.192C103.933 90.584 103.805 90.048 103.549 89.584C103.293 89.12 102.941 88.76 102.493 88.504C102.045 88.232 101.525 88.096 100.933 88.096C100.357 88.096 99.8452 88.232 99.3972 88.504C98.9492 88.76 98.5972 89.12 98.3412 89.584C98.0852 90.048 97.9572 90.584 97.9572 91.192C97.9572 91.8 98.0852 92.344 98.3412 92.824C98.5972 93.288 98.9492 93.656 99.3972 93.928C99.8452 94.184 100.357 94.312 100.933 94.312ZM114.645 97.24C113.461 97.24 112.397 96.976 111.453 96.448C110.509 95.92 109.765 95.2 109.221 94.288C108.677 93.376 108.405 92.352 108.405 91.216C108.405 90.064 108.677 89.032 109.221 88.12C109.765 87.208 110.509 86.488 111.453 85.96C112.413 85.416 113.477 85.144 114.645 85.144C115.557 85.144 116.397 85.312 117.165 85.648C117.933 85.984 118.597 86.464 119.157 87.088L117.141 89.128C116.837 88.792 116.469 88.536 116.037 88.36C115.621 88.184 115.157 88.096 114.645 88.096C114.069 88.096 113.549 88.232 113.085 88.504C112.637 88.76 112.277 89.12 112.005 89.584C111.749 90.032 111.621 90.568 111.621 91.192C111.621 91.8 111.749 92.344 112.005 92.824C112.277 93.288 112.637 93.656 113.085 93.928C113.549 94.184 114.069 94.312 114.645 94.312C115.173 94.312 115.645 94.224 116.061 94.048C116.493 93.856 116.861 93.584 117.165 93.232L119.205 95.272C118.613 95.912 117.933 96.4 117.165 96.736C116.397 97.072 115.557 97.24 114.645 97.24ZM128.378 97L123.89 91.024L128.354 85.408H131.978L126.746 91.744L126.866 90.208L132.218 97H128.378ZM120.986 97V79.648H124.13V97H120.986ZM148.889 97L141.569 88.192L148.697 80.128H152.777L144.833 88.888V87.376L153.041 97H148.889ZM138.689 97V80.128H141.953V97H138.689ZM162.676 97V90.352C162.676 89.664 162.46 89.104 162.028 88.672C161.596 88.24 161.036 88.024 160.348 88.024C159.9 88.024 159.5 88.12 159.148 88.312C158.796 88.504 158.516 88.776 158.308 89.128C158.116 89.48 158.02 89.888 158.02 90.352L156.796 89.728C156.796 88.816 156.988 88.024 157.372 87.352C157.772 86.664 158.316 86.128 159.004 85.744C159.708 85.36 160.5 85.168 161.38 85.168C162.228 85.168 162.988 85.384 163.66 85.816C164.332 86.232 164.86 86.784 165.244 87.472C165.628 88.144 165.82 88.872 165.82 89.656V97H162.676ZM154.876 97V85.408H158.02V97H154.876ZM173.801 97.24C172.633 97.24 171.577 96.976 170.633 96.448C169.705 95.904 168.961 95.176 168.401 94.264C167.857 93.336 167.585 92.304 167.585 91.168C167.585 90.032 167.857 89.016 168.401 88.12C168.945 87.208 169.689 86.488 170.633 85.96C171.577 85.416 172.625 85.144 173.777 85.144C174.961 85.144 176.017 85.416 176.945 85.96C177.889 86.488 178.633 87.208 179.177 88.12C179.721 89.016 179.993 90.032 179.993 91.168C179.993 92.304 179.721 93.336 179.177 94.264C178.633 95.176 177.889 95.904 176.945 96.448C176.017 96.976 174.969 97.24 173.801 97.24ZM173.777 94.312C174.369 94.312 174.889 94.184 175.337 93.928C175.801 93.656 176.153 93.288 176.393 92.824C176.649 92.344 176.777 91.8 176.777 91.192C176.777 90.584 176.649 90.048 176.393 89.584C176.137 89.12 175.785 88.76 175.337 88.504C174.889 88.232 174.369 88.096 173.777 88.096C173.201 88.096 172.689 88.232 172.241 88.504C171.793 88.76 171.441 89.12 171.185 89.584C170.929 90.048 170.801 90.584 170.801 91.192C170.801 91.8 170.929 92.344 171.185 92.824C171.441 93.288 171.793 93.656 172.241 93.928C172.689 94.184 173.201 94.312 173.777 94.312ZM184.855 97L180.511 85.408H183.679L186.511 93.832L185.551 93.856L188.455 85.408H190.735L193.639 93.856L192.679 93.832L195.511 85.408H198.679L194.359 97H192.079L189.151 88.984H190.039L187.111 97H184.855ZM200.205 97V79.648H203.349V97H200.205ZM211.678 97.24C210.462 97.24 209.382 96.984 208.438 96.472C207.494 95.944 206.742 95.224 206.182 94.312C205.638 93.4 205.366 92.36 205.366 91.192C205.366 90.04 205.63 89.016 206.158 88.12C206.702 87.208 207.438 86.488 208.366 85.96C209.294 85.416 210.326 85.144 211.462 85.144C212.582 85.144 213.566 85.4 214.414 85.912C215.278 86.408 215.95 87.096 216.43 87.976C216.926 88.84 217.174 89.824 217.174 90.928C217.174 91.136 217.158 91.352 217.126 91.576C217.11 91.784 217.07 92.024 217.006 92.296L207.262 92.32V89.968L215.542 89.944L214.27 90.928C214.238 90.24 214.11 89.664 213.886 89.2C213.678 88.736 213.366 88.384 212.95 88.144C212.55 87.888 212.054 87.76 211.462 87.76C210.838 87.76 210.294 87.904 209.83 88.192C209.366 88.464 209.006 88.856 208.75 89.368C208.51 89.864 208.39 90.456 208.39 91.144C208.39 91.848 208.518 92.464 208.774 92.992C209.046 93.504 209.43 93.904 209.926 94.192C210.422 94.464 210.998 94.6 211.654 94.6C212.246 94.6 212.782 94.504 213.262 94.312C213.742 94.104 214.158 93.8 214.51 93.4L216.358 95.248C215.798 95.904 215.11 96.4 214.294 96.736C213.494 97.072 212.622 97.24 211.678 97.24ZM224.015 97.24C222.943 97.24 221.983 96.976 221.135 96.448C220.287 95.92 219.615 95.2 219.119 94.288C218.639 93.376 218.399 92.352 218.399 91.216C218.399 90.064 218.639 89.032 219.119 88.12C219.615 87.208 220.279 86.488 221.111 85.96C221.959 85.432 222.927 85.168 224.015 85.168C224.847 85.168 225.591 85.336 226.247 85.672C226.919 86.008 227.455 86.48 227.855 87.088C228.271 87.68 228.495 88.352 228.527 89.104V93.232C228.495 93.984 228.279 94.664 227.879 95.272C227.479 95.88 226.943 96.36 226.271 96.712C225.599 97.064 224.847 97.24 224.015 97.24ZM224.543 94.336C225.135 94.336 225.647 94.208 226.079 93.952C226.527 93.68 226.871 93.312 227.111 92.848C227.367 92.368 227.495 91.816 227.495 91.192C227.495 90.584 227.367 90.048 227.111 89.584C226.871 89.104 226.527 88.736 226.079 88.48C225.647 88.208 225.143 88.072 224.567 88.072C223.975 88.072 223.455 88.208 223.007 88.48C222.575 88.752 222.231 89.12 221.975 89.584C221.735 90.048 221.615 90.584 221.615 91.192C221.615 91.816 221.735 92.368 221.975 92.848C222.231 93.312 222.583 93.68 223.031 93.952C223.479 94.208 223.983 94.336 224.543 94.336ZM230.447 97H227.327V93.88L227.831 91.048L227.303 88.264V79.648H230.447V97ZM238.076 102.136C236.844 102.136 235.756 101.912 234.812 101.464C233.868 101.032 233.116 100.416 232.556 99.616L234.548 97.624C234.996 98.152 235.492 98.552 236.036 98.824C236.596 99.112 237.268 99.256 238.052 99.256C239.028 99.256 239.796 99.008 240.356 98.512C240.932 98.016 241.22 97.328 241.22 96.448V93.544L241.748 91L241.244 88.456V85.408H244.364V96.4C244.364 97.552 244.092 98.552 243.548 99.4C243.02 100.264 242.284 100.936 241.34 101.416C240.396 101.896 239.308 102.136 238.076 102.136ZM237.932 96.688C236.892 96.688 235.956 96.44 235.124 95.944C234.292 95.432 233.636 94.736 233.156 93.856C232.692 92.976 232.46 91.992 232.46 90.904C232.46 89.816 232.692 88.84 233.156 87.976C233.636 87.112 234.292 86.432 235.124 85.936C235.956 85.424 236.892 85.168 237.932 85.168C238.796 85.168 239.556 85.336 240.212 85.672C240.884 86.008 241.412 86.472 241.796 87.064C242.18 87.64 242.388 88.32 242.42 89.104V92.752C242.388 93.52 242.172 94.208 241.772 94.816C241.388 95.408 240.86 95.872 240.188 96.208C239.532 96.528 238.78 96.688 237.932 96.688ZM238.556 93.832C239.132 93.832 239.628 93.712 240.044 93.472C240.476 93.216 240.812 92.872 241.052 92.44C241.292 91.992 241.412 91.488 241.412 90.928C241.412 90.352 241.292 89.848 241.052 89.416C240.812 88.984 240.476 88.648 240.044 88.408C239.628 88.152 239.132 88.024 238.556 88.024C237.98 88.024 237.476 88.152 237.044 88.408C236.612 88.648 236.276 88.992 236.036 89.44C235.796 89.872 235.676 90.368 235.676 90.928C235.676 91.472 235.796 91.968 236.036 92.416C236.276 92.848 236.612 93.192 237.044 93.448C237.476 93.704 237.98 93.832 238.556 93.832ZM252.67 97.24C251.454 97.24 250.374 96.984 249.43 96.472C248.486 95.944 247.734 95.224 247.174 94.312C246.63 93.4 246.358 92.36 246.358 91.192C246.358 90.04 246.622 89.016 247.15 88.12C247.694 87.208 248.43 86.488 249.358 85.96C250.286 85.416 251.318 85.144 252.454 85.144C253.574 85.144 254.558 85.4 255.406 85.912C256.27 86.408 256.942 87.096 257.422 87.976C257.918 88.84 258.166 89.824 258.166 90.928C258.166 91.136 258.15 91.352 258.118 91.576C258.102 91.784 258.062 92.024 257.998 92.296L248.254 92.32V89.968L256.534 89.944L255.262 90.928C255.23 90.24 255.102 89.664 254.878 89.2C254.67 88.736 254.358 88.384 253.942 88.144C253.542 87.888 253.046 87.76 252.454 87.76C251.83 87.76 251.286 87.904 250.822 88.192C250.358 88.464 249.998 88.856 249.742 89.368C249.502 89.864 249.382 90.456 249.382 91.144C249.382 91.848 249.51 92.464 249.766 92.992C250.038 93.504 250.422 93.904 250.918 94.192C251.414 94.464 251.99 94.6 252.646 94.6C253.238 94.6 253.774 94.504 254.254 94.312C254.734 94.104 255.15 93.8 255.502 93.4L257.35 95.248C256.79 95.904 256.102 96.4 255.286 96.736C254.486 97.072 253.614 97.24 252.67 97.24Z" fill="black"/>
<path d="M62.9 134.6V132.96H66.68C67.2 132.96 67.66 132.853 68.06 132.64C68.4733 132.427 68.7933 132.127 69.02 131.74C69.26 131.353 69.38 130.893 69.38 130.36C69.38 129.827 69.26 129.367 69.02 128.98C68.7933 128.593 68.4733 128.293 68.06 128.08C67.66 127.867 67.2 127.76 66.68 127.76H62.9V126.12H66.8C67.6533 126.12 68.4133 126.293 69.08 126.64C69.76 126.987 70.2933 127.48 70.68 128.12C71.08 128.747 71.28 129.493 71.28 130.36C71.28 131.213 71.08 131.96 70.68 132.6C70.2933 133.227 69.76 133.72 69.08 134.08C68.4133 134.427 67.6533 134.6 66.8 134.6H62.9ZM61.64 140V126.12H63.52V140H61.64ZM77.2889 140.2C76.5022 140.2 75.7956 140.027 75.1689 139.68C74.5556 139.32 74.0756 138.827 73.7289 138.2C73.3822 137.573 73.2089 136.847 73.2089 136.02V130.5H75.0089V135.94C75.0089 136.46 75.0956 136.913 75.2689 137.3C75.4556 137.673 75.7222 137.96 76.0689 138.16C76.4156 138.36 76.8222 138.46 77.2889 138.46C77.9956 138.46 78.5489 138.24 78.9489 137.8C79.3489 137.347 79.5489 136.727 79.5489 135.94V130.5H81.3489V136.02C81.3489 136.847 81.1756 137.573 80.8289 138.2C80.4822 138.827 80.0022 139.32 79.3889 139.68C78.7889 140.027 78.0889 140.2 77.2889 140.2ZM83.7614 140V125.72H85.5614V140H83.7614ZM88.195 140V125.72H89.995V140H88.195ZM98.2488 140V126.52H100.049V140H98.2488ZM95.9088 132.14V130.5H102.389V132.14H95.9088ZM108.199 140.2C107.266 140.2 106.426 139.98 105.679 139.54C104.932 139.1 104.339 138.507 103.899 137.76C103.459 137 103.239 136.153 103.239 135.22C103.239 134.3 103.459 133.473 103.899 132.74C104.339 131.993 104.932 131.4 105.679 130.96C106.426 130.52 107.266 130.3 108.199 130.3C109.119 130.3 109.952 130.52 110.699 130.96C111.459 131.387 112.059 131.973 112.499 132.72C112.939 133.467 113.159 134.3 113.159 135.22C113.159 136.153 112.939 137 112.499 137.76C112.059 138.507 111.459 139.1 110.699 139.54C109.952 139.98 109.119 140.2 108.199 140.2ZM108.199 138.46C108.799 138.46 109.332 138.32 109.799 138.04C110.266 137.76 110.632 137.38 110.899 136.9C111.166 136.407 111.299 135.847 111.299 135.22C111.299 134.607 111.159 134.06 110.879 133.58C110.612 133.1 110.246 132.727 109.779 132.46C109.326 132.18 108.799 132.04 108.199 132.04C107.599 132.04 107.066 132.18 106.599 132.46C106.132 132.727 105.766 133.1 105.499 133.58C105.232 134.06 105.099 134.607 105.099 135.22C105.099 135.847 105.232 136.407 105.499 136.9C105.766 137.38 106.132 137.76 106.599 138.04C107.066 138.32 107.599 138.46 108.199 138.46ZM119.127 144.18C118.154 144.18 117.287 144 116.527 143.64C115.781 143.28 115.181 142.773 114.727 142.12L115.887 140.94C116.274 141.433 116.734 141.807 117.267 142.06C117.801 142.327 118.434 142.46 119.167 142.46C120.141 142.46 120.907 142.2 121.467 141.68C122.041 141.173 122.327 140.487 122.327 139.62V137.26L122.647 135.12L122.327 133V130.5H124.127V139.62C124.127 140.527 123.914 141.32 123.487 142C123.074 142.68 122.487 143.213 121.727 143.6C120.981 143.987 120.114 144.18 119.127 144.18ZM119.127 139.84C118.261 139.84 117.481 139.633 116.787 139.22C116.107 138.807 115.567 138.24 115.167 137.52C114.767 136.787 114.567 135.967 114.567 135.06C114.567 134.153 114.767 133.347 115.167 132.64C115.567 131.92 116.107 131.353 116.787 130.94C117.481 130.513 118.261 130.3 119.127 130.3C119.874 130.3 120.534 130.447 121.107 130.74C121.681 131.033 122.134 131.447 122.467 131.98C122.814 132.5 123.001 133.113 123.027 133.82V136.34C122.987 137.033 122.794 137.647 122.447 138.18C122.114 138.7 121.661 139.107 121.087 139.4C120.514 139.693 119.861 139.84 119.127 139.84ZM119.487 138.14C120.074 138.14 120.587 138.013 121.027 137.76C121.481 137.507 121.827 137.153 122.067 136.7C122.307 136.233 122.427 135.693 122.427 135.08C122.427 134.467 122.301 133.933 122.047 133.48C121.807 133.013 121.467 132.653 121.027 132.4C120.587 132.133 120.067 132 119.467 132C118.867 132 118.341 132.133 117.887 132.4C117.434 132.653 117.074 133.013 116.807 133.48C116.554 133.933 116.427 134.46 116.427 135.06C116.427 135.66 116.554 136.193 116.807 136.66C117.074 137.127 117.434 137.493 117.887 137.76C118.354 138.013 118.887 138.14 119.487 138.14ZM131.169 140.2C130.223 140.2 129.369 139.987 128.609 139.56C127.849 139.12 127.249 138.527 126.809 137.78C126.369 137.033 126.149 136.187 126.149 135.24C126.149 134.307 126.363 133.467 126.789 132.72C127.229 131.973 127.816 131.387 128.549 130.96C129.296 130.52 130.129 130.3 131.049 130.3C131.929 130.3 132.703 130.5 133.369 130.9C134.049 131.3 134.576 131.853 134.949 132.56C135.336 133.267 135.529 134.067 135.529 134.96C135.529 135.093 135.523 135.24 135.509 135.4C135.496 135.547 135.469 135.72 135.429 135.92H127.409V134.42H134.469L133.809 135C133.809 134.36 133.696 133.82 133.469 133.38C133.243 132.927 132.923 132.58 132.509 132.34C132.096 132.087 131.596 131.96 131.009 131.96C130.396 131.96 129.856 132.093 129.389 132.36C128.923 132.627 128.563 133 128.309 133.48C128.056 133.96 127.929 134.527 127.929 135.18C127.929 135.847 128.063 136.433 128.329 136.94C128.596 137.433 128.976 137.82 129.469 138.1C129.963 138.367 130.529 138.5 131.169 138.5C131.703 138.5 132.189 138.407 132.629 138.22C133.083 138.033 133.469 137.753 133.789 137.38L134.949 138.56C134.496 139.093 133.936 139.5 133.269 139.78C132.616 140.06 131.916 140.2 131.169 140.2ZM138.678 140V126.52H140.478V140H138.678ZM136.338 132.14V130.5H142.818V132.14H136.338ZM151.302 140V134.46C151.302 133.74 151.075 133.147 150.622 132.68C150.168 132.213 149.582 131.98 148.862 131.98C148.382 131.98 147.955 132.087 147.582 132.3C147.208 132.513 146.915 132.807 146.702 133.18C146.488 133.553 146.382 133.98 146.382 134.46L145.642 134.04C145.642 133.32 145.802 132.68 146.122 132.12C146.442 131.56 146.888 131.12 147.462 130.8C148.035 130.467 148.682 130.3 149.402 130.3C150.122 130.3 150.755 130.46 151.302 130.78C151.862 131.1 152.302 131.547 152.622 132.12C152.942 132.693 153.102 133.353 153.102 134.1V140H151.302ZM144.582 140V125.72H146.382V140H144.582ZM159.939 140.2C158.992 140.2 158.139 139.987 157.379 139.56C156.619 139.12 156.019 138.527 155.579 137.78C155.139 137.033 154.919 136.187 154.919 135.24C154.919 134.307 155.132 133.467 155.559 132.72C155.999 131.973 156.585 131.387 157.319 130.96C158.065 130.52 158.899 130.3 159.819 130.3C160.699 130.3 161.472 130.5 162.139 130.9C162.819 131.3 163.345 131.853 163.719 132.56C164.105 133.267 164.299 134.067 164.299 134.96C164.299 135.093 164.292 135.24 164.279 135.4C164.265 135.547 164.239 135.72 164.199 135.92H156.179V134.42H163.239L162.579 135C162.579 134.36 162.465 133.82 162.239 133.38C162.012 132.927 161.692 132.58 161.279 132.34C160.865 132.087 160.365 131.96 159.779 131.96C159.165 131.96 158.625 132.093 158.159 132.36C157.692 132.627 157.332 133 157.079 133.48C156.825 133.96 156.699 134.527 156.699 135.18C156.699 135.847 156.832 136.433 157.099 136.94C157.365 137.433 157.745 137.82 158.239 138.1C158.732 138.367 159.299 138.5 159.939 138.5C160.472 138.5 160.959 138.407 161.399 138.22C161.852 138.033 162.239 137.753 162.559 137.38L163.719 138.56C163.265 139.093 162.705 139.5 162.039 139.78C161.385 140.06 160.685 140.2 159.939 140.2ZM166.261 140V130.5H168.061V140H166.261ZM168.061 134.58L167.381 134.28C167.381 133.067 167.661 132.1 168.221 131.38C168.781 130.66 169.588 130.3 170.641 130.3C171.121 130.3 171.555 130.387 171.941 130.56C172.328 130.72 172.688 130.993 173.021 131.38L171.841 132.6C171.641 132.387 171.421 132.233 171.181 132.14C170.941 132.047 170.661 132 170.341 132C169.675 132 169.128 132.213 168.701 132.64C168.275 133.067 168.061 133.713 168.061 134.58ZM181.52 140L177.76 130.5H179.64L182.36 137.9H181.76L184.46 130.5H185.5L188.2 137.9H187.6L190.32 130.5H192.2L188.46 140H187.4L184.66 132.82H185.32L182.56 140H181.52ZM200.52 140V134.46C200.52 133.74 200.294 133.147 199.84 132.68C199.387 132.213 198.8 131.98 198.08 131.98C197.6 131.98 197.174 132.087 196.8 132.3C196.427 132.513 196.134 132.807 195.92 133.18C195.707 133.553 195.6 133.98 195.6 134.46L194.86 134.04C194.86 133.32 195.02 132.68 195.34 132.12C195.66 131.56 196.107 131.12 196.68 130.8C197.254 130.467 197.9 130.3 198.62 130.3C199.34 130.3 199.974 130.46 200.52 130.78C201.08 131.1 201.52 131.547 201.84 132.12C202.16 132.693 202.32 133.353 202.32 134.1V140H200.52ZM193.8 140V125.72H195.6V140H193.8ZM208.798 140.2C207.931 140.2 207.144 139.987 206.438 139.56C205.731 139.12 205.171 138.527 204.757 137.78C204.358 137.033 204.158 136.193 204.158 135.26C204.158 134.327 204.358 133.487 204.757 132.74C205.171 131.993 205.724 131.4 206.418 130.96C207.124 130.52 207.918 130.3 208.798 130.3C209.518 130.3 210.158 130.453 210.718 130.76C211.291 131.053 211.751 131.467 212.098 132C212.444 132.52 212.638 133.127 212.678 133.82V136.68C212.638 137.36 212.444 137.967 212.098 138.5C211.764 139.033 211.311 139.453 210.738 139.76C210.178 140.053 209.531 140.2 208.798 140.2ZM209.098 138.5C209.991 138.5 210.711 138.2 211.258 137.6C211.804 136.987 212.078 136.207 212.078 135.26C212.078 134.607 211.951 134.04 211.698 133.56C211.458 133.067 211.111 132.687 210.658 132.42C210.204 132.14 209.678 132 209.078 132C208.478 132 207.944 132.14 207.478 132.42C207.024 132.7 206.664 133.087 206.398 133.58C206.144 134.06 206.018 134.613 206.018 135.24C206.018 135.88 206.144 136.447 206.398 136.94C206.664 137.42 207.031 137.8 207.498 138.08C207.964 138.36 208.498 138.5 209.098 138.5ZM211.958 140V137.44L212.298 135.12L211.958 132.82V130.5H213.778V140H211.958ZM217.819 140V126.52H219.619V140H217.819ZM215.479 132.14V130.5H221.959V132.14H215.479ZM231.003 140.08L226.883 130.5H228.883L231.943 138H231.303L234.523 130.5H236.523L232.083 140.08H231.003ZM228.283 143.98L231.083 138.24L232.083 140.08L230.283 143.98H228.283ZM241.969 140.2C241.035 140.2 240.195 139.98 239.449 139.54C238.702 139.1 238.109 138.507 237.669 137.76C237.229 137 237.009 136.153 237.009 135.22C237.009 134.3 237.229 133.473 237.669 132.74C238.109 131.993 238.702 131.4 239.449 130.96C240.195 130.52 241.035 130.3 241.969 130.3C242.889 130.3 243.722 130.52 244.469 130.96C245.229 131.387 245.829 131.973 246.269 132.72C246.709 133.467 246.929 134.3 246.929 135.22C246.929 136.153 246.709 137 246.269 137.76C245.829 138.507 245.229 139.1 244.469 139.54C243.722 139.98 242.889 140.2 241.969 140.2ZM241.969 138.46C242.569 138.46 243.102 138.32 243.569 138.04C244.035 137.76 244.402 137.38 244.669 136.9C244.935 136.407 245.069 135.847 245.069 135.22C245.069 134.607 244.929 134.06 244.649 133.58C244.382 133.1 244.015 132.727 243.549 132.46C243.095 132.18 242.569 132.04 241.969 132.04C241.369 132.04 240.835 132.18 240.369 132.46C239.902 132.727 239.535 133.1 239.269 133.58C239.002 134.06 238.869 134.607 238.869 135.22C238.869 135.847 239.002 136.407 239.269 136.9C239.535 137.38 239.902 137.76 240.369 138.04C240.835 138.32 241.369 138.46 241.969 138.46ZM252.797 140.2C252.01 140.2 251.303 140.027 250.677 139.68C250.063 139.32 249.583 138.827 249.237 138.2C248.89 137.573 248.717 136.847 248.717 136.02V130.5H250.517V135.94C250.517 136.46 250.603 136.913 250.777 137.3C250.963 137.673 251.23 137.96 251.577 138.16C251.923 138.36 252.33 138.46 252.797 138.46C253.503 138.46 254.057 138.24 254.457 137.8C254.857 137.347 255.057 136.727 255.057 135.94V130.5H256.857V136.02C256.857 136.847 256.683 137.573 256.337 138.2C255.99 138.827 255.51 139.32 254.897 139.68C254.297 140.027 253.597 140.2 252.797 140.2ZM270.149 140V134.46C270.149 133.74 269.923 133.147 269.469 132.68C269.016 132.213 268.429 131.98 267.709 131.98C267.229 131.98 266.803 132.087 266.429 132.3C266.056 132.513 265.763 132.807 265.549 133.18C265.336 133.553 265.229 133.98 265.229 134.46L264.489 134.04C264.489 133.32 264.649 132.68 264.969 132.12C265.289 131.56 265.736 131.12 266.309 130.8C266.883 130.467 267.529 130.3 268.249 130.3C268.969 130.3 269.603 130.48 270.149 130.84C270.709 131.2 271.149 131.673 271.469 132.26C271.789 132.833 271.949 133.447 271.949 134.1V140H270.149ZM263.429 140V130.5H265.229V140H263.429ZM278.786 140.2C277.84 140.2 276.986 139.987 276.226 139.56C275.466 139.12 274.866 138.527 274.426 137.78C273.986 137.033 273.766 136.187 273.766 135.24C273.766 134.307 273.98 133.467 274.406 132.72C274.846 131.973 275.433 131.387 276.166 130.96C276.913 130.52 277.746 130.3 278.666 130.3C279.546 130.3 280.32 130.5 280.986 130.9C281.666 131.3 282.193 131.853 282.566 132.56C282.953 133.267 283.146 134.067 283.146 134.96C283.146 135.093 283.14 135.24 283.126 135.4C283.113 135.547 283.086 135.72 283.046 135.92H275.026V134.42H282.086L281.426 135C281.426 134.36 281.313 133.82 281.086 133.38C280.86 132.927 280.54 132.58 280.126 132.34C279.713 132.087 279.213 131.96 278.626 131.96C278.013 131.96 277.473 132.093 277.006 132.36C276.54 132.627 276.18 133 275.926 133.48C275.673 133.96 275.546 134.527 275.546 135.18C275.546 135.847 275.68 136.433 275.946 136.94C276.213 137.433 276.593 137.82 277.086 138.1C277.58 138.367 278.146 138.5 278.786 138.5C279.32 138.5 279.806 138.407 280.246 138.22C280.7 138.033 281.086 137.753 281.406 137.38L282.566 138.56C282.113 139.093 281.553 139.5 280.886 139.78C280.233 140.06 279.533 140.2 278.786 140.2ZM289.509 140.2C288.562 140.2 287.709 139.987 286.949 139.56C286.189 139.12 285.589 138.527 285.149 137.78C284.709 137.033 284.489 136.187 284.489 135.24C284.489 134.307 284.702 133.467 285.129 132.72C285.569 131.973 286.156 131.387 286.889 130.96C287.636 130.52 288.469 130.3 289.389 130.3C290.269 130.3 291.042 130.5 291.709 130.9C292.389 131.3 292.916 131.853 293.289 132.56C293.676 133.267 293.869 134.067 293.869 134.96C293.869 135.093 293.862 135.24 293.849 135.4C293.836 135.547 293.809 135.72 293.769 135.92H285.749V134.42H292.809L292.149 135C292.149 134.36 292.036 133.82 291.809 133.38C291.582 132.927 291.262 132.58 290.849 132.34C290.436 132.087 289.936 131.96 289.349 131.96C288.736 131.96 288.196 132.093 287.729 132.36C287.262 132.627 286.902 133 286.649 133.48C286.396 133.96 286.269 134.527 286.269 135.18C286.269 135.847 286.402 136.433 286.669 136.94C286.936 137.433 287.316 137.82 287.809 138.1C288.302 138.367 288.869 138.5 289.509 138.5C290.042 138.5 290.529 138.407 290.969 138.22C291.422 138.033 291.809 137.753 292.129 137.38L293.289 138.56C292.836 139.093 292.276 139.5 291.609 139.78C290.956 140.06 290.256 140.2 289.509 140.2ZM299.852 140.2C298.972 140.2 298.185 139.987 297.492 139.56C296.798 139.12 296.245 138.527 295.832 137.78C295.432 137.033 295.232 136.193 295.232 135.26C295.232 134.327 295.432 133.487 295.832 132.74C296.245 131.993 296.798 131.4 297.492 130.96C298.185 130.52 298.972 130.3 299.852 130.3C300.558 130.3 301.198 130.453 301.772 130.76C302.345 131.053 302.805 131.467 303.152 132C303.512 132.52 303.712 133.127 303.752 133.82V136.68C303.712 137.36 303.518 137.967 303.172 138.5C302.825 139.033 302.365 139.453 301.792 139.76C301.218 140.053 300.572 140.2 299.852 140.2ZM300.152 138.5C300.752 138.5 301.272 138.36 301.712 138.08C302.165 137.8 302.518 137.42 302.772 136.94C303.025 136.447 303.152 135.887 303.152 135.26C303.152 134.607 303.018 134.04 302.752 133.56C302.498 133.08 302.145 132.7 301.692 132.42C301.252 132.14 300.732 132 300.132 132C299.532 132 299.005 132.14 298.552 132.42C298.098 132.7 297.738 133.087 297.472 133.58C297.218 134.06 297.092 134.613 297.092 135.24C297.092 135.88 297.218 136.447 297.472 136.94C297.738 137.42 298.098 137.8 298.552 138.08C299.018 138.36 299.552 138.5 300.152 138.5ZM304.852 140H303.032V137.44L303.372 135.12L303.032 132.82V125.72H304.852V140ZM312.993 140V129.08C312.993 128.373 313.146 127.76 313.453 127.24C313.759 126.707 314.179 126.287 314.713 125.98C315.259 125.673 315.893 125.52 316.613 125.52C317.159 125.52 317.633 125.613 318.033 125.8C318.433 125.987 318.799 126.26 319.133 126.62L317.953 127.78C317.779 127.593 317.586 127.453 317.373 127.36C317.159 127.253 316.899 127.2 316.593 127.2C316.019 127.2 315.573 127.367 315.253 127.7C314.946 128.033 314.793 128.493 314.793 129.08V140H312.993ZM310.653 132.14V130.5H317.813V132.14H310.653ZM319.269 140V130.5H321.069V140H319.269ZM321.069 134.58L320.389 134.28C320.389 133.067 320.669 132.1 321.229 131.38C321.789 130.66 322.596 130.3 323.649 130.3C324.129 130.3 324.563 130.387 324.949 130.56C325.336 130.72 325.696 130.993 326.029 131.38L324.849 132.6C324.649 132.387 324.429 132.233 324.189 132.14C323.949 132.047 323.669 132 323.349 132C322.683 132 322.136 132.213 321.709 132.64C321.283 133.067 321.069 133.713 321.069 134.58ZM331.324 140.2C330.391 140.2 329.551 139.98 328.804 139.54C328.057 139.1 327.464 138.507 327.024 137.76C326.584 137 326.364 136.153 326.364 135.22C326.364 134.3 326.584 133.473 327.024 132.74C327.464 131.993 328.057 131.4 328.804 130.96C329.551 130.52 330.391 130.3 331.324 130.3C332.244 130.3 333.077 130.52 333.824 130.96C334.584 131.387 335.184 131.973 335.624 132.72C336.064 133.467 336.284 134.3 336.284 135.22C336.284 136.153 336.064 137 335.624 137.76C335.184 138.507 334.584 139.1 333.824 139.54C333.077 139.98 332.244 140.2 331.324 140.2ZM331.324 138.46C331.924 138.46 332.457 138.32 332.924 138.04C333.391 137.76 333.757 137.38 334.024 136.9C334.291 136.407 334.424 135.847 334.424 135.22C334.424 134.607 334.284 134.06 334.004 133.58C333.737 133.1 333.371 132.727 332.904 132.46C332.451 132.18 331.924 132.04 331.324 132.04C330.724 132.04 330.191 132.18 329.724 132.46C329.257 132.727 328.891 133.1 328.624 133.58C328.357 134.06 328.224 134.607 328.224 135.22C328.224 135.847 328.357 136.407 328.624 136.9C328.891 137.38 329.257 137.76 329.724 138.04C330.191 138.32 330.724 138.46 331.324 138.46ZM338.312 140V130.5H340.112V140H338.312ZM344.732 140V134.26C344.732 133.553 344.512 133 344.072 132.6C343.646 132.187 343.106 131.98 342.452 131.98C342.012 131.98 341.619 132.073 341.272 132.26C340.926 132.447 340.646 132.707 340.432 133.04C340.219 133.373 340.112 133.773 340.112 134.24L339.372 133.88C339.372 133.16 339.526 132.533 339.832 132C340.152 131.467 340.586 131.053 341.132 130.76C341.679 130.453 342.292 130.3 342.972 130.3C343.639 130.3 344.239 130.447 344.772 130.74C345.319 131.033 345.746 131.447 346.052 131.98C346.372 132.513 346.532 133.147 346.532 133.88V140H344.732ZM351.152 140V134.26C351.152 133.553 350.932 133 350.492 132.6C350.066 132.187 349.532 131.98 348.892 131.98C348.452 131.98 348.052 132.073 347.692 132.26C347.346 132.447 347.066 132.707 346.852 133.04C346.639 133.373 346.532 133.773 346.532 134.24L345.512 133.88C345.552 133.147 345.746 132.52 346.092 132C346.452 131.467 346.912 131.053 347.472 130.76C348.032 130.453 348.646 130.3 349.312 130.3C350.006 130.3 350.626 130.447 351.172 130.74C351.719 131.033 352.152 131.447 352.472 131.98C352.806 132.513 352.972 133.153 352.972 133.9V140H351.152ZM360.942 140V128.78C360.942 128.153 361.075 127.6 361.342 127.12C361.622 126.627 362.008 126.24 362.502 125.96C362.995 125.667 363.562 125.52 364.202 125.52C364.695 125.52 365.128 125.607 365.502 125.78C365.875 125.94 366.222 126.167 366.542 126.46L365.362 127.64C365.188 127.493 365.008 127.387 364.822 127.32C364.635 127.24 364.428 127.2 364.202 127.2C363.735 127.2 363.375 127.347 363.122 127.64C362.868 127.92 362.742 128.3 362.742 128.78V140H360.942ZM358.602 132.14V130.5H367.622V132.14H358.602ZM366.582 140V130.5H368.402V140H366.582ZM367.482 129.5C367.162 129.5 366.895 129.393 366.682 129.18C366.468 128.953 366.362 128.673 366.362 128.34C366.362 128.02 366.468 127.753 366.682 127.54C366.895 127.313 367.162 127.2 367.482 127.2C367.828 127.2 368.102 127.313 368.302 127.54C368.515 127.753 368.622 128.02 368.622 128.34C368.622 128.673 368.515 128.953 368.302 129.18C368.102 129.393 367.828 129.5 367.482 129.5ZM371.047 140V125.72H372.847V140H371.047ZM379.88 140.2C378.933 140.2 378.08 139.987 377.32 139.56C376.56 139.12 375.96 138.527 375.52 137.78C375.08 137.033 374.86 136.187 374.86 135.24C374.86 134.307 375.073 133.467 375.5 132.72C375.94 131.973 376.527 131.387 377.26 130.96C378.007 130.52 378.84 130.3 379.76 130.3C380.64 130.3 381.413 130.5 382.08 130.9C382.76 131.3 383.287 131.853 383.66 132.56C384.047 133.267 384.24 134.067 384.24 134.96C384.24 135.093 384.233 135.24 384.22 135.4C384.207 135.547 384.18 135.72 384.14 135.92H376.12V134.42H383.18L382.52 135C382.52 134.36 382.407 133.82 382.18 133.38C381.953 132.927 381.633 132.58 381.22 132.34C380.807 132.087 380.307 131.96 379.72 131.96C379.107 131.96 378.567 132.093 378.1 132.36C377.633 132.627 377.273 133 377.02 133.48C376.767 133.96 376.64 134.527 376.64 135.18C376.64 135.847 376.773 136.433 377.04 136.94C377.307 137.433 377.687 137.82 378.18 138.1C378.673 138.367 379.24 138.5 379.88 138.5C380.413 138.5 380.9 138.407 381.34 138.22C381.793 138.033 382.18 137.753 382.5 137.38L383.66 138.56C383.207 139.093 382.647 139.5 381.98 139.78C381.327 140.06 380.627 140.2 379.88 140.2ZM389.223 140.2C388.689 140.2 388.183 140.133 387.703 140C387.236 139.853 386.803 139.653 386.403 139.4C386.003 139.133 385.656 138.82 385.363 138.46L386.523 137.3C386.869 137.727 387.269 138.047 387.723 138.26C388.176 138.46 388.683 138.56 389.243 138.56C389.803 138.56 390.236 138.467 390.543 138.28C390.849 138.08 391.003 137.807 391.003 137.46C391.003 137.113 390.876 136.847 390.623 136.66C390.383 136.46 390.069 136.3 389.683 136.18C389.296 136.047 388.883 135.92 388.443 135.8C388.016 135.667 387.609 135.5 387.223 135.3C386.836 135.1 386.516 134.827 386.263 134.48C386.023 134.133 385.903 133.673 385.903 133.1C385.903 132.527 386.043 132.033 386.323 131.62C386.603 131.193 386.989 130.867 387.483 130.64C387.989 130.413 388.596 130.3 389.303 130.3C390.049 130.3 390.709 130.433 391.283 130.7C391.869 130.953 392.349 131.34 392.723 131.86L391.563 133.02C391.296 132.673 390.963 132.407 390.563 132.22C390.176 132.033 389.736 131.94 389.243 131.94C388.723 131.94 388.323 132.033 388.043 132.22C387.776 132.393 387.643 132.64 387.643 132.96C387.643 133.28 387.763 133.527 388.003 133.7C388.243 133.873 388.556 134.02 388.943 134.14C389.343 134.26 389.756 134.387 390.183 134.52C390.609 134.64 391.016 134.807 391.403 135.02C391.789 135.233 392.103 135.52 392.343 135.88C392.596 136.24 392.723 136.713 392.723 137.3C392.723 138.193 392.403 138.9 391.763 139.42C391.136 139.94 390.289 140.2 389.223 140.2ZM394.838 142.2L396.078 139.82L396.718 139.66C396.651 139.807 396.565 139.927 396.458 140.02C396.365 140.113 396.245 140.16 396.098 140.16C395.818 140.16 395.558 140.047 395.318 139.82C395.091 139.58 394.978 139.287 394.978 138.94C394.978 138.553 395.105 138.233 395.358 137.98C395.611 137.713 395.931 137.58 396.318 137.58C396.665 137.58 396.971 137.713 397.238 137.98C397.505 138.233 397.638 138.553 397.638 138.94C397.638 139.087 397.605 139.267 397.538 139.48C397.485 139.68 397.371 139.94 397.198 140.26L395.878 142.76L394.838 142.2ZM64.34 170.2C63.8067 170.2 63.3 170.133 62.82 170C62.3533 169.853 61.92 169.653 61.52 169.4C61.12 169.133 60.7733 168.82 60.48 168.46L61.64 167.3C61.9867 167.727 62.3867 168.047 62.84 168.26C63.2933 168.46 63.8 168.56 64.36 168.56C64.92 168.56 65.3533 168.467 65.66 168.28C65.9667 168.08 66.12 167.807 66.12 167.46C66.12 167.113 65.9933 166.847 65.74 166.66C65.5 166.46 65.1867 166.3 64.8 166.18C64.4133 166.047 64 165.92 63.56 165.8C63.1333 165.667 62.7267 165.5 62.34 165.3C61.9533 165.1 61.6333 164.827 61.38 164.48C61.14 164.133 61.02 163.673 61.02 163.1C61.02 162.527 61.16 162.033 61.44 161.62C61.72 161.193 62.1067 160.867 62.6 160.64C63.1067 160.413 63.7133 160.3 64.42 160.3C65.1667 160.3 65.8267 160.433 66.4 160.7C66.9867 160.953 67.4667 161.34 67.84 161.86L66.68 163.02C66.4133 162.673 66.08 162.407 65.68 162.22C65.2933 162.033 64.8533 161.94 64.36 161.94C63.84 161.94 63.44 162.033 63.16 162.22C62.8933 162.393 62.76 162.64 62.76 162.96C62.76 163.28 62.88 163.527 63.12 163.7C63.36 163.873 63.6733 164.02 64.06 164.14C64.46 164.26 64.8733 164.387 65.3 164.52C65.7267 164.64 66.1333 164.807 66.52 165.02C66.9067 165.233 67.22 165.52 67.46 165.88C67.7133 166.24 67.84 166.713 67.84 167.3C67.84 168.193 67.52 168.9 66.88 169.42C66.2533 169.94 65.4067 170.2 64.34 170.2ZM74.1952 170.2C73.2618 170.2 72.4218 169.98 71.6752 169.54C70.9285 169.1 70.3352 168.507 69.8952 167.76C69.4552 167 69.2352 166.153 69.2352 165.22C69.2352 164.3 69.4552 163.473 69.8952 162.74C70.3352 161.993 70.9285 161.4 71.6752 160.96C72.4218 160.52 73.2618 160.3 74.1952 160.3C75.1152 160.3 75.9485 160.52 76.6952 160.96C77.4552 161.387 78.0552 161.973 78.4952 162.72C78.9352 163.467 79.1552 164.3 79.1552 165.22C79.1552 166.153 78.9352 167 78.4952 167.76C78.0552 168.507 77.4552 169.1 76.6952 169.54C75.9485 169.98 75.1152 170.2 74.1952 170.2ZM74.1952 168.46C74.7952 168.46 75.3285 168.32 75.7952 168.04C76.2618 167.76 76.6285 167.38 76.8952 166.9C77.1618 166.407 77.2952 165.847 77.2952 165.22C77.2952 164.607 77.1552 164.06 76.8752 163.58C76.6085 163.1 76.2418 162.727 75.7752 162.46C75.3218 162.18 74.7952 162.04 74.1952 162.04C73.5952 162.04 73.0618 162.18 72.5952 162.46C72.1285 162.727 71.7618 163.1 71.4952 163.58C71.2285 164.06 71.0952 164.607 71.0952 165.22C71.0952 165.847 71.2285 166.407 71.4952 166.9C71.7618 167.38 72.1285 167.76 72.5952 168.04C73.0618 168.32 73.5952 168.46 74.1952 168.46ZM85.0233 170.2C84.2366 170.2 83.5299 170.027 82.9033 169.68C82.2899 169.32 81.8099 168.827 81.4633 168.2C81.1166 167.573 80.9433 166.847 80.9433 166.02V160.5H82.7433V165.94C82.7433 166.46 82.8299 166.913 83.0033 167.3C83.1899 167.673 83.4566 167.96 83.8033 168.16C84.1499 168.36 84.5566 168.46 85.0233 168.46C85.7299 168.46 86.2833 168.24 86.6833 167.8C87.0833 167.347 87.2833 166.727 87.2833 165.94V160.5H89.0833V166.02C89.0833 166.847 88.9099 167.573 88.5633 168.2C88.2166 168.827 87.7366 169.32 87.1233 169.68C86.5233 170.027 85.8233 170.2 85.0233 170.2ZM91.4958 170V160.5H93.2958V170H91.4958ZM93.2958 164.58L92.6158 164.28C92.6158 163.067 92.8958 162.1 93.4558 161.38C94.0158 160.66 94.8224 160.3 95.8758 160.3C96.3558 160.3 96.7891 160.387 97.1758 160.56C97.5624 160.72 97.9224 160.993 98.2558 161.38L97.0758 162.6C96.8758 162.387 96.6558 162.233 96.4158 162.14C96.1758 162.047 95.8958 162 95.5758 162C94.9091 162 94.3624 162.213 93.9358 162.64C93.5091 163.067 93.2958 163.713 93.2958 164.58ZM103.551 170.2C102.617 170.2 101.771 169.98 101.011 169.54C100.264 169.1 99.6706 168.507 99.2306 167.76C98.804 167 98.5906 166.16 98.5906 165.24C98.5906 164.307 98.804 163.467 99.2306 162.72C99.6706 161.973 100.264 161.387 101.011 160.96C101.771 160.52 102.617 160.3 103.551 160.3C104.284 160.3 104.964 160.44 105.591 160.72C106.217 160.987 106.757 161.38 107.211 161.9L106.011 163.1C105.717 162.753 105.357 162.493 104.931 162.32C104.517 162.133 104.057 162.04 103.551 162.04C102.951 162.04 102.417 162.18 101.951 162.46C101.484 162.727 101.117 163.1 100.851 163.58C100.584 164.06 100.451 164.613 100.451 165.24C100.451 165.867 100.584 166.42 100.851 166.9C101.117 167.38 101.484 167.76 101.951 168.04C102.417 168.32 102.951 168.46 103.551 168.46C104.057 168.46 104.517 168.373 104.931 168.2C105.357 168.013 105.724 167.747 106.031 167.4L107.211 168.6C106.771 169.107 106.231 169.5 105.591 169.78C104.964 170.06 104.284 170.2 103.551 170.2ZM113.22 170.2C112.273 170.2 111.42 169.987 110.66 169.56C109.9 169.12 109.3 168.527 108.86 167.78C108.42 167.033 108.2 166.187 108.2 165.24C108.2 164.307 108.413 163.467 108.84 162.72C109.28 161.973 109.867 161.387 110.6 160.96C111.347 160.52 112.18 160.3 113.1 160.3C113.98 160.3 114.753 160.5 115.42 160.9C116.1 161.3 116.627 161.853 117 162.56C117.387 163.267 117.58 164.067 117.58 164.96C117.58 165.093 117.573 165.24 117.56 165.4C117.547 165.547 117.52 165.72 117.48 165.92H109.46V164.42H116.52L115.86 165C115.86 164.36 115.747 163.82 115.52 163.38C115.293 162.927 114.973 162.58 114.56 162.34C114.147 162.087 113.647 161.96 113.06 161.96C112.447 161.96 111.907 162.093 111.44 162.36C110.973 162.627 110.613 163 110.36 163.48C110.107 163.96 109.98 164.527 109.98 165.18C109.98 165.847 110.113 166.433 110.38 166.94C110.647 167.433 111.027 167.82 111.52 168.1C112.013 168.367 112.58 168.5 113.22 168.5C113.753 168.5 114.24 168.407 114.68 168.22C115.133 168.033 115.52 167.753 115.84 167.38L117 168.56C116.547 169.093 115.987 169.5 115.32 169.78C114.667 170.06 113.967 170.2 113.22 170.2ZM122.563 170.2C122.029 170.2 121.523 170.133 121.043 170C120.576 169.853 120.143 169.653 119.743 169.4C119.343 169.133 118.996 168.82 118.703 168.46L119.863 167.3C120.209 167.727 120.609 168.047 121.063 168.26C121.516 168.46 122.023 168.56 122.583 168.56C123.143 168.56 123.576 168.467 123.883 168.28C124.189 168.08 124.343 167.807 124.343 167.46C124.343 167.113 124.216 166.847 123.963 166.66C123.723 166.46 123.409 166.3 123.023 166.18C122.636 166.047 122.223 165.92 121.783 165.8C121.356 165.667 120.949 165.5 120.563 165.3C120.176 165.1 119.856 164.827 119.603 164.48C119.363 164.133 119.243 163.673 119.243 163.1C119.243 162.527 119.383 162.033 119.663 161.62C119.943 161.193 120.329 160.867 120.823 160.64C121.329 160.413 121.936 160.3 122.643 160.3C123.389 160.3 124.049 160.433 124.623 160.7C125.209 160.953 125.689 161.34 126.063 161.86L124.903 163.02C124.636 162.673 124.303 162.407 123.903 162.22C123.516 162.033 123.076 161.94 122.583 161.94C122.063 161.94 121.663 162.033 121.383 162.22C121.116 162.393 120.983 162.64 120.983 162.96C120.983 163.28 121.103 163.527 121.343 163.7C121.583 163.873 121.896 164.02 122.283 164.14C122.683 164.26 123.096 164.387 123.523 164.52C123.949 164.64 124.356 164.807 124.743 165.02C125.129 165.233 125.443 165.52 125.683 165.88C125.936 166.24 126.063 166.713 126.063 167.3C126.063 168.193 125.743 168.9 125.103 169.42C124.476 169.94 123.629 170.2 122.563 170.2ZM128.178 172.2L129.418 169.82L130.058 169.66C129.991 169.807 129.904 169.927 129.798 170.02C129.704 170.113 129.584 170.16 129.438 170.16C129.158 170.16 128.898 170.047 128.658 169.82C128.431 169.58 128.318 169.287 128.318 168.94C128.318 168.553 128.444 168.233 128.698 167.98C128.951 167.713 129.271 167.58 129.658 167.58C130.004 167.58 130.311 167.713 130.578 167.98C130.844 168.233 130.978 168.553 130.978 168.94C130.978 169.087 130.944 169.267 130.878 169.48C130.824 169.68 130.711 169.94 130.538 170.26L129.218 172.76L128.178 172.2ZM141.786 170.2C140.919 170.2 140.132 169.987 139.426 169.56C138.719 169.12 138.159 168.527 137.746 167.78C137.346 167.033 137.146 166.193 137.146 165.26C137.146 164.327 137.346 163.487 137.746 162.74C138.159 161.993 138.712 161.4 139.406 160.96C140.112 160.52 140.906 160.3 141.786 160.3C142.506 160.3 143.146 160.453 143.706 160.76C144.279 161.053 144.739 161.467 145.086 162C145.432 162.52 145.626 163.127 145.666 163.82V166.68C145.626 167.36 145.432 167.967 145.086 168.5C144.752 169.033 144.299 169.453 143.726 169.76C143.166 170.053 142.519 170.2 141.786 170.2ZM142.086 168.5C142.979 168.5 143.699 168.2 144.246 167.6C144.792 166.987 145.066 166.207 145.066 165.26C145.066 164.607 144.939 164.04 144.686 163.56C144.446 163.067 144.099 162.687 143.646 162.42C143.192 162.14 142.666 162 142.066 162C141.466 162 140.932 162.14 140.466 162.42C140.012 162.7 139.652 163.087 139.386 163.58C139.132 164.06 139.006 164.613 139.006 165.24C139.006 165.88 139.132 166.447 139.386 166.94C139.652 167.42 140.019 167.8 140.486 168.08C140.952 168.36 141.486 168.5 142.086 168.5ZM144.946 170V167.44L145.286 165.12L144.946 162.82V160.5H146.766V170H144.946ZM156.106 170V164.46C156.106 163.74 155.88 163.147 155.426 162.68C154.973 162.213 154.386 161.98 153.666 161.98C153.186 161.98 152.76 162.087 152.386 162.3C152.013 162.513 151.72 162.807 151.506 163.18C151.293 163.553 151.186 163.98 151.186 164.46L150.446 164.04C150.446 163.32 150.606 162.68 150.926 162.12C151.246 161.56 151.693 161.12 152.266 160.8C152.84 160.467 153.486 160.3 154.206 160.3C154.926 160.3 155.56 160.48 156.106 160.84C156.666 161.2 157.106 161.673 157.426 162.26C157.746 162.833 157.906 163.447 157.906 164.1V170H156.106ZM149.386 170V160.5H151.186V170H149.386ZM164.363 170.2C163.483 170.2 162.697 169.987 162.003 169.56C161.31 169.12 160.757 168.527 160.343 167.78C159.943 167.033 159.743 166.193 159.743 165.26C159.743 164.327 159.943 163.487 160.343 162.74C160.757 161.993 161.31 161.4 162.003 160.96C162.697 160.52 163.483 160.3 164.363 160.3C165.07 160.3 165.71 160.453 166.283 160.76C166.857 161.053 167.317 161.467 167.663 162C168.023 162.52 168.223 163.127 168.263 163.82V166.68C168.223 167.36 168.03 167.967 167.683 168.5C167.337 169.033 166.877 169.453 166.303 169.76C165.73 170.053 165.083 170.2 164.363 170.2ZM164.663 168.5C165.263 168.5 165.783 168.36 166.223 168.08C166.677 167.8 167.03 167.42 167.283 166.94C167.537 166.447 167.663 165.887 167.663 165.26C167.663 164.607 167.53 164.04 167.263 163.56C167.01 163.08 166.657 162.7 166.203 162.42C165.763 162.14 165.243 162 164.643 162C164.043 162 163.517 162.14 163.063 162.42C162.61 162.7 162.25 163.087 161.983 163.58C161.73 164.06 161.603 164.613 161.603 165.24C161.603 165.88 161.73 166.447 161.983 166.94C162.25 167.42 162.61 167.8 163.063 168.08C163.53 168.36 164.063 168.5 164.663 168.5ZM169.363 170H167.543V167.44L167.883 165.12L167.543 162.82V155.72H169.363V170ZM177.604 170V156.52H179.404V170H177.604ZM175.264 162.14V160.5H181.744V162.14H175.264ZM187.615 170.2C186.668 170.2 185.815 169.987 185.055 169.56C184.295 169.12 183.695 168.527 183.255 167.78C182.815 167.033 182.595 166.187 182.595 165.24C182.595 164.307 182.808 163.467 183.235 162.72C183.675 161.973 184.261 161.387 184.995 160.96C185.741 160.52 186.575 160.3 187.495 160.3C188.375 160.3 189.148 160.5 189.815 160.9C190.495 161.3 191.021 161.853 191.395 162.56C191.781 163.267 191.975 164.067 191.975 164.96C191.975 165.093 191.968 165.24 191.955 165.4C191.941 165.547 191.915 165.72 191.875 165.92H183.855V164.42H190.915L190.255 165C190.255 164.36 190.141 163.82 189.915 163.38C189.688 162.927 189.368 162.58 188.955 162.34C188.541 162.087 188.041 161.96 187.455 161.96C186.841 161.96 186.301 162.093 185.835 162.36C185.368 162.627 185.008 163 184.755 163.48C184.501 163.96 184.375 164.527 184.375 165.18C184.375 165.847 184.508 166.433 184.775 166.94C185.041 167.433 185.421 167.82 185.915 168.1C186.408 168.367 186.975 168.5 187.615 168.5C188.148 168.5 188.635 168.407 189.075 168.22C189.528 168.033 189.915 167.753 190.235 167.38L191.395 168.56C190.941 169.093 190.381 169.5 189.715 169.78C189.061 170.06 188.361 170.2 187.615 170.2ZM197.977 170.2C197.111 170.2 196.324 169.987 195.617 169.56C194.911 169.12 194.351 168.527 193.937 167.78C193.537 167.033 193.337 166.193 193.337 165.26C193.337 164.327 193.537 163.487 193.937 162.74C194.351 161.993 194.904 161.4 195.597 160.96C196.304 160.52 197.097 160.3 197.977 160.3C198.697 160.3 199.337 160.453 199.897 160.76C200.471 161.053 200.931 161.467 201.277 162C201.624 162.52 201.817 163.127 201.857 163.82V166.68C201.817 167.36 201.624 167.967 201.277 168.5C200.944 169.033 200.491 169.453 199.917 169.76C199.357 170.053 198.711 170.2 197.977 170.2ZM198.277 168.5C199.171 168.5 199.891 168.2 200.437 167.6C200.984 166.987 201.257 166.207 201.257 165.26C201.257 164.607 201.131 164.04 200.877 163.56C200.637 163.067 200.291 162.687 199.837 162.42C199.384 162.14 198.857 162 198.257 162C197.657 162 197.124 162.14 196.657 162.42C196.204 162.7 195.844 163.087 195.577 163.58C195.324 164.06 195.197 164.613 195.197 165.24C195.197 165.88 195.324 166.447 195.577 166.94C195.844 167.42 196.211 167.8 196.677 168.08C197.144 168.36 197.677 168.5 198.277 168.5ZM201.137 170V167.44L201.477 165.12L201.137 162.82V160.5H202.957V170H201.137ZM205.578 170V160.5H207.378V170H205.578ZM211.998 170V164.26C211.998 163.553 211.778 163 211.338 162.6C210.911 162.187 210.371 161.98 209.718 161.98C209.278 161.98 208.884 162.073 208.538 162.26C208.191 162.447 207.911 162.707 207.698 163.04C207.484 163.373 207.378 163.773 207.378 164.24L206.638 163.88C206.638 163.16 206.791 162.533 207.098 162C207.418 161.467 207.851 161.053 208.398 160.76C208.944 160.453 209.558 160.3 210.238 160.3C210.904 160.3 211.504 160.447 212.038 160.74C212.584 161.033 213.011 161.447 213.318 161.98C213.638 162.513 213.798 163.147 213.798 163.88V170H211.998ZM218.418 170V164.26C218.418 163.553 218.198 163 217.758 162.6C217.331 162.187 216.798 161.98 216.158 161.98C215.718 161.98 215.318 162.073 214.958 162.26C214.611 162.447 214.331 162.707 214.118 163.04C213.904 163.373 213.798 163.773 213.798 164.24L212.778 163.88C212.818 163.147 213.011 162.52 213.358 162C213.718 161.467 214.178 161.053 214.738 160.76C215.298 160.453 215.911 160.3 216.578 160.3C217.271 160.3 217.891 160.447 218.438 160.74C218.984 161.033 219.418 161.447 219.738 161.98C220.071 162.513 220.238 163.153 220.238 163.9V170H218.418ZM232.927 170L228.487 165.14L232.887 160.5H235.067L230.167 165.62L230.247 164.58L235.247 170H232.927ZM226.847 170V155.72H228.647V170H226.847ZM243.216 170V164.46C243.216 163.74 242.989 163.147 242.536 162.68C242.082 162.213 241.496 161.98 240.776 161.98C240.296 161.98 239.869 162.087 239.496 162.3C239.122 162.513 238.829 162.807 238.616 163.18C238.402 163.553 238.296 163.98 238.296 164.46L237.556 164.04C237.556 163.32 237.716 162.68 238.036 162.12C238.356 161.56 238.802 161.12 239.376 160.8C239.949 160.467 240.596 160.3 241.316 160.3C242.036 160.3 242.669 160.48 243.216 160.84C243.776 161.2 244.216 161.673 244.536 162.26C244.856 162.833 245.016 163.447 245.016 164.1V170H243.216ZM236.496 170V160.5H238.296V170H236.496ZM251.793 170.2C250.859 170.2 250.019 169.98 249.273 169.54C248.526 169.1 247.933 168.507 247.493 167.76C247.053 167 246.833 166.153 246.833 165.22C246.833 164.3 247.053 163.473 247.493 162.74C247.933 161.993 248.526 161.4 249.273 160.96C250.019 160.52 250.859 160.3 251.793 160.3C252.713 160.3 253.546 160.52 254.293 160.96C255.053 161.387 255.653 161.973 256.093 162.72C256.533 163.467 256.753 164.3 256.753 165.22C256.753 166.153 256.533 167 256.093 167.76C255.653 168.507 255.053 169.1 254.293 169.54C253.546 169.98 252.713 170.2 251.793 170.2ZM251.793 168.46C252.393 168.46 252.926 168.32 253.393 168.04C253.859 167.76 254.226 167.38 254.493 166.9C254.759 166.407 254.893 165.847 254.893 165.22C254.893 164.607 254.753 164.06 254.473 163.58C254.206 163.1 253.839 162.727 253.373 162.46C252.919 162.18 252.393 162.04 251.793 162.04C251.193 162.04 250.659 162.18 250.193 162.46C249.726 162.727 249.359 163.1 249.093 163.58C248.826 164.06 248.693 164.607 248.693 165.22C248.693 165.847 248.826 166.407 249.093 166.9C249.359 167.38 249.726 167.76 250.193 168.04C250.659 168.32 251.193 168.46 251.793 168.46ZM261.228 170L257.468 160.5H259.348L262.068 167.9H261.468L264.168 160.5H265.208L267.908 167.9H267.308L270.028 160.5H271.908L268.168 170H267.108L264.368 162.82H265.028L262.268 170H261.228ZM273.507 170V155.72H275.308V170H273.507ZM282.341 170.2C281.394 170.2 280.541 169.987 279.781 169.56C279.021 169.12 278.421 168.527 277.981 167.78C277.541 167.033 277.321 166.187 277.321 165.24C277.321 164.307 277.534 163.467 277.961 162.72C278.401 161.973 278.988 161.387 279.721 160.96C280.468 160.52 281.301 160.3 282.221 160.3C283.101 160.3 283.874 160.5 284.541 160.9C285.221 161.3 285.748 161.853 286.121 162.56C286.508 163.267 286.701 164.067 286.701 164.96C286.701 165.093 286.694 165.24 286.681 165.4C286.668 165.547 286.641 165.72 286.601 165.92H278.581V164.42H285.641L284.981 165C284.981 164.36 284.868 163.82 284.641 163.38C284.414 162.927 284.094 162.58 283.681 162.34C283.268 162.087 282.768 161.96 282.181 161.96C281.568 161.96 281.028 162.093 280.561 162.36C280.094 162.627 279.734 163 279.481 163.48C279.228 163.96 279.101 164.527 279.101 165.18C279.101 165.847 279.234 166.433 279.501 166.94C279.768 167.433 280.148 167.82 280.641 168.1C281.134 168.367 281.701 168.5 282.341 168.5C282.874 168.5 283.361 168.407 283.801 168.22C284.254 168.033 284.641 167.753 284.961 167.38L286.121 168.56C285.668 169.093 285.108 169.5 284.441 169.78C283.788 170.06 283.088 170.2 282.341 170.2ZM292.684 170.2C291.804 170.2 291.017 169.987 290.324 169.56C289.63 169.12 289.077 168.527 288.664 167.78C288.264 167.033 288.064 166.193 288.064 165.26C288.064 164.327 288.264 163.487 288.664 162.74C289.077 161.993 289.63 161.4 290.324 160.96C291.017 160.52 291.804 160.3 292.684 160.3C293.39 160.3 294.03 160.453 294.604 160.76C295.177 161.053 295.637 161.467 295.984 162C296.344 162.52 296.544 163.127 296.584 163.82V166.68C296.544 167.36 296.35 167.967 296.004 168.5C295.657 169.033 295.197 169.453 294.624 169.76C294.05 170.053 293.404 170.2 292.684 170.2ZM292.984 168.5C293.584 168.5 294.104 168.36 294.544 168.08C294.997 167.8 295.35 167.42 295.604 166.94C295.857 166.447 295.984 165.887 295.984 165.26C295.984 164.607 295.85 164.04 295.584 163.56C295.33 163.08 294.977 162.7 294.524 162.42C294.084 162.14 293.564 162 292.964 162C292.364 162 291.837 162.14 291.384 162.42C290.93 162.7 290.57 163.087 290.304 163.58C290.05 164.06 289.924 164.613 289.924 165.24C289.924 165.88 290.05 166.447 290.304 166.94C290.57 167.42 290.93 167.8 291.384 168.08C291.85 168.36 292.384 168.5 292.984 168.5ZM297.684 170H295.864V167.44L296.204 165.12L295.864 162.82V155.72H297.684V170ZM304.244 174.18C303.271 174.18 302.404 174 301.644 173.64C300.898 173.28 300.298 172.773 299.844 172.12L301.004 170.94C301.391 171.433 301.851 171.807 302.384 172.06C302.918 172.327 303.551 172.46 304.284 172.46C305.258 172.46 306.024 172.2 306.584 171.68C307.158 171.173 307.444 170.487 307.444 169.62V167.26L307.764 165.12L307.444 163V160.5H309.244V169.62C309.244 170.527 309.031 171.32 308.604 172C308.191 172.68 307.604 173.213 306.844 173.6C306.098 173.987 305.231 174.18 304.244 174.18ZM304.244 169.84C303.378 169.84 302.598 169.633 301.904 169.22C301.224 168.807 300.684 168.24 300.284 167.52C299.884 166.787 299.684 165.967 299.684 165.06C299.684 164.153 299.884 163.347 300.284 162.64C300.684 161.92 301.224 161.353 301.904 160.94C302.598 160.513 303.378 160.3 304.244 160.3C304.991 160.3 305.651 160.447 306.224 160.74C306.798 161.033 307.251 161.447 307.584 161.98C307.931 162.5 308.118 163.113 308.144 163.82V166.34C308.104 167.033 307.911 167.647 307.564 168.18C307.231 168.7 306.778 169.107 306.204 169.4C305.631 169.693 304.978 169.84 304.244 169.84ZM304.604 168.14C305.191 168.14 305.704 168.013 306.144 167.76C306.598 167.507 306.944 167.153 307.184 166.7C307.424 166.233 307.544 165.693 307.544 165.08C307.544 164.467 307.418 163.933 307.164 163.48C306.924 163.013 306.584 162.653 306.144 162.4C305.704 162.133 305.184 162 304.584 162C303.984 162 303.458 162.133 303.004 162.4C302.551 162.653 302.191 163.013 301.924 163.48C301.671 163.933 301.544 164.46 301.544 165.06C301.544 165.66 301.671 166.193 301.924 166.66C302.191 167.127 302.551 167.493 303.004 167.76C303.471 168.013 304.004 168.14 304.604 168.14ZM316.286 170.2C315.34 170.2 314.486 169.987 313.726 169.56C312.966 169.12 312.366 168.527 311.926 167.78C311.486 167.033 311.266 166.187 311.266 165.24C311.266 164.307 311.48 163.467 311.906 162.72C312.346 161.973 312.933 161.387 313.666 160.96C314.413 160.52 315.246 160.3 316.166 160.3C317.046 160.3 317.82 160.5 318.486 160.9C319.166 161.3 319.693 161.853 320.066 162.56C320.453 163.267 320.646 164.067 320.646 164.96C320.646 165.093 320.64 165.24 320.626 165.4C320.613 165.547 320.586 165.72 320.546 165.92H312.526V164.42H319.586L318.926 165C318.926 164.36 318.813 163.82 318.586 163.38C318.36 162.927 318.04 162.58 317.626 162.34C317.213 162.087 316.713 161.96 316.126 161.96C315.513 161.96 314.973 162.093 314.506 162.36C314.04 162.627 313.68 163 313.426 163.48C313.173 163.96 313.046 164.527 313.046 165.18C313.046 165.847 313.18 166.433 313.446 166.94C313.713 167.433 314.093 167.82 314.586 168.1C315.08 168.367 315.646 168.5 316.286 168.5C316.82 168.5 317.306 168.407 317.746 168.22C318.2 168.033 318.586 167.753 318.906 167.38L320.066 168.56C319.613 169.093 319.053 169.5 318.386 169.78C317.733 170.06 317.033 170.2 316.286 170.2ZM330.809 170.2C329.943 170.2 329.156 169.987 328.449 169.56C327.743 169.12 327.183 168.527 326.769 167.78C326.369 167.033 326.169 166.193 326.169 165.26C326.169 164.327 326.369 163.487 326.769 162.74C327.183 161.993 327.736 161.4 328.429 160.96C329.136 160.52 329.929 160.3 330.809 160.3C331.529 160.3 332.169 160.453 332.729 160.76C333.303 161.053 333.763 161.467 334.109 162C334.456 162.52 334.649 163.127 334.689 163.82V166.68C334.649 167.36 334.456 167.967 334.109 168.5C333.776 169.033 333.323 169.453 332.749 169.76C332.189 170.053 331.543 170.2 330.809 170.2ZM331.109 168.5C332.003 168.5 332.723 168.2 333.269 167.6C333.816 166.987 334.089 166.207 334.089 165.26C334.089 164.607 333.963 164.04 333.709 163.56C333.469 163.067 333.123 162.687 332.669 162.42C332.216 162.14 331.689 162 331.089 162C330.489 162 329.956 162.14 329.489 162.42C329.036 162.7 328.676 163.087 328.409 163.58C328.156 164.06 328.029 164.613 328.029 165.24C328.029 165.88 328.156 166.447 328.409 166.94C328.676 167.42 329.043 167.8 329.509 168.08C329.976 168.36 330.509 168.5 331.109 168.5ZM333.969 170V167.44L334.309 165.12L333.969 162.82V160.5H335.789V170H333.969ZM342.75 170.2C341.817 170.2 340.97 169.98 340.21 169.54C339.463 169.1 338.87 168.507 338.43 167.76C338.003 167 337.79 166.16 337.79 165.24C337.79 164.307 338.003 163.467 338.43 162.72C338.87 161.973 339.463 161.387 340.21 160.96C340.97 160.52 341.817 160.3 342.75 160.3C343.483 160.3 344.163 160.44 344.79 160.72C345.417 160.987 345.957 161.38 346.41 161.9L345.21 163.1C344.917 162.753 344.557 162.493 344.13 162.32C343.717 162.133 343.257 162.04 342.75 162.04C342.15 162.04 341.617 162.18 341.15 162.46C340.683 162.727 340.317 163.1 340.05 163.58C339.783 164.06 339.65 164.613 339.65 165.24C339.65 165.867 339.783 166.42 340.05 166.9C340.317 167.38 340.683 167.76 341.15 168.04C341.617 168.32 342.15 168.46 342.75 168.46C343.257 168.46 343.717 168.373 344.13 168.2C344.557 168.013 344.923 167.747 345.23 167.4L346.41 168.6C345.97 169.107 345.43 169.5 344.79 169.78C344.163 170.06 343.483 170.2 342.75 170.2ZM348.195 170V160.5H349.995V170H348.195ZM349.995 164.58L349.315 164.28C349.315 163.067 349.595 162.1 350.155 161.38C350.715 160.66 351.522 160.3 352.575 160.3C353.055 160.3 353.488 160.387 353.875 160.56C354.262 160.72 354.622 160.993 354.955 161.38L353.775 162.6C353.575 162.387 353.355 162.233 353.115 162.14C352.875 162.047 352.595 162 352.275 162C351.608 162 351.062 162.213 350.635 162.64C350.208 163.067 349.995 163.713 349.995 164.58ZM360.25 170.2C359.317 170.2 358.477 169.98 357.73 169.54C356.983 169.1 356.39 168.507 355.95 167.76C355.51 167 355.29 166.153 355.29 165.22C355.29 164.3 355.51 163.473 355.95 162.74C356.39 161.993 356.983 161.4 357.73 160.96C358.477 160.52 359.317 160.3 360.25 160.3C361.17 160.3 362.003 160.52 362.75 160.96C363.51 161.387 364.11 161.973 364.55 162.72C364.99 163.467 365.21 164.3 365.21 165.22C365.21 166.153 364.99 167 364.55 167.76C364.11 168.507 363.51 169.1 362.75 169.54C362.003 169.98 361.17 170.2 360.25 170.2ZM360.25 168.46C360.85 168.46 361.383 168.32 361.85 168.04C362.317 167.76 362.683 167.38 362.95 166.9C363.217 166.407 363.35 165.847 363.35 165.22C363.35 164.607 363.21 164.06 362.93 163.58C362.663 163.1 362.297 162.727 361.83 162.46C361.377 162.18 360.85 162.04 360.25 162.04C359.65 162.04 359.117 162.18 358.65 162.46C358.183 162.727 357.817 163.1 357.55 163.58C357.283 164.06 357.15 164.607 357.15 165.22C357.15 165.847 357.283 166.407 357.55 166.9C357.817 167.38 358.183 167.76 358.65 168.04C359.117 168.32 359.65 168.46 360.25 168.46ZM370.258 170.2C369.725 170.2 369.218 170.133 368.738 170C368.271 169.853 367.838 169.653 367.438 169.4C367.038 169.133 366.691 168.82 366.398 168.46L367.558 167.3C367.905 167.727 368.305 168.047 368.758 168.26C369.211 168.46 369.718 168.56 370.278 168.56C370.838 168.56 371.271 168.467 371.578 168.28C371.885 168.08 372.038 167.807 372.038 167.46C372.038 167.113 371.911 166.847 371.658 166.66C371.418 166.46 371.105 166.3 370.718 166.18C370.331 166.047 369.918 165.92 369.478 165.8C369.051 165.667 368.645 165.5 368.258 165.3C367.871 165.1 367.551 164.827 367.298 164.48C367.058 164.133 366.938 163.673 366.938 163.1C366.938 162.527 367.078 162.033 367.358 161.62C367.638 161.193 368.025 160.867 368.518 160.64C369.025 160.413 369.631 160.3 370.338 160.3C371.085 160.3 371.745 160.433 372.318 160.7C372.905 160.953 373.385 161.34 373.758 161.86L372.598 163.02C372.331 162.673 371.998 162.407 371.598 162.22C371.211 162.033 370.771 161.94 370.278 161.94C369.758 161.94 369.358 162.033 369.078 162.22C368.811 162.393 368.678 162.64 368.678 162.96C368.678 163.28 368.798 163.527 369.038 163.7C369.278 163.873 369.591 164.02 369.978 164.14C370.378 164.26 370.791 164.387 371.218 164.52C371.645 164.64 372.051 164.807 372.438 165.02C372.825 165.233 373.138 165.52 373.378 165.88C373.631 166.24 373.758 166.713 373.758 167.3C373.758 168.193 373.438 168.9 372.798 169.42C372.171 169.94 371.325 170.2 370.258 170.2ZM378.793 170.2C378.26 170.2 377.753 170.133 377.273 170C376.806 169.853 376.373 169.653 375.973 169.4C375.573 169.133 375.226 168.82 374.933 168.46L376.093 167.3C376.44 167.727 376.84 168.047 377.293 168.26C377.746 168.46 378.253 168.56 378.813 168.56C379.373 168.56 379.806 168.467 380.113 168.28C380.42 168.08 380.573 167.807 380.573 167.46C380.573 167.113 380.446 166.847 380.193 166.66C379.953 166.46 379.64 166.3 379.253 166.18C378.866 166.047 378.453 165.92 378.013 165.8C377.586 165.667 377.18 165.5 376.793 165.3C376.406 165.1 376.086 164.827 375.833 164.48C375.593 164.133 375.473 163.673 375.473 163.1C375.473 162.527 375.613 162.033 375.893 161.62C376.173 161.193 376.56 160.867 377.053 160.64C377.56 160.413 378.166 160.3 378.873 160.3C379.62 160.3 380.28 160.433 380.853 160.7C381.44 160.953 381.92 161.34 382.293 161.86L381.133 163.02C380.866 162.673 380.533 162.407 380.133 162.22C379.746 162.033 379.306 161.94 378.813 161.94C378.293 161.94 377.893 162.033 377.613 162.22C377.346 162.393 377.213 162.64 377.213 162.96C377.213 163.28 377.333 163.527 377.573 163.7C377.813 163.873 378.126 164.02 378.513 164.14C378.913 164.26 379.326 164.387 379.753 164.52C380.18 164.64 380.586 164.807 380.973 165.02C381.36 165.233 381.673 165.52 381.913 165.88C382.166 166.24 382.293 166.713 382.293 167.3C382.293 168.193 381.973 168.9 381.333 169.42C380.706 169.94 379.86 170.2 378.793 170.2ZM389.928 170V156.52H391.728V170H389.928ZM387.588 162.14V160.5H394.068V162.14H387.588ZM402.552 170V164.46C402.552 163.74 402.325 163.147 401.872 162.68C401.418 162.213 400.832 161.98 400.112 161.98C399.632 161.98 399.205 162.087 398.832 162.3C398.458 162.513 398.165 162.807 397.952 163.18C397.738 163.553 397.632 163.98 397.632 164.46L396.892 164.04C396.892 163.32 397.052 162.68 397.372 162.12C397.692 161.56 398.138 161.12 398.712 160.8C399.285 160.467 399.932 160.3 400.652 160.3C401.372 160.3 402.005 160.46 402.552 160.78C403.112 161.1 403.552 161.547 403.872 162.12C404.192 162.693 404.352 163.353 404.352 164.1V170H402.552ZM395.832 170V155.72H397.632V170H395.832ZM411.189 170.2C410.242 170.2 409.389 169.987 408.629 169.56C407.869 169.12 407.269 168.527 406.829 167.78C406.389 167.033 406.169 166.187 406.169 165.24C406.169 164.307 406.382 163.467 406.809 162.72C407.249 161.973 407.835 161.387 408.569 160.96C409.315 160.52 410.149 160.3 411.069 160.3C411.949 160.3 412.722 160.5 413.389 160.9C414.069 161.3 414.595 161.853 414.969 162.56C415.355 163.267 415.549 164.067 415.549 164.96C415.549 165.093 415.542 165.24 415.529 165.4C415.515 165.547 415.489 165.72 415.449 165.92H407.429V164.42H414.489L413.829 165C413.829 164.36 413.715 163.82 413.489 163.38C413.262 162.927 412.942 162.58 412.529 162.34C412.115 162.087 411.615 161.96 411.029 161.96C410.415 161.96 409.875 162.093 409.409 162.36C408.942 162.627 408.582 163 408.329 163.48C408.075 163.96 407.949 164.527 407.949 165.18C407.949 165.847 408.082 166.433 408.349 166.94C408.615 167.433 408.995 167.82 409.489 168.1C409.982 168.367 410.549 168.5 411.189 168.5C411.722 168.5 412.209 168.407 412.649 168.22C413.102 168.033 413.489 167.753 413.809 167.38L414.969 168.56C414.515 169.093 413.955 169.5 413.289 169.78C412.635 170.06 411.935 170.2 411.189 170.2ZM65.72 200.2C64.7733 200.2 63.92 199.987 63.16 199.56C62.4 199.12 61.8 198.527 61.36 197.78C60.92 197.033 60.7 196.187 60.7 195.24C60.7 194.307 60.9133 193.467 61.34 192.72C61.78 191.973 62.3667 191.387 63.1 190.96C63.8467 190.52 64.68 190.3 65.6 190.3C66.48 190.3 67.2533 190.5 67.92 190.9C68.6 191.3 69.1267 191.853 69.5 192.56C69.8867 193.267 70.08 194.067 70.08 194.96C70.08 195.093 70.0733 195.24 70.06 195.4C70.0467 195.547 70.02 195.72 69.98 195.92H61.96V194.42H69.02L68.36 195C68.36 194.36 68.2467 193.82 68.02 193.38C67.7933 192.927 67.4733 192.58 67.06 192.34C66.6467 192.087 66.1467 191.96 65.56 191.96C64.9467 191.96 64.4067 192.093 63.94 192.36C63.4733 192.627 63.1133 193 62.86 193.48C62.6067 193.96 62.48 194.527 62.48 195.18C62.48 195.847 62.6133 196.433 62.88 196.94C63.1467 197.433 63.5267 197.82 64.02 198.1C64.5133 198.367 65.08 198.5 65.72 198.5C66.2533 198.5 66.74 198.407 67.18 198.22C67.6333 198.033 68.02 197.753 68.34 197.38L69.5 198.56C69.0467 199.093 68.4867 199.5 67.82 199.78C67.1667 200.06 66.4667 200.2 65.72 200.2ZM77.9897 200L75.0297 195.84L74.6897 195.52L70.9497 190.5H73.1297L75.8297 194.2L76.1697 194.48L80.1697 200H77.9897ZM70.7697 200L74.6897 194.72L75.7097 196.04L72.8897 200H70.7697ZM76.3097 195.5L75.2697 194.22L77.8897 190.5H79.9897L76.3097 195.5ZM86.8278 200.2C86.1078 200.2 85.4545 200.053 84.8678 199.76C84.2945 199.453 83.8345 199.033 83.4878 198.5C83.1411 197.967 82.9478 197.36 82.9078 196.68V193.82C82.9478 193.127 83.1411 192.52 83.4878 192C83.8478 191.467 84.3145 191.053 84.8878 190.76C85.4745 190.453 86.1211 190.3 86.8278 190.3C87.6945 190.3 88.4745 190.52 89.1678 190.96C89.8745 191.4 90.4278 191.993 90.8278 192.74C91.2278 193.487 91.4278 194.327 91.4278 195.26C91.4278 196.193 91.2278 197.033 90.8278 197.78C90.4278 198.527 89.8745 199.12 89.1678 199.56C88.4745 199.987 87.6945 200.2 86.8278 200.2ZM81.8278 203.98V190.5H83.6278V193L83.2878 195.3L83.6278 197.62V203.98H81.8278ZM86.5278 198.5C87.1278 198.5 87.6545 198.36 88.1078 198.08C88.5611 197.8 88.9211 197.42 89.1878 196.94C89.4545 196.447 89.5878 195.88 89.5878 195.24C89.5878 194.613 89.4545 194.053 89.1878 193.56C88.9211 193.067 88.5611 192.687 88.1078 192.42C87.6545 192.14 87.1345 192 86.5478 192C85.9478 192 85.4211 192.14 84.9678 192.42C84.5145 192.687 84.1611 193.067 83.9078 193.56C83.6545 194.053 83.5278 194.62 83.5278 195.26C83.5278 195.887 83.6478 196.447 83.8878 196.94C84.1411 197.42 84.4945 197.8 84.9478 198.08C85.4145 198.36 85.9411 198.5 86.5278 198.5ZM97.5084 200.2C96.6418 200.2 95.8551 199.987 95.1484 199.56C94.4418 199.12 93.8818 198.527 93.4684 197.78C93.0684 197.033 92.8684 196.193 92.8684 195.26C92.8684 194.327 93.0684 193.487 93.4684 192.74C93.8818 191.993 94.4351 191.4 95.1284 190.96C95.8351 190.52 96.6284 190.3 97.5084 190.3C98.2284 190.3 98.8684 190.453 99.4284 190.76C100.002 191.053 100.462 191.467 100.808 192C101.155 192.52 101.348 193.127 101.388 193.82V196.68C101.348 197.36 101.155 197.967 100.808 198.5C100.475 199.033 100.022 199.453 99.4484 199.76C98.8884 200.053 98.2418 200.2 97.5084 200.2ZM97.8084 198.5C98.7018 198.5 99.4218 198.2 99.9684 197.6C100.515 196.987 100.788 196.207 100.788 195.26C100.788 194.607 100.662 194.04 100.408 193.56C100.168 193.067 99.8218 192.687 99.3684 192.42C98.9151 192.14 98.3884 192 97.7884 192C97.1884 192 96.6551 192.14 96.1884 192.42C95.7351 192.7 95.3751 193.087 95.1084 193.58C94.8551 194.06 94.7284 194.613 94.7284 195.24C94.7284 195.88 94.8551 196.447 95.1084 196.94C95.3751 197.42 95.7418 197.8 96.2084 198.08C96.6751 198.36 97.2084 198.5 97.8084 198.5ZM100.668 200V197.44L101.008 195.12L100.668 192.82V190.5H102.488V200H100.668ZM111.829 200V194.46C111.829 193.74 111.602 193.147 111.149 192.68C110.696 192.213 110.109 191.98 109.389 191.98C108.909 191.98 108.482 192.087 108.109 192.3C107.736 192.513 107.442 192.807 107.229 193.18C107.016 193.553 106.909 193.98 106.909 194.46L106.169 194.04C106.169 193.32 106.329 192.68 106.649 192.12C106.969 191.56 107.416 191.12 107.989 190.8C108.562 190.467 109.209 190.3 109.929 190.3C110.649 190.3 111.282 190.48 111.829 190.84C112.389 191.2 112.829 191.673 113.149 192.26C113.469 192.833 113.629 193.447 113.629 194.1V200H111.829ZM105.109 200V190.5H106.909V200H105.109ZM119.086 200.2C118.553 200.2 118.046 200.133 117.566 200C117.099 199.853 116.666 199.653 116.266 199.4C115.866 199.133 115.519 198.82 115.226 198.46L116.386 197.3C116.733 197.727 117.133 198.047 117.586 198.26C118.039 198.46 118.546 198.56 119.106 198.56C119.666 198.56 120.099 198.467 120.406 198.28C120.713 198.08 120.866 197.807 120.866 197.46C120.866 197.113 120.739 196.847 120.486 196.66C120.246 196.46 119.933 196.3 119.546 196.18C119.159 196.047 118.746 195.92 118.306 195.8C117.879 195.667 117.473 195.5 117.086 195.3C116.699 195.1 116.379 194.827 116.126 194.48C115.886 194.133 115.766 193.673 115.766 193.1C115.766 192.527 115.906 192.033 116.186 191.62C116.466 191.193 116.853 190.867 117.346 190.64C117.853 190.413 118.459 190.3 119.166 190.3C119.913 190.3 120.573 190.433 121.146 190.7C121.733 190.953 122.213 191.34 122.586 191.86L121.426 193.02C121.159 192.673 120.826 192.407 120.426 192.22C120.039 192.033 119.599 191.94 119.106 191.94C118.586 191.94 118.186 192.033 117.906 192.22C117.639 192.393 117.506 192.64 117.506 192.96C117.506 193.28 117.626 193.527 117.866 193.7C118.106 193.873 118.419 194.02 118.806 194.14C119.206 194.26 119.619 194.387 120.046 194.52C120.473 194.64 120.879 194.807 121.266 195.02C121.653 195.233 121.966 195.52 122.206 195.88C122.459 196.24 122.586 196.713 122.586 197.3C122.586 198.193 122.266 198.9 121.626 199.42C120.999 199.94 120.153 200.2 119.086 200.2ZM129.001 200.2C128.055 200.2 127.201 199.987 126.441 199.56C125.681 199.12 125.081 198.527 124.641 197.78C124.201 197.033 123.981 196.187 123.981 195.24C123.981 194.307 124.195 193.467 124.621 192.72C125.061 191.973 125.648 191.387 126.381 190.96C127.128 190.52 127.961 190.3 128.881 190.3C129.761 190.3 130.535 190.5 131.201 190.9C131.881 191.3 132.408 191.853 132.781 192.56C133.168 193.267 133.361 194.067 133.361 194.96C133.361 195.093 133.355 195.24 133.341 195.4C133.328 195.547 133.301 195.72 133.261 195.92H125.241V194.42H132.301L131.641 195C131.641 194.36 131.528 193.82 131.301 193.38C131.075 192.927 130.755 192.58 130.341 192.34C129.928 192.087 129.428 191.96 128.841 191.96C128.228 191.96 127.688 192.093 127.221 192.36C126.755 192.627 126.395 193 126.141 193.48C125.888 193.96 125.761 194.527 125.761 195.18C125.761 195.847 125.895 196.433 126.161 196.94C126.428 197.433 126.808 197.82 127.301 198.1C127.795 198.367 128.361 198.5 129.001 198.5C129.535 198.5 130.021 198.407 130.461 198.22C130.915 198.033 131.301 197.753 131.621 197.38L132.781 198.56C132.328 199.093 131.768 199.5 131.101 199.78C130.448 200.06 129.748 200.2 129.001 200.2ZM143.824 200.2C142.891 200.2 142.051 199.98 141.304 199.54C140.557 199.1 139.964 198.507 139.524 197.76C139.084 197 138.864 196.153 138.864 195.22C138.864 194.3 139.084 193.473 139.524 192.74C139.964 191.993 140.557 191.4 141.304 190.96C142.051 190.52 142.891 190.3 143.824 190.3C144.744 190.3 145.577 190.52 146.324 190.96C147.084 191.387 147.684 191.973 148.124 192.72C148.564 193.467 148.784 194.3 148.784 195.22C148.784 196.153 148.564 197 148.124 197.76C147.684 198.507 147.084 199.1 146.324 199.54C145.577 199.98 144.744 200.2 143.824 200.2ZM143.824 198.46C144.424 198.46 144.957 198.32 145.424 198.04C145.891 197.76 146.257 197.38 146.524 196.9C146.791 196.407 146.924 195.847 146.924 195.22C146.924 194.607 146.784 194.06 146.504 193.58C146.237 193.1 145.871 192.727 145.404 192.46C144.951 192.18 144.424 192.04 143.824 192.04C143.224 192.04 142.691 192.18 142.224 192.46C141.757 192.727 141.391 193.1 141.124 193.58C140.857 194.06 140.724 194.607 140.724 195.22C140.724 195.847 140.857 196.407 141.124 196.9C141.391 197.38 141.757 197.76 142.224 198.04C142.691 198.32 143.224 198.46 143.824 198.46ZM151.879 200V189.08C151.879 188.373 152.033 187.76 152.339 187.24C152.646 186.707 153.066 186.287 153.599 185.98C154.146 185.673 154.779 185.52 155.499 185.52C156.046 185.52 156.519 185.613 156.919 185.8C157.319 185.987 157.686 186.26 158.019 186.62L156.839 187.78C156.666 187.593 156.473 187.453 156.259 187.36C156.046 187.253 155.786 187.2 155.479 187.2C154.906 187.2 154.459 187.367 154.139 187.7C153.833 188.033 153.679 188.493 153.679 189.08V200H151.879ZM149.539 192.14V190.5H156.699V192.14H149.539ZM165.788 200.08L161.668 190.5H163.668L166.728 198H166.088L169.308 190.5H171.308L166.868 200.08H165.788ZM163.068 203.98L165.868 198.24L166.868 200.08L165.068 203.98H163.068ZM176.754 200.2C175.82 200.2 174.98 199.98 174.234 199.54C173.487 199.1 172.894 198.507 172.454 197.76C172.014 197 171.794 196.153 171.794 195.22C171.794 194.3 172.014 193.473 172.454 192.74C172.894 191.993 173.487 191.4 174.234 190.96C174.98 190.52 175.82 190.3 176.754 190.3C177.674 190.3 178.507 190.52 179.254 190.96C180.014 191.387 180.614 191.973 181.054 192.72C181.494 193.467 181.714 194.3 181.714 195.22C181.714 196.153 181.494 197 181.054 197.76C180.614 198.507 180.014 199.1 179.254 199.54C178.507 199.98 177.674 200.2 176.754 200.2ZM176.754 198.46C177.354 198.46 177.887 198.32 178.354 198.04C178.82 197.76 179.187 197.38 179.454 196.9C179.72 196.407 179.854 195.847 179.854 195.22C179.854 194.607 179.714 194.06 179.434 193.58C179.167 193.1 178.8 192.727 178.334 192.46C177.88 192.18 177.354 192.04 176.754 192.04C176.154 192.04 175.62 192.18 175.154 192.46C174.687 192.727 174.32 193.1 174.054 193.58C173.787 194.06 173.654 194.607 173.654 195.22C173.654 195.847 173.787 196.407 174.054 196.9C174.32 197.38 174.687 197.76 175.154 198.04C175.62 198.32 176.154 198.46 176.754 198.46ZM187.582 200.2C186.795 200.2 186.089 200.027 185.462 199.68C184.849 199.32 184.369 198.827 184.022 198.2C183.675 197.573 183.502 196.847 183.502 196.02V190.5H185.302V195.94C185.302 196.46 185.389 196.913 185.562 197.3C185.749 197.673 186.015 197.96 186.362 198.16C186.709 198.36 187.115 198.46 187.582 198.46C188.289 198.46 188.842 198.24 189.242 197.8C189.642 197.347 189.842 196.727 189.842 195.94V190.5H191.642V196.02C191.642 196.847 191.469 197.573 191.122 198.2C190.775 198.827 190.295 199.32 189.682 199.68C189.082 200.027 188.382 200.2 187.582 200.2ZM194.054 200V190.5H195.854V200H194.054ZM195.854 194.58L195.174 194.28C195.174 193.067 195.454 192.1 196.014 191.38C196.574 190.66 197.381 190.3 198.434 190.3C198.914 190.3 199.348 190.387 199.734 190.56C200.121 190.72 200.481 190.993 200.814 191.38L199.634 192.6C199.434 192.387 199.214 192.233 198.974 192.14C198.734 192.047 198.454 192 198.134 192C197.468 192 196.921 192.213 196.494 192.64C196.068 193.067 195.854 193.713 195.854 194.58ZM210.933 200.2C210 200.2 209.16 199.98 208.413 199.54C207.667 199.1 207.073 198.507 206.633 197.76C206.193 197 205.973 196.153 205.973 195.22C205.973 194.3 206.193 193.473 206.633 192.74C207.073 191.993 207.667 191.4 208.413 190.96C209.16 190.52 210 190.3 210.933 190.3C211.853 190.3 212.687 190.52 213.433 190.96C214.193 191.387 214.793 191.973 215.233 192.72C215.673 193.467 215.893 194.3 215.893 195.22C215.893 196.153 215.673 197 215.233 197.76C214.793 198.507 214.193 199.1 213.433 199.54C212.687 199.98 211.853 200.2 210.933 200.2ZM210.933 198.46C211.533 198.46 212.067 198.32 212.533 198.04C213 197.76 213.367 197.38 213.633 196.9C213.9 196.407 214.033 195.847 214.033 195.22C214.033 194.607 213.893 194.06 213.613 193.58C213.347 193.1 212.98 192.727 212.513 192.46C212.06 192.18 211.533 192.04 210.933 192.04C210.333 192.04 209.8 192.18 209.333 192.46C208.867 192.727 208.5 193.1 208.233 193.58C207.967 194.06 207.833 194.607 207.833 195.22C207.833 195.847 207.967 196.407 208.233 196.9C208.5 197.38 208.867 197.76 209.333 198.04C209.8 198.32 210.333 198.46 210.933 198.46ZM217.922 200V190.5H219.722V200H217.922ZM219.722 194.58L219.042 194.28C219.042 193.067 219.322 192.1 219.882 191.38C220.442 190.66 221.248 190.3 222.302 190.3C222.782 190.3 223.215 190.387 223.602 190.56C223.988 190.72 224.348 190.993 224.682 191.38L223.502 192.6C223.302 192.387 223.082 192.233 222.842 192.14C222.602 192.047 222.322 192 222.002 192C221.335 192 220.788 192.213 220.362 192.64C219.935 193.067 219.722 193.713 219.722 194.58ZM229.576 204.18C228.603 204.18 227.736 204 226.976 203.64C226.23 203.28 225.63 202.773 225.176 202.12L226.336 200.94C226.723 201.433 227.183 201.807 227.716 202.06C228.25 202.327 228.883 202.46 229.616 202.46C230.59 202.46 231.356 202.2 231.916 201.68C232.49 201.173 232.776 200.487 232.776 199.62V197.26L233.096 195.12L232.776 193V190.5H234.576V199.62C234.576 200.527 234.363 201.32 233.936 202C233.523 202.68 232.936 203.213 232.176 203.6C231.43 203.987 230.563 204.18 229.576 204.18ZM229.576 199.84C228.71 199.84 227.93 199.633 227.236 199.22C226.556 198.807 226.016 198.24 225.616 197.52C225.216 196.787 225.016 195.967 225.016 195.06C225.016 194.153 225.216 193.347 225.616 192.64C226.016 191.92 226.556 191.353 227.236 190.94C227.93 190.513 228.71 190.3 229.576 190.3C230.323 190.3 230.983 190.447 231.556 190.74C232.13 191.033 232.583 191.447 232.916 191.98C233.263 192.5 233.45 193.113 233.476 193.82V196.34C233.436 197.033 233.243 197.647 232.896 198.18C232.563 198.7 232.11 199.107 231.536 199.4C230.963 199.693 230.31 199.84 229.576 199.84ZM229.936 198.14C230.523 198.14 231.036 198.013 231.476 197.76C231.93 197.507 232.276 197.153 232.516 196.7C232.756 196.233 232.876 195.693 232.876 195.08C232.876 194.467 232.75 193.933 232.496 193.48C232.256 193.013 231.916 192.653 231.476 192.4C231.036 192.133 230.516 192 229.916 192C229.316 192 228.79 192.133 228.336 192.4C227.883 192.653 227.523 193.013 227.256 193.48C227.003 193.933 226.876 194.46 226.876 195.06C226.876 195.66 227.003 196.193 227.256 196.66C227.523 197.127 227.883 197.493 228.336 197.76C228.803 198.013 229.336 198.14 229.936 198.14ZM241.258 200.2C240.392 200.2 239.605 199.987 238.898 199.56C238.192 199.12 237.632 198.527 237.218 197.78C236.818 197.033 236.618 196.193 236.618 195.26C236.618 194.327 236.818 193.487 237.218 192.74C237.632 191.993 238.185 191.4 238.878 190.96C239.585 190.52 240.378 190.3 241.258 190.3C241.978 190.3 242.618 190.453 243.178 190.76C243.752 191.053 244.212 191.467 244.558 192C244.905 192.52 245.098 193.127 245.138 193.82V196.68C245.098 197.36 244.905 197.967 244.558 198.5C244.225 199.033 243.772 199.453 243.198 199.76C242.638 200.053 241.992 200.2 241.258 200.2ZM241.558 198.5C242.452 198.5 243.172 198.2 243.718 197.6C244.265 196.987 244.538 196.207 244.538 195.26C244.538 194.607 244.412 194.04 244.158 193.56C243.918 193.067 243.572 192.687 243.118 192.42C242.665 192.14 242.138 192 241.538 192C240.938 192 240.405 192.14 239.938 192.42C239.485 192.7 239.125 193.087 238.858 193.58C238.605 194.06 238.478 194.613 238.478 195.24C238.478 195.88 238.605 196.447 238.858 196.94C239.125 197.42 239.492 197.8 239.958 198.08C240.425 198.36 240.958 198.5 241.558 198.5ZM244.418 200V197.44L244.758 195.12L244.418 192.82V190.5H246.238V200H244.418ZM255.579 200V194.46C255.579 193.74 255.352 193.147 254.899 192.68C254.446 192.213 253.859 191.98 253.139 191.98C252.659 191.98 252.232 192.087 251.859 192.3C251.486 192.513 251.192 192.807 250.979 193.18C250.766 193.553 250.659 193.98 250.659 194.46L249.919 194.04C249.919 193.32 250.079 192.68 250.399 192.12C250.719 191.56 251.166 191.12 251.739 190.8C252.312 190.467 252.959 190.3 253.679 190.3C254.399 190.3 255.032 190.48 255.579 190.84C256.139 191.2 256.579 191.673 256.899 192.26C257.219 192.833 257.379 193.447 257.379 194.1V200H255.579ZM248.859 200V190.5H250.659V200H248.859ZM259.836 200V190.5H261.636V200H259.836ZM260.736 188.6C260.403 188.6 260.129 188.493 259.916 188.28C259.703 188.053 259.596 187.773 259.596 187.44C259.596 187.12 259.703 186.853 259.916 186.64C260.129 186.413 260.403 186.3 260.736 186.3C261.069 186.3 261.343 186.413 261.556 186.64C261.769 186.853 261.876 187.12 261.876 187.44C261.876 187.773 261.769 188.053 261.556 188.28C261.343 188.493 261.069 188.6 260.736 188.6ZM263.529 199.02L269.169 191.48H271.289L265.649 199.02H263.529ZM263.529 200V199.02L265.129 198.36H271.169V200H263.529ZM263.869 192.14V190.5H271.289V191.48L269.629 192.14H263.869ZM277.098 200.2C276.232 200.2 275.445 199.987 274.738 199.56C274.032 199.12 273.472 198.527 273.058 197.78C272.658 197.033 272.458 196.193 272.458 195.26C272.458 194.327 272.658 193.487 273.058 192.74C273.472 191.993 274.025 191.4 274.718 190.96C275.425 190.52 276.218 190.3 277.098 190.3C277.818 190.3 278.458 190.453 279.018 190.76C279.592 191.053 280.052 191.467 280.398 192C280.745 192.52 280.938 193.127 280.978 193.82V196.68C280.938 197.36 280.745 197.967 280.398 198.5C280.065 199.033 279.612 199.453 279.038 199.76C278.478 200.053 277.832 200.2 277.098 200.2ZM277.398 198.5C278.292 198.5 279.012 198.2 279.558 197.6C280.105 196.987 280.378 196.207 280.378 195.26C280.378 194.607 280.252 194.04 279.998 193.56C279.758 193.067 279.412 192.687 278.958 192.42C278.505 192.14 277.978 192 277.378 192C276.778 192 276.245 192.14 275.778 192.42C275.325 192.7 274.965 193.087 274.698 193.58C274.445 194.06 274.318 194.613 274.318 195.24C274.318 195.88 274.445 196.447 274.698 196.94C274.965 197.42 275.332 197.8 275.798 198.08C276.265 198.36 276.798 198.5 277.398 198.5ZM280.258 200V197.44L280.598 195.12L280.258 192.82V190.5H282.078V200H280.258ZM286.12 200V186.52H287.92V200H286.12ZM283.78 192.14V190.5H290.26V192.14H283.78ZM292.043 200V190.5H293.843V200H292.043ZM292.943 188.6C292.61 188.6 292.336 188.493 292.123 188.28C291.91 188.053 291.803 187.773 291.803 187.44C291.803 187.12 291.91 186.853 292.123 186.64C292.336 186.413 292.61 186.3 292.943 186.3C293.276 186.3 293.55 186.413 293.763 186.64C293.976 186.853 294.083 187.12 294.083 187.44C294.083 187.773 293.976 188.053 293.763 188.28C293.55 188.493 293.276 188.6 292.943 188.6ZM300.836 200.2C299.902 200.2 299.062 199.98 298.316 199.54C297.569 199.1 296.976 198.507 296.536 197.76C296.096 197 295.876 196.153 295.876 195.22C295.876 194.3 296.096 193.473 296.536 192.74C296.976 191.993 297.569 191.4 298.316 190.96C299.062 190.52 299.902 190.3 300.836 190.3C301.756 190.3 302.589 190.52 303.336 190.96C304.096 191.387 304.696 191.973 305.136 192.72C305.576 193.467 305.796 194.3 305.796 195.22C305.796 196.153 305.576 197 305.136 197.76C304.696 198.507 304.096 199.1 303.336 199.54C302.589 199.98 301.756 200.2 300.836 200.2ZM300.836 198.46C301.436 198.46 301.969 198.32 302.436 198.04C302.902 197.76 303.269 197.38 303.536 196.9C303.802 196.407 303.936 195.847 303.936 195.22C303.936 194.607 303.796 194.06 303.516 193.58C303.249 193.1 302.882 192.727 302.416 192.46C301.962 192.18 301.436 192.04 300.836 192.04C300.236 192.04 299.702 192.18 299.236 192.46C298.769 192.727 298.402 193.1 298.136 193.58C297.869 194.06 297.736 194.607 297.736 195.22C297.736 195.847 297.869 196.407 298.136 196.9C298.402 197.38 298.769 197.76 299.236 198.04C299.702 198.32 300.236 198.46 300.836 198.46ZM314.544 200V194.46C314.544 193.74 314.317 193.147 313.864 192.68C313.411 192.213 312.824 191.98 312.104 191.98C311.624 191.98 311.197 192.087 310.824 192.3C310.451 192.513 310.157 192.807 309.944 193.18C309.731 193.553 309.624 193.98 309.624 194.46L308.884 194.04C308.884 193.32 309.044 192.68 309.364 192.12C309.684 191.56 310.131 191.12 310.704 190.8C311.277 190.467 311.924 190.3 312.644 190.3C313.364 190.3 313.997 190.48 314.544 190.84C315.104 191.2 315.544 191.673 315.864 192.26C316.184 192.833 316.344 193.447 316.344 194.1V200H314.544ZM307.824 200V190.5H309.624V200H307.824Z" fill="black"/>
<g filter="url(#filter1_b_7139_1012)">
<circle cx="425.5" cy="37.5" r="37.5" fill="url(#paint1_linear_7139_1012)"/>
</g>
<path d="M440.962 36.2407C440.873 35.6359 440.604 35.1091 440.353 34.6784C440.292 34.573 440.181 34.4722 440.041 34.3944C439.813 34.2615 439.562 34.2661 439.251 34.4127L432.622 37.5052L432.487 37.5648L432.417 37.0791C432.362 36.6989 432.306 36.3232 432.255 35.9521C432.139 35.0724 431.427 29.6341 431.427 29.6341C431.213 28.0214 431.004 26.4133 430.795 24.8006C430.614 23.3986 429.507 22.267 428.103 22.0425C427.615 21.9646 427.099 21.9921 426.407 22.1387C426.295 22.1616 426.174 22.2303 426.058 22.3311C425.793 22.5648 425.798 22.8718 425.826 23.0871C426.142 25.4878 426.453 27.8886 426.765 30.2801L426.779 30.3947L426.314 30.3168C425.946 30.2572 425.584 30.1977 425.226 30.1289C421.572 29.4554 417.923 28.7774 414.274 28.0947C413.73 27.9939 413.019 27.9252 412.461 28.0947C410.941 28.5437 410.141 29.6204 410.002 31.3889C409.983 31.6592 410.127 31.902 410.397 32.044C410.522 32.1082 410.666 32.1402 410.801 32.1677C412.707 32.5251 417.937 33.4964 417.937 33.4964L418.114 33.533L418.067 33.6063C418.034 33.6567 418.002 33.7071 417.974 33.7575L417.565 34.5135C417.333 34.9441 417.095 35.3748 416.858 35.8009L411.875 44.7899C411.15 46.1002 411.368 47.6625 412.419 48.6704C412.763 49.0003 413.167 49.2156 413.595 49.4447C414.13 49.7334 414.562 49.6051 414.855 49.0782L418.365 42.7511L418.439 42.6182L424.901 49.3577C425.723 50.219 426.546 51.0803 427.374 51.9371C428.034 52.6243 428.889 53 429.786 53C430.228 53 430.665 52.9084 431.093 52.7251C431.678 52.4731 432.134 52.047 432.538 51.621C432.617 51.5385 432.678 51.4194 432.715 51.2865C432.794 51.007 432.715 50.7505 432.469 50.4939C431.116 49.0874 427.415 45.216 427.415 45.216L427.323 45.1106L427.546 45.0144C427.722 44.9411 427.894 44.8632 428.066 44.7853L429.456 44.121C430.116 43.8048 430.781 43.4887 431.446 43.1772C432.822 42.5312 434.193 41.8898 435.574 41.2483L439.079 39.6127C440.432 38.9805 441.171 37.6518 440.966 36.2315L440.962 36.2407ZM429.219 38.2658C426.867 38.9209 425.338 40.4237 424.677 42.7465C424.663 42.6869 424.65 42.6274 424.631 42.5678C423.92 40.332 422.404 38.8843 420.131 38.2658C422.497 37.6106 424.027 36.0987 424.682 33.7667C424.705 33.84 424.729 33.9133 424.747 33.9912C424.817 34.2294 424.887 34.4722 424.994 34.7059C425.83 36.5477 427.253 37.748 429.219 38.2703V38.2658Z" fill="white"/>
<defs>
<filter id="filter0_b_7139_1012" x="-14" y="6" width="520.548" height="268" filterUnits="userSpaceOnUse" color-interpolation-filters="sRGB">
<feFlood flood-opacity="0" result="BackgroundImageFix"/>
<feGaussianBlur in="BackgroundImageFix" stdDeviation="7"/>
<feComposite in2="SourceAlpha" operator="in" result="effect1_backgroundBlur_7139_1012"/>
<feBlend mode="normal" in="SourceGraphic" in2="effect1_backgroundBlur_7139_1012" result="shape"/>
</filter>
<filter id="filter1_b_7139_1012" x="378" y="-10" width="95" height="95" filterUnits="userSpaceOnUse" color-interpolation-filters="sRGB">
<feFlood flood-opacity="0" result="BackgroundImageFix"/>
<feGaussianBlur in="BackgroundImageFix" stdDeviation="5"/>
<feComposite in2="SourceAlpha" operator="in" result="effect1_backgroundBlur_7139_1012"/>
<feBlend mode="normal" in="SourceGraphic" in2="effect1_backgroundBlur_7139_1012" result="shape"/>
</filter>
<linearGradient id="paint0_linear_7139_1012" x1="492.548" y1="140" x2="0" y2="140" gradientUnits="userSpaceOnUse">
<stop stop-color="#2DD5C3"/>
<stop offset="0.33" stop-color="#0076FF"/>
<stop offset="0.625" stop-color="#FCFEFF"/>
<stop offset="0.92" stop-color="#0886F5"/>
</linearGradient>
<linearGradient id="paint1_linear_7139_1012" x1="463" y1="37.5" x2="388" y2="37.5" gradientUnits="userSpaceOnUse">
<stop stop-color="#2DD5C3"/>
<stop offset="1" stop-color="#0076FF"/>
</linearGradient>
</defs>
</svg>
