<svg width="75" height="75" viewBox="0 0 75 75" fill="none" xmlns="http://www.w3.org/2000/svg">
<g filter="url(#filter0_b_6947_12964)">
<circle cx="37.5" cy="37.5" r="37.5" fill="url(#paint0_linear_6947_12964)" fill-opacity="0.6"/>
</g>
<path d="M52.9617 36.2407C52.8733 35.6359 52.6037 35.1091 52.3527 34.6784C52.2923 34.573 52.1807 34.4722 52.0412 34.3944C51.8134 34.2615 51.5624 34.2661 51.251 34.4127L44.622 37.5052L44.4872 37.5648L44.4174 37.0791C44.3616 36.6989 44.3059 36.3232 44.2547 35.9521C44.1385 35.0724 43.4273 29.6341 43.4273 29.6341C43.2134 28.0214 43.0042 26.4133 42.795 24.8006C42.6138 23.3986 41.5074 22.267 40.1035 22.0425C39.6154 21.9646 39.0994 21.9921 38.4067 22.1387C38.2951 22.1616 38.1743 22.2303 38.0581 22.3311C37.7931 22.5648 37.7977 22.8718 37.8256 23.0871C38.1417 25.4878 38.4532 27.8886 38.7647 30.2801L38.7786 30.3947L38.3137 30.3168C37.9465 30.2572 37.5839 30.1977 37.226 30.1289C33.5721 29.4554 29.9229 28.7774 26.2737 28.0947C25.7298 27.9939 25.0186 27.9252 24.4607 28.0947C22.9406 28.5437 22.1411 29.6204 22.0016 31.3889C21.983 31.6592 22.1271 31.902 22.3967 32.044C22.5223 32.1082 22.6664 32.1402 22.8012 32.1677C24.7071 32.5251 29.9369 33.4964 29.9369 33.4964L30.1135 33.533L30.067 33.6063C30.0345 33.6567 30.0019 33.7071 29.974 33.7575L29.565 34.5135C29.3325 34.9441 29.0955 35.3748 28.8584 35.8009L23.875 44.7899C23.1498 46.1002 23.3683 47.6625 24.4189 48.6704C24.7629 49.0003 25.1673 49.2156 25.595 49.4447C26.1296 49.7334 26.5619 49.6051 26.8548 49.0782L30.3645 42.7511L30.4389 42.6182L36.9006 49.3577C37.7234 50.219 38.5462 51.0803 39.3736 51.9371C40.0337 52.6243 40.8891 53 41.7863 53C42.2279 53 42.6649 52.9084 43.0926 52.7251C43.6783 52.4731 44.1339 52.047 44.5383 51.621C44.6173 51.5385 44.6778 51.4194 44.7149 51.2865C44.794 51.007 44.7149 50.7505 44.4686 50.4939C43.1158 49.0874 39.4155 45.216 39.4155 45.216L39.3225 45.1106L39.5456 45.0144C39.7223 44.9411 39.8943 44.8632 40.0663 44.7853L41.4562 44.121C42.1163 43.8048 42.7811 43.4887 43.4459 43.1772C44.8219 42.5312 46.1932 41.8898 47.5739 41.2483L51.079 39.6127C52.4317 38.9805 53.1709 37.6518 52.9663 36.2315L52.9617 36.2407ZM41.2192 38.2658C38.8669 38.9209 37.3375 40.4237 36.6774 42.7465C36.6635 42.6869 36.6495 42.6274 36.6309 42.5678C35.9197 40.332 34.4042 38.8843 32.131 38.2658C34.4972 37.6106 36.0266 36.0987 36.6821 33.7667C36.7053 33.84 36.7285 33.9133 36.7471 33.9912C36.8169 34.2294 36.8866 34.4722 36.9935 34.7059C37.8303 36.5477 39.2528 37.748 41.2192 38.2703V38.2658Z" fill="white"/>
<defs>
<filter id="filter0_b_6947_12964" x="-10" y="-10" width="95" height="95" filterUnits="userSpaceOnUse" color-interpolation-filters="sRGB">
<feFlood flood-opacity="0" result="BackgroundImageFix"/>
<feGaussianBlur in="BackgroundImageFix" stdDeviation="5"/>
<feComposite in2="SourceAlpha" operator="in" result="effect1_backgroundBlur_6947_12964"/>
<feBlend mode="normal" in="SourceGraphic" in2="effect1_backgroundBlur_6947_12964" result="shape"/>
</filter>
<linearGradient id="paint0_linear_6947_12964" x1="75" y1="37.5" x2="0" y2="37.5" gradientUnits="userSpaceOnUse">
<stop stop-color="#2DD5C3"/>
<stop offset="1" stop-color="#0076FF"/>
</linearGradient>
</defs>
</svg>
