<svg xmlns="http://www.w3.org/2000/svg" width="657" height="657" viewBox="0 0 657 657" fill="none">
          <path d="M656.188 301.811C654.316 288.994 648.601 277.828 643.281 268.7C642 266.467 639.636 264.331 636.68 262.68C631.853 259.864 626.533 259.961 619.932 263.069L479.44 328.611L476.583 329.873L475.105 319.58C473.923 311.521 472.74 303.559 471.657 295.694C469.194 277.051 454.12 161.794 454.12 161.794C449.588 127.615 445.154 93.5335 440.721 59.3546C436.879 29.6422 413.43 5.65872 383.677 0.900858C373.332 -0.749828 362.396 -0.167232 347.717 2.93994C345.352 3.42544 342.79 4.88193 340.327 7.01811C334.712 11.9702 334.81 18.4758 335.401 23.0395C342.101 73.9194 348.702 124.799 355.303 175.485L355.598 177.913L345.746 176.262C337.963 175 330.278 173.737 322.692 172.281C245.254 158.007 167.915 143.637 90.5752 129.169C79.0482 127.033 63.9744 125.576 52.1518 129.169C19.9353 138.685 2.98957 161.503 0.0339273 198.983C-0.360159 204.712 2.69401 209.858 8.40826 212.868C11.0683 214.228 14.1225 214.907 16.9796 215.49C57.3735 223.064 168.21 243.649 168.21 243.649L171.954 244.426L170.969 245.979C170.279 247.047 169.59 248.115 168.998 249.183L160.329 265.205C155.402 274.332 150.378 283.459 145.353 292.49L39.7381 482.998C24.3688 510.769 28.9993 543.879 51.2651 565.241C58.5557 572.232 67.1271 576.796 76.1911 581.651C87.5211 587.768 96.6836 585.049 102.89 573.883L177.274 439.789L178.851 436.973L315.796 579.806C333.234 598.061 350.672 616.315 368.209 634.473C382.199 649.038 400.327 657 419.342 657C428.701 657 437.962 655.058 447.026 651.174C459.44 645.834 469.095 636.803 477.666 627.773C479.341 626.025 480.622 623.501 481.41 620.685C483.085 614.762 481.41 609.324 476.189 603.887C447.519 574.077 369.096 492.029 369.096 492.029L367.125 489.795L371.854 487.756C375.598 486.203 379.243 484.552 382.889 482.901L412.347 468.822C426.337 462.122 440.425 455.422 454.514 448.819C483.676 435.128 512.74 421.534 542.001 407.941L616.286 373.276C644.956 359.877 660.621 331.718 656.286 301.617L656.188 301.811ZM407.322 344.729C357.47 358.614 325.057 390.463 311.066 439.692C310.771 438.43 310.475 437.167 310.081 435.905C295.007 388.521 262.889 357.837 214.712 344.729C264.86 330.844 297.273 298.801 311.165 249.378C311.658 250.931 312.15 252.485 312.544 254.135C314.022 259.185 315.5 264.331 317.766 269.283C335.5 308.317 365.647 333.757 407.322 344.826V344.729Z" fill="url(#paint0_linear_3351_1040)"/>
          <defs>
            <linearGradient id="paint0_linear_3351_1040" x1="0.0339273" y1="328.416" x2="656.877" y2="328.416" gradientUnits="userSpaceOnUse">
              <stop stop-color="#0076FF"/>
              <stop offset="1" stop-color="#2DD5C3"/>
            </linearGradient>
          </defs>
        </svg>