<svg width="493" height="260" viewBox="0 0 493 260" fill="none" xmlns="http://www.w3.org/2000/svg">
<g filter="url(#filter0_b_6951_1013)">
<rect y="20" width="492.548" height="240" rx="20" fill="white" fill-opacity="0.75"/>
<rect x="0.75" y="20.75" width="491.048" height="238.5" rx="19.25" stroke="url(#paint0_linear_6951_1013)" stroke-width="1.5"/>
</g>
<path d="M62.128 86.736V84.072H66.04C66.552 84.072 67.016 83.968 67.432 83.76C67.848 83.552 68.176 83.256 68.416 82.872C68.656 82.472 68.776 81.992 68.776 81.432C68.776 80.888 68.656 80.416 68.416 80.016C68.176 79.616 67.848 79.312 67.432 79.104C67.016 78.896 66.552 78.792 66.04 78.792H62.128V76.128H66.376C67.448 76.128 68.408 76.344 69.256 76.776C70.12 77.208 70.8 77.824 71.296 78.624C71.792 79.408 72.04 80.344 72.04 81.432C72.04 82.52 71.792 83.464 71.296 84.264C70.8 85.048 70.12 85.656 69.256 86.088C68.408 86.52 67.448 86.736 66.376 86.736H62.128ZM59.728 93V76.128H62.992V93H59.728ZM79.186 93.24C77.97 93.24 76.89 92.984 75.946 92.472C75.002 91.944 74.25 91.224 73.69 90.312C73.146 89.4 72.874 88.36 72.874 87.192C72.874 86.04 73.138 85.016 73.666 84.12C74.21 83.208 74.946 82.488 75.874 81.96C76.802 81.416 77.834 81.144 78.97 81.144C80.09 81.144 81.074 81.4 81.922 81.912C82.786 82.408 83.458 83.096 83.938 83.976C84.434 84.84 84.682 85.824 84.682 86.928C84.682 87.136 84.666 87.352 84.634 87.576C84.618 87.784 84.578 88.024 84.514 88.296L74.77 88.32V85.968L83.05 85.944L81.778 86.928C81.746 86.24 81.618 85.664 81.394 85.2C81.186 84.736 80.874 84.384 80.458 84.144C80.058 83.888 79.562 83.76 78.97 83.76C78.346 83.76 77.802 83.904 77.338 84.192C76.874 84.464 76.514 84.856 76.258 85.368C76.018 85.864 75.898 86.456 75.898 87.144C75.898 87.848 76.026 88.464 76.282 88.992C76.554 89.504 76.938 89.904 77.434 90.192C77.93 90.464 78.506 90.6 79.162 90.6C79.754 90.6 80.29 90.504 80.77 90.312C81.25 90.104 81.666 89.8 82.018 89.4L83.866 91.248C83.306 91.904 82.618 92.4 81.802 92.736C81.002 93.072 80.13 93.24 79.186 93.24ZM86.6264 93V81.408H89.7704V93H86.6264ZM89.7704 86.592L88.5464 85.776C88.6904 84.352 89.1064 83.232 89.7944 82.416C90.4824 81.584 91.4744 81.168 92.7704 81.168C93.3304 81.168 93.8344 81.264 94.2824 81.456C94.7304 81.632 95.1384 81.928 95.5064 82.344L93.5384 84.6C93.3624 84.408 93.1464 84.264 92.8904 84.168C92.6504 84.072 92.3704 84.024 92.0504 84.024C91.3784 84.024 90.8264 84.24 90.3944 84.672C89.9784 85.088 89.7704 85.728 89.7704 86.592ZM100.337 93.264C99.6809 93.264 99.0329 93.176 98.3929 93C97.7689 92.824 97.1929 92.584 96.6649 92.28C96.1369 91.96 95.6809 91.576 95.2969 91.128L97.1689 89.232C97.5689 89.68 98.0329 90.016 98.5609 90.24C99.0889 90.464 99.6729 90.576 100.313 90.576C100.825 90.576 101.209 90.504 101.465 90.36C101.737 90.216 101.873 90 101.873 89.712C101.873 89.392 101.729 89.144 101.441 88.968C101.169 88.792 100.809 88.648 100.361 88.536C99.9129 88.408 99.4409 88.272 98.9449 88.128C98.4649 87.968 98.0009 87.768 97.5529 87.528C97.1049 87.272 96.7369 86.928 96.4489 86.496C96.1769 86.048 96.0409 85.472 96.0409 84.768C96.0409 84.032 96.2169 83.392 96.5689 82.848C96.9369 82.304 97.4569 81.88 98.1289 81.576C98.8009 81.272 99.5929 81.12 100.505 81.12C101.465 81.12 102.329 81.288 103.097 81.624C103.881 81.96 104.529 82.464 105.041 83.136L103.145 85.032C102.793 84.6 102.393 84.288 101.945 84.096C101.513 83.904 101.041 83.808 100.529 83.808C100.065 83.808 99.7049 83.88 99.4489 84.024C99.2089 84.168 99.0889 84.368 99.0889 84.624C99.0889 84.912 99.2249 85.136 99.4969 85.296C99.7849 85.456 100.153 85.6 100.601 85.728C101.049 85.84 101.513 85.976 101.993 86.136C102.489 86.28 102.953 86.488 103.385 86.76C103.833 87.032 104.193 87.392 104.465 87.84C104.753 88.288 104.897 88.864 104.897 89.568C104.897 90.704 104.489 91.608 103.673 92.28C102.857 92.936 101.745 93.264 100.337 93.264ZM112.465 93.24C111.297 93.24 110.241 92.976 109.297 92.448C108.369 91.904 107.625 91.176 107.065 90.264C106.521 89.336 106.249 88.304 106.249 87.168C106.249 86.032 106.521 85.016 107.065 84.12C107.609 83.208 108.353 82.488 109.297 81.96C110.241 81.416 111.289 81.144 112.441 81.144C113.625 81.144 114.681 81.416 115.609 81.96C116.553 82.488 117.297 83.208 117.841 84.12C118.385 85.016 118.657 86.032 118.657 87.168C118.657 88.304 118.385 89.336 117.841 90.264C117.297 91.176 116.553 91.904 115.609 92.448C114.681 92.976 113.633 93.24 112.465 93.24ZM112.441 90.312C113.033 90.312 113.553 90.184 114.001 89.928C114.465 89.656 114.817 89.288 115.057 88.824C115.313 88.344 115.441 87.8 115.441 87.192C115.441 86.584 115.313 86.048 115.057 85.584C114.801 85.12 114.449 84.76 114.001 84.504C113.553 84.232 113.033 84.096 112.441 84.096C111.865 84.096 111.353 84.232 110.905 84.504C110.457 84.76 110.105 85.12 109.849 85.584C109.593 86.048 109.465 86.584 109.465 87.192C109.465 87.8 109.593 88.344 109.849 88.824C110.105 89.288 110.457 89.656 110.905 89.928C111.353 90.184 111.865 90.312 112.441 90.312ZM128.481 93V86.352C128.481 85.664 128.265 85.104 127.833 84.672C127.401 84.24 126.841 84.024 126.153 84.024C125.705 84.024 125.305 84.12 124.953 84.312C124.601 84.504 124.321 84.776 124.113 85.128C123.921 85.48 123.825 85.888 123.825 86.352L122.601 85.728C122.601 84.816 122.793 84.024 123.177 83.352C123.577 82.664 124.121 82.128 124.809 81.744C125.513 81.36 126.305 81.168 127.185 81.168C128.033 81.168 128.793 81.384 129.465 81.816C130.137 82.232 130.665 82.784 131.049 83.472C131.433 84.144 131.625 84.872 131.625 85.656V93H128.481ZM120.681 93V81.408H123.825V93H120.681ZM139.006 93.24C137.95 93.24 136.998 92.976 136.15 92.448C135.302 91.92 134.638 91.2 134.158 90.288C133.678 89.376 133.438 88.352 133.438 87.216C133.438 86.064 133.678 85.032 134.158 84.12C134.638 83.208 135.302 82.488 136.15 81.96C136.998 81.432 137.95 81.168 139.006 81.168C139.838 81.168 140.582 81.336 141.238 81.672C141.894 82.008 142.414 82.48 142.798 83.088C143.198 83.68 143.414 84.352 143.446 85.104V89.28C143.414 90.048 143.198 90.728 142.798 91.32C142.414 91.912 141.894 92.384 141.238 92.736C140.582 93.072 139.838 93.24 139.006 93.24ZM139.582 90.336C140.462 90.336 141.174 90.048 141.718 89.472C142.262 88.88 142.534 88.12 142.534 87.192C142.534 86.584 142.406 86.048 142.15 85.584C141.91 85.104 141.566 84.736 141.118 84.48C140.686 84.208 140.174 84.072 139.582 84.072C139.006 84.072 138.494 84.208 138.046 84.48C137.614 84.736 137.27 85.104 137.014 85.584C136.774 86.048 136.654 86.584 136.654 87.192C136.654 87.816 136.774 88.368 137.014 88.848C137.27 89.312 137.614 89.68 138.046 89.952C138.494 90.208 139.006 90.336 139.582 90.336ZM142.366 93V89.88L142.87 87.048L142.366 84.264V81.408H145.486V93H142.366ZM148.267 93V75.648H151.411V93H148.267ZM154.197 93V81.408H157.365V93H154.197ZM155.781 79.536C155.269 79.536 154.845 79.368 154.509 79.032C154.173 78.68 154.005 78.248 154.005 77.736C154.005 77.24 154.173 76.816 154.509 76.464C154.845 76.112 155.269 75.936 155.781 75.936C156.309 75.936 156.733 76.112 157.053 76.464C157.389 76.816 157.557 77.24 157.557 77.736C157.557 78.248 157.389 78.68 157.053 79.032C156.733 79.368 156.309 79.536 155.781 79.536ZM159.334 91.2L165.478 83.208H169.27L163.126 91.2H159.334ZM159.334 93V91.2L161.83 90.264H169.126V93H159.334ZM159.766 84.144V81.408H169.27V83.208L166.75 84.144H159.766ZM176.663 93.24C175.447 93.24 174.367 92.984 173.423 92.472C172.479 91.944 171.727 91.224 171.167 90.312C170.623 89.4 170.351 88.36 170.351 87.192C170.351 86.04 170.615 85.016 171.143 84.12C171.687 83.208 172.423 82.488 173.351 81.96C174.279 81.416 175.311 81.144 176.447 81.144C177.567 81.144 178.551 81.4 179.399 81.912C180.263 82.408 180.935 83.096 181.415 83.976C181.911 84.84 182.159 85.824 182.159 86.928C182.159 87.136 182.143 87.352 182.111 87.576C182.095 87.784 182.055 88.024 181.991 88.296L172.247 88.32V85.968L180.527 85.944L179.255 86.928C179.223 86.24 179.095 85.664 178.871 85.2C178.663 84.736 178.351 84.384 177.935 84.144C177.535 83.888 177.039 83.76 176.447 83.76C175.823 83.76 175.279 83.904 174.815 84.192C174.351 84.464 173.991 84.856 173.735 85.368C173.495 85.864 173.375 86.456 173.375 87.144C173.375 87.848 173.503 88.464 173.759 88.992C174.031 89.504 174.415 89.904 174.911 90.192C175.407 90.464 175.983 90.6 176.639 90.6C177.231 90.6 177.767 90.504 178.247 90.312C178.727 90.104 179.143 89.8 179.495 89.4L181.343 91.248C180.783 91.904 180.095 92.4 179.279 92.736C178.479 93.072 177.607 93.24 176.663 93.24ZM188.999 93.24C187.927 93.24 186.967 92.976 186.119 92.448C185.271 91.92 184.599 91.2 184.103 90.288C183.623 89.376 183.383 88.352 183.383 87.216C183.383 86.064 183.623 85.032 184.103 84.12C184.599 83.208 185.263 82.488 186.095 81.96C186.943 81.432 187.911 81.168 188.999 81.168C189.831 81.168 190.575 81.336 191.231 81.672C191.903 82.008 192.439 82.48 192.839 83.088C193.255 83.68 193.479 84.352 193.511 85.104V89.232C193.479 89.984 193.263 90.664 192.863 91.272C192.463 91.88 191.927 92.36 191.255 92.712C190.583 93.064 189.831 93.24 188.999 93.24ZM189.527 90.336C190.119 90.336 190.631 90.208 191.063 89.952C191.511 89.68 191.855 89.312 192.095 88.848C192.351 88.368 192.479 87.816 192.479 87.192C192.479 86.584 192.351 86.048 192.095 85.584C191.855 85.104 191.511 84.736 191.063 84.48C190.631 84.208 190.127 84.072 189.551 84.072C188.959 84.072 188.439 84.208 187.991 84.48C187.559 84.752 187.215 85.12 186.959 85.584C186.719 86.048 186.599 86.584 186.599 87.192C186.599 87.816 186.719 88.368 186.959 88.848C187.215 89.312 187.567 89.68 188.015 89.952C188.463 90.208 188.967 90.336 189.527 90.336ZM195.431 93H192.311V89.88L192.815 87.048L192.287 84.264V75.648H195.431V93ZM201.308 93L208.1 76.128H210.764L217.532 93H214.052L208.82 79.152H210.02L204.716 93H201.308ZM204.908 89.856V87.12H213.98V89.856H204.908ZM219.525 93V76.128H222.789V93H219.525ZM230.939 93V76.128H234.203V93H230.939ZM233.339 86.088V83.184H241.835V86.088H233.339ZM233.339 79.008V76.128H242.243V79.008H233.339ZM249.551 93.24C248.383 93.24 247.327 92.976 246.383 92.448C245.455 91.904 244.711 91.176 244.151 90.264C243.607 89.336 243.335 88.304 243.335 87.168C243.335 86.032 243.607 85.016 244.151 84.12C244.695 83.208 245.439 82.488 246.383 81.96C247.327 81.416 248.375 81.144 249.527 81.144C250.711 81.144 251.767 81.416 252.695 81.96C253.639 82.488 254.383 83.208 254.927 84.12C255.471 85.016 255.743 86.032 255.743 87.168C255.743 88.304 255.471 89.336 254.927 90.264C254.383 91.176 253.639 91.904 252.695 92.448C251.767 92.976 250.719 93.24 249.551 93.24ZM249.527 90.312C250.119 90.312 250.639 90.184 251.087 89.928C251.551 89.656 251.903 89.288 252.143 88.824C252.399 88.344 252.527 87.8 252.527 87.192C252.527 86.584 252.399 86.048 252.143 85.584C251.887 85.12 251.535 84.76 251.087 84.504C250.639 84.232 250.119 84.096 249.527 84.096C248.951 84.096 248.439 84.232 247.991 84.504C247.543 84.76 247.191 85.12 246.935 85.584C246.679 86.048 246.551 86.584 246.551 87.192C246.551 87.8 246.679 88.344 246.935 88.824C247.191 89.288 247.543 89.656 247.991 89.928C248.439 90.184 248.951 90.312 249.527 90.312ZM257.767 93V81.408H260.911V93H257.767ZM260.911 86.592L259.687 85.776C259.831 84.352 260.247 83.232 260.935 82.416C261.623 81.584 262.615 81.168 263.911 81.168C264.471 81.168 264.975 81.264 265.423 81.456C265.871 81.632 266.279 81.928 266.647 82.344L264.679 84.6C264.503 84.408 264.287 84.264 264.031 84.168C263.791 84.072 263.511 84.024 263.191 84.024C262.519 84.024 261.967 84.24 261.535 84.672C261.119 85.088 260.911 85.728 260.911 86.592ZM271.269 93L278.061 76.128H280.725L287.493 93H284.013L278.781 79.152H279.981L274.677 93H271.269ZM274.869 89.856V87.12H283.941V89.856H274.869ZM289.337 93V75.648H292.481V93H289.337ZM295.267 93V75.648H298.411V93H295.267Z" fill="black"/>
<path d="M62.88 135V133.28H66.74C67.7667 133.28 68.6667 133.06 69.44 132.62C70.2133 132.167 70.8133 131.547 71.24 130.76C71.68 129.973 71.9 129.067 71.9 128.04C71.9 127.027 71.68 126.127 71.24 125.34C70.8 124.553 70.1933 123.94 69.42 123.5C68.6467 123.06 67.7533 122.84 66.74 122.84H62.9V121.12H66.78C67.7933 121.12 68.7267 121.293 69.58 121.64C70.4467 121.987 71.1933 122.473 71.82 123.1C72.46 123.727 72.9533 124.46 73.3 125.3C73.66 126.14 73.84 127.06 73.84 128.06C73.84 129.047 73.66 129.967 73.3 130.82C72.9533 131.66 72.4667 132.393 71.84 133.02C71.2133 133.647 70.4667 134.133 69.6 134.48C68.7467 134.827 67.82 135 66.82 135H62.88ZM61.64 135V121.12H63.52V135H61.64ZM80.5247 135.2C79.578 135.2 78.7247 134.987 77.9647 134.56C77.2047 134.12 76.6047 133.527 76.1647 132.78C75.7247 132.033 75.5047 131.187 75.5047 130.24C75.5047 129.307 75.718 128.467 76.1447 127.72C76.5847 126.973 77.1714 126.387 77.9047 125.96C78.6514 125.52 79.4847 125.3 80.4047 125.3C81.2847 125.3 82.058 125.5 82.7247 125.9C83.4047 126.3 83.9314 126.853 84.3047 127.56C84.6914 128.267 84.8847 129.067 84.8847 129.96C84.8847 130.093 84.878 130.24 84.8647 130.4C84.8514 130.547 84.8247 130.72 84.7847 130.92H76.7647V129.42H83.8247L83.1647 130C83.1647 129.36 83.0514 128.82 82.8247 128.38C82.598 127.927 82.278 127.58 81.8647 127.34C81.4514 127.087 80.9514 126.96 80.3647 126.96C79.7514 126.96 79.2114 127.093 78.7447 127.36C78.278 127.627 77.918 128 77.6647 128.48C77.4114 128.96 77.2847 129.527 77.2847 130.18C77.2847 130.847 77.418 131.433 77.6847 131.94C77.9514 132.433 78.3314 132.82 78.8247 133.1C79.318 133.367 79.8847 133.5 80.5247 133.5C81.058 133.5 81.5447 133.407 81.9847 133.22C82.438 133.033 82.8247 132.753 83.1447 132.38L84.3047 133.56C83.8514 134.093 83.2914 134.5 82.6247 134.78C81.9714 135.06 81.2714 135.2 80.5247 135.2ZM89.8673 135.2C89.334 135.2 88.8273 135.133 88.3473 135C87.8807 134.853 87.4473 134.653 87.0473 134.4C86.6473 134.133 86.3007 133.82 86.0073 133.46L87.1673 132.3C87.514 132.727 87.914 133.047 88.3673 133.26C88.8207 133.46 89.3273 133.56 89.8873 133.56C90.4473 133.56 90.8807 133.467 91.1873 133.28C91.494 133.08 91.6473 132.807 91.6473 132.46C91.6473 132.113 91.5207 131.847 91.2673 131.66C91.0273 131.46 90.714 131.3 90.3273 131.18C89.9407 131.047 89.5273 130.92 89.0873 130.8C88.6607 130.667 88.254 130.5 87.8673 130.3C87.4807 130.1 87.1607 129.827 86.9073 129.48C86.6673 129.133 86.5473 128.673 86.5473 128.1C86.5473 127.527 86.6873 127.033 86.9673 126.62C87.2473 126.193 87.634 125.867 88.1273 125.64C88.634 125.413 89.2407 125.3 89.9473 125.3C90.694 125.3 91.354 125.433 91.9273 125.7C92.514 125.953 92.994 126.34 93.3673 126.86L92.2073 128.02C91.9407 127.673 91.6073 127.407 91.2073 127.22C90.8207 127.033 90.3807 126.94 89.8873 126.94C89.3673 126.94 88.9673 127.033 88.6873 127.22C88.4207 127.393 88.2873 127.64 88.2873 127.96C88.2873 128.28 88.4073 128.527 88.6473 128.7C88.8873 128.873 89.2007 129.02 89.5873 129.14C89.9873 129.26 90.4007 129.387 90.8273 129.52C91.254 129.64 91.6607 129.807 92.0473 130.02C92.434 130.233 92.7473 130.52 92.9873 130.88C93.2407 131.24 93.3673 131.713 93.3673 132.3C93.3673 133.193 93.0473 133.9 92.4073 134.42C91.7807 134.94 90.934 135.2 89.8673 135.2ZM95.4025 135V125.5H97.2025V135H95.4025ZM96.3025 123.6C95.9692 123.6 95.6958 123.493 95.4825 123.28C95.2692 123.053 95.1625 122.773 95.1625 122.44C95.1625 122.12 95.2692 121.853 95.4825 121.64C95.6958 121.413 95.9692 121.3 96.3025 121.3C96.6358 121.3 96.9092 121.413 97.1225 121.64C97.3358 121.853 97.4425 122.12 97.4425 122.44C97.4425 122.773 97.3358 123.053 97.1225 123.28C96.9092 123.493 96.6358 123.6 96.3025 123.6ZM103.795 139.18C102.822 139.18 101.955 139 101.195 138.64C100.448 138.28 99.8485 137.773 99.3952 137.12L100.555 135.94C100.942 136.433 101.402 136.807 101.935 137.06C102.468 137.327 103.102 137.46 103.835 137.46C104.808 137.46 105.575 137.2 106.135 136.68C106.708 136.173 106.995 135.487 106.995 134.62V132.26L107.315 130.12L106.995 128V125.5H108.795V134.62C108.795 135.527 108.582 136.32 108.155 137C107.742 137.68 107.155 138.213 106.395 138.6C105.648 138.987 104.782 139.18 103.795 139.18ZM103.795 134.84C102.928 134.84 102.148 134.633 101.455 134.22C100.775 133.807 100.235 133.24 99.8352 132.52C99.4352 131.787 99.2352 130.967 99.2352 130.06C99.2352 129.153 99.4352 128.347 99.8352 127.64C100.235 126.92 100.775 126.353 101.455 125.94C102.148 125.513 102.928 125.3 103.795 125.3C104.542 125.3 105.202 125.447 105.775 125.74C106.348 126.033 106.802 126.447 107.135 126.98C107.482 127.5 107.668 128.113 107.695 128.82V131.34C107.655 132.033 107.462 132.647 107.115 133.18C106.782 133.7 106.328 134.107 105.755 134.4C105.182 134.693 104.528 134.84 103.795 134.84ZM104.155 133.14C104.742 133.14 105.255 133.013 105.695 132.76C106.148 132.507 106.495 132.153 106.735 131.7C106.975 131.233 107.095 130.693 107.095 130.08C107.095 129.467 106.968 128.933 106.715 128.48C106.475 128.013 106.135 127.653 105.695 127.4C105.255 127.133 104.735 127 104.135 127C103.535 127 103.008 127.133 102.555 127.4C102.102 127.653 101.742 128.013 101.475 128.48C101.222 128.933 101.095 129.46 101.095 130.06C101.095 130.66 101.222 131.193 101.475 131.66C101.742 132.127 102.102 132.493 102.555 132.76C103.022 133.013 103.555 133.14 104.155 133.14ZM118.157 135V129.46C118.157 128.74 117.931 128.147 117.477 127.68C117.024 127.213 116.437 126.98 115.717 126.98C115.237 126.98 114.811 127.087 114.437 127.3C114.064 127.513 113.771 127.807 113.557 128.18C113.344 128.553 113.237 128.98 113.237 129.46L112.497 129.04C112.497 128.32 112.657 127.68 112.977 127.12C113.297 126.56 113.744 126.12 114.317 125.8C114.891 125.467 115.537 125.3 116.257 125.3C116.977 125.3 117.611 125.48 118.157 125.84C118.717 126.2 119.157 126.673 119.477 127.26C119.797 127.833 119.957 128.447 119.957 129.1V135H118.157ZM111.437 135V125.5H113.237V135H111.437ZM126.794 135.2C125.848 135.2 124.994 134.987 124.234 134.56C123.474 134.12 122.874 133.527 122.434 132.78C121.994 132.033 121.774 131.187 121.774 130.24C121.774 129.307 121.988 128.467 122.414 127.72C122.854 126.973 123.441 126.387 124.174 125.96C124.921 125.52 125.754 125.3 126.674 125.3C127.554 125.3 128.328 125.5 128.994 125.9C129.674 126.3 130.201 126.853 130.574 127.56C130.961 128.267 131.154 129.067 131.154 129.96C131.154 130.093 131.148 130.24 131.134 130.4C131.121 130.547 131.094 130.72 131.054 130.92H123.034V129.42H130.094L129.434 130C129.434 129.36 129.321 128.82 129.094 128.38C128.868 127.927 128.548 127.58 128.134 127.34C127.721 127.087 127.221 126.96 126.634 126.96C126.021 126.96 125.481 127.093 125.014 127.36C124.548 127.627 124.188 128 123.934 128.48C123.681 128.96 123.554 129.527 123.554 130.18C123.554 130.847 123.688 131.433 123.954 131.94C124.221 132.433 124.601 132.82 125.094 133.1C125.588 133.367 126.154 133.5 126.794 133.5C127.328 133.5 127.814 133.407 128.254 133.22C128.708 133.033 129.094 132.753 129.414 132.38L130.574 133.56C130.121 134.093 129.561 134.5 128.894 134.78C128.241 135.06 127.541 135.2 126.794 135.2ZM137.137 135.2C136.257 135.2 135.47 134.987 134.777 134.56C134.084 134.12 133.53 133.527 133.117 132.78C132.717 132.033 132.517 131.193 132.517 130.26C132.517 129.327 132.717 128.487 133.117 127.74C133.53 126.993 134.084 126.4 134.777 125.96C135.47 125.52 136.257 125.3 137.137 125.3C137.844 125.3 138.484 125.453 139.057 125.76C139.63 126.053 140.09 126.467 140.437 127C140.797 127.52 140.997 128.127 141.037 128.82V131.68C140.997 132.36 140.804 132.967 140.457 133.5C140.11 134.033 139.65 134.453 139.077 134.76C138.504 135.053 137.857 135.2 137.137 135.2ZM137.437 133.5C138.037 133.5 138.557 133.36 138.997 133.08C139.45 132.8 139.804 132.42 140.057 131.94C140.31 131.447 140.437 130.887 140.437 130.26C140.437 129.607 140.304 129.04 140.037 128.56C139.784 128.08 139.43 127.7 138.977 127.42C138.537 127.14 138.017 127 137.417 127C136.817 127 136.29 127.14 135.837 127.42C135.384 127.7 135.024 128.087 134.757 128.58C134.504 129.06 134.377 129.613 134.377 130.24C134.377 130.88 134.504 131.447 134.757 131.94C135.024 132.42 135.384 132.8 135.837 133.08C136.304 133.36 136.837 133.5 137.437 133.5ZM142.137 135H140.317V132.44L140.657 130.12L140.317 127.82V120.72H142.137V135ZM150.378 135V121.52H152.178V135H150.378ZM148.038 127.14V125.5H154.518V127.14H148.038ZM160.328 135.2C159.395 135.2 158.555 134.98 157.808 134.54C157.061 134.1 156.468 133.507 156.028 132.76C155.588 132 155.368 131.153 155.368 130.22C155.368 129.3 155.588 128.473 156.028 127.74C156.468 126.993 157.061 126.4 157.808 125.96C158.555 125.52 159.395 125.3 160.328 125.3C161.248 125.3 162.081 125.52 162.828 125.96C163.588 126.387 164.188 126.973 164.628 127.72C165.068 128.467 165.288 129.3 165.288 130.22C165.288 131.153 165.068 132 164.628 132.76C164.188 133.507 163.588 134.1 162.828 134.54C162.081 134.98 161.248 135.2 160.328 135.2ZM160.328 133.46C160.928 133.46 161.461 133.32 161.928 133.04C162.395 132.76 162.761 132.38 163.028 131.9C163.295 131.407 163.428 130.847 163.428 130.22C163.428 129.607 163.288 129.06 163.008 128.58C162.741 128.1 162.375 127.727 161.908 127.46C161.455 127.18 160.928 127.04 160.328 127.04C159.728 127.04 159.195 127.18 158.728 127.46C158.261 127.727 157.895 128.1 157.628 128.58C157.361 129.06 157.228 129.607 157.228 130.22C157.228 130.847 157.361 131.407 157.628 131.9C157.895 132.38 158.261 132.76 158.728 133.04C159.195 133.32 159.728 133.46 160.328 133.46ZM178.196 135V129.46C178.196 128.74 177.97 128.147 177.516 127.68C177.063 127.213 176.476 126.98 175.756 126.98C175.276 126.98 174.85 127.087 174.476 127.3C174.103 127.513 173.81 127.807 173.596 128.18C173.383 128.553 173.276 128.98 173.276 129.46L172.536 129.04C172.536 128.32 172.696 127.68 173.016 127.12C173.336 126.56 173.783 126.12 174.356 125.8C174.93 125.467 175.576 125.3 176.296 125.3C177.016 125.3 177.65 125.46 178.196 125.78C178.756 126.1 179.196 126.547 179.516 127.12C179.836 127.693 179.996 128.353 179.996 129.1V135H178.196ZM171.476 135V120.72H173.276V135H171.476ZM186.833 135.2C185.887 135.2 185.033 134.987 184.273 134.56C183.513 134.12 182.913 133.527 182.473 132.78C182.033 132.033 181.813 131.187 181.813 130.24C181.813 129.307 182.027 128.467 182.453 127.72C182.893 126.973 183.48 126.387 184.213 125.96C184.96 125.52 185.793 125.3 186.713 125.3C187.593 125.3 188.367 125.5 189.033 125.9C189.713 126.3 190.24 126.853 190.613 127.56C191 128.267 191.193 129.067 191.193 129.96C191.193 130.093 191.187 130.24 191.173 130.4C191.16 130.547 191.133 130.72 191.093 130.92H183.073V129.42H190.133L189.473 130C189.473 129.36 189.36 128.82 189.133 128.38C188.907 127.927 188.587 127.58 188.173 127.34C187.76 127.087 187.26 126.96 186.673 126.96C186.06 126.96 185.52 127.093 185.053 127.36C184.587 127.627 184.227 128 183.973 128.48C183.72 128.96 183.593 129.527 183.593 130.18C183.593 130.847 183.727 131.433 183.993 131.94C184.26 132.433 184.64 132.82 185.133 133.1C185.627 133.367 186.193 133.5 186.833 133.5C187.367 133.5 187.853 133.407 188.293 133.22C188.747 133.033 189.133 132.753 189.453 132.38L190.613 133.56C190.16 134.093 189.6 134.5 188.933 134.78C188.28 135.06 187.58 135.2 186.833 135.2ZM193.156 135V120.72H194.956V135H193.156ZM202.59 135.2C201.87 135.2 201.216 135.053 200.63 134.76C200.056 134.453 199.596 134.033 199.25 133.5C198.903 132.967 198.71 132.36 198.67 131.68V128.82C198.71 128.127 198.903 127.52 199.25 127C199.61 126.467 200.076 126.053 200.65 125.76C201.236 125.453 201.883 125.3 202.59 125.3C203.456 125.3 204.236 125.52 204.93 125.96C205.636 126.4 206.19 126.993 206.59 127.74C206.99 128.487 207.19 129.327 207.19 130.26C207.19 131.193 206.99 132.033 206.59 132.78C206.19 133.527 205.636 134.12 204.93 134.56C204.236 134.987 203.456 135.2 202.59 135.2ZM197.59 138.98V125.5H199.39V128L199.05 130.3L199.39 132.62V138.98H197.59ZM202.29 133.5C202.89 133.5 203.416 133.36 203.87 133.08C204.323 132.8 204.683 132.42 204.95 131.94C205.216 131.447 205.35 130.88 205.35 130.24C205.35 129.613 205.216 129.053 204.95 128.56C204.683 128.067 204.323 127.687 203.87 127.42C203.416 127.14 202.896 127 202.31 127C201.71 127 201.183 127.14 200.73 127.42C200.276 127.687 199.923 128.067 199.67 128.56C199.416 129.053 199.29 129.62 199.29 130.26C199.29 130.887 199.41 131.447 199.65 131.94C199.903 132.42 200.256 132.8 200.71 133.08C201.176 133.36 201.703 133.5 202.29 133.5ZM216.51 135.08L212.39 125.5H214.39L217.45 133H216.81L220.03 125.5H222.03L217.59 135.08H216.51ZM213.79 138.98L216.59 133.24L217.59 135.08L215.79 138.98H213.79ZM227.476 135.2C226.543 135.2 225.703 134.98 224.956 134.54C224.21 134.1 223.616 133.507 223.176 132.76C222.736 132 222.516 131.153 222.516 130.22C222.516 129.3 222.736 128.473 223.176 127.74C223.616 126.993 224.21 126.4 224.956 125.96C225.703 125.52 226.543 125.3 227.476 125.3C228.396 125.3 229.23 125.52 229.976 125.96C230.736 126.387 231.336 126.973 231.776 127.72C232.216 128.467 232.436 129.3 232.436 130.22C232.436 131.153 232.216 132 231.776 132.76C231.336 133.507 230.736 134.1 229.976 134.54C229.23 134.98 228.396 135.2 227.476 135.2ZM227.476 133.46C228.076 133.46 228.61 133.32 229.076 133.04C229.543 132.76 229.91 132.38 230.176 131.9C230.443 131.407 230.576 130.847 230.576 130.22C230.576 129.607 230.436 129.06 230.156 128.58C229.89 128.1 229.523 127.727 229.056 127.46C228.603 127.18 228.076 127.04 227.476 127.04C226.876 127.04 226.343 127.18 225.876 127.46C225.41 127.727 225.043 128.1 224.776 128.58C224.51 129.06 224.376 129.607 224.376 130.22C224.376 130.847 224.51 131.407 224.776 131.9C225.043 132.38 225.41 132.76 225.876 133.04C226.343 133.32 226.876 133.46 227.476 133.46ZM238.305 135.2C237.518 135.2 236.811 135.027 236.185 134.68C235.571 134.32 235.091 133.827 234.745 133.2C234.398 132.573 234.225 131.847 234.225 131.02V125.5H236.025V130.94C236.025 131.46 236.111 131.913 236.285 132.3C236.471 132.673 236.738 132.96 237.085 133.16C237.431 133.36 237.838 133.46 238.305 133.46C239.011 133.46 239.565 133.24 239.965 132.8C240.365 132.347 240.565 131.727 240.565 130.94V125.5H242.365V131.02C242.365 131.847 242.191 132.573 241.845 133.2C241.498 133.827 241.018 134.32 240.405 134.68C239.805 135.027 239.105 135.2 238.305 135.2ZM244.777 135V125.5H246.577V135H244.777ZM246.577 129.58L245.897 129.28C245.897 128.067 246.177 127.1 246.737 126.38C247.297 125.66 248.104 125.3 249.157 125.3C249.637 125.3 250.07 125.387 250.457 125.56C250.844 125.72 251.204 125.993 251.537 126.38L250.357 127.6C250.157 127.387 249.937 127.233 249.697 127.14C249.457 127.047 249.177 127 248.857 127C248.19 127 247.644 127.213 247.217 127.64C246.79 128.067 246.577 128.713 246.577 129.58ZM261.716 135.2C260.769 135.2 259.916 134.987 259.156 134.56C258.396 134.12 257.796 133.527 257.356 132.78C256.916 132.033 256.696 131.187 256.696 130.24C256.696 129.307 256.909 128.467 257.336 127.72C257.776 126.973 258.363 126.387 259.096 125.96C259.843 125.52 260.676 125.3 261.596 125.3C262.476 125.3 263.249 125.5 263.916 125.9C264.596 126.3 265.123 126.853 265.496 127.56C265.883 128.267 266.076 129.067 266.076 129.96C266.076 130.093 266.069 130.24 266.056 130.4C266.043 130.547 266.016 130.72 265.976 130.92H257.956V129.42H265.016L264.356 130C264.356 129.36 264.243 128.82 264.016 128.38C263.789 127.927 263.469 127.58 263.056 127.34C262.643 127.087 262.143 126.96 261.556 126.96C260.943 126.96 260.403 127.093 259.936 127.36C259.469 127.627 259.109 128 258.856 128.48C258.603 128.96 258.476 129.527 258.476 130.18C258.476 130.847 258.609 131.433 258.876 131.94C259.143 132.433 259.523 132.82 260.016 133.1C260.509 133.367 261.076 133.5 261.716 133.5C262.249 133.5 262.736 133.407 263.176 133.22C263.629 133.033 264.016 132.753 264.336 132.38L265.496 133.56C265.043 134.093 264.483 134.5 263.816 134.78C263.163 135.06 262.463 135.2 261.716 135.2ZM274.759 135V129.46C274.759 128.74 274.532 128.147 274.079 127.68C273.625 127.213 273.039 126.98 272.319 126.98C271.839 126.98 271.412 127.087 271.039 127.3C270.665 127.513 270.372 127.807 270.159 128.18C269.945 128.553 269.839 128.98 269.839 129.46L269.099 129.04C269.099 128.32 269.259 127.68 269.579 127.12C269.899 126.56 270.345 126.12 270.919 125.8C271.492 125.467 272.139 125.3 272.859 125.3C273.579 125.3 274.212 125.48 274.759 125.84C275.319 126.2 275.759 126.673 276.079 127.26C276.399 127.833 276.559 128.447 276.559 129.1V135H274.759ZM268.039 135V125.5H269.839V135H268.039ZM280.339 135V121.52H282.139V135H280.339ZM277.999 127.14V125.5H284.479V127.14H277.999ZM286.262 135V125.5H288.062V135H286.262ZM287.162 123.6C286.829 123.6 286.555 123.493 286.342 123.28C286.129 123.053 286.022 122.773 286.022 122.44C286.022 122.12 286.129 121.853 286.342 121.64C286.555 121.413 286.829 121.3 287.162 121.3C287.495 121.3 287.769 121.413 287.982 121.64C288.195 121.853 288.302 122.12 288.302 122.44C288.302 122.773 288.195 123.053 287.982 123.28C287.769 123.493 287.495 123.6 287.162 123.6ZM290.715 135V125.5H292.515V135H290.715ZM292.515 129.58L291.835 129.28C291.835 128.067 292.115 127.1 292.675 126.38C293.235 125.66 294.041 125.3 295.095 125.3C295.575 125.3 296.008 125.387 296.395 125.56C296.781 125.72 297.141 125.993 297.475 126.38L296.295 127.6C296.095 127.387 295.875 127.233 295.635 127.14C295.395 127.047 295.115 127 294.795 127C294.128 127 293.581 127.213 293.155 127.64C292.728 128.067 292.515 128.713 292.515 129.58ZM302.829 135.2C301.883 135.2 301.029 134.987 300.269 134.56C299.509 134.12 298.909 133.527 298.469 132.78C298.029 132.033 297.809 131.187 297.809 130.24C297.809 129.307 298.023 128.467 298.449 127.72C298.889 126.973 299.476 126.387 300.209 125.96C300.956 125.52 301.789 125.3 302.709 125.3C303.589 125.3 304.363 125.5 305.029 125.9C305.709 126.3 306.236 126.853 306.609 127.56C306.996 128.267 307.189 129.067 307.189 129.96C307.189 130.093 307.183 130.24 307.169 130.4C307.156 130.547 307.129 130.72 307.089 130.92H299.069V129.42H306.129L305.469 130C305.469 129.36 305.356 128.82 305.129 128.38C304.903 127.927 304.583 127.58 304.169 127.34C303.756 127.087 303.256 126.96 302.669 126.96C302.056 126.96 301.516 127.093 301.049 127.36C300.583 127.627 300.223 128 299.969 128.48C299.716 128.96 299.589 129.527 299.589 130.18C299.589 130.847 299.723 131.433 299.989 131.94C300.256 132.433 300.636 132.82 301.129 133.1C301.623 133.367 302.189 133.5 302.829 133.5C303.363 133.5 303.849 133.407 304.289 133.22C304.743 133.033 305.129 132.753 305.449 132.38L306.609 133.56C306.156 134.093 305.596 134.5 304.929 134.78C304.276 135.06 303.576 135.2 302.829 135.2ZM314.772 135V121.52H316.572V135H314.772ZM312.432 127.14V125.5H318.912V127.14H312.432ZM324.783 135.2C323.836 135.2 322.983 134.987 322.223 134.56C321.463 134.12 320.863 133.527 320.423 132.78C319.983 132.033 319.763 131.187 319.763 130.24C319.763 129.307 319.976 128.467 320.403 127.72C320.843 126.973 321.429 126.387 322.163 125.96C322.909 125.52 323.743 125.3 324.663 125.3C325.543 125.3 326.316 125.5 326.983 125.9C327.663 126.3 328.189 126.853 328.563 127.56C328.949 128.267 329.143 129.067 329.143 129.96C329.143 130.093 329.136 130.24 329.123 130.4C329.109 130.547 329.083 130.72 329.043 130.92H321.023V129.42H328.083L327.423 130C327.423 129.36 327.309 128.82 327.083 128.38C326.856 127.927 326.536 127.58 326.123 127.34C325.709 127.087 325.209 126.96 324.623 126.96C324.009 126.96 323.469 127.093 323.003 127.36C322.536 127.627 322.176 128 321.923 128.48C321.669 128.96 321.543 129.527 321.543 130.18C321.543 130.847 321.676 131.433 321.943 131.94C322.209 132.433 322.589 132.82 323.083 133.1C323.576 133.367 324.143 133.5 324.783 133.5C325.316 133.5 325.803 133.407 326.243 133.22C326.696 133.033 327.083 132.753 327.403 132.38L328.563 133.56C328.109 134.093 327.549 134.5 326.883 134.78C326.229 135.06 325.529 135.2 324.783 135.2ZM335.145 135.2C334.278 135.2 333.492 134.987 332.785 134.56C332.078 134.12 331.518 133.527 331.105 132.78C330.705 132.033 330.505 131.193 330.505 130.26C330.505 129.327 330.705 128.487 331.105 127.74C331.518 126.993 332.072 126.4 332.765 125.96C333.472 125.52 334.265 125.3 335.145 125.3C335.865 125.3 336.505 125.453 337.065 125.76C337.638 126.053 338.098 126.467 338.445 127C338.792 127.52 338.985 128.127 339.025 128.82V131.68C338.985 132.36 338.792 132.967 338.445 133.5C338.112 134.033 337.658 134.453 337.085 134.76C336.525 135.053 335.878 135.2 335.145 135.2ZM335.445 133.5C336.338 133.5 337.058 133.2 337.605 132.6C338.152 131.987 338.425 131.207 338.425 130.26C338.425 129.607 338.298 129.04 338.045 128.56C337.805 128.067 337.458 127.687 337.005 127.42C336.552 127.14 336.025 127 335.425 127C334.825 127 334.292 127.14 333.825 127.42C333.372 127.7 333.012 128.087 332.745 128.58C332.492 129.06 332.365 129.613 332.365 130.24C332.365 130.88 332.492 131.447 332.745 131.94C333.012 132.42 333.378 132.8 333.845 133.08C334.312 133.36 334.845 133.5 335.445 133.5ZM338.305 135V132.44L338.645 130.12L338.305 127.82V125.5H340.125V135H338.305ZM342.746 135V125.5H344.546V135H342.746ZM349.166 135V129.26C349.166 128.553 348.946 128 348.506 127.6C348.079 127.187 347.539 126.98 346.886 126.98C346.446 126.98 346.052 127.073 345.706 127.26C345.359 127.447 345.079 127.707 344.866 128.04C344.652 128.373 344.546 128.773 344.546 129.24L343.806 128.88C343.806 128.16 343.959 127.533 344.266 127C344.586 126.467 345.019 126.053 345.566 125.76C346.112 125.453 346.726 125.3 347.406 125.3C348.072 125.3 348.672 125.447 349.206 125.74C349.752 126.033 350.179 126.447 350.486 126.98C350.806 127.513 350.966 128.147 350.966 128.88V135H349.166ZM355.586 135V129.26C355.586 128.553 355.366 128 354.926 127.6C354.499 127.187 353.966 126.98 353.326 126.98C352.886 126.98 352.486 127.073 352.126 127.26C351.779 127.447 351.499 127.707 351.286 128.04C351.072 128.373 350.966 128.773 350.966 129.24L349.946 128.88C349.986 128.147 350.179 127.52 350.526 127C350.886 126.467 351.346 126.053 351.906 125.76C352.466 125.453 353.079 125.3 353.746 125.3C354.439 125.3 355.059 125.447 355.606 125.74C356.152 126.033 356.586 126.447 356.906 126.98C357.239 127.513 357.406 128.153 357.406 128.9V135H355.586ZM367.955 139.18C366.982 139.18 366.115 139 365.355 138.64C364.609 138.28 364.009 137.773 363.555 137.12L364.715 135.94C365.102 136.433 365.562 136.807 366.095 137.06C366.629 137.327 367.262 137.46 367.995 137.46C368.969 137.46 369.735 137.2 370.295 136.68C370.869 136.173 371.155 135.487 371.155 134.62V132.26L371.475 130.12L371.155 128V125.5H372.955V134.62C372.955 135.527 372.742 136.32 372.315 137C371.902 137.68 371.315 138.213 370.555 138.6C369.809 138.987 368.942 139.18 367.955 139.18ZM367.955 134.84C367.089 134.84 366.309 134.633 365.615 134.22C364.935 133.807 364.395 133.24 363.995 132.52C363.595 131.787 363.395 130.967 363.395 130.06C363.395 129.153 363.595 128.347 363.995 127.64C364.395 126.92 364.935 126.353 365.615 125.94C366.309 125.513 367.089 125.3 367.955 125.3C368.702 125.3 369.362 125.447 369.935 125.74C370.509 126.033 370.962 126.447 371.295 126.98C371.642 127.5 371.829 128.113 371.855 128.82V131.34C371.815 132.033 371.622 132.647 371.275 133.18C370.942 133.7 370.489 134.107 369.915 134.4C369.342 134.693 368.689 134.84 367.955 134.84ZM368.315 133.14C368.902 133.14 369.415 133.013 369.855 132.76C370.309 132.507 370.655 132.153 370.895 131.7C371.135 131.233 371.255 130.693 371.255 130.08C371.255 129.467 371.129 128.933 370.875 128.48C370.635 128.013 370.295 127.653 369.855 127.4C369.415 127.133 368.895 127 368.295 127C367.695 127 367.169 127.133 366.715 127.4C366.262 127.653 365.902 128.013 365.635 128.48C365.382 128.933 365.255 129.46 365.255 130.06C365.255 130.66 365.382 131.193 365.635 131.66C365.902 132.127 366.262 132.493 366.715 132.76C367.182 133.013 367.715 133.14 368.315 133.14ZM379.997 135.2C379.051 135.2 378.197 134.987 377.437 134.56C376.677 134.12 376.077 133.527 375.637 132.78C375.197 132.033 374.977 131.187 374.977 130.24C374.977 129.307 375.191 128.467 375.617 127.72C376.057 126.973 376.644 126.387 377.377 125.96C378.124 125.52 378.957 125.3 379.877 125.3C380.757 125.3 381.531 125.5 382.197 125.9C382.877 126.3 383.404 126.853 383.777 127.56C384.164 128.267 384.357 129.067 384.357 129.96C384.357 130.093 384.351 130.24 384.337 130.4C384.324 130.547 384.297 130.72 384.257 130.92H376.237V129.42H383.297L382.637 130C382.637 129.36 382.524 128.82 382.297 128.38C382.071 127.927 381.751 127.58 381.337 127.34C380.924 127.087 380.424 126.96 379.837 126.96C379.224 126.96 378.684 127.093 378.217 127.36C377.751 127.627 377.391 128 377.137 128.48C376.884 128.96 376.757 129.527 376.757 130.18C376.757 130.847 376.891 131.433 377.157 131.94C377.424 132.433 377.804 132.82 378.297 133.1C378.791 133.367 379.357 133.5 379.997 133.5C380.531 133.5 381.017 133.407 381.457 133.22C381.911 133.033 382.297 132.753 382.617 132.38L383.777 133.56C383.324 134.093 382.764 134.5 382.097 134.78C381.444 135.06 380.744 135.2 379.997 135.2ZM387.507 135V121.52H389.307V135H387.507ZM385.167 127.14V125.5H391.647V127.14H385.167ZM396.304 135L401.984 121.12H403.344L409.004 135H406.964L402.304 123.26H403.004L398.304 135H396.304ZM399.004 131.86V130.22H406.304V131.86H399.004ZM411.093 135V121.12H412.973V135H411.093ZM415.929 130.76V129.06H422.509V130.76H415.929ZM61.32 165V155.5H63.12V165H61.32ZM63.12 159.58L62.44 159.28C62.44 158.067 62.72 157.1 63.28 156.38C63.84 155.66 64.6467 155.3 65.7 155.3C66.18 155.3 66.6133 155.387 67 155.56C67.3867 155.72 67.7467 155.993 68.08 156.38L66.9 157.6C66.7 157.387 66.48 157.233 66.24 157.14C66 157.047 65.72 157 65.4 157C64.7333 157 64.1867 157.213 63.76 157.64C63.3333 158.067 63.12 158.713 63.12 159.58ZM73.4348 165.2C72.4882 165.2 71.6348 164.987 70.8748 164.56C70.1148 164.12 69.5148 163.527 69.0748 162.78C68.6348 162.033 68.4148 161.187 68.4148 160.24C68.4148 159.307 68.6282 158.467 69.0548 157.72C69.4948 156.973 70.0815 156.387 70.8148 155.96C71.5615 155.52 72.3948 155.3 73.3148 155.3C74.1948 155.3 74.9682 155.5 75.6348 155.9C76.3148 156.3 76.8415 156.853 77.2148 157.56C77.6015 158.267 77.7948 159.067 77.7948 159.96C77.7948 160.093 77.7882 160.24 77.7748 160.4C77.7615 160.547 77.7348 160.72 77.6948 160.92H69.6748V159.42H76.7348L76.0748 160C76.0748 159.36 75.9615 158.82 75.7348 158.38C75.5082 157.927 75.1882 157.58 74.7748 157.34C74.3615 157.087 73.8615 156.96 73.2748 156.96C72.6615 156.96 72.1215 157.093 71.6548 157.36C71.1882 157.627 70.8282 158 70.5748 158.48C70.3215 158.96 70.1948 159.527 70.1948 160.18C70.1948 160.847 70.3282 161.433 70.5948 161.94C70.8615 162.433 71.2415 162.82 71.7348 163.1C72.2282 163.367 72.7948 163.5 73.4348 163.5C73.9682 163.5 74.4548 163.407 74.8948 163.22C75.3482 163.033 75.7348 162.753 76.0548 162.38L77.2148 163.56C76.7615 164.093 76.2015 164.5 75.5348 164.78C74.8815 165.06 74.1815 165.2 73.4348 165.2ZM83.7975 165.2C82.9308 165.2 82.1442 164.987 81.4375 164.56C80.7308 164.12 80.1708 163.527 79.7575 162.78C79.3575 162.033 79.1575 161.193 79.1575 160.26C79.1575 159.327 79.3575 158.487 79.7575 157.74C80.1708 156.993 80.7242 156.4 81.4175 155.96C82.1242 155.52 82.9175 155.3 83.7975 155.3C84.5175 155.3 85.1575 155.453 85.7175 155.76C86.2908 156.053 86.7508 156.467 87.0975 157C87.4442 157.52 87.6375 158.127 87.6775 158.82V161.68C87.6375 162.36 87.4442 162.967 87.0975 163.5C86.7642 164.033 86.3108 164.453 85.7375 164.76C85.1775 165.053 84.5308 165.2 83.7975 165.2ZM84.0975 163.5C84.9908 163.5 85.7108 163.2 86.2575 162.6C86.8042 161.987 87.0775 161.207 87.0775 160.26C87.0775 159.607 86.9508 159.04 86.6975 158.56C86.4575 158.067 86.1108 157.687 85.6575 157.42C85.2042 157.14 84.6775 157 84.0775 157C83.4775 157 82.9442 157.14 82.4775 157.42C82.0242 157.7 81.6642 158.087 81.3975 158.58C81.1442 159.06 81.0175 159.613 81.0175 160.24C81.0175 160.88 81.1442 161.447 81.3975 161.94C81.6642 162.42 82.0308 162.8 82.4975 163.08C82.9642 163.36 83.4975 163.5 84.0975 163.5ZM86.9575 165V162.44L87.2975 160.12L86.9575 157.82V155.5H88.7775V165H86.9575ZM95.4181 165.2C94.5381 165.2 93.7515 164.987 93.0581 164.56C92.3648 164.12 91.8115 163.527 91.3981 162.78C90.9981 162.033 90.7981 161.193 90.7981 160.26C90.7981 159.327 90.9981 158.487 91.3981 157.74C91.8115 156.993 92.3648 156.4 93.0581 155.96C93.7515 155.52 94.5381 155.3 95.4181 155.3C96.1248 155.3 96.7648 155.453 97.3381 155.76C97.9115 156.053 98.3715 156.467 98.7181 157C99.0781 157.52 99.2781 158.127 99.3181 158.82V161.68C99.2781 162.36 99.0848 162.967 98.7381 163.5C98.3915 164.033 97.9315 164.453 97.3581 164.76C96.7848 165.053 96.1381 165.2 95.4181 165.2ZM95.7181 163.5C96.3181 163.5 96.8381 163.36 97.2781 163.08C97.7315 162.8 98.0848 162.42 98.3381 161.94C98.5915 161.447 98.7181 160.887 98.7181 160.26C98.7181 159.607 98.5848 159.04 98.3181 158.56C98.0648 158.08 97.7115 157.7 97.2581 157.42C96.8181 157.14 96.2981 157 95.6981 157C95.0981 157 94.5715 157.14 94.1181 157.42C93.6648 157.7 93.3048 158.087 93.0381 158.58C92.7848 159.06 92.6581 159.613 92.6581 160.24C92.6581 160.88 92.7848 161.447 93.0381 161.94C93.3048 162.42 93.6648 162.8 94.1181 163.08C94.5848 163.36 95.1181 163.5 95.7181 163.5ZM100.418 165H98.5981V162.44L98.9381 160.12L98.5981 157.82V150.72H100.418V165ZM106.159 165.08L102.039 155.5H104.039L107.099 163H106.459L109.679 155.5H111.679L107.239 165.08H106.159ZM103.439 168.98L106.239 163.24L107.239 165.08L105.439 168.98H103.439ZM120.192 165L116.432 155.5H118.312L121.032 162.9H120.432L123.132 155.5H124.172L126.872 162.9H126.272L128.992 155.5H130.872L127.132 165H126.072L123.332 157.82H123.992L121.232 165H120.192ZM132.336 165V155.5H134.136V165H132.336ZM133.236 153.6C132.903 153.6 132.629 153.493 132.416 153.28C132.203 153.053 132.096 152.773 132.096 152.44C132.096 152.12 132.203 151.853 132.416 151.64C132.629 151.413 132.903 151.3 133.236 151.3C133.569 151.3 133.843 151.413 134.056 151.64C134.269 151.853 134.376 152.12 134.376 152.44C134.376 152.773 134.269 153.053 134.056 153.28C133.843 153.493 133.569 153.6 133.236 153.6ZM138.249 165V151.52H140.049V165H138.249ZM135.909 157.14V155.5H142.389V157.14H135.909ZM150.872 165V159.46C150.872 158.74 150.645 158.147 150.192 157.68C149.739 157.213 149.152 156.98 148.432 156.98C147.952 156.98 147.525 157.087 147.152 157.3C146.779 157.513 146.485 157.807 146.272 158.18C146.059 158.553 145.952 158.98 145.952 159.46L145.212 159.04C145.212 158.32 145.372 157.68 145.692 157.12C146.012 156.56 146.459 156.12 147.032 155.8C147.605 155.467 148.252 155.3 148.972 155.3C149.692 155.3 150.325 155.46 150.872 155.78C151.432 156.1 151.872 156.547 152.192 157.12C152.512 157.693 152.672 158.353 152.672 159.1V165H150.872ZM144.152 165V150.72H145.952V165H144.152ZM164.269 165.2C163.549 165.2 162.896 165.053 162.309 164.76C161.736 164.453 161.276 164.033 160.929 163.5C160.583 162.967 160.389 162.36 160.349 161.68V158.82C160.389 158.127 160.583 157.52 160.929 157C161.289 156.467 161.756 156.053 162.329 155.76C162.916 155.453 163.563 155.3 164.269 155.3C165.136 155.3 165.916 155.52 166.609 155.96C167.316 156.4 167.869 156.993 168.269 157.74C168.669 158.487 168.869 159.327 168.869 160.26C168.869 161.193 168.669 162.033 168.269 162.78C167.869 163.527 167.316 164.12 166.609 164.56C165.916 164.987 165.136 165.2 164.269 165.2ZM159.269 168.98V155.5H161.069V158L160.729 160.3L161.069 162.62V168.98H159.269ZM163.969 163.5C164.569 163.5 165.096 163.36 165.549 163.08C166.003 162.8 166.363 162.42 166.629 161.94C166.896 161.447 167.029 160.88 167.029 160.24C167.029 159.613 166.896 159.053 166.629 158.56C166.363 158.067 166.003 157.687 165.549 157.42C165.096 157.14 164.576 157 163.989 157C163.389 157 162.863 157.14 162.409 157.42C161.956 157.687 161.603 158.067 161.349 158.56C161.096 159.053 160.969 159.62 160.969 160.26C160.969 160.887 161.089 161.447 161.329 161.94C161.583 162.42 161.936 162.8 162.389 163.08C162.856 163.36 163.383 163.5 163.969 163.5ZM175.31 165.2C174.363 165.2 173.51 164.987 172.75 164.56C171.99 164.12 171.39 163.527 170.95 162.78C170.51 162.033 170.29 161.187 170.29 160.24C170.29 159.307 170.503 158.467 170.93 157.72C171.37 156.973 171.957 156.387 172.69 155.96C173.437 155.52 174.27 155.3 175.19 155.3C176.07 155.3 176.843 155.5 177.51 155.9C178.19 156.3 178.717 156.853 179.09 157.56C179.477 158.267 179.67 159.067 179.67 159.96C179.67 160.093 179.663 160.24 179.65 160.4C179.637 160.547 179.61 160.72 179.57 160.92H171.55V159.42H178.61L177.95 160C177.95 159.36 177.837 158.82 177.61 158.38C177.383 157.927 177.063 157.58 176.65 157.34C176.237 157.087 175.737 156.96 175.15 156.96C174.537 156.96 173.997 157.093 173.53 157.36C173.063 157.627 172.703 158 172.45 158.48C172.197 158.96 172.07 159.527 172.07 160.18C172.07 160.847 172.203 161.433 172.47 161.94C172.737 162.433 173.117 162.82 173.61 163.1C174.103 163.367 174.67 163.5 175.31 163.5C175.843 163.5 176.33 163.407 176.77 163.22C177.223 163.033 177.61 162.753 177.93 162.38L179.09 163.56C178.637 164.093 178.077 164.5 177.41 164.78C176.757 165.06 176.057 165.2 175.31 165.2ZM181.632 165V155.5H183.433V165H181.632ZM183.433 159.58L182.753 159.28C182.753 158.067 183.033 157.1 183.593 156.38C184.153 155.66 184.959 155.3 186.013 155.3C186.493 155.3 186.926 155.387 187.313 155.56C187.699 155.72 188.059 155.993 188.393 156.38L187.213 157.6C187.013 157.387 186.793 157.233 186.553 157.14C186.313 157.047 186.033 157 185.713 157C185.046 157 184.499 157.213 184.073 157.64C183.646 158.067 183.433 158.713 183.433 159.58ZM192.465 165.2C191.932 165.2 191.425 165.133 190.945 165C190.478 164.853 190.045 164.653 189.645 164.4C189.245 164.133 188.898 163.82 188.605 163.46L189.765 162.3C190.112 162.727 190.512 163.047 190.965 163.26C191.418 163.46 191.925 163.56 192.485 163.56C193.045 163.56 193.478 163.467 193.785 163.28C194.092 163.08 194.245 162.807 194.245 162.46C194.245 162.113 194.118 161.847 193.865 161.66C193.625 161.46 193.312 161.3 192.925 161.18C192.538 161.047 192.125 160.92 191.685 160.8C191.258 160.667 190.852 160.5 190.465 160.3C190.078 160.1 189.758 159.827 189.505 159.48C189.265 159.133 189.145 158.673 189.145 158.1C189.145 157.527 189.285 157.033 189.565 156.62C189.845 156.193 190.232 155.867 190.725 155.64C191.232 155.413 191.838 155.3 192.545 155.3C193.292 155.3 193.952 155.433 194.525 155.7C195.112 155.953 195.592 156.34 195.965 156.86L194.805 158.02C194.538 157.673 194.205 157.407 193.805 157.22C193.418 157.033 192.978 156.94 192.485 156.94C191.965 156.94 191.565 157.033 191.285 157.22C191.018 157.393 190.885 157.64 190.885 157.96C190.885 158.28 191.005 158.527 191.245 158.7C191.485 158.873 191.798 159.02 192.185 159.14C192.585 159.26 192.998 159.387 193.425 159.52C193.852 159.64 194.258 159.807 194.645 160.02C195.032 160.233 195.345 160.52 195.585 160.88C195.838 161.24 195.965 161.713 195.965 162.3C195.965 163.193 195.645 163.9 195.005 164.42C194.378 164.94 193.532 165.2 192.465 165.2ZM202.32 165.2C201.387 165.2 200.547 164.98 199.8 164.54C199.053 164.1 198.46 163.507 198.02 162.76C197.58 162 197.36 161.153 197.36 160.22C197.36 159.3 197.58 158.473 198.02 157.74C198.46 156.993 199.053 156.4 199.8 155.96C200.547 155.52 201.387 155.3 202.32 155.3C203.24 155.3 204.073 155.52 204.82 155.96C205.58 156.387 206.18 156.973 206.62 157.72C207.06 158.467 207.28 159.3 207.28 160.22C207.28 161.153 207.06 162 206.62 162.76C206.18 163.507 205.58 164.1 204.82 164.54C204.073 164.98 203.24 165.2 202.32 165.2ZM202.32 163.46C202.92 163.46 203.453 163.32 203.92 163.04C204.387 162.76 204.753 162.38 205.02 161.9C205.287 161.407 205.42 160.847 205.42 160.22C205.42 159.607 205.28 159.06 205 158.58C204.733 158.1 204.367 157.727 203.9 157.46C203.447 157.18 202.92 157.04 202.32 157.04C201.72 157.04 201.187 157.18 200.72 157.46C200.253 157.727 199.887 158.1 199.62 158.58C199.353 159.06 199.22 159.607 199.22 160.22C199.22 160.847 199.353 161.407 199.62 161.9C199.887 162.38 200.253 162.76 200.72 163.04C201.187 163.32 201.72 163.46 202.32 163.46ZM216.028 165V159.46C216.028 158.74 215.802 158.147 215.348 157.68C214.895 157.213 214.308 156.98 213.588 156.98C213.108 156.98 212.682 157.087 212.308 157.3C211.935 157.513 211.642 157.807 211.428 158.18C211.215 158.553 211.108 158.98 211.108 159.46L210.368 159.04C210.368 158.32 210.528 157.68 210.848 157.12C211.168 156.56 211.615 156.12 212.188 155.8C212.762 155.467 213.408 155.3 214.128 155.3C214.848 155.3 215.482 155.48 216.028 155.84C216.588 156.2 217.028 156.673 217.348 157.26C217.668 157.833 217.828 158.447 217.828 159.1V165H216.028ZM209.308 165V155.5H211.108V165H209.308ZM224.305 165.2C223.439 165.2 222.652 164.987 221.945 164.56C221.239 164.12 220.679 163.527 220.265 162.78C219.865 162.033 219.665 161.193 219.665 160.26C219.665 159.327 219.865 158.487 220.265 157.74C220.679 156.993 221.232 156.4 221.925 155.96C222.632 155.52 223.425 155.3 224.305 155.3C225.025 155.3 225.665 155.453 226.225 155.76C226.799 156.053 227.259 156.467 227.605 157C227.952 157.52 228.145 158.127 228.185 158.82V161.68C228.145 162.36 227.952 162.967 227.605 163.5C227.272 164.033 226.819 164.453 226.245 164.76C225.685 165.053 225.039 165.2 224.305 165.2ZM224.605 163.5C225.499 163.5 226.219 163.2 226.765 162.6C227.312 161.987 227.585 161.207 227.585 160.26C227.585 159.607 227.459 159.04 227.205 158.56C226.965 158.067 226.619 157.687 226.165 157.42C225.712 157.14 225.185 157 224.585 157C223.985 157 223.452 157.14 222.985 157.42C222.532 157.7 222.172 158.087 221.905 158.58C221.652 159.06 221.525 159.613 221.525 160.24C221.525 160.88 221.652 161.447 221.905 161.94C222.172 162.42 222.539 162.8 223.005 163.08C223.472 163.36 224.005 163.5 224.605 163.5ZM227.465 165V162.44L227.805 160.12L227.465 157.82V155.5H229.285V165H227.465ZM231.906 165V150.72H233.706V165H231.906ZM236.36 165V155.5H238.16V165H236.36ZM237.26 153.6C236.926 153.6 236.653 153.493 236.44 153.28C236.226 153.053 236.12 152.773 236.12 152.44C236.12 152.12 236.226 151.853 236.44 151.64C236.653 151.413 236.926 151.3 237.26 151.3C237.593 151.3 237.866 151.413 238.08 151.64C238.293 151.853 238.4 152.12 238.4 152.44C238.4 152.773 238.293 153.053 238.08 153.28C237.866 153.493 237.593 153.6 237.26 153.6ZM240.052 164.02L245.692 156.48H247.812L242.172 164.02H240.052ZM240.052 165V164.02L241.652 163.36H247.692V165H240.052ZM240.392 157.14V155.5H247.812V156.48L246.152 157.14H240.392ZM253.982 165.2C253.035 165.2 252.182 164.987 251.422 164.56C250.662 164.12 250.062 163.527 249.622 162.78C249.182 162.033 248.962 161.187 248.962 160.24C248.962 159.307 249.175 158.467 249.602 157.72C250.042 156.973 250.628 156.387 251.362 155.96C252.108 155.52 252.942 155.3 253.862 155.3C254.742 155.3 255.515 155.5 256.182 155.9C256.862 156.3 257.388 156.853 257.762 157.56C258.148 158.267 258.342 159.067 258.342 159.96C258.342 160.093 258.335 160.24 258.322 160.4C258.308 160.547 258.282 160.72 258.242 160.92H250.222V159.42H257.282L256.622 160C256.622 159.36 256.508 158.82 256.282 158.38C256.055 157.927 255.735 157.58 255.322 157.34C254.908 157.087 254.408 156.96 253.822 156.96C253.208 156.96 252.668 157.093 252.202 157.36C251.735 157.627 251.375 158 251.122 158.48C250.868 158.96 250.742 159.527 250.742 160.18C250.742 160.847 250.875 161.433 251.142 161.94C251.408 162.433 251.788 162.82 252.282 163.1C252.775 163.367 253.342 163.5 253.982 163.5C254.515 163.5 255.002 163.407 255.442 163.22C255.895 163.033 256.282 162.753 256.602 162.38L257.762 163.56C257.308 164.093 256.748 164.5 256.082 164.78C255.428 165.06 254.728 165.2 253.982 165.2ZM264.324 165.2C263.444 165.2 262.658 164.987 261.964 164.56C261.271 164.12 260.718 163.527 260.304 162.78C259.904 162.033 259.704 161.193 259.704 160.26C259.704 159.327 259.904 158.487 260.304 157.74C260.718 156.993 261.271 156.4 261.964 155.96C262.658 155.52 263.444 155.3 264.324 155.3C265.031 155.3 265.671 155.453 266.244 155.76C266.818 156.053 267.278 156.467 267.624 157C267.984 157.52 268.184 158.127 268.224 158.82V161.68C268.184 162.36 267.991 162.967 267.644 163.5C267.298 164.033 266.838 164.453 266.264 164.76C265.691 165.053 265.044 165.2 264.324 165.2ZM264.624 163.5C265.224 163.5 265.744 163.36 266.184 163.08C266.638 162.8 266.991 162.42 267.244 161.94C267.498 161.447 267.624 160.887 267.624 160.26C267.624 159.607 267.491 159.04 267.224 158.56C266.971 158.08 266.618 157.7 266.164 157.42C265.724 157.14 265.204 157 264.604 157C264.004 157 263.478 157.14 263.024 157.42C262.571 157.7 262.211 158.087 261.944 158.58C261.691 159.06 261.564 159.613 261.564 160.24C261.564 160.88 261.691 161.447 261.944 161.94C262.211 162.42 262.571 162.8 263.024 163.08C263.491 163.36 264.024 163.5 264.624 163.5ZM269.324 165H267.504V162.44L267.844 160.12L267.504 157.82V150.72H269.324V165ZM279.945 165.2C279.158 165.2 278.452 165.027 277.825 164.68C277.212 164.32 276.732 163.827 276.385 163.2C276.038 162.573 275.865 161.847 275.865 161.02V155.5H277.665V160.94C277.665 161.46 277.752 161.913 277.925 162.3C278.112 162.673 278.378 162.96 278.725 163.16C279.072 163.36 279.478 163.46 279.945 163.46C280.652 163.46 281.205 163.24 281.605 162.8C282.005 162.347 282.205 161.727 282.205 160.94V155.5H284.005V161.02C284.005 161.847 283.832 162.573 283.485 163.2C283.138 163.827 282.658 164.32 282.045 164.68C281.445 165.027 280.745 165.2 279.945 165.2ZM289.438 165.2C288.904 165.2 288.398 165.133 287.918 165C287.451 164.853 287.018 164.653 286.618 164.4C286.218 164.133 285.871 163.82 285.578 163.46L286.738 162.3C287.084 162.727 287.484 163.047 287.938 163.26C288.391 163.46 288.898 163.56 289.458 163.56C290.018 163.56 290.451 163.467 290.758 163.28C291.064 163.08 291.218 162.807 291.218 162.46C291.218 162.113 291.091 161.847 290.838 161.66C290.598 161.46 290.284 161.3 289.898 161.18C289.511 161.047 289.098 160.92 288.658 160.8C288.231 160.667 287.824 160.5 287.438 160.3C287.051 160.1 286.731 159.827 286.478 159.48C286.238 159.133 286.118 158.673 286.118 158.1C286.118 157.527 286.258 157.033 286.538 156.62C286.818 156.193 287.204 155.867 287.698 155.64C288.204 155.413 288.811 155.3 289.518 155.3C290.264 155.3 290.924 155.433 291.498 155.7C292.084 155.953 292.564 156.34 292.938 156.86L291.778 158.02C291.511 157.673 291.178 157.407 290.778 157.22C290.391 157.033 289.951 156.94 289.458 156.94C288.938 156.94 288.538 157.033 288.258 157.22C287.991 157.393 287.858 157.64 287.858 157.96C287.858 158.28 287.978 158.527 288.218 158.7C288.458 158.873 288.771 159.02 289.158 159.14C289.558 159.26 289.971 159.387 290.398 159.52C290.824 159.64 291.231 159.807 291.618 160.02C292.004 160.233 292.318 160.52 292.558 160.88C292.811 161.24 292.938 161.713 292.938 162.3C292.938 163.193 292.618 163.9 291.978 164.42C291.351 164.94 290.504 165.2 289.438 165.2ZM299.353 165.2C298.406 165.2 297.553 164.987 296.793 164.56C296.033 164.12 295.433 163.527 294.993 162.78C294.553 162.033 294.333 161.187 294.333 160.24C294.333 159.307 294.546 158.467 294.973 157.72C295.413 156.973 295.999 156.387 296.733 155.96C297.479 155.52 298.313 155.3 299.233 155.3C300.113 155.3 300.886 155.5 301.553 155.9C302.233 156.3 302.759 156.853 303.133 157.56C303.519 158.267 303.713 159.067 303.713 159.96C303.713 160.093 303.706 160.24 303.693 160.4C303.679 160.547 303.653 160.72 303.613 160.92H295.593V159.42H302.653L301.993 160C301.993 159.36 301.879 158.82 301.653 158.38C301.426 157.927 301.106 157.58 300.693 157.34C300.279 157.087 299.779 156.96 299.193 156.96C298.579 156.96 298.039 157.093 297.573 157.36C297.106 157.627 296.746 158 296.493 158.48C296.239 158.96 296.113 159.527 296.113 160.18C296.113 160.847 296.246 161.433 296.513 161.94C296.779 162.433 297.159 162.82 297.653 163.1C298.146 163.367 298.713 163.5 299.353 163.5C299.886 163.5 300.373 163.407 300.813 163.22C301.266 163.033 301.653 162.753 301.973 162.38L303.133 163.56C302.679 164.093 302.119 164.5 301.453 164.78C300.799 165.06 300.099 165.2 299.353 165.2ZM314.176 165.2C313.242 165.2 312.396 164.98 311.636 164.54C310.889 164.1 310.296 163.507 309.856 162.76C309.429 162 309.216 161.16 309.216 160.24C309.216 159.307 309.429 158.467 309.856 157.72C310.296 156.973 310.889 156.387 311.636 155.96C312.396 155.52 313.242 155.3 314.176 155.3C314.909 155.3 315.589 155.44 316.216 155.72C316.842 155.987 317.382 156.38 317.836 156.9L316.636 158.1C316.342 157.753 315.982 157.493 315.556 157.32C315.142 157.133 314.682 157.04 314.176 157.04C313.576 157.04 313.042 157.18 312.576 157.46C312.109 157.727 311.742 158.1 311.476 158.58C311.209 159.06 311.076 159.613 311.076 160.24C311.076 160.867 311.209 161.42 311.476 161.9C311.742 162.38 312.109 162.76 312.576 163.04C313.042 163.32 313.576 163.46 314.176 163.46C314.682 163.46 315.142 163.373 315.556 163.2C315.982 163.013 316.349 162.747 316.656 162.4L317.836 163.6C317.396 164.107 316.856 164.5 316.216 164.78C315.589 165.06 314.909 165.2 314.176 165.2ZM323.485 165.2C322.618 165.2 321.832 164.987 321.125 164.56C320.418 164.12 319.858 163.527 319.445 162.78C319.045 162.033 318.845 161.193 318.845 160.26C318.845 159.327 319.045 158.487 319.445 157.74C319.858 156.993 320.412 156.4 321.105 155.96C321.812 155.52 322.605 155.3 323.485 155.3C324.205 155.3 324.845 155.453 325.405 155.76C325.978 156.053 326.438 156.467 326.785 157C327.132 157.52 327.325 158.127 327.365 158.82V161.68C327.325 162.36 327.132 162.967 326.785 163.5C326.452 164.033 325.998 164.453 325.425 164.76C324.865 165.053 324.218 165.2 323.485 165.2ZM323.785 163.5C324.678 163.5 325.398 163.2 325.945 162.6C326.492 161.987 326.765 161.207 326.765 160.26C326.765 159.607 326.638 159.04 326.385 158.56C326.145 158.067 325.798 157.687 325.345 157.42C324.892 157.14 324.365 157 323.765 157C323.165 157 322.632 157.14 322.165 157.42C321.712 157.7 321.352 158.087 321.085 158.58C320.832 159.06 320.705 159.613 320.705 160.24C320.705 160.88 320.832 161.447 321.085 161.94C321.352 162.42 321.718 162.8 322.185 163.08C322.652 163.36 323.185 163.5 323.785 163.5ZM326.645 165V162.44L326.985 160.12L326.645 157.82V155.5H328.465V165H326.645ZM334.106 165.2C333.572 165.2 333.066 165.133 332.586 165C332.119 164.853 331.686 164.653 331.286 164.4C330.886 164.133 330.539 163.82 330.246 163.46L331.406 162.3C331.752 162.727 332.152 163.047 332.606 163.26C333.059 163.46 333.566 163.56 334.126 163.56C334.686 163.56 335.119 163.467 335.426 163.28C335.732 163.08 335.886 162.807 335.886 162.46C335.886 162.113 335.759 161.847 335.506 161.66C335.266 161.46 334.952 161.3 334.566 161.18C334.179 161.047 333.766 160.92 333.326 160.8C332.899 160.667 332.492 160.5 332.106 160.3C331.719 160.1 331.399 159.827 331.146 159.48C330.906 159.133 330.786 158.673 330.786 158.1C330.786 157.527 330.926 157.033 331.206 156.62C331.486 156.193 331.872 155.867 332.366 155.64C332.872 155.413 333.479 155.3 334.186 155.3C334.932 155.3 335.592 155.433 336.166 155.7C336.752 155.953 337.232 156.34 337.606 156.86L336.446 158.02C336.179 157.673 335.846 157.407 335.446 157.22C335.059 157.033 334.619 156.94 334.126 156.94C333.606 156.94 333.206 157.033 332.926 157.22C332.659 157.393 332.526 157.64 332.526 157.96C332.526 158.28 332.646 158.527 332.886 158.7C333.126 158.873 333.439 159.02 333.826 159.14C334.226 159.26 334.639 159.387 335.066 159.52C335.492 159.64 335.899 159.807 336.286 160.02C336.672 160.233 336.986 160.52 337.226 160.88C337.479 161.24 337.606 161.713 337.606 162.3C337.606 163.193 337.286 163.9 336.646 164.42C336.019 164.94 335.172 165.2 334.106 165.2ZM344.021 165.2C343.074 165.2 342.221 164.987 341.461 164.56C340.701 164.12 340.101 163.527 339.661 162.78C339.221 162.033 339.001 161.187 339.001 160.24C339.001 159.307 339.214 158.467 339.641 157.72C340.081 156.973 340.667 156.387 341.401 155.96C342.147 155.52 342.981 155.3 343.901 155.3C344.781 155.3 345.554 155.5 346.221 155.9C346.901 156.3 347.427 156.853 347.801 157.56C348.187 158.267 348.381 159.067 348.381 159.96C348.381 160.093 348.374 160.24 348.361 160.4C348.347 160.547 348.321 160.72 348.281 160.92H340.261V159.42H347.321L346.661 160C346.661 159.36 346.547 158.82 346.321 158.38C346.094 157.927 345.774 157.58 345.361 157.34C344.947 157.087 344.447 156.96 343.861 156.96C343.247 156.96 342.707 157.093 342.241 157.36C341.774 157.627 341.414 158 341.161 158.48C340.907 158.96 340.781 159.527 340.781 160.18C340.781 160.847 340.914 161.433 341.181 161.94C341.447 162.433 341.827 162.82 342.321 163.1C342.814 163.367 343.381 163.5 344.021 163.5C344.554 163.5 345.041 163.407 345.481 163.22C345.934 163.033 346.321 162.753 346.641 162.38L347.801 163.56C347.347 164.093 346.787 164.5 346.121 164.78C345.467 165.06 344.767 165.2 344.021 165.2ZM353.363 165.2C352.83 165.2 352.323 165.133 351.843 165C351.377 164.853 350.943 164.653 350.543 164.4C350.143 164.133 349.797 163.82 349.503 163.46L350.663 162.3C351.01 162.727 351.41 163.047 351.863 163.26C352.317 163.46 352.823 163.56 353.383 163.56C353.943 163.56 354.377 163.467 354.683 163.28C354.99 163.08 355.143 162.807 355.143 162.46C355.143 162.113 355.017 161.847 354.763 161.66C354.523 161.46 354.21 161.3 353.823 161.18C353.437 161.047 353.023 160.92 352.583 160.8C352.157 160.667 351.75 160.5 351.363 160.3C350.977 160.1 350.657 159.827 350.403 159.48C350.163 159.133 350.043 158.673 350.043 158.1C350.043 157.527 350.183 157.033 350.463 156.62C350.743 156.193 351.13 155.867 351.623 155.64C352.13 155.413 352.737 155.3 353.443 155.3C354.19 155.3 354.85 155.433 355.423 155.7C356.01 155.953 356.49 156.34 356.863 156.86L355.703 158.02C355.437 157.673 355.103 157.407 354.703 157.22C354.317 157.033 353.877 156.94 353.383 156.94C352.863 156.94 352.463 157.033 352.183 157.22C351.917 157.393 351.783 157.64 351.783 157.96C351.783 158.28 351.903 158.527 352.143 158.7C352.383 158.873 352.697 159.02 353.083 159.14C353.483 159.26 353.897 159.387 354.323 159.52C354.75 159.64 355.157 159.807 355.543 160.02C355.93 160.233 356.243 160.52 356.483 160.88C356.737 161.24 356.863 161.713 356.863 162.3C356.863 163.193 356.543 163.9 355.903 164.42C355.277 164.94 354.43 165.2 353.363 165.2ZM367.079 165.2C366.212 165.2 365.425 164.987 364.719 164.56C364.012 164.12 363.452 163.527 363.039 162.78C362.639 162.033 362.439 161.193 362.439 160.26C362.439 159.327 362.639 158.487 363.039 157.74C363.452 156.993 364.005 156.4 364.699 155.96C365.405 155.52 366.199 155.3 367.079 155.3C367.799 155.3 368.439 155.453 368.999 155.76C369.572 156.053 370.032 156.467 370.379 157C370.725 157.52 370.919 158.127 370.959 158.82V161.68C370.919 162.36 370.725 162.967 370.379 163.5C370.045 164.033 369.592 164.453 369.019 164.76C368.459 165.053 367.812 165.2 367.079 165.2ZM367.379 163.5C368.272 163.5 368.992 163.2 369.539 162.6C370.085 161.987 370.359 161.207 370.359 160.26C370.359 159.607 370.232 159.04 369.979 158.56C369.739 158.067 369.392 157.687 368.939 157.42C368.485 157.14 367.959 157 367.359 157C366.759 157 366.225 157.14 365.759 157.42C365.305 157.7 364.945 158.087 364.679 158.58C364.425 159.06 364.299 159.613 364.299 160.24C364.299 160.88 364.425 161.447 364.679 161.94C364.945 162.42 365.312 162.8 365.779 163.08C366.245 163.36 366.779 163.5 367.379 163.5ZM370.239 165V162.44L370.579 160.12L370.239 157.82V155.5H372.059V165H370.239ZM381.399 165V159.46C381.399 158.74 381.173 158.147 380.719 157.68C380.266 157.213 379.679 156.98 378.959 156.98C378.479 156.98 378.053 157.087 377.679 157.3C377.306 157.513 377.013 157.807 376.799 158.18C376.586 158.553 376.479 158.98 376.479 159.46L375.739 159.04C375.739 158.32 375.899 157.68 376.219 157.12C376.539 156.56 376.986 156.12 377.559 155.8C378.133 155.467 378.779 155.3 379.499 155.3C380.219 155.3 380.853 155.48 381.399 155.84C381.959 156.2 382.399 156.673 382.719 157.26C383.039 157.833 383.199 158.447 383.199 159.1V165H381.399ZM374.679 165V155.5H376.479V165H374.679ZM389.656 165.2C388.776 165.2 387.99 164.987 387.296 164.56C386.603 164.12 386.05 163.527 385.636 162.78C385.236 162.033 385.036 161.193 385.036 160.26C385.036 159.327 385.236 158.487 385.636 157.74C386.05 156.993 386.603 156.4 387.296 155.96C387.99 155.52 388.776 155.3 389.656 155.3C390.363 155.3 391.003 155.453 391.576 155.76C392.15 156.053 392.61 156.467 392.956 157C393.316 157.52 393.516 158.127 393.556 158.82V161.68C393.516 162.36 393.323 162.967 392.976 163.5C392.63 164.033 392.17 164.453 391.596 164.76C391.023 165.053 390.376 165.2 389.656 165.2ZM389.956 163.5C390.556 163.5 391.076 163.36 391.516 163.08C391.97 162.8 392.323 162.42 392.576 161.94C392.83 161.447 392.956 160.887 392.956 160.26C392.956 159.607 392.823 159.04 392.556 158.56C392.303 158.08 391.95 157.7 391.496 157.42C391.056 157.14 390.536 157 389.936 157C389.336 157 388.81 157.14 388.356 157.42C387.903 157.7 387.543 158.087 387.276 158.58C387.023 159.06 386.896 159.613 386.896 160.24C386.896 160.88 387.023 161.447 387.276 161.94C387.543 162.42 387.903 162.8 388.356 163.08C388.823 163.36 389.356 163.5 389.956 163.5ZM394.656 165H392.836V162.44L393.176 160.12L392.836 157.82V150.72H394.656V165ZM64.34 195.2C63.8067 195.2 63.3 195.133 62.82 195C62.3533 194.853 61.92 194.653 61.52 194.4C61.12 194.133 60.7733 193.82 60.48 193.46L61.64 192.3C61.9867 192.727 62.3867 193.047 62.84 193.26C63.2933 193.46 63.8 193.56 64.36 193.56C64.92 193.56 65.3533 193.467 65.66 193.28C65.9667 193.08 66.12 192.807 66.12 192.46C66.12 192.113 65.9933 191.847 65.74 191.66C65.5 191.46 65.1867 191.3 64.8 191.18C64.4133 191.047 64 190.92 63.56 190.8C63.1333 190.667 62.7267 190.5 62.34 190.3C61.9533 190.1 61.6333 189.827 61.38 189.48C61.14 189.133 61.02 188.673 61.02 188.1C61.02 187.527 61.16 187.033 61.44 186.62C61.72 186.193 62.1067 185.867 62.6 185.64C63.1067 185.413 63.7133 185.3 64.42 185.3C65.1667 185.3 65.8267 185.433 66.4 185.7C66.9867 185.953 67.4667 186.34 67.84 186.86L66.68 188.02C66.4133 187.673 66.08 187.407 65.68 187.22C65.2933 187.033 64.8533 186.94 64.36 186.94C63.84 186.94 63.44 187.033 63.16 187.22C62.8933 187.393 62.76 187.64 62.76 187.96C62.76 188.28 62.88 188.527 63.12 188.7C63.36 188.873 63.6733 189.02 64.06 189.14C64.46 189.26 64.8733 189.387 65.3 189.52C65.7267 189.64 66.1333 189.807 66.52 190.02C66.9067 190.233 67.22 190.52 67.46 190.88C67.7133 191.24 67.84 191.713 67.84 192.3C67.84 193.193 67.52 193.9 66.88 194.42C66.2533 194.94 65.4067 195.2 64.34 195.2ZM76.5752 195V189.46C76.5752 188.74 76.3485 188.147 75.8952 187.68C75.4418 187.213 74.8552 186.98 74.1352 186.98C73.6552 186.98 73.2285 187.087 72.8552 187.3C72.4818 187.513 72.1885 187.807 71.9752 188.18C71.7618 188.553 71.6552 188.98 71.6552 189.46L70.9152 189.04C70.9152 188.32 71.0752 187.68 71.3952 187.12C71.7152 186.56 72.1618 186.12 72.7352 185.8C73.3085 185.467 73.9552 185.3 74.6752 185.3C75.3952 185.3 76.0285 185.46 76.5752 185.78C77.1352 186.1 77.5752 186.547 77.8952 187.12C78.2152 187.693 78.3752 188.353 78.3752 189.1V195H76.5752ZM69.8552 195V180.72H71.6552V195H69.8552ZM84.8522 195.2C83.9855 195.2 83.1989 194.987 82.4922 194.56C81.7855 194.12 81.2255 193.527 80.8122 192.78C80.4122 192.033 80.2122 191.193 80.2122 190.26C80.2122 189.327 80.4122 188.487 80.8122 187.74C81.2255 186.993 81.7789 186.4 82.4722 185.96C83.1789 185.52 83.9722 185.3 84.8522 185.3C85.5722 185.3 86.2122 185.453 86.7722 185.76C87.3455 186.053 87.8055 186.467 88.1522 187C88.4989 187.52 88.6922 188.127 88.7322 188.82V191.68C88.6922 192.36 88.4989 192.967 88.1522 193.5C87.8189 194.033 87.3655 194.453 86.7922 194.76C86.2322 195.053 85.5855 195.2 84.8522 195.2ZM85.1522 193.5C86.0455 193.5 86.7655 193.2 87.3122 192.6C87.8589 191.987 88.1322 191.207 88.1322 190.26C88.1322 189.607 88.0055 189.04 87.7522 188.56C87.5122 188.067 87.1655 187.687 86.7122 187.42C86.2589 187.14 85.7322 187 85.1322 187C84.5322 187 83.9989 187.14 83.5322 187.42C83.0789 187.7 82.7189 188.087 82.4522 188.58C82.1989 189.06 82.0722 189.613 82.0722 190.24C82.0722 190.88 82.1989 191.447 82.4522 191.94C82.7189 192.42 83.0855 192.8 83.5522 193.08C84.0189 193.36 84.5522 193.5 85.1522 193.5ZM88.0122 195V192.44L88.3522 190.12L88.0122 187.82V185.5H89.8322V195H88.0122ZM92.4528 195V185.5H94.2528V195H92.4528ZM94.2528 189.58L93.5728 189.28C93.5728 188.067 93.8528 187.1 94.4128 186.38C94.9728 185.66 95.7795 185.3 96.8328 185.3C97.3128 185.3 97.7461 185.387 98.1328 185.56C98.5195 185.72 98.8795 185.993 99.2128 186.38L98.0328 187.6C97.8328 187.387 97.6128 187.233 97.3728 187.14C97.1328 187.047 96.8528 187 96.5328 187C95.8661 187 95.3195 187.213 94.8928 187.64C94.4661 188.067 94.2528 188.713 94.2528 189.58ZM104.568 195.2C103.621 195.2 102.768 194.987 102.008 194.56C101.248 194.12 100.648 193.527 100.208 192.78C99.7677 192.033 99.5477 191.187 99.5477 190.24C99.5477 189.307 99.761 188.467 100.188 187.72C100.628 186.973 101.214 186.387 101.948 185.96C102.694 185.52 103.528 185.3 104.448 185.3C105.328 185.3 106.101 185.5 106.768 185.9C107.448 186.3 107.974 186.853 108.348 187.56C108.734 188.267 108.928 189.067 108.928 189.96C108.928 190.093 108.921 190.24 108.908 190.4C108.894 190.547 108.868 190.72 108.828 190.92H100.808V189.42H107.868L107.208 190C107.208 189.36 107.094 188.82 106.868 188.38C106.641 187.927 106.321 187.58 105.908 187.34C105.494 187.087 104.994 186.96 104.408 186.96C103.794 186.96 103.254 187.093 102.788 187.36C102.321 187.627 101.961 188 101.708 188.48C101.454 188.96 101.328 189.527 101.328 190.18C101.328 190.847 101.461 191.433 101.728 191.94C101.994 192.433 102.374 192.82 102.868 193.1C103.361 193.367 103.928 193.5 104.568 193.5C105.101 193.5 105.588 193.407 106.028 193.22C106.481 193.033 106.868 192.753 107.188 192.38L108.348 193.56C107.894 194.093 107.334 194.5 106.668 194.78C106.014 195.06 105.314 195.2 104.568 195.2ZM114.93 195.2C114.064 195.2 113.277 194.987 112.57 194.56C111.864 194.12 111.304 193.527 110.89 192.78C110.49 192.033 110.29 191.193 110.29 190.26C110.29 189.327 110.49 188.487 110.89 187.74C111.304 186.993 111.857 186.4 112.55 185.96C113.257 185.52 114.05 185.3 114.93 185.3C115.65 185.3 116.29 185.453 116.85 185.76C117.424 186.053 117.884 186.467 118.23 187C118.577 187.52 118.77 188.127 118.81 188.82V191.68C118.77 192.36 118.577 192.967 118.23 193.5C117.897 194.033 117.444 194.453 116.87 194.76C116.31 195.053 115.664 195.2 114.93 195.2ZM115.23 193.5C116.124 193.5 116.844 193.2 117.39 192.6C117.937 191.987 118.21 191.207 118.21 190.26C118.21 189.607 118.084 189.04 117.83 188.56C117.59 188.067 117.244 187.687 116.79 187.42C116.337 187.14 115.81 187 115.21 187C114.61 187 114.077 187.14 113.61 187.42C113.157 187.7 112.797 188.087 112.53 188.58C112.277 189.06 112.15 189.613 112.15 190.24C112.15 190.88 112.277 191.447 112.53 191.94C112.797 192.42 113.164 192.8 113.63 193.08C114.097 193.36 114.63 193.5 115.23 193.5ZM118.09 195V192.44L118.43 190.12L118.09 187.82V185.5H119.91V195H118.09ZM127.531 195.2C126.811 195.2 126.158 195.053 125.571 194.76C124.998 194.453 124.538 194.033 124.191 193.5C123.844 192.967 123.651 192.36 123.611 191.68V188.82C123.651 188.127 123.844 187.52 124.191 187C124.551 186.467 125.018 186.053 125.591 185.76C126.178 185.453 126.824 185.3 127.531 185.3C128.398 185.3 129.178 185.52 129.871 185.96C130.578 186.4 131.131 186.993 131.531 187.74C131.931 188.487 132.131 189.327 132.131 190.26C132.131 191.193 131.931 192.033 131.531 192.78C131.131 193.527 130.578 194.12 129.871 194.56C129.178 194.987 128.398 195.2 127.531 195.2ZM122.531 195V180.72H124.331V187.82L123.991 190.12L124.331 192.44V195H122.531ZM127.231 193.5C127.831 193.5 128.358 193.36 128.811 193.08C129.264 192.8 129.624 192.42 129.891 191.94C130.158 191.447 130.291 190.88 130.291 190.24C130.291 189.613 130.158 189.053 129.891 188.56C129.624 188.067 129.264 187.687 128.811 187.42C128.358 187.14 127.838 187 127.251 187C126.651 187 126.124 187.14 125.671 187.42C125.218 187.687 124.864 188.067 124.611 188.56C124.358 189.053 124.231 189.62 124.231 190.26C124.231 190.887 124.351 191.447 124.591 191.94C124.844 192.42 125.198 192.8 125.651 193.08C126.118 193.36 126.644 193.5 127.231 193.5ZM134.192 195V185.5H135.992V195H134.192ZM135.092 183.6C134.758 183.6 134.485 183.493 134.272 183.28C134.058 183.053 133.952 182.773 133.952 182.44C133.952 182.12 134.058 181.853 134.272 181.64C134.485 181.413 134.758 181.3 135.092 181.3C135.425 181.3 135.698 181.413 135.912 181.64C136.125 181.853 136.232 182.12 136.232 182.44C136.232 182.773 136.125 183.053 135.912 183.28C135.698 183.493 135.425 183.6 135.092 183.6ZM138.644 195V180.72H140.444V195H138.644ZM143.098 195V185.5H144.898V195H143.098ZM143.998 183.6C143.664 183.6 143.391 183.493 143.178 183.28C142.964 183.053 142.858 182.773 142.858 182.44C142.858 182.12 142.964 181.853 143.178 181.64C143.391 181.413 143.664 181.3 143.998 181.3C144.331 181.3 144.604 181.413 144.818 181.64C145.031 181.853 145.138 182.12 145.138 182.44C145.138 182.773 145.031 183.053 144.818 183.28C144.604 183.493 144.331 183.6 143.998 183.6ZM149.01 195V181.52H150.81V195H149.01ZM146.67 187.14V185.5H153.15V187.14H146.67ZM158.034 195.08L153.914 185.5H155.914L158.974 193H158.334L161.554 185.5H163.554L159.114 195.08H158.034ZM155.314 198.98L158.114 193.24L159.114 195.08L157.314 198.98H155.314Z" fill="black"/>
<g filter="url(#filter1_b_6951_1013)">
<circle cx="425.5" cy="37.5" r="37.5" fill="url(#paint1_linear_6951_1013)" fill-opacity="0.6"/>
</g>
<path d="M424.25 44.5C424.25 44.5 422.5 44.5 422.5 42.75C422.5 41 424.25 35.75 431.25 35.75C438.25 35.75 440 41 440 42.75C440 44.5 438.25 44.5 438.25 44.5H424.25ZM431.25 34C432.642 34 433.978 33.4469 434.962 32.4623C435.947 31.4777 436.5 30.1424 436.5 28.75C436.5 27.3576 435.947 26.0223 434.962 25.0377C433.978 24.0531 432.642 23.5 431.25 23.5C429.858 23.5 428.522 24.0531 427.538 25.0377C426.553 26.0223 426 27.3576 426 28.75C426 30.1424 426.553 31.4777 427.538 32.4623C428.522 33.4469 429.858 34 431.25 34Z" fill="white"/>
<path fill-rule="evenodd" clip-rule="evenodd" d="M421.128 44.4998C420.869 43.9534 420.739 43.3545 420.75 42.7498C420.75 40.3785 421.94 37.9373 424.138 36.2398C423.041 35.9017 421.898 35.7364 420.75 35.7498C413.75 35.7498 412 40.9998 412 42.7498C412 44.4998 413.75 44.4998 413.75 44.4998H421.128Z" fill="white"/>
<path d="M419.875 34C421.035 34 422.148 33.5391 422.969 32.7186C423.789 31.8981 424.25 30.7853 424.25 29.625C424.25 28.4647 423.789 27.3519 422.969 26.5314C422.148 25.7109 421.035 25.25 419.875 25.25C418.715 25.25 417.602 25.7109 416.781 26.5314C415.961 27.3519 415.5 28.4647 415.5 29.625C415.5 30.7853 415.961 31.8981 416.781 32.7186C417.602 33.5391 418.715 34 419.875 34Z" fill="white"/>
<defs>
<filter id="filter0_b_6951_1013" x="-14" y="6" width="520.548" height="268" filterUnits="userSpaceOnUse" color-interpolation-filters="sRGB">
<feFlood flood-opacity="0" result="BackgroundImageFix"/>
<feGaussianBlur in="BackgroundImageFix" stdDeviation="7"/>
<feComposite in2="SourceAlpha" operator="in" result="effect1_backgroundBlur_6951_1013"/>
<feBlend mode="normal" in="SourceGraphic" in2="effect1_backgroundBlur_6951_1013" result="shape"/>
</filter>
<filter id="filter1_b_6951_1013" x="378" y="-10" width="95" height="95" filterUnits="userSpaceOnUse" color-interpolation-filters="sRGB">
<feFlood flood-opacity="0" result="BackgroundImageFix"/>
<feGaussianBlur in="BackgroundImageFix" stdDeviation="5"/>
<feComposite in2="SourceAlpha" operator="in" result="effect1_backgroundBlur_6951_1013"/>
<feBlend mode="normal" in="SourceGraphic" in2="effect1_backgroundBlur_6951_1013" result="shape"/>
</filter>
<linearGradient id="paint0_linear_6951_1013" x1="492.548" y1="140" x2="0" y2="140" gradientUnits="userSpaceOnUse">
<stop stop-color="#2DD5C3"/>
<stop offset="0.33" stop-color="#0076FF"/>
<stop offset="0.625" stop-color="#FCFEFF"/>
<stop offset="0.92" stop-color="#0886F5"/>
</linearGradient>
<linearGradient id="paint1_linear_6951_1013" x1="463" y1="37.5" x2="388" y2="37.5" gradientUnits="userSpaceOnUse">
<stop stop-color="#2DD5C3"/>
<stop offset="1" stop-color="#0076FF"/>
</linearGradient>
</defs>
</svg>
