<svg width="493" height="260" viewBox="0 0 493 260" fill="none" xmlns="http://www.w3.org/2000/svg">
<g filter="url(#filter0_b_4328_1188)">
<rect y="20" width="492.548" height="240" rx="20" fill="white" fill-opacity="0.75"/>
<rect x="0.75" y="20.75" width="491.048" height="238.5" rx="19.25" stroke="url(#paint0_linear_4328_1188)" stroke-width="1.5"/>
</g>
<g filter="url(#filter1_b_4328_1188)">
<circle cx="425.5" cy="37.5" r="37.5" fill="url(#paint1_linear_4328_1188)" fill-opacity="0.6"/>
</g>
<path d="M440.962 36.2407C440.873 35.6359 440.604 35.1091 440.353 34.6784C440.292 34.573 440.181 34.4722 440.041 34.3944C439.813 34.2615 439.562 34.2661 439.251 34.4127L432.622 37.5052L432.487 37.5648L432.417 37.0791C432.362 36.6989 432.306 36.3232 432.255 35.9521C432.139 35.0724 431.427 29.6341 431.427 29.6341C431.213 28.0214 431.004 26.4133 430.795 24.8006C430.614 23.3986 429.507 22.267 428.103 22.0425C427.615 21.9646 427.099 21.9921 426.407 22.1387C426.295 22.1616 426.174 22.2303 426.058 22.3311C425.793 22.5648 425.798 22.8718 425.826 23.0871C426.142 25.4878 426.453 27.8886 426.765 30.2801L426.779 30.3947L426.314 30.3168C425.946 30.2572 425.584 30.1977 425.226 30.1289C421.572 29.4554 417.923 28.7774 414.274 28.0947C413.73 27.9939 413.019 27.9252 412.461 28.0947C410.941 28.5437 410.141 29.6204 410.002 31.3889C409.983 31.6592 410.127 31.902 410.397 32.044C410.522 32.1082 410.666 32.1402 410.801 32.1677C412.707 32.5251 417.937 33.4964 417.937 33.4964L418.114 33.533L418.067 33.6063C418.034 33.6567 418.002 33.7071 417.974 33.7575L417.565 34.5135C417.333 34.9441 417.095 35.3748 416.858 35.8009L411.875 44.7899C411.15 46.1002 411.368 47.6625 412.419 48.6704C412.763 49.0003 413.167 49.2156 413.595 49.4447C414.13 49.7334 414.562 49.6051 414.855 49.0782L418.365 42.7511L418.439 42.6182L424.901 49.3577C425.723 50.219 426.546 51.0803 427.374 51.9371C428.034 52.6243 428.889 53 429.786 53C430.228 53 430.665 52.9084 431.093 52.7251C431.678 52.4731 432.134 52.047 432.538 51.621C432.617 51.5385 432.678 51.4194 432.715 51.2865C432.794 51.007 432.715 50.7505 432.469 50.4939C431.116 49.0874 427.415 45.216 427.415 45.216L427.323 45.1106L427.546 45.0144C427.722 44.9411 427.894 44.8632 428.066 44.7853L429.456 44.121C430.116 43.8048 430.781 43.4887 431.446 43.1772C432.822 42.5312 434.193 41.8898 435.574 41.2483L439.079 39.6127C440.432 38.9805 441.171 37.6518 440.966 36.2315L440.962 36.2407ZM429.219 38.2658C426.867 38.9209 425.338 40.4237 424.677 42.7465C424.663 42.6869 424.65 42.6274 424.631 42.5678C423.92 40.332 422.404 38.8843 420.131 38.2658C422.497 37.6106 424.027 36.0987 424.682 33.7667C424.705 33.84 424.729 33.9133 424.747 33.9912C424.817 34.2294 424.887 34.4722 424.994 34.7059C425.83 36.5477 427.253 37.748 429.219 38.2703V38.2658Z" fill="white"/>
<defs>
<filter id="filter0_b_4328_1188" x="-14" y="6" width="520.548" height="268" filterUnits="userSpaceOnUse" color-interpolation-filters="sRGB">
<feFlood flood-opacity="0" result="BackgroundImageFix"/>
<feGaussianBlur in="BackgroundImageFix" stdDeviation="7"/>
<feComposite in2="SourceAlpha" operator="in" result="effect1_backgroundBlur_4328_1188"/>
<feBlend mode="normal" in="SourceGraphic" in2="effect1_backgroundBlur_4328_1188" result="shape"/>
</filter>
<filter id="filter1_b_4328_1188" x="378" y="-10" width="95" height="95" filterUnits="userSpaceOnUse" color-interpolation-filters="sRGB">
<feFlood flood-opacity="0" result="BackgroundImageFix"/>
<feGaussianBlur in="BackgroundImageFix" stdDeviation="5"/>
<feComposite in2="SourceAlpha" operator="in" result="effect1_backgroundBlur_4328_1188"/>
<feBlend mode="normal" in="SourceGraphic" in2="effect1_backgroundBlur_4328_1188" result="shape"/>
</filter>
<linearGradient id="paint0_linear_4328_1188" x1="492.548" y1="140" x2="0" y2="140" gradientUnits="userSpaceOnUse">
<stop stop-color="#2DD5C3"/>
<stop offset="0.33" stop-color="#0076FF"/>
<stop offset="0.625" stop-color="#FCFEFF"/>
<stop offset="0.92" stop-color="#0886F5"/>
</linearGradient>
<linearGradient id="paint1_linear_4328_1188" x1="463" y1="37.5" x2="388" y2="37.5" gradientUnits="userSpaceOnUse">
<stop stop-color="#2DD5C3"/>
<stop offset="1" stop-color="#0076FF"/>
</linearGradient>
</defs>
</svg>
