<svg width="83" height="56" viewBox="0 0 83 56" fill="none" xmlns="http://www.w3.org/2000/svg">
<path d="M19.257 16.1151L19.2591 16.1147C19.4107 16.0854 19.5451 16.0242 19.6527 15.9434L20.5534 17.1429L19.6527 15.9434C19.7596 15.8631 19.8348 15.7679 19.8811 15.6715C19.8813 15.6711 19.8814 15.6707 19.8816 15.6704L21.2349 16.3173L19.257 16.1151ZM19.257 16.1151C15.0373 16.9359 11.2018 18.6581 8.27946 21.1469C4.16632 24.6469 1.99121 29.4476 1.99121 34.9521C1.99121 40.3999 4.33178 45.3794 8.54514 48.9495L19.257 16.1151ZM41.5731 2.35714C47.8714 2.33229 53.9503 4.59625 58.5174 8.69617L58.5178 8.69654C62.4437 12.2236 65.0893 16.8743 66.2955 22.2554L66.2969 22.262C66.3225 22.3783 66.3864 22.4997 66.4975 22.6056C66.609 22.712 66.7623 22.7965 66.944 22.8357C66.945 22.8359 66.9459 22.8361 66.9468 22.8363L41.5731 2.35714ZM41.5731 2.35714C41.5741 2.35714 41.5751 2.35714 41.5762 2.35714V3.85714L41.5701 2.35715C41.5711 2.35714 41.5721 2.35714 41.5731 2.35714Z" fill="url(#paint0_linear_7178_1011)" stroke="url(#paint1_linear_7178_1011)" stroke-width="3"/>
<path d="M52.3287 30.2293C52.2673 29.7807 52.0798 29.3899 51.9052 29.0704C51.8632 28.9922 51.7856 28.9175 51.6886 28.8597C51.5302 28.7611 51.3557 28.7645 51.1391 28.8733L46.5293 31.1672L46.4355 31.2114L46.387 30.8512C46.3482 30.5691 46.3094 30.2904 46.2739 30.0152C46.1931 29.3627 45.6985 25.3287 45.6985 25.3287C45.5498 24.1325 45.4043 22.9396 45.2588 21.7434C45.1327 20.7035 44.3634 19.8641 43.3871 19.6975C43.0477 19.6398 42.6888 19.6602 42.2072 19.7689C42.1296 19.7859 42.0455 19.8369 41.9647 19.9116C41.7804 20.085 41.7837 20.3127 41.8031 20.4724C42.0229 22.2532 42.2395 24.0339 42.4561 25.8079L42.4658 25.8929L42.1425 25.8351C41.8871 25.7909 41.635 25.7467 41.386 25.6958C38.8451 25.1962 36.3075 24.6932 33.7698 24.1869C33.3916 24.1121 32.897 24.0611 32.5091 24.1869C31.452 24.5199 30.8959 25.3185 30.799 26.6303C30.786 26.8308 30.8862 27.011 31.0737 27.1163C31.161 27.1639 31.2612 27.1877 31.355 27.2081C32.6804 27.4731 36.3172 28.1936 36.3172 28.1936L36.44 28.2208L36.4077 28.2752C36.3851 28.3126 36.3624 28.3499 36.343 28.3873L36.0586 28.9481C35.8969 29.2675 35.7321 29.587 35.5672 29.903L32.1017 36.5707C31.5974 37.5427 31.7494 38.7015 32.48 39.4492C32.7192 39.6939 33.0004 39.8536 33.2978 40.0235C33.6696 40.2376 33.9702 40.1425 34.1739 39.7517L36.6146 35.0584L36.6663 34.9599L41.1598 39.959C41.7319 40.5979 42.3041 41.2368 42.8796 41.8723C43.3386 42.382 43.9334 42.6607 44.5573 42.6607C44.8644 42.6607 45.1683 42.5927 45.4657 42.4568C45.873 42.2699 46.1898 41.9538 46.4711 41.6378C46.526 41.5766 46.5681 41.4883 46.5939 41.3897C46.6489 41.1824 46.5939 40.9921 46.4226 40.8018C45.4819 39.7585 42.9086 36.8868 42.9086 36.8868L42.844 36.8086L42.9992 36.7373C43.122 36.6829 43.2416 36.6251 43.3612 36.5673L44.3278 36.0746C44.7868 35.8401 45.2491 35.6056 45.7114 35.3745C46.6683 34.8953 47.6219 34.4195 48.582 33.9437L51.0195 32.7305C51.9602 32.2615 52.4742 31.276 52.332 30.2225L52.3287 30.2293ZM44.1629 31.7314C42.5272 32.2173 41.4636 33.332 41.0046 35.055C40.9949 35.0109 40.9852 34.9667 40.9723 34.9225C40.4777 33.2641 39.4238 32.1902 37.843 31.7314C39.4885 31.2454 40.552 30.1239 41.0078 28.3941C41.024 28.4485 41.0401 28.5029 41.0531 28.5606C41.1016 28.7374 41.1501 28.9175 41.2244 29.0908C41.8063 30.457 42.7955 31.3473 44.1629 31.7348V31.7314Z" fill="white"/>
<defs>
<linearGradient id="paint0_linear_7178_1011" x1="3.49121" y1="26.2072" x2="71.9828" y2="5.60761" gradientUnits="userSpaceOnUse">
<stop stop-color="#7E8E9C"/>
<stop offset="0.5" stop-color="#C3C8CB"/>
<stop offset="1" stop-color="#788187"/>
</linearGradient>
<linearGradient id="paint1_linear_7178_1011" x1="3.49121" y1="21.6807" x2="73.409" y2="8.60908" gradientUnits="userSpaceOnUse">
<stop stop-color="#F6F6F6"/>
<stop offset="0.515" stop-color="#DAE3EA"/>
<stop offset="0.92" stop-color="white"/>
</linearGradient>
</defs>
</svg>
