<svg width="75" height="75" viewBox="0 0 75 75" fill="none" xmlns="http://www.w3.org/2000/svg">
<g filter="url(#filter0_b_4328_964)">
<circle cx="37.5" cy="37.5" r="37.5" fill="url(#paint0_linear_4328_964)" fill-opacity="0.6"/>
</g>
<path d="M36.25 44.5C36.25 44.5 34.5 44.5 34.5 42.75C34.5 41 36.25 35.75 43.25 35.75C50.25 35.75 52 41 52 42.75C52 44.5 50.25 44.5 50.25 44.5H36.25ZM43.25 34C44.6424 34 45.9777 33.4469 46.9623 32.4623C47.9469 31.4777 48.5 30.1424 48.5 28.75C48.5 27.3576 47.9469 26.0223 46.9623 25.0377C45.9777 24.0531 44.6424 23.5 43.25 23.5C41.8576 23.5 40.5223 24.0531 39.5377 25.0377C38.5531 26.0223 38 27.3576 38 28.75C38 30.1424 38.5531 31.4777 39.5377 32.4623C40.5223 33.4469 41.8576 34 43.25 34Z" fill="white"/>
<path fill-rule="evenodd" clip-rule="evenodd" d="M33.128 44.4998C32.8686 43.9534 32.7392 43.3545 32.75 42.7498C32.75 40.3785 33.94 37.9373 36.138 36.2398C35.0409 35.9017 33.8979 35.7364 32.75 35.7498C25.75 35.7498 24 40.9998 24 42.7498C24 44.4998 25.75 44.4998 25.75 44.4998H33.128Z" fill="white"/>
<path d="M31.875 34C33.0353 34 34.1481 33.5391 34.9686 32.7186C35.7891 31.8981 36.25 30.7853 36.25 29.625C36.25 28.4647 35.7891 27.3519 34.9686 26.5314C34.1481 25.7109 33.0353 25.25 31.875 25.25C30.7147 25.25 29.6019 25.7109 28.7814 26.5314C27.9609 27.3519 27.5 28.4647 27.5 29.625C27.5 30.7853 27.9609 31.8981 28.7814 32.7186C29.6019 33.5391 30.7147 34 31.875 34Z" fill="white"/>
<defs>
<filter id="filter0_b_4328_964" x="-10" y="-10" width="95" height="95" filterUnits="userSpaceOnUse" color-interpolation-filters="sRGB">
<feFlood flood-opacity="0" result="BackgroundImageFix"/>
<feGaussianBlur in="BackgroundImageFix" stdDeviation="5"/>
<feComposite in2="SourceAlpha" operator="in" result="effect1_backgroundBlur_4328_964"/>
<feBlend mode="normal" in="SourceGraphic" in2="effect1_backgroundBlur_4328_964" result="shape"/>
</filter>
<linearGradient id="paint0_linear_4328_964" x1="75" y1="37.5" x2="0" y2="37.5" gradientUnits="userSpaceOnUse">
<stop stop-color="#2DD5C3"/>
<stop offset="1" stop-color="#0076FF"/>
</linearGradient>
</defs>
</svg>
