<svg width="75" height="75" viewBox="0 0 75 75" fill="none" xmlns="http://www.w3.org/2000/svg">
<g filter="url(#filter0_b_4328_965)">
<circle cx="37.5" cy="37.5" r="37.5" fill="url(#paint0_linear_4328_965)" fill-opacity="0.6"/>
</g>
<path d="M50.9865 25.2416C50.9758 25.1898 50.9506 25.1421 50.9137 25.1041C50.8769 25.0661 50.83 25.0394 50.7785 25.0272C47.3467 24.1881 39.4172 27.1781 35.1211 31.4725C34.3548 32.2325 33.6563 33.0579 33.0334 33.9393C31.7086 33.8221 30.3838 33.9199 29.2547 34.4121C26.0689 35.8143 25.1414 39.4729 24.883 41.0467C24.8683 41.1328 24.8739 41.2212 24.8992 41.3048C24.9244 41.3885 24.9688 41.4651 25.0287 41.5287C25.0886 41.5923 25.1625 41.6412 25.2444 41.6714C25.3264 41.7016 25.4143 41.7124 25.5012 41.7029L30.617 41.1387C30.6206 41.5244 30.6439 41.9096 30.6867 42.293C30.7125 42.5592 30.8306 42.808 31.0207 42.9961L33.0018 44.9725C33.1901 45.1623 33.4388 45.2804 33.7049 45.3064C34.0861 45.3491 34.4692 45.3724 34.8527 45.3762L34.2914 50.4856C34.282 50.5724 34.2929 50.6602 34.3232 50.7421C34.3535 50.8241 34.4023 50.8979 34.4659 50.9578C34.5295 51.0176 34.606 51.062 34.6896 51.0873C34.7732 51.1126 34.8615 51.1182 34.9477 51.1037C36.5185 50.8518 40.1836 49.9242 41.5775 46.7385C42.0697 45.6094 42.1705 44.291 42.0568 42.9727C42.9403 42.3497 43.7679 41.651 44.5301 40.8844C48.8396 36.5965 51.8127 28.844 50.9865 25.2416ZM40.2305 35.7691C39.8369 35.3759 39.5689 34.8747 39.4602 34.3291C39.3516 33.7835 39.4071 33.2179 39.62 32.7039C39.8328 32.1899 40.1933 31.7505 40.6558 31.4414C41.1184 31.1323 41.6622 30.9673 42.2185 30.9673C42.7749 30.9673 43.3187 31.1323 43.7813 31.4414C44.2438 31.7505 44.6043 32.1899 44.8171 32.7039C45.03 33.2179 45.0855 33.7835 44.9769 34.3291C44.8682 34.8747 44.6002 35.3759 44.2066 35.7691C43.9457 36.0305 43.6358 36.2378 43.2947 36.3792C42.9535 36.5207 42.5878 36.5935 42.2185 36.5935C41.8493 36.5935 41.4836 36.5207 41.1424 36.3792C40.8013 36.2378 40.4914 36.0305 40.2305 35.7691Z" fill="white"/>
<path d="M32.8672 46.4041C32.5461 46.7258 32.0311 46.8512 31.4111 46.9584C30.0184 47.1957 28.7885 45.9922 29.0387 44.5842C29.1342 44.0504 29.4166 43.3022 29.5924 43.1264C29.6308 43.0887 29.6564 43.0399 29.6655 42.9868C29.6746 42.9338 29.6667 42.8792 29.643 42.8309C29.6194 42.7826 29.5811 42.7429 29.5336 42.7176C29.4861 42.6923 29.4318 42.6826 29.3785 42.6898C28.5997 42.7851 27.8751 43.1383 27.3201 43.693C25.9426 45.0717 25.8125 50.1875 25.8125 50.1875C25.8125 50.1875 30.9313 50.0574 32.3088 48.6787C32.8652 48.1242 33.2188 47.3985 33.3125 46.6186C33.3342 46.3736 33.0359 46.2277 32.8672 46.4041Z" fill="white"/>
<defs>
<filter id="filter0_b_4328_965" x="-10" y="-10" width="95" height="95" filterUnits="userSpaceOnUse" color-interpolation-filters="sRGB">
<feFlood flood-opacity="0" result="BackgroundImageFix"/>
<feGaussianBlur in="BackgroundImageFix" stdDeviation="5"/>
<feComposite in2="SourceAlpha" operator="in" result="effect1_backgroundBlur_4328_965"/>
<feBlend mode="normal" in="SourceGraphic" in2="effect1_backgroundBlur_4328_965" result="shape"/>
</filter>
<linearGradient id="paint0_linear_4328_965" x1="75" y1="37.5" x2="0" y2="37.5" gradientUnits="userSpaceOnUse">
<stop stop-color="#2DD5C3"/>
<stop offset="1" stop-color="#0076FF"/>
</linearGradient>
</defs>
</svg>
