<svg width="75" height="75" viewBox="0 0 75 75" fill="none" xmlns="http://www.w3.org/2000/svg">
<rect width="75" height="75" fill="#1E1E1E"/>
<g clip-path="url(#clip0_2589_7632)">
<rect width="1512" height="6133" transform="translate(-636 -3430)" fill="white"/>
<path d="M448.188 228.811C446.316 215.994 440.601 204.828 435.281 195.7C434 193.467 431.636 191.331 428.68 189.68C423.853 186.864 418.533 186.961 411.932 190.069L271.44 255.611L268.583 256.873L267.105 246.58C265.923 238.521 264.74 230.559 263.657 222.694C261.194 204.051 246.12 88.7942 246.12 88.7942C241.588 54.6153 237.154 20.5335 232.721 -13.6454C228.879 -43.3578 205.43 -67.3413 175.677 -72.0991C165.332 -73.7498 154.396 -73.1672 139.717 -70.0601C137.352 -69.5746 134.79 -68.1181 132.327 -65.9819C126.712 -61.0298 126.81 -54.5242 127.401 -49.9605C134.101 0.919434 140.702 51.7994 147.303 102.485L147.598 104.913L137.746 103.262C129.963 102 122.278 100.737 114.692 99.2809C37.2541 85.0073 -40.0853 70.6367 -117.425 56.1689C-128.952 54.0327 -144.026 52.5762 -155.848 56.1689C-188.065 65.6846 -205.01 88.5029 -207.966 125.983C-208.36 131.712 -205.306 136.858 -199.592 139.868C-196.932 141.228 -193.877 141.907 -191.02 142.49C-150.627 150.064 -39.7898 170.649 -39.7898 170.649L-36.0459 171.426L-37.0312 172.979C-37.7208 174.047 -38.4105 175.115 -39.0016 176.183L-47.6715 192.205C-52.5976 201.332 -57.6222 210.459 -62.6468 219.49L-168.262 409.998C-183.631 437.769 -179.001 470.879 -156.735 492.241C-149.444 499.232 -140.873 503.796 -131.809 508.651C-120.479 514.768 -111.316 512.049 -105.11 500.883L-30.7258 366.789L-29.1494 363.973L107.796 506.806C125.234 525.061 142.672 543.315 160.209 561.473C174.199 576.038 192.327 584 211.342 584C220.701 584 229.962 582.058 239.026 578.174C251.44 572.834 261.095 563.803 269.666 554.773C271.341 553.025 272.622 550.501 273.41 547.685C275.085 541.762 273.41 536.324 268.189 530.887C239.519 501.077 161.096 419.029 161.096 419.029L159.125 416.795L163.854 414.756C167.598 413.203 171.243 411.552 174.889 409.901L204.347 395.822C218.337 389.122 232.425 382.422 246.514 375.819C275.676 362.128 304.74 348.534 334.001 334.941L408.286 300.276C436.956 286.877 452.621 258.718 448.286 228.617L448.188 228.811ZM199.322 271.729C149.47 285.614 117.057 317.463 103.066 366.692C102.771 365.43 102.475 364.167 102.081 362.905C87.0075 315.521 54.8895 284.837 6.71242 271.729C56.8599 257.844 89.2735 225.801 103.165 176.378C103.658 177.931 104.15 179.485 104.544 181.135C106.022 186.185 107.5 191.331 109.766 196.283C127.5 235.317 157.647 260.757 199.322 271.826V271.729Z" fill="url(#paint0_linear_2589_7632)"/>
<g filter="url(#filter0_b_2589_7632)">
<rect x="-645" y="-108" width="1530" height="726" rx="20" fill="url(#paint1_linear_2589_7632)" fill-opacity="0.7"/>
</g>
<g filter="url(#filter1_b_2589_7632)">
<rect x="-388" y="20" width="492.548" height="240" rx="20" fill="white" fill-opacity="0.75"/>
<rect x="-387.25" y="20.75" width="491.048" height="238.5" rx="19.25" stroke="url(#paint2_linear_2589_7632)" stroke-width="1.5"/>
</g>
<g filter="url(#filter2_b_2589_7632)">
<circle cx="37.5" cy="37.5" r="37.5" fill="url(#paint3_linear_2589_7632)" fill-opacity="0.6"/>
</g>
<path d="M52.9617 36.2407C52.8733 35.6359 52.6037 35.1091 52.3527 34.6784C52.2923 34.573 52.1807 34.4722 52.0412 34.3944C51.8134 34.2615 51.5624 34.2661 51.251 34.4127L44.622 37.5052L44.4872 37.5648L44.4174 37.0791C44.3616 36.6989 44.3059 36.3232 44.2547 35.9521C44.1385 35.0724 43.4273 29.6341 43.4273 29.6341C43.2134 28.0214 43.0042 26.4133 42.795 24.8006C42.6138 23.3986 41.5074 22.267 40.1035 22.0425C39.6154 21.9646 39.0994 21.9921 38.4067 22.1387C38.2951 22.1616 38.1743 22.2303 38.0581 22.3311C37.7931 22.5648 37.7977 22.8718 37.8256 23.0871C38.1417 25.4878 38.4532 27.8886 38.7647 30.2801L38.7786 30.3947L38.3137 30.3168C37.9465 30.2572 37.5839 30.1977 37.226 30.1289C33.5721 29.4554 29.9229 28.7774 26.2737 28.0947C25.7298 27.9939 25.0186 27.9252 24.4607 28.0947C22.9406 28.5437 22.1411 29.6204 22.0016 31.3889C21.983 31.6592 22.1271 31.902 22.3967 32.044C22.5223 32.1082 22.6664 32.1402 22.8012 32.1677C24.7071 32.5251 29.9369 33.4964 29.9369 33.4964L30.1135 33.533L30.067 33.6063C30.0345 33.6567 30.0019 33.7071 29.974 33.7575L29.565 34.5135C29.3325 34.9441 29.0955 35.3748 28.8584 35.8009L23.875 44.7899C23.1498 46.1002 23.3683 47.6625 24.4189 48.6704C24.7629 49.0003 25.1673 49.2156 25.595 49.4447C26.1296 49.7334 26.5619 49.6051 26.8548 49.0782L30.3645 42.7511L30.4389 42.6182L36.9006 49.3577C37.7234 50.219 38.5462 51.0803 39.3736 51.9371C40.0337 52.6243 40.8891 53 41.7863 53C42.2279 53 42.6649 52.9084 43.0926 52.7251C43.6783 52.4731 44.1339 52.047 44.5383 51.621C44.6173 51.5385 44.6778 51.4194 44.7149 51.2865C44.794 51.007 44.7149 50.7505 44.4686 50.4939C43.1158 49.0874 39.4155 45.216 39.4155 45.216L39.3225 45.1106L39.5456 45.0144C39.7223 44.9411 39.8943 44.8632 40.0663 44.7853L41.4562 44.121C42.1163 43.8048 42.7811 43.4887 43.4459 43.1772C44.8219 42.5312 46.1932 41.8898 47.5739 41.2483L51.079 39.6127C52.4317 38.9805 53.1709 37.6518 52.9663 36.2315L52.9617 36.2407ZM41.2192 38.2658C38.8669 38.9209 37.3375 40.4237 36.6774 42.7465C36.6635 42.6869 36.6495 42.6274 36.6309 42.5678C35.9197 40.332 34.4042 38.8843 32.131 38.2658C34.4972 37.6106 36.0266 36.0987 36.6821 33.7667C36.7053 33.84 36.7285 33.9133 36.7471 33.9912C36.8169 34.2294 36.8866 34.4722 36.9935 34.7059C37.8303 36.5477 39.2528 37.748 41.2192 38.2703V38.2658Z" fill="white"/>
</g>
<defs>
<filter id="filter0_b_2589_7632" x="-700" y="-163" width="1640" height="836" filterUnits="userSpaceOnUse" color-interpolation-filters="sRGB">
<feFlood flood-opacity="0" result="BackgroundImageFix"/>
<feGaussianBlur in="BackgroundImageFix" stdDeviation="27.5"/>
<feComposite in2="SourceAlpha" operator="in" result="effect1_backgroundBlur_2589_7632"/>
<feBlend mode="normal" in="SourceGraphic" in2="effect1_backgroundBlur_2589_7632" result="shape"/>
</filter>
<filter id="filter1_b_2589_7632" x="-402" y="6" width="520.548" height="268" filterUnits="userSpaceOnUse" color-interpolation-filters="sRGB">
<feFlood flood-opacity="0" result="BackgroundImageFix"/>
<feGaussianBlur in="BackgroundImageFix" stdDeviation="7"/>
<feComposite in2="SourceAlpha" operator="in" result="effect1_backgroundBlur_2589_7632"/>
<feBlend mode="normal" in="SourceGraphic" in2="effect1_backgroundBlur_2589_7632" result="shape"/>
</filter>
<filter id="filter2_b_2589_7632" x="-10" y="-10" width="95" height="95" filterUnits="userSpaceOnUse" color-interpolation-filters="sRGB">
<feFlood flood-opacity="0" result="BackgroundImageFix"/>
<feGaussianBlur in="BackgroundImageFix" stdDeviation="5"/>
<feComposite in2="SourceAlpha" operator="in" result="effect1_backgroundBlur_2589_7632"/>
<feBlend mode="normal" in="SourceGraphic" in2="effect1_backgroundBlur_2589_7632" result="shape"/>
</filter>
<linearGradient id="paint0_linear_2589_7632" x1="-207.966" y1="255.416" x2="448.877" y2="255.416" gradientUnits="userSpaceOnUse">
<stop stop-color="#0076FF"/>
<stop offset="1" stop-color="#2DD5C3"/>
</linearGradient>
<linearGradient id="paint1_linear_2589_7632" x1="-645" y1="156.819" x2="721.223" y2="-188.5" gradientUnits="userSpaceOnUse">
<stop stop-color="#F6F6F6"/>
<stop offset="0.515" stop-color="#DAE3EA"/>
<stop offset="0.92" stop-color="white"/>
</linearGradient>
<linearGradient id="paint2_linear_2589_7632" x1="104.548" y1="140" x2="-388" y2="140" gradientUnits="userSpaceOnUse">
<stop stop-color="#2DD5C3"/>
<stop offset="0.33" stop-color="#0076FF"/>
<stop offset="0.625" stop-color="#FCFEFF"/>
<stop offset="0.92" stop-color="#0886F5"/>
</linearGradient>
<linearGradient id="paint3_linear_2589_7632" x1="75" y1="37.5" x2="0" y2="37.5" gradientUnits="userSpaceOnUse">
<stop stop-color="#2DD5C3"/>
<stop offset="1" stop-color="#0076FF"/>
</linearGradient>
<clipPath id="clip0_2589_7632">
<rect width="1512" height="6133" fill="white" transform="translate(-636 -3430)"/>
</clipPath>
</defs>
</svg>
