<svg width="355" height="228" viewBox="0 0 355 228" fill="none" xmlns="http://www.w3.org/2000/svg">
<rect width="355" height="228" rx="20" fill="url(#paint0_linear_4271_5894)"/>
<path d="M131.804 84V68.732H133.256L133.872 71.13V84H131.804ZM142.364 84L132.992 71.482L133.256 68.732L142.65 81.228L142.364 84ZM142.364 84L141.748 81.734V68.732H143.816V84H142.364ZM151.845 84.22C150.818 84.22 149.894 83.978 149.073 83.494C148.252 83.01 147.599 82.3573 147.115 81.536C146.631 80.7 146.389 79.7687 146.389 78.742C146.389 77.73 146.631 76.8207 147.115 76.014C147.599 75.1927 148.252 74.54 149.073 74.056C149.894 73.572 150.818 73.33 151.845 73.33C152.857 73.33 153.774 73.572 154.595 74.056C155.431 74.5253 156.091 75.1707 156.575 75.992C157.059 76.8133 157.301 77.73 157.301 78.742C157.301 79.7687 157.059 80.7 156.575 81.536C156.091 82.3573 155.431 83.01 154.595 83.494C153.774 83.978 152.857 84.22 151.845 84.22ZM151.845 82.306C152.505 82.306 153.092 82.152 153.605 81.844C154.118 81.536 154.522 81.118 154.815 80.59C155.108 80.0473 155.255 79.4313 155.255 78.742C155.255 78.0673 155.101 77.466 154.793 76.938C154.5 76.41 154.096 75.9993 153.583 75.706C153.084 75.398 152.505 75.244 151.845 75.244C151.185 75.244 150.598 75.398 150.085 75.706C149.572 75.9993 149.168 76.41 148.875 76.938C148.582 77.466 148.435 78.0673 148.435 78.742C148.435 79.4313 148.582 80.0473 148.875 80.59C149.168 81.118 149.572 81.536 150.085 81.844C150.598 82.152 151.185 82.306 151.845 82.306ZM164.46 84V68.732H165.912L172.38 79.358H171.39L177.858 68.732H179.31V84H177.242V72.362L177.726 72.494L172.622 80.876H171.17L166.066 72.494L166.528 72.362V84H164.46ZM187.337 84.22C186.311 84.22 185.387 83.978 184.565 83.494C183.744 83.01 183.091 82.3573 182.607 81.536C182.123 80.7 181.881 79.7687 181.881 78.742C181.881 77.73 182.123 76.8207 182.607 76.014C183.091 75.1927 183.744 74.54 184.565 74.056C185.387 73.572 186.311 73.33 187.337 73.33C188.349 73.33 189.266 73.572 190.087 74.056C190.923 74.5253 191.583 75.1707 192.067 75.992C192.551 76.8133 192.793 77.73 192.793 78.742C192.793 79.7687 192.551 80.7 192.067 81.536C191.583 82.3573 190.923 83.01 190.087 83.494C189.266 83.978 188.349 84.22 187.337 84.22ZM187.337 82.306C187.997 82.306 188.584 82.152 189.097 81.844C189.611 81.536 190.014 81.118 190.307 80.59C190.601 80.0473 190.747 79.4313 190.747 78.742C190.747 78.0673 190.593 77.466 190.285 76.938C189.992 76.41 189.589 75.9993 189.075 75.706C188.577 75.398 187.997 75.244 187.337 75.244C186.677 75.244 186.091 75.398 185.577 75.706C185.064 75.9993 184.661 76.41 184.367 76.938C184.074 77.466 183.927 78.0673 183.927 78.742C183.927 79.4313 184.074 80.0473 184.367 80.59C184.661 81.118 185.064 81.536 185.577 81.844C186.091 82.152 186.677 82.306 187.337 82.306ZM199.446 84.22C198.478 84.22 197.613 83.9853 196.85 83.516C196.088 83.032 195.479 82.3793 195.024 81.558C194.584 80.7367 194.364 79.8127 194.364 78.786C194.364 77.7593 194.584 76.8353 195.024 76.014C195.479 75.1927 196.088 74.54 196.85 74.056C197.613 73.572 198.478 73.33 199.446 73.33C200.224 73.33 200.928 73.4987 201.558 73.836C202.189 74.1587 202.695 74.6133 203.076 75.2C203.472 75.772 203.692 76.4393 203.736 77.202V80.348C203.692 81.096 203.48 81.7633 203.098 82.35C202.717 82.9367 202.211 83.3987 201.58 83.736C200.95 84.0587 200.238 84.22 199.446 84.22ZM199.776 82.35C200.436 82.35 201.008 82.196 201.492 81.888C201.991 81.58 202.38 81.162 202.658 80.634C202.937 80.0913 203.076 79.4753 203.076 78.786C203.076 78.0673 202.93 77.444 202.636 76.916C202.358 76.388 201.969 75.97 201.47 75.662C200.986 75.354 200.414 75.2 199.754 75.2C199.094 75.2 198.515 75.354 198.016 75.662C197.518 75.97 197.122 76.3953 196.828 76.938C196.55 77.466 196.41 78.0747 196.41 78.764C196.41 79.468 196.55 80.0913 196.828 80.634C197.122 81.162 197.518 81.58 198.016 81.888C198.53 82.196 199.116 82.35 199.776 82.35ZM204.946 84H202.944V81.184L203.318 78.632L202.944 76.102V68.292H204.946V84ZM212.669 84.22C211.628 84.22 210.689 83.9853 209.853 83.516C209.017 83.032 208.357 82.3793 207.873 81.558C207.389 80.7367 207.147 79.8053 207.147 78.764C207.147 77.7373 207.382 76.8133 207.851 75.992C208.335 75.1707 208.98 74.5253 209.787 74.056C210.608 73.572 211.525 73.33 212.537 73.33C213.505 73.33 214.356 73.55 215.089 73.99C215.837 74.43 216.416 75.0387 216.827 75.816C217.252 76.5933 217.465 77.4733 217.465 78.456C217.465 78.6027 217.458 78.764 217.443 78.94C217.428 79.1013 217.399 79.292 217.355 79.512H208.533V77.862H216.299L215.573 78.5C215.573 77.796 215.448 77.202 215.199 76.718C214.95 76.2193 214.598 75.838 214.143 75.574C213.688 75.2953 213.138 75.156 212.493 75.156C211.818 75.156 211.224 75.3027 210.711 75.596C210.198 75.8893 209.802 76.3 209.523 76.828C209.244 77.356 209.105 77.9793 209.105 78.698C209.105 79.4313 209.252 80.0767 209.545 80.634C209.838 81.1767 210.256 81.602 210.799 81.91C211.342 82.2033 211.965 82.35 212.669 82.35C213.256 82.35 213.791 82.2473 214.275 82.042C214.774 81.8367 215.199 81.5287 215.551 81.118L216.827 82.416C216.328 83.0027 215.712 83.45 214.979 83.758C214.26 84.066 213.49 84.22 212.669 84.22ZM219.624 84V68.292H221.604V84H219.624ZM233.133 84V69.172H235.201V84H233.133ZM227.941 70.624V68.732H240.371V70.624H227.941ZM240.141 84V73.55H242.121V84H240.141ZM242.121 78.038L241.373 77.708C241.373 76.3733 241.681 75.31 242.297 74.518C242.913 73.726 243.801 73.33 244.959 73.33C245.487 73.33 245.964 73.4253 246.389 73.616C246.815 73.792 247.211 74.0927 247.577 74.518L246.279 75.86C246.059 75.6253 245.817 75.4567 245.553 75.354C245.289 75.2513 244.981 75.2 244.629 75.2C243.896 75.2 243.295 75.4347 242.825 75.904C242.356 76.3733 242.121 77.0847 242.121 78.038ZM253.072 84.22C252.118 84.22 251.253 83.9853 250.476 83.516C249.698 83.032 249.082 82.3793 248.628 81.558C248.188 80.7367 247.968 79.8127 247.968 78.786C247.968 77.7593 248.188 76.8353 248.628 76.014C249.082 75.1927 249.691 74.54 250.454 74.056C251.231 73.572 252.104 73.33 253.072 73.33C253.864 73.33 254.568 73.4987 255.184 73.836C255.814 74.1587 256.32 74.6133 256.702 75.2C257.083 75.772 257.296 76.4393 257.34 77.202V80.348C257.296 81.096 257.083 81.7633 256.702 82.35C256.335 82.9367 255.836 83.3987 255.206 83.736C254.59 84.0587 253.878 84.22 253.072 84.22ZM253.402 82.35C254.384 82.35 255.176 82.02 255.778 81.36C256.379 80.6853 256.68 79.8273 256.68 78.786C256.68 78.0673 256.54 77.444 256.262 76.916C255.998 76.3733 255.616 75.9553 255.118 75.662C254.619 75.354 254.04 75.2 253.38 75.2C252.72 75.2 252.133 75.354 251.62 75.662C251.121 75.97 250.725 76.3953 250.432 76.938C250.153 77.466 250.014 78.0747 250.014 78.764C250.014 79.468 250.153 80.0913 250.432 80.634C250.725 81.162 251.128 81.58 251.642 81.888C252.155 82.196 252.742 82.35 253.402 82.35ZM256.548 84V81.184L256.922 78.632L256.548 76.102V73.55H258.55V84H256.548ZM261.454 84V73.55H263.434V84H261.454ZM262.444 71.46C262.078 71.46 261.777 71.3427 261.542 71.108C261.308 70.8587 261.19 70.5507 261.19 70.184C261.19 69.832 261.308 69.5387 261.542 69.304C261.777 69.0547 262.078 68.93 262.444 68.93C262.811 68.93 263.112 69.0547 263.346 69.304C263.581 69.5387 263.698 69.832 263.698 70.184C263.698 70.5507 263.581 70.8587 263.346 71.108C263.112 71.3427 262.811 71.46 262.444 71.46ZM273.744 84V77.906C273.744 77.114 273.495 76.4613 272.996 75.948C272.498 75.4347 271.852 75.178 271.06 75.178C270.532 75.178 270.063 75.2953 269.652 75.53C269.242 75.7647 268.919 76.0873 268.684 76.498C268.45 76.9087 268.332 77.378 268.332 77.906L267.518 77.444C267.518 76.652 267.694 75.948 268.046 75.332C268.398 74.716 268.89 74.232 269.52 73.88C270.151 73.5133 270.862 73.33 271.654 73.33C272.446 73.33 273.143 73.528 273.744 73.924C274.36 74.32 274.844 74.8407 275.196 75.486C275.548 76.1167 275.724 76.7913 275.724 77.51V84H273.744ZM266.352 84V73.55H268.332V84H266.352ZM278.427 84V73.55H280.407V84H278.427ZM279.417 71.46C279.05 71.46 278.75 71.3427 278.515 71.108C278.28 70.8587 278.163 70.5507 278.163 70.184C278.163 69.832 278.28 69.5387 278.515 69.304C278.75 69.0547 279.05 68.93 279.417 68.93C279.784 68.93 280.084 69.0547 280.319 69.304C280.554 69.5387 280.671 69.832 280.671 70.184C280.671 70.5507 280.554 70.8587 280.319 71.108C280.084 71.3427 279.784 71.46 279.417 71.46ZM290.717 84V77.906C290.717 77.114 290.468 76.4613 289.969 75.948C289.47 75.4347 288.825 75.178 288.033 75.178C287.505 75.178 287.036 75.2953 286.625 75.53C286.214 75.7647 285.892 76.0873 285.657 76.498C285.422 76.9087 285.305 77.378 285.305 77.906L284.491 77.444C284.491 76.652 284.667 75.948 285.019 75.332C285.371 74.716 285.862 74.232 286.493 73.88C287.124 73.5133 287.835 73.33 288.627 73.33C289.419 73.33 290.116 73.528 290.717 73.924C291.333 74.32 291.817 74.8407 292.169 75.486C292.521 76.1167 292.697 76.7913 292.697 77.51V84H290.717ZM283.325 84V73.55H285.305V84H283.325ZM299.712 88.598C298.641 88.598 297.688 88.4 296.852 88.004C296.03 87.608 295.37 87.0507 294.872 86.332L296.148 85.034C296.573 85.5767 297.079 85.9873 297.666 86.266C298.252 86.5593 298.949 86.706 299.756 86.706C300.826 86.706 301.67 86.42 302.286 85.848C302.916 85.2907 303.232 84.5353 303.232 83.582V80.986L303.584 78.632L303.232 76.3V73.55H305.212V83.582C305.212 84.5793 304.977 85.452 304.508 86.2C304.053 86.948 303.408 87.5347 302.572 87.96C301.75 88.3853 300.797 88.598 299.712 88.598ZM299.712 83.824C298.758 83.824 297.9 83.5967 297.138 83.142C296.39 82.6873 295.796 82.064 295.356 81.272C294.916 80.4653 294.696 79.5633 294.696 78.566C294.696 77.5687 294.916 76.6813 295.356 75.904C295.796 75.112 296.39 74.4887 297.138 74.034C297.9 73.5647 298.758 73.33 299.712 73.33C300.533 73.33 301.259 73.4913 301.89 73.814C302.52 74.1367 303.019 74.5913 303.386 75.178C303.767 75.75 303.972 76.4247 304.002 77.202V79.974C303.958 80.7367 303.745 81.4113 303.364 81.998C302.997 82.57 302.498 83.0173 301.868 83.34C301.237 83.6627 300.518 83.824 299.712 83.824ZM300.108 81.954C300.753 81.954 301.318 81.8147 301.802 81.536C302.3 81.2573 302.682 80.8687 302.946 80.37C303.21 79.8567 303.342 79.2627 303.342 78.588C303.342 77.9133 303.202 77.3267 302.924 76.828C302.66 76.3147 302.286 75.9187 301.802 75.64C301.318 75.3467 300.746 75.2 300.086 75.2C299.426 75.2 298.846 75.3467 298.348 75.64C297.849 75.9187 297.453 76.3147 297.16 76.828C296.881 77.3267 296.742 77.906 296.742 78.566C296.742 79.226 296.881 79.8127 297.16 80.326C297.453 80.8393 297.849 81.2427 298.348 81.536C298.861 81.8147 299.448 81.954 300.108 81.954Z" fill="#858585"/>
<path d="M131.23 119V108.59H132.22L132.64 110.225V119H131.23ZM138.43 119L132.04 110.465L132.22 108.59L138.625 117.11L138.43 119ZM138.43 119L138.01 117.455V108.59H139.42V119H138.43ZM144.894 119.15C144.194 119.15 143.564 118.985 143.004 118.655C142.444 118.325 141.999 117.88 141.669 117.32C141.339 116.75 141.174 116.115 141.174 115.415C141.174 114.725 141.339 114.105 141.669 113.555C141.999 112.995 142.444 112.55 143.004 112.22C143.564 111.89 144.194 111.725 144.894 111.725C145.584 111.725 146.209 111.89 146.769 112.22C147.339 112.54 147.789 112.98 148.119 113.54C148.449 114.1 148.614 114.725 148.614 115.415C148.614 116.115 148.449 116.75 148.119 117.32C147.789 117.88 147.339 118.325 146.769 118.655C146.209 118.985 145.584 119.15 144.894 119.15ZM144.894 117.845C145.344 117.845 145.744 117.74 146.094 117.53C146.444 117.32 146.719 117.035 146.919 116.675C147.119 116.305 147.219 115.885 147.219 115.415C147.219 114.955 147.114 114.545 146.904 114.185C146.704 113.825 146.429 113.545 146.079 113.345C145.739 113.135 145.344 113.03 144.894 113.03C144.444 113.03 144.044 113.135 143.694 113.345C143.344 113.545 143.069 113.825 142.869 114.185C142.669 114.545 142.569 114.955 142.569 115.415C142.569 115.885 142.669 116.305 142.869 116.675C143.069 117.035 143.344 117.32 143.694 117.53C144.044 117.74 144.444 117.845 144.894 117.845ZM154.351 119V108.89H155.701V119H154.351ZM152.596 113.105V111.875H157.456V113.105H152.596ZM158.778 119V111.875H160.128V119H158.778ZM160.128 114.935L159.618 114.71C159.618 113.8 159.828 113.075 160.248 112.535C160.668 111.995 161.273 111.725 162.063 111.725C162.423 111.725 162.748 111.79 163.038 111.92C163.328 112.04 163.598 112.245 163.848 112.535L162.963 113.45C162.813 113.29 162.648 113.175 162.468 113.105C162.288 113.035 162.078 113 161.838 113C161.338 113 160.928 113.16 160.608 113.48C160.288 113.8 160.128 114.285 160.128 114.935ZM167.594 119.15C166.944 119.15 166.354 118.99 165.824 118.67C165.294 118.34 164.874 117.895 164.564 117.335C164.264 116.775 164.114 116.145 164.114 115.445C164.114 114.745 164.264 114.115 164.564 113.555C164.874 112.995 165.289 112.55 165.809 112.22C166.339 111.89 166.934 111.725 167.594 111.725C168.134 111.725 168.614 111.84 169.034 112.07C169.464 112.29 169.809 112.6 170.069 113C170.329 113.39 170.474 113.845 170.504 114.365V116.51C170.474 117.02 170.329 117.475 170.069 117.875C169.819 118.275 169.479 118.59 169.049 118.82C168.629 119.04 168.144 119.15 167.594 119.15ZM167.819 117.875C168.489 117.875 169.029 117.65 169.439 117.2C169.849 116.74 170.054 116.155 170.054 115.445C170.054 114.955 169.959 114.53 169.769 114.17C169.589 113.8 169.329 113.515 168.989 113.315C168.649 113.105 168.254 113 167.804 113C167.354 113 166.954 113.105 166.604 113.315C166.264 113.525 165.994 113.815 165.794 114.185C165.604 114.545 165.509 114.96 165.509 115.43C165.509 115.91 165.604 116.335 165.794 116.705C165.994 117.065 166.269 117.35 166.619 117.56C166.969 117.77 167.369 117.875 167.819 117.875ZM169.964 119V117.08L170.219 115.34L169.964 113.615V111.875H171.329V119H169.964ZM173.31 119V111.875H174.66V119H173.31ZM173.985 110.45C173.735 110.45 173.53 110.37 173.37 110.21C173.21 110.04 173.13 109.83 173.13 109.58C173.13 109.34 173.21 109.14 173.37 108.98C173.53 108.81 173.735 108.725 173.985 108.725C174.235 108.725 174.44 108.81 174.6 108.98C174.76 109.14 174.84 109.34 174.84 109.58C174.84 109.83 174.76 110.04 174.6 110.21C174.44 110.37 174.235 110.45 173.985 110.45ZM181.689 119V114.845C181.689 114.305 181.519 113.86 181.179 113.51C180.839 113.16 180.399 112.985 179.859 112.985C179.499 112.985 179.179 113.065 178.899 113.225C178.619 113.385 178.399 113.605 178.239 113.885C178.079 114.165 177.999 114.485 177.999 114.845L177.444 114.53C177.444 113.99 177.564 113.51 177.804 113.09C178.044 112.67 178.379 112.34 178.809 112.1C179.239 111.85 179.724 111.725 180.264 111.725C180.804 111.725 181.279 111.86 181.689 112.13C182.109 112.4 182.439 112.755 182.679 113.195C182.919 113.625 183.039 114.085 183.039 114.575V119H181.689ZM176.649 119V111.875H177.999V119H176.649ZM184.882 119V111.875H186.232V119H184.882ZM185.557 110.45C185.307 110.45 185.102 110.37 184.942 110.21C184.782 110.04 184.702 109.83 184.702 109.58C184.702 109.34 184.782 109.14 184.942 108.98C185.102 108.81 185.307 108.725 185.557 108.725C185.807 108.725 186.012 108.81 186.172 108.98C186.332 109.14 186.412 109.34 186.412 109.58C186.412 109.83 186.332 110.04 186.172 110.21C186.012 110.37 185.807 110.45 185.557 110.45ZM193.261 119V114.845C193.261 114.305 193.091 113.86 192.751 113.51C192.411 113.16 191.971 112.985 191.431 112.985C191.071 112.985 190.751 113.065 190.471 113.225C190.191 113.385 189.971 113.605 189.811 113.885C189.651 114.165 189.571 114.485 189.571 114.845L189.016 114.53C189.016 113.99 189.136 113.51 189.376 113.09C189.616 112.67 189.951 112.34 190.381 112.1C190.811 111.85 191.296 111.725 191.836 111.725C192.376 111.725 192.851 111.86 193.261 112.13C193.681 112.4 194.011 112.755 194.251 113.195C194.491 113.625 194.611 114.085 194.611 114.575V119H193.261ZM188.221 119V111.875H189.571V119H188.221ZM199.394 122.135C198.664 122.135 198.014 122 197.444 121.73C196.884 121.46 196.434 121.08 196.094 120.59L196.964 119.705C197.254 120.075 197.599 120.355 197.999 120.545C198.399 120.745 198.874 120.845 199.424 120.845C200.154 120.845 200.729 120.65 201.149 120.26C201.579 119.88 201.794 119.365 201.794 118.715V116.945L202.034 115.34L201.794 113.75V111.875H203.144V118.715C203.144 119.395 202.984 119.99 202.664 120.5C202.354 121.01 201.914 121.41 201.344 121.7C200.784 121.99 200.134 122.135 199.394 122.135ZM199.394 118.88C198.744 118.88 198.159 118.725 197.639 118.415C197.129 118.105 196.724 117.68 196.424 117.14C196.124 116.59 195.974 115.975 195.974 115.295C195.974 114.615 196.124 114.01 196.424 113.48C196.724 112.94 197.129 112.515 197.639 112.205C198.159 111.885 198.744 111.725 199.394 111.725C199.954 111.725 200.449 111.835 200.879 112.055C201.309 112.275 201.649 112.585 201.899 112.985C202.159 113.375 202.299 113.835 202.319 114.365V116.255C202.289 116.775 202.144 117.235 201.884 117.635C201.634 118.025 201.294 118.33 200.864 118.55C200.434 118.77 199.944 118.88 199.394 118.88ZM199.664 117.605C200.104 117.605 200.489 117.51 200.819 117.32C201.159 117.13 201.419 116.865 201.599 116.525C201.779 116.175 201.869 115.77 201.869 115.31C201.869 114.85 201.774 114.45 201.584 114.11C201.404 113.76 201.149 113.49 200.819 113.3C200.489 113.1 200.099 113 199.649 113C199.199 113 198.804 113.1 198.464 113.3C198.124 113.49 197.854 113.76 197.654 114.11C197.464 114.45 197.369 114.845 197.369 115.295C197.369 115.745 197.464 116.145 197.654 116.495C197.854 116.845 198.124 117.12 198.464 117.32C198.814 117.51 199.214 117.605 199.664 117.605ZM211.501 119.15C210.801 119.15 210.171 118.985 209.611 118.655C209.051 118.325 208.606 117.88 208.276 117.32C207.946 116.75 207.781 116.115 207.781 115.415C207.781 114.725 207.946 114.105 208.276 113.555C208.606 112.995 209.051 112.55 209.611 112.22C210.171 111.89 210.801 111.725 211.501 111.725C212.191 111.725 212.816 111.89 213.376 112.22C213.946 112.54 214.396 112.98 214.726 113.54C215.056 114.1 215.221 114.725 215.221 115.415C215.221 116.115 215.056 116.75 214.726 117.32C214.396 117.88 213.946 118.325 213.376 118.655C212.816 118.985 212.191 119.15 211.501 119.15ZM211.501 117.845C211.951 117.845 212.351 117.74 212.701 117.53C213.051 117.32 213.326 117.035 213.526 116.675C213.726 116.305 213.826 115.885 213.826 115.415C213.826 114.955 213.721 114.545 213.511 114.185C213.311 113.825 213.036 113.545 212.686 113.345C212.346 113.135 211.951 113.03 211.501 113.03C211.051 113.03 210.651 113.135 210.301 113.345C209.951 113.545 209.676 113.825 209.476 114.185C209.276 114.545 209.176 114.955 209.176 115.415C209.176 115.885 209.276 116.305 209.476 116.675C209.676 117.035 209.951 117.32 210.301 117.53C210.651 117.74 211.051 117.845 211.501 117.845ZM217.542 119V110.81C217.542 110.28 217.657 109.82 217.887 109.43C218.117 109.03 218.432 108.715 218.832 108.485C219.242 108.255 219.717 108.14 220.257 108.14C220.667 108.14 221.022 108.21 221.322 108.35C221.622 108.49 221.897 108.695 222.147 108.965L221.262 109.835C221.132 109.695 220.987 109.59 220.827 109.52C220.667 109.44 220.472 109.4 220.242 109.4C219.812 109.4 219.477 109.525 219.237 109.775C219.007 110.025 218.892 110.37 218.892 110.81V119H217.542ZM215.787 113.105V111.875H221.157V113.105H215.787ZM228.889 119.15C228.189 119.15 227.559 118.985 226.999 118.655C226.439 118.325 225.994 117.88 225.664 117.32C225.334 116.75 225.169 116.115 225.169 115.415C225.169 114.725 225.334 114.105 225.664 113.555C225.994 112.995 226.439 112.55 226.999 112.22C227.559 111.89 228.189 111.725 228.889 111.725C229.579 111.725 230.204 111.89 230.764 112.22C231.334 112.54 231.784 112.98 232.114 113.54C232.444 114.1 232.609 114.725 232.609 115.415C232.609 116.115 232.444 116.75 232.114 117.32C231.784 117.88 231.334 118.325 230.764 118.655C230.204 118.985 229.579 119.15 228.889 119.15ZM228.889 117.845C229.339 117.845 229.739 117.74 230.089 117.53C230.439 117.32 230.714 117.035 230.914 116.675C231.114 116.305 231.214 115.885 231.214 115.415C231.214 114.955 231.109 114.545 230.899 114.185C230.699 113.825 230.424 113.545 230.074 113.345C229.734 113.135 229.339 113.03 228.889 113.03C228.439 113.03 228.039 113.135 227.689 113.345C227.339 113.545 227.064 113.825 226.864 114.185C226.664 114.545 226.564 114.955 226.564 115.415C226.564 115.885 226.664 116.305 226.864 116.675C227.064 117.035 227.339 117.32 227.689 117.53C228.039 117.74 228.439 117.845 228.889 117.845ZM237.01 119.15C236.42 119.15 235.89 119.02 235.42 118.76C234.96 118.49 234.6 118.12 234.34 117.65C234.08 117.18 233.95 116.635 233.95 116.015V111.875H235.3V115.955C235.3 116.345 235.365 116.685 235.495 116.975C235.635 117.255 235.835 117.47 236.095 117.62C236.355 117.77 236.66 117.845 237.01 117.845C237.54 117.845 237.955 117.68 238.255 117.35C238.555 117.01 238.705 116.545 238.705 115.955V111.875H240.055V116.015C240.055 116.635 239.925 117.18 239.665 117.65C239.405 118.12 239.045 118.49 238.585 118.76C238.135 119.02 237.61 119.15 237.01 119.15ZM241.864 119V111.875H243.214V119H241.864ZM243.214 114.935L242.704 114.71C242.704 113.8 242.914 113.075 243.334 112.535C243.754 111.995 244.359 111.725 245.149 111.725C245.509 111.725 245.834 111.79 246.124 111.92C246.414 112.04 246.684 112.245 246.934 112.535L246.049 113.45C245.899 113.29 245.734 113.175 245.554 113.105C245.374 113.035 245.164 113 244.924 113C244.424 113 244.014 113.16 243.694 113.48C243.374 113.8 243.214 114.285 243.214 114.935ZM254.523 119.15C253.823 119.15 253.193 118.985 252.633 118.655C252.073 118.325 251.628 117.88 251.298 117.32C250.968 116.75 250.803 116.115 250.803 115.415C250.803 114.725 250.968 114.105 251.298 113.555C251.628 112.995 252.073 112.55 252.633 112.22C253.193 111.89 253.823 111.725 254.523 111.725C255.213 111.725 255.838 111.89 256.398 112.22C256.968 112.54 257.418 112.98 257.748 113.54C258.078 114.1 258.243 114.725 258.243 115.415C258.243 116.115 258.078 116.75 257.748 117.32C257.418 117.88 256.968 118.325 256.398 118.655C255.838 118.985 255.213 119.15 254.523 119.15ZM254.523 117.845C254.973 117.845 255.373 117.74 255.723 117.53C256.073 117.32 256.348 117.035 256.548 116.675C256.748 116.305 256.848 115.885 256.848 115.415C256.848 114.955 256.743 114.545 256.533 114.185C256.333 113.825 256.058 113.545 255.708 113.345C255.368 113.135 254.973 113.03 254.523 113.03C254.073 113.03 253.673 113.135 253.323 113.345C252.973 113.545 252.698 113.825 252.498 114.185C252.298 114.545 252.198 114.955 252.198 115.415C252.198 115.885 252.298 116.305 252.498 116.675C252.698 117.035 252.973 117.32 253.323 117.53C253.673 117.74 254.073 117.845 254.523 117.845ZM259.764 119V111.875H261.114V119H259.764ZM261.114 114.935L260.604 114.71C260.604 113.8 260.814 113.075 261.234 112.535C261.654 111.995 262.259 111.725 263.049 111.725C263.409 111.725 263.734 111.79 264.024 111.92C264.314 112.04 264.584 112.245 264.834 112.535L263.949 113.45C263.799 113.29 263.634 113.175 263.454 113.105C263.274 113.035 263.064 113 262.824 113C262.324 113 261.914 113.16 261.594 113.48C261.274 113.8 261.114 114.285 261.114 114.935ZM271.884 119.15C271.204 119.15 270.584 119.025 270.024 118.775C269.474 118.515 269.009 118.14 268.629 117.65L269.589 116.69C269.819 117.04 270.134 117.32 270.534 117.53C270.934 117.73 271.379 117.83 271.869 117.83C272.329 117.83 272.724 117.745 273.054 117.575C273.394 117.395 273.659 117.145 273.849 116.825C274.049 116.505 274.149 116.135 274.149 115.715C274.149 115.285 274.049 114.915 273.849 114.605C273.659 114.285 273.389 114.04 273.039 113.87C272.689 113.7 272.274 113.615 271.794 113.615C271.614 113.615 271.434 113.63 271.254 113.66C271.074 113.68 270.899 113.715 270.729 113.765L271.329 112.955C271.519 112.865 271.724 112.795 271.944 112.745C272.164 112.695 272.384 112.67 272.604 112.67C273.164 112.67 273.664 112.8 274.104 113.06C274.554 113.32 274.909 113.685 275.169 114.155C275.439 114.625 275.574 115.17 275.574 115.79C275.574 116.45 275.414 117.035 275.094 117.545C274.784 118.045 274.354 118.44 273.804 118.73C273.254 119.01 272.614 119.15 271.884 119.15ZM270.729 113.765V112.91L273.774 109.445L275.454 109.43L272.319 112.985L270.729 113.765ZM269.124 109.85V108.59H275.454V109.43L274.224 109.85H269.124ZM277.24 119V111.875H278.59V119H277.24ZM278.59 114.935L278.08 114.71C278.08 113.8 278.29 113.075 278.71 112.535C279.13 111.995 279.735 111.725 280.525 111.725C280.885 111.725 281.21 111.79 281.5 111.92C281.79 112.04 282.06 112.245 282.31 112.535L281.425 113.45C281.275 113.29 281.11 113.175 280.93 113.105C280.75 113.035 280.54 113 280.3 113C279.8 113 279.39 113.16 279.07 113.48C278.75 113.8 278.59 114.285 278.59 114.935ZM286.041 119.15C285.381 119.15 284.791 118.99 284.271 118.67C283.751 118.34 283.336 117.895 283.026 117.335C282.726 116.775 282.576 116.145 282.576 115.445C282.576 114.745 282.726 114.115 283.026 113.555C283.336 112.995 283.751 112.55 284.271 112.22C284.791 111.89 285.381 111.725 286.041 111.725C286.571 111.725 287.051 111.84 287.481 112.07C287.911 112.29 288.256 112.6 288.516 113C288.786 113.39 288.936 113.845 288.966 114.365V116.51C288.936 117.02 288.791 117.475 288.531 117.875C288.271 118.275 287.926 118.59 287.496 118.82C287.066 119.04 286.581 119.15 286.041 119.15ZM286.266 117.875C286.716 117.875 287.106 117.77 287.436 117.56C287.776 117.35 288.041 117.065 288.231 116.705C288.421 116.335 288.516 115.915 288.516 115.445C288.516 114.955 288.416 114.53 288.216 114.17C288.026 113.81 287.761 113.525 287.421 113.315C287.091 113.105 286.701 113 286.251 113C285.801 113 285.406 113.105 285.066 113.315C284.726 113.525 284.456 113.815 284.256 114.185C284.066 114.545 283.971 114.96 283.971 115.43C283.971 115.91 284.066 116.335 284.256 116.705C284.456 117.065 284.726 117.35 285.066 117.56C285.416 117.77 285.816 117.875 286.266 117.875ZM289.791 119H288.426V117.08L288.681 115.34L288.426 113.615V108.29H289.791V119ZM134.74 143.15C134.2 143.15 133.71 143.04 133.27 142.82C132.84 142.59 132.495 142.275 132.235 141.875C131.975 141.475 131.83 141.02 131.8 140.51V138.365C131.83 137.845 131.975 137.39 132.235 137C132.505 136.6 132.855 136.29 133.285 136.07C133.725 135.84 134.21 135.725 134.74 135.725C135.39 135.725 135.975 135.89 136.495 136.22C137.025 136.55 137.44 136.995 137.74 137.555C138.04 138.115 138.19 138.745 138.19 139.445C138.19 140.145 138.04 140.775 137.74 141.335C137.44 141.895 137.025 142.34 136.495 142.67C135.975 142.99 135.39 143.15 134.74 143.15ZM130.99 145.985V135.875H132.34V137.75L132.085 139.475L132.34 141.215V145.985H130.99ZM134.515 141.875C134.965 141.875 135.36 141.77 135.7 141.56C136.04 141.35 136.31 141.065 136.51 140.705C136.71 140.335 136.81 139.91 136.81 139.43C136.81 138.96 136.71 138.54 136.51 138.17C136.31 137.8 136.04 137.515 135.7 137.315C135.36 137.105 134.97 137 134.53 137C134.08 137 133.685 137.105 133.345 137.315C133.005 137.515 132.74 137.8 132.55 138.17C132.36 138.54 132.265 138.965 132.265 139.445C132.265 139.915 132.355 140.335 132.535 140.705C132.725 141.065 132.99 141.35 133.33 141.56C133.68 141.77 134.075 141.875 134.515 141.875ZM142.75 143.15C142.1 143.15 141.51 142.99 140.98 142.67C140.45 142.34 140.03 141.895 139.72 141.335C139.42 140.775 139.27 140.145 139.27 139.445C139.27 138.745 139.42 138.115 139.72 137.555C140.03 136.995 140.445 136.55 140.965 136.22C141.495 135.89 142.09 135.725 142.75 135.725C143.29 135.725 143.77 135.84 144.19 136.07C144.62 136.29 144.965 136.6 145.225 137C145.485 137.39 145.63 137.845 145.66 138.365V140.51C145.63 141.02 145.485 141.475 145.225 141.875C144.975 142.275 144.635 142.59 144.205 142.82C143.785 143.04 143.3 143.15 142.75 143.15ZM142.975 141.875C143.645 141.875 144.185 141.65 144.595 141.2C145.005 140.74 145.21 140.155 145.21 139.445C145.21 138.955 145.115 138.53 144.925 138.17C144.745 137.8 144.485 137.515 144.145 137.315C143.805 137.105 143.41 137 142.96 137C142.51 137 142.11 137.105 141.76 137.315C141.42 137.525 141.15 137.815 140.95 138.185C140.76 138.545 140.665 138.96 140.665 139.43C140.665 139.91 140.76 140.335 140.95 140.705C141.15 141.065 141.425 141.35 141.775 141.56C142.125 141.77 142.525 141.875 142.975 141.875ZM145.12 143V141.08L145.375 139.34L145.12 137.615V135.875H146.485V143H145.12ZM148.451 143V135.875H149.801V143H148.451ZM149.801 138.935L149.291 138.71C149.291 137.8 149.501 137.075 149.921 136.535C150.341 135.995 150.946 135.725 151.736 135.725C152.096 135.725 152.421 135.79 152.711 135.92C153.001 136.04 153.271 136.245 153.521 136.535L152.636 137.45C152.486 137.29 152.321 137.175 152.141 137.105C151.961 137.035 151.751 137 151.511 137C151.011 137 150.601 137.16 150.281 137.48C149.961 137.8 149.801 138.285 149.801 138.935ZM155.552 143V132.89H156.902V143H155.552ZM153.797 137.105V135.875H158.657V137.105H153.797ZM162.319 143.06L159.229 135.875H160.729L163.024 141.5H162.544L164.959 135.875H166.459L163.129 143.06H162.319ZM160.279 145.985L162.379 141.68L163.129 143.06L161.779 145.985H160.279ZM170.804 143V135.875H172.154V143H170.804ZM175.619 143V138.695C175.619 138.165 175.454 137.75 175.124 137.45C174.804 137.14 174.399 136.985 173.909 136.985C173.579 136.985 173.284 137.055 173.024 137.195C172.764 137.335 172.554 137.53 172.394 137.78C172.234 138.03 172.154 138.33 172.154 138.68L171.599 138.41C171.599 137.87 171.714 137.4 171.944 137C172.184 136.6 172.509 136.29 172.919 136.07C173.329 135.84 173.789 135.725 174.299 135.725C174.799 135.725 175.249 135.835 175.649 136.055C176.059 136.275 176.379 136.585 176.609 136.985C176.849 137.385 176.969 137.86 176.969 138.41V143H175.619ZM180.434 143V138.695C180.434 138.165 180.269 137.75 179.939 137.45C179.619 137.14 179.219 136.985 178.739 136.985C178.409 136.985 178.109 137.055 177.839 137.195C177.579 137.335 177.369 137.53 177.209 137.78C177.049 138.03 176.969 138.33 176.969 138.68L176.204 138.41C176.234 137.86 176.379 137.39 176.639 137C176.909 136.6 177.254 136.29 177.674 136.07C178.094 135.84 178.554 135.725 179.054 135.725C179.574 135.725 180.039 135.835 180.449 136.055C180.859 136.275 181.184 136.585 181.424 136.985C181.674 137.385 181.799 137.865 181.799 138.425V143H180.434ZM186.891 143.15C186.191 143.15 185.561 142.985 185.001 142.655C184.441 142.325 183.996 141.88 183.666 141.32C183.336 140.75 183.171 140.115 183.171 139.415C183.171 138.725 183.336 138.105 183.666 137.555C183.996 136.995 184.441 136.55 185.001 136.22C185.561 135.89 186.191 135.725 186.891 135.725C187.581 135.725 188.206 135.89 188.766 136.22C189.336 136.54 189.786 136.98 190.116 137.54C190.446 138.1 190.611 138.725 190.611 139.415C190.611 140.115 190.446 140.75 190.116 141.32C189.786 141.88 189.336 142.325 188.766 142.655C188.206 142.985 187.581 143.15 186.891 143.15ZM186.891 141.845C187.341 141.845 187.741 141.74 188.091 141.53C188.441 141.32 188.716 141.035 188.916 140.675C189.116 140.305 189.216 139.885 189.216 139.415C189.216 138.955 189.111 138.545 188.901 138.185C188.701 137.825 188.426 137.545 188.076 137.345C187.736 137.135 187.341 137.03 186.891 137.03C186.441 137.03 186.041 137.135 185.691 137.345C185.341 137.545 185.066 137.825 184.866 138.185C184.666 138.545 184.566 138.955 184.566 139.415C184.566 139.885 184.666 140.305 184.866 140.675C185.066 141.035 185.341 141.32 185.691 141.53C186.041 141.74 186.441 141.845 186.891 141.845ZM195.148 143.15C194.488 143.15 193.898 142.99 193.378 142.67C192.858 142.34 192.443 141.895 192.133 141.335C191.833 140.775 191.683 140.145 191.683 139.445C191.683 138.745 191.833 138.115 192.133 137.555C192.443 136.995 192.858 136.55 193.378 136.22C193.898 135.89 194.488 135.725 195.148 135.725C195.678 135.725 196.158 135.84 196.588 136.07C197.018 136.29 197.363 136.6 197.623 137C197.893 137.39 198.043 137.845 198.073 138.365V140.51C198.043 141.02 197.898 141.475 197.638 141.875C197.378 142.275 197.033 142.59 196.603 142.82C196.173 143.04 195.688 143.15 195.148 143.15ZM195.373 141.875C195.823 141.875 196.213 141.77 196.543 141.56C196.883 141.35 197.148 141.065 197.338 140.705C197.528 140.335 197.623 139.915 197.623 139.445C197.623 138.955 197.523 138.53 197.323 138.17C197.133 137.81 196.868 137.525 196.528 137.315C196.198 137.105 195.808 137 195.358 137C194.908 137 194.513 137.105 194.173 137.315C193.833 137.525 193.563 137.815 193.363 138.185C193.173 138.545 193.078 138.96 193.078 139.43C193.078 139.91 193.173 140.335 193.363 140.705C193.563 141.065 193.833 141.35 194.173 141.56C194.523 141.77 194.923 141.875 195.373 141.875ZM198.898 143H197.533V141.08L197.788 139.34L197.533 137.615V132.29H198.898V143ZM204.163 143.15C203.453 143.15 202.813 142.99 202.243 142.67C201.673 142.34 201.223 141.895 200.893 141.335C200.563 140.775 200.398 140.14 200.398 139.43C200.398 138.73 200.558 138.1 200.878 137.54C201.208 136.98 201.648 136.54 202.198 136.22C202.758 135.89 203.383 135.725 204.073 135.725C204.733 135.725 205.313 135.875 205.813 136.175C206.323 136.475 206.718 136.89 206.998 137.42C207.288 137.95 207.433 138.55 207.433 139.22C207.433 139.32 207.428 139.43 207.418 139.55C207.408 139.66 207.388 139.79 207.358 139.94H201.343V138.815H206.638L206.143 139.25C206.143 138.77 206.058 138.365 205.888 138.035C205.718 137.695 205.478 137.435 205.168 137.255C204.858 137.065 204.483 136.97 204.043 136.97C203.583 136.97 203.178 137.07 202.828 137.27C202.478 137.47 202.208 137.75 202.018 138.11C201.828 138.47 201.733 138.895 201.733 139.385C201.733 139.885 201.833 140.325 202.033 140.705C202.233 141.075 202.518 141.365 202.888 141.575C203.258 141.775 203.683 141.875 204.163 141.875C204.563 141.875 204.928 141.805 205.258 141.665C205.598 141.525 205.888 141.315 206.128 141.035L206.998 141.92C206.658 142.32 206.238 142.625 205.738 142.835C205.248 143.045 204.723 143.15 204.163 143.15ZM208.905 143V132.29H210.255V143H208.905ZM214.495 143.15C214.095 143.15 213.715 143.1 213.355 143C213.005 142.89 212.68 142.74 212.38 142.55C212.08 142.35 211.82 142.115 211.6 141.845L212.47 140.975C212.73 141.295 213.03 141.535 213.37 141.695C213.71 141.845 214.09 141.92 214.51 141.92C214.93 141.92 215.255 141.85 215.485 141.71C215.715 141.56 215.83 141.355 215.83 141.095C215.83 140.835 215.735 140.635 215.545 140.495C215.365 140.345 215.13 140.225 214.84 140.135C214.55 140.035 214.24 139.94 213.91 139.85C213.59 139.75 213.285 139.625 212.995 139.475C212.705 139.325 212.465 139.12 212.275 138.86C212.095 138.6 212.005 138.255 212.005 137.825C212.005 137.395 212.11 137.025 212.32 136.715C212.53 136.395 212.82 136.15 213.19 135.98C213.57 135.81 214.025 135.725 214.555 135.725C215.115 135.725 215.61 135.825 216.04 136.025C216.48 136.215 216.84 136.505 217.12 136.895L216.25 137.765C216.05 137.505 215.8 137.305 215.5 137.165C215.21 137.025 214.88 136.955 214.51 136.955C214.12 136.955 213.82 137.025 213.61 137.165C213.41 137.295 213.31 137.48 213.31 137.72C213.31 137.96 213.4 138.145 213.58 138.275C213.76 138.405 213.995 138.515 214.285 138.605C214.585 138.695 214.895 138.79 215.215 138.89C215.535 138.98 215.84 139.105 216.13 139.265C216.42 139.425 216.655 139.64 216.835 139.91C217.025 140.18 217.12 140.535 217.12 140.975C217.12 141.645 216.88 142.175 216.4 142.565C215.93 142.955 215.295 143.15 214.495 143.15ZM223.792 143L220.972 135.875H222.382L224.422 141.425H223.972L225.997 135.875H226.777L228.802 141.425H228.352L230.392 135.875H231.802L228.997 143H228.202L226.147 137.615H226.642L224.572 143H223.792ZM232.9 143V135.875H234.25V143H232.9ZM233.575 134.45C233.325 134.45 233.12 134.37 232.96 134.21C232.8 134.04 232.72 133.83 232.72 133.58C232.72 133.34 232.8 133.14 232.96 132.98C233.12 132.81 233.325 132.725 233.575 132.725C233.825 132.725 234.03 132.81 234.19 132.98C234.35 133.14 234.43 133.34 234.43 133.58C234.43 133.83 234.35 134.04 234.19 134.21C234.03 134.37 233.825 134.45 233.575 134.45ZM237.334 143V132.89H238.684V143H237.334ZM235.579 137.105V135.875H240.439V137.105H235.579ZM246.801 143V138.845C246.801 138.305 246.631 137.86 246.291 137.51C245.951 137.16 245.511 136.985 244.971 136.985C244.611 136.985 244.291 137.065 244.011 137.225C243.731 137.385 243.511 137.605 243.351 137.885C243.191 138.165 243.111 138.485 243.111 138.845L242.556 138.53C242.556 137.99 242.676 137.51 242.916 137.09C243.156 136.67 243.491 136.34 243.921 136.1C244.351 135.85 244.836 135.725 245.376 135.725C245.916 135.725 246.391 135.845 246.801 136.085C247.221 136.325 247.551 136.66 247.791 137.09C248.031 137.52 248.151 138.015 248.151 138.575V143H246.801ZM241.761 143V132.29H243.111V143H241.761ZM256.129 143.15C255.479 143.15 254.889 142.99 254.359 142.67C253.829 142.34 253.409 141.895 253.099 141.335C252.799 140.775 252.649 140.145 252.649 139.445C252.649 138.745 252.799 138.115 253.099 137.555C253.409 136.995 253.824 136.55 254.344 136.22C254.874 135.89 255.469 135.725 256.129 135.725C256.669 135.725 257.149 135.84 257.569 136.07C257.999 136.29 258.344 136.6 258.604 137C258.864 137.39 259.009 137.845 259.039 138.365V140.51C259.009 141.02 258.864 141.475 258.604 141.875C258.354 142.275 258.014 142.59 257.584 142.82C257.164 143.04 256.679 143.15 256.129 143.15ZM256.354 141.875C257.024 141.875 257.564 141.65 257.974 141.2C258.384 140.74 258.589 140.155 258.589 139.445C258.589 138.955 258.494 138.53 258.304 138.17C258.124 137.8 257.864 137.515 257.524 137.315C257.184 137.105 256.789 137 256.339 137C255.889 137 255.489 137.105 255.139 137.315C254.799 137.525 254.529 137.815 254.329 138.185C254.139 138.545 254.044 138.96 254.044 139.43C254.044 139.91 254.139 140.335 254.329 140.705C254.529 141.065 254.804 141.35 255.154 141.56C255.504 141.77 255.904 141.875 256.354 141.875ZM258.499 143V141.08L258.754 139.34L258.499 137.615V135.875H259.864V143H258.499ZM266.87 143V138.845C266.87 138.305 266.7 137.86 266.36 137.51C266.02 137.16 265.58 136.985 265.04 136.985C264.68 136.985 264.36 137.065 264.08 137.225C263.8 137.385 263.58 137.605 263.42 137.885C263.26 138.165 263.18 138.485 263.18 138.845L262.625 138.53C262.625 137.99 262.745 137.51 262.985 137.09C263.225 136.67 263.56 136.34 263.99 136.1C264.42 135.85 264.905 135.725 265.445 135.725C265.985 135.725 266.46 135.86 266.87 136.13C267.29 136.4 267.62 136.755 267.86 137.195C268.1 137.625 268.22 138.085 268.22 138.575V143H266.87ZM261.83 143V135.875H263.18V143H261.83ZM272.388 143.06L269.298 135.875H270.798L273.093 141.5H272.613L275.028 135.875H276.528L273.198 143.06H272.388ZM270.348 145.985L272.448 141.68L273.198 143.06L271.848 145.985H270.348ZM284.128 143.15C283.428 143.15 282.798 142.985 282.238 142.655C281.678 142.325 281.233 141.88 280.903 141.32C280.573 140.75 280.408 140.115 280.408 139.415C280.408 138.725 280.573 138.105 280.903 137.555C281.233 136.995 281.678 136.55 282.238 136.22C282.798 135.89 283.428 135.725 284.128 135.725C284.818 135.725 285.443 135.89 286.003 136.22C286.573 136.54 287.023 136.98 287.353 137.54C287.683 138.1 287.848 138.725 287.848 139.415C287.848 140.115 287.683 140.75 287.353 141.32C287.023 141.88 286.573 142.325 286.003 142.655C285.443 142.985 284.818 143.15 284.128 143.15ZM284.128 141.845C284.578 141.845 284.978 141.74 285.328 141.53C285.678 141.32 285.953 141.035 286.153 140.675C286.353 140.305 286.453 139.885 286.453 139.415C286.453 138.955 286.348 138.545 286.138 138.185C285.938 137.825 285.663 137.545 285.313 137.345C284.973 137.135 284.578 137.03 284.128 137.03C283.678 137.03 283.278 137.135 282.928 137.345C282.578 137.545 282.303 137.825 282.103 138.185C281.903 138.545 281.803 138.955 281.803 139.415C281.803 139.885 281.903 140.305 282.103 140.675C282.303 141.035 282.578 141.32 282.928 141.53C283.278 141.74 283.678 141.845 284.128 141.845ZM290.169 143V134.81C290.169 134.28 290.284 133.82 290.514 133.43C290.744 133.03 291.059 132.715 291.459 132.485C291.869 132.255 292.344 132.14 292.884 132.14C293.294 132.14 293.649 132.21 293.949 132.35C294.249 132.49 294.524 132.695 294.774 132.965L293.889 133.835C293.759 133.695 293.614 133.59 293.454 133.52C293.294 133.44 293.099 133.4 292.869 133.4C292.439 133.4 292.104 133.525 291.864 133.775C291.634 134.025 291.519 134.37 291.519 134.81V143H290.169ZM288.414 137.105V135.875H293.784V137.105H288.414ZM133.33 167.06L130.24 159.875H131.74L134.035 165.5H133.555L135.97 159.875H137.47L134.14 167.06H133.33ZM131.29 169.985L133.39 165.68L134.14 167.06L132.79 169.985H131.29ZM141.555 167.15C140.855 167.15 140.225 166.985 139.665 166.655C139.105 166.325 138.66 165.88 138.33 165.32C138 164.75 137.835 164.115 137.835 163.415C137.835 162.725 138 162.105 138.33 161.555C138.66 160.995 139.105 160.55 139.665 160.22C140.225 159.89 140.855 159.725 141.555 159.725C142.245 159.725 142.87 159.89 143.43 160.22C144 160.54 144.45 160.98 144.78 161.54C145.11 162.1 145.275 162.725 145.275 163.415C145.275 164.115 145.11 164.75 144.78 165.32C144.45 165.88 144 166.325 143.43 166.655C142.87 166.985 142.245 167.15 141.555 167.15ZM141.555 165.845C142.005 165.845 142.405 165.74 142.755 165.53C143.105 165.32 143.38 165.035 143.58 164.675C143.78 164.305 143.88 163.885 143.88 163.415C143.88 162.955 143.775 162.545 143.565 162.185C143.365 161.825 143.09 161.545 142.74 161.345C142.4 161.135 142.005 161.03 141.555 161.03C141.105 161.03 140.705 161.135 140.355 161.345C140.005 161.545 139.73 161.825 139.53 162.185C139.33 162.545 139.23 162.955 139.23 163.415C139.23 163.885 139.33 164.305 139.53 164.675C139.73 165.035 140.005 165.32 140.355 165.53C140.705 165.74 141.105 165.845 141.555 165.845ZM149.676 167.15C149.086 167.15 148.556 167.02 148.086 166.76C147.626 166.49 147.266 166.12 147.006 165.65C146.746 165.18 146.616 164.635 146.616 164.015V159.875H147.966V163.955C147.966 164.345 148.031 164.685 148.161 164.975C148.301 165.255 148.501 165.47 148.761 165.62C149.021 165.77 149.326 165.845 149.676 165.845C150.206 165.845 150.621 165.68 150.921 165.35C151.221 165.01 151.371 164.545 151.371 163.955V159.875H152.721V164.015C152.721 164.635 152.591 165.18 152.331 165.65C152.071 166.12 151.711 166.49 151.251 166.76C150.801 167.02 150.276 167.15 149.676 167.15ZM154.53 167V159.875H155.88V167H154.53ZM155.88 162.935L155.37 162.71C155.37 161.8 155.58 161.075 156 160.535C156.42 159.995 157.025 159.725 157.815 159.725C158.175 159.725 158.5 159.79 158.79 159.92C159.08 160.04 159.35 160.245 159.6 160.535L158.715 161.45C158.565 161.29 158.4 161.175 158.22 161.105C158.04 161.035 157.83 161 157.59 161C157.09 161 156.68 161.16 156.36 161.48C156.04 161.8 155.88 162.285 155.88 162.935ZM167.684 167.15C167.144 167.15 166.654 167.04 166.214 166.82C165.784 166.59 165.439 166.275 165.179 165.875C164.919 165.475 164.774 165.02 164.744 164.51V162.365C164.774 161.845 164.919 161.39 165.179 161C165.449 160.6 165.799 160.29 166.229 160.07C166.669 159.84 167.154 159.725 167.684 159.725C168.334 159.725 168.919 159.89 169.439 160.22C169.969 160.55 170.384 160.995 170.684 161.555C170.984 162.115 171.134 162.745 171.134 163.445C171.134 164.145 170.984 164.775 170.684 165.335C170.384 165.895 169.969 166.34 169.439 166.67C168.919 166.99 168.334 167.15 167.684 167.15ZM163.934 169.985V159.875H165.284V161.75L165.029 163.475L165.284 165.215V169.985H163.934ZM167.459 165.875C167.909 165.875 168.304 165.77 168.644 165.56C168.984 165.35 169.254 165.065 169.454 164.705C169.654 164.335 169.754 163.91 169.754 163.43C169.754 162.96 169.654 162.54 169.454 162.17C169.254 161.8 168.984 161.515 168.644 161.315C168.304 161.105 167.914 161 167.474 161C167.024 161 166.629 161.105 166.289 161.315C165.949 161.515 165.684 161.8 165.494 162.17C165.304 162.54 165.209 162.965 165.209 163.445C165.209 163.915 165.299 164.335 165.479 164.705C165.669 165.065 165.934 165.35 166.274 165.56C166.624 165.77 167.019 165.875 167.459 165.875ZM172.665 167V159.875H174.015V167H172.665ZM174.015 162.935L173.505 162.71C173.505 161.8 173.715 161.075 174.135 160.535C174.555 159.995 175.16 159.725 175.95 159.725C176.31 159.725 176.635 159.79 176.925 159.92C177.215 160.04 177.485 160.245 177.735 160.535L176.85 161.45C176.7 161.29 176.535 161.175 176.355 161.105C176.175 161.035 175.965 161 175.725 161C175.225 161 174.815 161.16 174.495 161.48C174.175 161.8 174.015 162.285 174.015 162.935ZM178.7 167V159.875H180.05V167H178.7ZM179.375 158.45C179.125 158.45 178.92 158.37 178.76 158.21C178.6 158.04 178.52 157.83 178.52 157.58C178.52 157.34 178.6 157.14 178.76 156.98C178.92 156.81 179.125 156.725 179.375 156.725C179.625 156.725 179.83 156.81 179.99 156.98C180.15 157.14 180.23 157.34 180.23 157.58C180.23 157.83 180.15 158.04 179.99 158.21C179.83 158.37 179.625 158.45 179.375 158.45ZM184.485 167L181.215 159.875H182.715L185.34 165.89H184.47L187.11 159.875H188.55L185.28 167H184.485ZM192.467 167.15C191.817 167.15 191.227 166.99 190.697 166.67C190.167 166.34 189.747 165.895 189.437 165.335C189.137 164.775 188.987 164.145 188.987 163.445C188.987 162.745 189.137 162.115 189.437 161.555C189.747 160.995 190.162 160.55 190.682 160.22C191.212 159.89 191.807 159.725 192.467 159.725C193.007 159.725 193.487 159.84 193.907 160.07C194.337 160.29 194.682 160.6 194.942 161C195.202 161.39 195.347 161.845 195.377 162.365V164.51C195.347 165.02 195.202 165.475 194.942 165.875C194.692 166.275 194.352 166.59 193.922 166.82C193.502 167.04 193.017 167.15 192.467 167.15ZM192.692 165.875C193.362 165.875 193.902 165.65 194.312 165.2C194.722 164.74 194.927 164.155 194.927 163.445C194.927 162.955 194.832 162.53 194.642 162.17C194.462 161.8 194.202 161.515 193.862 161.315C193.522 161.105 193.127 161 192.677 161C192.227 161 191.827 161.105 191.477 161.315C191.137 161.525 190.867 161.815 190.667 162.185C190.477 162.545 190.382 162.96 190.382 163.43C190.382 163.91 190.477 164.335 190.667 164.705C190.867 165.065 191.142 165.35 191.492 165.56C191.842 165.77 192.242 165.875 192.692 165.875ZM194.837 167V165.08L195.092 163.34L194.837 161.615V159.875H196.202V167H194.837ZM199.233 167V156.89H200.583V167H199.233ZM197.478 161.105V159.875H202.338V161.105H197.478ZM206.741 167.15C206.031 167.15 205.391 166.99 204.821 166.67C204.251 166.34 203.801 165.895 203.471 165.335C203.141 164.775 202.976 164.14 202.976 163.43C202.976 162.73 203.136 162.1 203.456 161.54C203.786 160.98 204.226 160.54 204.776 160.22C205.336 159.89 205.961 159.725 206.651 159.725C207.311 159.725 207.891 159.875 208.391 160.175C208.901 160.475 209.296 160.89 209.576 161.42C209.866 161.95 210.011 162.55 210.011 163.22C210.011 163.32 210.006 163.43 209.996 163.55C209.986 163.66 209.966 163.79 209.936 163.94H203.921V162.815H209.216L208.721 163.25C208.721 162.77 208.636 162.365 208.466 162.035C208.296 161.695 208.056 161.435 207.746 161.255C207.436 161.065 207.061 160.97 206.621 160.97C206.161 160.97 205.756 161.07 205.406 161.27C205.056 161.47 204.786 161.75 204.596 162.11C204.406 162.47 204.311 162.895 204.311 163.385C204.311 163.885 204.411 164.325 204.611 164.705C204.811 165.075 205.096 165.365 205.466 165.575C205.836 165.775 206.261 165.875 206.741 165.875C207.141 165.875 207.506 165.805 207.836 165.665C208.176 165.525 208.466 165.315 208.706 165.035L209.576 165.92C209.236 166.32 208.816 166.625 208.316 166.835C207.826 167.045 207.301 167.15 206.741 167.15ZM217.618 167.15C216.958 167.15 216.368 166.99 215.848 166.67C215.328 166.34 214.913 165.895 214.603 165.335C214.303 164.775 214.153 164.145 214.153 163.445C214.153 162.745 214.303 162.115 214.603 161.555C214.913 160.995 215.328 160.55 215.848 160.22C216.368 159.89 216.958 159.725 217.618 159.725C218.148 159.725 218.628 159.84 219.058 160.07C219.488 160.29 219.833 160.6 220.093 161C220.363 161.39 220.513 161.845 220.543 162.365V164.51C220.513 165.02 220.368 165.475 220.108 165.875C219.848 166.275 219.503 166.59 219.073 166.82C218.643 167.04 218.158 167.15 217.618 167.15ZM217.843 165.875C218.293 165.875 218.683 165.77 219.013 165.56C219.353 165.35 219.618 165.065 219.808 164.705C219.998 164.335 220.093 163.915 220.093 163.445C220.093 162.955 219.993 162.53 219.793 162.17C219.603 161.81 219.338 161.525 218.998 161.315C218.668 161.105 218.278 161 217.828 161C217.378 161 216.983 161.105 216.643 161.315C216.303 161.525 216.033 161.815 215.833 162.185C215.643 162.545 215.548 162.96 215.548 163.43C215.548 163.91 215.643 164.335 215.833 164.705C216.033 165.065 216.303 165.35 216.643 165.56C216.993 165.77 217.393 165.875 217.843 165.875ZM221.368 167H220.003V165.08L220.258 163.34L220.003 161.615V156.29H221.368V167ZM226.364 167.15C225.714 167.15 225.124 166.99 224.594 166.67C224.064 166.34 223.644 165.895 223.334 165.335C223.034 164.775 222.884 164.145 222.884 163.445C222.884 162.745 223.034 162.115 223.334 161.555C223.644 160.995 224.059 160.55 224.579 160.22C225.109 159.89 225.704 159.725 226.364 159.725C226.904 159.725 227.384 159.84 227.804 160.07C228.234 160.29 228.579 160.6 228.839 161C229.099 161.39 229.244 161.845 229.274 162.365V164.51C229.244 165.02 229.099 165.475 228.839 165.875C228.589 166.275 228.249 166.59 227.819 166.82C227.399 167.04 226.914 167.15 226.364 167.15ZM226.589 165.875C227.259 165.875 227.799 165.65 228.209 165.2C228.619 164.74 228.824 164.155 228.824 163.445C228.824 162.955 228.729 162.53 228.539 162.17C228.359 161.8 228.099 161.515 227.759 161.315C227.419 161.105 227.024 161 226.574 161C226.124 161 225.724 161.105 225.374 161.315C225.034 161.525 224.764 161.815 224.564 162.185C224.374 162.545 224.279 162.96 224.279 163.43C224.279 163.91 224.374 164.335 224.564 164.705C224.764 165.065 225.039 165.35 225.389 165.56C225.739 165.77 226.139 165.875 226.589 165.875ZM228.734 167V165.08L228.989 163.34L228.734 161.615V159.875H230.099V167H228.734ZM233.13 167V156.89H234.48V167H233.13ZM231.375 161.105V159.875H236.235V161.105H231.375ZM240.368 167.15C239.718 167.15 239.128 166.99 238.598 166.67C238.068 166.34 237.648 165.895 237.338 165.335C237.038 164.775 236.888 164.145 236.888 163.445C236.888 162.745 237.038 162.115 237.338 161.555C237.648 160.995 238.063 160.55 238.583 160.22C239.113 159.89 239.708 159.725 240.368 159.725C240.908 159.725 241.388 159.84 241.808 160.07C242.238 160.29 242.583 160.6 242.843 161C243.103 161.39 243.248 161.845 243.278 162.365V164.51C243.248 165.02 243.103 165.475 242.843 165.875C242.593 166.275 242.253 166.59 241.823 166.82C241.403 167.04 240.918 167.15 240.368 167.15ZM240.593 165.875C241.263 165.875 241.803 165.65 242.213 165.2C242.623 164.74 242.828 164.155 242.828 163.445C242.828 162.955 242.733 162.53 242.543 162.17C242.363 161.8 242.103 161.515 241.763 161.315C241.423 161.105 241.028 161 240.578 161C240.128 161 239.728 161.105 239.378 161.315C239.038 161.525 238.768 161.815 238.568 162.185C238.378 162.545 238.283 162.96 238.283 163.43C238.283 163.91 238.378 164.335 238.568 164.705C238.768 165.065 239.043 165.35 239.393 165.56C239.743 165.77 240.143 165.875 240.593 165.875ZM242.738 167V165.08L242.993 163.34L242.738 161.615V159.875H244.103V167H242.738Z" fill="black"/>
<ellipse cx="70.6849" cy="112.364" rx="44.6849" ry="42.3636" fill="url(#paint1_linear_4271_5894)"/>
<ellipse cx="70.685" cy="112.364" rx="41.0122" ry="38.8817" fill="url(#paint2_linear_4271_5894)"/>
<g clip-path="url(#clip0_4271_5894)">
<path d="M78.9199 102.302C81.0195 102.302 83.1192 102.305 85.2188 102.298C85.4383 102.298 85.5557 102.351 85.6378 102.583C86.0024 103.618 87.0274 104.336 88.1201 104.391C89.3236 104.452 90.3572 103.726 90.7857 102.79C91.5139 101.199 90.7523 99.3845 89.1232 98.8287C87.7212 98.3512 86.0854 99.1564 85.6206 100.566C85.5509 100.777 85.4192 100.777 85.2541 100.777C82.2478 100.776 79.2415 100.777 76.2352 100.777C75.026 100.777 73.8177 100.773 72.6085 100.782C72.3938 100.784 72.328 100.727 72.3241 100.501C72.3098 99.4551 72.2716 98.4092 72.2478 97.3642C72.2401 97.0423 72.2611 97.0269 72.5866 97.0269C74.7263 97.0269 76.8651 97.0259 79.0048 97.0269C79.377 97.0269 79.6834 96.9089 79.8351 96.5436C79.8876 96.416 79.8953 96.2613 79.8953 96.1192C79.8991 94.387 79.9019 92.6548 79.8934 90.9225C79.8924 90.6992 79.9487 90.5939 80.1654 90.5001C81.3622 89.982 81.9901 88.9805 81.9548 87.6978C81.9214 86.4827 80.9785 85.3788 79.8161 85.0782C78.5696 84.7563 77.1896 85.433 76.6141 86.5833C75.9145 87.981 76.5635 89.8428 77.9903 90.4489C78.2588 90.5629 78.3931 90.7688 78.3931 91.0666C78.3931 92.4276 78.3931 93.7896 78.3931 95.1506C78.3931 95.4696 78.3854 95.4783 78.0753 95.4793C76.2457 95.4793 74.4171 95.4793 72.5875 95.4793C72.2678 95.4793 72.2487 95.459 72.2487 95.1381C72.2487 93.4948 72.2506 91.8515 72.2478 90.2072C72.2449 88.4102 71.5215 86.967 70.0661 85.9569C67.4396 84.1338 63.8635 85.2068 62.64 88.1898C62.4472 88.6596 62.1055 88.6819 61.7677 88.7998C59.7453 89.5006 58.2231 90.7988 57.2048 92.6992C56.6665 93.7036 56.3811 94.7862 56.3019 95.923C56.2886 96.1115 56.1903 96.1743 56.0481 96.2197C54.9935 96.559 54.0324 97.0829 53.1658 97.776C51.8287 98.8442 50.8343 100.176 50.2053 101.785C49.9171 102.52 49.7138 103.276 49.6146 104.063C49.5964 104.208 49.5077 104.372 49.4008 104.472C48.1925 105.597 47.2801 106.929 46.698 108.48C46.1081 110.051 45.8801 111.676 46.0642 113.361C46.2876 115.399 47.0186 117.217 48.2756 118.816C48.6058 119.236 48.9646 119.645 49.3674 119.991C49.6527 120.237 49.6699 120.546 49.7329 120.847C50.0583 122.404 50.7331 123.786 51.7266 125.012C52.7822 126.314 54.0887 127.268 55.6348 127.884C55.9431 128.007 56.2714 128.076 56.5882 128.177C56.7639 128.233 56.9461 128.254 56.97 128.525C57.1532 130.566 58.0341 132.254 59.5392 133.612C60.2779 134.278 61.1302 134.752 62.053 135.096C62.1962 135.149 62.2449 135.22 62.2621 135.368C62.4882 137.237 63.4054 138.636 65.0794 139.478C66.0109 139.947 67.0034 140.106 68.0447 139.918C69.8017 139.601 71.0519 138.618 71.8183 136.998C72.1428 136.311 72.2602 135.577 72.2592 134.818C72.2564 131.885 72.2592 128.953 72.2592 126.02C72.2592 125.948 72.264 125.875 72.2592 125.803C72.2459 125.603 72.3413 125.531 72.5312 125.534C72.9769 125.54 73.4217 125.536 73.8674 125.536C75.2751 125.536 76.6828 125.541 78.0905 125.531C78.3282 125.529 78.4064 125.597 78.4045 125.844C78.394 127.278 78.3969 128.712 78.4026 130.146C78.4026 130.339 78.3539 130.434 78.1554 130.509C76.9319 130.977 76.198 132.232 76.3555 133.541C76.4996 134.736 77.4234 135.703 78.5992 135.966C79.8857 136.253 81.345 135.489 81.8203 134.102C82.3156 132.657 81.5855 131.072 80.151 130.508C79.9554 130.431 79.9019 130.334 79.9019 130.14C79.9067 128.408 79.9048 126.676 79.9048 124.944C79.9048 124.29 79.6194 124 78.9781 124C76.8546 124 74.7311 124 72.6076 124C72.2497 124 72.2497 123.999 72.2497 123.638C72.2497 122.043 72.2459 120.448 72.2526 118.852C72.2535 118.564 72.286 118.275 72.3241 117.989C72.3318 117.931 72.4234 117.873 72.4883 117.841C72.5322 117.817 72.5971 117.836 72.6534 117.836C75.0871 117.836 77.5208 117.838 79.9544 117.832C80.173 117.832 80.2875 117.881 80.3686 118.116C80.8115 119.4 82.3108 120.18 83.6135 119.843C84.6958 119.564 85.4097 118.88 85.6979 117.806C86.0606 116.453 85.4345 115.038 84.1232 114.471C82.6353 113.828 81.1035 114.442 80.4068 115.918C80.3868 115.961 80.362 116.005 80.3543 116.051C80.3171 116.257 80.194 116.315 79.9955 116.314C78.9457 116.308 77.8958 116.311 76.846 116.311C75.4383 116.311 74.0306 116.307 72.6229 116.316C72.4033 116.318 72.2993 116.259 72.2955 116.028C72.2926 115.828 72.2526 115.628 72.2516 115.428C72.2487 113.196 72.2497 110.965 72.2497 108.733C72.2497 108.392 72.2659 108.374 72.5971 108.373C74.4181 108.373 76.24 108.373 78.0609 108.373C78.3892 108.373 78.394 108.379 78.394 108.712C78.394 109.654 78.3931 110.597 78.395 111.539C78.3959 112.129 78.6708 112.407 79.2558 112.407C83.1688 112.408 87.0818 112.407 90.9948 112.407C91.2855 112.407 91.4309 112.555 91.4309 112.851C91.4309 113.962 91.4223 115.074 91.4366 116.186C91.4405 116.478 91.3746 116.644 91.0807 116.762C90.1893 117.12 89.6271 117.812 89.4343 118.747C89.1719 120.025 89.6472 121.197 90.8172 121.866C92.3805 122.759 94.3513 121.932 94.8801 120.191C95.3067 118.785 94.5861 117.292 93.1793 116.711C92.9818 116.629 92.9398 116.529 92.9407 116.34C92.9455 114.842 92.9436 113.344 92.9436 111.845C92.9436 111.172 92.6516 110.879 91.9806 110.879C88.0753 110.879 84.17 110.879 80.2656 110.879C80.0225 110.879 79.901 110.757 79.901 110.513C79.901 109.602 79.901 108.691 79.901 107.782C79.901 107.114 79.6175 106.824 78.9619 106.824C76.8622 106.824 74.7626 106.824 72.6629 106.824C72.3887 106.824 72.2516 106.689 72.2516 106.42C72.2516 105.155 72.2516 103.89 72.2516 102.626C72.2516 102.318 72.2726 102.297 72.577 102.297C74.6929 102.297 76.8078 102.297 78.9237 102.297L78.9199 102.302ZM70.7103 113.226C70.1596 112.888 69.6204 112.705 69.0401 112.674C67.9931 112.619 67.0874 112.955 66.3497 113.719C66.1302 113.946 66.071 114.225 66.1989 114.52C66.4232 115.036 66.9977 115.165 67.4215 114.779C67.8939 114.35 68.4283 114.163 69.0611 114.223C69.9725 114.311 70.7294 115.129 70.7294 116.055C70.7313 122.331 70.7341 128.607 70.7208 134.883C70.7208 135.308 70.6377 135.752 70.5003 136.154C69.6977 138.496 66.6675 139.22 64.8809 137.517C64.3942 137.052 64.0678 136.493 63.8778 135.849C63.7929 135.561 63.8444 135.501 64.1269 135.508C64.3474 135.513 64.5755 135.527 64.7893 135.485C65.2206 135.397 65.4516 134.885 65.2712 134.478C65.1147 134.123 64.8265 133.993 64.4657 133.989C63.3663 133.979 62.3489 133.669 61.4117 133.103C58.9952 131.64 57.8767 128.718 58.6745 125.983C59.0935 124.547 59.9143 123.405 61.1492 122.582C61.5243 122.332 61.9442 122.151 62.3375 121.927C62.6877 121.727 62.8223 121.291 62.6534 120.948C62.4606 120.559 62.0588 120.404 61.6703 120.564C60.4125 121.08 59.3703 121.888 58.5304 122.963C57.7316 123.986 57.2391 125.151 57.0129 126.431C56.9738 126.653 56.8793 126.699 56.6913 126.624C56.3449 126.485 55.986 126.372 55.6549 126.204C52.7449 124.734 51.2284 122.321 51.0385 119.058C50.9574 117.658 51.2905 116.323 51.9404 115.083C52.9759 113.105 54.5583 111.781 56.6636 111.103C57.1179 110.957 57.347 110.55 57.2095 110.085C57.096 109.702 56.6245 109.478 56.2141 109.632C55.7608 109.802 55.3017 109.963 54.8684 110.177C53.0418 111.075 51.6398 112.433 50.6672 114.239C50.1147 115.265 49.7549 116.357 49.6126 117.52C49.5993 117.632 49.5573 117.74 49.5134 117.909C49.4141 117.788 49.3559 117.725 49.3053 117.656C48.2641 116.241 47.6724 114.656 47.5426 112.892C47.4462 111.585 47.6294 110.321 48.0799 109.1C48.6306 107.609 49.5277 106.357 50.734 105.335C50.9211 105.177 51.0232 104.988 51.0566 104.741C51.1187 104.279 51.1683 103.811 51.2828 103.361C51.5911 102.145 52.1475 101.053 52.9578 100.096C53.8387 99.0539 54.92 98.3019 56.175 97.7992C56.2981 97.7499 56.364 97.7557 56.4098 97.9191C56.5806 98.5281 56.7199 99.1535 56.969 99.7296C57.8662 101.803 59.3789 103.245 61.468 104.059C61.8765 104.219 62.3222 104.01 62.4596 103.612C62.5961 103.217 62.3899 102.79 61.9891 102.629C61.8202 102.56 61.6503 102.489 61.4881 102.406C59.2138 101.237 57.9874 99.3468 57.7994 96.7852C57.7096 95.5721 57.9941 94.4131 58.5867 93.3536C59.711 91.343 61.4222 90.2188 63.6908 89.9704C63.9275 89.9443 64.1689 89.9472 64.4027 89.9047C64.7511 89.8428 64.9821 89.577 65.0078 89.2531C65.0384 88.8616 64.8628 88.5813 64.5049 88.447C64.2596 88.3551 64.2539 88.3281 64.3999 88.1125C65.1653 86.9864 66.6379 86.3638 68.0475 86.707C69.5908 87.0821 70.7179 88.4518 70.7284 90.0622C70.7418 92.2294 70.7322 94.3966 70.7313 96.5639C70.7313 96.6451 70.7122 96.7272 70.6988 96.8364C70.2169 96.561 69.7492 96.3754 69.2348 96.3183C68.1124 96.1946 67.1495 96.5339 66.3545 97.341C66.2504 97.4474 66.175 97.6127 66.1493 97.7615C66.092 98.0902 66.2686 98.4101 66.5396 98.5484C66.8173 98.6895 67.1609 98.6489 67.4052 98.4208C67.7679 98.0824 68.1783 97.8708 68.6784 97.834C69.7702 97.7519 70.7313 98.6025 70.7313 99.6745C70.7332 104.089 70.7322 108.504 70.7313 112.919C70.7313 113.004 70.7198 113.088 70.7103 113.225V113.226ZM79.1413 89.1748C78.4198 89.1748 77.8376 88.5891 77.8386 87.865C77.8395 87.1488 78.436 86.5465 79.1451 86.5446C79.8485 86.5436 80.4536 87.1565 80.4507 87.8679C80.4479 88.592 79.8638 89.1758 79.1413 89.1758V89.1748ZM79.1451 131.862C79.8743 131.862 80.4536 132.443 80.4507 133.173C80.4479 133.884 79.8647 134.471 79.1547 134.477C78.4341 134.482 77.8395 133.893 77.8386 133.171C77.8386 132.438 78.4122 131.863 79.1442 131.862H79.1451ZM89.5345 101.519C89.546 102.253 88.9953 102.848 88.2929 102.862C87.5504 102.876 86.9644 102.307 86.9568 101.562C86.9491 100.83 87.5246 100.227 88.2385 100.222C88.9438 100.216 89.524 100.796 89.5355 101.52L89.5345 101.519ZM92.1791 118.057C92.9026 118.059 93.4809 118.643 93.4828 119.373C93.4847 120.089 92.8816 120.684 92.1639 120.676C91.449 120.667 90.8869 120.092 90.885 119.368C90.884 118.628 91.449 118.056 92.1791 118.058V118.057ZM84.2578 117.06C84.2616 117.802 83.6956 118.394 82.9779 118.396C82.266 118.4 81.6742 117.801 81.6733 117.076C81.6723 116.359 82.2478 115.762 82.9502 115.755C83.6765 115.747 84.2539 116.324 84.2578 117.06Z" fill="white"/>
<path d="M64.987 126.425C63.4285 126.421 62.0857 127.426 61.6495 128.977C61.2859 130.273 61.5856 131.432 62.4999 132.407C62.9408 132.878 63.6127 132.694 63.795 132.076C63.879 131.791 63.7778 131.546 63.5889 131.347C63.1384 130.872 62.98 130.312 63.041 129.667C63.1441 128.583 64.317 127.747 65.3631 128.004C65.7362 128.096 66.0569 128.263 66.3413 128.521C66.6944 128.841 67.1554 128.83 67.4465 128.506C67.7337 128.186 67.6984 127.714 67.3625 127.381C66.7746 126.799 65.8517 126.426 64.9861 126.425L64.987 126.425Z" fill="white"/>
<path d="M58.8355 118.009C58.8317 116.88 58.4928 116.056 57.8238 115.373C57.5967 115.141 57.2302 115.075 56.9668 115.201C56.6805 115.337 56.4753 115.653 56.5335 115.962C56.5669 116.141 56.6642 116.326 56.7807 116.467C57.1014 116.857 57.317 117.28 57.3218 117.796C57.3285 118.655 56.9496 119.296 56.1899 119.648C55.4235 120.004 54.6839 119.877 54.0397 119.311C53.8049 119.105 53.5644 118.963 53.2428 119.068C52.6778 119.255 52.5108 119.904 52.9202 120.343C53.281 120.73 53.7238 120.999 54.2143 121.177C55.7032 121.716 57.4077 121.125 58.2724 119.778C58.6494 119.19 58.8498 118.548 58.8345 118.008L58.8355 118.009Z" fill="white"/>
<path d="M63.2024 114.474C63.693 114.484 64.0098 114.285 64.0872 113.917C64.1988 113.383 63.8867 112.979 63.3446 112.949C62.5792 112.908 61.9999 112.561 61.6287 111.873C60.9816 110.676 61.8004 109.126 63.1423 108.996C63.359 108.975 63.5909 108.936 63.7798 108.836C64.0747 108.681 64.1816 108.288 64.0747 107.946C63.985 107.66 63.673 107.435 63.3313 107.441C61.9866 107.468 60.7468 108.229 60.1818 109.562C59.4107 111.382 60.2324 113.414 61.9827 114.183C62.3626 114.349 62.7844 114.418 63.1862 114.532L63.2024 114.474Z" fill="white"/>
<path d="M64.4441 92.4768C62.8302 92.5106 61.4712 93.5672 61.078 95.1544C60.7735 96.384 61.056 97.4782 61.8949 98.4178C62.1688 98.7252 62.5153 98.7754 62.8407 98.584C63.1585 98.3975 63.2931 98.0446 63.1642 97.6686C63.1194 97.5381 63.022 97.4212 62.9333 97.31C62.165 96.3521 62.3654 95.022 63.3838 94.3463C64.1282 93.8523 65.0654 93.95 65.7983 94.5976C66.2068 94.9591 66.6916 94.9205 66.9741 94.5048C67.1688 94.2177 67.1431 93.8185 66.894 93.5498C66.4941 93.1186 66.0045 92.8209 65.4462 92.6614C65.1207 92.5686 64.7791 92.5358 64.4441 92.4758V92.4768Z" fill="white"/>
<path d="M52.7014 105.924C52.7071 106.588 52.9295 107.166 53.3781 107.651C53.7188 108.019 54.1368 108.054 54.4747 107.752C54.7848 107.474 54.8173 107.001 54.51 106.651C54.1263 106.214 54.154 105.613 54.404 105.271C54.7591 104.785 55.4023 104.688 55.9101 105.033C56.0828 105.15 56.2737 105.276 56.4712 105.313C56.8224 105.378 57.0839 105.207 57.2252 104.899C57.376 104.572 57.3292 104.281 57.0639 104.019C56.5094 103.469 55.8366 103.237 55.0664 103.295C53.7045 103.397 52.6814 104.536 52.7005 105.925L52.7014 105.924Z" fill="white"/>
</g>
<defs>
<linearGradient id="paint0_linear_4271_5894" x1="197.113" y1="228" x2="131.055" y2="21.0898" gradientUnits="userSpaceOnUse">
<stop stop-color="#E7EDF2"/>
<stop offset="1" stop-color="#F7FAFB"/>
</linearGradient>
<linearGradient id="paint1_linear_4271_5894" x1="26" y1="100.905" x2="109.564" y2="90.3341" gradientUnits="userSpaceOnUse">
<stop stop-color="#F6F6F6"/>
<stop offset="0.515" stop-color="#DAE3EA"/>
<stop offset="0.92" stop-color="white"/>
</linearGradient>
<linearGradient id="paint2_linear_4271_5894" x1="29.6729" y1="109.051" x2="106.902" y2="93.3338" gradientUnits="userSpaceOnUse">
<stop stop-color="#7E8E9C"/>
<stop offset="0.5" stop-color="#C3C8CB"/>
<stop offset="1" stop-color="#788187"/>
</linearGradient>
<clipPath id="clip0_4271_5894">
<rect width="49" height="55" fill="white" transform="matrix(1 0 0 -1 46 140)"/>
</clipPath>
</defs>
</svg>
