<svg width="355" height="228" viewBox="0 0 355 228" fill="none" xmlns="http://www.w3.org/2000/svg">
<rect width="355" height="228" rx="20" fill="url(#paint0_linear_3562_1089)"/>
<path d="M133.682 76L139.93 60.732H141.426L147.652 76H145.408L140.282 63.086H141.052L135.882 76H133.682ZM136.652 72.546V70.742H144.682V72.546H136.652ZM153.526 76.22C152.558 76.22 151.693 75.9853 150.93 75.516C150.168 75.032 149.559 74.3793 149.104 73.558C148.664 72.7367 148.444 71.8127 148.444 70.786C148.444 69.7593 148.664 68.8353 149.104 68.014C149.559 67.1927 150.168 66.54 150.93 66.056C151.693 65.572 152.558 65.33 153.526 65.33C154.304 65.33 155.008 65.4987 155.638 65.836C156.269 66.1587 156.775 66.6133 157.156 67.2C157.552 67.772 157.772 68.4393 157.816 69.202V72.348C157.772 73.096 157.56 73.7633 157.178 74.35C156.797 74.9367 156.291 75.3987 155.66 75.736C155.03 76.0587 154.318 76.22 153.526 76.22ZM153.856 74.35C154.516 74.35 155.088 74.196 155.572 73.888C156.071 73.58 156.46 73.162 156.738 72.634C157.017 72.0913 157.156 71.4753 157.156 70.786C157.156 70.0673 157.01 69.444 156.716 68.916C156.438 68.388 156.049 67.97 155.55 67.662C155.066 67.354 154.494 67.2 153.834 67.2C153.174 67.2 152.595 67.354 152.096 67.662C151.598 67.97 151.202 68.3953 150.908 68.938C150.63 69.466 150.49 70.0747 150.49 70.764C150.49 71.468 150.63 72.0913 150.908 72.634C151.202 73.162 151.598 73.58 152.096 73.888C152.61 74.196 153.196 74.35 153.856 74.35ZM159.026 76H157.024V73.184L157.398 70.632L157.024 68.102V60.292H159.026V76ZM165.495 76L160.699 65.55H162.899L166.749 74.372H165.473L169.345 65.55H171.457L166.661 76H165.495ZM177.203 76.22C176.249 76.22 175.384 75.9853 174.607 75.516C173.829 75.032 173.213 74.3793 172.759 73.558C172.319 72.7367 172.099 71.8127 172.099 70.786C172.099 69.7593 172.319 68.8353 172.759 68.014C173.213 67.1927 173.822 66.54 174.585 66.056C175.362 65.572 176.235 65.33 177.203 65.33C177.995 65.33 178.699 65.4987 179.315 65.836C179.945 66.1587 180.451 66.6133 180.833 67.2C181.214 67.772 181.427 68.4393 181.471 69.202V72.348C181.427 73.096 181.214 73.7633 180.833 74.35C180.466 74.9367 179.967 75.3987 179.337 75.736C178.721 76.0587 178.009 76.22 177.203 76.22ZM177.533 74.35C178.515 74.35 179.307 74.02 179.909 73.36C180.51 72.6853 180.811 71.8273 180.811 70.786C180.811 70.0673 180.671 69.444 180.393 68.916C180.129 68.3733 179.747 67.9553 179.249 67.662C178.75 67.354 178.171 67.2 177.511 67.2C176.851 67.2 176.264 67.354 175.751 67.662C175.252 67.97 174.856 68.3953 174.563 68.938C174.284 69.466 174.145 70.0747 174.145 70.764C174.145 71.468 174.284 72.0913 174.563 72.634C174.856 73.162 175.259 73.58 175.773 73.888C176.286 74.196 176.873 74.35 177.533 74.35ZM180.679 76V73.184L181.053 70.632L180.679 68.102V65.55H182.681V76H180.679ZM192.955 76V69.906C192.955 69.114 192.706 68.4613 192.207 67.948C191.709 67.4347 191.063 67.178 190.271 67.178C189.743 67.178 189.274 67.2953 188.863 67.53C188.453 67.7647 188.13 68.0873 187.895 68.498C187.661 68.9087 187.543 69.378 187.543 69.906L186.729 69.444C186.729 68.652 186.905 67.948 187.257 67.332C187.609 66.716 188.101 66.232 188.731 65.88C189.362 65.5133 190.073 65.33 190.865 65.33C191.657 65.33 192.354 65.528 192.955 65.924C193.571 66.32 194.055 66.8407 194.407 67.486C194.759 68.1167 194.935 68.7913 194.935 69.51V76H192.955ZM185.563 76V65.55H187.543V76H185.563ZM202.39 76.22C201.363 76.22 200.432 75.978 199.596 75.494C198.775 75.01 198.122 74.3573 197.638 73.536C197.169 72.7 196.934 71.776 196.934 70.764C196.934 69.7373 197.169 68.8133 197.638 67.992C198.122 67.1707 198.775 66.5253 199.596 66.056C200.432 65.572 201.363 65.33 202.39 65.33C203.197 65.33 203.945 65.484 204.634 65.792C205.323 66.0853 205.917 66.518 206.416 67.09L205.096 68.41C204.773 68.0287 204.377 67.7427 203.908 67.552C203.453 67.3467 202.947 67.244 202.39 67.244C201.73 67.244 201.143 67.398 200.63 67.706C200.117 67.9993 199.713 68.41 199.42 68.938C199.127 69.466 198.98 70.0747 198.98 70.764C198.98 71.4533 199.127 72.062 199.42 72.59C199.713 73.118 200.117 73.536 200.63 73.844C201.143 74.152 201.73 74.306 202.39 74.306C202.947 74.306 203.453 74.2107 203.908 74.02C204.377 73.8147 204.781 73.5213 205.118 73.14L206.416 74.46C205.932 75.0173 205.338 75.45 204.634 75.758C203.945 76.066 203.197 76.22 202.39 76.22ZM213.026 76.22C211.985 76.22 211.046 75.9853 210.21 75.516C209.374 75.032 208.714 74.3793 208.23 73.558C207.746 72.7367 207.504 71.8053 207.504 70.764C207.504 69.7373 207.739 68.8133 208.208 67.992C208.692 67.1707 209.338 66.5253 210.144 66.056C210.966 65.572 211.882 65.33 212.894 65.33C213.862 65.33 214.713 65.55 215.446 65.99C216.194 66.43 216.774 67.0387 217.184 67.816C217.61 68.5933 217.822 69.4733 217.822 70.456C217.822 70.6027 217.815 70.764 217.8 70.94C217.786 71.1013 217.756 71.292 217.712 71.512H208.89V69.862H216.656L215.93 70.5C215.93 69.796 215.806 69.202 215.556 68.718C215.307 68.2193 214.955 67.838 214.5 67.574C214.046 67.2953 213.496 67.156 212.85 67.156C212.176 67.156 211.582 67.3027 211.068 67.596C210.555 67.8893 210.159 68.3 209.88 68.828C209.602 69.356 209.462 69.9793 209.462 70.698C209.462 71.4313 209.609 72.0767 209.902 72.634C210.196 73.1767 210.614 73.602 211.156 73.91C211.699 74.2033 212.322 74.35 213.026 74.35C213.613 74.35 214.148 74.2473 214.632 74.042C215.131 73.8367 215.556 73.5287 215.908 73.118L217.184 74.416C216.686 75.0027 216.07 75.45 215.336 75.758C214.618 76.066 213.848 76.22 213.026 76.22ZM224.403 76.22C223.435 76.22 222.57 75.9853 221.807 75.516C221.045 75.032 220.436 74.3793 219.981 73.558C219.541 72.7367 219.321 71.8127 219.321 70.786C219.321 69.7593 219.541 68.8353 219.981 68.014C220.436 67.1927 221.045 66.54 221.807 66.056C222.57 65.572 223.435 65.33 224.403 65.33C225.181 65.33 225.885 65.4987 226.515 65.836C227.146 66.1587 227.652 66.6133 228.033 67.2C228.429 67.772 228.649 68.4393 228.693 69.202V72.348C228.649 73.096 228.437 73.7633 228.055 74.35C227.674 74.9367 227.168 75.3987 226.537 75.736C225.907 76.0587 225.195 76.22 224.403 76.22ZM224.733 74.35C225.393 74.35 225.965 74.196 226.449 73.888C226.948 73.58 227.337 73.162 227.615 72.634C227.894 72.0913 228.033 71.4753 228.033 70.786C228.033 70.0673 227.887 69.444 227.593 68.916C227.315 68.388 226.926 67.97 226.427 67.662C225.943 67.354 225.371 67.2 224.711 67.2C224.051 67.2 223.472 67.354 222.973 67.662C222.475 67.97 222.079 68.3953 221.785 68.938C221.507 69.466 221.367 70.0747 221.367 70.764C221.367 71.468 221.507 72.0913 221.785 72.634C222.079 73.162 222.475 73.58 222.973 73.888C223.487 74.196 224.073 74.35 224.733 74.35ZM229.903 76H227.901V73.184L228.275 70.632L227.901 68.102V60.292H229.903V76ZM241.96 76.22C240.757 76.22 239.731 76 238.88 75.56C238.029 75.12 237.274 74.482 236.614 73.646L238.022 72.238C238.506 72.9127 239.063 73.426 239.694 73.778C240.325 74.1153 241.102 74.284 242.026 74.284C242.935 74.284 243.661 74.086 244.204 73.69C244.761 73.294 245.04 72.7513 245.04 72.062C245.04 71.49 244.908 71.028 244.644 70.676C244.38 70.324 244.021 70.038 243.566 69.818C243.126 69.5833 242.642 69.378 242.114 69.202C241.586 69.0113 241.058 68.8133 240.53 68.608C240.002 68.388 239.518 68.124 239.078 67.816C238.638 67.4933 238.279 67.0753 238 66.562C237.736 66.0487 237.604 65.4033 237.604 64.626C237.604 63.7607 237.809 63.0273 238.22 62.426C238.645 61.81 239.217 61.3407 239.936 61.018C240.669 60.6807 241.491 60.512 242.4 60.512C243.397 60.512 244.292 60.71 245.084 61.106C245.876 61.4873 246.521 61.9933 247.02 62.624L245.612 64.032C245.157 63.504 244.666 63.108 244.138 62.844C243.625 62.58 243.031 62.448 242.356 62.448C241.535 62.448 240.882 62.6313 240.398 62.998C239.914 63.35 239.672 63.8487 239.672 64.494C239.672 65.0073 239.804 65.4253 240.068 65.748C240.347 66.056 240.706 66.32 241.146 66.54C241.586 66.76 242.07 66.9653 242.598 67.156C243.141 67.332 243.676 67.53 244.204 67.75C244.732 67.97 245.216 68.2487 245.656 68.586C246.096 68.9233 246.448 69.3633 246.712 69.906C246.991 70.434 247.13 71.1013 247.13 71.908C247.13 73.2573 246.661 74.3133 245.722 75.076C244.798 75.8387 243.544 76.22 241.96 76.22ZM254.255 76.22C253.214 76.22 252.275 75.9853 251.439 75.516C250.603 75.032 249.943 74.3793 249.459 73.558C248.975 72.7367 248.733 71.8053 248.733 70.764C248.733 69.7373 248.968 68.8133 249.437 67.992C249.921 67.1707 250.566 66.5253 251.373 66.056C252.194 65.572 253.111 65.33 254.123 65.33C255.091 65.33 255.942 65.55 256.675 65.99C257.423 66.43 258.002 67.0387 258.413 67.816C258.838 68.5933 259.051 69.4733 259.051 70.456C259.051 70.6027 259.044 70.764 259.029 70.94C259.014 71.1013 258.985 71.292 258.941 71.512H250.119V69.862H257.885L257.159 70.5C257.159 69.796 257.034 69.202 256.785 68.718C256.536 68.2193 256.184 67.838 255.729 67.574C255.274 67.2953 254.724 67.156 254.079 67.156C253.404 67.156 252.81 67.3027 252.297 67.596C251.784 67.8893 251.388 68.3 251.109 68.828C250.83 69.356 250.691 69.9793 250.691 70.698C250.691 71.4313 250.838 72.0767 251.131 72.634C251.424 73.1767 251.842 73.602 252.385 73.91C252.928 74.2033 253.551 74.35 254.255 74.35C254.842 74.35 255.377 74.2473 255.861 74.042C256.36 73.8367 256.785 73.5287 257.137 73.118L258.413 74.416C257.914 75.0027 257.298 75.45 256.565 75.758C255.846 76.066 255.076 76.22 254.255 76.22ZM265.984 76.22C264.957 76.22 264.026 75.978 263.19 75.494C262.368 75.01 261.716 74.3573 261.232 73.536C260.762 72.7 260.528 71.776 260.528 70.764C260.528 69.7373 260.762 68.8133 261.232 67.992C261.716 67.1707 262.368 66.5253 263.19 66.056C264.026 65.572 264.957 65.33 265.984 65.33C266.79 65.33 267.538 65.484 268.228 65.792C268.917 66.0853 269.511 66.518 270.01 67.09L268.69 68.41C268.367 68.0287 267.971 67.7427 267.502 67.552C267.047 67.3467 266.541 67.244 265.984 67.244C265.324 67.244 264.737 67.398 264.224 67.706C263.71 67.9993 263.307 68.41 263.014 68.938C262.72 69.466 262.574 70.0747 262.574 70.764C262.574 71.4533 262.72 72.062 263.014 72.59C263.307 73.118 263.71 73.536 264.224 73.844C264.737 74.152 265.324 74.306 265.984 74.306C266.541 74.306 267.047 74.2107 267.502 74.02C267.971 73.8147 268.374 73.5213 268.712 73.14L270.01 74.46C269.526 75.0173 268.932 75.45 268.228 75.758C267.538 76.066 266.79 76.22 265.984 76.22ZM276.197 76.22C275.332 76.22 274.555 76.0293 273.865 75.648C273.191 75.252 272.663 74.7093 272.281 74.02C271.9 73.3307 271.709 72.5313 271.709 71.622V65.55H273.689V71.534C273.689 72.106 273.785 72.6047 273.975 73.03C274.181 73.4407 274.474 73.756 274.855 73.976C275.237 74.196 275.684 74.306 276.197 74.306C276.975 74.306 277.583 74.064 278.023 73.58C278.463 73.0813 278.683 72.3993 278.683 71.534V65.55H280.663V71.622C280.663 72.5313 280.473 73.3307 280.091 74.02C279.71 74.7093 279.182 75.252 278.507 75.648C277.847 76.0293 277.077 76.22 276.197 76.22ZM283.317 76V65.55H285.297V76H283.317ZM285.297 70.038L284.549 69.708C284.549 68.3733 284.857 67.31 285.473 66.518C286.089 65.726 286.977 65.33 288.135 65.33C288.663 65.33 289.14 65.4253 289.565 65.616C289.991 65.792 290.387 66.0927 290.753 66.518L289.455 67.86C289.235 67.6253 288.993 67.4567 288.729 67.354C288.465 67.2513 288.157 67.2 287.805 67.2C287.072 67.2 286.471 67.4347 286.001 67.904C285.532 68.3733 285.297 69.0847 285.297 70.038ZM292.169 76V65.55H294.149V76H292.169ZM293.159 63.46C292.793 63.46 292.492 63.3427 292.257 63.108C292.023 62.8587 291.905 62.5507 291.905 62.184C291.905 61.832 292.023 61.5387 292.257 61.304C292.492 61.0547 292.793 60.93 293.159 60.93C293.526 60.93 293.827 61.0547 294.061 61.304C294.296 61.5387 294.413 61.832 294.413 62.184C294.413 62.5507 294.296 62.8587 294.061 63.108C293.827 63.3427 293.526 63.46 293.159 63.46ZM298.673 76V61.172H300.653V76H298.673ZM296.099 67.354V65.55H303.227V67.354H296.099ZM308.599 76.088L304.067 65.55H306.267L309.633 73.8H308.929L312.471 65.55H314.671L309.787 76.088H308.599ZM305.607 80.378L308.687 74.064L309.787 76.088L307.807 80.378H305.607Z" fill="#858585"/>
<path d="M133.465 111L137.725 100.59H138.745L142.99 111H141.46L137.965 102.195H138.49L134.965 111H133.465ZM135.49 108.645V107.415H140.965V108.645H135.49ZM148.184 111.15C147.644 111.15 147.154 111.04 146.714 110.82C146.284 110.59 145.939 110.275 145.679 109.875C145.419 109.475 145.274 109.02 145.244 108.51V106.365C145.274 105.845 145.419 105.39 145.679 105C145.949 104.6 146.299 104.29 146.729 104.07C147.169 103.84 147.654 103.725 148.184 103.725C148.834 103.725 149.419 103.89 149.939 104.22C150.469 104.55 150.884 104.995 151.184 105.555C151.484 106.115 151.634 106.745 151.634 107.445C151.634 108.145 151.484 108.775 151.184 109.335C150.884 109.895 150.469 110.34 149.939 110.67C149.419 110.99 148.834 111.15 148.184 111.15ZM144.434 111V100.29H145.784V105.615L145.529 107.34L145.784 109.08V111H144.434ZM147.959 109.875C148.409 109.875 148.804 109.77 149.144 109.56C149.484 109.35 149.754 109.065 149.954 108.705C150.154 108.335 150.254 107.91 150.254 107.43C150.254 106.96 150.154 106.54 149.954 106.17C149.754 105.8 149.484 105.515 149.144 105.315C148.804 105.105 148.414 105 147.974 105C147.524 105 147.129 105.105 146.789 105.315C146.449 105.515 146.184 105.8 145.994 106.17C145.804 106.54 145.709 106.965 145.709 107.445C145.709 107.915 145.799 108.335 145.979 108.705C146.169 109.065 146.434 109.35 146.774 109.56C147.124 109.77 147.519 109.875 147.959 109.875ZM153.18 111V103.875H154.53V111H153.18ZM153.855 102.45C153.605 102.45 153.4 102.37 153.24 102.21C153.08 102.04 153 101.83 153 101.58C153 101.34 153.08 101.14 153.24 100.98C153.4 100.81 153.605 100.725 153.855 100.725C154.105 100.725 154.31 100.81 154.47 100.98C154.63 101.14 154.71 101.34 154.71 101.58C154.71 101.83 154.63 102.04 154.47 102.21C154.31 102.37 154.105 102.45 153.855 102.45ZM156.519 111V100.29H157.869V111H156.519ZM159.859 111V103.875H161.209V111H159.859ZM160.534 102.45C160.284 102.45 160.079 102.37 159.919 102.21C159.759 102.04 159.679 101.83 159.679 101.58C159.679 101.34 159.759 101.14 159.919 100.98C160.079 100.81 160.284 100.725 160.534 100.725C160.784 100.725 160.989 100.81 161.149 100.98C161.309 101.14 161.389 101.34 161.389 101.58C161.389 101.83 161.309 102.04 161.149 102.21C160.989 102.37 160.784 102.45 160.534 102.45ZM164.294 111V100.89H165.644V111H164.294ZM162.539 105.105V103.875H167.399V105.105H162.539ZM171.061 111.06L167.971 103.875H169.471L171.766 109.5H171.286L173.701 103.875H175.201L171.871 111.06H171.061ZM169.021 113.985L171.121 109.68L171.871 111.06L170.521 113.985H169.021ZM180.642 111V100.89H181.992V111H180.642ZM178.887 105.105V103.875H183.747V105.105H178.887ZM188.104 111.15C187.404 111.15 186.774 110.985 186.214 110.655C185.654 110.325 185.209 109.88 184.879 109.32C184.549 108.75 184.384 108.115 184.384 107.415C184.384 106.725 184.549 106.105 184.879 105.555C185.209 104.995 185.654 104.55 186.214 104.22C186.774 103.89 187.404 103.725 188.104 103.725C188.794 103.725 189.419 103.89 189.979 104.22C190.549 104.54 190.999 104.98 191.329 105.54C191.659 106.1 191.824 106.725 191.824 107.415C191.824 108.115 191.659 108.75 191.329 109.32C190.999 109.88 190.549 110.325 189.979 110.655C189.419 110.985 188.794 111.15 188.104 111.15ZM188.104 109.845C188.554 109.845 188.954 109.74 189.304 109.53C189.654 109.32 189.929 109.035 190.129 108.675C190.329 108.305 190.429 107.885 190.429 107.415C190.429 106.955 190.324 106.545 190.114 106.185C189.914 105.825 189.639 105.545 189.289 105.345C188.949 105.135 188.554 105.03 188.104 105.03C187.654 105.03 187.254 105.135 186.904 105.345C186.554 105.545 186.279 105.825 186.079 106.185C185.879 106.545 185.779 106.955 185.779 107.415C185.779 107.885 185.879 108.305 186.079 108.675C186.279 109.035 186.554 109.32 186.904 109.53C187.254 109.74 187.654 109.845 188.104 109.845ZM196.466 111V103.875H197.816V111H196.466ZM201.281 111V106.695C201.281 106.165 201.116 105.75 200.786 105.45C200.466 105.14 200.061 104.985 199.571 104.985C199.241 104.985 198.946 105.055 198.686 105.195C198.426 105.335 198.216 105.53 198.056 105.78C197.896 106.03 197.816 106.33 197.816 106.68L197.261 106.41C197.261 105.87 197.376 105.4 197.606 105C197.846 104.6 198.171 104.29 198.581 104.07C198.991 103.84 199.451 103.725 199.961 103.725C200.461 103.725 200.911 103.835 201.311 104.055C201.721 104.275 202.041 104.585 202.271 104.985C202.511 105.385 202.631 105.86 202.631 106.41V111H201.281ZM206.096 111V106.695C206.096 106.165 205.931 105.75 205.601 105.45C205.281 105.14 204.881 104.985 204.401 104.985C204.071 104.985 203.771 105.055 203.501 105.195C203.241 105.335 203.031 105.53 202.871 105.78C202.711 106.03 202.631 106.33 202.631 106.68L201.866 106.41C201.896 105.86 202.041 105.39 202.301 105C202.571 104.6 202.916 104.29 203.336 104.07C203.756 103.84 204.216 103.725 204.716 103.725C205.236 103.725 205.701 103.835 206.111 104.055C206.521 104.275 206.846 104.585 207.086 104.985C207.336 105.385 207.461 105.865 207.461 106.425V111H206.096ZM212.328 111.15C211.678 111.15 211.088 110.99 210.558 110.67C210.028 110.34 209.608 109.895 209.298 109.335C208.998 108.775 208.848 108.145 208.848 107.445C208.848 106.745 208.998 106.115 209.298 105.555C209.608 104.995 210.023 104.55 210.543 104.22C211.073 103.89 211.668 103.725 212.328 103.725C212.868 103.725 213.348 103.84 213.768 104.07C214.198 104.29 214.543 104.6 214.803 105C215.063 105.39 215.208 105.845 215.238 106.365V108.51C215.208 109.02 215.063 109.475 214.803 109.875C214.553 110.275 214.213 110.59 213.783 110.82C213.363 111.04 212.878 111.15 212.328 111.15ZM212.553 109.875C213.223 109.875 213.763 109.65 214.173 109.2C214.583 108.74 214.788 108.155 214.788 107.445C214.788 106.955 214.693 106.53 214.503 106.17C214.323 105.8 214.063 105.515 213.723 105.315C213.383 105.105 212.988 105 212.538 105C212.088 105 211.688 105.105 211.338 105.315C210.998 105.525 210.728 105.815 210.528 106.185C210.338 106.545 210.243 106.96 210.243 107.43C210.243 107.91 210.338 108.335 210.528 108.705C210.728 109.065 211.003 109.35 211.353 109.56C211.703 109.77 212.103 109.875 212.553 109.875ZM214.698 111V109.08L214.953 107.34L214.698 105.615V103.875H216.063V111H214.698ZM223.068 111V106.845C223.068 106.305 222.898 105.86 222.558 105.51C222.218 105.16 221.778 104.985 221.238 104.985C220.878 104.985 220.558 105.065 220.278 105.225C219.998 105.385 219.778 105.605 219.618 105.885C219.458 106.165 219.378 106.485 219.378 106.845L218.823 106.53C218.823 105.99 218.943 105.51 219.183 105.09C219.423 104.67 219.758 104.34 220.188 104.1C220.618 103.85 221.103 103.725 221.643 103.725C222.183 103.725 222.658 103.86 223.068 104.13C223.488 104.4 223.818 104.755 224.058 105.195C224.298 105.625 224.418 106.085 224.418 106.575V111H223.068ZM218.028 111V103.875H219.378V111H218.028ZM229.276 111.15C228.626 111.15 228.036 110.99 227.506 110.67C226.976 110.34 226.556 109.895 226.246 109.335C225.946 108.775 225.796 108.145 225.796 107.445C225.796 106.745 225.946 106.115 226.246 105.555C226.556 104.995 226.971 104.55 227.491 104.22C228.021 103.89 228.616 103.725 229.276 103.725C229.816 103.725 230.296 103.84 230.716 104.07C231.146 104.29 231.491 104.6 231.751 105C232.011 105.39 232.156 105.845 232.186 106.365V108.51C232.156 109.02 232.011 109.475 231.751 109.875C231.501 110.275 231.161 110.59 230.731 110.82C230.311 111.04 229.826 111.15 229.276 111.15ZM229.501 109.875C230.171 109.875 230.711 109.65 231.121 109.2C231.531 108.74 231.736 108.155 231.736 107.445C231.736 106.955 231.641 106.53 231.451 106.17C231.271 105.8 231.011 105.515 230.671 105.315C230.331 105.105 229.936 105 229.486 105C229.036 105 228.636 105.105 228.286 105.315C227.946 105.525 227.676 105.815 227.476 106.185C227.286 106.545 227.191 106.96 227.191 107.43C227.191 107.91 227.286 108.335 227.476 108.705C227.676 109.065 227.951 109.35 228.301 109.56C228.651 109.77 229.051 109.875 229.501 109.875ZM231.646 111V109.08L231.901 107.34L231.646 105.615V103.875H233.011V111H231.646ZM237.931 114.135C237.201 114.135 236.551 114 235.981 113.73C235.421 113.46 234.971 113.08 234.631 112.59L235.501 111.705C235.791 112.075 236.136 112.355 236.536 112.545C236.936 112.745 237.411 112.845 237.961 112.845C238.691 112.845 239.266 112.65 239.686 112.26C240.116 111.88 240.331 111.365 240.331 110.715V108.945L240.571 107.34L240.331 105.75V103.875H241.681V110.715C241.681 111.395 241.521 111.99 241.201 112.5C240.891 113.01 240.451 113.41 239.881 113.7C239.321 113.99 238.671 114.135 237.931 114.135ZM237.931 110.88C237.281 110.88 236.696 110.725 236.176 110.415C235.666 110.105 235.261 109.68 234.961 109.14C234.661 108.59 234.511 107.975 234.511 107.295C234.511 106.615 234.661 106.01 234.961 105.48C235.261 104.94 235.666 104.515 236.176 104.205C236.696 103.885 237.281 103.725 237.931 103.725C238.491 103.725 238.986 103.835 239.416 104.055C239.846 104.275 240.186 104.585 240.436 104.985C240.696 105.375 240.836 105.835 240.856 106.365V108.255C240.826 108.775 240.681 109.235 240.421 109.635C240.171 110.025 239.831 110.33 239.401 110.55C238.971 110.77 238.481 110.88 237.931 110.88ZM238.201 109.605C238.641 109.605 239.026 109.51 239.356 109.32C239.696 109.13 239.956 108.865 240.136 108.525C240.316 108.175 240.406 107.77 240.406 107.31C240.406 106.85 240.311 106.45 240.121 106.11C239.941 105.76 239.686 105.49 239.356 105.3C239.026 105.1 238.636 105 238.186 105C237.736 105 237.341 105.1 237.001 105.3C236.661 105.49 236.391 105.76 236.191 106.11C236.001 106.45 235.906 106.845 235.906 107.295C235.906 107.745 236.001 108.145 236.191 108.495C236.391 108.845 236.661 109.12 237.001 109.32C237.351 109.51 237.751 109.605 238.201 109.605ZM246.963 111.15C246.253 111.15 245.613 110.99 245.043 110.67C244.473 110.34 244.023 109.895 243.693 109.335C243.363 108.775 243.198 108.14 243.198 107.43C243.198 106.73 243.358 106.1 243.678 105.54C244.008 104.98 244.448 104.54 244.998 104.22C245.558 103.89 246.183 103.725 246.873 103.725C247.533 103.725 248.113 103.875 248.613 104.175C249.123 104.475 249.518 104.89 249.798 105.42C250.088 105.95 250.233 106.55 250.233 107.22C250.233 107.32 250.228 107.43 250.218 107.55C250.208 107.66 250.188 107.79 250.158 107.94H244.143V106.815H249.438L248.943 107.25C248.943 106.77 248.858 106.365 248.688 106.035C248.518 105.695 248.278 105.435 247.968 105.255C247.658 105.065 247.283 104.97 246.843 104.97C246.383 104.97 245.978 105.07 245.628 105.27C245.278 105.47 245.008 105.75 244.818 106.11C244.628 106.47 244.533 106.895 244.533 107.385C244.533 107.885 244.633 108.325 244.833 108.705C245.033 109.075 245.318 109.365 245.688 109.575C246.058 109.775 246.483 109.875 246.963 109.875C247.363 109.875 247.728 109.805 248.058 109.665C248.398 109.525 248.688 109.315 248.928 109.035L249.798 109.92C249.458 110.32 249.038 110.625 248.538 110.835C248.048 111.045 247.523 111.15 246.963 111.15ZM257.78 114.135C257.05 114.135 256.4 114 255.83 113.73C255.27 113.46 254.82 113.08 254.48 112.59L255.35 111.705C255.64 112.075 255.985 112.355 256.385 112.545C256.785 112.745 257.26 112.845 257.81 112.845C258.54 112.845 259.115 112.65 259.535 112.26C259.965 111.88 260.18 111.365 260.18 110.715V108.945L260.42 107.34L260.18 105.75V103.875H261.53V110.715C261.53 111.395 261.37 111.99 261.05 112.5C260.74 113.01 260.3 113.41 259.73 113.7C259.17 113.99 258.52 114.135 257.78 114.135ZM257.78 110.88C257.13 110.88 256.545 110.725 256.025 110.415C255.515 110.105 255.11 109.68 254.81 109.14C254.51 108.59 254.36 107.975 254.36 107.295C254.36 106.615 254.51 106.01 254.81 105.48C255.11 104.94 255.515 104.515 256.025 104.205C256.545 103.885 257.13 103.725 257.78 103.725C258.34 103.725 258.835 103.835 259.265 104.055C259.695 104.275 260.035 104.585 260.285 104.985C260.545 105.375 260.685 105.835 260.705 106.365V108.255C260.675 108.775 260.53 109.235 260.27 109.635C260.02 110.025 259.68 110.33 259.25 110.55C258.82 110.77 258.33 110.88 257.78 110.88ZM258.05 109.605C258.49 109.605 258.875 109.51 259.205 109.32C259.545 109.13 259.805 108.865 259.985 108.525C260.165 108.175 260.255 107.77 260.255 107.31C260.255 106.85 260.16 106.45 259.97 106.11C259.79 105.76 259.535 105.49 259.205 105.3C258.875 105.1 258.485 105 258.035 105C257.585 105 257.19 105.1 256.85 105.3C256.51 105.49 256.24 105.76 256.04 106.11C255.85 106.45 255.755 106.845 255.755 107.295C255.755 107.745 255.85 108.145 256.04 108.495C256.24 108.845 256.51 109.12 256.85 109.32C257.2 109.51 257.6 109.605 258.05 109.605ZM263.511 111V103.875H264.861V111H263.511ZM264.861 106.935L264.351 106.71C264.351 105.8 264.561 105.075 264.981 104.535C265.401 103.995 266.006 103.725 266.796 103.725C267.156 103.725 267.481 103.79 267.771 103.92C268.061 104.04 268.331 104.245 268.581 104.535L267.696 105.45C267.546 105.29 267.381 105.175 267.201 105.105C267.021 105.035 266.811 105 266.571 105C266.071 105 265.661 105.16 265.341 105.48C265.021 105.8 264.861 106.285 264.861 106.935ZM272.328 111.15C271.678 111.15 271.088 110.99 270.558 110.67C270.028 110.34 269.608 109.895 269.298 109.335C268.998 108.775 268.848 108.145 268.848 107.445C268.848 106.745 268.998 106.115 269.298 105.555C269.608 104.995 270.023 104.55 270.543 104.22C271.073 103.89 271.668 103.725 272.328 103.725C272.868 103.725 273.348 103.84 273.768 104.07C274.198 104.29 274.543 104.6 274.803 105C275.063 105.39 275.208 105.845 275.238 106.365V108.51C275.208 109.02 275.063 109.475 274.803 109.875C274.553 110.275 274.213 110.59 273.783 110.82C273.363 111.04 272.878 111.15 272.328 111.15ZM272.553 109.875C273.223 109.875 273.763 109.65 274.173 109.2C274.583 108.74 274.788 108.155 274.788 107.445C274.788 106.955 274.693 106.53 274.503 106.17C274.323 105.8 274.063 105.515 273.723 105.315C273.383 105.105 272.988 105 272.538 105C272.088 105 271.688 105.105 271.338 105.315C270.998 105.525 270.728 105.815 270.528 106.185C270.338 106.545 270.243 106.96 270.243 107.43C270.243 107.91 270.338 108.335 270.528 108.705C270.728 109.065 271.003 109.35 271.353 109.56C271.703 109.77 272.103 109.875 272.553 109.875ZM274.698 111V109.08L274.953 107.34L274.698 105.615V103.875H276.063V111H274.698ZM283.068 111V106.845C283.068 106.305 282.898 105.86 282.558 105.51C282.218 105.16 281.778 104.985 281.238 104.985C280.878 104.985 280.558 105.065 280.278 105.225C279.998 105.385 279.778 105.605 279.618 105.885C279.458 106.165 279.378 106.485 279.378 106.845L278.823 106.53C278.823 105.99 278.943 105.51 279.183 105.09C279.423 104.67 279.758 104.34 280.188 104.1C280.618 103.85 281.103 103.725 281.643 103.725C282.183 103.725 282.658 103.86 283.068 104.13C283.488 104.4 283.818 104.755 284.058 105.195C284.298 105.625 284.418 106.085 284.418 106.575V111H283.068ZM278.028 111V103.875H279.378V111H278.028ZM289.111 111.15C288.531 111.15 288.006 111.02 287.536 110.76C287.076 110.49 286.716 110.12 286.456 109.65C286.196 109.18 286.066 108.635 286.066 108.015V103.875H287.416V107.955C287.416 108.345 287.481 108.685 287.611 108.975C287.751 109.255 287.951 109.47 288.211 109.62C288.471 109.77 288.776 109.845 289.126 109.845C289.656 109.845 290.071 109.68 290.371 109.35C290.671 109.01 290.821 108.545 290.821 107.955V103.875H292.171V108.015C292.171 108.635 292.041 109.18 291.781 109.65C291.521 110.12 291.161 110.49 290.701 110.76C290.251 111.02 289.721 111.15 289.111 111.15ZM293.98 111V100.29H295.33V111H293.98ZM300.335 111.15C299.685 111.15 299.095 110.99 298.565 110.67C298.035 110.34 297.615 109.895 297.305 109.335C297.005 108.775 296.855 108.145 296.855 107.445C296.855 106.745 297.005 106.115 297.305 105.555C297.615 104.995 298.03 104.55 298.55 104.22C299.08 103.89 299.675 103.725 300.335 103.725C300.875 103.725 301.355 103.84 301.775 104.07C302.205 104.29 302.55 104.6 302.81 105C303.07 105.39 303.215 105.845 303.245 106.365V108.51C303.215 109.02 303.07 109.475 302.81 109.875C302.56 110.275 302.22 110.59 301.79 110.82C301.37 111.04 300.885 111.15 300.335 111.15ZM300.56 109.875C301.23 109.875 301.77 109.65 302.18 109.2C302.59 108.74 302.795 108.155 302.795 107.445C302.795 106.955 302.7 106.53 302.51 106.17C302.33 105.8 302.07 105.515 301.73 105.315C301.39 105.105 300.995 105 300.545 105C300.095 105 299.695 105.105 299.345 105.315C299.005 105.525 298.735 105.815 298.535 106.185C298.345 106.545 298.25 106.96 298.25 107.43C298.25 107.91 298.345 108.335 298.535 108.705C298.735 109.065 299.01 109.35 299.36 109.56C299.71 109.77 300.11 109.875 300.56 109.875ZM302.705 111V109.08L302.96 107.34L302.705 105.615V103.875H304.07V111H302.705ZM306.036 111V103.875H307.386V111H306.036ZM307.386 106.935L306.876 106.71C306.876 105.8 307.086 105.075 307.506 104.535C307.926 103.995 308.531 103.725 309.321 103.725C309.681 103.725 310.006 103.79 310.296 103.92C310.586 104.04 310.856 104.245 311.106 104.535L310.221 105.45C310.071 105.29 309.906 105.175 309.726 105.105C309.546 105.035 309.336 105 309.096 105C308.596 105 308.186 105.16 307.866 105.48C307.546 105.8 307.386 106.285 307.386 106.935ZM137.02 135.15C136.37 135.15 135.78 134.99 135.25 134.67C134.72 134.34 134.3 133.895 133.99 133.335C133.69 132.775 133.54 132.145 133.54 131.445C133.54 130.745 133.69 130.115 133.99 129.555C134.3 128.995 134.715 128.55 135.235 128.22C135.765 127.89 136.36 127.725 137.02 127.725C137.56 127.725 138.04 127.84 138.46 128.07C138.89 128.29 139.235 128.6 139.495 129C139.755 129.39 139.9 129.845 139.93 130.365V132.51C139.9 133.02 139.755 133.475 139.495 133.875C139.245 134.275 138.905 134.59 138.475 134.82C138.055 135.04 137.57 135.15 137.02 135.15ZM137.245 133.875C137.915 133.875 138.455 133.65 138.865 133.2C139.275 132.74 139.48 132.155 139.48 131.445C139.48 130.955 139.385 130.53 139.195 130.17C139.015 129.8 138.755 129.515 138.415 129.315C138.075 129.105 137.68 129 137.23 129C136.78 129 136.38 129.105 136.03 129.315C135.69 129.525 135.42 129.815 135.22 130.185C135.03 130.545 134.935 130.96 134.935 131.43C134.935 131.91 135.03 132.335 135.22 132.705C135.42 133.065 135.695 133.35 136.045 133.56C136.395 133.77 136.795 133.875 137.245 133.875ZM139.39 135V133.08L139.645 131.34L139.39 129.615V127.875H140.755V135H139.39ZM145.975 135.15C145.275 135.15 144.64 134.985 144.07 134.655C143.51 134.325 143.065 133.88 142.735 133.32C142.415 132.75 142.255 132.12 142.255 131.43C142.255 130.73 142.415 130.1 142.735 129.54C143.065 128.98 143.51 128.54 144.07 128.22C144.64 127.89 145.275 127.725 145.975 127.725C146.525 127.725 147.035 127.83 147.505 128.04C147.975 128.24 148.38 128.535 148.72 128.925L147.82 129.825C147.6 129.565 147.33 129.37 147.01 129.24C146.7 129.1 146.355 129.03 145.975 129.03C145.525 129.03 145.125 129.135 144.775 129.345C144.425 129.545 144.15 129.825 143.95 130.185C143.75 130.545 143.65 130.96 143.65 131.43C143.65 131.9 143.75 132.315 143.95 132.675C144.15 133.035 144.425 133.32 144.775 133.53C145.125 133.74 145.525 133.845 145.975 133.845C146.355 133.845 146.7 133.78 147.01 133.65C147.33 133.51 147.605 133.31 147.835 133.05L148.72 133.95C148.39 134.33 147.985 134.625 147.505 134.835C147.035 135.045 146.525 135.15 145.975 135.15ZM153.168 135.15C152.468 135.15 151.833 134.985 151.263 134.655C150.703 134.325 150.258 133.88 149.928 133.32C149.608 132.75 149.448 132.12 149.448 131.43C149.448 130.73 149.608 130.1 149.928 129.54C150.258 128.98 150.703 128.54 151.263 128.22C151.833 127.89 152.468 127.725 153.168 127.725C153.718 127.725 154.228 127.83 154.698 128.04C155.168 128.24 155.573 128.535 155.913 128.925L155.013 129.825C154.793 129.565 154.523 129.37 154.203 129.24C153.893 129.1 153.548 129.03 153.168 129.03C152.718 129.03 152.318 129.135 151.968 129.345C151.618 129.545 151.343 129.825 151.143 130.185C150.943 130.545 150.843 130.96 150.843 131.43C150.843 131.9 150.943 132.315 151.143 132.675C151.343 133.035 151.618 133.32 151.968 133.53C152.318 133.74 152.718 133.845 153.168 133.845C153.548 133.845 153.893 133.78 154.203 133.65C154.523 133.51 154.798 133.31 155.028 133.05L155.913 133.95C155.583 134.33 155.178 134.625 154.698 134.835C154.228 135.045 153.718 135.15 153.168 135.15ZM160.405 135.15C159.695 135.15 159.055 134.99 158.485 134.67C157.915 134.34 157.465 133.895 157.135 133.335C156.805 132.775 156.64 132.14 156.64 131.43C156.64 130.73 156.8 130.1 157.12 129.54C157.45 128.98 157.89 128.54 158.44 128.22C159 127.89 159.625 127.725 160.315 127.725C160.975 127.725 161.555 127.875 162.055 128.175C162.565 128.475 162.96 128.89 163.24 129.42C163.53 129.95 163.675 130.55 163.675 131.22C163.675 131.32 163.67 131.43 163.66 131.55C163.65 131.66 163.63 131.79 163.6 131.94H157.585V130.815H162.88L162.385 131.25C162.385 130.77 162.3 130.365 162.13 130.035C161.96 129.695 161.72 129.435 161.41 129.255C161.1 129.065 160.725 128.97 160.285 128.97C159.825 128.97 159.42 129.07 159.07 129.27C158.72 129.47 158.45 129.75 158.26 130.11C158.07 130.47 157.975 130.895 157.975 131.385C157.975 131.885 158.075 132.325 158.275 132.705C158.475 133.075 158.76 133.365 159.13 133.575C159.5 133.775 159.925 133.875 160.405 133.875C160.805 133.875 161.17 133.805 161.5 133.665C161.84 133.525 162.13 133.315 162.37 133.035L163.24 133.92C162.9 134.32 162.48 134.625 161.98 134.835C161.49 135.045 160.965 135.15 160.405 135.15ZM167.412 135.15C167.012 135.15 166.632 135.1 166.272 135C165.922 134.89 165.597 134.74 165.297 134.55C164.997 134.35 164.737 134.115 164.517 133.845L165.387 132.975C165.647 133.295 165.947 133.535 166.287 133.695C166.627 133.845 167.007 133.92 167.427 133.92C167.847 133.92 168.172 133.85 168.402 133.71C168.632 133.56 168.747 133.355 168.747 133.095C168.747 132.835 168.652 132.635 168.462 132.495C168.282 132.345 168.047 132.225 167.757 132.135C167.467 132.035 167.157 131.94 166.827 131.85C166.507 131.75 166.202 131.625 165.912 131.475C165.622 131.325 165.382 131.12 165.192 130.86C165.012 130.6 164.922 130.255 164.922 129.825C164.922 129.395 165.027 129.025 165.237 128.715C165.447 128.395 165.737 128.15 166.107 127.98C166.487 127.81 166.942 127.725 167.472 127.725C168.032 127.725 168.527 127.825 168.957 128.025C169.397 128.215 169.757 128.505 170.037 128.895L169.167 129.765C168.967 129.505 168.717 129.305 168.417 129.165C168.127 129.025 167.797 128.955 167.427 128.955C167.037 128.955 166.737 129.025 166.527 129.165C166.327 129.295 166.227 129.48 166.227 129.72C166.227 129.96 166.317 130.145 166.497 130.275C166.677 130.405 166.912 130.515 167.202 130.605C167.502 130.695 167.812 130.79 168.132 130.89C168.452 130.98 168.757 131.105 169.047 131.265C169.337 131.425 169.572 131.64 169.752 131.91C169.942 132.18 170.037 132.535 170.037 132.975C170.037 133.645 169.797 134.175 169.317 134.565C168.847 134.955 168.212 135.15 167.412 135.15ZM173.814 135.15C173.414 135.15 173.034 135.1 172.674 135C172.324 134.89 171.999 134.74 171.699 134.55C171.399 134.35 171.139 134.115 170.919 133.845L171.789 132.975C172.049 133.295 172.349 133.535 172.689 133.695C173.029 133.845 173.409 133.92 173.829 133.92C174.249 133.92 174.574 133.85 174.804 133.71C175.034 133.56 175.149 133.355 175.149 133.095C175.149 132.835 175.054 132.635 174.864 132.495C174.684 132.345 174.449 132.225 174.159 132.135C173.869 132.035 173.559 131.94 173.229 131.85C172.909 131.75 172.604 131.625 172.314 131.475C172.024 131.325 171.784 131.12 171.594 130.86C171.414 130.6 171.324 130.255 171.324 129.825C171.324 129.395 171.429 129.025 171.639 128.715C171.849 128.395 172.139 128.15 172.509 127.98C172.889 127.81 173.344 127.725 173.874 127.725C174.434 127.725 174.929 127.825 175.359 128.025C175.799 128.215 176.159 128.505 176.439 128.895L175.569 129.765C175.369 129.505 175.119 129.305 174.819 129.165C174.529 129.025 174.199 128.955 173.829 128.955C173.439 128.955 173.139 129.025 172.929 129.165C172.729 129.295 172.629 129.48 172.629 129.72C172.629 129.96 172.719 130.145 172.899 130.275C173.079 130.405 173.314 130.515 173.604 130.605C173.904 130.695 174.214 130.79 174.534 130.89C174.854 130.98 175.159 131.105 175.449 131.265C175.739 131.425 175.974 131.64 176.154 131.91C176.344 132.18 176.439 132.535 176.439 132.975C176.439 133.645 176.199 134.175 175.719 134.565C175.249 134.955 174.614 135.15 173.814 135.15ZM184.325 135.15C183.625 135.15 182.99 134.985 182.42 134.655C181.86 134.325 181.415 133.88 181.085 133.32C180.765 132.75 180.605 132.12 180.605 131.43C180.605 130.73 180.765 130.1 181.085 129.54C181.415 128.98 181.86 128.54 182.42 128.22C182.99 127.89 183.625 127.725 184.325 127.725C184.875 127.725 185.385 127.83 185.855 128.04C186.325 128.24 186.73 128.535 187.07 128.925L186.17 129.825C185.95 129.565 185.68 129.37 185.36 129.24C185.05 129.1 184.705 129.03 184.325 129.03C183.875 129.03 183.475 129.135 183.125 129.345C182.775 129.545 182.5 129.825 182.3 130.185C182.1 130.545 182 130.96 182 131.43C182 131.9 182.1 132.315 182.3 132.675C182.5 133.035 182.775 133.32 183.125 133.53C183.475 133.74 183.875 133.845 184.325 133.845C184.705 133.845 185.05 133.78 185.36 133.65C185.68 133.51 185.955 133.31 186.185 133.05L187.07 133.95C186.74 134.33 186.335 134.625 185.855 134.835C185.385 135.045 184.875 135.15 184.325 135.15ZM191.517 135.15C190.817 135.15 190.187 134.985 189.627 134.655C189.067 134.325 188.622 133.88 188.292 133.32C187.962 132.75 187.797 132.115 187.797 131.415C187.797 130.725 187.962 130.105 188.292 129.555C188.622 128.995 189.067 128.55 189.627 128.22C190.187 127.89 190.817 127.725 191.517 127.725C192.207 127.725 192.832 127.89 193.392 128.22C193.962 128.54 194.412 128.98 194.742 129.54C195.072 130.1 195.237 130.725 195.237 131.415C195.237 132.115 195.072 132.75 194.742 133.32C194.412 133.88 193.962 134.325 193.392 134.655C192.832 134.985 192.207 135.15 191.517 135.15ZM191.517 133.845C191.967 133.845 192.367 133.74 192.717 133.53C193.067 133.32 193.342 133.035 193.542 132.675C193.742 132.305 193.842 131.885 193.842 131.415C193.842 130.955 193.737 130.545 193.527 130.185C193.327 129.825 193.052 129.545 192.702 129.345C192.362 129.135 191.967 129.03 191.517 129.03C191.067 129.03 190.667 129.135 190.317 129.345C189.967 129.545 189.692 129.825 189.492 130.185C189.292 130.545 189.192 130.955 189.192 131.415C189.192 131.885 189.292 132.305 189.492 132.675C189.692 133.035 189.967 133.32 190.317 133.53C190.667 133.74 191.067 133.845 191.517 133.845ZM201.799 135V130.845C201.799 130.305 201.629 129.86 201.289 129.51C200.949 129.16 200.509 128.985 199.969 128.985C199.609 128.985 199.289 129.065 199.009 129.225C198.729 129.385 198.509 129.605 198.349 129.885C198.189 130.165 198.109 130.485 198.109 130.845L197.554 130.53C197.554 129.99 197.674 129.51 197.914 129.09C198.154 128.67 198.489 128.34 198.919 128.1C199.349 127.85 199.834 127.725 200.374 127.725C200.914 127.725 201.389 127.86 201.799 128.13C202.219 128.4 202.549 128.755 202.789 129.195C203.029 129.625 203.149 130.085 203.149 130.575V135H201.799ZM196.759 135V127.875H198.109V135H196.759ZM205.983 135V124.89H207.333V135H205.983ZM204.228 129.105V127.875H209.088V129.105H204.228ZM210.411 135V127.875H211.761V135H210.411ZM211.761 130.935L211.251 130.71C211.251 129.8 211.461 129.075 211.881 128.535C212.301 127.995 212.906 127.725 213.696 127.725C214.056 127.725 214.381 127.79 214.671 127.92C214.961 128.04 215.231 128.245 215.481 128.535L214.596 129.45C214.446 129.29 214.281 129.175 214.101 129.105C213.921 129.035 213.711 129 213.471 129C212.971 129 212.561 129.16 212.241 129.48C211.921 129.8 211.761 130.285 211.761 130.935ZM219.452 135.15C218.752 135.15 218.122 134.985 217.562 134.655C217.002 134.325 216.557 133.88 216.227 133.32C215.897 132.75 215.732 132.115 215.732 131.415C215.732 130.725 215.897 130.105 216.227 129.555C216.557 128.995 217.002 128.55 217.562 128.22C218.122 127.89 218.752 127.725 219.452 127.725C220.142 127.725 220.767 127.89 221.327 128.22C221.897 128.54 222.347 128.98 222.677 129.54C223.007 130.1 223.172 130.725 223.172 131.415C223.172 132.115 223.007 132.75 222.677 133.32C222.347 133.88 221.897 134.325 221.327 134.655C220.767 134.985 220.142 135.15 219.452 135.15ZM219.452 133.845C219.902 133.845 220.302 133.74 220.652 133.53C221.002 133.32 221.277 133.035 221.477 132.675C221.677 132.305 221.777 131.885 221.777 131.415C221.777 130.955 221.672 130.545 221.462 130.185C221.262 129.825 220.987 129.545 220.637 129.345C220.297 129.135 219.902 129.03 219.452 129.03C219.002 129.03 218.602 129.135 218.252 129.345C217.902 129.545 217.627 129.825 217.427 130.185C217.227 130.545 217.127 130.955 217.127 131.415C217.127 131.885 217.227 132.305 217.427 132.675C217.627 133.035 217.902 133.32 218.252 133.53C218.602 133.74 219.002 133.845 219.452 133.845ZM224.693 135V124.29H226.043V135H224.693ZM234.168 135.15C233.518 135.15 232.928 134.99 232.398 134.67C231.868 134.34 231.448 133.895 231.138 133.335C230.838 132.775 230.688 132.145 230.688 131.445C230.688 130.745 230.838 130.115 231.138 129.555C231.448 128.995 231.863 128.55 232.383 128.22C232.913 127.89 233.508 127.725 234.168 127.725C234.708 127.725 235.188 127.84 235.608 128.07C236.038 128.29 236.383 128.6 236.643 129C236.903 129.39 237.048 129.845 237.078 130.365V132.51C237.048 133.02 236.903 133.475 236.643 133.875C236.393 134.275 236.053 134.59 235.623 134.82C235.203 135.04 234.718 135.15 234.168 135.15ZM234.393 133.875C235.063 133.875 235.603 133.65 236.013 133.2C236.423 132.74 236.628 132.155 236.628 131.445C236.628 130.955 236.533 130.53 236.343 130.17C236.163 129.8 235.903 129.515 235.563 129.315C235.223 129.105 234.828 129 234.378 129C233.928 129 233.528 129.105 233.178 129.315C232.838 129.525 232.568 129.815 232.368 130.185C232.178 130.545 232.083 130.96 232.083 131.43C232.083 131.91 232.178 132.335 232.368 132.705C232.568 133.065 232.843 133.35 233.193 133.56C233.543 133.77 233.943 133.875 234.393 133.875ZM236.538 135V133.08L236.793 131.34L236.538 129.615V127.875H237.903V135H236.538ZM244.909 135V130.845C244.909 130.305 244.739 129.86 244.399 129.51C244.059 129.16 243.619 128.985 243.079 128.985C242.719 128.985 242.399 129.065 242.119 129.225C241.839 129.385 241.619 129.605 241.459 129.885C241.299 130.165 241.219 130.485 241.219 130.845L240.664 130.53C240.664 129.99 240.784 129.51 241.024 129.09C241.264 128.67 241.599 128.34 242.029 128.1C242.459 127.85 242.944 127.725 243.484 127.725C244.024 127.725 244.499 127.86 244.909 128.13C245.329 128.4 245.659 128.755 245.899 129.195C246.139 129.625 246.259 130.085 246.259 130.575V135H244.909ZM239.869 135V127.875H241.219V135H239.869ZM251.102 135.15C250.442 135.15 249.852 134.99 249.332 134.67C248.812 134.34 248.397 133.895 248.087 133.335C247.787 132.775 247.637 132.145 247.637 131.445C247.637 130.745 247.787 130.115 248.087 129.555C248.397 128.995 248.812 128.55 249.332 128.22C249.852 127.89 250.442 127.725 251.102 127.725C251.632 127.725 252.112 127.84 252.542 128.07C252.972 128.29 253.317 128.6 253.577 129C253.847 129.39 253.997 129.845 254.027 130.365V132.51C253.997 133.02 253.852 133.475 253.592 133.875C253.332 134.275 252.987 134.59 252.557 134.82C252.127 135.04 251.642 135.15 251.102 135.15ZM251.327 133.875C251.777 133.875 252.167 133.77 252.497 133.56C252.837 133.35 253.102 133.065 253.292 132.705C253.482 132.335 253.577 131.915 253.577 131.445C253.577 130.955 253.477 130.53 253.277 130.17C253.087 129.81 252.822 129.525 252.482 129.315C252.152 129.105 251.762 129 251.312 129C250.862 129 250.467 129.105 250.127 129.315C249.787 129.525 249.517 129.815 249.317 130.185C249.127 130.545 249.032 130.96 249.032 131.43C249.032 131.91 249.127 132.335 249.317 132.705C249.517 133.065 249.787 133.35 250.127 133.56C250.477 133.77 250.877 133.875 251.327 133.875ZM254.852 135H253.487V133.08L253.742 131.34L253.487 129.615V124.29H254.852V135ZM259.937 135V127.875H261.287V135H259.937ZM261.287 130.935L260.777 130.71C260.777 129.8 260.987 129.075 261.407 128.535C261.827 127.995 262.432 127.725 263.222 127.725C263.582 127.725 263.907 127.79 264.197 127.92C264.487 128.04 264.757 128.245 265.007 128.535L264.122 129.45C263.972 129.29 263.807 129.175 263.627 129.105C263.447 129.035 263.237 129 262.997 129C262.497 129 262.087 129.16 261.767 129.48C261.447 129.8 261.287 130.285 261.287 130.935ZM269.023 135.15C268.313 135.15 267.673 134.99 267.103 134.67C266.533 134.34 266.083 133.895 265.753 133.335C265.423 132.775 265.258 132.14 265.258 131.43C265.258 130.73 265.418 130.1 265.738 129.54C266.068 128.98 266.508 128.54 267.058 128.22C267.618 127.89 268.243 127.725 268.933 127.725C269.593 127.725 270.173 127.875 270.673 128.175C271.183 128.475 271.578 128.89 271.858 129.42C272.148 129.95 272.293 130.55 272.293 131.22C272.293 131.32 272.288 131.43 272.278 131.55C272.268 131.66 272.248 131.79 272.218 131.94H266.203V130.815H271.498L271.003 131.25C271.003 130.77 270.918 130.365 270.748 130.035C270.578 129.695 270.338 129.435 270.028 129.255C269.718 129.065 269.343 128.97 268.903 128.97C268.443 128.97 268.038 129.07 267.688 129.27C267.338 129.47 267.068 129.75 266.878 130.11C266.688 130.47 266.593 130.895 266.593 131.385C266.593 131.885 266.693 132.325 266.893 132.705C267.093 133.075 267.378 133.365 267.748 133.575C268.118 133.775 268.543 133.875 269.023 133.875C269.423 133.875 269.788 133.805 270.118 133.665C270.458 133.525 270.748 133.315 270.988 133.035L271.858 133.92C271.518 134.32 271.098 134.625 270.598 134.835C270.108 135.045 269.583 135.15 269.023 135.15ZM276.03 135.15C275.63 135.15 275.25 135.1 274.89 135C274.54 134.89 274.215 134.74 273.915 134.55C273.615 134.35 273.355 134.115 273.135 133.845L274.005 132.975C274.265 133.295 274.565 133.535 274.905 133.695C275.245 133.845 275.625 133.92 276.045 133.92C276.465 133.92 276.79 133.85 277.02 133.71C277.25 133.56 277.365 133.355 277.365 133.095C277.365 132.835 277.27 132.635 277.08 132.495C276.9 132.345 276.665 132.225 276.375 132.135C276.085 132.035 275.775 131.94 275.445 131.85C275.125 131.75 274.82 131.625 274.53 131.475C274.24 131.325 274 131.12 273.81 130.86C273.63 130.6 273.54 130.255 273.54 129.825C273.54 129.395 273.645 129.025 273.855 128.715C274.065 128.395 274.355 128.15 274.725 127.98C275.105 127.81 275.56 127.725 276.09 127.725C276.65 127.725 277.145 127.825 277.575 128.025C278.015 128.215 278.375 128.505 278.655 128.895L277.785 129.765C277.585 129.505 277.335 129.305 277.035 129.165C276.745 129.025 276.415 128.955 276.045 128.955C275.655 128.955 275.355 129.025 275.145 129.165C274.945 129.295 274.845 129.48 274.845 129.72C274.845 129.96 274.935 130.145 275.115 130.275C275.295 130.405 275.53 130.515 275.82 130.605C276.12 130.695 276.43 130.79 276.75 130.89C277.07 130.98 277.375 131.105 277.665 131.265C277.955 131.425 278.19 131.64 278.37 131.91C278.56 132.18 278.655 132.535 278.655 132.975C278.655 133.645 278.415 134.175 277.935 134.565C277.465 134.955 276.83 135.15 276.03 135.15ZM283.917 135.15C283.377 135.15 282.887 135.04 282.447 134.82C282.017 134.59 281.672 134.275 281.412 133.875C281.152 133.475 281.007 133.02 280.977 132.51V130.365C281.007 129.845 281.152 129.39 281.412 129C281.682 128.6 282.032 128.29 282.462 128.07C282.902 127.84 283.387 127.725 283.917 127.725C284.567 127.725 285.152 127.89 285.672 128.22C286.202 128.55 286.617 128.995 286.917 129.555C287.217 130.115 287.367 130.745 287.367 131.445C287.367 132.145 287.217 132.775 286.917 133.335C286.617 133.895 286.202 134.34 285.672 134.67C285.152 134.99 284.567 135.15 283.917 135.15ZM280.167 137.985V127.875H281.517V129.75L281.262 131.475L281.517 133.215V137.985H280.167ZM283.692 133.875C284.142 133.875 284.537 133.77 284.877 133.56C285.217 133.35 285.487 133.065 285.687 132.705C285.887 132.335 285.987 131.91 285.987 131.43C285.987 130.96 285.887 130.54 285.687 130.17C285.487 129.8 285.217 129.515 284.877 129.315C284.537 129.105 284.147 129 283.707 129C283.257 129 282.862 129.105 282.522 129.315C282.182 129.515 281.917 129.8 281.727 130.17C281.537 130.54 281.442 130.965 281.442 131.445C281.442 131.915 281.532 132.335 281.712 132.705C281.902 133.065 282.167 133.35 282.507 133.56C282.857 133.77 283.252 133.875 283.692 133.875ZM292.197 135.15C291.487 135.15 290.847 134.99 290.277 134.67C289.707 134.34 289.257 133.895 288.927 133.335C288.597 132.775 288.432 132.14 288.432 131.43C288.432 130.73 288.592 130.1 288.912 129.54C289.242 128.98 289.682 128.54 290.232 128.22C290.792 127.89 291.417 127.725 292.107 127.725C292.767 127.725 293.347 127.875 293.847 128.175C294.357 128.475 294.752 128.89 295.032 129.42C295.322 129.95 295.467 130.55 295.467 131.22C295.467 131.32 295.462 131.43 295.452 131.55C295.442 131.66 295.422 131.79 295.392 131.94H289.377V130.815H294.672L294.177 131.25C294.177 130.77 294.092 130.365 293.922 130.035C293.752 129.695 293.512 129.435 293.202 129.255C292.892 129.065 292.517 128.97 292.077 128.97C291.617 128.97 291.212 129.07 290.862 129.27C290.512 129.47 290.242 129.75 290.052 130.11C289.862 130.47 289.767 130.895 289.767 131.385C289.767 131.885 289.867 132.325 290.067 132.705C290.267 133.075 290.552 133.365 290.922 133.575C291.292 133.775 291.717 133.875 292.197 133.875C292.597 133.875 292.962 133.805 293.292 133.665C293.632 133.525 293.922 133.315 294.162 133.035L295.032 133.92C294.692 134.32 294.272 134.625 293.772 134.835C293.282 135.045 292.757 135.15 292.197 135.15ZM300.194 135.15C299.494 135.15 298.859 134.985 298.289 134.655C297.729 134.325 297.284 133.88 296.954 133.32C296.634 132.75 296.474 132.12 296.474 131.43C296.474 130.73 296.634 130.1 296.954 129.54C297.284 128.98 297.729 128.54 298.289 128.22C298.859 127.89 299.494 127.725 300.194 127.725C300.744 127.725 301.254 127.83 301.724 128.04C302.194 128.24 302.599 128.535 302.939 128.925L302.039 129.825C301.819 129.565 301.549 129.37 301.229 129.24C300.919 129.1 300.574 129.03 300.194 129.03C299.744 129.03 299.344 129.135 298.994 129.345C298.644 129.545 298.369 129.825 298.169 130.185C297.969 130.545 297.869 130.96 297.869 131.43C297.869 131.9 297.969 132.315 298.169 132.675C298.369 133.035 298.644 133.32 298.994 133.53C299.344 133.74 299.744 133.845 300.194 133.845C300.574 133.845 300.919 133.78 301.229 133.65C301.549 133.51 301.824 133.31 302.054 133.05L302.939 133.95C302.609 134.33 302.204 134.625 301.724 134.835C301.254 135.045 300.744 135.15 300.194 135.15ZM305.285 135V124.89H306.635V135H305.285ZM303.53 129.105V127.875H308.39V129.105H303.53ZM136.255 159.15C135.855 159.15 135.475 159.1 135.115 159C134.765 158.89 134.44 158.74 134.14 158.55C133.84 158.35 133.58 158.115 133.36 157.845L134.23 156.975C134.49 157.295 134.79 157.535 135.13 157.695C135.47 157.845 135.85 157.92 136.27 157.92C136.69 157.92 137.015 157.85 137.245 157.71C137.475 157.56 137.59 157.355 137.59 157.095C137.59 156.835 137.495 156.635 137.305 156.495C137.125 156.345 136.89 156.225 136.6 156.135C136.31 156.035 136 155.94 135.67 155.85C135.35 155.75 135.045 155.625 134.755 155.475C134.465 155.325 134.225 155.12 134.035 154.86C133.855 154.6 133.765 154.255 133.765 153.825C133.765 153.395 133.87 153.025 134.08 152.715C134.29 152.395 134.58 152.15 134.95 151.98C135.33 151.81 135.785 151.725 136.315 151.725C136.875 151.725 137.37 151.825 137.8 152.025C138.24 152.215 138.6 152.505 138.88 152.895L138.01 153.765C137.81 153.505 137.56 153.305 137.26 153.165C136.97 153.025 136.64 152.955 136.27 152.955C135.88 152.955 135.58 153.025 135.37 153.165C135.17 153.295 135.07 153.48 135.07 153.72C135.07 153.96 135.16 154.145 135.34 154.275C135.52 154.405 135.755 154.515 136.045 154.605C136.345 154.695 136.655 154.79 136.975 154.89C137.295 154.98 137.6 155.105 137.89 155.265C138.18 155.425 138.415 155.64 138.595 155.91C138.785 156.18 138.88 156.535 138.88 156.975C138.88 157.645 138.64 158.175 138.16 158.565C137.69 158.955 137.055 159.15 136.255 159.15ZM143.646 159.15C142.946 159.15 142.316 158.985 141.756 158.655C141.196 158.325 140.751 157.88 140.421 157.32C140.091 156.75 139.926 156.115 139.926 155.415C139.926 154.725 140.091 154.105 140.421 153.555C140.751 152.995 141.196 152.55 141.756 152.22C142.316 151.89 142.946 151.725 143.646 151.725C144.336 151.725 144.961 151.89 145.521 152.22C146.091 152.54 146.541 152.98 146.871 153.54C147.201 154.1 147.366 154.725 147.366 155.415C147.366 156.115 147.201 156.75 146.871 157.32C146.541 157.88 146.091 158.325 145.521 158.655C144.961 158.985 144.336 159.15 143.646 159.15ZM143.646 157.845C144.096 157.845 144.496 157.74 144.846 157.53C145.196 157.32 145.471 157.035 145.671 156.675C145.871 156.305 145.971 155.885 145.971 155.415C145.971 154.955 145.866 154.545 145.656 154.185C145.456 153.825 145.181 153.545 144.831 153.345C144.491 153.135 144.096 153.03 143.646 153.03C143.196 153.03 142.796 153.135 142.446 153.345C142.096 153.545 141.821 153.825 141.621 154.185C141.421 154.545 141.321 154.955 141.321 155.415C141.321 155.885 141.421 156.305 141.621 156.675C141.821 157.035 142.096 157.32 142.446 157.53C142.796 157.74 143.196 157.845 143.646 157.845ZM151.752 159.15C151.172 159.15 150.647 159.02 150.177 158.76C149.717 158.49 149.357 158.12 149.097 157.65C148.837 157.18 148.707 156.635 148.707 156.015V151.875H150.057V155.955C150.057 156.345 150.122 156.685 150.252 156.975C150.392 157.255 150.592 157.47 150.852 157.62C151.112 157.77 151.417 157.845 151.767 157.845C152.297 157.845 152.712 157.68 153.012 157.35C153.312 157.01 153.462 156.545 153.462 155.955V151.875H154.812V156.015C154.812 156.635 154.682 157.18 154.422 157.65C154.162 158.12 153.802 158.49 153.342 158.76C152.892 159.02 152.362 159.15 151.752 159.15ZM156.622 159V151.875H157.972V159H156.622ZM157.972 154.935L157.462 154.71C157.462 153.8 157.672 153.075 158.092 152.535C158.512 151.995 159.117 151.725 159.907 151.725C160.267 151.725 160.592 151.79 160.882 151.92C161.172 152.04 161.442 152.245 161.692 152.535L160.807 153.45C160.657 153.29 160.492 153.175 160.312 153.105C160.132 153.035 159.922 153 159.682 153C159.182 153 158.772 153.16 158.452 153.48C158.132 153.8 157.972 154.285 157.972 154.935ZM165.663 159.15C164.963 159.15 164.328 158.985 163.758 158.655C163.198 158.325 162.753 157.88 162.423 157.32C162.103 156.75 161.943 156.12 161.943 155.43C161.943 154.73 162.103 154.1 162.423 153.54C162.753 152.98 163.198 152.54 163.758 152.22C164.328 151.89 164.963 151.725 165.663 151.725C166.213 151.725 166.723 151.83 167.193 152.04C167.663 152.24 168.068 152.535 168.408 152.925L167.508 153.825C167.288 153.565 167.018 153.37 166.698 153.24C166.388 153.1 166.043 153.03 165.663 153.03C165.213 153.03 164.813 153.135 164.463 153.345C164.113 153.545 163.838 153.825 163.638 154.185C163.438 154.545 163.338 154.96 163.338 155.43C163.338 155.9 163.438 156.315 163.638 156.675C163.838 157.035 164.113 157.32 164.463 157.53C164.813 157.74 165.213 157.845 165.663 157.845C166.043 157.845 166.388 157.78 166.698 157.65C167.018 157.51 167.293 157.31 167.523 157.05L168.408 157.95C168.078 158.33 167.673 158.625 167.193 158.835C166.723 159.045 166.213 159.15 165.663 159.15ZM172.9 159.15C172.19 159.15 171.55 158.99 170.98 158.67C170.41 158.34 169.96 157.895 169.63 157.335C169.3 156.775 169.135 156.14 169.135 155.43C169.135 154.73 169.295 154.1 169.615 153.54C169.945 152.98 170.385 152.54 170.935 152.22C171.495 151.89 172.12 151.725 172.81 151.725C173.47 151.725 174.05 151.875 174.55 152.175C175.06 152.475 175.455 152.89 175.735 153.42C176.025 153.95 176.17 154.55 176.17 155.22C176.17 155.32 176.165 155.43 176.155 155.55C176.145 155.66 176.125 155.79 176.095 155.94H170.08V154.815H175.375L174.88 155.25C174.88 154.77 174.795 154.365 174.625 154.035C174.455 153.695 174.215 153.435 173.905 153.255C173.595 153.065 173.22 152.97 172.78 152.97C172.32 152.97 171.915 153.07 171.565 153.27C171.215 153.47 170.945 153.75 170.755 154.11C170.565 154.47 170.47 154.895 170.47 155.385C170.47 155.885 170.57 156.325 170.77 156.705C170.97 157.075 171.255 157.365 171.625 157.575C171.995 157.775 172.42 157.875 172.9 157.875C173.3 157.875 173.665 157.805 173.995 157.665C174.335 157.525 174.625 157.315 174.865 157.035L175.735 157.92C175.395 158.32 174.975 158.625 174.475 158.835C173.985 159.045 173.46 159.15 172.9 159.15ZM184.512 159.15C183.972 159.15 183.482 159.04 183.042 158.82C182.612 158.59 182.267 158.275 182.007 157.875C181.747 157.475 181.602 157.02 181.572 156.51V154.365C181.602 153.845 181.747 153.39 182.007 153C182.277 152.6 182.627 152.29 183.057 152.07C183.497 151.84 183.982 151.725 184.512 151.725C185.162 151.725 185.747 151.89 186.267 152.22C186.797 152.55 187.212 152.995 187.512 153.555C187.812 154.115 187.962 154.745 187.962 155.445C187.962 156.145 187.812 156.775 187.512 157.335C187.212 157.895 186.797 158.34 186.267 158.67C185.747 158.99 185.162 159.15 184.512 159.15ZM180.762 161.985V151.875H182.112V153.75L181.857 155.475L182.112 157.215V161.985H180.762ZM184.287 157.875C184.737 157.875 185.132 157.77 185.472 157.56C185.812 157.35 186.082 157.065 186.282 156.705C186.482 156.335 186.582 155.91 186.582 155.43C186.582 154.96 186.482 154.54 186.282 154.17C186.082 153.8 185.812 153.515 185.472 153.315C185.132 153.105 184.742 153 184.302 153C183.852 153 183.457 153.105 183.117 153.315C182.777 153.515 182.512 153.8 182.322 154.17C182.132 154.54 182.037 154.965 182.037 155.445C182.037 155.915 182.127 156.335 182.307 156.705C182.497 157.065 182.762 157.35 183.102 157.56C183.452 157.77 183.847 157.875 184.287 157.875ZM192.793 159.15C192.083 159.15 191.443 158.99 190.873 158.67C190.303 158.34 189.853 157.895 189.523 157.335C189.193 156.775 189.028 156.14 189.028 155.43C189.028 154.73 189.188 154.1 189.508 153.54C189.838 152.98 190.278 152.54 190.828 152.22C191.388 151.89 192.013 151.725 192.703 151.725C193.363 151.725 193.943 151.875 194.443 152.175C194.953 152.475 195.348 152.89 195.628 153.42C195.918 153.95 196.063 154.55 196.063 155.22C196.063 155.32 196.058 155.43 196.048 155.55C196.038 155.66 196.018 155.79 195.988 155.94H189.973V154.815H195.268L194.773 155.25C194.773 154.77 194.688 154.365 194.518 154.035C194.348 153.695 194.108 153.435 193.798 153.255C193.488 153.065 193.113 152.97 192.673 152.97C192.213 152.97 191.808 153.07 191.458 153.27C191.108 153.47 190.838 153.75 190.648 154.11C190.458 154.47 190.363 154.895 190.363 155.385C190.363 155.885 190.463 156.325 190.663 156.705C190.863 157.075 191.148 157.365 191.518 157.575C191.888 157.775 192.313 157.875 192.793 157.875C193.193 157.875 193.558 157.805 193.888 157.665C194.228 157.525 194.518 157.315 194.758 157.035L195.628 157.92C195.288 158.32 194.868 158.625 194.368 158.835C193.878 159.045 193.353 159.15 192.793 159.15ZM197.535 159V151.875H198.885V159H197.535ZM198.885 154.935L198.375 154.71C198.375 153.8 198.585 153.075 199.005 152.535C199.425 151.995 200.03 151.725 200.82 151.725C201.18 151.725 201.505 151.79 201.795 151.92C202.085 152.04 202.355 152.245 202.605 152.535L201.72 153.45C201.57 153.29 201.405 153.175 201.225 153.105C201.045 153.035 200.835 153 200.595 153C200.095 153 199.685 153.16 199.365 153.48C199.045 153.8 198.885 154.285 198.885 154.935ZM203.585 159V151.875H204.935V159H203.585ZM208.4 159V154.695C208.4 154.165 208.235 153.75 207.905 153.45C207.585 153.14 207.18 152.985 206.69 152.985C206.36 152.985 206.065 153.055 205.805 153.195C205.545 153.335 205.335 153.53 205.175 153.78C205.015 154.03 204.935 154.33 204.935 154.68L204.38 154.41C204.38 153.87 204.495 153.4 204.725 153C204.965 152.6 205.29 152.29 205.7 152.07C206.11 151.84 206.57 151.725 207.08 151.725C207.58 151.725 208.03 151.835 208.43 152.055C208.84 152.275 209.16 152.585 209.39 152.985C209.63 153.385 209.75 153.86 209.75 154.41V159H208.4ZM213.215 159V154.695C213.215 154.165 213.05 153.75 212.72 153.45C212.4 153.14 212 152.985 211.52 152.985C211.19 152.985 210.89 153.055 210.62 153.195C210.36 153.335 210.15 153.53 209.99 153.78C209.83 154.03 209.75 154.33 209.75 154.68L208.985 154.41C209.015 153.86 209.16 153.39 209.42 153C209.69 152.6 210.035 152.29 210.455 152.07C210.875 151.84 211.335 151.725 211.835 151.725C212.355 151.725 212.82 151.835 213.23 152.055C213.64 152.275 213.965 152.585 214.205 152.985C214.455 153.385 214.58 153.865 214.58 154.425V159H213.215ZM216.432 159V151.875H217.782V159H216.432ZM217.107 150.45C216.857 150.45 216.652 150.37 216.492 150.21C216.332 150.04 216.252 149.83 216.252 149.58C216.252 149.34 216.332 149.14 216.492 148.98C216.652 148.81 216.857 148.725 217.107 148.725C217.357 148.725 217.562 148.81 217.722 148.98C217.882 149.14 217.962 149.34 217.962 149.58C217.962 149.83 217.882 150.04 217.722 150.21C217.562 150.37 217.357 150.45 217.107 150.45ZM222.036 159.15C221.636 159.15 221.256 159.1 220.896 159C220.546 158.89 220.221 158.74 219.921 158.55C219.621 158.35 219.361 158.115 219.141 157.845L220.011 156.975C220.271 157.295 220.571 157.535 220.911 157.695C221.251 157.845 221.631 157.92 222.051 157.92C222.471 157.92 222.796 157.85 223.026 157.71C223.256 157.56 223.371 157.355 223.371 157.095C223.371 156.835 223.276 156.635 223.086 156.495C222.906 156.345 222.671 156.225 222.381 156.135C222.091 156.035 221.781 155.94 221.451 155.85C221.131 155.75 220.826 155.625 220.536 155.475C220.246 155.325 220.006 155.12 219.816 154.86C219.636 154.6 219.546 154.255 219.546 153.825C219.546 153.395 219.651 153.025 219.861 152.715C220.071 152.395 220.361 152.15 220.731 151.98C221.111 151.81 221.566 151.725 222.096 151.725C222.656 151.725 223.151 151.825 223.581 152.025C224.021 152.215 224.381 152.505 224.661 152.895L223.791 153.765C223.591 153.505 223.341 153.305 223.041 153.165C222.751 153.025 222.421 152.955 222.051 152.955C221.661 152.955 221.361 153.025 221.151 153.165C220.951 153.295 220.851 153.48 220.851 153.72C220.851 153.96 220.941 154.145 221.121 154.275C221.301 154.405 221.536 154.515 221.826 154.605C222.126 154.695 222.436 154.79 222.756 154.89C223.076 154.98 223.381 155.105 223.671 155.265C223.961 155.425 224.196 155.64 224.376 155.91C224.566 156.18 224.661 156.535 224.661 156.975C224.661 157.645 224.421 158.175 223.941 158.565C223.471 158.955 222.836 159.15 222.036 159.15ZM228.438 159.15C228.038 159.15 227.658 159.1 227.298 159C226.948 158.89 226.623 158.74 226.323 158.55C226.023 158.35 225.763 158.115 225.543 157.845L226.413 156.975C226.673 157.295 226.973 157.535 227.313 157.695C227.653 157.845 228.033 157.92 228.453 157.92C228.873 157.92 229.198 157.85 229.428 157.71C229.658 157.56 229.773 157.355 229.773 157.095C229.773 156.835 229.678 156.635 229.488 156.495C229.308 156.345 229.073 156.225 228.783 156.135C228.493 156.035 228.183 155.94 227.853 155.85C227.533 155.75 227.228 155.625 226.938 155.475C226.648 155.325 226.408 155.12 226.218 154.86C226.038 154.6 225.948 154.255 225.948 153.825C225.948 153.395 226.053 153.025 226.263 152.715C226.473 152.395 226.763 152.15 227.133 151.98C227.513 151.81 227.968 151.725 228.498 151.725C229.058 151.725 229.553 151.825 229.983 152.025C230.423 152.215 230.783 152.505 231.063 152.895L230.193 153.765C229.993 153.505 229.743 153.305 229.443 153.165C229.153 153.025 228.823 152.955 228.453 152.955C228.063 152.955 227.763 153.025 227.553 153.165C227.353 153.295 227.253 153.48 227.253 153.72C227.253 153.96 227.343 154.145 227.523 154.275C227.703 154.405 227.938 154.515 228.228 154.605C228.528 154.695 228.838 154.79 229.158 154.89C229.478 154.98 229.783 155.105 230.073 155.265C230.363 155.425 230.598 155.64 230.778 155.91C230.968 156.18 231.063 156.535 231.063 156.975C231.063 157.645 230.823 158.175 230.343 158.565C229.873 158.955 229.238 159.15 228.438 159.15ZM232.589 159V151.875H233.939V159H232.589ZM233.264 150.45C233.014 150.45 232.809 150.37 232.649 150.21C232.489 150.04 232.409 149.83 232.409 149.58C232.409 149.34 232.489 149.14 232.649 148.98C232.809 148.81 233.014 148.725 233.264 148.725C233.514 148.725 233.719 148.81 233.879 148.98C234.039 149.14 234.119 149.34 234.119 149.58C234.119 149.83 234.039 150.04 233.879 150.21C233.719 150.37 233.514 150.45 233.264 150.45ZM239.183 159.15C238.483 159.15 237.853 158.985 237.293 158.655C236.733 158.325 236.288 157.88 235.958 157.32C235.628 156.75 235.463 156.115 235.463 155.415C235.463 154.725 235.628 154.105 235.958 153.555C236.288 152.995 236.733 152.55 237.293 152.22C237.853 151.89 238.483 151.725 239.183 151.725C239.873 151.725 240.498 151.89 241.058 152.22C241.628 152.54 242.078 152.98 242.408 153.54C242.738 154.1 242.903 154.725 242.903 155.415C242.903 156.115 242.738 156.75 242.408 157.32C242.078 157.88 241.628 158.325 241.058 158.655C240.498 158.985 239.873 159.15 239.183 159.15ZM239.183 157.845C239.633 157.845 240.033 157.74 240.383 157.53C240.733 157.32 241.008 157.035 241.208 156.675C241.408 156.305 241.508 155.885 241.508 155.415C241.508 154.955 241.403 154.545 241.193 154.185C240.993 153.825 240.718 153.545 240.368 153.345C240.028 153.135 239.633 153.03 239.183 153.03C238.733 153.03 238.333 153.135 237.983 153.345C237.633 153.545 237.358 153.825 237.158 154.185C236.958 154.545 236.858 154.955 236.858 155.415C236.858 155.885 236.958 156.305 237.158 156.675C237.358 157.035 237.633 157.32 237.983 157.53C238.333 157.74 238.733 157.845 239.183 157.845ZM249.465 159V154.845C249.465 154.305 249.295 153.86 248.955 153.51C248.615 153.16 248.175 152.985 247.635 152.985C247.275 152.985 246.955 153.065 246.675 153.225C246.395 153.385 246.175 153.605 246.015 153.885C245.855 154.165 245.775 154.485 245.775 154.845L245.22 154.53C245.22 153.99 245.34 153.51 245.58 153.09C245.82 152.67 246.155 152.34 246.585 152.1C247.015 151.85 247.5 151.725 248.04 151.725C248.58 151.725 249.055 151.86 249.465 152.13C249.885 152.4 250.215 152.755 250.455 153.195C250.695 153.625 250.815 154.085 250.815 154.575V159H249.465ZM244.425 159V151.875H245.775V159H244.425ZM254.907 159.15C254.507 159.15 254.127 159.1 253.767 159C253.417 158.89 253.092 158.74 252.792 158.55C252.492 158.35 252.232 158.115 252.012 157.845L252.882 156.975C253.142 157.295 253.442 157.535 253.782 157.695C254.122 157.845 254.502 157.92 254.922 157.92C255.342 157.92 255.667 157.85 255.897 157.71C256.127 157.56 256.242 157.355 256.242 157.095C256.242 156.835 256.147 156.635 255.957 156.495C255.777 156.345 255.542 156.225 255.252 156.135C254.962 156.035 254.652 155.94 254.322 155.85C254.002 155.75 253.697 155.625 253.407 155.475C253.117 155.325 252.877 155.12 252.687 154.86C252.507 154.6 252.417 154.255 252.417 153.825C252.417 153.395 252.522 153.025 252.732 152.715C252.942 152.395 253.232 152.15 253.602 151.98C253.982 151.81 254.437 151.725 254.967 151.725C255.527 151.725 256.022 151.825 256.452 152.025C256.892 152.215 257.252 152.505 257.532 152.895L256.662 153.765C256.462 153.505 256.212 153.305 255.912 153.165C255.622 153.025 255.292 152.955 254.922 152.955C254.532 152.955 254.232 153.025 254.022 153.165C253.822 153.295 253.722 153.48 253.722 153.72C253.722 153.96 253.812 154.145 253.992 154.275C254.172 154.405 254.407 154.515 254.697 154.605C254.997 154.695 255.307 154.79 255.627 154.89C255.947 154.98 256.252 155.105 256.542 155.265C256.832 155.425 257.067 155.64 257.247 155.91C257.437 156.18 257.532 156.535 257.532 156.975C257.532 157.645 257.292 158.175 256.812 158.565C256.342 158.955 255.707 159.15 254.907 159.15ZM259.119 160.65L260.049 158.865L260.529 158.745C260.479 158.855 260.414 158.945 260.334 159.015C260.264 159.085 260.174 159.12 260.064 159.12C259.854 159.12 259.659 159.035 259.479 158.865C259.309 158.685 259.224 158.465 259.224 158.205C259.224 157.915 259.319 157.675 259.509 157.485C259.699 157.285 259.939 157.185 260.229 157.185C260.489 157.185 260.719 157.285 260.919 157.485C261.119 157.675 261.219 157.915 261.219 158.205C261.219 158.315 261.194 158.45 261.144 158.61C261.104 158.76 261.019 158.955 260.889 159.195L259.899 161.07L259.119 160.65ZM270.045 159.15C269.505 159.15 269.015 159.04 268.575 158.82C268.145 158.59 267.8 158.275 267.54 157.875C267.28 157.475 267.135 157.02 267.105 156.51V154.365C267.135 153.845 267.28 153.39 267.54 153C267.81 152.6 268.16 152.29 268.59 152.07C269.03 151.84 269.515 151.725 270.045 151.725C270.695 151.725 271.28 151.89 271.8 152.22C272.33 152.55 272.745 152.995 273.045 153.555C273.345 154.115 273.495 154.745 273.495 155.445C273.495 156.145 273.345 156.775 273.045 157.335C272.745 157.895 272.33 158.34 271.8 158.67C271.28 158.99 270.695 159.15 270.045 159.15ZM266.295 161.985V151.875H267.645V153.75L267.39 155.475L267.645 157.215V161.985H266.295ZM269.82 157.875C270.27 157.875 270.665 157.77 271.005 157.56C271.345 157.35 271.615 157.065 271.815 156.705C272.015 156.335 272.115 155.91 272.115 155.43C272.115 154.96 272.015 154.54 271.815 154.17C271.615 153.8 271.345 153.515 271.005 153.315C270.665 153.105 270.275 153 269.835 153C269.385 153 268.99 153.105 268.65 153.315C268.31 153.515 268.045 153.8 267.855 154.17C267.665 154.54 267.57 154.965 267.57 155.445C267.57 155.915 267.66 156.335 267.84 156.705C268.03 157.065 268.295 157.35 268.635 157.56C268.985 157.77 269.38 157.875 269.82 157.875ZM277.89 159.15C277.31 159.15 276.785 159.02 276.315 158.76C275.855 158.49 275.495 158.12 275.235 157.65C274.975 157.18 274.845 156.635 274.845 156.015V151.875H276.195V155.955C276.195 156.345 276.26 156.685 276.39 156.975C276.53 157.255 276.73 157.47 276.99 157.62C277.25 157.77 277.555 157.845 277.905 157.845C278.435 157.845 278.85 157.68 279.15 157.35C279.45 157.01 279.6 156.545 279.6 155.955V151.875H280.95V156.015C280.95 156.635 280.82 157.18 280.56 157.65C280.3 158.12 279.94 158.49 279.48 158.76C279.03 159.02 278.5 159.15 277.89 159.15ZM283.855 159V148.89H285.205V159H283.855ZM282.1 153.105V151.875H291.205V153.105H282.1ZM288.1 159V148.89H289.45V159H288.1ZM292.545 159V151.875H293.895V159H292.545ZM293.22 150.45C292.97 150.45 292.765 150.37 292.605 150.21C292.445 150.04 292.365 149.83 292.365 149.58C292.365 149.34 292.445 149.14 292.605 148.98C292.765 148.81 292.97 148.725 293.22 148.725C293.47 148.725 293.675 148.81 293.835 148.98C293.995 149.14 294.075 149.34 294.075 149.58C294.075 149.83 293.995 150.04 293.835 150.21C293.675 150.37 293.47 150.45 293.22 150.45ZM300.925 159V154.845C300.925 154.305 300.755 153.86 300.415 153.51C300.075 153.16 299.635 152.985 299.095 152.985C298.735 152.985 298.415 153.065 298.135 153.225C297.855 153.385 297.635 153.605 297.475 153.885C297.315 154.165 297.235 154.485 297.235 154.845L296.68 154.53C296.68 153.99 296.8 153.51 297.04 153.09C297.28 152.67 297.615 152.34 298.045 152.1C298.475 151.85 298.96 151.725 299.5 151.725C300.04 151.725 300.515 151.86 300.925 152.13C301.345 152.4 301.675 152.755 301.915 153.195C302.155 153.625 302.275 154.085 302.275 154.575V159H300.925ZM295.885 159V151.875H297.235V159H295.885ZM307.057 162.135C306.327 162.135 305.677 162 305.107 161.73C304.547 161.46 304.097 161.08 303.757 160.59L304.627 159.705C304.917 160.075 305.262 160.355 305.662 160.545C306.062 160.745 306.537 160.845 307.087 160.845C307.817 160.845 308.392 160.65 308.812 160.26C309.242 159.88 309.457 159.365 309.457 158.715V156.945L309.697 155.34L309.457 153.75V151.875H310.807V158.715C310.807 159.395 310.647 159.99 310.327 160.5C310.017 161.01 309.577 161.41 309.007 161.7C308.447 161.99 307.797 162.135 307.057 162.135ZM307.057 158.88C306.407 158.88 305.822 158.725 305.302 158.415C304.792 158.105 304.387 157.68 304.087 157.14C303.787 156.59 303.637 155.975 303.637 155.295C303.637 154.615 303.787 154.01 304.087 153.48C304.387 152.94 304.792 152.515 305.302 152.205C305.822 151.885 306.407 151.725 307.057 151.725C307.617 151.725 308.112 151.835 308.542 152.055C308.972 152.275 309.312 152.585 309.562 152.985C309.822 153.375 309.962 153.835 309.982 154.365V156.255C309.952 156.775 309.807 157.235 309.547 157.635C309.297 158.025 308.957 158.33 308.527 158.55C308.097 158.77 307.607 158.88 307.057 158.88ZM307.327 157.605C307.767 157.605 308.152 157.51 308.482 157.32C308.822 157.13 309.082 156.865 309.262 156.525C309.442 156.175 309.532 155.77 309.532 155.31C309.532 154.85 309.437 154.45 309.247 154.11C309.067 153.76 308.812 153.49 308.482 153.3C308.152 153.1 307.762 153 307.312 153C306.862 153 306.467 153.1 306.127 153.3C305.787 153.49 305.517 153.76 305.317 154.11C305.127 154.45 305.032 154.845 305.032 155.295C305.032 155.745 305.127 156.145 305.317 156.495C305.517 156.845 305.787 157.12 306.127 157.32C306.477 157.51 306.877 157.605 307.327 157.605ZM136.255 183.15C135.855 183.15 135.475 183.1 135.115 183C134.765 182.89 134.44 182.74 134.14 182.55C133.84 182.35 133.58 182.115 133.36 181.845L134.23 180.975C134.49 181.295 134.79 181.535 135.13 181.695C135.47 181.845 135.85 181.92 136.27 181.92C136.69 181.92 137.015 181.85 137.245 181.71C137.475 181.56 137.59 181.355 137.59 181.095C137.59 180.835 137.495 180.635 137.305 180.495C137.125 180.345 136.89 180.225 136.6 180.135C136.31 180.035 136 179.94 135.67 179.85C135.35 179.75 135.045 179.625 134.755 179.475C134.465 179.325 134.225 179.12 134.035 178.86C133.855 178.6 133.765 178.255 133.765 177.825C133.765 177.395 133.87 177.025 134.08 176.715C134.29 176.395 134.58 176.15 134.95 175.98C135.33 175.81 135.785 175.725 136.315 175.725C136.875 175.725 137.37 175.825 137.8 176.025C138.24 176.215 138.6 176.505 138.88 176.895L138.01 177.765C137.81 177.505 137.56 177.305 137.26 177.165C136.97 177.025 136.64 176.955 136.27 176.955C135.88 176.955 135.58 177.025 135.37 177.165C135.17 177.295 135.07 177.48 135.07 177.72C135.07 177.96 135.16 178.145 135.34 178.275C135.52 178.405 135.755 178.515 136.045 178.605C136.345 178.695 136.655 178.79 136.975 178.89C137.295 178.98 137.6 179.105 137.89 179.265C138.18 179.425 138.415 179.64 138.595 179.91C138.785 180.18 138.88 180.535 138.88 180.975C138.88 181.645 138.64 182.175 138.16 182.565C137.69 182.955 137.055 183.15 136.255 183.15ZM143.421 183.15C142.771 183.15 142.181 182.99 141.651 182.67C141.121 182.34 140.701 181.895 140.391 181.335C140.091 180.775 139.941 180.145 139.941 179.445C139.941 178.745 140.091 178.115 140.391 177.555C140.701 176.995 141.116 176.55 141.636 176.22C142.166 175.89 142.761 175.725 143.421 175.725C143.961 175.725 144.441 175.84 144.861 176.07C145.291 176.29 145.636 176.6 145.896 177C146.156 177.39 146.301 177.845 146.331 178.365V180.51C146.301 181.02 146.156 181.475 145.896 181.875C145.646 182.275 145.306 182.59 144.876 182.82C144.456 183.04 143.971 183.15 143.421 183.15ZM143.646 181.875C144.316 181.875 144.856 181.65 145.266 181.2C145.676 180.74 145.881 180.155 145.881 179.445C145.881 178.955 145.786 178.53 145.596 178.17C145.416 177.8 145.156 177.515 144.816 177.315C144.476 177.105 144.081 177 143.631 177C143.181 177 142.781 177.105 142.431 177.315C142.091 177.525 141.821 177.815 141.621 178.185C141.431 178.545 141.336 178.96 141.336 179.43C141.336 179.91 141.431 180.335 141.621 180.705C141.821 181.065 142.096 181.35 142.446 181.56C142.796 181.77 143.196 181.875 143.646 181.875ZM145.791 183V181.08L146.046 179.34L145.791 177.615V175.875H147.156V183H145.791ZM150.113 183V174.81C150.113 174.28 150.228 173.82 150.458 173.43C150.688 173.03 151.003 172.715 151.403 172.485C151.813 172.255 152.288 172.14 152.828 172.14C153.238 172.14 153.593 172.21 153.893 172.35C154.193 172.49 154.468 172.695 154.718 172.965L153.833 173.835C153.703 173.695 153.558 173.59 153.398 173.52C153.238 173.44 153.043 173.4 152.813 173.4C152.383 173.4 152.048 173.525 151.808 173.775C151.578 174.025 151.463 174.37 151.463 174.81V183H150.113ZM148.358 177.105V175.875H153.728V177.105H148.358ZM157.974 183.15C157.264 183.15 156.624 182.99 156.054 182.67C155.484 182.34 155.034 181.895 154.704 181.335C154.374 180.775 154.209 180.14 154.209 179.43C154.209 178.73 154.369 178.1 154.689 177.54C155.019 176.98 155.459 176.54 156.009 176.22C156.569 175.89 157.194 175.725 157.884 175.725C158.544 175.725 159.124 175.875 159.624 176.175C160.134 176.475 160.529 176.89 160.809 177.42C161.099 177.95 161.244 178.55 161.244 179.22C161.244 179.32 161.239 179.43 161.229 179.55C161.219 179.66 161.199 179.79 161.169 179.94H155.154V178.815H160.449L159.954 179.25C159.954 178.77 159.869 178.365 159.699 178.035C159.529 177.695 159.289 177.435 158.979 177.255C158.669 177.065 158.294 176.97 157.854 176.97C157.394 176.97 156.989 177.07 156.639 177.27C156.289 177.47 156.019 177.75 155.829 178.11C155.639 178.47 155.544 178.895 155.544 179.385C155.544 179.885 155.644 180.325 155.844 180.705C156.044 181.075 156.329 181.365 156.699 181.575C157.069 181.775 157.494 181.875 157.974 181.875C158.374 181.875 158.739 181.805 159.069 181.665C159.409 181.525 159.699 181.315 159.939 181.035L160.809 181.92C160.469 182.32 160.049 182.625 159.549 182.835C159.059 183.045 158.534 183.15 157.974 183.15ZM163.591 183V172.89H164.941V183H163.591ZM161.836 177.105V175.875H166.696V177.105H161.836ZM170.358 183.06L167.268 175.875H168.768L171.063 181.5H170.583L172.998 175.875H174.498L171.168 183.06H170.358ZM168.318 185.985L170.418 181.68L171.168 183.06L169.818 185.985H168.318ZM181.874 183.15C181.224 183.15 180.634 182.99 180.104 182.67C179.574 182.34 179.154 181.895 178.844 181.335C178.544 180.775 178.394 180.145 178.394 179.445C178.394 178.745 178.544 178.115 178.844 177.555C179.154 176.995 179.569 176.55 180.089 176.22C180.619 175.89 181.214 175.725 181.874 175.725C182.414 175.725 182.894 175.84 183.314 176.07C183.744 176.29 184.089 176.6 184.349 177C184.609 177.39 184.754 177.845 184.784 178.365V180.51C184.754 181.02 184.609 181.475 184.349 181.875C184.099 182.275 183.759 182.59 183.329 182.82C182.909 183.04 182.424 183.15 181.874 183.15ZM182.099 181.875C182.769 181.875 183.309 181.65 183.719 181.2C184.129 180.74 184.334 180.155 184.334 179.445C184.334 178.955 184.239 178.53 184.049 178.17C183.869 177.8 183.609 177.515 183.269 177.315C182.929 177.105 182.534 177 182.084 177C181.634 177 181.234 177.105 180.884 177.315C180.544 177.525 180.274 177.815 180.074 178.185C179.884 178.545 179.789 178.96 179.789 179.43C179.789 179.91 179.884 180.335 180.074 180.705C180.274 181.065 180.549 181.35 180.899 181.56C181.249 181.77 181.649 181.875 182.099 181.875ZM184.244 183V181.08L184.499 179.34L184.244 177.615V175.875H185.609V183H184.244ZM192.614 183V178.845C192.614 178.305 192.444 177.86 192.104 177.51C191.764 177.16 191.324 176.985 190.784 176.985C190.424 176.985 190.104 177.065 189.824 177.225C189.544 177.385 189.324 177.605 189.164 177.885C189.004 178.165 188.924 178.485 188.924 178.845L188.369 178.53C188.369 177.99 188.489 177.51 188.729 177.09C188.969 176.67 189.304 176.34 189.734 176.1C190.164 175.85 190.649 175.725 191.189 175.725C191.729 175.725 192.204 175.86 192.614 176.13C193.034 176.4 193.364 176.755 193.604 177.195C193.844 177.625 193.964 178.085 193.964 178.575V183H192.614ZM187.574 183V175.875H188.924V183H187.574ZM198.807 183.15C198.147 183.15 197.557 182.99 197.037 182.67C196.517 182.34 196.102 181.895 195.792 181.335C195.492 180.775 195.342 180.145 195.342 179.445C195.342 178.745 195.492 178.115 195.792 177.555C196.102 176.995 196.517 176.55 197.037 176.22C197.557 175.89 198.147 175.725 198.807 175.725C199.337 175.725 199.817 175.84 200.247 176.07C200.677 176.29 201.022 176.6 201.282 177C201.552 177.39 201.702 177.845 201.732 178.365V180.51C201.702 181.02 201.557 181.475 201.297 181.875C201.037 182.275 200.692 182.59 200.262 182.82C199.832 183.04 199.347 183.15 198.807 183.15ZM199.032 181.875C199.482 181.875 199.872 181.77 200.202 181.56C200.542 181.35 200.807 181.065 200.997 180.705C201.187 180.335 201.282 179.915 201.282 179.445C201.282 178.955 201.182 178.53 200.982 178.17C200.792 177.81 200.527 177.525 200.187 177.315C199.857 177.105 199.467 177 199.017 177C198.567 177 198.172 177.105 197.832 177.315C197.492 177.525 197.222 177.815 197.022 178.185C196.832 178.545 196.737 178.96 196.737 179.43C196.737 179.91 196.832 180.335 197.022 180.705C197.222 181.065 197.492 181.35 197.832 181.56C198.182 181.77 198.582 181.875 199.032 181.875ZM202.557 183H201.192V181.08L201.447 179.34L201.192 177.615V172.29H202.557V183ZM211.392 183.15C210.852 183.15 210.362 183.04 209.922 182.82C209.492 182.59 209.147 182.275 208.887 181.875C208.627 181.475 208.482 181.02 208.452 180.51V178.365C208.482 177.845 208.627 177.39 208.887 177C209.157 176.6 209.507 176.29 209.937 176.07C210.377 175.84 210.862 175.725 211.392 175.725C212.042 175.725 212.627 175.89 213.147 176.22C213.677 176.55 214.092 176.995 214.392 177.555C214.692 178.115 214.842 178.745 214.842 179.445C214.842 180.145 214.692 180.775 214.392 181.335C214.092 181.895 213.677 182.34 213.147 182.67C212.627 182.99 212.042 183.15 211.392 183.15ZM207.642 185.985V175.875H208.992V177.75L208.737 179.475L208.992 181.215V185.985H207.642ZM211.167 181.875C211.617 181.875 212.012 181.77 212.352 181.56C212.692 181.35 212.962 181.065 213.162 180.705C213.362 180.335 213.462 179.91 213.462 179.43C213.462 178.96 213.362 178.54 213.162 178.17C212.962 177.8 212.692 177.515 212.352 177.315C212.012 177.105 211.622 177 211.182 177C210.732 177 210.337 177.105 209.997 177.315C209.657 177.515 209.392 177.8 209.202 178.17C209.012 178.54 208.917 178.965 208.917 179.445C208.917 179.915 209.007 180.335 209.187 180.705C209.377 181.065 209.642 181.35 209.982 181.56C210.332 181.77 210.727 181.875 211.167 181.875ZM216.373 183V175.875H217.723V183H216.373ZM217.723 178.935L217.213 178.71C217.213 177.8 217.423 177.075 217.843 176.535C218.263 175.995 218.868 175.725 219.658 175.725C220.018 175.725 220.343 175.79 220.633 175.92C220.923 176.04 221.193 176.245 221.443 176.535L220.558 177.45C220.408 177.29 220.243 177.175 220.063 177.105C219.883 177.035 219.673 177 219.433 177C218.933 177 218.523 177.16 218.203 177.48C217.883 177.8 217.723 178.285 217.723 178.935ZM222.408 183V175.875H223.758V183H222.408ZM223.083 174.45C222.833 174.45 222.628 174.37 222.468 174.21C222.308 174.04 222.228 173.83 222.228 173.58C222.228 173.34 222.308 173.14 222.468 172.98C222.628 172.81 222.833 172.725 223.083 172.725C223.333 172.725 223.538 172.81 223.698 172.98C223.858 173.14 223.938 173.34 223.938 173.58C223.938 173.83 223.858 174.04 223.698 174.21C223.538 174.37 223.333 174.45 223.083 174.45ZM228.193 183L224.923 175.875H226.423L229.048 181.89H228.178L230.818 175.875H232.258L228.988 183H228.193ZM236.161 183.15C235.511 183.15 234.921 182.99 234.391 182.67C233.861 182.34 233.441 181.895 233.131 181.335C232.831 180.775 232.681 180.145 232.681 179.445C232.681 178.745 232.831 178.115 233.131 177.555C233.441 176.995 233.856 176.55 234.376 176.22C234.906 175.89 235.501 175.725 236.161 175.725C236.701 175.725 237.181 175.84 237.601 176.07C238.031 176.29 238.376 176.6 238.636 177C238.896 177.39 239.041 177.845 239.071 178.365V180.51C239.041 181.02 238.896 181.475 238.636 181.875C238.386 182.275 238.046 182.59 237.616 182.82C237.196 183.04 236.711 183.15 236.161 183.15ZM236.386 181.875C237.056 181.875 237.596 181.65 238.006 181.2C238.416 180.74 238.621 180.155 238.621 179.445C238.621 178.955 238.526 178.53 238.336 178.17C238.156 177.8 237.896 177.515 237.556 177.315C237.216 177.105 236.821 177 236.371 177C235.921 177 235.521 177.105 235.171 177.315C234.831 177.525 234.561 177.815 234.361 178.185C234.171 178.545 234.076 178.96 234.076 179.43C234.076 179.91 234.171 180.335 234.361 180.705C234.561 181.065 234.836 181.35 235.186 181.56C235.536 181.77 235.936 181.875 236.386 181.875ZM238.531 183V181.08L238.786 179.34L238.531 177.615V175.875H239.896V183H238.531ZM245.116 183.15C244.416 183.15 243.781 182.985 243.211 182.655C242.651 182.325 242.206 181.88 241.876 181.32C241.556 180.75 241.396 180.12 241.396 179.43C241.396 178.73 241.556 178.1 241.876 177.54C242.206 176.98 242.651 176.54 243.211 176.22C243.781 175.89 244.416 175.725 245.116 175.725C245.666 175.725 246.176 175.83 246.646 176.04C247.116 176.24 247.521 176.535 247.861 176.925L246.961 177.825C246.741 177.565 246.471 177.37 246.151 177.24C245.841 177.1 245.496 177.03 245.116 177.03C244.666 177.03 244.266 177.135 243.916 177.345C243.566 177.545 243.291 177.825 243.091 178.185C242.891 178.545 242.791 178.96 242.791 179.43C242.791 179.9 242.891 180.315 243.091 180.675C243.291 181.035 243.566 181.32 243.916 181.53C244.266 181.74 244.666 181.845 245.116 181.845C245.496 181.845 245.841 181.78 246.151 181.65C246.471 181.51 246.746 181.31 246.976 181.05L247.861 181.95C247.531 182.33 247.126 182.625 246.646 182.835C246.176 183.045 245.666 183.15 245.116 183.15ZM251.54 183.06L248.45 175.875H249.95L252.245 181.5H251.765L254.18 175.875H255.68L252.35 183.06H251.54ZM249.5 185.985L251.6 181.68L252.35 183.06L251 185.985H249.5ZM261.045 183V174.585C261.045 174.115 261.145 173.7 261.345 173.34C261.555 172.97 261.845 172.68 262.215 172.47C262.585 172.25 263.01 172.14 263.49 172.14C263.86 172.14 264.185 172.205 264.465 172.335C264.745 172.455 265.005 172.625 265.245 172.845L264.36 173.73C264.23 173.62 264.095 173.54 263.955 173.49C263.815 173.43 263.66 173.4 263.49 173.4C263.14 173.4 262.87 173.51 262.68 173.73C262.49 173.94 262.395 174.225 262.395 174.585V183H261.045ZM259.29 177.105V175.875H266.055V177.105H259.29ZM265.275 183V175.875H266.64V183H265.275ZM265.95 175.125C265.71 175.125 265.51 175.045 265.35 174.885C265.19 174.715 265.11 174.505 265.11 174.255C265.11 174.015 265.19 173.815 265.35 173.655C265.51 173.485 265.71 173.4 265.95 173.4C266.21 173.4 266.415 173.485 266.565 173.655C266.725 173.815 266.805 174.015 266.805 174.255C266.805 174.505 266.725 174.715 266.565 174.885C266.415 175.045 266.21 175.125 265.95 175.125ZM268.624 183V175.875H269.974V183H268.624ZM269.974 178.935L269.464 178.71C269.464 177.8 269.674 177.075 270.094 176.535C270.514 175.995 271.119 175.725 271.909 175.725C272.269 175.725 272.594 175.79 272.884 175.92C273.174 176.04 273.444 176.245 273.694 176.535L272.809 177.45C272.659 177.29 272.494 177.175 272.314 177.105C272.134 177.035 271.924 177 271.684 177C271.184 177 270.774 177.16 270.454 177.48C270.134 177.8 269.974 178.285 269.974 178.935ZM276.748 183.15C276.348 183.15 275.968 183.1 275.608 183C275.258 182.89 274.933 182.74 274.633 182.55C274.333 182.35 274.073 182.115 273.853 181.845L274.723 180.975C274.983 181.295 275.283 181.535 275.623 181.695C275.963 181.845 276.343 181.92 276.763 181.92C277.183 181.92 277.508 181.85 277.738 181.71C277.968 181.56 278.083 181.355 278.083 181.095C278.083 180.835 277.988 180.635 277.798 180.495C277.618 180.345 277.383 180.225 277.093 180.135C276.803 180.035 276.493 179.94 276.163 179.85C275.843 179.75 275.538 179.625 275.248 179.475C274.958 179.325 274.718 179.12 274.528 178.86C274.348 178.6 274.258 178.255 274.258 177.825C274.258 177.395 274.363 177.025 274.573 176.715C274.783 176.395 275.073 176.15 275.443 175.98C275.823 175.81 276.278 175.725 276.808 175.725C277.368 175.725 277.863 175.825 278.293 176.025C278.733 176.215 279.093 176.505 279.373 176.895L278.503 177.765C278.303 177.505 278.053 177.305 277.753 177.165C277.463 177.025 277.133 176.955 276.763 176.955C276.373 176.955 276.073 177.025 275.863 177.165C275.663 177.295 275.563 177.48 275.563 177.72C275.563 177.96 275.653 178.145 275.833 178.275C276.013 178.405 276.248 178.515 276.538 178.605C276.838 178.695 277.148 178.79 277.468 178.89C277.788 178.98 278.093 179.105 278.383 179.265C278.673 179.425 278.908 179.64 279.088 179.91C279.278 180.18 279.373 180.535 279.373 180.975C279.373 181.645 279.133 182.175 278.653 182.565C278.183 182.955 277.548 183.15 276.748 183.15ZM281.98 183V172.89H283.33V183H281.98ZM280.225 177.105V175.875H285.085V177.105H280.225Z" fill="black"/>
<g clip-path="url(#clip0_3562_1089)">
<path d="M70.5904 85.0034C81.165 85.0034 91.7395 85.0052 102.316 85C103.472 85 104.466 85.3309 105.233 86.2323C105.815 86.9148 106.003 87.7111 106.002 88.5884C105.993 93.2988 105.998 98.0109 105.998 102.721C105.998 117.888 105.998 133.054 106.002 148.221C106.002 148.976 105.967 149.717 105.548 150.377C104.892 151.409 103.964 151.987 102.723 151.995C100.875 152.007 99.0298 152 97.1826 152.002C96.5663 152.002 96.5351 152.047 96.4572 152.638C96.2823 153.976 96.0988 155.311 95.9049 156.645C95.7889 157.44 95.247 157.972 94.4541 157.981C92.1325 158.003 89.8091 158.003 87.4858 157.981C86.679 157.974 86.0973 157.367 85.9934 156.569C85.8099 155.161 85.6074 153.755 85.4239 152.347C85.391 152.095 85.2784 151.99 85.0326 152.002C84.9322 152.007 84.83 152.002 84.7296 152.002C75.2942 152.002 65.8589 152.006 56.4235 151.994C55.9699 151.994 55.7656 152.078 55.7119 152.58C55.5752 153.877 55.3605 155.167 55.1943 156.461C55.0714 157.426 54.4741 157.99 53.4925 157.993C51.299 158 49.1072 157.988 46.9137 157.998C45.9961 158.003 45.3348 157.364 45.2551 156.626C45.1149 155.329 44.9019 154.039 44.734 152.745C44.6423 152.038 44.6197 152.002 43.9255 152.002C42.1371 152.002 40.347 152.012 38.5586 151.997C36.9901 151.983 35.8596 151.201 35.3436 149.729C35.1965 149.307 35.1757 148.826 35.174 148.372C35.1601 145.041 35.1671 141.708 35.1653 138.376C35.1653 137.759 35.1636 137.742 34.5403 137.759C33.1657 137.797 32.0283 137.361 31.3704 136.099C31.154 135.684 31.0518 135.174 31.0311 134.701C30.9826 133.583 30.9982 132.461 31.0189 131.34C31.0536 129.553 32.3399 128.317 34.1387 128.302C35.3021 128.292 35.1549 128.473 35.1619 127.264C35.1688 126.087 35.1549 124.908 35.1688 123.731C35.1722 123.364 35.0459 123.214 34.665 123.228C33.9725 123.254 33.2817 123.252 32.6463 122.893C31.6422 122.325 31.0484 121.496 31.0241 120.331C30.9982 119.124 30.9895 117.918 31.0241 116.711C31.0743 115.084 32.3711 113.84 34.0123 113.786C34.7787 113.761 35.1619 113.366 35.1619 112.602C35.1619 111.511 35.1619 110.419 35.1619 109.328C35.1619 108.781 35.129 108.778 34.5663 108.743C34.0383 108.711 33.4756 108.717 32.9943 108.536C31.7149 108.05 31.0328 107.082 31.0189 105.694C31.0068 104.574 30.9982 103.454 31.0207 102.334C31.0553 100.613 32.2568 99.4052 33.9846 99.3208C34.1144 99.3139 34.2443 99.3087 34.3741 99.307C34.9016 99.2978 35.1653 99.0238 35.1653 98.4849C35.1653 95.1671 35.1722 91.8493 35.1653 88.5315C35.1619 87.2027 35.6864 86.1686 36.8325 85.4757C37.4263 85.1155 38.0894 85 38.7802 85C41.6506 85.0034 44.5228 85 47.3932 85C55.1268 85 62.8586 85 70.5921 85L70.5904 85.0034ZM70.6112 88.011C60.0366 88.011 49.4621 88.011 38.8875 88.011C38.2297 88.011 38.1379 88.0851 38.1362 88.6625C38.1327 92.0372 38.1396 95.4118 38.1292 98.7882C38.1292 99.1864 38.2781 99.3173 38.6642 99.3122C39.819 99.2967 40.972 99.3087 42.1267 99.307C42.6877 99.307 42.7084 99.2846 42.7102 98.721C42.7119 97.2698 42.7102 95.8203 42.7119 94.3691C42.7119 93.7107 42.9058 93.1161 43.5498 92.8421C43.9065 92.6904 44.3341 92.6576 44.7305 92.6576C50.4281 92.6473 56.1274 92.6507 61.825 92.6507C73.3812 92.6507 84.9356 92.6507 96.4918 92.6507C97.8993 92.6507 98.436 93.1661 98.436 94.5173C98.436 110.531 98.436 126.544 98.436 142.557C98.436 143.838 97.8716 144.393 96.587 144.393C79.2467 144.393 61.9064 144.393 44.5661 144.393C43.2901 144.393 42.7171 143.822 42.7136 142.552C42.7102 141.101 42.705 139.651 42.7171 138.2C42.7205 137.866 42.6028 137.747 42.2652 137.75C41.0828 137.766 39.8986 137.755 38.7161 137.755C38.1414 137.755 38.1379 137.761 38.1379 138.333C38.1379 141.608 38.1379 144.882 38.1379 148.157C38.1379 148.983 38.2141 149.057 39.0607 149.057C60.0799 149.057 81.0992 149.057 102.117 149.057C102.946 149.057 103.019 148.983 103.019 148.14C103.019 128.378 103.019 108.616 103.019 88.8555C103.019 88.0386 102.991 88.011 102.162 88.011C91.6443 88.011 81.1286 88.011 70.6112 88.011ZM85.0032 118.759C85.0032 116.191 84.3366 113.583 83.2096 111.639C80.7962 107.475 77.2073 105.01 72.4221 104.302C72.1572 104.262 72.0862 104.145 72.0879 103.909C72.0914 103.464 72.1087 103.016 72.0706 102.575C71.9996 101.734 71.3504 101.146 70.5558 101.167C69.7421 101.187 69.1206 101.823 69.0963 102.678C69.0842 103.094 69.0842 103.511 69.0929 103.928C69.0981 104.176 69.0028 104.271 68.7466 104.305C67.2231 104.505 65.7515 104.9 64.3821 105.6C59.3182 108.185 56.5776 112.32 56.195 117.964C56.0565 120.02 56.4512 122.021 57.2545 123.929C57.3895 124.25 57.3445 124.458 57.0104 124.627C56.6139 124.827 56.2227 125.05 55.866 125.312C55.2497 125.765 55.1147 126.596 55.5111 127.237C55.9041 127.873 56.6693 128.117 57.3549 127.8C57.7704 127.607 58.1824 127.394 58.5651 127.144C58.8594 126.952 59.0117 127.045 59.2022 127.283C61.6207 130.31 64.7301 132.152 68.5925 132.709C71.6292 133.148 74.5013 132.631 77.2194 131.242C79.0909 130.286 80.6733 128.965 81.9596 127.306C82.1743 127.03 82.3474 126.947 82.666 127.164C83.0191 127.406 83.4052 127.609 83.7947 127.788C84.5305 128.126 85.2975 127.869 85.6939 127.185C86.0662 126.542 85.8671 125.686 85.2248 125.248C84.9045 125.029 84.5721 124.819 84.2224 124.66C83.8069 124.472 83.7792 124.222 83.9436 123.84C84.6759 122.142 84.953 120.351 85.0066 118.76L85.0032 118.759ZM40.5478 134.755C40.5478 134.755 40.5478 134.75 40.5478 134.748C42.5647 134.748 44.5834 134.739 46.6003 134.755C46.9812 134.758 47.1041 134.641 47.0937 134.265C47.0695 133.435 47.0729 132.6 47.0937 131.77C47.1024 131.392 46.9621 131.265 46.5899 131.273C45.6533 131.291 44.7167 131.278 43.7801 131.278C40.7538 131.278 37.7276 131.278 34.7013 131.278C34.2281 131.278 33.9915 131.52 33.9915 132.002C33.9915 132.733 34.014 133.467 33.9829 134.196C33.9638 134.627 34.0989 134.769 34.5403 134.765C36.5434 134.744 38.5465 134.757 40.5495 134.757L40.5478 134.755ZM40.5322 120.248C42.537 120.248 44.5418 120.239 46.5466 120.255C46.9656 120.258 47.1041 120.117 47.092 119.707C47.0677 118.89 47.0747 118.069 47.0903 117.252C47.0972 116.916 47.0089 116.766 46.6315 116.768C42.5786 116.78 38.5257 116.778 34.4728 116.768C34.0833 116.768 33.9742 116.913 33.9829 117.277C34.0019 118.08 33.9863 118.885 33.9898 119.689C33.9898 120.21 34.0262 120.246 34.5628 120.248C36.5538 120.25 38.543 120.248 40.534 120.248H40.5322ZM40.5322 105.777C42.5526 105.777 44.5713 105.772 46.5917 105.782C46.9344 105.784 47.0937 105.691 47.0868 105.324C47.0712 104.462 47.0764 103.6 47.0868 102.739C47.0903 102.416 46.976 102.273 46.6332 102.273C42.5803 102.28 38.5257 102.28 34.4728 102.273C34.1214 102.273 33.9811 102.415 33.9863 102.763C33.9985 103.581 33.9863 104.4 33.9915 105.219C33.9933 105.746 34.0227 105.774 34.5628 105.774C36.5538 105.774 38.5447 105.774 40.5357 105.774L40.5322 105.777ZM42.7102 125.798C42.7102 125.094 42.7032 124.391 42.7136 123.688C42.7188 123.371 42.6201 123.223 42.267 123.228C41.0412 123.245 39.8172 123.242 38.5915 123.23C38.2556 123.226 38.1292 123.352 38.131 123.685C38.1414 125.091 38.1414 126.497 38.131 127.904C38.1292 128.204 38.247 128.309 38.5396 128.307C39.793 128.298 41.0482 128.297 42.3016 128.307C42.6011 128.311 42.7154 128.202 42.7119 127.907C42.7015 127.204 42.7084 126.501 42.7084 125.798H42.7102ZM42.7102 111.253C42.7102 110.565 42.7032 109.876 42.7136 109.188C42.7188 108.883 42.6115 108.745 42.2877 108.747C41.0499 108.757 39.8103 108.754 38.5707 108.75C38.2677 108.75 38.1292 108.866 38.131 109.185C38.1414 110.575 38.1414 111.966 38.131 113.357C38.1292 113.678 38.2591 113.79 38.5655 113.788C39.8034 113.781 41.043 113.779 42.2825 113.79C42.5994 113.793 42.7205 113.676 42.7136 113.362C42.7015 112.659 42.7102 111.958 42.7084 111.254L42.7102 111.253ZM50.2411 152.004C49.5209 152.004 48.8007 152.009 48.0805 152C47.7724 151.997 47.6321 152.08 47.691 152.428C47.8122 153.162 47.9039 153.901 47.9888 154.641C48.0165 154.889 48.1169 154.999 48.3679 154.998C49.6058 154.994 50.8454 155.001 52.0832 154.986C52.1819 154.986 52.3516 154.851 52.3671 154.76C52.5004 153.969 52.6078 153.174 52.7203 152.38C52.7601 152.104 52.6424 151.992 52.3585 151.997C51.6539 152.009 50.9475 152 50.2411 152V152.004ZM90.9535 154.999C91.5594 154.999 92.1654 154.994 92.7713 155.001C93.0379 155.005 93.1591 154.894 93.1868 154.627C93.2665 153.886 93.3548 153.143 93.4586 152.405C93.5037 152.085 93.3703 152 93.0778 152.002C91.6633 152.009 90.2506 152.011 88.8362 152.002C88.5228 152 88.4207 152.133 88.4605 152.421C88.5626 153.16 88.67 153.898 88.7583 154.639C88.7929 154.932 88.9418 155.015 89.2205 155.008C89.797 154.992 90.3753 155.003 90.9518 155.003L90.9535 154.999Z" fill="url(#paint1_linear_3562_1089)"/>
<path d="M70.611 129.891C67.1277 129.841 64.2781 128.528 61.9842 125.994C61.8976 125.898 61.7729 125.805 61.7504 125.693C61.7245 125.563 61.7418 125.334 61.8231 125.288C63.3086 124.412 64.8044 123.554 66.3106 122.711C66.4162 122.652 66.6603 122.702 66.7624 122.79C68.1353 123.969 69.7212 124.405 71.5026 124.154C72.5535 124.005 73.4901 123.578 74.283 122.873C74.5549 122.632 74.7591 122.62 75.0777 122.806C76.4263 123.602 77.794 124.366 79.1548 125.143C79.6361 125.417 79.6482 125.465 79.2656 125.9C76.9596 128.518 74.0597 129.846 70.611 129.891Z" fill="url(#paint2_linear_3562_1089)"/>
<path d="M60.0277 122.842C59.2001 120.824 58.9785 118.812 59.3092 116.739C59.7524 113.962 61.0803 111.675 63.2097 109.848C64.7367 108.538 66.5164 107.73 68.4883 107.339C69.0579 107.227 69.0822 107.259 69.0839 107.823C69.0839 109.388 69.0735 110.955 69.0926 112.52C69.096 112.866 68.9835 113.033 68.6615 113.149C65.978 114.11 64.4337 116.785 64.9444 119.586C64.9947 119.86 64.9791 120.041 64.7125 120.193C63.2738 121.008 61.8438 121.835 60.4085 122.657C60.3012 122.719 60.1835 122.766 60.0277 122.84V122.842Z" fill="url(#paint3_linear_3562_1089)"/>
<path d="M82.0065 118.531C82.0048 119.907 81.7503 121.235 81.2725 122.526C81.1738 122.794 81.0734 122.83 80.8379 122.695C79.356 121.842 77.8653 121.003 76.3903 120.138C76.2743 120.07 76.1774 119.822 76.2051 119.684C76.7625 116.863 75.2269 114.116 72.5279 113.156C72.2145 113.044 72.076 112.885 72.0812 112.532C72.1002 110.98 72.0881 109.431 72.0899 107.88C72.0899 107.261 72.1227 107.227 72.7218 107.344C75.3412 107.863 77.5364 109.128 79.2711 111.144C81.0699 113.235 81.9944 115.789 82.0083 118.53L82.0065 118.531Z" fill="url(#paint4_linear_3562_1089)"/>
<path d="M70.603 115.791C72.1697 115.817 73.373 117.04 73.3366 118.574C73.302 120.079 72.0382 121.301 70.5424 121.278C69.0569 121.256 67.7914 119.96 67.8208 118.49C67.8502 116.968 69.0916 115.765 70.6047 115.789L70.603 115.791Z" fill="url(#paint5_linear_3562_1089)"/>
</g>
<defs>
<linearGradient id="paint0_linear_3562_1089" x1="197.113" y1="228" x2="131.055" y2="21.0898" gradientUnits="userSpaceOnUse">
<stop stop-color="#E7EDF2"/>
<stop offset="1" stop-color="#F7FAFB"/>
</linearGradient>
<linearGradient id="paint1_linear_3562_1089" x1="30.999" y1="118.389" x2="101.761" y2="104.362" gradientUnits="userSpaceOnUse">
<stop stop-color="#7E8E9C"/>
<stop offset="0.5" stop-color="#C3C8CB"/>
<stop offset="1" stop-color="#788187"/>
</linearGradient>
<linearGradient id="paint2_linear_3562_1089" x1="61.7393" y1="125.977" x2="75.9659" y2="119.205" gradientUnits="userSpaceOnUse">
<stop stop-color="#7E8E9C"/>
<stop offset="0.5" stop-color="#C3C8CB"/>
<stop offset="1" stop-color="#788187"/>
</linearGradient>
<linearGradient id="paint3_linear_3562_1089" x1="59.1621" y1="114.402" x2="68.7538" y2="113.22" gradientUnits="userSpaceOnUse">
<stop stop-color="#7E8E9C"/>
<stop offset="0.5" stop-color="#C3C8CB"/>
<stop offset="1" stop-color="#788187"/>
</linearGradient>
<linearGradient id="paint4_linear_3562_1089" x1="72.0811" y1="114.371" x2="81.6682" y2="113.185" gradientUnits="userSpaceOnUse">
<stop stop-color="#7E8E9C"/>
<stop offset="0.5" stop-color="#C3C8CB"/>
<stop offset="1" stop-color="#788187"/>
</linearGradient>
<linearGradient id="paint5_linear_3562_1089" x1="67.8203" y1="118.3" x2="73.034" y2="117.289" gradientUnits="userSpaceOnUse">
<stop stop-color="#7E8E9C"/>
<stop offset="0.5" stop-color="#C3C8CB"/>
<stop offset="1" stop-color="#788187"/>
</linearGradient>
<clipPath id="clip0_3562_1089">
<rect width="75" height="73" fill="white" transform="translate(31 85)"/>
</clipPath>
</defs>
</svg>
