<svg width="355" height="228" viewBox="0 0 355 228" fill="none" xmlns="http://www.w3.org/2000/svg">
<rect width="355" height="228" rx="20" fill="url(#paint0_linear_4271_5892)"/>
<path d="M50.212 74.37C48.1153 74.37 46.3147 74.0123 44.81 73.297C43.33 72.5817 41.9857 71.5087 40.777 70.078L44.107 66.748C44.8717 67.7593 45.7597 68.5487 46.771 69.116C47.7823 69.6587 49.0157 69.93 50.471 69.93C51.7783 69.93 52.8143 69.671 53.579 69.153C54.3683 68.635 54.763 67.9197 54.763 67.007C54.763 66.2177 54.541 65.5763 54.097 65.083C53.653 64.5897 53.061 64.1703 52.321 63.825C51.6057 63.4797 50.804 63.1713 49.916 62.9C49.0527 62.604 48.177 62.271 47.289 61.901C46.4257 61.531 45.624 61.0747 44.884 60.532C44.1687 59.9647 43.589 59.2493 43.145 58.386C42.701 57.498 42.479 56.388 42.479 55.056C42.479 53.4773 42.8613 52.133 43.626 51.023C44.3907 49.913 45.439 49.062 46.771 48.47C48.103 47.878 49.6077 47.582 51.285 47.582C53.061 47.582 54.6643 47.915 56.095 48.581C57.5257 49.247 58.6973 50.1103 59.61 51.171L56.28 54.501C55.5153 53.6623 54.726 53.0457 53.912 52.651C53.1227 52.2563 52.2223 52.059 51.211 52.059C50.0517 52.059 49.139 52.281 48.473 52.725C47.807 53.169 47.474 53.8103 47.474 54.649C47.474 55.3643 47.696 55.944 48.14 56.388C48.584 56.832 49.1637 57.2143 49.879 57.535C50.619 57.8557 51.4207 58.164 52.284 58.46C53.172 58.756 54.0477 59.089 54.911 59.459C55.799 59.829 56.6007 60.31 57.316 60.902C58.056 61.494 58.648 62.2587 59.092 63.196C59.536 64.1087 59.758 65.2433 59.758 66.6C59.758 69.0173 58.907 70.9167 57.205 72.298C55.503 73.6793 53.172 74.37 50.212 74.37ZM76.1192 74.407C74.2199 74.407 72.4439 74.0617 70.7912 73.371C69.1632 72.6803 67.7326 71.7307 66.4992 70.522C65.2906 69.2887 64.3409 67.858 63.6502 66.23C62.9596 64.5773 62.6142 62.8137 62.6142 60.939C62.6142 59.0643 62.9472 57.3253 63.6132 55.722C64.3039 54.094 65.2536 52.6757 66.4622 51.467C67.6956 50.2337 69.1262 49.284 70.7542 48.618C72.3822 47.9273 74.1459 47.582 76.0452 47.582C77.9692 47.582 79.7452 47.9273 81.3732 48.618C83.0012 49.284 84.4196 50.2337 85.6282 51.467C86.8616 52.6757 87.8236 54.094 88.5142 55.722C89.2049 57.35 89.5502 59.1013 89.5502 60.976C89.5502 62.8507 89.2049 64.602 88.5142 66.23C87.8236 67.858 86.8616 69.2887 85.6282 70.522C84.4196 71.7307 83.0012 72.6803 81.3732 73.371C79.7699 74.0617 78.0186 74.407 76.1192 74.407ZM76.0452 69.708C77.7226 69.708 79.1779 69.338 80.4112 68.598C81.6446 67.858 82.6066 66.8343 83.2972 65.527C84.0126 64.2197 84.3702 62.6903 84.3702 60.939C84.3702 59.6563 84.1729 58.4847 83.7782 57.424C83.3836 56.3633 82.8162 55.4507 82.0762 54.686C81.3362 53.8967 80.4606 53.2923 79.4492 52.873C78.4379 52.4537 77.3032 52.244 76.0452 52.244C74.4172 52.244 72.9742 52.614 71.7162 53.354C70.4829 54.0693 69.5086 55.0807 68.7932 56.388C68.1026 57.6953 67.7572 59.2123 67.7572 60.939C67.7572 62.2463 67.9546 63.4427 68.3492 64.528C68.7686 65.6133 69.3359 66.5383 70.0512 67.303C70.7912 68.0677 71.6669 68.6597 72.6782 69.079C73.7142 69.4983 74.8366 69.708 76.0452 69.708ZM105.926 74.37C104.027 74.37 102.263 74.037 100.635 73.371C99.0072 72.6803 97.5765 71.7307 96.3432 70.522C95.1345 69.2887 94.1972 67.858 93.5312 66.23C92.8899 64.602 92.5692 62.8507 92.5692 60.976C92.5692 59.1013 92.8899 57.35 93.5312 55.722C94.1972 54.094 95.1345 52.6757 96.3432 51.467C97.5765 50.2583 98.9949 49.3087 100.598 48.618C102.226 47.9273 104.002 47.582 105.926 47.582C107.998 47.582 109.824 47.9273 111.402 48.618C112.981 49.284 114.375 50.209 115.583 51.393L112.179 54.797C111.464 54.0077 110.588 53.391 109.552 52.947C108.516 52.503 107.308 52.281 105.926 52.281C104.718 52.281 103.608 52.4907 102.596 52.91C101.61 53.3047 100.746 53.8967 100.006 54.686C99.2662 55.4507 98.6989 56.3757 98.3042 57.461C97.9095 58.5217 97.7122 59.6933 97.7122 60.976C97.7122 62.2833 97.9095 63.4673 98.3042 64.528C98.6989 65.5887 99.2662 66.5137 100.006 67.303C100.746 68.0677 101.61 68.6597 102.596 69.079C103.608 69.4983 104.718 69.708 105.926 69.708C107.382 69.708 108.627 69.486 109.663 69.042C110.724 68.598 111.612 67.969 112.327 67.155L115.731 70.559C114.523 71.7677 113.117 72.705 111.513 73.371C109.91 74.037 108.048 74.37 105.926 74.37ZM124.754 71.114L134.559 60.865C135.25 60.125 135.805 59.4713 136.224 58.904C136.668 58.312 136.989 57.757 137.186 57.239C137.383 56.6963 137.482 56.1537 137.482 55.611C137.482 54.5257 137.124 53.6747 136.409 53.058C135.718 52.4413 134.818 52.133 133.708 52.133C132.573 52.133 131.562 52.429 130.674 53.021C129.811 53.613 128.997 54.5503 128.232 55.833L124.791 52.91C125.827 51.1587 127.11 49.839 128.639 48.951C130.193 48.0383 131.969 47.582 133.967 47.582C135.669 47.582 137.149 47.915 138.407 48.581C139.69 49.247 140.676 50.172 141.367 51.356C142.058 52.54 142.403 53.9213 142.403 55.5C142.403 56.5607 142.267 57.5227 141.996 58.386C141.749 59.2493 141.318 60.1127 140.701 60.976C140.109 61.8147 139.283 62.7643 138.222 63.825L131.081 71.114H124.754ZM124.754 74V71.114L129.046 69.634H142.958V74H124.754ZM159.994 74V48.544H165.063V74H159.994ZM151.706 52.466V47.989H173.351V52.466H151.706ZM177.884 74.148L170.41 56.129H175.664L180.622 69.893H178.846L183.989 56.129H189.28L181.325 74.148H177.884ZM172.926 81.474L178.365 69.967L181.325 74.148L178.069 81.474H172.926ZM201.218 74.37C199.936 74.37 198.776 74.111 197.74 73.593C196.704 73.0503 195.878 72.3227 195.261 71.41C194.645 70.4973 194.312 69.449 194.262 68.265V61.938C194.312 60.754 194.645 59.7057 195.261 58.793C195.903 57.8557 196.729 57.1157 197.74 56.573C198.776 56.0303 199.936 55.759 201.218 55.759C202.871 55.759 204.351 56.166 205.658 56.98C206.966 57.794 207.989 58.904 208.729 60.31C209.494 61.716 209.876 63.307 209.876 65.083C209.876 66.8343 209.494 68.413 208.729 69.819C207.989 71.225 206.966 72.335 205.658 73.149C204.351 73.963 202.871 74.37 201.218 74.37ZM191.302 81.474V56.129H196.149V60.828L195.335 65.157L196.112 69.486V81.474H191.302ZM200.367 69.893C201.255 69.893 202.045 69.6957 202.735 69.301C203.426 68.8817 203.956 68.3143 204.326 67.599C204.721 66.859 204.918 66.008 204.918 65.046C204.918 64.1087 204.721 63.2823 204.326 62.567C203.956 61.827 203.426 61.2597 202.735 60.865C202.045 60.4457 201.255 60.236 200.367 60.236C199.504 60.236 198.727 60.4457 198.036 60.865C197.346 61.2597 196.803 61.827 196.408 62.567C196.038 63.2823 195.853 64.1087 195.853 65.046C195.853 66.008 196.038 66.859 196.408 67.599C196.803 68.3143 197.333 68.8817 197.999 69.301C198.69 69.6957 199.479 69.893 200.367 69.893ZM221.601 74.37C219.727 74.37 218.062 73.9753 216.606 73.186C215.151 72.372 213.992 71.262 213.128 69.856C212.29 68.45 211.87 66.8467 211.87 65.046C211.87 63.27 212.277 61.6913 213.091 60.31C213.93 58.904 215.065 57.794 216.495 56.98C217.926 56.1413 219.517 55.722 221.268 55.722C222.995 55.722 224.512 56.1167 225.819 56.906C227.151 57.6707 228.187 58.7313 228.927 60.088C229.692 61.42 230.074 62.937 230.074 64.639C230.074 64.9597 230.05 65.2927 230 65.638C229.976 65.9587 229.914 66.3287 229.815 66.748L214.793 66.785V63.159L227.558 63.122L225.597 64.639C225.548 63.5783 225.351 62.6903 225.005 61.975C224.685 61.2597 224.204 60.717 223.562 60.347C222.946 59.9523 222.181 59.755 221.268 59.755C220.306 59.755 219.468 59.977 218.752 60.421C218.037 60.8403 217.482 61.4447 217.087 62.234C216.717 62.9987 216.532 63.9113 216.532 64.972C216.532 66.0573 216.73 67.007 217.124 67.821C217.544 68.6103 218.136 69.227 218.9 69.671C219.665 70.0903 220.553 70.3 221.564 70.3C222.477 70.3 223.303 70.152 224.043 69.856C224.783 69.5353 225.425 69.0667 225.967 68.45L228.816 71.299C227.953 72.3103 226.892 73.075 225.634 73.593C224.401 74.111 223.057 74.37 221.601 74.37ZM240.816 74V47.989H245.848V74H240.816ZM251.186 74V47.989H256.218V74H251.186Z" fill="url(#paint1_linear_4271_5892)"/>
<path d="M45.5 120.2C44.4067 120.2 43.4733 120 42.7 119.6C41.9267 119.2 41.24 118.62 40.64 117.86L41.92 116.58C42.36 117.193 42.8667 117.66 43.44 117.98C44.0133 118.287 44.72 118.44 45.56 118.44C46.3867 118.44 47.0467 118.26 47.54 117.9C48.0467 117.54 48.3 117.047 48.3 116.42C48.3 115.9 48.18 115.48 47.94 115.16C47.7 114.84 47.3733 114.58 46.96 114.38C46.56 114.167 46.12 113.98 45.64 113.82C45.16 113.647 44.68 113.467 44.2 113.28C43.72 113.08 43.28 112.84 42.88 112.56C42.48 112.267 42.1533 111.887 41.9 111.42C41.66 110.953 41.54 110.367 41.54 109.66C41.54 108.873 41.7267 108.207 42.1 107.66C42.4867 107.1 43.0067 106.673 43.66 106.38C44.3267 106.073 45.0733 105.92 45.9 105.92C46.8067 105.92 47.62 106.1 48.34 106.46C49.06 106.807 49.6467 107.267 50.1 107.84L48.82 109.12C48.4067 108.64 47.96 108.28 47.48 108.04C47.0133 107.8 46.4733 107.68 45.86 107.68C45.1133 107.68 44.52 107.847 44.08 108.18C43.64 108.5 43.42 108.953 43.42 109.54C43.42 110.007 43.54 110.387 43.78 110.68C44.0333 110.96 44.36 111.2 44.76 111.4C45.16 111.6 45.6 111.787 46.08 111.96C46.5733 112.12 47.06 112.3 47.54 112.5C48.02 112.7 48.46 112.953 48.86 113.26C49.26 113.567 49.58 113.967 49.82 114.46C50.0733 114.94 50.2 115.547 50.2 116.28C50.2 117.507 49.7733 118.467 48.92 119.16C48.08 119.853 46.94 120.2 45.5 120.2ZM59.1123 120.2C58.1257 120.2 57.2057 120.02 56.3523 119.66C55.499 119.287 54.7523 118.773 54.1123 118.12C53.4723 117.453 52.9723 116.687 52.6123 115.82C52.2657 114.953 52.0923 114.027 52.0923 113.04C52.0923 112.04 52.2657 111.113 52.6123 110.26C52.9723 109.393 53.4657 108.633 54.0923 107.98C54.7323 107.327 55.4723 106.82 56.3123 106.46C57.1657 106.1 58.0857 105.92 59.0723 105.92C60.059 105.92 60.9723 106.1 61.8123 106.46C62.6657 106.82 63.4123 107.327 64.0523 107.98C64.6923 108.633 65.1923 109.393 65.5523 110.26C65.9123 111.127 66.0923 112.06 66.0923 113.06C66.0923 114.047 65.9123 114.973 65.5523 115.84C65.1923 116.707 64.6923 117.467 64.0523 118.12C63.4257 118.773 62.6857 119.287 61.8323 119.66C60.9923 120.02 60.0857 120.2 59.1123 120.2ZM59.0723 118.4C60.0723 118.4 60.9457 118.173 61.6923 117.72C62.4523 117.253 63.0523 116.62 63.4923 115.82C63.9323 115.007 64.1523 114.08 64.1523 113.04C64.1523 112.267 64.0257 111.56 63.7723 110.92C63.519 110.267 63.1657 109.7 62.7123 109.22C62.259 108.74 61.7257 108.373 61.1123 108.12C60.499 107.853 59.819 107.72 59.0723 107.72C58.0857 107.72 57.2123 107.947 56.4523 108.4C55.7057 108.853 55.1123 109.48 54.6723 110.28C54.2457 111.08 54.0323 112 54.0323 113.04C54.0323 113.813 54.1523 114.533 54.3923 115.2C54.6457 115.853 54.9923 116.42 55.4323 116.9C55.8857 117.367 56.419 117.733 57.0323 118C57.659 118.267 58.339 118.4 59.0723 118.4ZM75.0884 120.2C74.0884 120.2 73.1618 120.02 72.3084 119.66C71.4551 119.287 70.7084 118.773 70.0684 118.12C69.4418 117.467 68.9551 116.707 68.6084 115.84C68.2618 114.973 68.0884 114.047 68.0884 113.06C68.0884 112.06 68.2618 111.127 68.6084 110.26C68.9551 109.393 69.4418 108.64 70.0684 108C70.7084 107.347 71.4484 106.84 72.2884 106.48C73.1418 106.107 74.0684 105.92 75.0684 105.92C76.1618 105.92 77.1218 106.107 77.9484 106.48C78.7751 106.853 79.5084 107.36 80.1484 108L78.8484 109.3C78.4084 108.807 77.8684 108.42 77.2284 108.14C76.6018 107.86 75.8818 107.72 75.0684 107.72C74.3351 107.72 73.6618 107.853 73.0484 108.12C72.4351 108.373 71.9018 108.74 71.4484 109.22C70.9951 109.7 70.6418 110.267 70.3884 110.92C70.1484 111.573 70.0284 112.287 70.0284 113.06C70.0284 113.833 70.1484 114.547 70.3884 115.2C70.6418 115.853 70.9951 116.42 71.4484 116.9C71.9018 117.38 72.4351 117.753 73.0484 118.02C73.6618 118.273 74.3351 118.4 75.0684 118.4C75.9351 118.4 76.6884 118.26 77.3284 117.98C77.9684 117.687 78.5084 117.293 78.9484 116.8L80.2484 118.08C79.6084 118.747 78.8551 119.267 77.9884 119.64C77.1351 120.013 76.1684 120.2 75.0884 120.2ZM85.7381 118.86L90.8581 113.46C91.3781 112.927 91.7848 112.467 92.0781 112.08C92.3715 111.68 92.5781 111.313 92.6981 110.98C92.8315 110.647 92.8981 110.3 92.8981 109.94C92.8981 109.233 92.6715 108.68 92.2181 108.28C91.7648 107.88 91.1781 107.68 90.4581 107.68C89.7515 107.68 89.1315 107.853 88.5981 108.2C88.0648 108.533 87.5915 109.053 87.1781 109.76L85.8581 108.66C86.4048 107.753 87.0648 107.073 87.8381 106.62C88.6115 106.153 89.5048 105.92 90.5181 105.92C91.3715 105.92 92.1115 106.087 92.7381 106.42C93.3781 106.753 93.8715 107.22 94.2181 107.82C94.5648 108.42 94.7381 109.12 94.7381 109.92C94.7381 110.493 94.6648 111.007 94.5181 111.46C94.3848 111.913 94.1381 112.38 93.7781 112.86C93.4315 113.327 92.9448 113.887 92.3181 114.54L88.1781 118.8L85.7381 118.86ZM85.7381 120V118.86L87.3381 118.32H95.0581V120H85.7381ZM105.066 120V106.52H106.946V120H105.066ZM100.346 107.84V106.12H111.646V107.84H100.346ZM114.303 120.08L110.183 110.5H112.183L115.243 118H114.603L117.823 110.5H119.823L115.383 120.08H114.303ZM111.583 123.98L114.383 118.24L115.383 120.08L113.583 123.98H111.583ZM126.222 120.2C125.502 120.2 124.849 120.053 124.262 119.76C123.689 119.453 123.229 119.033 122.882 118.5C122.536 117.967 122.342 117.36 122.302 116.68V113.82C122.342 113.127 122.536 112.52 122.882 112C123.242 111.467 123.709 111.053 124.282 110.76C124.869 110.453 125.516 110.3 126.222 110.3C127.089 110.3 127.869 110.52 128.562 110.96C129.269 111.4 129.822 111.993 130.222 112.74C130.622 113.487 130.822 114.327 130.822 115.26C130.822 116.193 130.622 117.033 130.222 117.78C129.822 118.527 129.269 119.12 128.562 119.56C127.869 119.987 127.089 120.2 126.222 120.2ZM121.222 123.98V110.5H123.022V113L122.682 115.3L123.022 117.62V123.98H121.222ZM125.922 118.5C126.522 118.5 127.049 118.36 127.502 118.08C127.956 117.8 128.316 117.42 128.582 116.94C128.849 116.447 128.982 115.88 128.982 115.24C128.982 114.613 128.849 114.053 128.582 113.56C128.316 113.067 127.956 112.687 127.502 112.42C127.049 112.14 126.529 112 125.942 112C125.342 112 124.816 112.14 124.362 112.42C123.909 112.687 123.556 113.067 123.302 113.56C123.049 114.053 122.922 114.62 122.922 115.26C122.922 115.887 123.042 116.447 123.282 116.94C123.536 117.42 123.889 117.8 124.342 118.08C124.809 118.36 125.336 118.5 125.922 118.5ZM137.263 120.2C136.316 120.2 135.463 119.987 134.703 119.56C133.943 119.12 133.343 118.527 132.903 117.78C132.463 117.033 132.243 116.187 132.243 115.24C132.243 114.307 132.456 113.467 132.883 112.72C133.323 111.973 133.91 111.387 134.643 110.96C135.39 110.52 136.223 110.3 137.143 110.3C138.023 110.3 138.796 110.5 139.463 110.9C140.143 111.3 140.67 111.853 141.043 112.56C141.43 113.267 141.623 114.067 141.623 114.96C141.623 115.093 141.616 115.24 141.603 115.4C141.59 115.547 141.563 115.72 141.523 115.92H133.503V114.42H140.563L139.903 115C139.903 114.36 139.79 113.82 139.563 113.38C139.336 112.927 139.016 112.58 138.603 112.34C138.19 112.087 137.69 111.96 137.103 111.96C136.49 111.96 135.95 112.093 135.483 112.36C135.016 112.627 134.656 113 134.403 113.48C134.15 113.96 134.023 114.527 134.023 115.18C134.023 115.847 134.156 116.433 134.423 116.94C134.69 117.433 135.07 117.82 135.563 118.1C136.056 118.367 136.623 118.5 137.263 118.5C137.796 118.5 138.283 118.407 138.723 118.22C139.176 118.033 139.563 117.753 139.883 117.38L141.043 118.56C140.59 119.093 140.03 119.5 139.363 119.78C138.71 120.06 138.01 120.2 137.263 120.2ZM148.066 120V106.12H149.946V120H148.066ZM153.222 120V106.12H155.102V120H153.222ZM166.558 120.2C165.625 120.2 164.778 119.98 164.018 119.54C163.272 119.1 162.678 118.507 162.238 117.76C161.812 117 161.598 116.16 161.598 115.24C161.598 114.307 161.812 113.467 162.238 112.72C162.678 111.973 163.272 111.387 164.018 110.96C164.778 110.52 165.625 110.3 166.558 110.3C167.292 110.3 167.972 110.44 168.598 110.72C169.225 110.987 169.765 111.38 170.218 111.9L169.018 113.1C168.725 112.753 168.365 112.493 167.938 112.32C167.525 112.133 167.065 112.04 166.558 112.04C165.958 112.04 165.425 112.18 164.958 112.46C164.492 112.727 164.125 113.1 163.858 113.58C163.592 114.06 163.458 114.613 163.458 115.24C163.458 115.867 163.592 116.42 163.858 116.9C164.125 117.38 164.492 117.76 164.958 118.04C165.425 118.32 165.958 118.46 166.558 118.46C167.065 118.46 167.525 118.373 167.938 118.2C168.365 118.013 168.732 117.747 169.038 117.4L170.218 118.6C169.778 119.107 169.238 119.5 168.598 119.78C167.972 120.06 167.292 120.2 166.558 120.2ZM176.168 120.2C175.234 120.2 174.394 119.98 173.648 119.54C172.901 119.1 172.308 118.507 171.868 117.76C171.428 117 171.208 116.153 171.208 115.22C171.208 114.3 171.428 113.473 171.868 112.74C172.308 111.993 172.901 111.4 173.648 110.96C174.394 110.52 175.234 110.3 176.168 110.3C177.088 110.3 177.921 110.52 178.668 110.96C179.428 111.387 180.028 111.973 180.468 112.72C180.908 113.467 181.128 114.3 181.128 115.22C181.128 116.153 180.908 117 180.468 117.76C180.028 118.507 179.428 119.1 178.668 119.54C177.921 119.98 177.088 120.2 176.168 120.2ZM176.168 118.46C176.768 118.46 177.301 118.32 177.768 118.04C178.234 117.76 178.601 117.38 178.868 116.9C179.134 116.407 179.268 115.847 179.268 115.22C179.268 114.607 179.128 114.06 178.848 113.58C178.581 113.1 178.214 112.727 177.748 112.46C177.294 112.18 176.768 112.04 176.168 112.04C175.568 112.04 175.034 112.18 174.568 112.46C174.101 112.727 173.734 113.1 173.468 113.58C173.201 114.06 173.068 114.607 173.068 115.22C173.068 115.847 173.201 116.407 173.468 116.9C173.734 117.38 174.101 117.76 174.568 118.04C175.034 118.32 175.568 118.46 176.168 118.46ZM183.156 120V110.5H184.956V120H183.156ZM189.576 120V114.26C189.576 113.553 189.356 113 188.916 112.6C188.489 112.187 187.949 111.98 187.296 111.98C186.856 111.98 186.463 112.073 186.116 112.26C185.769 112.447 185.489 112.707 185.276 113.04C185.063 113.373 184.956 113.773 184.956 114.24L184.216 113.88C184.216 113.16 184.369 112.533 184.676 112C184.996 111.467 185.429 111.053 185.976 110.76C186.523 110.453 187.136 110.3 187.816 110.3C188.483 110.3 189.083 110.447 189.616 110.74C190.163 111.033 190.589 111.447 190.896 111.98C191.216 112.513 191.376 113.147 191.376 113.88V120H189.576ZM195.996 120V114.26C195.996 113.553 195.776 113 195.336 112.6C194.909 112.187 194.376 111.98 193.736 111.98C193.296 111.98 192.896 112.073 192.536 112.26C192.189 112.447 191.909 112.707 191.696 113.04C191.483 113.373 191.376 113.773 191.376 114.24L190.356 113.88C190.396 113.147 190.589 112.52 190.936 112C191.296 111.467 191.756 111.053 192.316 110.76C192.876 110.453 193.489 110.3 194.156 110.3C194.849 110.3 195.469 110.447 196.016 110.74C196.563 111.033 196.996 111.447 197.316 111.98C197.649 112.513 197.816 113.153 197.816 113.9V120H195.996ZM205.265 120.2C204.545 120.2 203.892 120.053 203.305 119.76C202.732 119.453 202.272 119.033 201.925 118.5C201.579 117.967 201.385 117.36 201.345 116.68V113.82C201.385 113.127 201.579 112.52 201.925 112C202.285 111.467 202.752 111.053 203.325 110.76C203.912 110.453 204.559 110.3 205.265 110.3C206.132 110.3 206.912 110.52 207.605 110.96C208.312 111.4 208.865 111.993 209.265 112.74C209.665 113.487 209.865 114.327 209.865 115.26C209.865 116.193 209.665 117.033 209.265 117.78C208.865 118.527 208.312 119.12 207.605 119.56C206.912 119.987 206.132 120.2 205.265 120.2ZM200.265 123.98V110.5H202.065V113L201.725 115.3L202.065 117.62V123.98H200.265ZM204.965 118.5C205.565 118.5 206.092 118.36 206.545 118.08C206.999 117.8 207.359 117.42 207.625 116.94C207.892 116.447 208.025 115.88 208.025 115.24C208.025 114.613 207.892 114.053 207.625 113.56C207.359 113.067 206.999 112.687 206.545 112.42C206.092 112.14 205.572 112 204.985 112C204.385 112 203.859 112.14 203.405 112.42C202.952 112.687 202.599 113.067 202.345 113.56C202.092 114.053 201.965 114.62 201.965 115.26C201.965 115.887 202.085 116.447 202.325 116.94C202.579 117.42 202.932 117.8 203.385 118.08C203.852 118.36 204.379 118.5 204.965 118.5ZM211.906 120V105.72H213.706V120H211.906ZM216.36 120V110.5H218.16V120H216.36ZM217.26 108.6C216.926 108.6 216.653 108.493 216.44 108.28C216.226 108.053 216.12 107.773 216.12 107.44C216.12 107.12 216.226 106.853 216.44 106.64C216.653 106.413 216.926 106.3 217.26 106.3C217.593 106.3 217.866 106.413 218.08 106.64C218.293 106.853 218.4 107.12 218.4 107.44C218.4 107.773 218.293 108.053 218.08 108.28C217.866 108.493 217.593 108.6 217.26 108.6ZM224.852 120.2C223.986 120.2 223.199 119.987 222.492 119.56C221.786 119.12 221.226 118.527 220.812 117.78C220.412 117.033 220.212 116.193 220.212 115.26C220.212 114.327 220.412 113.487 220.812 112.74C221.226 111.993 221.779 111.4 222.472 110.96C223.179 110.52 223.972 110.3 224.852 110.3C225.572 110.3 226.212 110.453 226.772 110.76C227.346 111.053 227.806 111.467 228.152 112C228.499 112.52 228.692 113.127 228.732 113.82V116.68C228.692 117.36 228.499 117.967 228.152 118.5C227.819 119.033 227.366 119.453 226.792 119.76C226.232 120.053 225.586 120.2 224.852 120.2ZM225.152 118.5C226.046 118.5 226.766 118.2 227.312 117.6C227.859 116.987 228.132 116.207 228.132 115.26C228.132 114.607 228.006 114.04 227.752 113.56C227.512 113.067 227.166 112.687 226.712 112.42C226.259 112.14 225.732 112 225.132 112C224.532 112 223.999 112.14 223.532 112.42C223.079 112.7 222.719 113.087 222.452 113.58C222.199 114.06 222.072 114.613 222.072 115.24C222.072 115.88 222.199 116.447 222.452 116.94C222.719 117.42 223.086 117.8 223.552 118.08C224.019 118.36 224.552 118.5 225.152 118.5ZM228.012 120V117.44L228.352 115.12L228.012 112.82V110.5H229.832V120H228.012ZM239.173 120V114.46C239.173 113.74 238.946 113.147 238.493 112.68C238.039 112.213 237.453 111.98 236.733 111.98C236.253 111.98 235.826 112.087 235.453 112.3C235.079 112.513 234.786 112.807 234.573 113.18C234.359 113.553 234.253 113.98 234.253 114.46L233.513 114.04C233.513 113.32 233.673 112.68 233.993 112.12C234.313 111.56 234.759 111.12 235.333 110.8C235.906 110.467 236.553 110.3 237.273 110.3C237.993 110.3 238.626 110.48 239.173 110.84C239.733 111.2 240.173 111.673 240.493 112.26C240.813 112.833 240.973 113.447 240.973 114.1V120H239.173ZM232.453 120V110.5H234.253V120H232.453ZM247.75 120.2C246.817 120.2 245.97 119.98 245.21 119.54C244.463 119.1 243.87 118.507 243.43 117.76C243.003 117 242.79 116.16 242.79 115.24C242.79 114.307 243.003 113.467 243.43 112.72C243.87 111.973 244.463 111.387 245.21 110.96C245.97 110.52 246.817 110.3 247.75 110.3C248.483 110.3 249.163 110.44 249.79 110.72C250.417 110.987 250.957 111.38 251.41 111.9L250.21 113.1C249.917 112.753 249.557 112.493 249.13 112.32C248.717 112.133 248.257 112.04 247.75 112.04C247.15 112.04 246.617 112.18 246.15 112.46C245.683 112.727 245.317 113.1 245.05 113.58C244.783 114.06 244.65 114.613 244.65 115.24C244.65 115.867 244.783 116.42 245.05 116.9C245.317 117.38 245.683 117.76 246.15 118.04C246.617 118.32 247.15 118.46 247.75 118.46C248.257 118.46 248.717 118.373 249.13 118.2C249.557 118.013 249.923 117.747 250.23 117.4L251.41 118.6C250.97 119.107 250.43 119.5 249.79 119.78C249.163 120.06 248.483 120.2 247.75 120.2ZM257.419 120.2C256.473 120.2 255.619 119.987 254.859 119.56C254.099 119.12 253.499 118.527 253.059 117.78C252.619 117.033 252.399 116.187 252.399 115.24C252.399 114.307 252.613 113.467 253.039 112.72C253.479 111.973 254.066 111.387 254.799 110.96C255.546 110.52 256.379 110.3 257.299 110.3C258.179 110.3 258.953 110.5 259.619 110.9C260.299 111.3 260.826 111.853 261.199 112.56C261.586 113.267 261.779 114.067 261.779 114.96C261.779 115.093 261.773 115.24 261.759 115.4C261.746 115.547 261.719 115.72 261.679 115.92H253.659V114.42H260.719L260.059 115C260.059 114.36 259.946 113.82 259.719 113.38C259.493 112.927 259.173 112.58 258.759 112.34C258.346 112.087 257.846 111.96 257.259 111.96C256.646 111.96 256.106 112.093 255.639 112.36C255.173 112.627 254.813 113 254.559 113.48C254.306 113.96 254.179 114.527 254.179 115.18C254.179 115.847 254.313 116.433 254.579 116.94C254.846 117.433 255.226 117.82 255.719 118.1C256.213 118.367 256.779 118.5 257.419 118.5C257.953 118.5 258.439 118.407 258.879 118.22C259.333 118.033 259.719 117.753 260.039 117.38L261.199 118.56C260.746 119.093 260.186 119.5 259.519 119.78C258.866 120.06 258.166 120.2 257.419 120.2ZM269.362 120V106.52H271.162V120H269.362ZM267.022 112.14V110.5H273.502V112.14H267.022ZM279.312 120.2C278.379 120.2 277.539 119.98 276.792 119.54C276.046 119.1 275.452 118.507 275.012 117.76C274.572 117 274.352 116.153 274.352 115.22C274.352 114.3 274.572 113.473 275.012 112.74C275.452 111.993 276.046 111.4 276.792 110.96C277.539 110.52 278.379 110.3 279.312 110.3C280.232 110.3 281.066 110.52 281.812 110.96C282.572 111.387 283.172 111.973 283.612 112.72C284.052 113.467 284.272 114.3 284.272 115.22C284.272 116.153 284.052 117 283.612 117.76C283.172 118.507 282.572 119.1 281.812 119.54C281.066 119.98 280.232 120.2 279.312 120.2ZM279.312 118.46C279.912 118.46 280.446 118.32 280.912 118.04C281.379 117.76 281.746 117.38 282.012 116.9C282.279 116.407 282.412 115.847 282.412 115.22C282.412 114.607 282.272 114.06 281.992 113.58C281.726 113.1 281.359 112.727 280.892 112.46C280.439 112.18 279.912 112.04 279.312 112.04C278.712 112.04 278.179 112.18 277.712 112.46C277.246 112.727 276.879 113.1 276.612 113.58C276.346 114.06 276.212 114.607 276.212 115.22C276.212 115.847 276.346 116.407 276.612 116.9C276.879 117.38 277.246 117.76 277.712 118.04C278.179 118.32 278.712 118.46 279.312 118.46ZM45.34 150.2C44.46 150.2 43.6733 149.987 42.98 149.56C42.2867 149.12 41.7333 148.527 41.32 147.78C40.92 147.033 40.72 146.193 40.72 145.26C40.72 144.327 40.92 143.487 41.32 142.74C41.7333 141.993 42.2867 141.4 42.98 140.96C43.6733 140.52 44.46 140.3 45.34 140.3C46.0467 140.3 46.6867 140.453 47.26 140.76C47.8333 141.053 48.2933 141.467 48.64 142C49 142.52 49.2 143.127 49.24 143.82V146.68C49.2 147.36 49.0067 147.967 48.66 148.5C48.3133 149.033 47.8533 149.453 47.28 149.76C46.7067 150.053 46.06 150.2 45.34 150.2ZM45.64 148.5C46.24 148.5 46.76 148.36 47.2 148.08C47.6533 147.8 48.0067 147.42 48.26 146.94C48.5133 146.447 48.64 145.887 48.64 145.26C48.64 144.607 48.5067 144.04 48.24 143.56C47.9867 143.08 47.6333 142.7 47.18 142.42C46.74 142.14 46.22 142 45.62 142C45.02 142 44.4933 142.14 44.04 142.42C43.5867 142.7 43.2267 143.087 42.96 143.58C42.7067 144.06 42.58 144.613 42.58 145.24C42.58 145.88 42.7067 146.447 42.96 146.94C43.2267 147.42 43.5867 147.8 44.04 148.08C44.5067 148.36 45.04 148.5 45.64 148.5ZM50.34 150H48.52V147.44L48.86 145.12L48.52 142.82V135.72H50.34V150ZM57.3606 150.2C56.414 150.2 55.5606 149.987 54.8006 149.56C54.0406 149.12 53.4406 148.527 53.0006 147.78C52.5606 147.033 52.3406 146.187 52.3406 145.24C52.3406 144.307 52.554 143.467 52.9806 142.72C53.4206 141.973 54.0073 141.387 54.7406 140.96C55.4873 140.52 56.3206 140.3 57.2406 140.3C58.1206 140.3 58.894 140.5 59.5606 140.9C60.2406 141.3 60.7673 141.853 61.1406 142.56C61.5273 143.267 61.7206 144.067 61.7206 144.96C61.7206 145.093 61.714 145.24 61.7006 145.4C61.6873 145.547 61.6606 145.72 61.6206 145.92H53.6006V144.42H60.6606L60.0006 145C60.0006 144.36 59.8873 143.82 59.6606 143.38C59.434 142.927 59.114 142.58 58.7006 142.34C58.2873 142.087 57.7873 141.96 57.2006 141.96C56.5873 141.96 56.0473 142.093 55.5806 142.36C55.114 142.627 54.754 143 54.5006 143.48C54.2473 143.96 54.1206 144.527 54.1206 145.18C54.1206 145.847 54.254 146.433 54.5206 146.94C54.7873 147.433 55.1673 147.82 55.6606 148.1C56.154 148.367 56.7206 148.5 57.3606 148.5C57.894 148.5 58.3806 148.407 58.8206 148.22C59.274 148.033 59.6606 147.753 59.9806 147.38L61.1406 148.56C60.6873 149.093 60.1273 149.5 59.4606 149.78C58.8073 150.06 58.1073 150.2 57.3606 150.2ZM63.6833 150V140.5H65.4833V150H63.6833ZM70.1033 150V144.26C70.1033 143.553 69.8833 143 69.4433 142.6C69.0166 142.187 68.4766 141.98 67.8233 141.98C67.3833 141.98 66.9899 142.073 66.6433 142.26C66.2966 142.447 66.0166 142.707 65.8033 143.04C65.5899 143.373 65.4833 143.773 65.4833 144.24L64.7433 143.88C64.7433 143.16 64.8966 142.533 65.2033 142C65.5233 141.467 65.9566 141.053 66.5033 140.76C67.0499 140.453 67.6633 140.3 68.3433 140.3C69.0099 140.3 69.6099 140.447 70.1433 140.74C70.6899 141.033 71.1166 141.447 71.4233 141.98C71.7433 142.513 71.9033 143.147 71.9033 143.88V150H70.1033ZM76.5233 150V144.26C76.5233 143.553 76.3033 143 75.8633 142.6C75.4366 142.187 74.9033 141.98 74.2633 141.98C73.8233 141.98 73.4233 142.073 73.0633 142.26C72.7166 142.447 72.4366 142.707 72.2233 143.04C72.0099 143.373 71.9033 143.773 71.9033 144.24L70.8833 143.88C70.9233 143.147 71.1166 142.52 71.4633 142C71.8233 141.467 72.2833 141.053 72.8433 140.76C73.4033 140.453 74.0166 140.3 74.6833 140.3C75.3766 140.3 75.9966 140.447 76.5433 140.74C77.0899 141.033 77.5233 141.447 77.8433 141.98C78.1766 142.513 78.3433 143.153 78.3433 143.9V150H76.5233ZM85.1327 150.2C84.1993 150.2 83.3593 149.98 82.6127 149.54C81.866 149.1 81.2727 148.507 80.8327 147.76C80.3927 147 80.1727 146.153 80.1727 145.22C80.1727 144.3 80.3927 143.473 80.8327 142.74C81.2727 141.993 81.866 141.4 82.6127 140.96C83.3593 140.52 84.1993 140.3 85.1327 140.3C86.0527 140.3 86.886 140.52 87.6327 140.96C88.3927 141.387 88.9927 141.973 89.4327 142.72C89.8727 143.467 90.0927 144.3 90.0927 145.22C90.0927 146.153 89.8727 147 89.4327 147.76C88.9927 148.507 88.3927 149.1 87.6327 149.54C86.886 149.98 86.0527 150.2 85.1327 150.2ZM85.1327 148.46C85.7327 148.46 86.266 148.32 86.7327 148.04C87.1993 147.76 87.566 147.38 87.8327 146.9C88.0993 146.407 88.2327 145.847 88.2327 145.22C88.2327 144.607 88.0927 144.06 87.8127 143.58C87.546 143.1 87.1793 142.727 86.7127 142.46C86.2593 142.18 85.7327 142.04 85.1327 142.04C84.5327 142.04 83.9993 142.18 83.5327 142.46C83.066 142.727 82.6993 143.1 82.4327 143.58C82.166 144.06 82.0327 144.607 82.0327 145.22C82.0327 145.847 82.166 146.407 82.4327 146.9C82.6993 147.38 83.066 147.76 83.5327 148.04C83.9993 148.32 84.5327 148.46 85.1327 148.46ZM98.8408 150V144.46C98.8408 143.74 98.6141 143.147 98.1608 142.68C97.7074 142.213 97.1208 141.98 96.4008 141.98C95.9208 141.98 95.4941 142.087 95.1208 142.3C94.7474 142.513 94.4541 142.807 94.2408 143.18C94.0274 143.553 93.9208 143.98 93.9208 144.46L93.1808 144.04C93.1808 143.32 93.3408 142.68 93.6608 142.12C93.9808 141.56 94.4274 141.12 95.0008 140.8C95.5741 140.467 96.2208 140.3 96.9408 140.3C97.6608 140.3 98.2941 140.48 98.8408 140.84C99.4008 141.2 99.8408 141.673 100.161 142.26C100.481 142.833 100.641 143.447 100.641 144.1V150H98.8408ZM92.1208 150V140.5H93.9208V150H92.1208ZM106.098 150.2C105.564 150.2 105.058 150.133 104.578 150C104.111 149.853 103.678 149.653 103.278 149.4C102.878 149.133 102.531 148.82 102.238 148.46L103.398 147.3C103.744 147.727 104.144 148.047 104.598 148.26C105.051 148.46 105.558 148.56 106.118 148.56C106.678 148.56 107.111 148.467 107.418 148.28C107.724 148.08 107.878 147.807 107.878 147.46C107.878 147.113 107.751 146.847 107.498 146.66C107.258 146.46 106.944 146.3 106.558 146.18C106.171 146.047 105.758 145.92 105.318 145.8C104.891 145.667 104.484 145.5 104.098 145.3C103.711 145.1 103.391 144.827 103.138 144.48C102.898 144.133 102.778 143.673 102.778 143.1C102.778 142.527 102.918 142.033 103.198 141.62C103.478 141.193 103.864 140.867 104.358 140.64C104.864 140.413 105.471 140.3 106.178 140.3C106.924 140.3 107.584 140.433 108.158 140.7C108.744 140.953 109.224 141.34 109.598 141.86L108.438 143.02C108.171 142.673 107.838 142.407 107.438 142.22C107.051 142.033 106.611 141.94 106.118 141.94C105.598 141.94 105.198 142.033 104.918 142.22C104.651 142.393 104.518 142.64 104.518 142.96C104.518 143.28 104.638 143.527 104.878 143.7C105.118 143.873 105.431 144.02 105.818 144.14C106.218 144.26 106.631 144.387 107.058 144.52C107.484 144.64 107.891 144.807 108.278 145.02C108.664 145.233 108.978 145.52 109.218 145.88C109.471 146.24 109.598 146.713 109.598 147.3C109.598 148.193 109.278 148.9 108.638 149.42C108.011 149.94 107.164 150.2 106.098 150.2ZM113.073 150V136.52H114.873V150H113.073ZM110.733 142.14V140.5H117.213V142.14H110.733ZM118.976 150V140.5H120.776V150H118.976ZM120.776 144.58L120.096 144.28C120.096 143.067 120.376 142.1 120.936 141.38C121.496 140.66 122.303 140.3 123.356 140.3C123.836 140.3 124.27 140.387 124.656 140.56C125.043 140.72 125.403 140.993 125.736 141.38L124.556 142.6C124.356 142.387 124.136 142.233 123.896 142.14C123.656 142.047 123.376 142 123.056 142C122.39 142 121.843 142.213 121.416 142.64C120.99 143.067 120.776 143.713 120.776 144.58ZM130.731 150.2C129.864 150.2 129.078 149.987 128.371 149.56C127.664 149.12 127.104 148.527 126.691 147.78C126.291 147.033 126.091 146.193 126.091 145.26C126.091 144.327 126.291 143.487 126.691 142.74C127.104 141.993 127.658 141.4 128.351 140.96C129.058 140.52 129.851 140.3 130.731 140.3C131.451 140.3 132.091 140.453 132.651 140.76C133.224 141.053 133.684 141.467 134.031 142C134.378 142.52 134.571 143.127 134.611 143.82V146.68C134.571 147.36 134.378 147.967 134.031 148.5C133.698 149.033 133.244 149.453 132.671 149.76C132.111 150.053 131.464 150.2 130.731 150.2ZM131.031 148.5C131.924 148.5 132.644 148.2 133.191 147.6C133.738 146.987 134.011 146.207 134.011 145.26C134.011 144.607 133.884 144.04 133.631 143.56C133.391 143.067 133.044 142.687 132.591 142.42C132.138 142.14 131.611 142 131.011 142C130.411 142 129.878 142.14 129.411 142.42C128.958 142.7 128.598 143.087 128.331 143.58C128.078 144.06 127.951 144.613 127.951 145.24C127.951 145.88 128.078 146.447 128.331 146.94C128.598 147.42 128.964 147.8 129.431 148.08C129.898 148.36 130.431 148.5 131.031 148.5ZM133.891 150V147.44L134.231 145.12L133.891 142.82V140.5H135.711V150H133.891ZM139.753 150V136.52H141.553V150H139.753ZM137.413 142.14V140.5H143.893V142.14H137.413ZM149.763 150.2C148.816 150.2 147.963 149.987 147.203 149.56C146.443 149.12 145.843 148.527 145.403 147.78C144.963 147.033 144.743 146.187 144.743 145.24C144.743 144.307 144.956 143.467 145.383 142.72C145.823 141.973 146.41 141.387 147.143 140.96C147.89 140.52 148.723 140.3 149.643 140.3C150.523 140.3 151.296 140.5 151.963 140.9C152.643 141.3 153.17 141.853 153.543 142.56C153.93 143.267 154.123 144.067 154.123 144.96C154.123 145.093 154.116 145.24 154.103 145.4C154.09 145.547 154.063 145.72 154.023 145.92H146.003V144.42H153.063L152.403 145C152.403 144.36 152.29 143.82 152.063 143.38C151.836 142.927 151.516 142.58 151.103 142.34C150.69 142.087 150.19 141.96 149.603 141.96C148.99 141.96 148.45 142.093 147.983 142.36C147.516 142.627 147.156 143 146.903 143.48C146.65 143.96 146.523 144.527 146.523 145.18C146.523 145.847 146.656 146.433 146.923 146.94C147.19 147.433 147.57 147.82 148.063 148.1C148.556 148.367 149.123 148.5 149.763 148.5C150.296 148.5 150.783 148.407 151.223 148.22C151.676 148.033 152.063 147.753 152.383 147.38L153.543 148.56C153.09 149.093 152.53 149.5 151.863 149.78C151.21 150.06 150.51 150.2 149.763 150.2ZM164.586 150.2C163.652 150.2 162.812 149.98 162.066 149.54C161.319 149.1 160.726 148.507 160.286 147.76C159.846 147 159.626 146.153 159.626 145.22C159.626 144.3 159.846 143.473 160.286 142.74C160.726 141.993 161.319 141.4 162.066 140.96C162.812 140.52 163.652 140.3 164.586 140.3C165.506 140.3 166.339 140.52 167.086 140.96C167.846 141.387 168.446 141.973 168.886 142.72C169.326 143.467 169.546 144.3 169.546 145.22C169.546 146.153 169.326 147 168.886 147.76C168.446 148.507 167.846 149.1 167.086 149.54C166.339 149.98 165.506 150.2 164.586 150.2ZM164.586 148.46C165.186 148.46 165.719 148.32 166.186 148.04C166.652 147.76 167.019 147.38 167.286 146.9C167.552 146.407 167.686 145.847 167.686 145.22C167.686 144.607 167.546 144.06 167.266 143.58C166.999 143.1 166.632 142.727 166.166 142.46C165.712 142.18 165.186 142.04 164.586 142.04C163.986 142.04 163.452 142.18 162.986 142.46C162.519 142.727 162.152 143.1 161.886 143.58C161.619 144.06 161.486 144.607 161.486 145.22C161.486 145.847 161.619 146.407 161.886 146.9C162.152 147.38 162.519 147.76 162.986 148.04C163.452 148.32 163.986 148.46 164.586 148.46ZM175.414 150.2C174.627 150.2 173.921 150.027 173.294 149.68C172.681 149.32 172.201 148.827 171.854 148.2C171.507 147.573 171.334 146.847 171.334 146.02V140.5H173.134V145.94C173.134 146.46 173.221 146.913 173.394 147.3C173.581 147.673 173.847 147.96 174.194 148.16C174.541 148.36 174.947 148.46 175.414 148.46C176.121 148.46 176.674 148.24 177.074 147.8C177.474 147.347 177.674 146.727 177.674 145.94V140.5H179.474V146.02C179.474 146.847 179.301 147.573 178.954 148.2C178.607 148.827 178.127 149.32 177.514 149.68C176.914 150.027 176.214 150.2 175.414 150.2ZM181.886 150V140.5H183.686V150H181.886ZM183.686 144.58L183.006 144.28C183.006 143.067 183.286 142.1 183.846 141.38C184.406 140.66 185.213 140.3 186.266 140.3C186.746 140.3 187.18 140.387 187.566 140.56C187.953 140.72 188.313 140.993 188.646 141.38L187.466 142.6C187.266 142.387 187.046 142.233 186.806 142.14C186.566 142.047 186.286 142 185.966 142C185.3 142 184.753 142.213 184.326 142.64C183.9 143.067 183.686 143.713 183.686 144.58ZM198.765 150.2C197.832 150.2 196.985 149.98 196.225 149.54C195.479 149.1 194.885 148.507 194.445 147.76C194.019 147 193.805 146.16 193.805 145.24C193.805 144.307 194.019 143.467 194.445 142.72C194.885 141.973 195.479 141.387 196.225 140.96C196.985 140.52 197.832 140.3 198.765 140.3C199.499 140.3 200.179 140.44 200.805 140.72C201.432 140.987 201.972 141.38 202.425 141.9L201.225 143.1C200.932 142.753 200.572 142.493 200.145 142.32C199.732 142.133 199.272 142.04 198.765 142.04C198.165 142.04 197.632 142.18 197.165 142.46C196.699 142.727 196.332 143.1 196.065 143.58C195.799 144.06 195.665 144.613 195.665 145.24C195.665 145.867 195.799 146.42 196.065 146.9C196.332 147.38 196.699 147.76 197.165 148.04C197.632 148.32 198.165 148.46 198.765 148.46C199.272 148.46 199.732 148.373 200.145 148.2C200.572 148.013 200.939 147.747 201.245 147.4L202.425 148.6C201.985 149.107 201.445 149.5 200.805 149.78C200.179 150.06 199.499 150.2 198.765 150.2ZM208.375 150.2C207.442 150.2 206.602 149.98 205.855 149.54C205.108 149.1 204.515 148.507 204.075 147.76C203.635 147 203.415 146.153 203.415 145.22C203.415 144.3 203.635 143.473 204.075 142.74C204.515 141.993 205.108 141.4 205.855 140.96C206.602 140.52 207.442 140.3 208.375 140.3C209.295 140.3 210.128 140.52 210.875 140.96C211.635 141.387 212.235 141.973 212.675 142.72C213.115 143.467 213.335 144.3 213.335 145.22C213.335 146.153 213.115 147 212.675 147.76C212.235 148.507 211.635 149.1 210.875 149.54C210.128 149.98 209.295 150.2 208.375 150.2ZM208.375 148.46C208.975 148.46 209.508 148.32 209.975 148.04C210.442 147.76 210.808 147.38 211.075 146.9C211.342 146.407 211.475 145.847 211.475 145.22C211.475 144.607 211.335 144.06 211.055 143.58C210.788 143.1 210.422 142.727 209.955 142.46C209.502 142.18 208.975 142.04 208.375 142.04C207.775 142.04 207.242 142.18 206.775 142.46C206.308 142.727 205.942 143.1 205.675 143.58C205.408 144.06 205.275 144.607 205.275 145.22C205.275 145.847 205.408 146.407 205.675 146.9C205.942 147.38 206.308 147.76 206.775 148.04C207.242 148.32 207.775 148.46 208.375 148.46ZM215.363 150V140.5H217.163V150H215.363ZM221.783 150V144.26C221.783 143.553 221.563 143 221.123 142.6C220.696 142.187 220.156 141.98 219.503 141.98C219.063 141.98 218.67 142.073 218.323 142.26C217.976 142.447 217.696 142.707 217.483 143.04C217.27 143.373 217.163 143.773 217.163 144.24L216.423 143.88C216.423 143.16 216.576 142.533 216.883 142C217.203 141.467 217.636 141.053 218.183 140.76C218.73 140.453 219.343 140.3 220.023 140.3C220.69 140.3 221.29 140.447 221.823 140.74C222.37 141.033 222.796 141.447 223.103 141.98C223.423 142.513 223.583 143.147 223.583 143.88V150H221.783ZM228.203 150V144.26C228.203 143.553 227.983 143 227.543 142.6C227.116 142.187 226.583 141.98 225.943 141.98C225.503 141.98 225.103 142.073 224.743 142.26C224.396 142.447 224.116 142.707 223.903 143.04C223.69 143.373 223.583 143.773 223.583 144.24L222.563 143.88C222.603 143.147 222.796 142.52 223.143 142C223.503 141.467 223.963 141.053 224.523 140.76C225.083 140.453 225.696 140.3 226.363 140.3C227.056 140.3 227.676 140.447 228.223 140.74C228.77 141.033 229.203 141.447 229.523 141.98C229.856 142.513 230.023 143.153 230.023 143.9V150H228.203ZM232.472 150V140.5H234.272V150H232.472ZM238.892 150V144.26C238.892 143.553 238.672 143 238.232 142.6C237.806 142.187 237.266 141.98 236.612 141.98C236.172 141.98 235.779 142.073 235.432 142.26C235.086 142.447 234.806 142.707 234.592 143.04C234.379 143.373 234.272 143.773 234.272 144.24L233.532 143.88C233.532 143.16 233.686 142.533 233.992 142C234.312 141.467 234.746 141.053 235.292 140.76C235.839 140.453 236.452 140.3 237.132 140.3C237.799 140.3 238.399 140.447 238.932 140.74C239.479 141.033 239.906 141.447 240.212 141.98C240.532 142.513 240.692 143.147 240.692 143.88V150H238.892ZM245.312 150V144.26C245.312 143.553 245.092 143 244.652 142.6C244.226 142.187 243.692 141.98 243.052 141.98C242.612 141.98 242.212 142.073 241.852 142.26C241.506 142.447 241.226 142.707 241.012 143.04C240.799 143.373 240.692 143.773 240.692 144.24L239.672 143.88C239.712 143.147 239.906 142.52 240.252 142C240.612 141.467 241.072 141.053 241.632 140.76C242.192 140.453 242.806 140.3 243.472 140.3C244.166 140.3 244.786 140.447 245.332 140.74C245.879 141.033 246.312 141.447 246.632 141.98C246.966 142.513 247.132 143.153 247.132 143.9V150H245.312ZM249.602 150V140.5H251.402V150H249.602ZM250.502 138.6C250.168 138.6 249.895 138.493 249.682 138.28C249.468 138.053 249.362 137.773 249.362 137.44C249.362 137.12 249.468 136.853 249.682 136.64C249.895 136.413 250.168 136.3 250.502 136.3C250.835 136.3 251.108 136.413 251.322 136.64C251.535 136.853 251.642 137.12 251.642 137.44C251.642 137.773 251.535 138.053 251.322 138.28C251.108 138.493 250.835 138.6 250.502 138.6ZM255.514 150V136.52H257.314V150H255.514ZM253.174 142.14V140.5H259.654V142.14H253.174ZM261.418 150V140.5H263.218V150H261.418ZM267.838 150V144.26C267.838 143.553 267.618 143 267.178 142.6C266.751 142.187 266.211 141.98 265.558 141.98C265.118 141.98 264.724 142.073 264.378 142.26C264.031 142.447 263.751 142.707 263.538 143.04C263.324 143.373 263.218 143.773 263.218 144.24L262.478 143.88C262.478 143.16 262.631 142.533 262.938 142C263.258 141.467 263.691 141.053 264.238 140.76C264.784 140.453 265.398 140.3 266.078 140.3C266.744 140.3 267.344 140.447 267.878 140.74C268.424 141.033 268.851 141.447 269.158 141.98C269.478 142.513 269.638 143.147 269.638 143.88V150H267.838ZM274.258 150V144.26C274.258 143.553 274.038 143 273.598 142.6C273.171 142.187 272.638 141.98 271.998 141.98C271.558 141.98 271.158 142.073 270.798 142.26C270.451 142.447 270.171 142.707 269.958 143.04C269.744 143.373 269.638 143.773 269.638 144.24L268.618 143.88C268.658 143.147 268.851 142.52 269.198 142C269.558 141.467 270.018 141.053 270.578 140.76C271.138 140.453 271.751 140.3 272.418 140.3C273.111 140.3 273.731 140.447 274.278 140.74C274.824 141.033 275.258 141.447 275.578 141.98C275.911 142.513 276.078 143.153 276.078 143.9V150H274.258ZM282.927 150.2C281.98 150.2 281.127 149.987 280.367 149.56C279.607 149.12 279.007 148.527 278.567 147.78C278.127 147.033 277.907 146.187 277.907 145.24C277.907 144.307 278.12 143.467 278.547 142.72C278.987 141.973 279.574 141.387 280.307 140.96C281.054 140.52 281.887 140.3 282.807 140.3C283.687 140.3 284.46 140.5 285.127 140.9C285.807 141.3 286.334 141.853 286.707 142.56C287.094 143.267 287.287 144.067 287.287 144.96C287.287 145.093 287.28 145.24 287.267 145.4C287.254 145.547 287.227 145.72 287.187 145.92H279.167V144.42H286.227L285.567 145C285.567 144.36 285.454 143.82 285.227 143.38C285 142.927 284.68 142.58 284.267 142.34C283.854 142.087 283.354 141.96 282.767 141.96C282.154 141.96 281.614 142.093 281.147 142.36C280.68 142.627 280.32 143 280.067 143.48C279.814 143.96 279.687 144.527 279.687 145.18C279.687 145.847 279.82 146.433 280.087 146.94C280.354 147.433 280.734 147.82 281.227 148.1C281.72 148.367 282.287 148.5 282.927 148.5C283.46 148.5 283.947 148.407 284.387 148.22C284.84 148.033 285.227 147.753 285.547 147.38L286.707 148.56C286.254 149.093 285.694 149.5 285.027 149.78C284.374 150.06 283.674 150.2 282.927 150.2ZM295.97 150V144.46C295.97 143.74 295.743 143.147 295.29 142.68C294.836 142.213 294.25 141.98 293.53 141.98C293.05 141.98 292.623 142.087 292.25 142.3C291.876 142.513 291.583 142.807 291.37 143.18C291.156 143.553 291.05 143.98 291.05 144.46L290.31 144.04C290.31 143.32 290.47 142.68 290.79 142.12C291.11 141.56 291.556 141.12 292.13 140.8C292.703 140.467 293.35 140.3 294.07 140.3C294.79 140.3 295.423 140.48 295.97 140.84C296.53 141.2 296.97 141.673 297.29 142.26C297.61 142.833 297.77 143.447 297.77 144.1V150H295.97ZM289.25 150V140.5H291.05V150H289.25ZM301.55 150V136.52H303.35V150H301.55ZM299.21 142.14V140.5H305.69V142.14H299.21ZM42.78 180V166.52H44.58V180H42.78ZM40.44 172.14V170.5H46.92V172.14H40.44ZM52.7303 180.2C51.797 180.2 50.957 179.98 50.2103 179.54C49.4636 179.1 48.8703 178.507 48.4303 177.76C47.9903 177 47.7703 176.153 47.7703 175.22C47.7703 174.3 47.9903 173.473 48.4303 172.74C48.8703 171.993 49.4636 171.4 50.2103 170.96C50.957 170.52 51.797 170.3 52.7303 170.3C53.6503 170.3 54.4836 170.52 55.2303 170.96C55.9903 171.387 56.5903 171.973 57.0303 172.72C57.4703 173.467 57.6903 174.3 57.6903 175.22C57.6903 176.153 57.4703 177 57.0303 177.76C56.5903 178.507 55.9903 179.1 55.2303 179.54C54.4836 179.98 53.6503 180.2 52.7303 180.2ZM52.7303 178.46C53.3303 178.46 53.8636 178.32 54.3303 178.04C54.797 177.76 55.1636 177.38 55.4303 176.9C55.697 176.407 55.8303 175.847 55.8303 175.22C55.8303 174.607 55.6903 174.06 55.4103 173.58C55.1436 173.1 54.777 172.727 54.3103 172.46C53.857 172.18 53.3303 172.04 52.7303 172.04C52.1303 172.04 51.597 172.18 51.1303 172.46C50.6636 172.727 50.297 173.1 50.0303 173.58C49.7636 174.06 49.6303 174.607 49.6303 175.22C49.6303 175.847 49.7636 176.407 50.0303 176.9C50.297 177.38 50.6636 177.76 51.1303 178.04C51.597 178.32 52.1303 178.46 52.7303 178.46ZM66.8986 180.2C66.3653 180.2 65.8586 180.133 65.3786 180C64.9119 179.853 64.4786 179.653 64.0786 179.4C63.6786 179.133 63.3319 178.82 63.0386 178.46L64.1986 177.3C64.5453 177.727 64.9453 178.047 65.3986 178.26C65.8519 178.46 66.3586 178.56 66.9186 178.56C67.4786 178.56 67.9119 178.467 68.2186 178.28C68.5253 178.08 68.6786 177.807 68.6786 177.46C68.6786 177.113 68.5519 176.847 68.2986 176.66C68.0586 176.46 67.7453 176.3 67.3586 176.18C66.9719 176.047 66.5586 175.92 66.1186 175.8C65.6919 175.667 65.2853 175.5 64.8986 175.3C64.5119 175.1 64.1919 174.827 63.9386 174.48C63.6986 174.133 63.5786 173.673 63.5786 173.1C63.5786 172.527 63.7186 172.033 63.9986 171.62C64.2786 171.193 64.6653 170.867 65.1586 170.64C65.6653 170.413 66.2719 170.3 66.9786 170.3C67.7253 170.3 68.3853 170.433 68.9586 170.7C69.5453 170.953 70.0253 171.34 70.3986 171.86L69.2386 173.02C68.9719 172.673 68.6386 172.407 68.2386 172.22C67.8519 172.033 67.4119 171.94 66.9186 171.94C66.3986 171.94 65.9986 172.033 65.7186 172.22C65.4519 172.393 65.3186 172.64 65.3186 172.96C65.3186 173.28 65.4386 173.527 65.6786 173.7C65.9186 173.873 66.2319 174.02 66.6186 174.14C67.0186 174.26 67.4319 174.387 67.8586 174.52C68.2853 174.64 68.6919 174.807 69.0786 175.02C69.4653 175.233 69.7786 175.52 70.0186 175.88C70.2719 176.24 70.3986 176.713 70.3986 177.3C70.3986 178.193 70.0786 178.9 69.4386 179.42C68.8119 179.94 67.9653 180.2 66.8986 180.2ZM73.8738 180V166.52H75.6738V180H73.8738ZM71.5338 172.14V170.5H78.0138V172.14H71.5338ZM83.5241 180.2C82.6574 180.2 81.8707 179.987 81.1641 179.56C80.4574 179.12 79.8974 178.527 79.4841 177.78C79.0841 177.033 78.8841 176.193 78.8841 175.26C78.8841 174.327 79.0841 173.487 79.4841 172.74C79.8974 171.993 80.4507 171.4 81.1441 170.96C81.8507 170.52 82.6441 170.3 83.5241 170.3C84.2441 170.3 84.8841 170.453 85.4441 170.76C86.0174 171.053 86.4774 171.467 86.8241 172C87.1707 172.52 87.3641 173.127 87.4041 173.82V176.68C87.3641 177.36 87.1707 177.967 86.8241 178.5C86.4907 179.033 86.0374 179.453 85.4641 179.76C84.9041 180.053 84.2574 180.2 83.5241 180.2ZM83.8241 178.5C84.7174 178.5 85.4374 178.2 85.9841 177.6C86.5307 176.987 86.8041 176.207 86.8041 175.26C86.8041 174.607 86.6774 174.04 86.4241 173.56C86.1841 173.067 85.8374 172.687 85.3841 172.42C84.9307 172.14 84.4041 172 83.8041 172C83.2041 172 82.6707 172.14 82.2041 172.42C81.7507 172.7 81.3907 173.087 81.1241 173.58C80.8707 174.06 80.7441 174.613 80.7441 175.24C80.7441 175.88 80.8707 176.447 81.1241 176.94C81.3907 177.42 81.7574 177.8 82.2241 178.08C82.6907 178.36 83.2241 178.5 83.8241 178.5ZM86.6841 180V177.44L87.0241 175.12L86.6841 172.82V170.5H88.5041V180H86.6841ZM92.5456 180V166.52H94.3456V180H92.5456ZM90.2056 172.14V170.5H96.6856V172.14H90.2056ZM102.556 180.2C101.609 180.2 100.756 179.987 99.9959 179.56C99.2359 179.12 98.6359 178.527 98.1959 177.78C97.7559 177.033 97.5359 176.187 97.5359 175.24C97.5359 174.307 97.7493 173.467 98.1759 172.72C98.6159 171.973 99.2026 171.387 99.9359 170.96C100.683 170.52 101.516 170.3 102.436 170.3C103.316 170.3 104.089 170.5 104.756 170.9C105.436 171.3 105.963 171.853 106.336 172.56C106.723 173.267 106.916 174.067 106.916 174.96C106.916 175.093 106.909 175.24 106.896 175.4C106.883 175.547 106.856 175.72 106.816 175.92H98.7959V174.42H105.856L105.196 175C105.196 174.36 105.083 173.82 104.856 173.38C104.629 172.927 104.309 172.58 103.896 172.34C103.483 172.087 102.983 171.96 102.396 171.96C101.783 171.96 101.243 172.093 100.776 172.36C100.309 172.627 99.9493 173 99.6959 173.48C99.4426 173.96 99.3159 174.527 99.3159 175.18C99.3159 175.847 99.4493 176.433 99.7159 176.94C99.9826 177.433 100.363 177.82 100.856 178.1C101.349 178.367 101.916 178.5 102.556 178.5C103.089 178.5 103.576 178.407 104.016 178.22C104.469 178.033 104.856 177.753 105.176 177.38L106.336 178.56C105.883 179.093 105.323 179.5 104.656 179.78C104.003 180.06 103.303 180.2 102.556 180.2ZM117.379 180.2C116.445 180.2 115.605 179.98 114.859 179.54C114.112 179.1 113.519 178.507 113.079 177.76C112.639 177 112.419 176.153 112.419 175.22C112.419 174.3 112.639 173.473 113.079 172.74C113.519 171.993 114.112 171.4 114.859 170.96C115.605 170.52 116.445 170.3 117.379 170.3C118.299 170.3 119.132 170.52 119.879 170.96C120.639 171.387 121.239 171.973 121.679 172.72C122.119 173.467 122.339 174.3 122.339 175.22C122.339 176.153 122.119 177 121.679 177.76C121.239 178.507 120.639 179.1 119.879 179.54C119.132 179.98 118.299 180.2 117.379 180.2ZM117.379 178.46C117.979 178.46 118.512 178.32 118.979 178.04C119.445 177.76 119.812 177.38 120.079 176.9C120.345 176.407 120.479 175.847 120.479 175.22C120.479 174.607 120.339 174.06 120.059 173.58C119.792 173.1 119.425 172.727 118.959 172.46C118.505 172.18 117.979 172.04 117.379 172.04C116.779 172.04 116.245 172.18 115.779 172.46C115.312 172.727 114.945 173.1 114.679 173.58C114.412 174.06 114.279 174.607 114.279 175.22C114.279 175.847 114.412 176.407 114.679 176.9C114.945 177.38 115.312 177.76 115.779 178.04C116.245 178.32 116.779 178.46 117.379 178.46ZM125.434 180V169.08C125.434 168.373 125.587 167.76 125.894 167.24C126.201 166.707 126.621 166.287 127.154 165.98C127.701 165.673 128.334 165.52 129.054 165.52C129.601 165.52 130.074 165.613 130.474 165.8C130.874 165.987 131.241 166.26 131.574 166.62L130.394 167.78C130.221 167.593 130.027 167.453 129.814 167.36C129.601 167.253 129.341 167.2 129.034 167.2C128.461 167.2 128.014 167.367 127.694 167.7C127.387 168.033 127.234 168.493 127.234 169.08V180H125.434ZM123.094 172.14V170.5H130.254V172.14H123.094ZM137.682 180V166.52H139.482V180H137.682ZM135.342 172.14V170.5H141.822V172.14H135.342ZM150.306 180V174.46C150.306 173.74 150.079 173.147 149.626 172.68C149.172 172.213 148.586 171.98 147.866 171.98C147.386 171.98 146.959 172.087 146.586 172.3C146.212 172.513 145.919 172.807 145.706 173.18C145.492 173.553 145.386 173.98 145.386 174.46L144.646 174.04C144.646 173.32 144.806 172.68 145.126 172.12C145.446 171.56 145.892 171.12 146.466 170.8C147.039 170.467 147.686 170.3 148.406 170.3C149.126 170.3 149.759 170.46 150.306 170.78C150.866 171.1 151.306 171.547 151.626 172.12C151.946 172.693 152.106 173.353 152.106 174.1V180H150.306ZM143.586 180V165.72H145.386V180H143.586ZM158.943 180.2C157.996 180.2 157.143 179.987 156.383 179.56C155.623 179.12 155.023 178.527 154.583 177.78C154.143 177.033 153.923 176.187 153.923 175.24C153.923 174.307 154.136 173.467 154.563 172.72C155.003 171.973 155.589 171.387 156.323 170.96C157.069 170.52 157.903 170.3 158.823 170.3C159.703 170.3 160.476 170.5 161.143 170.9C161.823 171.3 162.349 171.853 162.723 172.56C163.109 173.267 163.303 174.067 163.303 174.96C163.303 175.093 163.296 175.24 163.283 175.4C163.269 175.547 163.243 175.72 163.203 175.92H155.183V174.42H162.243L161.583 175C161.583 174.36 161.469 173.82 161.243 173.38C161.016 172.927 160.696 172.58 160.283 172.34C159.869 172.087 159.369 171.96 158.783 171.96C158.169 171.96 157.629 172.093 157.163 172.36C156.696 172.627 156.336 173 156.083 173.48C155.829 173.96 155.703 174.527 155.703 175.18C155.703 175.847 155.836 176.433 156.103 176.94C156.369 177.433 156.749 177.82 157.243 178.1C157.736 178.367 158.303 178.5 158.943 178.5C159.476 178.5 159.963 178.407 160.403 178.22C160.856 178.033 161.243 177.753 161.563 177.38L162.723 178.56C162.269 179.093 161.709 179.5 161.043 179.78C160.389 180.06 159.689 180.2 158.943 180.2ZM173.465 180.2C172.599 180.2 171.812 179.987 171.105 179.56C170.399 179.12 169.839 178.527 169.425 177.78C169.025 177.033 168.825 176.193 168.825 175.26C168.825 174.327 169.025 173.487 169.425 172.74C169.839 171.993 170.392 171.4 171.085 170.96C171.792 170.52 172.585 170.3 173.465 170.3C174.185 170.3 174.825 170.453 175.385 170.76C175.959 171.053 176.419 171.467 176.765 172C177.112 172.52 177.305 173.127 177.345 173.82V176.68C177.305 177.36 177.112 177.967 176.765 178.5C176.432 179.033 175.979 179.453 175.405 179.76C174.845 180.053 174.199 180.2 173.465 180.2ZM173.765 178.5C174.659 178.5 175.379 178.2 175.925 177.6C176.472 176.987 176.745 176.207 176.745 175.26C176.745 174.607 176.619 174.04 176.365 173.56C176.125 173.067 175.779 172.687 175.325 172.42C174.872 172.14 174.345 172 173.745 172C173.145 172 172.612 172.14 172.145 172.42C171.692 172.7 171.332 173.087 171.065 173.58C170.812 174.06 170.685 174.613 170.685 175.24C170.685 175.88 170.812 176.447 171.065 176.94C171.332 177.42 171.699 177.8 172.165 178.08C172.632 178.36 173.165 178.5 173.765 178.5ZM176.625 180V177.44L176.965 175.12L176.625 172.82V170.5H178.445V180H176.625ZM181.066 180V170.5H182.866V180H181.066ZM182.866 174.58L182.186 174.28C182.186 173.067 182.466 172.1 183.026 171.38C183.586 170.66 184.393 170.3 185.446 170.3C185.926 170.3 186.359 170.387 186.746 170.56C187.133 170.72 187.493 170.993 187.826 171.38L186.646 172.6C186.446 172.387 186.226 172.233 185.986 172.14C185.746 172.047 185.466 172 185.146 172C184.479 172 183.933 172.213 183.506 172.64C183.079 173.067 182.866 173.713 182.866 174.58ZM190.534 180V166.52H192.334V180H190.534ZM188.194 172.14V170.5H194.674V172.14H188.194ZM203.617 180.2C203.084 180.2 202.577 180.133 202.097 180C201.631 179.853 201.197 179.653 200.797 179.4C200.397 179.133 200.051 178.82 199.757 178.46L200.917 177.3C201.264 177.727 201.664 178.047 202.117 178.26C202.571 178.46 203.077 178.56 203.637 178.56C204.197 178.56 204.631 178.467 204.937 178.28C205.244 178.08 205.397 177.807 205.397 177.46C205.397 177.113 205.271 176.847 205.017 176.66C204.777 176.46 204.464 176.3 204.077 176.18C203.691 176.047 203.277 175.92 202.837 175.8C202.411 175.667 202.004 175.5 201.617 175.3C201.231 175.1 200.911 174.827 200.657 174.48C200.417 174.133 200.297 173.673 200.297 173.1C200.297 172.527 200.437 172.033 200.717 171.62C200.997 171.193 201.384 170.867 201.877 170.64C202.384 170.413 202.991 170.3 203.697 170.3C204.444 170.3 205.104 170.433 205.677 170.7C206.264 170.953 206.744 171.34 207.117 171.86L205.957 173.02C205.691 172.673 205.357 172.407 204.957 172.22C204.571 172.033 204.131 171.94 203.637 171.94C203.117 171.94 202.717 172.033 202.437 172.22C202.171 172.393 202.037 172.64 202.037 172.96C202.037 173.28 202.157 173.527 202.397 173.7C202.637 173.873 202.951 174.02 203.337 174.14C203.737 174.26 204.151 174.387 204.577 174.52C205.004 174.64 205.411 174.807 205.797 175.02C206.184 175.233 206.497 175.52 206.737 175.88C206.991 176.24 207.117 176.713 207.117 177.3C207.117 178.193 206.797 178.9 206.157 179.42C205.531 179.94 204.684 180.2 203.617 180.2ZM213.533 180.2C212.586 180.2 211.733 179.987 210.973 179.56C210.213 179.12 209.613 178.527 209.173 177.78C208.733 177.033 208.513 176.187 208.513 175.24C208.513 174.307 208.726 173.467 209.153 172.72C209.593 171.973 210.179 171.387 210.913 170.96C211.659 170.52 212.493 170.3 213.413 170.3C214.293 170.3 215.066 170.5 215.733 170.9C216.413 171.3 216.939 171.853 217.313 172.56C217.699 173.267 217.893 174.067 217.893 174.96C217.893 175.093 217.886 175.24 217.873 175.4C217.859 175.547 217.833 175.72 217.793 175.92H209.773V174.42H216.833L216.173 175C216.173 174.36 216.059 173.82 215.833 173.38C215.606 172.927 215.286 172.58 214.873 172.34C214.459 172.087 213.959 171.96 213.373 171.96C212.759 171.96 212.219 172.093 211.753 172.36C211.286 172.627 210.926 173 210.673 173.48C210.419 173.96 210.293 174.527 210.293 175.18C210.293 175.847 210.426 176.433 210.693 176.94C210.959 177.433 211.339 177.82 211.833 178.1C212.326 178.367 212.893 178.5 213.533 178.5C214.066 178.5 214.553 178.407 214.993 178.22C215.446 178.033 215.833 177.753 216.153 177.38L217.313 178.56C216.859 179.093 216.299 179.5 215.633 179.78C214.979 180.06 214.279 180.2 213.533 180.2ZM224.195 180.2C223.262 180.2 222.415 179.98 221.655 179.54C220.908 179.1 220.315 178.507 219.875 177.76C219.448 177 219.235 176.16 219.235 175.24C219.235 174.307 219.448 173.467 219.875 172.72C220.315 171.973 220.908 171.387 221.655 170.96C222.415 170.52 223.262 170.3 224.195 170.3C224.928 170.3 225.608 170.44 226.235 170.72C226.862 170.987 227.402 171.38 227.855 171.9L226.655 173.1C226.362 172.753 226.002 172.493 225.575 172.32C225.162 172.133 224.702 172.04 224.195 172.04C223.595 172.04 223.062 172.18 222.595 172.46C222.128 172.727 221.762 173.1 221.495 173.58C221.228 174.06 221.095 174.613 221.095 175.24C221.095 175.867 221.228 176.42 221.495 176.9C221.762 177.38 222.128 177.76 222.595 178.04C223.062 178.32 223.595 178.46 224.195 178.46C224.702 178.46 225.162 178.373 225.575 178.2C226.002 178.013 226.368 177.747 226.675 177.4L227.855 178.6C227.415 179.107 226.875 179.5 226.235 179.78C225.608 180.06 224.928 180.2 224.195 180.2ZM233.48 180.2C232.694 180.2 231.987 180.027 231.36 179.68C230.747 179.32 230.267 178.827 229.92 178.2C229.574 177.573 229.4 176.847 229.4 176.02V170.5H231.2V175.94C231.2 176.46 231.287 176.913 231.46 177.3C231.647 177.673 231.914 177.96 232.26 178.16C232.607 178.36 233.014 178.46 233.48 178.46C234.187 178.46 234.74 178.24 235.14 177.8C235.54 177.347 235.74 176.727 235.74 175.94V170.5H237.54V176.02C237.54 176.847 237.367 177.573 237.02 178.2C236.674 178.827 236.194 179.32 235.58 179.68C234.98 180.027 234.28 180.2 233.48 180.2ZM239.953 180V170.5H241.753V180H239.953ZM241.753 174.58L241.073 174.28C241.073 173.067 241.353 172.1 241.913 171.38C242.473 170.66 243.279 170.3 244.333 170.3C244.813 170.3 245.246 170.387 245.633 170.56C246.019 170.72 246.379 170.993 246.713 171.38L245.533 172.6C245.333 172.387 245.113 172.233 244.873 172.14C244.633 172.047 244.353 172 244.033 172C243.366 172 242.819 172.213 242.393 172.64C241.966 173.067 241.753 173.713 241.753 174.58ZM248 180V170.5H249.8V180H248ZM248.9 168.6C248.567 168.6 248.293 168.493 248.08 168.28C247.867 168.053 247.76 167.773 247.76 167.44C247.76 167.12 247.867 166.853 248.08 166.64C248.293 166.413 248.567 166.3 248.9 166.3C249.233 166.3 249.507 166.413 249.72 166.64C249.933 166.853 250.04 167.12 250.04 167.44C250.04 167.773 249.933 168.053 249.72 168.28C249.507 168.493 249.233 168.6 248.9 168.6ZM253.913 180V166.52H255.713V180H253.913ZM251.573 172.14V170.5H258.053V172.14H251.573ZM262.936 180.08L258.816 170.5H260.816L263.876 178H263.236L266.456 170.5H268.456L264.016 180.08H262.936ZM260.216 183.98L263.016 178.24L264.016 180.08L262.216 183.98H260.216Z" fill="black"/>
<defs>
<linearGradient id="paint0_linear_4271_5892" x1="197.113" y1="228" x2="131.055" y2="21.0898" gradientUnits="userSpaceOnUse">
<stop stop-color="#E7EDF2"/>
<stop offset="1" stop-color="#F7FAFB"/>
</linearGradient>
<linearGradient id="paint1_linear_4271_5892" x1="344" y1="60.5" x2="40" y2="60.5" gradientUnits="userSpaceOnUse">
<stop stop-color="#2DD5C3"/>
<stop offset="1" stop-color="#0076FF"/>
</linearGradient>
</defs>
</svg>
