<svg width="355" height="228" viewBox="0 0 355 228" fill="none" xmlns="http://www.w3.org/2000/svg">
<rect width="355" height="228" rx="20" fill="url(#paint0_linear_4271_5890)"/>
<path d="M133.804 68V52.732H135.872V68H133.804ZM135.212 68V66.108H143.968V68H135.212ZM135.212 61.092V59.288H143.242V61.092H135.212ZM135.212 54.624V52.732H143.858V54.624H135.212ZM153.821 68V61.906C153.821 61.114 153.571 60.4613 153.073 59.948C152.574 59.4347 151.929 59.178 151.137 59.178C150.609 59.178 150.139 59.2953 149.729 59.53C149.318 59.7647 148.995 60.0873 148.761 60.498C148.526 60.9087 148.409 61.378 148.409 61.906L147.595 61.444C147.595 60.652 147.771 59.948 148.123 59.332C148.475 58.716 148.966 58.232 149.597 57.88C150.227 57.5133 150.939 57.33 151.731 57.33C152.523 57.33 153.219 57.528 153.821 57.924C154.437 58.32 154.921 58.8407 155.273 59.486C155.625 60.1167 155.801 60.7913 155.801 61.51V68H153.821ZM146.429 68V57.55H148.409V68H146.429ZM159.958 68V53.172H161.938V68H159.958ZM157.384 59.354V57.55H164.512V59.354H157.384ZM170.97 68.22C169.928 68.22 168.99 67.9853 168.154 67.516C167.318 67.032 166.658 66.3793 166.174 65.558C165.69 64.7367 165.448 63.8053 165.448 62.764C165.448 61.7373 165.682 60.8133 166.152 59.992C166.636 59.1707 167.281 58.5253 168.088 58.056C168.909 57.572 169.826 57.33 170.838 57.33C171.806 57.33 172.656 57.55 173.39 57.99C174.138 58.43 174.717 59.0387 175.128 59.816C175.553 60.5933 175.766 61.4733 175.766 62.456C175.766 62.6027 175.758 62.764 175.744 62.94C175.729 63.1013 175.7 63.292 175.656 63.512H166.834V61.862H174.6L173.874 62.5C173.874 61.796 173.749 61.202 173.5 60.718C173.25 60.2193 172.898 59.838 172.444 59.574C171.989 59.2953 171.439 59.156 170.794 59.156C170.119 59.156 169.525 59.3027 169.012 59.596C168.498 59.8893 168.102 60.3 167.824 60.828C167.545 61.356 167.406 61.9793 167.406 62.698C167.406 63.4313 167.552 64.0767 167.846 64.634C168.139 65.1767 168.557 65.602 169.1 65.91C169.642 66.2033 170.266 66.35 170.97 66.35C171.556 66.35 172.092 66.2473 172.576 66.042C173.074 65.8367 173.5 65.5287 173.852 65.118L175.128 66.416C174.629 67.0027 174.013 67.45 173.28 67.758C172.561 68.066 171.791 68.22 170.97 68.22ZM177.925 68V57.55H179.905V68H177.925ZM179.905 62.038L179.157 61.708C179.157 60.3733 179.465 59.31 180.081 58.518C180.697 57.726 181.584 57.33 182.743 57.33C183.271 57.33 183.747 57.4253 184.173 57.616C184.598 57.792 184.994 58.0927 185.361 58.518L184.063 59.86C183.843 59.6253 183.601 59.4567 183.337 59.354C183.073 59.2513 182.765 59.2 182.413 59.2C181.679 59.2 181.078 59.4347 180.609 59.904C180.139 60.3733 179.905 61.0847 179.905 62.038ZM192.298 68.22C191.506 68.22 190.787 68.0587 190.142 67.736C189.511 67.3987 189.005 66.9367 188.624 66.35C188.242 65.7633 188.03 65.096 187.986 64.348V61.202C188.03 60.4393 188.242 59.772 188.624 59.2C189.02 58.6133 189.533 58.1587 190.164 57.836C190.809 57.4987 191.52 57.33 192.298 57.33C193.251 57.33 194.109 57.572 194.872 58.056C195.649 58.54 196.258 59.1927 196.698 60.014C197.138 60.8353 197.358 61.7593 197.358 62.786C197.358 63.8127 197.138 64.7367 196.698 65.558C196.258 66.3793 195.649 67.032 194.872 67.516C194.109 67.9853 193.251 68.22 192.298 68.22ZM186.798 72.378V57.55H188.778V60.3L188.404 62.83L188.778 65.382V72.378H186.798ZM191.968 66.35C192.628 66.35 193.207 66.196 193.706 65.888C194.204 65.58 194.6 65.162 194.894 64.634C195.187 64.0913 195.334 63.468 195.334 62.764C195.334 62.0747 195.187 61.4587 194.894 60.916C194.6 60.3733 194.204 59.9553 193.706 59.662C193.207 59.354 192.635 59.2 191.99 59.2C191.33 59.2 190.75 59.354 190.252 59.662C189.753 59.9553 189.364 60.3733 189.086 60.916C188.807 61.4587 188.668 62.082 188.668 62.786C188.668 63.4753 188.8 64.0913 189.064 64.634C189.342 65.162 189.731 65.58 190.23 65.888C190.743 66.196 191.322 66.35 191.968 66.35ZM199.602 68V57.55H201.582V68H199.602ZM201.582 62.038L200.834 61.708C200.834 60.3733 201.142 59.31 201.758 58.518C202.374 57.726 203.262 57.33 204.42 57.33C204.948 57.33 205.425 57.4253 205.85 57.616C206.276 57.792 206.672 58.0927 207.038 58.518L205.74 59.86C205.52 59.6253 205.278 59.4567 205.014 59.354C204.75 59.2513 204.442 59.2 204.09 59.2C203.357 59.2 202.756 59.4347 202.286 59.904C201.817 60.3733 201.582 61.0847 201.582 62.038ZM208.454 68V57.55H210.434V68H208.454ZM209.444 55.46C209.078 55.46 208.777 55.3427 208.542 55.108C208.308 54.8587 208.19 54.5507 208.19 54.184C208.19 53.832 208.308 53.5387 208.542 53.304C208.777 53.0547 209.078 52.93 209.444 52.93C209.811 52.93 210.112 53.0547 210.346 53.304C210.581 53.5387 210.698 53.832 210.698 54.184C210.698 54.5507 210.581 54.8587 210.346 55.108C210.112 55.3427 209.811 55.46 209.444 55.46ZM216.674 68.22C216.088 68.22 215.53 68.1467 215.002 68C214.489 67.8387 214.012 67.6187 213.572 67.34C213.132 67.0467 212.751 66.702 212.428 66.306L213.704 65.03C214.086 65.4993 214.526 65.8513 215.024 66.086C215.523 66.306 216.08 66.416 216.696 66.416C217.312 66.416 217.789 66.3133 218.126 66.108C218.464 65.888 218.632 65.5873 218.632 65.206C218.632 64.8247 218.493 64.5313 218.214 64.326C217.95 64.106 217.606 63.93 217.18 63.798C216.755 63.6513 216.3 63.512 215.816 63.38C215.347 63.2333 214.9 63.05 214.474 62.83C214.049 62.61 213.697 62.3093 213.418 61.928C213.154 61.5467 213.022 61.0407 213.022 60.41C213.022 59.7793 213.176 59.2367 213.484 58.782C213.792 58.3127 214.218 57.9533 214.76 57.704C215.318 57.4547 215.985 57.33 216.762 57.33C217.584 57.33 218.31 57.4767 218.94 57.77C219.586 58.0487 220.114 58.474 220.524 59.046L219.248 60.322C218.955 59.9407 218.588 59.6473 218.148 59.442C217.723 59.2367 217.239 59.134 216.696 59.134C216.124 59.134 215.684 59.2367 215.376 59.442C215.083 59.6327 214.936 59.904 214.936 60.256C214.936 60.608 215.068 60.8793 215.332 61.07C215.596 61.2607 215.941 61.422 216.366 61.554C216.806 61.686 217.261 61.8253 217.73 61.972C218.2 62.104 218.647 62.2873 219.072 62.522C219.498 62.7567 219.842 63.072 220.106 63.468C220.385 63.864 220.524 64.3847 220.524 65.03C220.524 66.0127 220.172 66.79 219.468 67.362C218.779 67.934 217.848 68.22 216.674 68.22ZM227.581 68.22C226.54 68.22 225.601 67.9853 224.765 67.516C223.929 67.032 223.269 66.3793 222.785 65.558C222.301 64.7367 222.059 63.8053 222.059 62.764C222.059 61.7373 222.294 60.8133 222.763 59.992C223.247 59.1707 223.892 58.5253 224.699 58.056C225.52 57.572 226.437 57.33 227.449 57.33C228.417 57.33 229.268 57.55 230.001 57.99C230.749 58.43 231.328 59.0387 231.739 59.816C232.164 60.5933 232.377 61.4733 232.377 62.456C232.377 62.6027 232.37 62.764 232.355 62.94C232.34 63.1013 232.311 63.292 232.267 63.512H223.445V61.862H231.211L230.485 62.5C230.485 61.796 230.36 61.202 230.111 60.718C229.862 60.2193 229.51 59.838 229.055 59.574C228.6 59.2953 228.05 59.156 227.405 59.156C226.73 59.156 226.136 59.3027 225.623 59.596C225.11 59.8893 224.714 60.3 224.435 60.828C224.156 61.356 224.017 61.9793 224.017 62.698C224.017 63.4313 224.164 64.0767 224.457 64.634C224.75 65.1767 225.168 65.602 225.711 65.91C226.254 66.2033 226.877 66.35 227.581 66.35C228.168 66.35 228.703 66.2473 229.187 66.042C229.686 65.8367 230.111 65.5287 230.463 65.118L231.739 66.416C231.24 67.0027 230.624 67.45 229.891 67.758C229.172 68.066 228.402 68.22 227.581 68.22ZM234.88 63.336V61.466H242.118V63.336H234.88ZM245.372 68V52.732H247.44V68H245.372ZM246.78 68V66.108H254.964V68H246.78ZM261.569 68.22C260.528 68.22 259.589 67.9853 258.753 67.516C257.917 67.032 257.257 66.3793 256.773 65.558C256.289 64.7367 256.047 63.8053 256.047 62.764C256.047 61.7373 256.282 60.8133 256.751 59.992C257.235 59.1707 257.881 58.5253 258.687 58.056C259.509 57.572 260.425 57.33 261.437 57.33C262.405 57.33 263.256 57.55 263.989 57.99C264.737 58.43 265.317 59.0387 265.727 59.816C266.153 60.5933 266.365 61.4733 266.365 62.456C266.365 62.6027 266.358 62.764 266.343 62.94C266.329 63.1013 266.299 63.292 266.255 63.512H257.433V61.862H265.199L264.473 62.5C264.473 61.796 264.349 61.202 264.099 60.718C263.85 60.2193 263.498 59.838 263.043 59.574C262.589 59.2953 262.039 59.156 261.393 59.156C260.719 59.156 260.125 59.3027 259.611 59.596C259.098 59.8893 258.702 60.3 258.423 60.828C258.145 61.356 258.005 61.9793 258.005 62.698C258.005 63.4313 258.152 64.0767 258.445 64.634C258.739 65.1767 259.157 65.602 259.699 65.91C260.242 66.2033 260.865 66.35 261.569 66.35C262.156 66.35 262.691 66.2473 263.175 66.042C263.674 65.8367 264.099 65.5287 264.451 65.118L265.727 66.416C265.229 67.0027 264.613 67.45 263.879 67.758C263.161 68.066 262.391 68.22 261.569 68.22ZM271.938 68L267.142 57.55H269.342L273.192 66.372H271.916L275.788 57.55H277.9L273.104 68H271.938ZM284.042 68.22C283.001 68.22 282.062 67.9853 281.226 67.516C280.39 67.032 279.73 66.3793 279.246 65.558C278.762 64.7367 278.52 63.8053 278.52 62.764C278.52 61.7373 278.755 60.8133 279.224 59.992C279.708 59.1707 280.353 58.5253 281.16 58.056C281.981 57.572 282.898 57.33 283.91 57.33C284.878 57.33 285.729 57.55 286.462 57.99C287.21 58.43 287.789 59.0387 288.2 59.816C288.625 60.5933 288.838 61.4733 288.838 62.456C288.838 62.6027 288.831 62.764 288.816 62.94C288.801 63.1013 288.772 63.292 288.728 63.512H279.906V61.862H287.672L286.946 62.5C286.946 61.796 286.821 61.202 286.572 60.718C286.323 60.2193 285.971 59.838 285.516 59.574C285.061 59.2953 284.511 59.156 283.866 59.156C283.191 59.156 282.597 59.3027 282.084 59.596C281.571 59.8893 281.175 60.3 280.896 60.828C280.617 61.356 280.478 61.9793 280.478 62.698C280.478 63.4313 280.625 64.0767 280.918 64.634C281.211 65.1767 281.629 65.602 282.172 65.91C282.715 66.2033 283.338 66.35 284.042 66.35C284.629 66.35 285.164 66.2473 285.648 66.042C286.147 65.8367 286.572 65.5287 286.924 65.118L288.2 66.416C287.701 67.0027 287.085 67.45 286.352 67.758C285.633 68.066 284.863 68.22 284.042 68.22ZM290.997 68V52.292H292.977V68H290.997ZM135.168 96V94.108H139.414C140.543 94.108 141.533 93.866 142.384 93.382C143.235 92.8833 143.895 92.2013 144.364 91.336C144.848 90.4707 145.09 89.4733 145.09 88.344C145.09 87.2293 144.848 86.2393 144.364 85.374C143.88 84.5087 143.213 83.834 142.362 83.35C141.511 82.866 140.529 82.624 139.414 82.624H135.19V80.732H139.458C140.573 80.732 141.599 80.9227 142.538 81.304C143.491 81.6853 144.313 82.2207 145.002 82.91C145.706 83.5993 146.249 84.406 146.63 85.33C147.026 86.254 147.224 87.266 147.224 88.366C147.224 89.4513 147.026 90.4633 146.63 91.402C146.249 92.326 145.713 93.1327 145.024 93.822C144.335 94.5113 143.513 95.0467 142.56 95.428C141.621 95.8093 140.602 96 139.502 96H135.168ZM133.804 96V80.732H135.872V96H133.804ZM154.181 96.22C153.228 96.22 152.362 95.9853 151.585 95.516C150.808 95.032 150.192 94.3793 149.737 93.558C149.297 92.7367 149.077 91.8127 149.077 90.786C149.077 89.7593 149.297 88.8353 149.737 88.014C150.192 87.1927 150.8 86.54 151.563 86.056C152.34 85.572 153.213 85.33 154.181 85.33C154.973 85.33 155.677 85.4987 156.293 85.836C156.924 86.1587 157.43 86.6133 157.811 87.2C158.192 87.772 158.405 88.4393 158.449 89.202V92.348C158.405 93.096 158.192 93.7633 157.811 94.35C157.444 94.9367 156.946 95.3987 156.315 95.736C155.699 96.0587 154.988 96.22 154.181 96.22ZM154.511 94.35C155.494 94.35 156.286 94.02 156.887 93.36C157.488 92.6853 157.789 91.8273 157.789 90.786C157.789 90.0673 157.65 89.444 157.371 88.916C157.107 88.3733 156.726 87.9553 156.227 87.662C155.728 87.354 155.149 87.2 154.489 87.2C153.829 87.2 153.242 87.354 152.729 87.662C152.23 87.97 151.834 88.3953 151.541 88.938C151.262 89.466 151.123 90.0747 151.123 90.764C151.123 91.468 151.262 92.0913 151.541 92.634C151.834 93.162 152.238 93.58 152.751 93.888C153.264 94.196 153.851 94.35 154.511 94.35ZM157.657 96V93.184L158.031 90.632L157.657 88.102V85.55H159.659V96H157.657ZM164.105 96V81.172H166.085V96H164.105ZM161.531 87.354V85.55H168.659V87.354H161.531ZM174.72 96.22C173.767 96.22 172.902 95.9853 172.124 95.516C171.347 95.032 170.731 94.3793 170.276 93.558C169.836 92.7367 169.616 91.8127 169.616 90.786C169.616 89.7593 169.836 88.8353 170.276 88.014C170.731 87.1927 171.34 86.54 172.102 86.056C172.88 85.572 173.752 85.33 174.72 85.33C175.512 85.33 176.216 85.4987 176.832 85.836C177.463 86.1587 177.969 86.6133 178.35 87.2C178.732 87.772 178.944 88.4393 178.988 89.202V92.348C178.944 93.096 178.732 93.7633 178.35 94.35C177.984 94.9367 177.485 95.3987 176.854 95.736C176.238 96.0587 175.527 96.22 174.72 96.22ZM175.05 94.35C176.033 94.35 176.825 94.02 177.426 93.36C178.028 92.6853 178.328 91.8273 178.328 90.786C178.328 90.0673 178.189 89.444 177.91 88.916C177.646 88.3733 177.265 87.9553 176.766 87.662C176.268 87.354 175.688 87.2 175.028 87.2C174.368 87.2 173.782 87.354 173.268 87.662C172.77 87.97 172.374 88.3953 172.08 88.938C171.802 89.466 171.662 90.0747 171.662 90.764C171.662 91.468 171.802 92.0913 172.08 92.634C172.374 93.162 172.777 93.58 173.29 93.888C173.804 94.196 174.39 94.35 175.05 94.35ZM178.196 96V93.184L178.57 90.632L178.196 88.102V85.55H180.198V96H178.196ZM192.255 96.22C191.052 96.22 190.026 96 189.175 95.56C188.324 95.12 187.569 94.482 186.909 93.646L188.317 92.238C188.801 92.9127 189.358 93.426 189.989 93.778C190.62 94.1153 191.397 94.284 192.321 94.284C193.23 94.284 193.956 94.086 194.499 93.69C195.056 93.294 195.335 92.7513 195.335 92.062C195.335 91.49 195.203 91.028 194.939 90.676C194.675 90.324 194.316 90.038 193.861 89.818C193.421 89.5833 192.937 89.378 192.409 89.202C191.881 89.0113 191.353 88.8133 190.825 88.608C190.297 88.388 189.813 88.124 189.373 87.816C188.933 87.4933 188.574 87.0753 188.295 86.562C188.031 86.0487 187.899 85.4033 187.899 84.626C187.899 83.7607 188.104 83.0273 188.515 82.426C188.94 81.81 189.512 81.3407 190.231 81.018C190.964 80.6807 191.786 80.512 192.695 80.512C193.692 80.512 194.587 80.71 195.379 81.106C196.171 81.4873 196.816 81.9933 197.315 82.624L195.907 84.032C195.452 83.504 194.961 83.108 194.433 82.844C193.92 82.58 193.326 82.448 192.651 82.448C191.83 82.448 191.177 82.6313 190.693 82.998C190.209 83.35 189.967 83.8487 189.967 84.494C189.967 85.0073 190.099 85.4253 190.363 85.748C190.642 86.056 191.001 86.32 191.441 86.54C191.881 86.76 192.365 86.9653 192.893 87.156C193.436 87.332 193.971 87.53 194.499 87.75C195.027 87.97 195.511 88.2487 195.951 88.586C196.391 88.9233 196.743 89.3633 197.007 89.906C197.286 90.434 197.425 91.1013 197.425 91.908C197.425 93.2573 196.956 94.3133 196.017 95.076C195.093 95.8387 193.839 96.22 192.255 96.22ZM204.55 96.22C203.508 96.22 202.57 95.9853 201.734 95.516C200.898 95.032 200.238 94.3793 199.754 93.558C199.27 92.7367 199.028 91.8053 199.028 90.764C199.028 89.7373 199.262 88.8133 199.732 87.992C200.216 87.1707 200.861 86.5253 201.668 86.056C202.489 85.572 203.406 85.33 204.418 85.33C205.386 85.33 206.236 85.55 206.97 85.99C207.718 86.43 208.297 87.0387 208.708 87.816C209.133 88.5933 209.346 89.4733 209.346 90.456C209.346 90.6027 209.338 90.764 209.324 90.94C209.309 91.1013 209.28 91.292 209.236 91.512H200.414V89.862H208.18L207.454 90.5C207.454 89.796 207.329 89.202 207.08 88.718C206.83 88.2193 206.478 87.838 206.024 87.574C205.569 87.2953 205.019 87.156 204.374 87.156C203.699 87.156 203.105 87.3027 202.592 87.596C202.078 87.8893 201.682 88.3 201.404 88.828C201.125 89.356 200.986 89.9793 200.986 90.698C200.986 91.4313 201.132 92.0767 201.426 92.634C201.719 93.1767 202.137 93.602 202.68 93.91C203.222 94.2033 203.846 94.35 204.55 94.35C205.136 94.35 205.672 94.2473 206.156 94.042C206.654 93.8367 207.08 93.5287 207.432 93.118L208.708 94.416C208.209 95.0027 207.593 95.45 206.86 95.758C206.141 96.066 205.371 96.22 204.55 96.22ZM216.279 96.22C215.252 96.22 214.321 95.978 213.485 95.494C212.663 95.01 212.011 94.3573 211.527 93.536C211.057 92.7 210.823 91.776 210.823 90.764C210.823 89.7373 211.057 88.8133 211.527 87.992C212.011 87.1707 212.663 86.5253 213.485 86.056C214.321 85.572 215.252 85.33 216.279 85.33C217.085 85.33 217.833 85.484 218.523 85.792C219.212 86.0853 219.806 86.518 220.305 87.09L218.985 88.41C218.662 88.0287 218.266 87.7427 217.797 87.552C217.342 87.3467 216.836 87.244 216.279 87.244C215.619 87.244 215.032 87.398 214.519 87.706C214.005 87.9993 213.602 88.41 213.309 88.938C213.015 89.466 212.869 90.0747 212.869 90.764C212.869 91.4533 213.015 92.062 213.309 92.59C213.602 93.118 214.005 93.536 214.519 93.844C215.032 94.152 215.619 94.306 216.279 94.306C216.836 94.306 217.342 94.2107 217.797 94.02C218.266 93.8147 218.669 93.5213 219.007 93.14L220.305 94.46C219.821 95.0173 219.227 95.45 218.523 95.758C217.833 96.066 217.085 96.22 216.279 96.22ZM226.492 96.22C225.627 96.22 224.85 96.0293 224.16 95.648C223.486 95.252 222.958 94.7093 222.576 94.02C222.195 93.3307 222.004 92.5313 222.004 91.622V85.55H223.984V91.534C223.984 92.106 224.08 92.6047 224.27 93.03C224.476 93.4407 224.769 93.756 225.15 93.976C225.532 94.196 225.979 94.306 226.492 94.306C227.27 94.306 227.878 94.064 228.318 93.58C228.758 93.0813 228.978 92.3993 228.978 91.534V85.55H230.958V91.622C230.958 92.5313 230.768 93.3307 230.386 94.02C230.005 94.7093 229.477 95.252 228.802 95.648C228.142 96.0293 227.372 96.22 226.492 96.22ZM233.612 96V85.55H235.592V96H233.612ZM235.592 90.038L234.844 89.708C234.844 88.3733 235.152 87.31 235.768 86.518C236.384 85.726 237.271 85.33 238.43 85.33C238.958 85.33 239.435 85.4253 239.86 85.616C240.285 85.792 240.681 86.0927 241.048 86.518L239.75 87.86C239.53 87.6253 239.288 87.4567 239.024 87.354C238.76 87.2513 238.452 87.2 238.1 87.2C237.367 87.2 236.765 87.4347 236.296 87.904C235.827 88.3733 235.592 89.0847 235.592 90.038ZM242.464 96V85.55H244.444V96H242.464ZM243.454 83.46C243.088 83.46 242.787 83.3427 242.552 83.108C242.318 82.8587 242.2 82.5507 242.2 82.184C242.2 81.832 242.318 81.5387 242.552 81.304C242.787 81.0547 243.088 80.93 243.454 80.93C243.821 80.93 244.122 81.0547 244.356 81.304C244.591 81.5387 244.708 81.832 244.708 82.184C244.708 82.5507 244.591 82.8587 244.356 83.108C244.122 83.3427 243.821 83.46 243.454 83.46ZM248.968 96V81.172H250.948V96H248.968ZM246.394 87.354V85.55H253.522V87.354H246.394ZM258.894 96.088L254.362 85.55H256.562L259.928 93.8H259.224L262.766 85.55H264.966L260.082 96.088H258.894ZM255.902 100.378L258.982 94.064L260.082 96.088L258.102 100.378H255.902Z" fill="#858585"/>
<path d="M132.465 127L136.725 116.59H137.745L141.99 127H140.46L136.965 118.195H137.49L133.965 127H132.465ZM134.49 124.645V123.415H139.965V124.645H134.49ZM145.995 127.15C145.335 127.15 144.745 126.99 144.225 126.67C143.705 126.34 143.29 125.895 142.98 125.335C142.68 124.775 142.53 124.145 142.53 123.445C142.53 122.745 142.68 122.115 142.98 121.555C143.29 120.995 143.705 120.55 144.225 120.22C144.745 119.89 145.335 119.725 145.995 119.725C146.525 119.725 147.005 119.84 147.435 120.07C147.865 120.29 148.21 120.6 148.47 121C148.74 121.39 148.89 121.845 148.92 122.365V124.51C148.89 125.02 148.745 125.475 148.485 125.875C148.225 126.275 147.88 126.59 147.45 126.82C147.02 127.04 146.535 127.15 145.995 127.15ZM146.22 125.875C146.67 125.875 147.06 125.77 147.39 125.56C147.73 125.35 147.995 125.065 148.185 124.705C148.375 124.335 148.47 123.915 148.47 123.445C148.47 122.955 148.37 122.53 148.17 122.17C147.98 121.81 147.715 121.525 147.375 121.315C147.045 121.105 146.655 121 146.205 121C145.755 121 145.36 121.105 145.02 121.315C144.68 121.525 144.41 121.815 144.21 122.185C144.02 122.545 143.925 122.96 143.925 123.43C143.925 123.91 144.02 124.335 144.21 124.705C144.41 125.065 144.68 125.35 145.02 125.56C145.37 125.77 145.77 125.875 146.22 125.875ZM149.745 127H148.38V125.08L148.635 123.34L148.38 121.615V116.29H149.745V127ZM154.156 127L150.886 119.875H152.386L155.011 125.89H154.141L156.781 119.875H158.221L154.951 127H154.156ZM162.138 127.15C161.488 127.15 160.898 126.99 160.368 126.67C159.838 126.34 159.418 125.895 159.108 125.335C158.808 124.775 158.658 124.145 158.658 123.445C158.658 122.745 158.808 122.115 159.108 121.555C159.418 120.995 159.833 120.55 160.353 120.22C160.883 119.89 161.478 119.725 162.138 119.725C162.678 119.725 163.158 119.84 163.578 120.07C164.008 120.29 164.353 120.6 164.613 121C164.873 121.39 165.018 121.845 165.048 122.365V124.51C165.018 125.02 164.873 125.475 164.613 125.875C164.363 126.275 164.023 126.59 163.593 126.82C163.173 127.04 162.688 127.15 162.138 127.15ZM162.363 125.875C163.033 125.875 163.573 125.65 163.983 125.2C164.393 124.74 164.598 124.155 164.598 123.445C164.598 122.955 164.503 122.53 164.313 122.17C164.133 121.8 163.873 121.515 163.533 121.315C163.193 121.105 162.798 121 162.348 121C161.898 121 161.498 121.105 161.148 121.315C160.808 121.525 160.538 121.815 160.338 122.185C160.148 122.545 160.053 122.96 160.053 123.43C160.053 123.91 160.148 124.335 160.338 124.705C160.538 125.065 160.813 125.35 161.163 125.56C161.513 125.77 161.913 125.875 162.363 125.875ZM164.508 127V125.08L164.763 123.34L164.508 121.615V119.875H165.873V127H164.508ZM172.879 127V122.845C172.879 122.305 172.709 121.86 172.369 121.51C172.029 121.16 171.589 120.985 171.049 120.985C170.689 120.985 170.369 121.065 170.089 121.225C169.809 121.385 169.589 121.605 169.429 121.885C169.269 122.165 169.189 122.485 169.189 122.845L168.634 122.53C168.634 121.99 168.754 121.51 168.994 121.09C169.234 120.67 169.569 120.34 169.999 120.1C170.429 119.85 170.914 119.725 171.454 119.725C171.994 119.725 172.469 119.86 172.879 120.13C173.299 120.4 173.629 120.755 173.869 121.195C174.109 121.625 174.229 122.085 174.229 122.575V127H172.879ZM167.839 127V119.875H169.189V127H167.839ZM179.311 127.15C178.611 127.15 177.976 126.985 177.406 126.655C176.846 126.325 176.401 125.88 176.071 125.32C175.751 124.75 175.591 124.12 175.591 123.43C175.591 122.73 175.751 122.1 176.071 121.54C176.401 120.98 176.846 120.54 177.406 120.22C177.976 119.89 178.611 119.725 179.311 119.725C179.861 119.725 180.371 119.83 180.841 120.04C181.311 120.24 181.716 120.535 182.056 120.925L181.156 121.825C180.936 121.565 180.666 121.37 180.346 121.24C180.036 121.1 179.691 121.03 179.311 121.03C178.861 121.03 178.461 121.135 178.111 121.345C177.761 121.545 177.486 121.825 177.286 122.185C177.086 122.545 176.986 122.96 176.986 123.43C176.986 123.9 177.086 124.315 177.286 124.675C177.486 125.035 177.761 125.32 178.111 125.53C178.461 125.74 178.861 125.845 179.311 125.845C179.691 125.845 180.036 125.78 180.346 125.65C180.666 125.51 180.941 125.31 181.171 125.05L182.056 125.95C181.726 126.33 181.321 126.625 180.841 126.835C180.371 127.045 179.861 127.15 179.311 127.15ZM186.563 127.15C185.853 127.15 185.213 126.99 184.643 126.67C184.073 126.34 183.623 125.895 183.293 125.335C182.963 124.775 182.798 124.14 182.798 123.43C182.798 122.73 182.958 122.1 183.278 121.54C183.608 120.98 184.048 120.54 184.598 120.22C185.158 119.89 185.783 119.725 186.473 119.725C187.133 119.725 187.713 119.875 188.213 120.175C188.723 120.475 189.118 120.89 189.398 121.42C189.688 121.95 189.833 122.55 189.833 123.22C189.833 123.32 189.828 123.43 189.818 123.55C189.808 123.66 189.788 123.79 189.758 123.94H183.743V122.815H189.038L188.543 123.25C188.543 122.77 188.458 122.365 188.288 122.035C188.118 121.695 187.878 121.435 187.568 121.255C187.258 121.065 186.883 120.97 186.443 120.97C185.983 120.97 185.578 121.07 185.228 121.27C184.878 121.47 184.608 121.75 184.418 122.11C184.228 122.47 184.133 122.895 184.133 123.385C184.133 123.885 184.233 124.325 184.433 124.705C184.633 125.075 184.918 125.365 185.288 125.575C185.658 125.775 186.083 125.875 186.563 125.875C186.963 125.875 187.328 125.805 187.658 125.665C187.998 125.525 188.288 125.315 188.528 125.035L189.398 125.92C189.058 126.32 188.638 126.625 188.138 126.835C187.648 127.045 187.123 127.15 186.563 127.15ZM194.32 127.15C193.66 127.15 193.07 126.99 192.55 126.67C192.03 126.34 191.615 125.895 191.305 125.335C191.005 124.775 190.855 124.145 190.855 123.445C190.855 122.745 191.005 122.115 191.305 121.555C191.615 120.995 192.03 120.55 192.55 120.22C193.07 119.89 193.66 119.725 194.32 119.725C194.85 119.725 195.33 119.84 195.76 120.07C196.19 120.29 196.535 120.6 196.795 121C197.065 121.39 197.215 121.845 197.245 122.365V124.51C197.215 125.02 197.07 125.475 196.81 125.875C196.55 126.275 196.205 126.59 195.775 126.82C195.345 127.04 194.86 127.15 194.32 127.15ZM194.545 125.875C194.995 125.875 195.385 125.77 195.715 125.56C196.055 125.35 196.32 125.065 196.51 124.705C196.7 124.335 196.795 123.915 196.795 123.445C196.795 122.955 196.695 122.53 196.495 122.17C196.305 121.81 196.04 121.525 195.7 121.315C195.37 121.105 194.98 121 194.53 121C194.08 121 193.685 121.105 193.345 121.315C193.005 121.525 192.735 121.815 192.535 122.185C192.345 122.545 192.25 122.96 192.25 123.43C192.25 123.91 192.345 124.335 192.535 124.705C192.735 125.065 193.005 125.35 193.345 125.56C193.695 125.77 194.095 125.875 194.545 125.875ZM198.07 127H196.705V125.08L196.96 123.34L196.705 121.615V116.29H198.07V127ZM206.456 127.15C205.746 127.15 205.106 126.99 204.536 126.67C203.966 126.34 203.516 125.895 203.186 125.335C202.856 124.775 202.691 124.14 202.691 123.43C202.691 122.73 202.851 122.1 203.171 121.54C203.501 120.98 203.941 120.54 204.491 120.22C205.051 119.89 205.676 119.725 206.366 119.725C207.026 119.725 207.606 119.875 208.106 120.175C208.616 120.475 209.011 120.89 209.291 121.42C209.581 121.95 209.726 122.55 209.726 123.22C209.726 123.32 209.721 123.43 209.711 123.55C209.701 123.66 209.681 123.79 209.651 123.94H203.636V122.815H208.931L208.436 123.25C208.436 122.77 208.351 122.365 208.181 122.035C208.011 121.695 207.771 121.435 207.461 121.255C207.151 121.065 206.776 120.97 206.336 120.97C205.876 120.97 205.471 121.07 205.121 121.27C204.771 121.47 204.501 121.75 204.311 122.11C204.121 122.47 204.026 122.895 204.026 123.385C204.026 123.885 204.126 124.325 204.326 124.705C204.526 125.075 204.811 125.365 205.181 125.575C205.551 125.775 205.976 125.875 206.456 125.875C206.856 125.875 207.221 125.805 207.551 125.665C207.891 125.525 208.181 125.315 208.421 125.035L209.291 125.92C208.951 126.32 208.531 126.625 208.031 126.835C207.541 127.045 207.016 127.15 206.456 127.15ZM216.238 127V122.845C216.238 122.305 216.068 121.86 215.728 121.51C215.388 121.16 214.948 120.985 214.408 120.985C214.048 120.985 213.728 121.065 213.448 121.225C213.168 121.385 212.948 121.605 212.788 121.885C212.628 122.165 212.548 122.485 212.548 122.845L211.993 122.53C211.993 121.99 212.113 121.51 212.353 121.09C212.593 120.67 212.928 120.34 213.358 120.1C213.788 119.85 214.273 119.725 214.813 119.725C215.353 119.725 215.828 119.86 216.238 120.13C216.658 120.4 216.988 120.755 217.228 121.195C217.468 121.625 217.588 122.085 217.588 122.575V127H216.238ZM211.198 127V119.875H212.548V127H211.198ZM222.671 127.15C221.971 127.15 221.336 126.985 220.766 126.655C220.206 126.325 219.761 125.88 219.431 125.32C219.111 124.75 218.951 124.12 218.951 123.43C218.951 122.73 219.111 122.1 219.431 121.54C219.761 120.98 220.206 120.54 220.766 120.22C221.336 119.89 221.971 119.725 222.671 119.725C223.221 119.725 223.731 119.83 224.201 120.04C224.671 120.24 225.076 120.535 225.416 120.925L224.516 121.825C224.296 121.565 224.026 121.37 223.706 121.24C223.396 121.1 223.051 121.03 222.671 121.03C222.221 121.03 221.821 121.135 221.471 121.345C221.121 121.545 220.846 121.825 220.646 122.185C220.446 122.545 220.346 122.96 220.346 123.43C220.346 123.9 220.446 124.315 220.646 124.675C220.846 125.035 221.121 125.32 221.471 125.53C221.821 125.74 222.221 125.845 222.671 125.845C223.051 125.845 223.396 125.78 223.706 125.65C224.026 125.51 224.301 125.31 224.531 125.05L225.416 125.95C225.086 126.33 224.681 126.625 224.201 126.835C223.731 127.045 223.221 127.15 222.671 127.15ZM226.755 127V119.875H228.105V127H226.755ZM228.105 122.935L227.595 122.71C227.595 121.8 227.805 121.075 228.225 120.535C228.645 119.995 229.25 119.725 230.04 119.725C230.4 119.725 230.725 119.79 231.015 119.92C231.305 120.04 231.575 120.245 231.825 120.535L230.94 121.45C230.79 121.29 230.625 121.175 230.445 121.105C230.265 121.035 230.055 121 229.815 121C229.315 121 228.905 121.16 228.585 121.48C228.265 121.8 228.105 122.285 228.105 122.935ZM234.983 127.06L231.893 119.875H233.393L235.688 125.5H235.208L237.623 119.875H239.123L235.793 127.06H234.983ZM232.943 129.985L235.043 125.68L235.793 127.06L234.443 129.985H232.943ZM243.923 127.15C243.383 127.15 242.893 127.04 242.453 126.82C242.023 126.59 241.678 126.275 241.418 125.875C241.158 125.475 241.013 125.02 240.983 124.51V122.365C241.013 121.845 241.158 121.39 241.418 121C241.688 120.6 242.038 120.29 242.468 120.07C242.908 119.84 243.393 119.725 243.923 119.725C244.573 119.725 245.158 119.89 245.678 120.22C246.208 120.55 246.623 120.995 246.923 121.555C247.223 122.115 247.373 122.745 247.373 123.445C247.373 124.145 247.223 124.775 246.923 125.335C246.623 125.895 246.208 126.34 245.678 126.67C245.158 126.99 244.573 127.15 243.923 127.15ZM240.173 129.985V119.875H241.523V121.75L241.268 123.475L241.523 125.215V129.985H240.173ZM243.698 125.875C244.148 125.875 244.543 125.77 244.883 125.56C245.223 125.35 245.493 125.065 245.693 124.705C245.893 124.335 245.993 123.91 245.993 123.43C245.993 122.96 245.893 122.54 245.693 122.17C245.493 121.8 245.223 121.515 244.883 121.315C244.543 121.105 244.153 121 243.713 121C243.263 121 242.868 121.105 242.528 121.315C242.188 121.515 241.923 121.8 241.733 122.17C241.543 122.54 241.448 122.965 241.448 123.445C241.448 123.915 241.538 124.335 241.718 124.705C241.908 125.065 242.173 125.35 242.513 125.56C242.863 125.77 243.258 125.875 243.698 125.875ZM249.778 127V116.89H251.128V127H249.778ZM248.023 121.105V119.875H252.883V121.105H248.023ZM254.221 127V119.875H255.571V127H254.221ZM254.896 118.45C254.646 118.45 254.441 118.37 254.281 118.21C254.121 118.04 254.041 117.83 254.041 117.58C254.041 117.34 254.121 117.14 254.281 116.98C254.441 116.81 254.646 116.725 254.896 116.725C255.146 116.725 255.351 116.81 255.511 116.98C255.671 117.14 255.751 117.34 255.751 117.58C255.751 117.83 255.671 118.04 255.511 118.21C255.351 118.37 255.146 118.45 254.896 118.45ZM260.815 127.15C260.115 127.15 259.485 126.985 258.925 126.655C258.365 126.325 257.92 125.88 257.59 125.32C257.26 124.75 257.095 124.115 257.095 123.415C257.095 122.725 257.26 122.105 257.59 121.555C257.92 120.995 258.365 120.55 258.925 120.22C259.485 119.89 260.115 119.725 260.815 119.725C261.505 119.725 262.13 119.89 262.69 120.22C263.26 120.54 263.71 120.98 264.04 121.54C264.37 122.1 264.535 122.725 264.535 123.415C264.535 124.115 264.37 124.75 264.04 125.32C263.71 125.88 263.26 126.325 262.69 126.655C262.13 126.985 261.505 127.15 260.815 127.15ZM260.815 125.845C261.265 125.845 261.665 125.74 262.015 125.53C262.365 125.32 262.64 125.035 262.84 124.675C263.04 124.305 263.14 123.885 263.14 123.415C263.14 122.955 263.035 122.545 262.825 122.185C262.625 121.825 262.35 121.545 262 121.345C261.66 121.135 261.265 121.03 260.815 121.03C260.365 121.03 259.965 121.135 259.615 121.345C259.265 121.545 258.99 121.825 258.79 122.185C258.59 122.545 258.49 122.955 258.49 123.415C258.49 123.885 258.59 124.305 258.79 124.675C258.99 125.035 259.265 125.32 259.615 125.53C259.965 125.74 260.365 125.845 260.815 125.845ZM271.096 127V122.845C271.096 122.305 270.926 121.86 270.586 121.51C270.246 121.16 269.806 120.985 269.266 120.985C268.906 120.985 268.586 121.065 268.306 121.225C268.026 121.385 267.806 121.605 267.646 121.885C267.486 122.165 267.406 122.485 267.406 122.845L266.851 122.53C266.851 121.99 266.971 121.51 267.211 121.09C267.451 120.67 267.786 120.34 268.216 120.1C268.646 119.85 269.131 119.725 269.671 119.725C270.211 119.725 270.686 119.86 271.096 120.13C271.516 120.4 271.846 120.755 272.086 121.195C272.326 121.625 272.446 122.085 272.446 122.575V127H271.096ZM266.056 127V119.875H267.406V127H266.056ZM277.409 127V119.875H278.759V127H277.409ZM278.084 118.45C277.834 118.45 277.629 118.37 277.469 118.21C277.309 118.04 277.229 117.83 277.229 117.58C277.229 117.34 277.309 117.14 277.469 116.98C277.629 116.81 277.834 116.725 278.084 116.725C278.334 116.725 278.539 116.81 278.699 116.98C278.859 117.14 278.939 117.34 278.939 117.58C278.939 117.83 278.859 118.04 278.699 118.21C278.539 118.37 278.334 118.45 278.084 118.45ZM285.789 127V122.845C285.789 122.305 285.619 121.86 285.279 121.51C284.939 121.16 284.499 120.985 283.959 120.985C283.599 120.985 283.279 121.065 282.999 121.225C282.719 121.385 282.499 121.605 282.339 121.885C282.179 122.165 282.099 122.485 282.099 122.845L281.544 122.53C281.544 121.99 281.664 121.51 281.904 121.09C282.144 120.67 282.479 120.34 282.909 120.1C283.339 119.85 283.824 119.725 284.364 119.725C284.904 119.725 285.379 119.86 285.789 120.13C286.209 120.4 286.539 120.755 286.779 121.195C287.019 121.625 287.139 122.085 287.139 122.575V127H285.789ZM280.749 127V119.875H282.099V127H280.749ZM292.222 127.15C291.522 127.15 290.887 126.985 290.317 126.655C289.757 126.325 289.312 125.88 288.982 125.32C288.662 124.75 288.502 124.12 288.502 123.43C288.502 122.73 288.662 122.1 288.982 121.54C289.312 120.98 289.757 120.54 290.317 120.22C290.887 119.89 291.522 119.725 292.222 119.725C292.772 119.725 293.282 119.83 293.752 120.04C294.222 120.24 294.627 120.535 294.967 120.925L294.067 121.825C293.847 121.565 293.577 121.37 293.257 121.24C292.947 121.1 292.602 121.03 292.222 121.03C291.772 121.03 291.372 121.135 291.022 121.345C290.672 121.545 290.397 121.825 290.197 122.185C289.997 122.545 289.897 122.96 289.897 123.43C289.897 123.9 289.997 124.315 290.197 124.675C290.397 125.035 290.672 125.32 291.022 125.53C291.372 125.74 291.772 125.845 292.222 125.845C292.602 125.845 292.947 125.78 293.257 125.65C293.577 125.51 293.852 125.31 294.082 125.05L294.967 125.95C294.637 126.33 294.232 126.625 293.752 126.835C293.282 127.045 292.772 127.15 292.222 127.15ZM296.305 127V116.29H297.655V127H296.305ZM302.511 127.15C301.921 127.15 301.391 127.02 300.921 126.76C300.461 126.49 300.101 126.12 299.841 125.65C299.581 125.18 299.451 124.635 299.451 124.015V119.875H300.801V123.955C300.801 124.345 300.866 124.685 300.996 124.975C301.136 125.255 301.336 125.47 301.596 125.62C301.856 125.77 302.161 125.845 302.511 125.845C303.041 125.845 303.456 125.68 303.756 125.35C304.056 125.01 304.206 124.545 304.206 123.955V119.875H305.556V124.015C305.556 124.635 305.426 125.18 305.166 125.65C304.906 126.12 304.546 126.49 304.086 126.76C303.636 127.02 303.111 127.15 302.511 127.15ZM310.38 127.15C309.72 127.15 309.13 126.99 308.61 126.67C308.09 126.34 307.675 125.895 307.365 125.335C307.065 124.775 306.915 124.145 306.915 123.445C306.915 122.745 307.065 122.115 307.365 121.555C307.675 120.995 308.09 120.55 308.61 120.22C309.13 119.89 309.72 119.725 310.38 119.725C310.91 119.725 311.39 119.84 311.82 120.07C312.25 120.29 312.595 120.6 312.855 121C313.125 121.39 313.275 121.845 313.305 122.365V124.51C313.275 125.02 313.13 125.475 312.87 125.875C312.61 126.275 312.265 126.59 311.835 126.82C311.405 127.04 310.92 127.15 310.38 127.15ZM310.605 125.875C311.055 125.875 311.445 125.77 311.775 125.56C312.115 125.35 312.38 125.065 312.57 124.705C312.76 124.335 312.855 123.915 312.855 123.445C312.855 122.955 312.755 122.53 312.555 122.17C312.365 121.81 312.1 121.525 311.76 121.315C311.43 121.105 311.04 121 310.59 121C310.14 121 309.745 121.105 309.405 121.315C309.065 121.525 308.795 121.815 308.595 122.185C308.405 122.545 308.31 122.96 308.31 123.43C308.31 123.91 308.405 124.335 308.595 124.705C308.795 125.065 309.065 125.35 309.405 125.56C309.755 125.77 310.155 125.875 310.605 125.875ZM314.13 127H312.765V125.08L313.02 123.34L312.765 121.615V116.29H314.13V127ZM316.11 127V119.875H317.46V127H316.11ZM316.785 118.45C316.535 118.45 316.33 118.37 316.17 118.21C316.01 118.04 315.93 117.83 315.93 117.58C315.93 117.34 316.01 117.14 316.17 116.98C316.33 116.81 316.535 116.725 316.785 116.725C317.035 116.725 317.24 116.81 317.4 116.98C317.56 117.14 317.64 117.34 317.64 117.58C317.64 117.83 317.56 118.04 317.4 118.21C317.24 118.37 317.035 118.45 316.785 118.45ZM324.49 127V122.845C324.49 122.305 324.32 121.86 323.98 121.51C323.64 121.16 323.2 120.985 322.66 120.985C322.3 120.985 321.98 121.065 321.7 121.225C321.42 121.385 321.2 121.605 321.04 121.885C320.88 122.165 320.8 122.485 320.8 122.845L320.245 122.53C320.245 121.99 320.365 121.51 320.605 121.09C320.845 120.67 321.18 120.34 321.61 120.1C322.04 119.85 322.525 119.725 323.065 119.725C323.605 119.725 324.08 119.86 324.49 120.13C324.91 120.4 325.24 120.755 325.48 121.195C325.72 121.625 325.84 122.085 325.84 122.575V127H324.49ZM319.45 127V119.875H320.8V127H319.45ZM330.623 130.135C329.893 130.135 329.243 130 328.673 129.73C328.113 129.46 327.663 129.08 327.323 128.59L328.193 127.705C328.483 128.075 328.828 128.355 329.228 128.545C329.628 128.745 330.103 128.845 330.653 128.845C331.383 128.845 331.958 128.65 332.378 128.26C332.808 127.88 333.023 127.365 333.023 126.715V124.945L333.263 123.34L333.023 121.75V119.875H334.373V126.715C334.373 127.395 334.213 127.99 333.893 128.5C333.583 129.01 333.143 129.41 332.573 129.7C332.013 129.99 331.363 130.135 330.623 130.135ZM330.623 126.88C329.973 126.88 329.388 126.725 328.868 126.415C328.358 126.105 327.953 125.68 327.653 125.14C327.353 124.59 327.203 123.975 327.203 123.295C327.203 122.615 327.353 122.01 327.653 121.48C327.953 120.94 328.358 120.515 328.868 120.205C329.388 119.885 329.973 119.725 330.623 119.725C331.183 119.725 331.678 119.835 332.108 120.055C332.538 120.275 332.878 120.585 333.128 120.985C333.388 121.375 333.528 121.835 333.548 122.365V124.255C333.518 124.775 333.373 125.235 333.113 125.635C332.863 126.025 332.523 126.33 332.093 126.55C331.663 126.77 331.173 126.88 330.623 126.88ZM330.893 125.605C331.333 125.605 331.718 125.51 332.048 125.32C332.388 125.13 332.648 124.865 332.828 124.525C333.008 124.175 333.098 123.77 333.098 123.31C333.098 122.85 333.003 122.45 332.813 122.11C332.633 121.76 332.378 121.49 332.048 121.3C331.718 121.1 331.328 121 330.878 121C330.428 121 330.033 121.1 329.693 121.3C329.353 121.49 329.083 121.76 328.883 122.11C328.693 122.45 328.598 122.845 328.598 123.295C328.598 123.745 328.693 124.145 328.883 124.495C329.083 124.845 329.353 125.12 329.693 125.32C330.043 125.51 330.443 125.605 330.893 125.605ZM135.99 151V140.89H137.4V151H135.99ZM132.45 141.88V140.59H140.925V141.88H132.45ZM142.605 151V140.59H144.015V151H142.605ZM143.565 151V149.71H149.145V151H143.565ZM153.293 151.15C152.473 151.15 151.773 151 151.193 150.7C150.613 150.4 150.098 149.965 149.648 149.395L150.608 148.435C150.938 148.895 151.318 149.245 151.748 149.485C152.178 149.715 152.708 149.83 153.338 149.83C153.958 149.83 154.453 149.695 154.823 149.425C155.203 149.155 155.393 148.785 155.393 148.315C155.393 147.925 155.303 147.61 155.123 147.37C154.943 147.13 154.698 146.935 154.388 146.785C154.088 146.625 153.758 146.485 153.398 146.365C153.038 146.235 152.678 146.1 152.318 145.96C151.958 145.81 151.628 145.63 151.328 145.42C151.028 145.2 150.783 144.915 150.593 144.565C150.413 144.215 150.323 143.775 150.323 143.245C150.323 142.655 150.463 142.155 150.743 141.745C151.033 141.325 151.423 141.005 151.913 140.785C152.413 140.555 152.973 140.44 153.593 140.44C154.273 140.44 154.883 140.575 155.423 140.845C155.963 141.105 156.403 141.45 156.743 141.88L155.783 142.84C155.473 142.48 155.138 142.21 154.778 142.03C154.428 141.85 154.023 141.76 153.563 141.76C153.003 141.76 152.558 141.885 152.228 142.135C151.898 142.375 151.733 142.715 151.733 143.155C151.733 143.505 151.823 143.79 152.003 144.01C152.193 144.22 152.438 144.4 152.738 144.55C153.038 144.7 153.368 144.84 153.728 144.97C154.098 145.09 154.463 145.225 154.823 145.375C155.183 145.525 155.513 145.715 155.813 145.945C156.113 146.175 156.353 146.475 156.533 146.845C156.723 147.205 156.818 147.66 156.818 148.21C156.818 149.13 156.498 149.85 155.858 150.37C155.228 150.89 154.373 151.15 153.293 151.15ZM162.618 151V142.81C162.618 142.28 162.733 141.82 162.963 141.43C163.193 141.03 163.508 140.715 163.908 140.485C164.318 140.255 164.793 140.14 165.333 140.14C165.743 140.14 166.098 140.21 166.398 140.35C166.698 140.49 166.973 140.695 167.223 140.965L166.338 141.835C166.208 141.695 166.063 141.59 165.903 141.52C165.743 141.44 165.548 141.4 165.318 141.4C164.888 141.4 164.553 141.525 164.313 141.775C164.083 142.025 163.968 142.37 163.968 142.81V151H162.618ZM160.863 145.105V143.875H166.233V145.105H160.863ZM170.434 151.15C169.734 151.15 169.104 150.985 168.544 150.655C167.984 150.325 167.539 149.88 167.209 149.32C166.879 148.75 166.714 148.115 166.714 147.415C166.714 146.725 166.879 146.105 167.209 145.555C167.539 144.995 167.984 144.55 168.544 144.22C169.104 143.89 169.734 143.725 170.434 143.725C171.124 143.725 171.749 143.89 172.309 144.22C172.879 144.54 173.329 144.98 173.659 145.54C173.989 146.1 174.154 146.725 174.154 147.415C174.154 148.115 173.989 148.75 173.659 149.32C173.329 149.88 172.879 150.325 172.309 150.655C171.749 150.985 171.124 151.15 170.434 151.15ZM170.434 149.845C170.884 149.845 171.284 149.74 171.634 149.53C171.984 149.32 172.259 149.035 172.459 148.675C172.659 148.305 172.759 147.885 172.759 147.415C172.759 146.955 172.654 146.545 172.444 146.185C172.244 145.825 171.969 145.545 171.619 145.345C171.279 145.135 170.884 145.03 170.434 145.03C169.984 145.03 169.584 145.135 169.234 145.345C168.884 145.545 168.609 145.825 168.409 146.185C168.209 146.545 168.109 146.955 168.109 147.415C168.109 147.885 168.209 148.305 168.409 148.675C168.609 149.035 168.884 149.32 169.234 149.53C169.584 149.74 169.984 149.845 170.434 149.845ZM175.676 151V143.875H177.026V151H175.676ZM177.026 146.935L176.516 146.71C176.516 145.8 176.726 145.075 177.146 144.535C177.566 143.995 178.171 143.725 178.961 143.725C179.321 143.725 179.646 143.79 179.936 143.92C180.226 144.04 180.496 144.245 180.746 144.535L179.861 145.45C179.711 145.29 179.546 145.175 179.366 145.105C179.186 145.035 178.976 145 178.736 145C178.236 145 177.826 145.16 177.506 145.48C177.186 145.8 177.026 146.285 177.026 146.935ZM188.095 151.15C187.435 151.15 186.845 150.99 186.325 150.67C185.805 150.34 185.39 149.895 185.08 149.335C184.78 148.775 184.63 148.145 184.63 147.445C184.63 146.745 184.78 146.115 185.08 145.555C185.39 144.995 185.805 144.55 186.325 144.22C186.845 143.89 187.435 143.725 188.095 143.725C188.625 143.725 189.105 143.84 189.535 144.07C189.965 144.29 190.31 144.6 190.57 145C190.84 145.39 190.99 145.845 191.02 146.365V148.51C190.99 149.02 190.845 149.475 190.585 149.875C190.325 150.275 189.98 150.59 189.55 150.82C189.12 151.04 188.635 151.15 188.095 151.15ZM188.32 149.875C188.77 149.875 189.16 149.77 189.49 149.56C189.83 149.35 190.095 149.065 190.285 148.705C190.475 148.335 190.57 147.915 190.57 147.445C190.57 146.955 190.47 146.53 190.27 146.17C190.08 145.81 189.815 145.525 189.475 145.315C189.145 145.105 188.755 145 188.305 145C187.855 145 187.46 145.105 187.12 145.315C186.78 145.525 186.51 145.815 186.31 146.185C186.12 146.545 186.025 146.96 186.025 147.43C186.025 147.91 186.12 148.335 186.31 148.705C186.51 149.065 186.78 149.35 187.12 149.56C187.47 149.77 187.87 149.875 188.32 149.875ZM191.845 151H190.48V149.08L190.735 147.34L190.48 145.615V140.29H191.845V151ZM196.84 151.15C196.19 151.15 195.6 150.99 195.07 150.67C194.54 150.34 194.12 149.895 193.81 149.335C193.51 148.775 193.36 148.145 193.36 147.445C193.36 146.745 193.51 146.115 193.81 145.555C194.12 144.995 194.535 144.55 195.055 144.22C195.585 143.89 196.18 143.725 196.84 143.725C197.38 143.725 197.86 143.84 198.28 144.07C198.71 144.29 199.055 144.6 199.315 145C199.575 145.39 199.72 145.845 199.75 146.365V148.51C199.72 149.02 199.575 149.475 199.315 149.875C199.065 150.275 198.725 150.59 198.295 150.82C197.875 151.04 197.39 151.15 196.84 151.15ZM197.065 149.875C197.735 149.875 198.275 149.65 198.685 149.2C199.095 148.74 199.3 148.155 199.3 147.445C199.3 146.955 199.205 146.53 199.015 146.17C198.835 145.8 198.575 145.515 198.235 145.315C197.895 145.105 197.5 145 197.05 145C196.6 145 196.2 145.105 195.85 145.315C195.51 145.525 195.24 145.815 195.04 146.185C194.85 146.545 194.755 146.96 194.755 147.43C194.755 147.91 194.85 148.335 195.04 148.705C195.24 149.065 195.515 149.35 195.865 149.56C196.215 149.77 196.615 149.875 197.065 149.875ZM199.21 151V149.08L199.465 147.34L199.21 145.615V143.875H200.575V151H199.21ZM203.606 151V140.89H204.956V151H203.606ZM201.851 145.105V143.875H206.711V145.105H201.851ZM210.844 151.15C210.194 151.15 209.604 150.99 209.074 150.67C208.544 150.34 208.124 149.895 207.814 149.335C207.514 148.775 207.364 148.145 207.364 147.445C207.364 146.745 207.514 146.115 207.814 145.555C208.124 144.995 208.539 144.55 209.059 144.22C209.589 143.89 210.184 143.725 210.844 143.725C211.384 143.725 211.864 143.84 212.284 144.07C212.714 144.29 213.059 144.6 213.319 145C213.579 145.39 213.724 145.845 213.754 146.365V148.51C213.724 149.02 213.579 149.475 213.319 149.875C213.069 150.275 212.729 150.59 212.299 150.82C211.879 151.04 211.394 151.15 210.844 151.15ZM211.069 149.875C211.739 149.875 212.279 149.65 212.689 149.2C213.099 148.74 213.304 148.155 213.304 147.445C213.304 146.955 213.209 146.53 213.019 146.17C212.839 145.8 212.579 145.515 212.239 145.315C211.899 145.105 211.504 145 211.054 145C210.604 145 210.204 145.105 209.854 145.315C209.514 145.525 209.244 145.815 209.044 146.185C208.854 146.545 208.759 146.96 208.759 147.43C208.759 147.91 208.854 148.335 209.044 148.705C209.244 149.065 209.519 149.35 209.869 149.56C210.219 149.77 210.619 149.875 211.069 149.875ZM213.214 151V149.08L213.469 147.34L213.214 145.615V143.875H214.579V151H213.214ZM219.68 151V143.875H221.03V151H219.68ZM220.355 142.45C220.105 142.45 219.9 142.37 219.74 142.21C219.58 142.04 219.5 141.83 219.5 141.58C219.5 141.34 219.58 141.14 219.74 140.98C219.9 140.81 220.105 140.725 220.355 140.725C220.605 140.725 220.81 140.81 220.97 140.98C221.13 141.14 221.21 141.34 221.21 141.58C221.21 141.83 221.13 142.04 220.97 142.21C220.81 142.37 220.605 142.45 220.355 142.45ZM228.059 151V146.845C228.059 146.305 227.889 145.86 227.549 145.51C227.209 145.16 226.769 144.985 226.229 144.985C225.869 144.985 225.549 145.065 225.269 145.225C224.989 145.385 224.769 145.605 224.609 145.885C224.449 146.165 224.369 146.485 224.369 146.845L223.814 146.53C223.814 145.99 223.934 145.51 224.174 145.09C224.414 144.67 224.749 144.34 225.179 144.1C225.609 143.85 226.094 143.725 226.634 143.725C227.174 143.725 227.649 143.86 228.059 144.13C228.479 144.4 228.809 144.755 229.049 145.195C229.289 145.625 229.409 146.085 229.409 146.575V151H228.059ZM223.019 151V143.875H224.369V151H223.019ZM235.452 151V140.89H236.802V151H235.452ZM233.697 145.105V143.875H238.557V145.105H233.697ZM239.88 151V143.875H241.23V151H239.88ZM241.23 146.935L240.72 146.71C240.72 145.8 240.93 145.075 241.35 144.535C241.77 143.995 242.375 143.725 243.165 143.725C243.525 143.725 243.85 143.79 244.14 143.92C244.43 144.04 244.7 144.245 244.95 144.535L244.065 145.45C243.915 145.29 243.75 145.175 243.57 145.105C243.39 145.035 243.18 145 242.94 145C242.44 145 242.03 145.16 241.71 145.48C241.39 145.8 241.23 146.285 241.23 146.935ZM248.696 151.15C248.046 151.15 247.456 150.99 246.926 150.67C246.396 150.34 245.976 149.895 245.666 149.335C245.366 148.775 245.216 148.145 245.216 147.445C245.216 146.745 245.366 146.115 245.666 145.555C245.976 144.995 246.391 144.55 246.911 144.22C247.441 143.89 248.036 143.725 248.696 143.725C249.236 143.725 249.716 143.84 250.136 144.07C250.566 144.29 250.911 144.6 251.171 145C251.431 145.39 251.576 145.845 251.606 146.365V148.51C251.576 149.02 251.431 149.475 251.171 149.875C250.921 150.275 250.581 150.59 250.151 150.82C249.731 151.04 249.246 151.15 248.696 151.15ZM248.921 149.875C249.591 149.875 250.131 149.65 250.541 149.2C250.951 148.74 251.156 148.155 251.156 147.445C251.156 146.955 251.061 146.53 250.871 146.17C250.691 145.8 250.431 145.515 250.091 145.315C249.751 145.105 249.356 145 248.906 145C248.456 145 248.056 145.105 247.706 145.315C247.366 145.525 247.096 145.815 246.896 146.185C246.706 146.545 246.611 146.96 246.611 147.43C246.611 147.91 246.706 148.335 246.896 148.705C247.096 149.065 247.371 149.35 247.721 149.56C248.071 149.77 248.471 149.875 248.921 149.875ZM251.066 151V149.08L251.321 147.34L251.066 145.615V143.875H252.431V151H251.066ZM259.436 151V146.845C259.436 146.305 259.266 145.86 258.926 145.51C258.586 145.16 258.146 144.985 257.606 144.985C257.246 144.985 256.926 145.065 256.646 145.225C256.366 145.385 256.146 145.605 255.986 145.885C255.826 146.165 255.746 146.485 255.746 146.845L255.191 146.53C255.191 145.99 255.311 145.51 255.551 145.09C255.791 144.67 256.126 144.34 256.556 144.1C256.986 143.85 257.471 143.725 258.011 143.725C258.551 143.725 259.026 143.86 259.436 144.13C259.856 144.4 260.186 144.755 260.426 145.195C260.666 145.625 260.786 146.085 260.786 146.575V151H259.436ZM254.396 151V143.875H255.746V151H254.396ZM264.879 151.15C264.479 151.15 264.099 151.1 263.739 151C263.389 150.89 263.064 150.74 262.764 150.55C262.464 150.35 262.204 150.115 261.984 149.845L262.854 148.975C263.114 149.295 263.414 149.535 263.754 149.695C264.094 149.845 264.474 149.92 264.894 149.92C265.314 149.92 265.639 149.85 265.869 149.71C266.099 149.56 266.214 149.355 266.214 149.095C266.214 148.835 266.119 148.635 265.929 148.495C265.749 148.345 265.514 148.225 265.224 148.135C264.934 148.035 264.624 147.94 264.294 147.85C263.974 147.75 263.669 147.625 263.379 147.475C263.089 147.325 262.849 147.12 262.659 146.86C262.479 146.6 262.389 146.255 262.389 145.825C262.389 145.395 262.494 145.025 262.704 144.715C262.914 144.395 263.204 144.15 263.574 143.98C263.954 143.81 264.409 143.725 264.939 143.725C265.499 143.725 265.994 143.825 266.424 144.025C266.864 144.215 267.224 144.505 267.504 144.895L266.634 145.765C266.434 145.505 266.184 145.305 265.884 145.165C265.594 145.025 265.264 144.955 264.894 144.955C264.504 144.955 264.204 145.025 263.994 145.165C263.794 145.295 263.694 145.48 263.694 145.72C263.694 145.96 263.784 146.145 263.964 146.275C264.144 146.405 264.379 146.515 264.669 146.605C264.969 146.695 265.279 146.79 265.599 146.89C265.919 146.98 266.224 147.105 266.514 147.265C266.804 147.425 267.039 147.64 267.219 147.91C267.409 148.18 267.504 148.535 267.504 148.975C267.504 149.645 267.264 150.175 266.784 150.565C266.314 150.955 265.679 151.15 264.879 151.15ZM269.03 151V143.875H270.38V151H269.03ZM269.705 142.45C269.455 142.45 269.25 142.37 269.09 142.21C268.93 142.04 268.85 141.83 268.85 141.58C268.85 141.34 268.93 141.14 269.09 140.98C269.25 140.81 269.455 140.725 269.705 140.725C269.955 140.725 270.16 140.81 270.32 140.98C270.48 141.14 270.56 141.34 270.56 141.58C270.56 141.83 270.48 142.04 270.32 142.21C270.16 142.37 269.955 142.45 269.705 142.45ZM273.465 151V140.89H274.815V151H273.465ZM271.71 145.105V143.875H276.57V145.105H271.71ZM284.042 151.15C283.392 151.15 282.802 150.99 282.272 150.67C281.742 150.34 281.322 149.895 281.012 149.335C280.712 148.775 280.562 148.145 280.562 147.445C280.562 146.745 280.712 146.115 281.012 145.555C281.322 144.995 281.737 144.55 282.257 144.22C282.787 143.89 283.382 143.725 284.042 143.725C284.582 143.725 285.062 143.84 285.482 144.07C285.912 144.29 286.257 144.6 286.517 145C286.777 145.39 286.922 145.845 286.952 146.365V148.51C286.922 149.02 286.777 149.475 286.517 149.875C286.267 150.275 285.927 150.59 285.497 150.82C285.077 151.04 284.592 151.15 284.042 151.15ZM284.267 149.875C284.937 149.875 285.477 149.65 285.887 149.2C286.297 148.74 286.502 148.155 286.502 147.445C286.502 146.955 286.407 146.53 286.217 146.17C286.037 145.8 285.777 145.515 285.437 145.315C285.097 145.105 284.702 145 284.252 145C283.802 145 283.402 145.105 283.052 145.315C282.712 145.525 282.442 145.815 282.242 146.185C282.052 146.545 281.957 146.96 281.957 147.43C281.957 147.91 282.052 148.335 282.242 148.705C282.442 149.065 282.717 149.35 283.067 149.56C283.417 149.77 283.817 149.875 284.267 149.875ZM286.412 151V149.08L286.667 147.34L286.412 145.615V143.875H287.777V151H286.412ZM294.783 151V146.845C294.783 146.305 294.613 145.86 294.273 145.51C293.933 145.16 293.493 144.985 292.953 144.985C292.593 144.985 292.273 145.065 291.993 145.225C291.713 145.385 291.493 145.605 291.333 145.885C291.173 146.165 291.093 146.485 291.093 146.845L290.538 146.53C290.538 145.99 290.658 145.51 290.898 145.09C291.138 144.67 291.473 144.34 291.903 144.1C292.333 143.85 292.818 143.725 293.358 143.725C293.898 143.725 294.373 143.86 294.783 144.13C295.203 144.4 295.533 144.755 295.773 145.195C296.013 145.625 296.133 146.085 296.133 146.575V151H294.783ZM289.743 151V143.875H291.093V151H289.743ZM300.976 151.15C300.316 151.15 299.726 150.99 299.206 150.67C298.686 150.34 298.271 149.895 297.961 149.335C297.661 148.775 297.511 148.145 297.511 147.445C297.511 146.745 297.661 146.115 297.961 145.555C298.271 144.995 298.686 144.55 299.206 144.22C299.726 143.89 300.316 143.725 300.976 143.725C301.506 143.725 301.986 143.84 302.416 144.07C302.846 144.29 303.191 144.6 303.451 145C303.721 145.39 303.871 145.845 303.901 146.365V148.51C303.871 149.02 303.726 149.475 303.466 149.875C303.206 150.275 302.861 150.59 302.431 150.82C302.001 151.04 301.516 151.15 300.976 151.15ZM301.201 149.875C301.651 149.875 302.041 149.77 302.371 149.56C302.711 149.35 302.976 149.065 303.166 148.705C303.356 148.335 303.451 147.915 303.451 147.445C303.451 146.955 303.351 146.53 303.151 146.17C302.961 145.81 302.696 145.525 302.356 145.315C302.026 145.105 301.636 145 301.186 145C300.736 145 300.341 145.105 300.001 145.315C299.661 145.525 299.391 145.815 299.191 146.185C299.001 146.545 298.906 146.96 298.906 147.43C298.906 147.91 299.001 148.335 299.191 148.705C299.391 149.065 299.661 149.35 300.001 149.56C300.351 149.77 300.751 149.875 301.201 149.875ZM304.726 151H303.361V149.08L303.616 147.34L303.361 145.615V140.29H304.726V151ZM132.465 175L136.725 164.59H137.745L141.99 175H140.46L136.965 166.195H137.49L133.965 175H132.465ZM134.49 172.645V171.415H139.965V172.645H134.49ZM143.557 175V164.59H144.967V175H143.557ZM144.517 175V173.71H150.487V175H144.517ZM144.517 170.29V169.06H149.992V170.29H144.517ZM144.517 165.88V164.59H150.412V165.88H144.517ZM155.036 175.15C154.216 175.15 153.516 175 152.936 174.7C152.356 174.4 151.841 173.965 151.391 173.395L152.351 172.435C152.681 172.895 153.061 173.245 153.491 173.485C153.921 173.715 154.451 173.83 155.081 173.83C155.701 173.83 156.196 173.695 156.566 173.425C156.946 173.155 157.136 172.785 157.136 172.315C157.136 171.925 157.046 171.61 156.866 171.37C156.686 171.13 156.441 170.935 156.131 170.785C155.831 170.625 155.501 170.485 155.141 170.365C154.781 170.235 154.421 170.1 154.061 169.96C153.701 169.81 153.371 169.63 153.071 169.42C152.771 169.2 152.526 168.915 152.336 168.565C152.156 168.215 152.066 167.775 152.066 167.245C152.066 166.655 152.206 166.155 152.486 165.745C152.776 165.325 153.166 165.005 153.656 164.785C154.156 164.555 154.716 164.44 155.336 164.44C156.016 164.44 156.626 164.575 157.166 164.845C157.706 165.105 158.146 165.45 158.486 165.88L157.526 166.84C157.216 166.48 156.881 166.21 156.521 166.03C156.171 165.85 155.766 165.76 155.306 165.76C154.746 165.76 154.301 165.885 153.971 166.135C153.641 166.375 153.476 166.715 153.476 167.155C153.476 167.505 153.566 167.79 153.746 168.01C153.936 168.22 154.181 168.4 154.481 168.55C154.781 168.7 155.111 168.84 155.471 168.97C155.841 169.09 156.206 169.225 156.566 169.375C156.926 169.525 157.256 169.715 157.556 169.945C157.856 170.175 158.096 170.475 158.276 170.845C158.466 171.205 158.561 171.66 158.561 172.21C158.561 173.13 158.241 173.85 157.601 174.37C156.971 174.89 156.116 175.15 155.036 175.15ZM160.397 171.82V170.545H165.332V171.82H160.397ZM166.391 174.145L170.231 170.095C170.621 169.695 170.926 169.35 171.146 169.06C171.366 168.76 171.521 168.485 171.611 168.235C171.711 167.985 171.761 167.725 171.761 167.455C171.761 166.925 171.591 166.51 171.251 166.21C170.911 165.91 170.471 165.76 169.931 165.76C169.401 165.76 168.936 165.89 168.536 166.15C168.136 166.4 167.781 166.79 167.471 167.32L166.481 166.495C166.891 165.815 167.386 165.305 167.966 164.965C168.546 164.615 169.216 164.44 169.976 164.44C170.616 164.44 171.171 164.565 171.641 164.815C172.121 165.065 172.491 165.415 172.751 165.865C173.011 166.315 173.141 166.84 173.141 167.44C173.141 167.87 173.086 168.255 172.976 168.595C172.876 168.935 172.691 169.285 172.421 169.645C172.161 169.995 171.796 170.415 171.326 170.905L168.221 174.1L166.391 174.145ZM166.391 175V174.145L167.591 173.74H173.381V175H166.391ZM177.732 175.15C177.022 175.15 176.387 175.025 175.827 174.775C175.277 174.515 174.812 174.14 174.432 173.65L175.392 172.69C175.622 173.04 175.937 173.32 176.337 173.53C176.747 173.73 177.202 173.83 177.702 173.83C178.172 173.83 178.582 173.74 178.932 173.56C179.292 173.38 179.572 173.13 179.772 172.81C179.982 172.48 180.087 172.09 180.087 171.64C180.087 171.18 179.987 170.79 179.787 170.47C179.587 170.15 179.317 169.91 178.977 169.75C178.647 169.58 178.282 169.495 177.882 169.495C177.472 169.495 177.097 169.545 176.757 169.645C176.427 169.745 176.112 169.915 175.812 170.155L175.827 169.255C175.997 169.045 176.192 168.875 176.412 168.745C176.632 168.615 176.882 168.515 177.162 168.445C177.442 168.375 177.767 168.34 178.137 168.34C178.857 168.34 179.467 168.49 179.967 168.79C180.467 169.09 180.847 169.495 181.107 170.005C181.377 170.515 181.512 171.085 181.512 171.715C181.512 172.375 181.347 172.965 181.017 173.485C180.697 174.005 180.252 174.415 179.682 174.715C179.112 175.005 178.462 175.15 177.732 175.15ZM175.812 170.155L175.047 169.39L175.512 164.59H176.802L176.277 169.525L175.812 170.155ZM175.797 165.85L175.512 164.59H180.987V165.85H175.797ZM186.357 175.15C185.667 175.15 185.047 174.99 184.497 174.67C183.957 174.35 183.527 173.92 183.207 173.38C182.887 172.84 182.727 172.24 182.727 171.58C182.727 170.66 183.047 169.745 183.687 168.835L186.747 164.59H188.382L185.247 168.865L184.737 169.135C184.857 168.925 185.002 168.75 185.172 168.61C185.342 168.46 185.552 168.345 185.802 168.265C186.052 168.185 186.347 168.145 186.687 168.145C187.297 168.145 187.847 168.29 188.337 168.58C188.837 168.87 189.237 169.27 189.537 169.78C189.847 170.28 190.002 170.865 190.002 171.535C190.002 172.195 189.837 172.8 189.507 173.35C189.187 173.9 188.747 174.34 188.187 174.67C187.637 174.99 187.027 175.15 186.357 175.15ZM186.357 173.83C186.777 173.83 187.152 173.73 187.482 173.53C187.822 173.32 188.087 173.045 188.277 172.705C188.477 172.355 188.577 171.965 188.577 171.535C188.577 171.105 188.477 170.72 188.277 170.38C188.087 170.03 187.822 169.755 187.482 169.555C187.152 169.355 186.777 169.255 186.357 169.255C185.937 169.255 185.557 169.355 185.217 169.555C184.887 169.755 184.622 170.03 184.422 170.38C184.232 170.72 184.137 171.105 184.137 171.535C184.137 171.965 184.232 172.355 184.422 172.705C184.622 173.055 184.887 173.33 185.217 173.53C185.557 173.73 185.937 173.83 186.357 173.83ZM195.724 175V166.81C195.724 166.28 195.839 165.82 196.069 165.43C196.299 165.03 196.614 164.715 197.014 164.485C197.424 164.255 197.899 164.14 198.439 164.14C198.849 164.14 199.204 164.21 199.504 164.35C199.804 164.49 200.079 164.695 200.329 164.965L199.444 165.835C199.314 165.695 199.169 165.59 199.009 165.52C198.849 165.44 198.654 165.4 198.424 165.4C197.994 165.4 197.659 165.525 197.419 165.775C197.189 166.025 197.074 166.37 197.074 166.81V175H195.724ZM193.969 169.105V167.875H199.339V169.105H193.969ZM203.54 175.15C202.84 175.15 202.21 174.985 201.65 174.655C201.09 174.325 200.645 173.88 200.315 173.32C199.985 172.75 199.82 172.115 199.82 171.415C199.82 170.725 199.985 170.105 200.315 169.555C200.645 168.995 201.09 168.55 201.65 168.22C202.21 167.89 202.84 167.725 203.54 167.725C204.23 167.725 204.855 167.89 205.415 168.22C205.985 168.54 206.435 168.98 206.765 169.54C207.095 170.1 207.26 170.725 207.26 171.415C207.26 172.115 207.095 172.75 206.765 173.32C206.435 173.88 205.985 174.325 205.415 174.655C204.855 174.985 204.23 175.15 203.54 175.15ZM203.54 173.845C203.99 173.845 204.39 173.74 204.74 173.53C205.09 173.32 205.365 173.035 205.565 172.675C205.765 172.305 205.865 171.885 205.865 171.415C205.865 170.955 205.76 170.545 205.55 170.185C205.35 169.825 205.075 169.545 204.725 169.345C204.385 169.135 203.99 169.03 203.54 169.03C203.09 169.03 202.69 169.135 202.34 169.345C201.99 169.545 201.715 169.825 201.515 170.185C201.315 170.545 201.215 170.955 201.215 171.415C201.215 171.885 201.315 172.305 201.515 172.675C201.715 173.035 201.99 173.32 202.34 173.53C202.69 173.74 203.09 173.845 203.54 173.845ZM208.781 175V167.875H210.131V175H208.781ZM210.131 170.935L209.621 170.71C209.621 169.8 209.831 169.075 210.251 168.535C210.671 167.995 211.276 167.725 212.066 167.725C212.426 167.725 212.751 167.79 213.041 167.92C213.331 168.04 213.601 168.245 213.851 168.535L212.966 169.45C212.816 169.29 212.651 169.175 212.471 169.105C212.291 169.035 212.081 169 211.841 169C211.341 169 210.931 169.16 210.611 169.48C210.291 169.8 210.131 170.285 210.131 170.935ZM221.2 175.15C220.54 175.15 219.95 174.99 219.43 174.67C218.91 174.34 218.495 173.895 218.185 173.335C217.885 172.775 217.735 172.145 217.735 171.445C217.735 170.745 217.885 170.115 218.185 169.555C218.495 168.995 218.91 168.55 219.43 168.22C219.95 167.89 220.54 167.725 221.2 167.725C221.73 167.725 222.21 167.84 222.64 168.07C223.07 168.29 223.415 168.6 223.675 169C223.945 169.39 224.095 169.845 224.125 170.365V172.51C224.095 173.02 223.95 173.475 223.69 173.875C223.43 174.275 223.085 174.59 222.655 174.82C222.225 175.04 221.74 175.15 221.2 175.15ZM221.425 173.875C221.875 173.875 222.265 173.77 222.595 173.56C222.935 173.35 223.2 173.065 223.39 172.705C223.58 172.335 223.675 171.915 223.675 171.445C223.675 170.955 223.575 170.53 223.375 170.17C223.185 169.81 222.92 169.525 222.58 169.315C222.25 169.105 221.86 169 221.41 169C220.96 169 220.565 169.105 220.225 169.315C219.885 169.525 219.615 169.815 219.415 170.185C219.225 170.545 219.13 170.96 219.13 171.43C219.13 171.91 219.225 172.335 219.415 172.705C219.615 173.065 219.885 173.35 220.225 173.56C220.575 173.77 220.975 173.875 221.425 173.875ZM224.95 175H223.585V173.08L223.84 171.34L223.585 169.615V164.29H224.95V175ZM229.946 175.15C229.296 175.15 228.706 174.99 228.176 174.67C227.646 174.34 227.226 173.895 226.916 173.335C226.616 172.775 226.466 172.145 226.466 171.445C226.466 170.745 226.616 170.115 226.916 169.555C227.226 168.995 227.641 168.55 228.161 168.22C228.691 167.89 229.286 167.725 229.946 167.725C230.486 167.725 230.966 167.84 231.386 168.07C231.816 168.29 232.161 168.6 232.421 169C232.681 169.39 232.826 169.845 232.856 170.365V172.51C232.826 173.02 232.681 173.475 232.421 173.875C232.171 174.275 231.831 174.59 231.401 174.82C230.981 175.04 230.496 175.15 229.946 175.15ZM230.171 173.875C230.841 173.875 231.381 173.65 231.791 173.2C232.201 172.74 232.406 172.155 232.406 171.445C232.406 170.955 232.311 170.53 232.121 170.17C231.941 169.8 231.681 169.515 231.341 169.315C231.001 169.105 230.606 169 230.156 169C229.706 169 229.306 169.105 228.956 169.315C228.616 169.525 228.346 169.815 228.146 170.185C227.956 170.545 227.861 170.96 227.861 171.43C227.861 171.91 227.956 172.335 228.146 172.705C228.346 173.065 228.621 173.35 228.971 173.56C229.321 173.77 229.721 173.875 230.171 173.875ZM232.316 175V173.08L232.571 171.34L232.316 169.615V167.875H233.681V175H232.316ZM236.712 175V164.89H238.062V175H236.712ZM234.957 169.105V167.875H239.817V169.105H234.957ZM243.95 175.15C243.3 175.15 242.71 174.99 242.18 174.67C241.65 174.34 241.23 173.895 240.92 173.335C240.62 172.775 240.47 172.145 240.47 171.445C240.47 170.745 240.62 170.115 240.92 169.555C241.23 168.995 241.645 168.55 242.165 168.22C242.695 167.89 243.29 167.725 243.95 167.725C244.49 167.725 244.97 167.84 245.39 168.07C245.82 168.29 246.165 168.6 246.425 169C246.685 169.39 246.83 169.845 246.86 170.365V172.51C246.83 173.02 246.685 173.475 246.425 173.875C246.175 174.275 245.835 174.59 245.405 174.82C244.985 175.04 244.5 175.15 243.95 175.15ZM244.175 173.875C244.845 173.875 245.385 173.65 245.795 173.2C246.205 172.74 246.41 172.155 246.41 171.445C246.41 170.955 246.315 170.53 246.125 170.17C245.945 169.8 245.685 169.515 245.345 169.315C245.005 169.105 244.61 169 244.16 169C243.71 169 243.31 169.105 242.96 169.315C242.62 169.525 242.35 169.815 242.15 170.185C241.96 170.545 241.865 170.96 241.865 171.43C241.865 171.91 241.96 172.335 242.15 172.705C242.35 173.065 242.625 173.35 242.975 173.56C243.325 173.77 243.725 173.875 244.175 173.875ZM246.32 175V173.08L246.575 171.34L246.32 169.615V167.875H247.685V175H246.32ZM255.8 175.15C255.15 175.15 254.56 174.99 254.03 174.67C253.5 174.34 253.08 173.895 252.77 173.335C252.47 172.775 252.32 172.145 252.32 171.445C252.32 170.745 252.47 170.115 252.77 169.555C253.08 168.995 253.495 168.55 254.015 168.22C254.545 167.89 255.14 167.725 255.8 167.725C256.34 167.725 256.82 167.84 257.24 168.07C257.67 168.29 258.015 168.6 258.275 169C258.535 169.39 258.68 169.845 258.71 170.365V172.51C258.68 173.02 258.535 173.475 258.275 173.875C258.025 174.275 257.685 174.59 257.255 174.82C256.835 175.04 256.35 175.15 255.8 175.15ZM256.025 173.875C256.695 173.875 257.235 173.65 257.645 173.2C258.055 172.74 258.26 172.155 258.26 171.445C258.26 170.955 258.165 170.53 257.975 170.17C257.795 169.8 257.535 169.515 257.195 169.315C256.855 169.105 256.46 169 256.01 169C255.56 169 255.16 169.105 254.81 169.315C254.47 169.525 254.2 169.815 254 170.185C253.81 170.545 253.715 170.96 253.715 171.43C253.715 171.91 253.81 172.335 254 172.705C254.2 173.065 254.475 173.35 254.825 173.56C255.175 173.77 255.575 173.875 256.025 173.875ZM258.17 175V173.08L258.425 171.34L258.17 169.615V167.875H259.535V175H258.17ZM262.566 175V164.89H263.916V175H262.566ZM260.811 169.105V167.875H265.671V169.105H260.811ZM270.114 175V167.875H271.464V175H270.114ZM271.464 170.935L270.954 170.71C270.954 169.8 271.164 169.075 271.584 168.535C272.004 167.995 272.609 167.725 273.399 167.725C273.759 167.725 274.084 167.79 274.374 167.92C274.664 168.04 274.934 168.245 275.184 168.535L274.299 169.45C274.149 169.29 273.984 169.175 273.804 169.105C273.624 169.035 273.414 169 273.174 169C272.674 169 272.264 169.16 271.944 169.48C271.624 169.8 271.464 170.285 271.464 170.935ZM279.2 175.15C278.49 175.15 277.85 174.99 277.28 174.67C276.71 174.34 276.26 173.895 275.93 173.335C275.6 172.775 275.435 172.14 275.435 171.43C275.435 170.73 275.595 170.1 275.915 169.54C276.245 168.98 276.685 168.54 277.235 168.22C277.795 167.89 278.42 167.725 279.11 167.725C279.77 167.725 280.35 167.875 280.85 168.175C281.36 168.475 281.755 168.89 282.035 169.42C282.325 169.95 282.47 170.55 282.47 171.22C282.47 171.32 282.465 171.43 282.455 171.55C282.445 171.66 282.425 171.79 282.395 171.94H276.38V170.815H281.675L281.18 171.25C281.18 170.77 281.095 170.365 280.925 170.035C280.755 169.695 280.515 169.435 280.205 169.255C279.895 169.065 279.52 168.97 279.08 168.97C278.62 168.97 278.215 169.07 277.865 169.27C277.515 169.47 277.245 169.75 277.055 170.11C276.865 170.47 276.77 170.895 276.77 171.385C276.77 171.885 276.87 172.325 277.07 172.705C277.27 173.075 277.555 173.365 277.925 173.575C278.295 173.775 278.72 173.875 279.2 173.875C279.6 173.875 279.965 173.805 280.295 173.665C280.635 173.525 280.925 173.315 281.165 173.035L282.035 173.92C281.695 174.32 281.275 174.625 280.775 174.835C280.285 175.045 279.76 175.15 279.2 175.15ZM286.207 175.15C285.807 175.15 285.427 175.1 285.067 175C284.717 174.89 284.392 174.74 284.092 174.55C283.792 174.35 283.532 174.115 283.312 173.845L284.182 172.975C284.442 173.295 284.742 173.535 285.082 173.695C285.422 173.845 285.802 173.92 286.222 173.92C286.642 173.92 286.967 173.85 287.197 173.71C287.427 173.56 287.542 173.355 287.542 173.095C287.542 172.835 287.447 172.635 287.257 172.495C287.077 172.345 286.842 172.225 286.552 172.135C286.262 172.035 285.952 171.94 285.622 171.85C285.302 171.75 284.997 171.625 284.707 171.475C284.417 171.325 284.177 171.12 283.987 170.86C283.807 170.6 283.717 170.255 283.717 169.825C283.717 169.395 283.822 169.025 284.032 168.715C284.242 168.395 284.532 168.15 284.902 167.98C285.282 167.81 285.737 167.725 286.267 167.725C286.827 167.725 287.322 167.825 287.752 168.025C288.192 168.215 288.552 168.505 288.832 168.895L287.962 169.765C287.762 169.505 287.512 169.305 287.212 169.165C286.922 169.025 286.592 168.955 286.222 168.955C285.832 168.955 285.532 169.025 285.322 169.165C285.122 169.295 285.022 169.48 285.022 169.72C285.022 169.96 285.112 170.145 285.292 170.275C285.472 170.405 285.707 170.515 285.997 170.605C286.297 170.695 286.607 170.79 286.927 170.89C287.247 170.98 287.552 171.105 287.842 171.265C288.132 171.425 288.367 171.64 288.547 171.91C288.737 172.18 288.832 172.535 288.832 172.975C288.832 173.645 288.592 174.175 288.112 174.565C287.642 174.955 287.007 175.15 286.207 175.15ZM291.439 175V164.89H292.789V175H291.439ZM289.684 169.105V167.875H294.544V169.105H289.684Z" fill="black"/>
<ellipse cx="67.6849" cy="121.407" rx="44.6849" ry="42.3636" fill="url(#paint1_linear_4271_5890)"/>
<ellipse cx="67.685" cy="121.407" rx="41.0122" ry="38.8817" fill="#E5E5E5"/>
<path d="M79.011 114.169H79.01H78.3267V107.189C78.3267 104.367 77.1435 101.671 75.0565 99.6926C72.9712 97.7157 70.1539 96.6138 67.2267 96.6138C64.2995 96.6138 61.4821 97.7157 59.3969 99.6926C57.3098 101.671 56.1266 104.367 56.1266 107.189V114.169H55.4433H55.4423C53.4089 114.171 51.4494 114.937 49.9963 116.315C48.5413 117.694 47.7122 119.576 47.71 121.551V121.552L47.71 139.107L47.71 139.108C47.7122 141.083 48.5413 142.965 49.9963 144.344C51.4494 145.722 53.4089 146.488 55.4423 146.49H55.4433H79.01H79.011C81.0444 146.488 83.0039 145.722 84.4571 144.344C85.912 142.965 86.7411 141.083 86.7434 139.108V139.107V121.552V121.551C86.7411 119.576 85.912 117.694 84.4571 116.315C83.0039 114.937 81.0444 114.171 79.011 114.169ZM61.4933 114.169V107.189C61.4933 105.779 62.0837 104.415 63.1535 103.401C64.2251 102.385 65.6894 101.806 67.2267 101.806C68.7639 101.806 70.2282 102.385 71.2998 103.401C72.3697 104.415 72.96 105.779 72.96 107.189V114.169H61.4933Z" fill="url(#paint2_linear_4271_5890)" stroke="url(#paint3_linear_4271_5890)" stroke-width="2"/>
<ellipse cx="68.2981" cy="138.817" rx="2.44849" ry="1.74097" fill="#F7F7F7"/>
<ellipse cx="68.2985" cy="136.495" rx="1.22424" ry="1.74097" fill="#F7F7F7"/>
<path d="M98.4488 79.6196C92.1893 79.6196 87.0967 84.7123 87.0967 90.9718C87.0967 97.2313 92.1893 102.324 98.4488 102.324C104.708 102.324 109.801 97.2313 109.801 90.9718C109.801 84.7123 104.708 79.6196 98.4488 79.6196ZM96.3749 96.6686L91.9759 91.7801L93.2743 90.6115L96.3307 94.0074L103.579 85.3754L104.918 86.4964L96.3749 96.6686Z" fill="url(#paint4_linear_4271_5890)"/>
<defs>
<linearGradient id="paint0_linear_4271_5890" x1="197.113" y1="228" x2="131.055" y2="21.0898" gradientUnits="userSpaceOnUse">
<stop stop-color="#E7EDF2"/>
<stop offset="1" stop-color="#F7FAFB"/>
</linearGradient>
<linearGradient id="paint1_linear_4271_5890" x1="23" y1="109.949" x2="106.564" y2="99.3775" gradientUnits="userSpaceOnUse">
<stop stop-color="#F6F6F6"/>
<stop offset="0.515" stop-color="#DAE3EA"/>
<stop offset="0.92" stop-color="white"/>
</linearGradient>
<linearGradient id="paint2_linear_4271_5890" x1="48.71" y1="119.513" x2="84.2312" y2="114.211" gradientUnits="userSpaceOnUse">
<stop stop-color="#7E8E9C"/>
<stop offset="0.5" stop-color="#C3C8CB"/>
<stop offset="1" stop-color="#788187"/>
</linearGradient>
<linearGradient id="paint3_linear_4271_5890" x1="48.71" y1="115.077" x2="83.5916" y2="111.841" gradientUnits="userSpaceOnUse">
<stop stop-color="#F6F6F6"/>
<stop offset="0.515" stop-color="#DAE3EA"/>
<stop offset="0.92" stop-color="white"/>
</linearGradient>
<linearGradient id="paint4_linear_4271_5890" x1="109.801" y1="90.9718" x2="87.0967" y2="90.9718" gradientUnits="userSpaceOnUse">
<stop stop-color="#1DB3D9"/>
<stop offset="1" stop-color="#2DD5C3"/>
</linearGradient>
</defs>
</svg>
