<svg width="25" height="30" viewBox="0 0 25 30" fill="none" xmlns="http://www.w3.org/2000/svg">
<path d="M13.9244 4.32715V0.0771484H0.524414V29.2772H13.9244V25.0272C11.1794 25.0272 8.54681 23.9367 6.60585 21.9957C4.66485 20.0547 3.57441 17.4222 3.57441 14.6772C3.57441 11.9322 4.66485 9.29956 6.60585 7.3586C8.54681 5.4176 11.1794 4.32715 13.9244 4.32715Z" fill="#697077"/>
<path d="M13.9248 4.32715V25.0272C16.6698 25.0272 19.3024 23.9367 21.2434 21.9957C23.1844 20.0547 24.2748 17.4222 24.2748 14.6772C24.2748 11.9322 23.1844 9.29956 21.2434 7.3586C19.3024 5.4176 16.6698 4.32715 13.9248 4.32715Z" fill="#697077"/>
</svg>
