<svg width="163" height="108" viewBox="0 0 163 108" fill="none" xmlns="http://www.w3.org/2000/svg">
<path d="M20.6562 36.4814C20.6562 36.1696 19.8035 35.3696 19.5375 35.3696H18.8076V34.6577H23.0574L27.4435 45.5932H27.5322L32.1435 34.6577H35.943V35.3696H35.2609C34.9949 35.3696 34.1422 36.1696 34.1422 36.4814V47.3762C34.1422 47.6881 34.9949 48.488 35.2609 48.488H35.943V49.2067H30.3222V48.488H31.0384C31.3045 48.488 32.1571 47.6881 32.1571 47.3762V36.7933L26.8296 49.4169L21.5362 36.5696V47.3287C21.5362 47.6406 22.3889 48.4406 22.6549 48.4406H23.3712V49.1524H18.8076V48.4406H19.4898C19.7558 48.4406 20.6085 47.6406 20.6085 47.3287L20.6562 36.4814Z" fill="#051C2C"/>
<path d="M42.0889 42.9694C42.3549 41.505 42.0889 40.2169 40.4722 40.2169C38.5963 40.2169 37.655 41.7288 37.655 43.905C37.655 46.0812 39.0193 47.7287 41.1475 47.7287C41.7613 47.7917 42.3796 47.6629 42.9164 47.3604C43.4531 47.0578 43.8816 46.5965 44.1421 46.0406H44.7288C44.1012 48.0744 42.8461 49.3761 40.4722 49.3761C37.8391 49.3761 36.1338 47.1728 36.1338 44.4609C36.1338 41.4372 38.1461 39.4373 40.6564 39.4373C41.2814 39.4068 41.9056 39.5123 42.4853 39.7466C43.0649 39.9808 43.5862 40.3379 44.0125 40.7932L42.6483 42.9287L42.0889 42.9694Z" fill="#051C2C"/>
<path d="M61.1897 37.5458C61.3508 37.5486 61.5107 37.5189 61.6599 37.4583C61.809 37.3977 61.9442 37.3076 62.0572 37.1934C62.1701 37.0792 62.2585 36.9434 62.3169 36.7942C62.3754 36.645 62.4026 36.4855 62.3971 36.3254C62.4059 36.1655 62.3808 36.0056 62.3232 35.856C62.2657 35.7064 62.1771 35.5706 62.0631 35.4573C61.9492 35.3441 61.8125 35.256 61.662 35.1988C61.5115 35.1416 61.3506 35.1166 61.1897 35.1255C61.0203 35.1129 60.8501 35.1353 60.6898 35.1911C60.5295 35.2469 60.3825 35.335 60.258 35.4498C60.1335 35.5647 60.0342 35.7038 59.9662 35.8586C59.8983 36.0133 59.8633 36.1803 59.8633 36.3492C59.8633 36.518 59.8983 36.685 59.9662 36.8398C60.0342 36.9945 60.1335 37.1337 60.258 37.2485C60.3825 37.3634 60.5295 37.4515 60.6898 37.5073C60.8501 37.5631 61.0203 37.5854 61.1897 37.5729V37.5458Z" fill="#051C2C"/>
<path d="M74.6136 48.4406C74.3475 48.4406 73.5835 47.7626 73.5835 47.4643V42.2169C73.5996 41.8659 73.5427 41.5154 73.4163 41.1873C73.29 40.8591 73.0969 40.5604 72.8492 40.3097C72.6014 40.059 72.3044 39.8618 71.9765 39.7304C71.6486 39.5989 71.297 39.5361 70.9436 39.5458C69.2451 39.5458 68.3515 40.5288 67.2328 41.6814L66.8712 39.7153H63.8766V40.3932H64.4565C64.7225 40.3932 65.4865 41.1051 65.4865 41.3763V47.3762C65.4865 47.6881 64.7225 48.3525 64.4565 48.3525H63.2968C63.024 48.3525 62.2668 47.6745 62.2668 47.3762V39.7153H58.8561V40.3932H59.4359C59.7087 40.3932 60.4659 41.1051 60.4659 41.3763V47.3762C60.4659 47.6881 59.7087 48.3525 59.4359 48.3525H58.3717C57.7169 48.0779 57.1234 47.6769 56.6255 47.1728L51.5503 40.4814L55.0838 36.6984C55.628 36.1449 56.2622 35.6865 56.9597 35.3425H57.6419V34.6577H52.3621V35.3696H53.0783C53.3444 35.3696 54.197 36.3458 53.9719 36.6102L48.7535 42.4271V36.4814C48.7535 36.1696 49.5994 35.3696 49.8722 35.3696H50.5544V34.6577H44.9062V35.3696H45.5884C45.8544 35.3696 46.7071 36.1696 46.7071 36.4814V47.3762C46.7071 47.6881 45.8544 48.4881 45.5884 48.4881H44.9062V49.2067H50.5885V48.4881H49.9064C49.6335 48.4881 48.7876 47.6881 48.7876 47.3762V43.5525L50.2611 41.9458L55.2816 49.2067H68.8426V48.4881H68.3037C68.0377 48.4881 67.2737 47.8101 67.2737 47.505V42.6576C67.2737 42.0407 69.02 40.7051 70.3638 40.7051C70.5742 40.694 70.7845 40.7285 70.9802 40.8063C71.1758 40.884 71.3521 41.0031 71.4968 41.1553C71.6415 41.3075 71.7512 41.4892 71.8182 41.6877C71.8853 41.8863 71.908 42.0969 71.885 42.3051V47.4643C71.885 47.7762 71.121 48.4406 70.855 48.4406H70.3161V49.1524H75.1525V48.4406H74.6136Z" fill="#051C2C"/>
<path d="M76.3599 45.8647C76.3599 46.7528 77.656 48.6172 79.6683 48.6172C80.8348 48.6172 81.5033 48.2172 81.5033 47.3291C81.5033 46.2647 80.5619 45.9054 79.7161 45.5528C79.0339 45.2817 78.5087 45.0647 77.7447 44.7054C76.585 44.1698 75.6982 43.4173 75.6982 42.1292C75.6982 40.4343 76.7283 39.458 78.5632 39.458C79.5933 39.458 80.1731 39.9461 80.8893 39.9461C81.1554 39.9461 81.3327 39.9055 81.4214 39.6817H81.9603V42.5698H81.3805C81.2501 41.9014 80.8961 41.2964 80.3759 40.8533C79.8558 40.4102 79.2001 40.155 78.5155 40.1292C77.3968 40.1292 76.9056 40.6173 76.9056 41.3698C76.9056 42.1224 77.4855 42.4817 78.4268 42.8817C79.1431 43.1936 79.682 43.4173 80.4732 43.7291C81.5033 44.1291 82.6629 44.9291 82.6629 46.441C82.6629 48.2172 81.4078 49.2884 79.6206 49.2884C78.4132 49.2884 77.6969 48.7053 76.892 48.7053C76.7556 48.6905 76.6177 48.7115 76.492 48.7663C76.3663 48.821 76.2573 48.9075 76.1757 49.0172H75.7255V45.7291H76.3122L76.3599 45.8647Z" fill="#051C2C"/>
<path d="M83.291 44.4613C83.291 41.6613 85.2147 39.4783 87.6363 39.5257C88.08 39.5092 88.5225 39.5822 88.937 39.7403C89.3516 39.8984 89.7297 40.1384 90.0484 40.4456C90.3671 40.7529 90.6199 41.1211 90.7915 41.5282C90.9632 41.9352 91.0501 42.3725 91.047 42.8138L91.0879 43.4918L84.7781 43.9867C84.7781 45.8985 86.1424 47.7629 88.2229 47.7629C88.8307 47.8212 89.4416 47.69 89.9709 47.3874C90.5002 47.0849 90.9216 46.6262 91.1766 46.0748H91.7973C91.1698 48.1087 90.0033 49.4103 87.7045 49.4103C85.0373 49.3764 83.291 47.1053 83.291 44.4613ZM89.5122 42.9494C89.6895 41.5935 89.4644 40.2783 87.5885 40.2783C85.7126 40.2783 84.8599 41.8782 84.7713 43.3494L89.5122 42.9494Z" fill="#051C2C"/>
<path d="M92.7788 41.5051C92.4818 41.0456 92.0644 40.6753 91.5714 40.434H91.1689V39.7153H96.1759V40.3933H95.596C95.33 40.3933 94.7434 41.0712 94.7434 41.417L96.9399 46.4949L99.0886 41.4712C99.0463 41.2492 98.9512 41.0404 98.8112 40.8623C98.6711 40.6842 98.4903 40.542 98.2837 40.4475H97.6971V39.7153H101.503V40.3933H101.053C100.828 40.3933 100.16 41.1051 99.9345 41.417L96.7148 48.6644L94.3409 53.8711L93.495 53.4711L95.9985 48.3118L92.7788 41.5051Z" fill="#051C2C"/>
<path d="M47.0072 56.6641C47.0388 57.2518 47.2523 57.8155 47.6187 58.2779C47.985 58.7403 48.4862 59.0788 49.0537 59.2471C50.9296 61.2471 53.2147 63.3827 55.193 65.1589C55.7452 64.2319 56.0109 63.1638 55.957 62.0878C55.957 60.7319 55.0633 59.9522 53.6308 59.9048V59.2268H58.822V59.9048H58.2353C57.6375 60.2629 57.1803 60.813 56.9392 61.4641C56.9269 62.9113 56.4933 64.324 55.6909 65.5318C56.6298 66.3683 57.6135 67.1536 58.6378 67.8843H59.5382V68.5623H57.9215C57.2473 68.5816 56.5763 68.4634 55.9498 68.215C55.3233 67.9667 54.7547 67.5934 54.2789 67.1182C53.6438 67.7162 52.8931 68.1797 52.0722 68.4804C51.2513 68.7811 50.3775 68.9127 49.5039 68.8674C48.3235 68.9076 47.1753 68.4803 46.3118 67.6793C45.4484 66.8784 44.9403 65.7694 44.8994 64.5962C44.8976 63.7301 45.1086 62.8766 45.5139 62.1098C45.9193 61.343 46.5068 60.6862 47.2255 60.1963C46.4808 59.3593 46.0771 58.2762 46.0932 57.159C46.0932 55.0641 47.4575 53.9116 49.5857 53.9116C50.95 53.9116 51.6322 54.3523 52.2666 54.3523C52.5804 54.3523 52.8055 54.3523 52.9487 54.0879H53.5763V57.4777H52.9146C52.9146 56.5014 51.4821 54.5421 49.5039 54.5421C47.9486 54.576 47.0072 55.3082 47.0072 56.6641ZM46.3797 63.6064C46.3797 65.6945 48.6171 67.6742 50.6772 67.6742C51.816 67.7052 52.9333 67.362 53.856 66.6979C51.6316 64.7795 49.5245 62.7307 47.5461 60.5624C47.1449 60.958 46.8333 61.4342 46.6321 61.9592C46.4309 62.4841 46.3449 63.0457 46.3797 63.6064Z" fill="#051C2C"/>
<path d="M74.4775 59.2001C74.4775 57.6883 72.7789 54.6646 70.0504 54.6646C67.5469 54.6646 66.0257 56.0205 65.7529 59.3357C65.6801 60.5647 65.6961 61.7972 65.8006 63.0238C65.8487 64.2893 66.3972 65.4847 67.327 66.3505C68.2569 67.2162 69.4929 67.6823 70.7666 67.6475C73.2701 67.6475 74.5252 66.5831 75.4666 64.6713H76.2237C75.8314 65.9089 75.0407 66.984 73.9733 67.7312C72.9059 68.4785 71.621 68.8564 70.3164 68.8068C66.1144 68.8068 63.4268 65.417 63.4268 61.2476C63.4268 57.0781 65.8893 53.79 69.9617 53.79C71.5238 53.79 72.5129 54.4138 73.6316 54.4138C73.8023 54.4267 73.9736 54.3969 74.1297 54.327C74.2859 54.2571 74.4218 54.1494 74.5252 54.0138H75.0641V59.173H74.4775V59.2001Z" fill="#051C2C"/>
<path d="M77.2059 63.8712C77.2059 60.8 79.4024 58.8882 81.9059 58.8882C84.4093 58.8882 86.6058 60.8 86.6058 63.8712C86.6058 66.9423 84.4093 68.8677 81.9059 68.8677C81.2633 68.8586 80.6293 68.7206 80.0417 68.4622C79.454 68.2037 78.925 67.83 78.4861 67.3634C78.0473 66.8969 77.7077 66.3471 77.4877 65.747C77.2677 65.147 77.1719 64.5089 77.2059 63.8712ZM84.7095 65.4305C84.8459 64.3659 84.8459 63.2883 84.7095 62.2237C84.5321 60.7119 83.6795 59.6882 81.94 59.6882C80.2005 59.6882 79.3888 60.7119 79.1637 62.1831C79.0272 63.2454 79.0272 64.3207 79.1637 65.383C79.3888 66.8474 80.1937 67.9186 81.94 67.9186C83.6863 67.9186 84.5458 66.8949 84.7231 65.4305H84.7095Z" fill="#051C2C"/>
<path d="M102.03 66.8338C102.03 67.1457 102.746 67.8169 103.012 67.8169H103.462V68.4948H98.687V67.8169H99.2191C99.492 67.8169 100.208 67.1389 100.208 66.8338V61.6475C100.24 61.443 100.225 61.234 100.164 61.0363C100.102 60.8387 99.9956 60.6577 99.8527 60.5072C99.7098 60.3567 99.5342 60.2407 99.3392 60.168C99.1443 60.0954 98.9352 60.0681 98.728 60.0882C97.4797 60.0882 95.9585 61.2949 95.9585 61.9119V66.8338C95.9585 67.1457 96.6406 67.8169 96.9408 67.8169H97.4797V68.4948H92.6433V67.8169H93.1617C93.4277 67.8169 94.144 67.1389 94.144 66.8338V61.6475C94.1692 61.4408 94.1477 61.2311 94.0809 61.0338C94.0141 60.8364 93.9037 60.6564 93.7579 60.5069C93.6121 60.3575 93.4344 60.2423 93.238 60.1698C93.0417 60.0974 92.8314 60.0695 92.6228 60.0882C91.3677 60.0882 89.8465 61.3356 89.8465 62V66.8949C89.8465 67.2067 90.5627 67.8711 90.8356 67.8711H91.3677V68.5491H86.5381V67.8711H87.077C87.343 67.8711 88.0593 67.1932 88.0593 66.8949V60.8475C88.0593 60.5356 87.343 59.8712 87.077 59.8712H86.5381V59.1933H89.444L89.8465 61.017C90.9243 59.8577 91.6405 58.9831 93.2981 58.9831C93.8993 58.9333 94.4965 59.1176 94.9636 59.497C95.4307 59.8765 95.7311 60.4215 95.8016 61.017C96.9612 59.8577 97.7252 59.0577 99.2873 59.0577C99.6396 59.0455 99.9904 59.1069 100.317 59.238C100.644 59.3691 100.94 59.567 101.185 59.8188C101.43 60.0706 101.619 60.3707 101.739 60.6997C101.86 61.0288 101.91 61.3794 101.886 61.7288V66.8338H102.03Z" fill="#051C2C"/>
<path d="M106.244 59.1592L106.558 61.071C106.842 60.4032 107.324 59.8369 107.939 59.4471C108.554 59.0573 109.274 58.8623 110.003 58.888C112.329 58.888 113.714 60.7998 113.714 63.6947C113.714 66.5896 112.104 68.7591 109.826 68.7591C109.161 68.8184 108.494 68.6708 107.917 68.3368C107.34 68.0028 106.882 67.4988 106.606 66.8947V71.3827C106.606 71.6946 107.363 72.3658 107.588 72.3658H108.216V73.0437H103.202V72.3658H103.83C104.096 72.3658 104.812 71.6878 104.812 71.3827V60.8473C104.812 60.5354 104.096 59.871 103.83 59.871H103.202V59.1931L106.244 59.1592ZM106.558 62.549V65.071C106.558 65.7902 106.846 66.4799 107.357 66.9885C107.869 67.4971 108.563 67.7828 109.287 67.7828C110.897 67.7828 111.661 66.7591 111.879 65.2947C112.015 64.3663 112.015 63.4231 111.879 62.4947C111.702 60.9829 110.856 60.0473 109.512 60.0473C107.902 59.9998 107.009 61.1117 106.558 62.5829V62.549Z" fill="#051C2C"/>
<path d="M134.294 67.871C134.028 67.871 133.271 67.1931 133.271 66.8948V61.6474C133.286 61.2966 133.228 60.9465 133.102 60.6188C132.975 60.2911 132.782 59.9928 132.534 59.7423C132.287 59.4919 131.99 59.2946 131.663 59.1629C131.335 59.0311 130.984 58.9675 130.631 58.9762C128.926 58.9762 128.032 59.9593 126.913 61.1118L126.586 59.1999H123.584V59.8779H124.171C124.437 59.8779 125.194 60.5898 125.194 60.8609V66.8337C125.194 67.1456 124.437 67.8168 124.171 67.8168H123.005C122.739 67.8168 121.975 67.1388 121.975 66.8337V61.7355C121.975 59.8711 120.453 58.9355 118.441 58.9355C117.739 58.8911 117.035 58.999 116.379 59.2519C115.723 59.5047 115.13 59.8965 114.642 60.3999L115.89 62.3118H116.572C115.856 60.7118 116.388 59.6474 117.998 59.6474C119.608 59.6474 120.235 60.3999 120.235 61.7355V62.8948L117.779 63.3829C116.415 63.6473 114.689 64.3185 114.689 66.1829C114.674 66.5106 114.724 66.838 114.838 67.146C114.952 67.454 115.126 67.7363 115.351 67.9763C115.576 68.2164 115.847 68.4093 116.148 68.5437C116.449 68.6781 116.774 68.7514 117.104 68.7591C118.468 68.7591 119.519 67.6473 120.283 66.671L120.508 68.5829H128.557V67.9049H128.025C127.752 67.9049 126.995 67.227 126.995 66.9287V62.0474C126.995 61.4236 128.741 60.0881 130.078 60.0881C130.289 60.078 130.5 60.1135 130.695 60.192C130.891 60.2706 131.067 60.3903 131.212 60.543C131.356 60.6957 131.466 60.8778 131.533 61.0766C131.6 61.2755 131.623 61.4864 131.6 61.6948V66.8337C131.6 67.1456 130.842 67.8168 130.576 67.8168H129.997V68.4947H134.826V67.8168H134.287L134.294 67.871ZM120.201 65.8372C119.799 66.5151 118.837 67.4778 117.875 67.4778C117.673 67.4825 117.473 67.4463 117.286 67.3716C117.099 67.2968 116.929 67.185 116.786 67.043C116.644 66.9009 116.532 66.7316 116.458 66.5453C116.384 66.359 116.348 66.1595 116.354 65.9592C116.354 65.0236 116.756 64.4067 117.923 64.0948L120.201 63.5118V65.8304V65.8372Z" fill="#051C2C"/>
<path d="M135.454 60.9357C135.156 60.478 134.739 60.1099 134.246 59.8713H133.844V59.1934H138.864V59.8713H138.284C138.018 59.8713 137.439 60.5493 137.439 60.895L139.628 65.9187L141.777 60.895C141.74 60.6711 141.647 60.46 141.506 60.2811C141.365 60.1023 141.182 59.9614 140.972 59.8713H140.385V59.1934H144.192V59.8713H143.742C143.523 59.8713 142.848 60.5832 142.623 60.895L139.403 68.1424L137.036 73.3423L136.177 72.9356L138.68 67.7763L135.454 60.9357Z" fill="#051C2C"/>
</svg>
