<svg width="83" height="79" viewBox="0 0 83 79" fill="none" xmlns="http://www.w3.org/2000/svg">
<ellipse cx="41.685" cy="39.3636" rx="41.0122" ry="38.8817" fill="url(#paint0_linear_4328_962)"/>
<g clip-path="url(#clip0_4328_962)">
<path d="M49.9199 29.3018C52.0195 29.3018 54.1192 29.3047 56.2188 29.298C56.4383 29.298 56.5557 29.3511 56.6378 29.5831C57.0024 30.6184 58.0274 31.3357 59.1201 31.3908C60.3236 31.4517 61.3572 30.7257 61.7857 29.79C62.5139 28.1989 61.7523 26.3845 60.1232 25.8287C58.7212 25.3512 57.0854 26.1564 56.6206 27.5658C56.5509 27.7774 56.4192 27.7774 56.2541 27.7774C53.2478 27.7765 50.2415 27.7774 47.2352 27.7774C46.026 27.7774 44.8177 27.7726 43.6085 27.7823C43.3938 27.7842 43.328 27.7272 43.3241 27.501C43.3098 26.4551 43.2716 25.4092 43.2478 24.3642C43.2401 24.0423 43.2611 24.0269 43.5866 24.0269C45.7263 24.0269 47.8651 24.0259 50.0048 24.0269C50.377 24.0269 50.6834 23.9089 50.8351 23.5436C50.8876 23.416 50.8953 23.2613 50.8953 23.1192C50.8991 21.387 50.9019 19.6548 50.8934 17.9225C50.8924 17.6992 50.9487 17.5939 51.1654 17.5001C52.3622 16.982 52.9901 15.9805 52.9548 14.6978C52.9214 13.4827 51.9785 12.3788 50.8161 12.0782C49.5696 11.7563 48.1896 12.433 47.6141 13.5833C46.9145 14.981 47.5635 16.8428 48.9903 17.4489C49.2588 17.5629 49.3931 17.7688 49.3931 18.0666C49.3931 19.4276 49.3931 20.7896 49.3931 22.1506C49.3931 22.4696 49.3854 22.4783 49.0753 22.4793C47.2457 22.4793 45.4171 22.4793 43.5875 22.4793C43.2678 22.4793 43.2487 22.459 43.2487 22.1381C43.2487 20.4948 43.2506 18.8515 43.2478 17.2072C43.2449 15.4102 42.5215 13.967 41.0661 12.9569C38.4396 11.1338 34.8635 12.2068 33.64 15.1898C33.4472 15.6596 33.1055 15.6819 32.7677 15.7998C30.7453 16.5006 29.2231 17.7988 28.2048 19.6992C27.6665 20.7036 27.3811 21.7862 27.3019 22.923C27.2886 23.1115 27.1903 23.1743 27.0481 23.2197C25.9935 23.559 25.0324 24.0829 24.1658 24.776C22.8287 25.8442 21.8343 27.1762 21.2053 28.7847C20.9171 29.5203 20.7138 30.2762 20.6146 31.0631C20.5964 31.2081 20.5077 31.3724 20.4008 31.472C19.1925 32.5971 18.2801 33.9292 17.698 35.4797C17.1081 37.0514 16.8801 38.6763 17.0642 40.3612C17.2876 42.3989 18.0186 44.2171 19.2756 45.816C19.6058 46.2364 19.9646 46.6453 20.3674 46.9914C20.6527 47.2369 20.6699 47.5462 20.7329 47.8469C21.0583 49.4041 21.7331 50.7864 22.7266 52.0121C23.7822 53.3142 25.0887 54.2683 26.6348 54.884C26.9431 55.0068 27.2714 55.0764 27.5882 55.1769C27.7639 55.233 27.9461 55.2543 27.97 55.5249C28.1532 57.5665 29.0341 59.2542 30.5392 60.6123C31.2779 61.2784 32.1302 61.752 33.053 62.0961C33.1962 62.1493 33.2449 62.2199 33.2621 62.3678C33.4882 64.2373 34.4054 65.636 36.0794 66.4779C37.0109 66.9468 38.0034 67.1063 39.0447 66.9178C40.8017 66.6007 42.0519 65.6176 42.8183 63.9975C43.1428 63.3112 43.2602 62.5766 43.2592 61.8178C43.2564 58.885 43.2592 55.9531 43.2592 53.0203C43.2592 52.9478 43.264 52.8753 43.2592 52.8028C43.2459 52.6028 43.3413 52.5312 43.5312 52.5341C43.9769 52.5399 44.4217 52.5361 44.8674 52.5361C46.2751 52.5361 47.6828 52.5409 49.0905 52.5312C49.3282 52.5293 49.4064 52.597 49.4045 52.8444C49.394 54.2779 49.3969 55.7124 49.4026 57.146C49.4026 57.3393 49.3539 57.434 49.1554 57.5094C47.9319 57.9773 47.198 59.232 47.3555 60.5408C47.4996 61.7356 48.4234 62.7032 49.5992 62.9661C50.8857 63.2532 52.345 62.4886 52.8203 61.1024C53.3156 59.6573 52.5855 58.072 51.151 57.5085C50.9554 57.4311 50.9019 57.3345 50.9019 57.1402C50.9067 55.4079 50.9048 53.6757 50.9048 51.9435C50.9048 51.2901 50.6194 51.0001 49.9781 51.0001C47.8546 51.0001 45.7311 51.0001 43.6076 51.0001C43.2497 51.0001 43.2497 50.9991 43.2497 50.6376C43.2497 49.0426 43.2459 47.4476 43.2526 45.8517C43.2535 45.5637 43.286 45.2746 43.3241 44.9885C43.3318 44.9315 43.4234 44.8735 43.4883 44.8406C43.5322 44.8174 43.5971 44.8358 43.6534 44.8358C46.0871 44.8358 48.5208 44.8377 50.9544 44.8319C51.173 44.8319 51.2875 44.8812 51.3686 45.1161C51.8115 46.3998 53.3108 47.1799 54.6135 46.8435C55.6958 46.5641 56.4097 45.8798 56.6979 44.8058C57.0606 43.4535 56.4345 42.0383 55.1232 41.4709C53.6353 40.8281 52.1035 41.4419 51.4068 42.918C51.3868 42.9615 51.362 43.005 51.3543 43.0514C51.3171 43.2573 51.194 43.3153 50.9955 43.3143C49.9457 43.3075 48.8958 43.3114 47.846 43.3114C46.4383 43.3114 45.0306 43.3066 43.6229 43.3162C43.4033 43.3182 43.2993 43.2592 43.2955 43.0282C43.2926 42.8281 43.2526 42.628 43.2516 42.4279C43.2487 40.1959 43.2497 37.9649 43.2497 35.7329C43.2497 35.3917 43.2659 35.3743 43.5971 35.3733C45.4181 35.3733 47.24 35.3733 49.0609 35.3733C49.3892 35.3733 49.394 35.3791 49.394 35.7116C49.394 36.6541 49.3931 37.5966 49.395 38.5391C49.3959 39.1287 49.6708 39.4071 50.2558 39.4071C54.1688 39.4081 58.0818 39.4071 61.9948 39.4071C62.2855 39.4071 62.4309 39.555 62.4309 39.8508C62.4309 40.9624 62.4223 42.0741 62.4366 43.1857C62.4405 43.4776 62.3746 43.6439 62.0807 43.7618C61.1893 44.1205 60.6271 44.8116 60.4343 45.7473C60.1719 47.0252 60.6472 48.1968 61.8172 48.8657C63.3805 49.7589 65.3513 48.9324 65.8801 47.1915C66.3067 45.785 65.5861 44.2916 64.1793 43.7106C63.9818 43.6294 63.9398 43.5289 63.9407 43.3404C63.9455 41.8421 63.9436 40.3438 63.9436 38.8445C63.9436 38.1718 63.6516 37.8789 62.9806 37.8789C59.0753 37.8789 55.17 37.8789 51.2656 37.8789C51.0225 37.8789 50.901 37.7567 50.901 37.5125C50.901 36.6019 50.901 35.6913 50.901 34.7817C50.901 34.1138 50.6175 33.8238 49.9619 33.8238C47.8622 33.8238 45.7626 33.8238 43.6629 33.8238C43.3887 33.8238 43.2516 33.6891 43.2516 33.4197C43.2516 32.1554 43.2516 30.89 43.2516 29.6257C43.2516 29.3183 43.2726 29.297 43.577 29.297C45.6929 29.297 47.8078 29.297 49.9237 29.297L49.9199 29.3018ZM41.7103 40.2259C41.1596 39.8875 40.6204 39.7048 40.0401 39.6739C38.9931 39.6188 38.0874 39.9552 37.3497 40.7189C37.1302 40.946 37.071 41.2254 37.1989 41.5202C37.4232 42.0364 37.9977 42.1649 38.4215 41.7793C38.8939 41.3501 39.4283 41.1625 40.0611 41.2234C40.9725 41.3114 41.7294 42.1292 41.7294 43.0552C41.7313 49.3307 41.7341 55.6071 41.7208 61.8825C41.7208 62.3078 41.6377 62.7515 41.5003 63.1537C40.6977 65.4958 37.6675 66.2198 35.8809 64.5166C35.3942 64.0517 35.0678 63.4929 34.8778 62.8492C34.7929 62.5611 34.8444 62.5012 35.1269 62.5079C35.3474 62.5128 35.5755 62.5273 35.7893 62.4847C36.2206 62.3968 36.4516 61.8854 36.2712 61.4785C36.1147 61.1227 35.8265 60.9932 35.4657 60.9893C34.3663 60.9787 33.3489 60.6694 32.4117 60.1029C29.9952 58.6404 28.8767 55.7182 29.6745 52.9826C30.0935 51.5472 30.9143 50.4046 32.1492 49.582C32.5243 49.3316 32.9442 49.1509 33.3375 48.9266C33.6877 48.7275 33.8223 48.2906 33.6534 47.9484C33.4606 47.5588 33.0588 47.4041 32.6703 47.5636C31.4125 48.0798 30.3703 48.8879 29.5304 49.9629C28.7316 50.9856 28.2391 52.1513 28.0129 53.4312C27.9738 53.6535 27.8793 53.6989 27.6913 53.6235C27.3449 53.4853 26.986 53.3722 26.6549 53.204C23.7449 51.7337 22.2284 49.321 22.0385 46.0576C21.9574 44.6579 22.2905 43.323 22.9404 42.0828C23.9759 40.105 25.5583 38.7807 27.6636 38.1031C28.1179 37.9572 28.347 37.5502 28.2095 37.0852C28.096 36.7025 27.6245 36.4782 27.2141 36.6319C26.7608 36.802 26.3017 36.9634 25.8684 37.1771C24.0418 38.0751 22.6398 39.4332 21.6672 41.2389C21.1147 42.2645 20.7549 43.3568 20.6126 44.5197C20.5993 44.6318 20.5573 44.7401 20.5134 44.9092C20.4141 44.7884 20.3559 44.7246 20.3053 44.656C19.2641 43.2408 18.6724 41.6565 18.5426 39.8924C18.4462 38.5855 18.6294 37.3211 19.0799 36.1002C19.6306 34.6087 20.5277 33.3569 21.734 32.3352C21.9211 32.1766 22.0232 31.9881 22.0566 31.7407C22.1187 31.2786 22.1683 30.8108 22.2828 30.3613C22.5911 29.1452 23.1475 28.0529 23.9578 27.096C24.8387 26.0539 25.92 25.3019 27.175 24.7992C27.2981 24.7499 27.364 24.7557 27.4098 24.9191C27.5806 25.5281 27.7199 26.1535 27.969 26.7296C28.8662 28.8031 30.3789 30.2453 32.468 31.0592C32.8765 31.2187 33.3222 31.0099 33.4596 30.6116C33.5961 30.2173 33.3899 29.79 32.9891 29.6286C32.8202 29.5599 32.6503 29.4894 32.4881 29.4062C30.2138 28.2366 28.9874 26.3468 28.7994 23.7852C28.7096 22.5721 28.9941 21.4131 29.5867 20.3536C30.711 18.343 32.4222 17.2188 34.6908 16.9704C34.9275 16.9443 35.1689 16.9472 35.4027 16.9047C35.7511 16.8428 35.9821 16.577 36.0078 16.2531C36.0384 15.8616 35.8628 15.5813 35.5049 15.447C35.2596 15.3551 35.2539 15.3281 35.3999 15.1125C36.1653 13.9864 37.6379 13.3638 39.0475 13.707C40.5908 14.0821 41.7179 15.4518 41.7284 17.0622C41.7418 19.2294 41.7322 21.3966 41.7313 23.5639C41.7313 23.6451 41.7122 23.7272 41.6988 23.8364C41.2169 23.561 40.7492 23.3754 40.2348 23.3183C39.1124 23.1946 38.1495 23.5339 37.3545 24.341C37.2504 24.4474 37.175 24.6127 37.1493 24.7615C37.092 25.0902 37.2686 25.4101 37.5396 25.5484C37.8173 25.6895 38.1609 25.6489 38.4052 25.4208C38.7679 25.0824 39.1783 24.8708 39.6784 24.834C40.7702 24.7519 41.7313 25.6025 41.7313 26.6745C41.7332 31.0892 41.7322 35.5038 41.7313 39.9194C41.7313 40.0035 41.7198 40.0876 41.7103 40.2249V40.2259ZM50.1413 16.1748C49.4198 16.1748 48.8376 15.5891 48.8386 14.865C48.8395 14.1488 49.436 13.5465 50.1451 13.5446C50.8485 13.5436 51.4536 14.1565 51.4507 14.8679C51.4479 15.592 50.8638 16.1758 50.1413 16.1758V16.1748ZM50.1451 58.8618C50.8743 58.8618 51.4536 59.4427 51.4507 60.1725C51.4479 60.884 50.8647 61.4707 50.1547 61.4765C49.4341 61.4823 48.8395 60.8927 48.8386 60.1706C48.8386 59.4379 49.4122 58.8627 50.1442 58.8618H50.1451ZM60.5345 28.5189C60.546 29.2525 59.9953 29.848 59.2929 29.8615C58.5504 29.876 57.9644 29.3067 57.9568 28.5624C57.9491 27.8296 58.5246 27.2274 59.2385 27.2216C59.9438 27.2158 60.524 27.7958 60.5355 28.5198L60.5345 28.5189ZM63.1791 45.0571C63.9026 45.0591 64.4809 45.6429 64.4828 46.3727C64.4847 47.089 63.8816 47.6845 63.1639 47.6758C62.449 47.6671 61.8869 47.0919 61.885 46.3679C61.884 45.6284 62.449 45.0562 63.1791 45.0581V45.0571ZM55.2578 44.0596C55.2616 44.8019 54.6956 45.3935 53.9779 45.3964C53.266 45.4003 52.6742 44.801 52.6733 44.076C52.6723 43.3588 53.2478 42.7623 53.9502 42.7546C54.6765 42.7469 55.2539 43.324 55.2578 44.0596Z" fill="white"/>
<path d="M35.987 53.4255C34.4285 53.4207 33.0857 54.426 32.6495 55.9774C32.2859 57.2727 32.5856 58.4317 33.4999 59.4071C33.9408 59.8778 34.6127 59.6942 34.795 59.0765C34.879 58.7913 34.7778 58.5458 34.5889 58.3467C34.1384 57.872 33.98 57.3124 34.041 56.6666C34.1441 55.583 35.317 54.7469 36.3631 55.004C36.7362 55.0958 37.0569 55.2631 37.3413 55.5212C37.6944 55.8411 38.1554 55.8305 38.4465 55.5057C38.7337 55.1857 38.6984 54.714 38.3625 54.3815C37.7746 53.7986 36.8517 53.4265 35.9861 53.4245L35.987 53.4255Z" fill="white"/>
<path d="M29.8355 45.0088C29.8317 43.8798 29.4928 43.0562 28.8238 42.3728C28.5967 42.1408 28.2302 42.0751 27.9668 42.2007C27.6805 42.337 27.4753 42.6531 27.5335 42.9624C27.5669 43.1413 27.6642 43.3259 27.7807 43.467C28.1014 43.8566 28.317 44.28 28.3218 44.7962C28.3285 45.6545 27.9496 46.2964 27.1899 46.6482C26.4235 47.004 25.6839 46.8773 25.0397 46.3109C24.8049 46.105 24.5644 45.9629 24.2428 46.0683C23.6778 46.2548 23.5108 46.9044 23.9202 47.3433C24.281 47.7299 24.7238 47.9986 25.2143 48.1765C26.7032 48.7159 28.4077 48.1253 29.2724 46.7778C29.6494 46.1901 29.8498 45.5482 29.8345 45.0078L29.8355 45.0088Z" fill="white"/>
<path d="M34.2024 41.4737C34.693 41.4844 35.0098 41.2852 35.0872 40.917C35.1988 40.3834 34.8867 39.9793 34.3446 39.9493C33.5792 39.9078 32.9999 39.5608 32.6287 38.8735C31.9816 37.6758 32.8004 36.1263 34.1423 35.9958C34.359 35.9745 34.5909 35.9358 34.7798 35.8363C35.0747 35.6807 35.1816 35.2882 35.0747 34.946C34.985 34.6599 34.673 34.4347 34.3313 34.4414C32.9866 34.4685 31.7468 35.2292 31.1818 36.5622C30.4107 38.3824 31.2324 40.4143 32.9827 41.1828C33.3626 41.349 33.7844 41.4177 34.1862 41.5317L34.2024 41.4737Z" fill="white"/>
<path d="M35.4441 19.4768C33.8302 19.5106 32.4712 20.5672 32.078 22.1544C31.7735 23.384 32.056 24.4782 32.8949 25.4178C33.1688 25.7252 33.5153 25.7754 33.8407 25.584C34.1585 25.3975 34.2931 25.0446 34.1642 24.6686C34.1194 24.5381 34.022 24.4212 33.9333 24.31C33.165 23.3521 33.3654 22.022 34.3838 21.3463C35.1282 20.8523 36.0654 20.95 36.7983 21.5976C37.2068 21.9591 37.6916 21.9205 37.9741 21.5048C38.1688 21.2177 38.1431 20.8185 37.894 20.5498C37.4941 20.1186 37.0045 19.8209 36.4462 19.6614C36.1207 19.5686 35.7791 19.5358 35.4441 19.4758V19.4768Z" fill="white"/>
<path d="M23.7014 32.9238C23.7071 33.5879 23.9295 34.1659 24.3781 34.6512C24.7188 35.0195 25.1368 35.0543 25.4747 34.7517C25.7848 34.4743 25.8173 34.0006 25.51 33.6507C25.1263 33.2138 25.154 32.6135 25.404 32.2713C25.7591 31.7851 26.4023 31.6884 26.9101 32.0325C27.0828 32.1495 27.2737 32.2761 27.4712 32.3129C27.8224 32.3776 28.0839 32.2065 28.2252 31.8991C28.376 31.5724 28.3292 31.2815 28.0639 31.0195C27.5094 30.4695 26.8366 30.2375 26.0664 30.2955C24.7045 30.397 23.6814 31.5357 23.7005 32.9247L23.7014 32.9238Z" fill="white"/>
</g>
<defs>
<linearGradient id="paint0_linear_4328_962" x1="0.672851" y1="36.0508" x2="77.9018" y2="20.3338" gradientUnits="userSpaceOnUse">
<stop stop-color="#7E8E9C"/>
<stop offset="0.5" stop-color="#C3C8CB"/>
<stop offset="1" stop-color="#788187"/>
</linearGradient>
<clipPath id="clip0_4328_962">
<rect width="49" height="55" fill="white" transform="matrix(1 0 0 -1 17 67)"/>
</clipPath>
</defs>
</svg>
