<svg width="434" height="485" viewBox="0 0 434 485" fill="none" xmlns="http://www.w3.org/2000/svg">
<path d="M310.059 79.7383C307.927 80.0394 305.848 80.5239 303.808 81.2178C303.18 86.4026 301.036 90.8804 299.205 93.8918C298.63 94.8345 298.093 95.6331 297.636 96.2616C299.283 97.1912 300.879 98.2125 302.409 99.2861C304.985 95.2142 309.248 87.4631 310.046 79.7383H310.059Z" fill="#006EA5"/>
<path d="M302.396 81.7285C300.853 82.3308 299.349 83.0509 297.898 83.902C292.798 86.9002 288.587 91.3126 296.472 95.6071C298.198 93.2111 301.441 88.0131 302.396 81.7285Z" fill="#006EA5"/>
<path d="M321.2 79.8302C319.369 79.5684 317.643 79.4374 316.048 79.385C314.936 79.3458 313.812 79.3851 312.7 79.4636C312.059 87.2801 308.149 94.9526 305.351 99.5482C305.063 100.02 304.802 100.439 304.54 100.844C306.227 102.141 307.809 103.489 309.3 104.864C312.556 100.923 318.833 92.0198 321.2 79.8302Z" fill="#006EA5"/>
<path d="M333.663 83.5219C330.747 82.134 327.83 81.1783 325.058 80.5498C323.489 88.6805 320.364 95.3972 317.343 100.346C315.394 103.554 313.498 106.003 312.125 107.639C313.616 109.171 314.95 110.703 316.14 112.156C320.115 107.822 329.387 96.7327 333.663 83.535V83.5219Z" fill="#006EA5"/>
<path d="M331.44 100.543C326.784 108.176 321.724 113.898 319.317 116.438C320.664 118.467 321.514 120.143 321.789 121.204L345.079 91.7052C342.908 89.4794 340.62 87.6595 338.305 86.1538C336.501 91.4041 334.042 96.2878 331.44 100.556V100.543Z" fill="#006EA5"/>
<path d="M303.809 81.2178C303.338 81.3749 302.867 81.5451 302.397 81.7284C301.442 88.013 298.199 93.224 296.473 95.6069C296.538 95.6462 296.577 95.6724 296.643 95.7117C296.983 95.895 297.31 96.0783 297.637 96.2616C298.094 95.6331 298.63 94.8344 299.206 93.8917C301.037 90.8804 303.181 86.4026 303.809 81.2178Z" fill="#1EA6ED"/>
<path d="M312.7 79.4634C311.811 79.5158 310.934 79.6074 310.045 79.7383C309.247 87.4632 304.997 95.2011 302.408 99.2861C303.127 99.7967 303.834 100.32 304.527 100.844C304.788 100.438 305.05 100.019 305.337 99.548C308.136 94.9654 312.046 87.2799 312.687 79.4634H312.7Z" fill="#1EA6ED"/>
<path d="M325.059 80.5502C323.738 80.2491 322.456 80.0134 321.201 79.8301C318.821 92.0196 312.544 100.91 309.301 104.864C310.295 105.78 311.236 106.71 312.125 107.626C313.498 105.99 315.395 103.541 317.343 100.334C320.351 95.3845 323.489 88.6678 325.059 80.5371V80.5502Z" fill="#1EA6ED"/>
<path d="M338.292 86.1406C336.762 85.1324 335.206 84.2683 333.65 83.522C329.374 96.7197 320.089 107.809 316.127 112.143C317.369 113.675 318.442 115.128 319.305 116.425C321.711 113.885 326.785 108.163 331.427 100.53C334.029 96.2614 336.488 91.3778 338.292 86.1275V86.1406Z" fill="#1EA6ED"/>
<path d="M214.4 244.448C213.694 242.418 213.171 240.337 212.857 238.216C217.173 235.283 220.181 231.329 222.011 228.317C222.587 227.375 223.044 226.537 223.397 225.843C224.98 226.89 226.614 227.846 228.275 228.71C225.83 232.874 220.913 240.206 214.414 244.448H214.4Z" fill="#006EA5"/>
<path d="M212.662 236.736C212.492 235.087 212.439 233.411 212.544 231.735C212.871 225.83 214.859 220.056 222.286 225.11C220.953 227.742 217.814 233.005 212.675 236.736H212.662Z" fill="#006EA5"/>
<path d="M219.593 254.333C218.533 252.828 217.618 251.348 216.846 249.947C216.31 248.965 215.826 247.957 215.382 246.936C222.025 242.785 227.06 235.794 229.858 231.198C230.146 230.727 230.394 230.295 230.63 229.889C232.552 230.792 234.474 231.591 236.383 232.285C234.37 236.985 229.335 246.648 219.606 254.333H219.593Z" fill="#006EA5"/>
<path d="M228.576 263.734C226 261.77 223.829 259.61 221.998 257.436C228.497 252.317 233.035 246.451 236.043 241.515C237.991 238.307 239.312 235.505 240.136 233.528C242.176 234.144 244.15 234.641 245.981 235.034C243.954 240.546 238.344 253.888 228.589 263.734H228.576Z" fill="#006EA5"/>
<path d="M242.661 253.967C247.316 246.334 250.075 239.211 251.226 235.898C253.645 236.16 255.528 236.16 256.588 235.925L241.039 270.15C238.071 269.233 235.416 268.029 233.01 266.667C236.854 262.66 240.058 258.235 242.661 253.967Z" fill="#006EA5"/>
<path d="M212.858 238.216C212.78 237.719 212.714 237.221 212.662 236.724C217.814 232.992 220.953 227.729 222.274 225.097C222.326 225.136 222.378 225.163 222.444 225.202C222.758 225.424 223.071 225.621 223.385 225.83C223.032 226.524 222.574 227.362 221.999 228.305C220.168 231.316 217.174 235.27 212.845 238.203L212.858 238.216Z" fill="#1EA6ED"/>
<path d="M215.382 246.936C215.029 246.124 214.702 245.299 214.414 244.461C220.913 240.219 225.83 232.887 228.276 228.724C229.06 229.13 229.845 229.522 230.63 229.902C230.394 230.308 230.133 230.753 229.858 231.211C227.06 235.794 222.025 242.799 215.382 246.949V246.936Z" fill="#1EA6ED"/>
<path d="M221.986 257.436C221.11 256.402 220.312 255.368 219.593 254.333C229.322 246.635 234.357 236.985 236.37 232.285C237.639 232.743 238.894 233.162 240.124 233.529C239.3 235.506 237.992 238.307 236.031 241.515C233.023 246.464 228.485 252.317 221.986 257.436Z" fill="#1EA6ED"/>
<path d="M233.023 266.667C231.428 265.763 229.95 264.781 228.577 263.734C238.346 253.888 243.943 240.546 245.969 235.034C247.892 235.44 249.67 235.728 251.226 235.898C250.076 239.211 247.316 246.333 242.661 253.967C240.059 258.235 236.855 262.66 233.01 266.667H233.023Z" fill="#1EA6ED"/>
<path d="M239.235 305.762C239.235 305.762 314.78 388.431 435.834 422.132C446.753 425.17 458.431 421.307 465.335 412.312C489.031 381.452 543.993 305.107 575.038 223.381C578.817 213.417 576.529 202.184 569.219 194.433C545.013 168.744 483.382 111.593 390.862 82.3699C375.039 77.3684 357.777 80.6154 344.766 90.9196C342.87 92.4253 340.882 94.0881 338.803 95.9211C324.575 108.503 273.588 160.273 234.239 274.954C234.239 274.954 227.361 294.004 239.235 305.749V305.762Z" fill="#1EA6ED"/>
<path d="M265.401 199.696C265.401 199.696 236.122 244.199 232.003 262.595C232.003 262.595 235.22 259.819 241.798 254.595L265.401 199.683V199.696Z" fill="#1EA6ED"/>
<path d="M241.785 254.595C241.785 254.595 222.522 285.495 232.526 308.42L236.005 294.699C236.005 294.699 238.751 259.348 241.785 254.595Z" fill="#1EA6ED"/>
<path d="M234.096 298.797C234.096 298.797 256.719 334.96 279.617 351.994C279.617 351.994 275.537 340.786 276.047 333.873L234.096 298.797Z" fill="#1EA6ED"/>
<path d="M275.366 338.705C275.366 338.705 324.405 387.698 347.983 399.129L338.123 378.455L275.366 338.705Z" fill="#1EA6ED"/>
<path d="M337.913 380.458C337.913 380.458 365.1 403.96 387.213 411.894C387.213 411.894 376.869 398.945 374.895 392.425L337.913 380.458Z" fill="#1EA6ED"/>
<path d="M379.511 401.786C379.38 402.231 415.499 425.563 431.113 429.871C431.113 429.871 422.234 421.478 420.115 417.066C417.997 412.653 419.043 411.174 419.043 411.174L379.524 401.786H379.511Z" fill="#1EA6ED"/>
<path d="M273.026 185.333C273.026 185.333 261.989 182.479 258.288 183.448C258.288 183.448 269.822 173.327 274.844 174.139C274.844 174.139 266.71 169.164 259.099 168.195C259.099 168.195 273.183 164.568 277.982 167.383C277.982 167.383 269.717 160.522 270.031 156.751C270.031 156.751 281.33 165.458 289.189 158.689L273.013 185.333H273.026Z" fill="#1EA6ED"/>
<path d="M288.796 159.449C288.796 159.449 321.384 98.3834 341.3 79.6997C341.3 79.6997 334.971 94.7959 336.475 98.8285L288.796 159.449Z" fill="#1EA6ED"/>
<path d="M336.227 99.2472C336.227 99.2472 364.852 65.4935 388.534 71.1759C388.534 71.1759 377.903 76.5702 373.509 82.3834C369.115 88.1967 336.227 99.2472 336.227 99.2472Z" fill="#1EA6ED"/>
<path d="M374.986 79.6733C374.986 79.6733 425.372 85.395 450.427 98.5665C450.427 98.5665 428.942 99.0247 426.078 100.255L374.999 79.6733H374.986Z" fill="#1EA6ED"/>
<path d="M375.692 79.9736C375.692 79.9736 375.613 80.039 375.574 80.0782C375.692 80.0782 375.823 80.0782 375.94 80.0782L375.679 79.9736H375.692Z" fill="#3FCBFF"/>
<path d="M525.176 154.407L523.789 154.237L496.799 133.786C491.162 133.092 485.879 132.581 484.402 132.935L434.709 99.2205C430.642 99.4824 427.098 99.8228 426.052 100.268L375.954 80.0786C375.837 80.0786 375.706 80.0786 375.588 80.0786C374.817 80.838 374.097 81.6105 373.509 82.3961C369.115 88.2093 336.227 99.2598 336.227 99.2598C336.227 99.2598 338.28 96.8507 341.719 93.4334C340.764 94.2321 339.797 95.07 338.803 95.9473C338.07 96.5888 337.247 97.3482 336.318 98.1993C336.357 98.4349 336.41 98.6575 336.475 98.8539L326.367 111.698C325.896 113.78 325.634 115.652 325.83 116.909C326.746 116.058 327.583 115.299 328.315 114.657C329.309 113.78 330.277 112.942 331.231 112.143C340.673 102.756 360.68 85.7348 378.047 89.8983C378.047 89.8983 370.41 93.7738 365.401 98.5004C366.042 98.579 366.997 98.6968 368.239 98.867C370.998 99.0241 373.744 99.43 376.477 100.058C392.954 102.598 422.535 108.15 439.927 117.302C439.927 117.302 431.597 117.485 424.614 117.917C431.649 120.248 483.565 137.753 502.409 154.8C502.409 154.8 494.196 153.491 486.533 152.535C486.572 152.561 486.612 152.587 486.651 152.614C490.522 154.237 519.265 166.531 525.084 174.426L515.656 173.261C522.364 176.548 547.132 189.3 557.41 203.742C557.41 203.742 548.832 200.599 545.68 200.049C550.806 204.972 556.613 208.468 558.718 213.182C563.4 223.669 564.655 234.615 564.106 244.867L571.73 231.826C571.73 231.826 571.73 231.8 571.743 231.787C571.9 231.878 600.486 250.117 615.132 255.236C627.83 259.688 587.84 223.067 576.79 213.077C576.66 206.269 574.031 199.617 569.193 194.485C565.649 190.727 561.281 186.276 556.155 181.353C556.037 181.326 555.906 181.3 555.802 181.287C553.265 180.973 529.648 158.702 525.149 154.447L525.176 154.407Z" fill="#3FCBFF"/>
<path d="M378.727 80.1572C380.78 80.4322 383.591 80.825 386.965 81.3487C384.232 80.7202 381.486 80.3143 378.727 80.1572Z" fill="#3FCBFF"/>
<path d="M336.318 98.1992C335.56 93.4203 341.301 79.7119 341.301 79.7119C328.459 91.7574 310.36 121.413 299.114 140.974C309.916 124.084 322.195 106.526 330.826 98.4218C330.826 98.4218 327.714 105.872 326.367 111.698L336.475 98.8538C336.41 98.6574 336.357 98.4349 336.318 98.1992Z" fill="#3FCBFF"/>
<path d="M497.021 133.812C504.684 134.768 512.896 136.077 512.896 136.077C494.052 119.03 442.137 101.525 435.101 99.1944C442.085 98.7624 450.415 98.5791 450.415 98.5791C433.022 89.4271 403.442 83.8757 386.965 81.3356C383.591 80.8119 380.78 80.4191 378.727 80.1442C377.484 79.974 376.53 79.8561 375.889 79.7776C380.897 75.051 388.534 71.1755 388.534 71.1755C371.168 67.0119 351.16 84.0328 341.719 93.4204C338.28 96.8377 336.227 99.2468 336.227 99.2468C336.227 99.2468 369.115 88.1963 373.509 82.3831C374.097 81.5975 374.817 80.825 375.588 80.0656C375.627 80.0263 375.667 80.0001 375.706 79.9609L375.967 80.0656L426.065 100.255C427.111 99.8098 430.655 99.4563 434.722 99.2075L484.415 132.922C485.879 132.568 491.175 133.066 496.812 133.773L523.803 154.224L525.189 154.394C529.687 158.65 553.304 180.921 555.841 181.235C555.946 181.248 556.076 181.274 556.194 181.3C559.333 181.85 567.924 184.993 567.924 184.993C557.633 170.564 532.878 157.799 526.169 154.512L535.598 155.677C529.766 147.782 501.022 135.501 497.165 133.865C497.073 133.825 497.008 133.799 496.942 133.773C496.982 133.773 497.008 133.773 497.047 133.773L497.021 133.812Z" fill="#3FCBFF"/>
<path d="M365.113 98.7885C365.23 98.7885 365.361 98.7885 365.478 98.7885L365.217 98.6841C365.217 98.6841 365.139 98.7493 365.1 98.7885H365.113Z" fill="#3FCBFF"/>
<path d="M376.49 100.045C373.757 99.417 371.011 99.0111 368.252 98.854C370.305 99.129 373.117 99.5217 376.49 100.045Z" fill="#3FCBFF"/>
<path d="M414.832 410.166C402.095 403.213 389.319 395.043 386.128 392.765C389.475 397.78 393.045 402.258 393.045 402.258C387.265 400.189 381.145 397.047 375.261 393.551C376.215 395.96 378.007 398.984 379.903 401.878L414.819 410.166H414.832Z" fill="#1E9AED"/>
<path d="M234.788 299.386L272.934 331.294C257.111 315.346 243.563 294.804 240.555 290.129L238.359 298.784C237.365 296.506 236.672 294.149 236.214 291.753C236.057 293.586 235.965 294.699 235.965 294.699L234.775 299.386H234.788Z" fill="#1E9AED"/>
<path d="M241.758 254.582C241.654 254.66 241.575 254.726 241.47 254.804C241.379 255.027 241.301 255.263 241.209 255.498C241.549 254.909 241.758 254.582 241.758 254.582C241.065 255.655 240.398 258.326 239.771 261.783C242.53 254.045 245.812 248.062 247.094 245.862C247.185 245.639 247.264 245.404 247.355 245.168C246.518 245.836 245.734 246.451 245.014 247.04L241.771 254.582H241.758Z" fill="#1E9AED"/>
<path d="M340.764 381.374C340.123 380.916 339.483 380.458 338.842 379.986L339.273 380.89L340.764 381.374Z" fill="#1E9AED"/>
<path d="M276.778 339.594L330.642 373.715C310.085 357.348 287.305 335.077 282.244 330.089C283.186 336.125 285.448 342.357 285.448 342.357C282.27 339.987 279.106 337.264 275.993 334.305C275.928 335.824 276.046 337.513 276.294 339.228C276.451 339.359 276.608 339.477 276.765 339.607L276.778 339.594Z" fill="#1E9AED"/>
<path d="M345.72 372.458L351.644 384.896L371.782 391.416C360.131 384.123 349.866 375.888 345.707 372.458H345.72Z" fill="#1E9AED"/>
<path d="M420.088 417.039C420.154 417.17 420.232 417.314 420.311 417.445C425.385 419.082 430.55 420.64 435.807 422.106C442.529 423.979 449.525 423.219 455.527 420.286C472.462 426.636 516.78 442.741 507.613 434.034C498.158 425.052 475.979 411.54 469.049 407.39C469.049 407.39 469.049 407.39 469.062 407.377L469.127 407.272C458.443 413.661 446.935 413.936 441.692 412.483C436.435 411.017 431.282 409.459 426.195 407.822C428.628 412.313 436.971 420.221 436.971 420.221C432.25 418.925 425.659 415.887 418.768 412.26C418.728 413.164 418.964 414.683 420.088 417.039Z" fill="#1E9AED"/>
<path d="M245.001 247.04C240.201 250.902 237.834 252.932 237.834 252.932C239.404 245.94 245.432 233.449 252.311 220.645C243.928 234.746 234.212 252.539 231.963 262.568C231.963 262.568 235.088 259.871 241.47 254.804C241.561 254.726 241.653 254.66 241.758 254.581L245.001 247.04Z" fill="#1E9AED"/>
<path d="M241.222 255.498C238.175 260.749 223.516 287.799 232.5 308.407L234.697 299.752C238.476 305.618 258.928 336.583 279.59 351.967C279.59 351.967 277.328 345.735 276.386 339.699C283.565 346.795 326.405 388.641 347.956 399.089L339.848 382.081C346.465 387.554 368.618 405.203 387.174 411.867C387.174 411.867 383.604 407.39 380.256 402.375C385.513 406.146 416.833 425.903 431.086 429.831C431.086 429.831 422.743 421.936 420.311 417.432C420.233 417.301 420.154 417.157 420.089 417.026C418.951 414.669 418.729 413.151 418.768 412.247C417.46 411.566 416.153 410.859 414.845 410.139L379.929 401.851C378.02 398.958 376.242 395.933 375.287 393.524C374.123 392.83 372.959 392.123 371.809 391.403L351.67 384.883L353.854 389.452C350.062 387.619 345.602 384.791 340.79 381.361L339.299 380.876L338.868 379.973C336.213 378.022 333.467 375.914 330.668 373.688L276.804 339.568C276.648 339.437 276.491 339.319 276.334 339.188C276.085 337.46 275.954 335.771 276.033 334.266C275 333.284 273.98 332.275 272.973 331.254L234.827 299.347L236.017 294.659C236.017 294.659 236.109 293.546 236.266 291.713C234.291 281.475 236.697 270.49 239.81 261.744C240.437 258.287 241.117 255.629 241.797 254.542C241.797 254.542 241.588 254.87 241.248 255.459L241.222 255.498Z" fill="#1E9AED"/>
<path d="M282.179 329.591C282.179 329.591 282.179 329.643 282.179 329.669L282.636 329.957C282.479 329.826 282.323 329.709 282.166 329.578L282.179 329.591Z" fill="#1E9AED"/>
<path d="M403.467 389.414C403.467 389.414 433.884 415.717 464.288 392.058C464.288 392.058 438.003 408.948 403.467 389.414Z" fill="#1E92ED"/>
<path d="M377 369.721C377 369.721 427.778 400.739 468.316 368.072C468.316 368.072 425.319 392.817 377 369.721Z" fill="#1E92ED"/>
<path d="M320.952 338.508C320.952 338.508 336.161 352.923 353.174 351.09C353.174 351.09 333.728 345.788 320.115 337.735" fill="#1E92ED"/>
<path d="M303.743 332.433C303.743 332.433 307.653 349.558 336.998 365.139C336.998 365.139 309.013 343.889 303.743 332.433Z" fill="#1E92ED"/>
<path d="M360.719 367.889C360.719 367.889 368.918 380.523 386.794 387.724C386.794 387.724 365.44 373.309 360.719 367.889Z" fill="#1E92ED"/>
<path d="M432.158 144.614C432.158 144.614 445.418 146.041 461.058 157.55C461.058 157.55 434.29 144.339 432.158 144.614Z" fill="#1E92ED"/>
<path d="M353.278 341.533C353.278 341.533 363.57 350.017 382.741 353.133C382.741 353.133 354.586 343.248 353.278 341.533Z" fill="#1E92ED"/>
<path d="M402.199 362.442C402.199 362.442 417.682 372.236 435.624 362.05C453.566 351.863 434.709 361.487 434.709 361.487C434.709 361.487 416.545 366.174 402.199 362.442Z" fill="#1E92ED"/>
<path d="M330.852 166.637C330.852 166.637 327.373 172.11 332.303 179.638C337.233 187.166 345.367 184.836 345.367 184.836C345.367 184.836 337.207 184.888 333.454 178.761C329.701 172.62 330.839 166.637 330.839 166.637H330.852Z" fill="#1E92ED"/>
<path d="M301.297 220.423C301.297 220.423 307.927 215.199 314.06 215.722C320.18 216.246 323.109 223.539 323.109 223.539C323.109 223.539 318.663 217.817 313.916 217.307C309.169 216.796 301.297 220.436 301.297 220.436V220.423Z" fill="#1E92ED"/>
<path d="M306.241 224.35C306.241 224.35 295.478 227.938 287.357 241.161C287.357 241.161 299.99 228.448 306.241 224.35Z" fill="#1E92ED"/>
<path d="M393.124 347.031C393.124 347.031 427.216 358.095 460.85 330.482C460.85 330.482 436.971 349.886 393.124 347.031Z" fill="#1E92ED"/>
<path d="M410.307 331.686C410.307 331.686 426.143 338.756 438.121 328.085C438.121 328.085 428.811 335.352 410.307 331.686Z" fill="#1E92ED"/>
<path d="M431.792 317.467C431.792 317.467 448.74 311.759 455.579 294.109C455.579 294.109 443.666 310.567 431.792 317.467Z" fill="#1E92ED"/>
<path d="M397.413 319.444C397.413 319.444 406.528 324.616 415.054 321.016C415.054 321.016 404.867 322.822 397.413 319.444Z" fill="#1E92ED"/>
<path d="M419.788 310.148C419.788 310.148 431.649 308.446 436.893 297.356C436.893 297.356 432.747 305.867 419.788 310.148Z" fill="#1E92ED"/>
<path d="M305.155 212.881C305.155 212.881 279.655 217.267 264.512 243.113C264.512 243.113 281.656 219.323 305.155 212.881Z" fill="#1E92ED"/>
<path d="M323.555 174.714C323.555 174.714 318.794 158.139 330.067 141.786C330.067 141.786 321.201 157.248 323.555 174.714Z" fill="#1E92ED"/>
<path d="M332.644 160.248C332.644 160.248 336.279 140.935 349.395 129.702C349.395 129.702 334.448 147.953 332.644 160.248Z" fill="#1E92ED"/>
<path d="M340.241 163.665C340.241 163.665 340.032 152.457 345.786 146.382C345.786 146.382 341.091 154.958 340.241 163.665Z" fill="#1E92ED"/>
<path d="M347.89 139.626C347.537 140.149 352.977 129.034 369.153 121.322C369.153 121.322 353.945 130.657 347.89 139.626Z" fill="#1E92ED"/>
<path d="M337.011 135.344C337.011 135.344 346.662 116.464 365.845 109.682C365.845 109.682 347.25 118.677 337.011 135.344Z" fill="#1E92ED"/>
<path d="M292.066 227.519C292.066 227.519 275.68 236.225 267.664 257.2C267.664 257.2 268.697 248.755 292.066 227.519Z" fill="#1E92ED"/>
<path d="M284.075 246.844C284.075 246.844 268.971 266.418 276.098 286.778C276.098 286.778 271.914 265.253 284.075 246.844Z" fill="#1E92ED"/>
<path d="M282.571 291.949C282.571 291.949 288.064 301.285 297.78 303.301C297.78 303.301 285.03 296.087 282.571 291.949Z" fill="#1E92ED"/>
<path d="M265.859 272.389C265.859 272.389 259.686 294.319 280.27 307.844C280.27 307.844 263.113 292.447 265.859 272.389Z" fill="#1E92ED"/>
<path d="M377.326 117.931C377.326 117.931 386.153 114.435 409.077 128.955C409.077 128.955 391.175 119.855 377.326 117.931Z" fill="#1E92ED"/>
<path d="M268.409 223.983C268.409 223.983 245.276 246.962 242.987 277.678C242.987 277.678 253.933 243.034 268.409 223.983Z" fill="#1E92ED"/>
<path d="M253.161 267.505C253.161 267.505 248.244 295.288 259.883 305.632C259.883 305.632 251.317 280.022 253.161 267.505Z" fill="#1E92ED"/>
<path d="M315.513 156.62C315.513 156.62 318.834 123.037 353.462 106.33C353.462 106.33 323.817 122.434 315.513 156.62Z" fill="#1E92ED"/>
<path d="M285.436 210.969C285.436 210.969 296.865 203.166 305.339 205.732C305.339 205.732 290.012 206.832 285.436 210.969Z" fill="#1E92ED"/>
<path d="M320.05 183.448C320.05 183.448 313.969 177.543 315.016 171.455C315.016 171.455 316.219 178.761 320.05 183.448Z" fill="#1E92ED"/>
<path d="M273.43 206.924C273.43 206.924 263.936 212.554 255.07 227.899C255.07 227.899 270.396 209.032 273.43 206.924Z" fill="#1E92ED"/>
<path d="M307.993 152.654C307.875 153.387 308.202 136.811 320.507 118.062C320.507 118.062 310.111 139.011 307.993 152.654Z" fill="#1E92ED"/>
<path d="M380.57 94.5729C380.57 94.5729 398.276 87.2146 439.639 107.771C439.639 107.771 408.843 94.4027 380.57 94.5729Z" fill="#1EA6ED"/>
<path d="M432.499 371.083C432.499 371.083 446.138 373.4 453.134 367.299C453.134 367.299 443.418 372.615 432.499 371.083Z" fill="#1E92ED"/>
<path d="M429.857 390.448C429.857 390.448 443.654 394.624 453.082 389.361C453.082 389.361 442.294 392.686 429.857 390.448Z" fill="#1E92ED"/>
<path d="M387.775 365.781C387.775 365.781 398.956 373.204 413.341 373.204C413.341 373.204 394.523 370.285 387.775 365.781Z" fill="#1E92ED"/>
<path d="M430.969 353.761C430.969 353.761 446.556 354.704 457.319 343.26C457.319 343.26 449.146 351.116 430.969 353.761Z" fill="#1E92ED"/>
<path d="M367.585 357.597C367.585 357.597 380.636 363.345 393.229 358.514C393.229 358.514 384.271 362.311 367.585 357.597Z" fill="#1E92ED"/>
<path d="M403.611 356.236C403.611 356.236 410.451 359.758 419.212 357.152C419.212 357.152 412.87 358.37 403.611 356.236Z" fill="#1E92ED"/>
<path d="M410.02 387.03C410.02 387.03 417.709 391.731 422.521 389.832C422.521 389.832 416.898 390.343 410.02 387.03Z" fill="#1E92ED"/>
<path d="M126.589 260.448C126.589 260.448 218.441 395.214 361.66 387.044" stroke="black" stroke-width="4" stroke-miterlimit="10" stroke-linecap="round"/>
<path d="M218.769 80.6684C218.769 80.6684 203.377 77.9189 195.139 95.9741" stroke="black" stroke-width="4" stroke-miterlimit="10" stroke-linecap="round"/>
<path d="M202.317 97.8988C202.317 97.8988 206.986 81.5195 220.011 80.5244" stroke="black" stroke-width="4" stroke-miterlimit="10" stroke-linecap="round"/>
<path d="M219.592 80.0134C219.592 80.0134 206.214 81.4929 206.07 71.2935" stroke="black" stroke-width="4" stroke-miterlimit="10" stroke-linecap="round"/>
<path d="M220.011 80.5244C220.011 80.5244 212.335 91.169 211.158 98.501" stroke="black" stroke-width="4" stroke-miterlimit="10" stroke-linecap="round"/>
<path d="M220.795 79.8172C220.795 79.8172 375.038 30.7971 456.403 107.836" stroke="black" stroke-width="4" stroke-miterlimit="10" stroke-linecap="round"/>
<path d="M401.794 293.128L447.903 216.835C447.197 217.66 446.491 218.367 445.837 218.982L401.022 292.656L401.807 293.128H401.794Z" fill="black"/>
<path d="M377.811 313.434C377.811 313.434 373.273 313.565 373.43 310.763C373.587 307.962 377.248 307.857 378.634 307.791C379.903 307.726 390.482 311.274 401.022 292.669L401.794 293.14C397.897 300.603 389.841 312.413 377.811 313.448V313.434Z" fill="black"/>
<path d="M61.5312 143.58C61.5312 143.58 66.3958 108.857 97.7936 112.405C129.191 115.954 128.446 147.848 128.446 147.848C128.446 147.848 124.314 184.495 95.9629 179.153C67.612 173.824 58.6543 153.583 61.5312 143.567V143.58Z" fill="#FF868F"/>
<path d="M413.445 272.231C413.445 272.231 407.835 262.726 417.002 250.471C417.002 250.471 420.625 209.372 453.461 211.165C486.297 212.959 474.371 240.075 474.371 240.075C474.371 240.075 468.578 262.228 430.092 261.01C424.613 260.84 420.049 261.39 418.454 264.009C415.734 268.486 413.445 272.218 413.445 272.218V272.231Z" fill="#FC6980"/>
<path d="M413.262 257.266C413.262 257.266 429.699 219.847 459.227 232.468C459.227 232.468 432.197 222.007 413.262 257.266Z" fill="#FF4867"/>
<path d="M92.249 211.532C92.249 211.532 119.998 267.649 122.352 268.474C124.706 269.312 135.495 267.596 136.515 266.575C137.535 265.554 142.177 197.863 142.177 197.863C142.177 197.863 117.501 192.587 92.249 211.532Z" fill="#E99E66"/>
<path d="M127.047 198.099C130.565 202.59 134.069 207.094 137.587 211.585C137.914 211.991 138.829 212.069 139.274 212.069C140.072 212.069 141.013 211.886 141.746 211.559C142.556 211.205 144.322 210.262 143.472 209.163C139.954 204.672 136.449 200.168 132.932 195.677C132.605 195.271 131.689 195.192 131.245 195.192C130.447 195.192 129.506 195.376 128.773 195.703C127.962 196.057 126.197 196.999 127.047 198.099Z" fill="#E98466"/>
<path d="M114.938 200.076C122.915 209.804 130.238 220.056 136.855 230.753C137.849 232.35 144.008 230.399 142.739 228.37C136.109 217.673 128.799 207.421 120.822 197.693C119.567 196.161 113.499 198.335 114.938 200.076Z" fill="#E98466"/>
<path d="M103.639 203.899C112.57 219.034 122.993 233.345 135.586 245.665C136.697 246.752 138.502 246.634 139.849 246.019C140.725 245.613 142.53 244.081 141.405 242.981C128.812 230.674 118.403 216.35 109.458 201.215C108.137 198.976 102.07 201.215 103.652 203.912L103.639 203.899Z" fill="#E98466"/>
<path d="M91.0594 209.503C97.1271 219.192 103.613 228.527 110.936 237.299C118.665 246.569 126.014 256.153 133.782 265.384C135.037 266.876 141.079 264.69 139.68 263.014C132.043 253.941 124.824 244.527 117.226 235.414C109.942 226.668 103.404 217.464 97.3625 207.801C96.1725 205.889 90.1963 208.128 91.0463 209.49L91.0594 209.503Z" fill="#E98466"/>
<path d="M106.647 199.814C104.411 210.275 101.756 220.632 98.67 230.871C98.2123 232.389 100.553 232.939 101.56 232.861C103.129 232.743 104.594 231.892 105.052 230.36C108.138 220.121 110.792 209.765 113.028 199.304C113.669 196.292 107.222 197.091 106.647 199.827V199.814Z" fill="#E98466"/>
<path d="M121.241 199.382C117.475 216.154 113.708 232.939 109.942 249.711C109.432 251.989 115.775 251.008 116.245 248.9C120.011 232.127 123.778 215.342 127.544 198.57C128.054 196.292 121.712 197.274 121.241 199.382Z" fill="#E98466"/>
<path d="M136.214 203.035C128.682 224.115 121.123 245.378 118.024 267.636C117.684 270.045 124.039 268.932 124.327 266.824C127.439 244.553 134.985 223.29 142.517 202.223C143.001 200.875 140.503 200.835 139.81 200.927C138.529 201.084 136.698 201.699 136.214 203.048V203.035Z" fill="#E98466"/>
<path d="M136.854 242.236C133.245 251.322 129.623 260.409 126.013 269.495C125.517 270.752 128.093 270.661 128.668 270.582C129.871 270.412 131.793 269.862 132.303 268.592C135.913 259.505 139.535 250.419 143.144 241.332C143.641 240.075 141.065 240.167 140.49 240.246C139.287 240.416 137.364 240.966 136.854 242.236Z" fill="#E98466"/>
<path d="M76.7919 198.596C76.7919 198.596 71.1035 161.085 103.508 153.87C135.913 146.656 145.825 180.829 145.825 180.829C145.825 180.829 149.448 182.465 147.656 184.39C145.864 186.302 147.656 184.39 148.414 185.15C149.173 185.909 164.395 187.886 153.776 193.045C143.158 198.203 114.951 207.512 104.672 206.308C94.3935 205.103 86.0897 213.352 82.7158 213.875C79.3419 214.399 72.3719 212.907 76.9619 207.342C81.552 201.778 74.8696 205.012 73.9542 204.16C73.0388 203.309 73.5227 199.866 76.805 198.596H76.7919Z" fill="#FFD8C2"/>
<path d="M115.082 263.969C115.082 263.969 112.806 253.05 118.024 248.585" stroke="black" stroke-width="4" stroke-miterlimit="10" stroke-linecap="round"/>
<path d="M119.266 267.23C119.266 267.23 119.057 255.931 126.589 252.042" stroke="black" stroke-width="4" stroke-miterlimit="10" stroke-linecap="round"/>
<path d="M138.044 253.26C138.044 253.26 136.044 248.298 132.474 247.853" stroke="black" stroke-width="4" stroke-miterlimit="10" stroke-linecap="round"/>
<path d="M86.5347 158.768C83.8539 160.352 81.0031 161.688 78.0085 162.552C76.06 163.115 73.9285 164.123 74.4123 165.72C75.2623 168.561 75.7985 170.355 74.6608 172.948C73.5231 175.54 76.5438 176.286 78.1654 176.09C79.7869 175.894 81.0554 173.956 82.01 170.512C82.9646 167.069 89.2285 157.878 99.7947 154.958C110.832 151.907 101.429 152.326 97.5978 153.177C94.8777 153.78 90.9154 156.202 86.5347 158.781V158.768Z" fill="#FC7080"/>
<path d="M103.495 153.871C103.495 153.871 114.741 152.549 116.86 159.828C118.534 165.576 122.038 166.676 125.294 165.432C128.551 164.188 128.799 158.519 125.294 154.67C121.79 150.807 110.936 151.331 103.508 153.884L103.495 153.871Z" fill="#FF868F"/>
<path d="M111.106 151.514C111.106 151.514 107.981 151.16 109.72 151.959C111.459 152.758 125.556 156.489 126.459 151.488C127.361 146.486 125.19 151.278 123.752 151.71C122.313 152.142 111.093 151.527 111.093 151.527L111.106 151.514Z" fill="#FC7080"/>
<path d="M338.202 168.6C338.202 168.6 337.326 171.258 340.046 174.348C342.779 177.451 343.001 175.042 341.863 172.698C340.726 170.341 339.719 168.129 338.202 168.6Z" fill="#0082FF"/>
<path d="M383.865 128.417C385.709 127.422 387.841 126.362 387.841 126.362C380.217 123.953 371.259 130.997 371.259 130.997H371.325C371.155 131.049 370.972 131.115 370.802 131.193L373.208 127.383C367.572 128.326 361.02 137.268 361.02 137.268L361.151 137.203C360.902 137.452 360.654 137.7 360.405 137.949L361.36 133.825C355.868 137.465 353.462 150.047 353.462 150.047L353.54 149.929C353.488 150.034 353.435 150.139 353.396 150.243L351.958 145.936C350.467 148.816 348.872 157.903 348.401 160.679C347.904 161.608 347.498 162.21 347.171 162.485C345.851 163.624 340.895 166.61 340.895 166.61C343.445 168.731 347.119 170.773 347.119 170.773C347.119 170.773 341.928 171.808 343.248 172.462C344.569 173.104 346.831 174.308 346.478 174.793C346.125 175.277 349.695 180.056 355.58 179.506C361.465 178.956 362.537 180.776 364.067 174.884C365.597 169.006 373.077 160.39 379.393 154.669C385.709 148.934 393.922 140.555 392.522 136.286C391.123 132.018 390.77 129.242 385.84 128.535C385.317 128.457 384.65 128.431 383.865 128.431V128.417Z" fill="#0082FF"/>
<path d="M302.397 235.662C302.397 235.662 285.528 254.66 285.07 265.841C284.612 277.036 285.606 286.554 293.374 288.754C301.154 290.953 307.889 287.209 311.041 280.649C314.192 274.09 320.443 248.166 323.085 242.784C325.726 237.39 322.745 239.079 322.745 239.079C322.745 239.079 321.96 239.027 323.608 237.547C325.255 236.068 326.602 235.505 326.458 234.353C326.315 233.2 326.21 229.888 322.862 228.186C319.515 226.484 309.995 226.038 302.397 235.662Z" fill="#0082FF"/>
<path d="M305.391 227.963C305.391 227.963 306.332 229.665 309.444 228.5C312.557 227.335 311.406 226.261 309.549 226.366C307.679 226.471 305.966 226.51 305.391 227.963Z" fill="#0082FF"/>
<path d="M308.529 223.289C308.529 223.289 309.602 225.868 313.695 226.418C317.788 226.968 316.375 225.004 313.982 223.983C311.589 222.949 309.379 221.941 308.529 223.289Z" fill="#0082FF"/>
<path d="M309.301 229.757C309.301 229.757 299.441 234.208 295.609 237.953L300.566 238.254L309.301 229.757Z" fill="#0082FF"/>
<path d="M300.683 237.678C300.683 237.678 291.071 244.866 287.384 250.575L293.844 247.459L300.683 237.678Z" fill="#0082FF"/>
<path d="M292.837 247.956C292.837 247.956 282.363 259.177 281.853 267.674C281.853 267.674 285.318 263.419 285.998 262.555C286.678 261.691 292.85 247.956 292.85 247.956H292.837Z" fill="#0082FF"/>
<path d="M285.736 262.123C285.736 262.123 280.335 278.803 286.024 287.576L287.175 280.257L285.749 262.123H285.736Z" fill="#0082FF"/>
<path d="M375.143 151.605C368.827 157.34 361.347 165.942 359.817 171.821C358.287 177.713 357.201 175.893 351.33 176.443C349.695 176.6 347.799 175.644 346.557 175.173C347.485 177.071 351.251 179.912 355.619 179.507C361.504 178.957 362.576 180.777 364.106 174.885C365.636 169.006 373.116 160.391 379.432 154.669C385.748 148.934 393.961 140.555 392.561 136.287C391.241 132.241 390.757 129.295 386.049 128.536C386.677 129.753 387.684 131.416 388.272 133.21C389.671 137.478 381.459 145.858 375.143 151.592V151.605Z" fill="#0068C8"/>
<path d="M382.453 135.383C382.453 135.383 376.804 136.549 374.332 140.568C374.332 140.568 380.491 136.81 382.453 135.383Z" fill="#0068C8"/>
<path d="M385.487 134.048L382.31 134.702C382.061 134.755 376.334 135.986 373.731 140.202L372.201 142.689L374.686 141.17C374.934 141.013 380.897 137.387 382.859 135.959L385.487 134.048Z" fill="#0068C8"/>
<path d="M371.102 149.104C371.102 149.104 365.767 151.304 364.08 155.703C364.08 155.703 369.442 150.872 371.102 149.104Z" fill="#0068C8"/>
<path d="M373.848 147.219L370.853 148.45C370.618 148.542 365.217 150.807 363.439 155.442L362.393 158.165L364.563 156.214C364.786 156.018 369.964 151.344 371.625 149.576L373.848 147.219Z" fill="#0068C8"/>
<path d="M368.095 144.967C368.095 144.967 363.635 147.01 362.812 150.767C362.812 150.767 366.865 146.512 368.095 144.967Z" fill="#0068C8"/>
<path d="M370.264 143.278L367.754 144.43C367.557 144.522 363.046 146.63 362.183 150.571L361.673 152.888L363.307 151.173C363.477 151.003 367.401 146.892 368.617 145.334L370.251 143.265L370.264 143.278Z" fill="#0068C8"/>
<path d="M372.476 136.182C372.476 136.182 367.755 137.112 366.983 140.424C366.983 140.424 371.207 137.36 372.476 136.182Z" fill="#0068C8"/>
<path d="M374.75 135.095L372.096 135.619C371.886 135.658 367.126 136.64 366.315 140.123L365.845 142.179L367.558 140.935C367.728 140.804 371.821 137.845 373.076 136.666L374.763 135.095H374.75Z" fill="#0068C8"/>
<path d="M361.661 161.203C361.661 161.203 357.45 163.73 357.058 167.553C357.058 167.553 360.628 162.879 361.661 161.203Z" fill="#0068C8"/>
<path d="M363.622 159.291L361.255 160.718C361.072 160.823 356.822 163.428 356.404 167.448L356.155 169.805L357.594 167.919C357.738 167.723 361.19 163.206 362.223 161.53L363.609 159.291H363.622Z" fill="#0068C8"/>
<path d="M358.902 156.345C358.902 156.345 355.803 158.636 355.776 161.661C355.776 161.661 358.209 157.733 358.902 156.345Z" fill="#0068C8"/>
<path d="M360.288 154.695L358.548 155.992C358.418 156.096 355.279 158.44 355.253 161.621V163.481L356.221 161.896C356.325 161.739 358.679 157.942 359.359 156.555L360.274 154.708L360.288 154.695Z" fill="#0068C8"/>
<path d="M354.115 167.592C354.115 167.592 352.141 170.079 352.755 172.489C352.755 172.489 353.854 168.849 354.115 167.592Z" fill="#0068C8"/>
<path d="M354.874 165.981L353.762 167.382C353.684 167.487 351.683 170.027 352.35 172.554L352.742 174.047L353.187 172.58C353.226 172.436 354.298 168.914 354.547 167.657L354.887 165.981H354.874Z" fill="#0068C8"/>
<path d="M380.479 140.987C380.479 140.987 377.327 141.341 376.059 143.488C376.059 143.488 379.406 141.694 380.479 140.987Z" fill="#0068C8"/>
<path d="M382.153 140.385L380.374 140.581C380.243 140.594 377.04 140.987 375.719 143.239L374.947 144.561L376.307 143.841C376.451 143.763 379.681 142.034 380.74 141.327L382.153 140.385Z" fill="#0068C8"/>
<path d="M382.95 131.625C382.95 131.625 379.837 130.984 377.98 132.62C377.98 132.62 381.72 131.953 382.95 131.625Z" fill="#0068C8"/>
<path d="M384.716 131.573L382.963 131.206C382.833 131.18 379.668 130.552 377.706 132.28L376.556 133.301L378.073 133.039C378.23 133.013 381.852 132.372 383.068 132.031L384.703 131.573H384.716Z" fill="#0068C8"/>
<path d="M312.388 236.618C312.388 236.618 307.484 239.668 306.556 244.29C306.556 244.29 311.041 238.634 312.388 236.618Z" fill="#0068C8"/>
<path d="M314.768 234.313L312.021 236.029C311.812 236.16 306.856 239.302 305.875 244.159L305.3 247.014L307.104 244.722C307.288 244.487 311.616 239.027 312.963 236.997L314.768 234.3V234.313Z" fill="#0068C8"/>
<path d="M305.967 252.591C305.967 252.591 302.318 257.069 302.933 261.743C302.933 261.743 305.352 254.948 305.967 252.591Z" fill="#0068C8"/>
<path d="M307.47 249.632L305.417 252.146C305.26 252.343 301.586 256.912 302.226 261.835L302.606 264.729L303.586 261.979C303.691 261.704 306.019 255.118 306.646 252.775L307.483 249.632H307.47Z" fill="#0068C8"/>
<path d="M302.24 250.588C302.24 250.588 298.761 254.058 299.297 257.855C299.297 257.855 301.638 252.461 302.24 250.588Z" fill="#0068C8"/>
<path d="M303.678 248.258L301.717 250.209C301.573 250.353 298.055 253.901 298.617 257.907L298.944 260.264L299.886 258.078C299.977 257.855 302.24 252.644 302.854 250.772L303.665 248.271L303.678 248.258Z" fill="#0068C8"/>
<path d="M300.749 269.076C300.749 269.076 298.199 273.279 299.624 276.84C299.624 276.84 300.605 271.04 300.749 269.076Z" fill="#0068C8"/>
<path d="M301.598 266.456L300.16 268.813C300.055 268.996 297.492 273.278 298.996 277.022L299.872 279.222L300.265 276.878C300.304 276.643 301.245 271.039 301.389 269.062L301.585 266.443L301.598 266.456Z" fill="#0068C8"/>
<path d="M311.407 250.234C311.407 250.234 309.04 253.18 309.772 256.035C309.772 256.035 311.106 251.714 311.407 250.234Z" fill="#0068C8"/>
<path d="M312.309 248.336L310.975 249.986C310.87 250.117 308.503 253.115 309.262 256.127L309.707 257.894L310.243 256.153C310.295 255.97 311.577 251.806 311.89 250.327L312.296 248.35L312.309 248.336Z" fill="#0068C8"/>
<path d="M297.244 265.056C297.244 265.056 295.139 268.29 296.185 271.131C296.185 271.131 297.087 266.601 297.244 265.056Z" fill="#0068C8"/>
<path d="M297.963 263.026L296.786 264.846C296.694 264.99 294.589 268.29 295.674 271.275L296.315 273.029L296.681 271.196C296.72 271.013 297.597 266.627 297.754 265.082L297.963 263.026Z" fill="#0068C8"/>
<path d="M307.496 262.058C307.496 262.058 305.548 264.571 306.202 266.967C306.202 266.967 307.261 263.315 307.496 262.058Z" fill="#0068C8"/>
<path d="M308.242 260.447L307.144 261.861C307.065 261.966 305.104 264.532 305.784 267.059L306.189 268.539L306.621 267.059C306.66 266.915 307.68 263.367 307.928 262.123L308.242 260.447Z" fill="#0068C8"/>
<path d="M293.242 274.85C293.242 274.85 292.209 277.861 293.595 279.917C293.595 279.917 293.425 276.12 293.242 274.85Z" fill="#0068C8"/>
<path d="M293.413 273.082L292.825 274.771C292.785 274.901 291.752 277.965 293.204 280.126L294.067 281.396L294.001 279.864C294.001 279.707 293.832 276.027 293.648 274.771L293.413 273.082Z" fill="#0068C8"/>
<path d="M296.97 279.956C296.97 279.956 296.578 281.815 297.559 282.928C297.559 282.928 297.166 280.689 296.97 279.956Z" fill="#0068C8"/>
<path d="M296.944 278.909L296.721 279.956C296.708 280.035 296.329 281.92 297.349 283.098L297.95 283.792L297.794 282.889C297.78 282.797 297.401 280.637 297.205 279.904L296.944 278.922V278.909Z" fill="#0068C8"/>
<path d="M304.541 272.034C304.541 272.034 303.364 274.234 304.188 276.001C304.188 276.001 304.528 273.029 304.541 272.034Z" fill="#0068C8"/>
<path d="M304.894 270.686L304.227 271.917C304.175 272.008 302.998 274.247 303.861 276.12L304.371 277.219L304.515 276.015C304.528 275.897 304.855 273.017 304.881 272.022L304.907 270.686H304.894Z" fill="#0068C8"/>
<path d="M313.107 241.764C313.107 241.764 310.269 243.191 309.824 245.639C309.824 245.639 312.348 242.798 313.107 241.764Z" fill="#0068C8"/>
<path d="M314.467 240.625L312.871 241.423C312.754 241.489 309.877 242.955 309.419 245.534L309.145 247.053L310.165 245.901C310.269 245.783 312.715 243.034 313.46 241.999L314.467 240.625Z" fill="#0068C8"/>
<path d="M311.563 232.913C311.563 232.913 308.425 233.384 307.248 235.571C307.248 235.571 310.53 233.659 311.563 232.913Z" fill="#0068C8"/>
<path d="M313.211 232.258L311.446 232.52C311.315 232.546 308.124 233.043 306.882 235.348L306.149 236.696L307.483 235.924C307.614 235.845 310.792 233.986 311.825 233.253L313.211 232.258Z" fill="#0068C8"/>
<path d="M321.45 231.289C321.594 232.441 320.247 233.004 318.599 234.484C316.964 235.963 317.736 236.016 317.736 236.016C317.736 236.016 320.717 234.34 318.076 239.721C315.434 245.115 309.183 271.026 306.032 277.586C302.933 284.028 296.394 287.733 288.81 285.795C290 287.235 291.543 288.283 293.543 288.846C301.324 291.045 308.059 287.301 311.21 280.741C314.362 274.169 320.613 248.258 323.254 242.876C325.896 237.482 322.914 239.171 322.914 239.171C322.914 239.171 322.13 239.119 323.777 237.639C325.412 236.16 326.772 235.597 326.628 234.445C326.484 233.292 326.38 229.98 323.032 228.278C322.378 227.95 321.489 227.662 320.417 227.492C321.28 228.985 321.358 230.556 321.45 231.276V231.289Z" fill="#0068C8"/>
<path d="M351.978 283.52C356.485 276.125 354.88 266.918 348.394 262.956C341.909 258.994 332.998 261.776 328.491 269.171C323.984 276.566 325.589 285.773 332.075 289.735C338.56 293.697 347.471 290.915 351.978 283.52Z" fill="white"/>
<path d="M414.191 182.284C418.697 174.889 417.093 165.682 410.607 161.72C404.121 157.758 395.21 160.541 390.704 167.935C386.197 175.33 387.802 184.537 394.287 188.499C400.773 192.462 409.684 189.679 414.191 182.284Z" fill="white"/>
<path d="M333.036 282.889C335.91 282.889 338.24 280.556 338.24 277.678C338.24 274.8 335.91 272.467 333.036 272.467C330.161 272.467 327.831 274.8 327.831 277.678C327.831 280.556 330.161 282.889 333.036 282.889Z" fill="#231F20"/>
<path d="M394.929 182.663C397.804 182.663 400.134 180.33 400.134 177.452C400.134 174.574 397.804 172.241 394.929 172.241C392.055 172.241 389.725 174.574 389.725 177.452C389.725 180.33 392.055 182.663 394.929 182.663Z" fill="#231F20"/>
<path d="M338.031 292.329C338.031 292.329 343.759 288.676 343.955 280.1C344.151 271.525 349.84 262.896 354.377 260.396L359.817 266.68L362.027 285.18L351.396 294.372L338.031 292.342V292.329Z" fill="#1EA6ED"/>
<path d="M400.146 191.396C400.146 191.396 405.874 187.743 406.07 179.167C406.267 170.591 411.955 161.963 416.493 159.462L421.933 165.747L424.143 184.247L413.511 193.438L400.146 191.409V191.396Z" fill="#1EA6ED"/>
<path d="M172.881 85.1457C165.349 85.1457 159.242 79.0313 159.242 71.4897C159.242 79.0313 153.135 85.1457 145.603 85.1457C153.135 85.1457 159.242 91.2601 159.242 98.8017C159.242 91.2601 165.349 85.1457 172.881 85.1457Z" fill="#3FCBFF"/>
<path d="M151.854 105.283C143.171 105.283 136.122 92.9229 136.122 77.6958C136.122 92.936 129.074 105.283 120.391 105.283C129.074 105.283 136.122 117.642 136.122 132.87C136.122 117.629 143.171 105.283 151.854 105.283Z" fill="#3FCBFF"/>
</svg>
