<svg width="90" height="87" viewBox="0 0 90 87" fill="none" xmlns="http://www.w3.org/2000/svg">
<ellipse cx="44.6849" cy="44.4071" rx="44.6849" ry="42.3636" fill="url(#paint0_linear_3339_21675)"/>
<ellipse cx="44.685" cy="44.4071" rx="41.0122" ry="38.8817" fill="#E5E5E5"/>
<path d="M56.011 37.1686H56.01H55.3267V30.1891C55.3267 27.3666 54.1435 24.6713 52.0565 22.6926C49.9712 20.7157 47.1539 19.6138 44.2267 19.6138C41.2995 19.6138 38.4821 20.7157 36.3969 22.6926C34.3098 24.6713 33.1266 27.3666 33.1266 30.1891V37.1686H32.4433H32.4423C30.4089 37.1707 28.4494 37.9369 26.9963 39.3146C25.5413 40.694 24.7122 42.576 24.71 44.551V44.5521L24.71 62.1069L24.71 62.1081C24.7122 64.0831 25.5413 65.965 26.9963 67.3444C28.4494 68.7221 30.4089 69.4884 32.4423 69.4905H32.4433H56.01H56.011C58.0444 69.4884 60.0039 68.7221 61.4571 67.3444C62.912 65.965 63.7411 64.0831 63.7434 62.1081V62.1069V44.5521V44.551C63.7411 42.576 62.912 40.694 61.4571 39.3146C60.0039 37.9369 58.0444 37.1707 56.011 37.1686ZM38.4933 37.1686V30.1891C38.4933 28.779 39.0837 27.4152 40.1535 26.401C41.2251 25.385 42.6894 24.8055 44.2267 24.8055C45.7639 24.8055 47.2282 25.385 48.2998 26.401C49.3697 27.4152 49.96 28.779 49.96 30.1891V37.1686H38.4933Z" fill="url(#paint1_linear_3339_21675)" stroke="url(#paint2_linear_3339_21675)" stroke-width="2"/>
<ellipse cx="45.2981" cy="61.8167" rx="2.44849" ry="1.74097" fill="#F7F7F7"/>
<ellipse cx="45.2985" cy="59.4954" rx="1.22424" ry="1.74097" fill="#F7F7F7"/>
<path d="M75.4488 2.61963C69.1893 2.61963 64.0967 7.71226 64.0967 13.9718C64.0967 20.2313 69.1893 25.3239 75.4488 25.3239C81.7083 25.3239 86.8009 20.2313 86.8009 13.9718C86.8009 7.71226 81.7083 2.61963 75.4488 2.61963ZM73.3749 19.6686L68.9759 14.7801L70.2743 13.6115L73.3307 17.0074L80.5791 8.37538L81.9184 9.4964L73.3749 19.6686Z" fill="url(#paint3_linear_3339_21675)"/>
<defs>
<linearGradient id="paint0_linear_3339_21675" x1="-1.35882e-07" y1="32.9489" x2="83.5642" y2="22.3775" gradientUnits="userSpaceOnUse">
<stop stop-color="#F6F6F6"/>
<stop offset="0.515" stop-color="#DAE3EA"/>
<stop offset="0.92" stop-color="white"/>
</linearGradient>
<linearGradient id="paint1_linear_3339_21675" x1="25.71" y1="42.5125" x2="61.2312" y2="37.2112" gradientUnits="userSpaceOnUse">
<stop stop-color="#7E8E9C"/>
<stop offset="0.5" stop-color="#C3C8CB"/>
<stop offset="1" stop-color="#788187"/>
</linearGradient>
<linearGradient id="paint2_linear_3339_21675" x1="25.71" y1="38.0775" x2="60.5916" y2="34.8415" gradientUnits="userSpaceOnUse">
<stop stop-color="#F6F6F6"/>
<stop offset="0.515" stop-color="#DAE3EA"/>
<stop offset="0.92" stop-color="white"/>
</linearGradient>
<linearGradient id="paint3_linear_3339_21675" x1="86.8009" y1="13.9718" x2="64.0967" y2="13.9718" gradientUnits="userSpaceOnUse">
<stop stop-color="#1DB3D9"/>
<stop offset="1" stop-color="#2DD5C3"/>
</linearGradient>
</defs>
</svg>
