<svg xmlns="http://www.w3.org/2000/svg" width="34" height="33" viewBox="0 0 34 33" fill="none">
  <path d="M22.9017 27.1617L1.4891 12.3913C-0.680804 10.8946 0.0568219 7.77812 2.76264 7.04527L25.5204 0.868553C26.0025 0.694603 26.5191 0.638135 27.0274 0.703841C27.5356 0.769547 28.0209 0.955529 28.443 1.24635C28.8649 1.53718 29.2115 1.92446 29.4538 2.37604C29.6961 2.82763 29.8273 3.3305 29.8364 3.84293L28.4876 24.7889C28.3277 27.2751 25.0716 28.6584 22.9017 27.1617Z" fill="#A5A9AD"/>
  <path d="M16.1108 30.8076L3.49595 6.13779C3.20758 5.57343 3.08069 4.94037 3.12926 4.30846C3.17783 3.67655 3.39997 3.07032 3.77119 2.55665C4.14241 2.04297 4.64828 1.64179 5.23302 1.39734C5.81776 1.1529 6.45865 1.0747 7.08501 1.17137L30.4635 4.77951C31.0016 4.8626 31.5125 5.07225 31.954 5.39123C32.3954 5.71022 32.7548 6.12943 33.0027 6.61439C33.2504 7.09934 33.3797 7.6362 33.3796 8.18082C33.3795 8.72544 33.2501 9.26227 33.0022 9.74714L22.2326 30.8088C21.9434 31.3716 21.5047 31.8438 20.9646 32.1733C20.4245 32.503 19.8041 32.6772 19.1714 32.6771C18.5386 32.677 17.9182 32.5025 17.3783 32.1727C16.8383 31.8428 16.3998 31.3705 16.1108 30.8076Z" fill="#A5A9AD"/>
  <path d="M23.7998 9.40418L19.311 8.67725L13.7998 10.2474L15.9996 14.7628L21.1509 18.4925C21.2645 18.5739 21.3895 18.6362 21.5214 18.6772L23.478 14.6625L23.7998 9.40418Z" fill="white"/>
</svg>