<svg width="158" height="35" viewBox="0 0 158 35" fill="none" xmlns="http://www.w3.org/2000/svg">
<path d="M41.96 26.15L53.03 10.76H57.89L46.82 26.15H41.96ZM41.96 29V26.15L45.02 25.4H57.65V29H41.96ZM42.59 11.51V7.91H57.89V10.76L54.8 11.51H42.59ZM60.0545 23.12V19.55H70.4345V23.12H60.0545ZM77.5304 29V8.36H81.6404V29H77.5304ZM70.8104 11.54V7.91H88.3604V11.54H70.8104ZM94.0841 29.3C92.5641 29.3 91.2141 28.98 90.0341 28.34C88.8541 27.68 87.9141 26.78 87.2141 25.64C86.5341 24.5 86.1941 23.2 86.1941 21.74C86.1941 20.3 86.5241 19.02 87.1841 17.9C87.8641 16.76 88.7841 15.86 89.9441 15.2C91.1041 14.52 92.3941 14.18 93.8141 14.18C95.2141 14.18 96.4441 14.5 97.5041 15.14C98.5841 15.76 99.4241 16.62 100.024 17.72C100.644 18.8 100.954 20.03 100.954 21.41C100.954 21.67 100.934 21.94 100.894 22.22C100.874 22.48 100.824 22.78 100.744 23.12L88.5641 23.15V20.21L98.9141 20.18L97.3241 21.41C97.2841 20.55 97.1241 19.83 96.8441 19.25C96.5841 18.67 96.1941 18.23 95.6741 17.93C95.1741 17.61 94.5541 17.45 93.8141 17.45C93.0341 17.45 92.3541 17.63 91.7741 17.99C91.1941 18.33 90.7441 18.82 90.4241 19.46C90.1241 20.08 89.9741 20.82 89.9741 21.68C89.9741 22.56 90.1341 23.33 90.4541 23.99C90.7941 24.63 91.2741 25.13 91.8941 25.49C92.5141 25.83 93.2341 26 94.0541 26C94.7941 26 95.4641 25.88 96.0641 25.64C96.6641 25.38 97.1841 25 97.6241 24.5L99.9341 26.81C99.2341 27.63 98.3741 28.25 97.3541 28.67C96.3541 29.09 95.2641 29.3 94.0841 29.3ZM109.445 29.3C108.125 29.3 106.935 28.97 105.875 28.31C104.815 27.65 103.985 26.75 103.385 25.61C102.785 24.47 102.485 23.19 102.485 21.77C102.485 20.33 102.785 19.04 103.385 17.9C103.985 16.76 104.815 15.86 105.875 15.2C106.935 14.54 108.125 14.21 109.445 14.21C110.485 14.21 111.415 14.42 112.235 14.84C113.055 15.26 113.705 15.85 114.185 16.61C114.685 17.35 114.955 18.19 114.995 19.13V24.35C114.955 25.31 114.685 26.16 114.185 26.9C113.705 27.64 113.055 28.23 112.235 28.67C111.415 29.09 110.485 29.3 109.445 29.3ZM110.165 25.67C111.265 25.67 112.155 25.31 112.835 24.59C113.515 23.85 113.855 22.9 113.855 21.74C113.855 20.98 113.695 20.31 113.375 19.73C113.075 19.13 112.645 18.67 112.085 18.35C111.545 18.01 110.905 17.84 110.165 17.84C109.445 17.84 108.805 18.01 108.245 18.35C107.705 18.67 107.275 19.13 106.955 19.73C106.655 20.31 106.505 20.98 106.505 21.74C106.505 22.52 106.655 23.21 106.955 23.81C107.275 24.39 107.705 24.85 108.245 25.19C108.805 25.51 109.445 25.67 110.165 25.67ZM113.645 29V25.1L114.275 21.56L113.645 18.08V14.51H117.545V29H113.645ZM121.021 29V14.51H124.951V29H121.021ZM130.471 29V20.45C130.471 19.61 130.201 18.96 129.661 18.5C129.141 18.02 128.491 17.78 127.711 17.78C127.191 17.78 126.721 17.89 126.301 18.11C125.881 18.31 125.551 18.61 125.311 19.01C125.071 19.41 124.951 19.89 124.951 20.45L123.421 19.7C123.421 18.58 123.661 17.61 124.141 16.79C124.641 15.97 125.311 15.34 126.151 14.9C126.991 14.44 127.941 14.21 129.001 14.21C130.001 14.21 130.911 14.44 131.731 14.9C132.551 15.34 133.201 15.97 133.681 16.79C134.161 17.59 134.401 18.56 134.401 19.7V29H130.471ZM139.921 29V20.45C139.921 19.61 139.651 18.96 139.111 18.5C138.591 18.02 137.941 17.78 137.161 17.78C136.661 17.78 136.191 17.89 135.751 18.11C135.331 18.31 135.001 18.61 134.761 19.01C134.521 19.41 134.401 19.89 134.401 20.45L132.151 19.91C132.231 18.75 132.541 17.75 133.081 16.91C133.621 16.05 134.331 15.39 135.211 14.93C136.091 14.45 137.071 14.21 138.151 14.21C139.231 14.21 140.201 14.44 141.061 14.9C141.921 15.34 142.601 15.98 143.101 16.82C143.601 17.66 143.851 18.66 143.851 19.82V29H139.921Z" fill="url(#paint0_linear_4328_1275)"/>
<path d="M31 17.5C31 8.93959 24.0604 2 15.5 2C6.93959 2 0 8.93959 0 17.5C0 26.0604 6.93959 33 15.5 33H31V17.5Z" fill="url(#paint1_linear_4328_1275)"/>
<path d="M15.5133 23.7126C14.5152 20.6683 12.0856 18.4639 9.28371 17.5159C12.3285 16.5179 14.5332 14.0887 15.4813 11.2873C16.4794 14.3316 18.9091 16.536 21.711 17.484C18.6662 18.482 16.4614 20.9111 15.5133 23.7126Z" fill="white" stroke="white" stroke-linejoin="round"/>
<defs>
<linearGradient id="paint0_linear_4328_1275" x1="157.25" y1="17.5" x2="41" y2="17.5" gradientUnits="userSpaceOnUse">
<stop stop-color="#1DB3D9"/>
<stop offset="1" stop-color="#2DD5C3"/>
</linearGradient>
<linearGradient id="paint1_linear_4328_1275" x1="0" y1="17.5" x2="31" y2="17.5" gradientUnits="userSpaceOnUse">
<stop stop-color="#1DB3D9"/>
<stop offset="1" stop-color="#2DD5C3"/>
</linearGradient>
</defs>
</svg>
