<svg width="355" height="228" viewBox="0 0 355 228" fill="none" xmlns="http://www.w3.org/2000/svg">
<rect width="355" height="228" rx="20" fill="url(#paint0_linear_6951_1012)"/>
<path d="M41.184 70.485L54.837 51.504H60.831L47.178 70.485H41.184ZM41.184 74V70.485L44.958 69.56H60.535V74H41.184ZM41.961 52.429V47.989H60.831V51.504L57.02 52.429H41.961ZM71.8668 74.37C69.9922 74.37 68.3272 73.9753 66.8718 73.186C65.4165 72.372 64.2572 71.262 63.3938 69.856C62.5552 68.45 62.1358 66.8467 62.1358 65.046C62.1358 63.27 62.5428 61.6913 63.3568 60.31C64.1955 58.904 65.3302 57.794 66.7608 56.98C68.1915 56.1413 69.7825 55.722 71.5338 55.722C73.2605 55.722 74.7775 56.1167 76.0848 56.906C77.4168 57.6707 78.4528 58.7313 79.1928 60.088C79.9575 61.42 80.3398 62.937 80.3398 64.639C80.3398 64.9597 80.3152 65.2927 80.2658 65.638C80.2412 65.9587 80.1795 66.3287 80.0808 66.748L65.0588 66.785V63.159L77.8238 63.122L75.8628 64.639C75.8135 63.5783 75.6162 62.6903 75.2708 61.975C74.9502 61.2597 74.4692 60.717 73.8278 60.347C73.2112 59.9523 72.4465 59.755 71.5338 59.755C70.5718 59.755 69.7332 59.977 69.0178 60.421C68.3025 60.8403 67.7475 61.4447 67.3528 62.234C66.9828 62.9987 66.7978 63.9113 66.7978 64.972C66.7978 66.0573 66.9952 67.007 67.3898 67.821C67.8092 68.6103 68.4012 69.227 69.1658 69.671C69.9305 70.0903 70.8185 70.3 71.8298 70.3C72.7425 70.3 73.5688 70.152 74.3088 69.856C75.0488 69.5353 75.6902 69.0667 76.2328 68.45L79.0818 71.299C78.2185 72.3103 77.1578 73.075 75.8998 73.593C74.6665 74.111 73.3222 74.37 71.8668 74.37ZM83.3374 74V47.249H88.1844V74H83.3374ZM100.878 74.37C99.0773 74.37 97.4493 73.963 95.994 73.149C94.5633 72.3103 93.4163 71.188 92.553 69.782C91.7143 68.3513 91.295 66.7603 91.295 65.009C91.295 63.2577 91.7143 61.6913 92.553 60.31C93.3917 58.904 94.5387 57.794 95.994 56.98C97.4493 56.1413 99.065 55.722 100.841 55.722C102.666 55.722 104.294 56.1413 105.725 56.98C107.18 57.794 108.327 58.904 109.166 60.31C110.005 61.6913 110.424 63.2577 110.424 65.009C110.424 66.7603 110.005 68.3513 109.166 69.782C108.327 71.188 107.18 72.3103 105.725 73.149C104.294 73.963 102.679 74.37 100.878 74.37ZM100.841 69.856C101.754 69.856 102.555 69.6587 103.246 69.264C103.961 68.8447 104.504 68.2773 104.874 67.562C105.269 66.822 105.466 65.9833 105.466 65.046C105.466 64.1087 105.269 63.2823 104.874 62.567C104.479 61.8517 103.937 61.2967 103.246 60.902C102.555 60.4827 101.754 60.273 100.841 60.273C99.953 60.273 99.1637 60.4827 98.473 60.902C97.7823 61.2967 97.2397 61.8517 96.845 62.567C96.4503 63.2823 96.253 64.1087 96.253 65.046C96.253 65.9833 96.4503 66.822 96.845 67.562C97.2397 68.2773 97.7823 68.8447 98.473 69.264C99.1637 69.6587 99.953 69.856 100.841 69.856ZM121.289 74V47.989H126.321V74H121.289ZM143.166 74V63.751C143.166 62.6903 142.833 61.827 142.167 61.161C141.501 60.495 140.638 60.162 139.577 60.162C138.886 60.162 138.27 60.31 137.727 60.606C137.184 60.902 136.753 61.3213 136.432 61.864C136.136 62.4067 135.988 63.0357 135.988 63.751L134.101 62.789C134.101 61.383 134.397 60.162 134.989 59.126C135.606 58.0653 136.444 57.239 137.505 56.647C138.59 56.055 139.811 55.759 141.168 55.759C142.475 55.759 143.647 56.092 144.683 56.758C145.719 57.3993 146.533 58.2503 147.125 59.311C147.717 60.347 148.013 61.4693 148.013 62.678V74H143.166ZM131.141 74V56.129H135.988V74H131.141ZM154.328 74V48.692H159.175V74H154.328ZM150.147 60.384V56.129H163.356V60.384H150.147ZM174.195 74.37C172.32 74.37 170.655 73.9753 169.2 73.186C167.745 72.372 166.585 71.262 165.722 69.856C164.883 68.45 164.464 66.8467 164.464 65.046C164.464 63.27 164.871 61.6913 165.685 60.31C166.524 58.904 167.658 57.794 169.089 56.98C170.52 56.1413 172.111 55.722 173.862 55.722C175.589 55.722 177.106 56.1167 178.413 56.906C179.745 57.6707 180.781 58.7313 181.521 60.088C182.286 61.42 182.668 62.937 182.668 64.639C182.668 64.9597 182.643 65.2927 182.594 65.638C182.569 65.9587 182.508 66.3287 182.409 66.748L167.387 66.785V63.159L180.152 63.122L178.191 64.639C178.142 63.5783 177.944 62.6903 177.599 61.975C177.278 61.2597 176.797 60.717 176.156 60.347C175.539 59.9523 174.775 59.755 173.862 59.755C172.9 59.755 172.061 59.977 171.346 60.421C170.631 60.8403 170.076 61.4447 169.681 62.234C169.311 62.9987 169.126 63.9113 169.126 64.972C169.126 66.0573 169.323 67.007 169.718 67.821C170.137 68.6103 170.729 69.227 171.494 69.671C172.259 70.0903 173.147 70.3 174.158 70.3C175.071 70.3 175.897 70.152 176.637 69.856C177.377 69.5353 178.018 69.0667 178.561 68.45L181.41 71.299C180.547 72.3103 179.486 73.075 178.228 73.593C176.995 74.111 175.65 74.37 174.195 74.37ZM185.666 74V47.249H190.513V74H185.666ZM194.807 74V47.249H199.654V74H194.807ZM203.949 74V56.129H208.833V74H203.949ZM206.391 53.243C205.601 53.243 204.948 52.984 204.43 52.466C203.912 51.9233 203.653 51.2573 203.653 50.468C203.653 49.7033 203.912 49.0497 204.43 48.507C204.948 47.9643 205.601 47.693 206.391 47.693C207.205 47.693 207.858 47.9643 208.352 48.507C208.87 49.0497 209.129 49.7033 209.129 50.468C209.129 51.2573 208.87 51.9233 208.352 52.466C207.858 52.984 207.205 53.243 206.391 53.243ZM220.6 81.918C218.701 81.918 217.024 81.5727 215.568 80.882C214.113 80.216 212.954 79.2663 212.09 78.033L215.161 74.962C215.852 75.776 216.617 76.3927 217.455 76.812C218.319 77.256 219.355 77.478 220.563 77.478C222.068 77.478 223.252 77.0957 224.115 76.331C225.003 75.5663 225.447 74.5057 225.447 73.149V68.672L226.261 64.75L225.484 60.828V56.129H230.294V73.075C230.294 74.851 229.875 76.3927 229.036 77.7C228.222 79.032 227.088 80.068 225.632 80.808C224.177 81.548 222.5 81.918 220.6 81.918ZM220.378 73.519C218.775 73.519 217.332 73.1367 216.049 72.372C214.767 71.5827 213.755 70.5097 213.015 69.153C212.3 67.7963 211.942 66.2793 211.942 64.602C211.942 62.9247 212.3 61.42 213.015 60.088C213.755 58.756 214.767 57.7077 216.049 56.943C217.332 56.1537 218.775 55.759 220.378 55.759C221.71 55.759 222.882 56.018 223.893 56.536C224.929 57.054 225.743 57.7693 226.335 58.682C226.927 59.57 227.248 60.6183 227.297 61.827V67.451C227.248 68.635 226.915 69.6957 226.298 70.633C225.706 71.5457 224.892 72.261 223.856 72.779C222.845 73.2723 221.686 73.519 220.378 73.519ZM221.34 69.116C222.228 69.116 222.993 68.931 223.634 68.561C224.3 68.1663 224.818 67.636 225.188 66.97C225.558 66.2793 225.743 65.5023 225.743 64.639C225.743 63.751 225.558 62.974 225.188 62.308C224.818 61.642 224.3 61.124 223.634 60.754C222.993 60.3593 222.228 60.162 221.34 60.162C220.452 60.162 219.675 60.3593 219.009 60.754C218.343 61.124 217.825 61.6543 217.455 62.345C217.085 63.011 216.9 63.7757 216.9 64.639C216.9 65.4777 217.085 66.2423 217.455 66.933C217.825 67.599 218.343 68.1293 219.009 68.524C219.675 68.9187 220.452 69.116 221.34 69.116ZM243.1 74.37C241.226 74.37 239.561 73.9753 238.105 73.186C236.65 72.372 235.491 71.262 234.627 69.856C233.789 68.45 233.369 66.8467 233.369 65.046C233.369 63.27 233.776 61.6913 234.59 60.31C235.429 58.904 236.564 57.794 237.994 56.98C239.425 56.1413 241.016 55.722 242.767 55.722C244.494 55.722 246.011 56.1167 247.318 56.906C248.65 57.6707 249.686 58.7313 250.426 60.088C251.191 61.42 251.573 62.937 251.573 64.639C251.573 64.9597 251.549 65.2927 251.499 65.638C251.475 65.9587 251.413 66.3287 251.314 66.748L236.292 66.785V63.159L249.057 63.122L247.096 64.639C247.047 63.5783 246.85 62.6903 246.504 61.975C246.184 61.2597 245.703 60.717 245.061 60.347C244.445 59.9523 243.68 59.755 242.767 59.755C241.805 59.755 240.967 59.977 240.251 60.421C239.536 60.8403 238.981 61.4447 238.586 62.234C238.216 62.9987 238.031 63.9113 238.031 64.972C238.031 66.0573 238.229 67.007 238.623 67.821C239.043 68.6103 239.635 69.227 240.399 69.671C241.164 70.0903 242.052 70.3 243.063 70.3C243.976 70.3 244.802 70.152 245.542 69.856C246.282 69.5353 246.924 69.0667 247.466 68.45L250.315 71.299C249.452 72.3103 248.391 73.075 247.133 73.593C245.9 74.111 244.556 74.37 243.1 74.37ZM266.596 74V63.751C266.596 62.6903 266.263 61.827 265.597 61.161C264.931 60.495 264.067 60.162 263.007 60.162C262.316 60.162 261.699 60.31 261.157 60.606C260.614 60.902 260.182 61.3213 259.862 61.864C259.566 62.4067 259.418 63.0357 259.418 63.751L257.531 62.789C257.531 61.383 257.827 60.162 258.419 59.126C259.035 58.0653 259.874 57.239 260.935 56.647C262.02 56.055 263.241 55.759 264.598 55.759C265.905 55.759 267.077 56.092 268.113 56.758C269.149 57.3993 269.963 58.2503 270.555 59.311C271.147 60.347 271.443 61.4693 271.443 62.678V74H266.596ZM254.571 74V56.129H259.418V74H254.571ZM283.783 74.37C281.958 74.37 280.318 73.963 278.862 73.149C277.407 72.335 276.26 71.225 275.421 69.819C274.583 68.413 274.163 66.8343 274.163 65.083C274.163 63.307 274.583 61.716 275.421 60.31C276.26 58.904 277.407 57.794 278.862 56.98C280.342 56.1413 281.983 55.722 283.783 55.722C285.189 55.722 286.484 55.981 287.668 56.499C288.852 57.017 289.876 57.757 290.739 58.719L287.631 61.864C287.163 61.346 286.595 60.9513 285.929 60.68C285.288 60.4087 284.573 60.273 283.783 60.273C282.895 60.273 282.094 60.4827 281.378 60.902C280.688 61.2967 280.133 61.8517 279.713 62.567C279.319 63.2577 279.121 64.084 279.121 65.046C279.121 65.9833 279.319 66.822 279.713 67.562C280.133 68.2773 280.688 68.8447 281.378 69.264C282.094 69.6587 282.895 69.856 283.783 69.856C284.597 69.856 285.325 69.7203 285.966 69.449C286.632 69.153 287.2 68.7337 287.668 68.191L290.813 71.336C289.901 72.3227 288.852 73.075 287.668 73.593C286.484 74.111 285.189 74.37 283.783 74.37ZM301.708 74.37C299.833 74.37 298.168 73.9753 296.713 73.186C295.257 72.372 294.098 71.262 293.235 69.856C292.396 68.45 291.977 66.8467 291.977 65.046C291.977 63.27 292.384 61.6913 293.198 60.31C294.036 58.904 295.171 57.794 296.602 56.98C298.032 56.1413 299.623 55.722 301.375 55.722C303.101 55.722 304.618 56.1167 305.926 56.906C307.258 57.6707 308.294 58.7313 309.034 60.088C309.798 61.42 310.181 62.937 310.181 64.639C310.181 64.9597 310.156 65.2927 310.107 65.638C310.082 65.9587 310.02 66.3287 309.922 66.748L294.9 66.785V63.159L307.665 63.122L305.704 64.639C305.654 63.5783 305.457 62.6903 305.112 61.975C304.791 61.2597 304.31 60.717 303.669 60.347C303.052 59.9523 302.287 59.755 301.375 59.755C300.413 59.755 299.574 59.977 298.859 60.421C298.143 60.8403 297.588 61.4447 297.194 62.234C296.824 62.9987 296.639 63.9113 296.639 64.972C296.639 66.0573 296.836 67.007 297.231 67.821C297.65 68.6103 298.242 69.227 299.007 69.671C299.771 70.0903 300.659 70.3 301.671 70.3C302.583 70.3 303.41 70.152 304.15 69.856C304.89 69.5353 305.531 69.0667 306.074 68.45L308.923 71.299C308.059 72.3103 306.999 73.075 305.741 73.593C304.507 74.111 303.163 74.37 301.708 74.37Z" fill="url(#paint1_linear_6951_1012)"/>
<path d="M41.64 119V105.12H43.52V119H41.64ZM53.1963 119V113.46C53.1963 112.74 52.9696 112.147 52.5163 111.68C52.0629 111.213 51.4763 110.98 50.7563 110.98C50.2763 110.98 49.8496 111.087 49.4763 111.3C49.1029 111.513 48.8096 111.807 48.5963 112.18C48.3829 112.553 48.2763 112.98 48.2763 113.46L47.5363 113.04C47.5363 112.32 47.6963 111.68 48.0163 111.12C48.3363 110.56 48.7829 110.12 49.3563 109.8C49.9296 109.467 50.5763 109.3 51.2963 109.3C52.0163 109.3 52.6496 109.48 53.1963 109.84C53.7563 110.2 54.1963 110.673 54.5163 111.26C54.8363 111.833 54.9963 112.447 54.9963 113.1V119H53.1963ZM46.4762 119V109.5H48.2763V119H46.4762ZM61.4533 119.2C60.5733 119.2 59.7866 118.987 59.0933 118.56C58.3999 118.12 57.8466 117.527 57.4333 116.78C57.0333 116.033 56.8333 115.193 56.8333 114.26C56.8333 113.327 57.0333 112.487 57.4333 111.74C57.8466 110.993 58.3999 110.4 59.0933 109.96C59.7866 109.52 60.5733 109.3 61.4533 109.3C62.1599 109.3 62.7999 109.453 63.3733 109.76C63.9466 110.053 64.4066 110.467 64.7533 111C65.1133 111.52 65.3133 112.127 65.3533 112.82V115.68C65.3133 116.36 65.1199 116.967 64.7733 117.5C64.4266 118.033 63.9666 118.453 63.3933 118.76C62.8199 119.053 62.1733 119.2 61.4533 119.2ZM61.7533 117.5C62.3533 117.5 62.8733 117.36 63.3133 117.08C63.7666 116.8 64.1199 116.42 64.3733 115.94C64.6266 115.447 64.7533 114.887 64.7533 114.26C64.7533 113.607 64.6199 113.04 64.3533 112.56C64.0999 112.08 63.7466 111.7 63.2933 111.42C62.8533 111.14 62.3333 111 61.7333 111C61.1333 111 60.6066 111.14 60.1533 111.42C59.6999 111.7 59.3399 112.087 59.0733 112.58C58.8199 113.06 58.6933 113.613 58.6933 114.24C58.6933 114.88 58.8199 115.447 59.0733 115.94C59.3399 116.42 59.6999 116.8 60.1533 117.08C60.6199 117.36 61.1533 117.5 61.7533 117.5ZM66.4533 119H64.6333V116.44L64.9733 114.12L64.6333 111.82V104.72H66.4533V119ZM72.9139 119.2C72.1272 119.2 71.4206 119.027 70.7939 118.68C70.1806 118.32 69.7006 117.827 69.3539 117.2C69.0072 116.573 68.8339 115.847 68.8339 115.02V109.5H70.6339V114.94C70.6339 115.46 70.7206 115.913 70.8939 116.3C71.0806 116.673 71.3472 116.96 71.6939 117.16C72.0406 117.36 72.4472 117.46 72.9139 117.46C73.6206 117.46 74.1739 117.24 74.5739 116.8C74.9739 116.347 75.1739 115.727 75.1739 114.94V109.5H76.9739V115.02C76.9739 115.847 76.8006 116.573 76.4539 117.2C76.1072 117.827 75.6272 118.32 75.0139 118.68C74.4139 119.027 73.7139 119.2 72.9139 119.2ZM82.4064 119.2C81.8731 119.2 81.3664 119.133 80.8864 119C80.4197 118.853 79.9864 118.653 79.5864 118.4C79.1864 118.133 78.8397 117.82 78.5464 117.46L79.7064 116.3C80.0531 116.727 80.4531 117.047 80.9064 117.26C81.3597 117.46 81.8664 117.56 82.4264 117.56C82.9864 117.56 83.4197 117.467 83.7264 117.28C84.0331 117.08 84.1864 116.807 84.1864 116.46C84.1864 116.113 84.0597 115.847 83.8064 115.66C83.5664 115.46 83.2531 115.3 82.8664 115.18C82.4797 115.047 82.0664 114.92 81.6264 114.8C81.1997 114.667 80.7931 114.5 80.4064 114.3C80.0197 114.1 79.6997 113.827 79.4464 113.48C79.2064 113.133 79.0864 112.673 79.0864 112.1C79.0864 111.527 79.2264 111.033 79.5064 110.62C79.7864 110.193 80.1731 109.867 80.6664 109.64C81.1731 109.413 81.7797 109.3 82.4864 109.3C83.2331 109.3 83.8931 109.433 84.4664 109.7C85.0531 109.953 85.5331 110.34 85.9064 110.86L84.7464 112.02C84.4797 111.673 84.1464 111.407 83.7464 111.22C83.3597 111.033 82.9197 110.94 82.4264 110.94C81.9064 110.94 81.5064 111.033 81.2264 111.22C80.9597 111.393 80.8264 111.64 80.8264 111.96C80.8264 112.28 80.9464 112.527 81.1864 112.7C81.4264 112.873 81.7397 113.02 82.1264 113.14C82.5264 113.26 82.9397 113.387 83.3664 113.52C83.7931 113.64 84.1997 113.807 84.5864 114.02C84.9731 114.233 85.2864 114.52 85.5264 114.88C85.7797 115.24 85.9064 115.713 85.9064 116.3C85.9064 117.193 85.5864 117.9 84.9464 118.42C84.3197 118.94 83.4731 119.2 82.4064 119.2ZM89.3816 119V105.52H91.1816V119H89.3816ZM87.0416 111.14V109.5H93.5216V111.14H87.0416ZM95.2848 119V109.5H97.0848V119H95.2848ZM97.0848 113.58L96.4048 113.28C96.4048 112.067 96.6848 111.1 97.2448 110.38C97.8048 109.66 98.6115 109.3 99.6648 109.3C100.145 109.3 100.578 109.387 100.965 109.56C101.352 109.72 101.712 109.993 102.045 110.38L100.865 111.6C100.665 111.387 100.445 111.233 100.205 111.14C99.9648 111.047 99.6848 111 99.3648 111C98.6982 111 98.1515 111.213 97.7248 111.64C97.2982 112.067 97.0848 112.713 97.0848 113.58ZM106.256 119.08L102.136 109.5H104.136L107.196 117H106.556L109.776 109.5H111.776L107.336 119.08H106.256ZM103.536 122.98L106.336 117.24L107.336 119.08L105.536 122.98H103.536ZM112.707 114.76V113.06H119.287V114.76H112.707ZM126.178 123.18C125.205 123.18 124.338 123 123.578 122.64C122.831 122.28 122.231 121.773 121.778 121.12L122.938 119.94C123.325 120.433 123.785 120.807 124.318 121.06C124.851 121.327 125.485 121.46 126.218 121.46C127.191 121.46 127.958 121.2 128.518 120.68C129.091 120.173 129.378 119.487 129.378 118.62V116.26L129.698 114.12L129.378 112V109.5H131.178V118.62C131.178 119.527 130.965 120.32 130.538 121C130.125 121.68 129.538 122.213 128.778 122.6C128.031 122.987 127.165 123.18 126.178 123.18ZM126.178 118.84C125.311 118.84 124.531 118.633 123.838 118.22C123.158 117.807 122.618 117.24 122.218 116.52C121.818 115.787 121.618 114.967 121.618 114.06C121.618 113.153 121.818 112.347 122.218 111.64C122.618 110.92 123.158 110.353 123.838 109.94C124.531 109.513 125.311 109.3 126.178 109.3C126.925 109.3 127.585 109.447 128.158 109.74C128.731 110.033 129.185 110.447 129.518 110.98C129.865 111.5 130.051 112.113 130.078 112.82V115.34C130.038 116.033 129.845 116.647 129.498 117.18C129.165 117.7 128.711 118.107 128.138 118.4C127.565 118.693 126.911 118.84 126.178 118.84ZM126.538 117.14C127.125 117.14 127.638 117.013 128.078 116.76C128.531 116.507 128.878 116.153 129.118 115.7C129.358 115.233 129.478 114.693 129.478 114.08C129.478 113.467 129.351 112.933 129.098 112.48C128.858 112.013 128.518 111.653 128.078 111.4C127.638 111.133 127.118 111 126.518 111C125.918 111 125.391 111.133 124.938 111.4C124.485 111.653 124.125 112.013 123.858 112.48C123.605 112.933 123.478 113.46 123.478 114.06C123.478 114.66 123.605 115.193 123.858 115.66C124.125 116.127 124.485 116.493 124.938 116.76C125.405 117.013 125.938 117.14 126.538 117.14ZM133.82 119V109.5H135.62V119H133.82ZM135.62 113.58L134.94 113.28C134.94 112.067 135.22 111.1 135.78 110.38C136.34 109.66 137.147 109.3 138.2 109.3C138.68 109.3 139.113 109.387 139.5 109.56C139.887 109.72 140.247 109.993 140.58 110.38L139.4 111.6C139.2 111.387 138.98 111.233 138.74 111.14C138.5 111.047 138.22 111 137.9 111C137.233 111 136.687 111.213 136.26 111.64C135.833 112.067 135.62 112.713 135.62 113.58ZM145.575 119.2C144.708 119.2 143.922 118.987 143.215 118.56C142.508 118.12 141.948 117.527 141.535 116.78C141.135 116.033 140.935 115.193 140.935 114.26C140.935 113.327 141.135 112.487 141.535 111.74C141.948 110.993 142.502 110.4 143.195 109.96C143.902 109.52 144.695 109.3 145.575 109.3C146.295 109.3 146.935 109.453 147.495 109.76C148.068 110.053 148.528 110.467 148.875 111C149.222 111.52 149.415 112.127 149.455 112.82V115.68C149.415 116.36 149.222 116.967 148.875 117.5C148.542 118.033 148.088 118.453 147.515 118.76C146.955 119.053 146.308 119.2 145.575 119.2ZM145.875 117.5C146.768 117.5 147.488 117.2 148.035 116.6C148.582 115.987 148.855 115.207 148.855 114.26C148.855 113.607 148.728 113.04 148.475 112.56C148.235 112.067 147.888 111.687 147.435 111.42C146.982 111.14 146.455 111 145.855 111C145.255 111 144.722 111.14 144.255 111.42C143.802 111.7 143.442 112.087 143.175 112.58C142.922 113.06 142.795 113.613 142.795 114.24C142.795 114.88 142.922 115.447 143.175 115.94C143.442 116.42 143.808 116.8 144.275 117.08C144.742 117.36 145.275 117.5 145.875 117.5ZM148.735 119V116.44L149.075 114.12L148.735 111.82V109.5H150.555V119H148.735ZM157.195 119.2C156.315 119.2 155.529 118.987 154.835 118.56C154.142 118.12 153.589 117.527 153.175 116.78C152.775 116.033 152.575 115.193 152.575 114.26C152.575 113.327 152.775 112.487 153.175 111.74C153.589 110.993 154.142 110.4 154.835 109.96C155.529 109.52 156.315 109.3 157.195 109.3C157.902 109.3 158.542 109.453 159.115 109.76C159.689 110.053 160.149 110.467 160.495 111C160.855 111.52 161.055 112.127 161.095 112.82V115.68C161.055 116.36 160.862 116.967 160.515 117.5C160.169 118.033 159.709 118.453 159.135 118.76C158.562 119.053 157.915 119.2 157.195 119.2ZM157.495 117.5C158.095 117.5 158.615 117.36 159.055 117.08C159.509 116.8 159.862 116.42 160.115 115.94C160.369 115.447 160.495 114.887 160.495 114.26C160.495 113.607 160.362 113.04 160.095 112.56C159.842 112.08 159.489 111.7 159.035 111.42C158.595 111.14 158.075 111 157.475 111C156.875 111 156.349 111.14 155.895 111.42C155.442 111.7 155.082 112.087 154.815 112.58C154.562 113.06 154.435 113.613 154.435 114.24C154.435 114.88 154.562 115.447 154.815 115.94C155.082 116.42 155.442 116.8 155.895 117.08C156.362 117.36 156.895 117.5 157.495 117.5ZM162.195 119H160.375V116.44L160.715 114.12L160.375 111.82V104.72H162.195V119ZM169.216 119.2C168.269 119.2 167.416 118.987 166.656 118.56C165.896 118.12 165.296 117.527 164.856 116.78C164.416 116.033 164.196 115.187 164.196 114.24C164.196 113.307 164.409 112.467 164.836 111.72C165.276 110.973 165.863 110.387 166.596 109.96C167.343 109.52 168.176 109.3 169.096 109.3C169.976 109.3 170.749 109.5 171.416 109.9C172.096 110.3 172.623 110.853 172.996 111.56C173.383 112.267 173.576 113.067 173.576 113.96C173.576 114.093 173.569 114.24 173.556 114.4C173.543 114.547 173.516 114.72 173.476 114.92H165.456V113.42H172.516L171.856 114C171.856 113.36 171.743 112.82 171.516 112.38C171.289 111.927 170.969 111.58 170.556 111.34C170.143 111.087 169.643 110.96 169.056 110.96C168.443 110.96 167.903 111.093 167.436 111.36C166.969 111.627 166.609 112 166.356 112.48C166.103 112.96 165.976 113.527 165.976 114.18C165.976 114.847 166.109 115.433 166.376 115.94C166.643 116.433 167.023 116.82 167.516 117.1C168.009 117.367 168.576 117.5 169.216 117.5C169.749 117.5 170.236 117.407 170.676 117.22C171.129 117.033 171.516 116.753 171.836 116.38L172.996 117.56C172.543 118.093 171.983 118.5 171.316 118.78C170.663 119.06 169.963 119.2 169.216 119.2ZM178.433 119L184.113 105.12H185.473L191.133 119H189.093L184.433 107.26H185.133L180.433 119H178.433ZM181.133 115.86V114.22H188.433V115.86H181.133ZM193.222 119V105.12H195.102V119H193.222ZM203.678 119V105.52H205.478V119H203.678ZM201.338 111.14V109.5H207.818V111.14H201.338ZM216.302 119V113.46C216.302 112.74 216.075 112.147 215.622 111.68C215.168 111.213 214.582 110.98 213.862 110.98C213.382 110.98 212.955 111.087 212.582 111.3C212.208 111.513 211.915 111.807 211.702 112.18C211.488 112.553 211.382 112.98 211.382 113.46L210.642 113.04C210.642 112.32 210.802 111.68 211.122 111.12C211.442 110.56 211.888 110.12 212.462 109.8C213.035 109.467 213.682 109.3 214.402 109.3C215.122 109.3 215.755 109.46 216.302 109.78C216.862 110.1 217.302 110.547 217.622 111.12C217.942 111.693 218.102 112.353 218.102 113.1V119H216.302ZM209.582 119V104.72H211.382V119H209.582ZM220.539 119V109.5H222.339V119H220.539ZM222.339 113.58L221.659 113.28C221.659 112.067 221.939 111.1 222.499 110.38C223.059 109.66 223.865 109.3 224.919 109.3C225.399 109.3 225.832 109.387 226.219 109.56C226.605 109.72 226.965 109.993 227.299 110.38L226.119 111.6C225.919 111.387 225.699 111.233 225.459 111.14C225.219 111.047 224.939 111 224.619 111C223.952 111 223.405 111.213 222.979 111.64C222.552 112.067 222.339 112.713 222.339 113.58ZM232.594 119.2C231.66 119.2 230.82 118.98 230.074 118.54C229.327 118.1 228.734 117.507 228.294 116.76C227.854 116 227.634 115.153 227.634 114.22C227.634 113.3 227.854 112.473 228.294 111.74C228.734 110.993 229.327 110.4 230.074 109.96C230.82 109.52 231.66 109.3 232.594 109.3C233.514 109.3 234.347 109.52 235.094 109.96C235.854 110.387 236.454 110.973 236.894 111.72C237.334 112.467 237.554 113.3 237.554 114.22C237.554 115.153 237.334 116 236.894 116.76C236.454 117.507 235.854 118.1 235.094 118.54C234.347 118.98 233.514 119.2 232.594 119.2ZM232.594 117.46C233.194 117.46 233.727 117.32 234.194 117.04C234.66 116.76 235.027 116.38 235.294 115.9C235.56 115.407 235.694 114.847 235.694 114.22C235.694 113.607 235.554 113.06 235.274 112.58C235.007 112.1 234.64 111.727 234.174 111.46C233.72 111.18 233.194 111.04 232.594 111.04C231.994 111.04 231.46 111.18 230.994 111.46C230.527 111.727 230.16 112.1 229.894 112.58C229.627 113.06 229.494 113.607 229.494 114.22C229.494 114.847 229.627 115.407 229.894 115.9C230.16 116.38 230.527 116.76 230.994 117.04C231.46 117.32 231.994 117.46 232.594 117.46ZM243.422 119.2C242.635 119.2 241.928 119.027 241.302 118.68C240.688 118.32 240.208 117.827 239.862 117.2C239.515 116.573 239.342 115.847 239.342 115.02V109.5H241.142V114.94C241.142 115.46 241.228 115.913 241.402 116.3C241.588 116.673 241.855 116.96 242.202 117.16C242.548 117.36 242.955 117.46 243.422 117.46C244.128 117.46 244.682 117.24 245.082 116.8C245.482 116.347 245.682 115.727 245.682 114.94V109.5H247.482V115.02C247.482 115.847 247.308 116.573 246.962 117.2C246.615 117.827 246.135 118.32 245.522 118.68C244.922 119.027 244.222 119.2 243.422 119.2ZM253.834 123.18C252.861 123.18 251.994 123 251.234 122.64C250.488 122.28 249.888 121.773 249.434 121.12L250.594 119.94C250.981 120.433 251.441 120.807 251.974 121.06C252.508 121.327 253.141 121.46 253.874 121.46C254.848 121.46 255.614 121.2 256.174 120.68C256.748 120.173 257.034 119.487 257.034 118.62V116.26L257.354 114.12L257.034 112V109.5H258.834V118.62C258.834 119.527 258.621 120.32 258.194 121C257.781 121.68 257.194 122.213 256.434 122.6C255.688 122.987 254.821 123.18 253.834 123.18ZM253.834 118.84C252.968 118.84 252.188 118.633 251.494 118.22C250.814 117.807 250.274 117.24 249.874 116.52C249.474 115.787 249.274 114.967 249.274 114.06C249.274 113.153 249.474 112.347 249.874 111.64C250.274 110.92 250.814 110.353 251.494 109.94C252.188 109.513 252.968 109.3 253.834 109.3C254.581 109.3 255.241 109.447 255.814 109.74C256.388 110.033 256.841 110.447 257.174 110.98C257.521 111.5 257.708 112.113 257.734 112.82V115.34C257.694 116.033 257.501 116.647 257.154 117.18C256.821 117.7 256.368 118.107 255.794 118.4C255.221 118.693 254.568 118.84 253.834 118.84ZM254.194 117.14C254.781 117.14 255.294 117.013 255.734 116.76C256.188 116.507 256.534 116.153 256.774 115.7C257.014 115.233 257.134 114.693 257.134 114.08C257.134 113.467 257.008 112.933 256.754 112.48C256.514 112.013 256.174 111.653 255.734 111.4C255.294 111.133 254.774 111 254.174 111C253.574 111 253.048 111.133 252.594 111.4C252.141 111.653 251.781 112.013 251.514 112.48C251.261 112.933 251.134 113.46 251.134 114.06C251.134 114.66 251.261 115.193 251.514 115.66C251.781 116.127 252.141 116.493 252.594 116.76C253.061 117.013 253.594 117.14 254.194 117.14ZM268.196 119V113.46C268.196 112.74 267.97 112.147 267.516 111.68C267.063 111.213 266.476 110.98 265.756 110.98C265.276 110.98 264.85 111.087 264.476 111.3C264.103 111.513 263.81 111.807 263.596 112.18C263.383 112.553 263.276 112.98 263.276 113.46L262.536 113.04C262.536 112.32 262.696 111.68 263.016 111.12C263.336 110.56 263.783 110.12 264.356 109.8C264.93 109.467 265.576 109.3 266.296 109.3C267.016 109.3 267.65 109.46 268.196 109.78C268.756 110.1 269.196 110.547 269.516 111.12C269.836 111.693 269.996 112.353 269.996 113.1V119H268.196ZM261.476 119V104.72H263.276V119H261.476ZM41.32 149V134.72H43.12V149H41.32ZM50.1536 149.2C49.2069 149.2 48.3536 148.987 47.5936 148.56C46.8336 148.12 46.2336 147.527 45.7936 146.78C45.3536 146.033 45.1336 145.187 45.1336 144.24C45.1336 143.307 45.3469 142.467 45.7736 141.72C46.2136 140.973 46.8003 140.387 47.5336 139.96C48.2803 139.52 49.1136 139.3 50.0336 139.3C50.9136 139.3 51.6869 139.5 52.3536 139.9C53.0336 140.3 53.5603 140.853 53.9336 141.56C54.3203 142.267 54.5136 143.067 54.5136 143.96C54.5136 144.093 54.5069 144.24 54.4936 144.4C54.4803 144.547 54.4536 144.72 54.4136 144.92H46.3936V143.42H53.4536L52.7936 144C52.7936 143.36 52.6803 142.82 52.4536 142.38C52.2269 141.927 51.9069 141.58 51.4936 141.34C51.0803 141.087 50.5803 140.96 49.9936 140.96C49.3803 140.96 48.8403 141.093 48.3736 141.36C47.9069 141.627 47.5469 142 47.2936 142.48C47.0403 142.96 46.9136 143.527 46.9136 144.18C46.9136 144.847 47.0469 145.433 47.3136 145.94C47.5803 146.433 47.9603 146.82 48.4536 147.1C48.9469 147.367 49.5136 147.5 50.1536 147.5C50.6869 147.5 51.1736 147.407 51.6136 147.22C52.0669 147.033 52.4536 146.753 52.7736 146.38L53.9336 147.56C53.4803 148.093 52.9203 148.5 52.2536 148.78C51.6003 149.06 50.9003 149.2 50.1536 149.2ZM60.5163 149.2C59.6496 149.2 58.8629 148.987 58.1563 148.56C57.4496 148.12 56.8896 147.527 56.4762 146.78C56.0763 146.033 55.8763 145.193 55.8763 144.26C55.8763 143.327 56.0763 142.487 56.4762 141.74C56.8896 140.993 57.4429 140.4 58.1363 139.96C58.8429 139.52 59.6363 139.3 60.5163 139.3C61.2363 139.3 61.8763 139.453 62.4363 139.76C63.0096 140.053 63.4696 140.467 63.8163 141C64.1629 141.52 64.3563 142.127 64.3963 142.82V145.68C64.3563 146.36 64.1629 146.967 63.8163 147.5C63.4829 148.033 63.0296 148.453 62.4563 148.76C61.8963 149.053 61.2496 149.2 60.5163 149.2ZM60.8163 147.5C61.7096 147.5 62.4296 147.2 62.9763 146.6C63.5229 145.987 63.7963 145.207 63.7963 144.26C63.7963 143.607 63.6696 143.04 63.4163 142.56C63.1763 142.067 62.8296 141.687 62.3763 141.42C61.9229 141.14 61.3963 141 60.7963 141C60.1963 141 59.6629 141.14 59.1963 141.42C58.7429 141.7 58.3829 142.087 58.1163 142.58C57.8629 143.06 57.7363 143.613 57.7363 144.24C57.7363 144.88 57.8629 145.447 58.1163 145.94C58.3829 146.42 58.7496 146.8 59.2163 147.08C59.6829 147.36 60.2163 147.5 60.8163 147.5ZM63.6763 149V146.44L64.0163 144.12L63.6763 141.82V139.5H65.4963V149H63.6763ZM72.1369 149.2C71.2569 149.2 70.4702 148.987 69.7769 148.56C69.0835 148.12 68.5302 147.527 68.1169 146.78C67.7169 146.033 67.5169 145.193 67.5169 144.26C67.5169 143.327 67.7169 142.487 68.1169 141.74C68.5302 140.993 69.0835 140.4 69.7769 139.96C70.4702 139.52 71.2569 139.3 72.1369 139.3C72.8435 139.3 73.4835 139.453 74.0569 139.76C74.6302 140.053 75.0902 140.467 75.4369 141C75.7969 141.52 75.9969 142.127 76.0369 142.82V145.68C75.9969 146.36 75.8035 146.967 75.4569 147.5C75.1102 148.033 74.6502 148.453 74.0769 148.76C73.5035 149.053 72.8569 149.2 72.1369 149.2ZM72.4369 147.5C73.0369 147.5 73.5569 147.36 73.9969 147.08C74.4502 146.8 74.8035 146.42 75.0569 145.94C75.3102 145.447 75.4369 144.887 75.4369 144.26C75.4369 143.607 75.3035 143.04 75.0369 142.56C74.7835 142.08 74.4302 141.7 73.9769 141.42C73.5369 141.14 73.0169 141 72.4169 141C71.8169 141 71.2902 141.14 70.8369 141.42C70.3835 141.7 70.0235 142.087 69.7569 142.58C69.5035 143.06 69.3769 143.613 69.3769 144.24C69.3769 144.88 69.5035 145.447 69.7569 145.94C70.0235 146.42 70.3835 146.8 70.8369 147.08C71.3035 147.36 71.8369 147.5 72.4369 147.5ZM77.1369 149H75.3169V146.44L75.6569 144.12L75.3169 141.82V134.72H77.1369V149ZM79.7775 149V139.5H81.5775V149H79.7775ZM80.6775 137.6C80.3442 137.6 80.0708 137.493 79.8575 137.28C79.6442 137.053 79.5375 136.773 79.5375 136.44C79.5375 136.12 79.6442 135.853 79.8575 135.64C80.0708 135.413 80.3442 135.3 80.6775 135.3C81.0108 135.3 81.2842 135.413 81.4975 135.64C81.7108 135.853 81.8175 136.12 81.8175 136.44C81.8175 136.773 81.7108 137.053 81.4975 137.28C81.2842 137.493 81.0108 137.6 80.6775 137.6ZM90.9502 149V143.46C90.9502 142.74 90.7235 142.147 90.2702 141.68C89.8168 141.213 89.2302 140.98 88.5102 140.98C88.0302 140.98 87.6035 141.087 87.2302 141.3C86.8568 141.513 86.5635 141.807 86.3502 142.18C86.1368 142.553 86.0302 142.98 86.0302 143.46L85.2902 143.04C85.2902 142.32 85.4502 141.68 85.7702 141.12C86.0902 140.56 86.5368 140.12 87.1102 139.8C87.6835 139.467 88.3302 139.3 89.0502 139.3C89.7702 139.3 90.4035 139.48 90.9502 139.84C91.5102 140.2 91.9502 140.673 92.2702 141.26C92.5902 141.833 92.7502 142.447 92.7502 143.1V149H90.9502ZM84.2302 149V139.5H86.0302V149H84.2302ZM99.1272 153.18C98.1539 153.18 97.2872 153 96.5272 152.64C95.7805 152.28 95.1805 151.773 94.7272 151.12L95.8872 149.94C96.2739 150.433 96.7339 150.807 97.2672 151.06C97.8005 151.327 98.4339 151.46 99.1672 151.46C100.141 151.46 100.907 151.2 101.467 150.68C102.041 150.173 102.327 149.487 102.327 148.62V146.26L102.647 144.12L102.327 142V139.5H104.127V148.62C104.127 149.527 103.914 150.32 103.487 151C103.074 151.68 102.487 152.213 101.727 152.6C100.981 152.987 100.114 153.18 99.1272 153.18ZM99.1272 148.84C98.2605 148.84 97.4805 148.633 96.7872 148.22C96.1072 147.807 95.5672 147.24 95.1672 146.52C94.7672 145.787 94.5672 144.967 94.5672 144.06C94.5672 143.153 94.7672 142.347 95.1672 141.64C95.5672 140.92 96.1072 140.353 96.7872 139.94C97.4805 139.513 98.2605 139.3 99.1272 139.3C99.8739 139.3 100.534 139.447 101.107 139.74C101.681 140.033 102.134 140.447 102.467 140.98C102.814 141.5 103.001 142.113 103.027 142.82V145.34C102.987 146.033 102.794 146.647 102.447 147.18C102.114 147.7 101.661 148.107 101.087 148.4C100.514 148.693 99.8605 148.84 99.1272 148.84ZM99.4872 147.14C100.074 147.14 100.587 147.013 101.027 146.76C101.481 146.507 101.827 146.153 102.067 145.7C102.307 145.233 102.427 144.693 102.427 144.08C102.427 143.467 102.301 142.933 102.047 142.48C101.807 142.013 101.467 141.653 101.027 141.4C100.587 141.133 100.067 141 99.4672 141C98.8672 141 98.3405 141.133 97.8872 141.4C97.4339 141.653 97.0739 142.013 96.8072 142.48C96.5539 142.933 96.4272 143.46 96.4272 144.06C96.4272 144.66 96.5539 145.193 96.8072 145.66C97.0739 146.127 97.4339 146.493 97.8872 146.76C98.3539 147.013 98.8872 147.14 99.4872 147.14ZM111.249 149V135.12H113.129V149H111.249ZM112.529 149V147.28H119.969V149H112.529ZM122.285 149V135.12H124.165V149H122.285ZM123.565 149V147.28H131.005V149H123.565ZM133.32 149V135.12H134.64L140.52 144.78H139.62L145.5 135.12H146.82V149H144.94V138.42L145.38 138.54L140.74 146.16H139.42L134.78 138.54L135.2 138.42V149H133.32ZM152.797 149.2C152.264 149.2 151.757 149.133 151.277 149C150.81 148.853 150.377 148.653 149.977 148.4C149.577 148.133 149.23 147.82 148.937 147.46L150.097 146.3C150.444 146.727 150.844 147.047 151.297 147.26C151.75 147.46 152.257 147.56 152.817 147.56C153.377 147.56 153.81 147.467 154.117 147.28C154.424 147.08 154.577 146.807 154.577 146.46C154.577 146.113 154.45 145.847 154.197 145.66C153.957 145.46 153.644 145.3 153.257 145.18C152.87 145.047 152.457 144.92 152.017 144.8C151.59 144.667 151.184 144.5 150.797 144.3C150.41 144.1 150.09 143.827 149.837 143.48C149.597 143.133 149.477 142.673 149.477 142.1C149.477 141.527 149.617 141.033 149.897 140.62C150.177 140.193 150.564 139.867 151.057 139.64C151.564 139.413 152.17 139.3 152.877 139.3C153.624 139.3 154.284 139.433 154.857 139.7C155.444 139.953 155.924 140.34 156.297 140.86L155.137 142.02C154.87 141.673 154.537 141.407 154.137 141.22C153.75 141.033 153.31 140.94 152.817 140.94C152.297 140.94 151.897 141.033 151.617 141.22C151.35 141.393 151.217 141.64 151.217 141.96C151.217 142.28 151.337 142.527 151.577 142.7C151.817 142.873 152.13 143.02 152.517 143.14C152.917 143.26 153.33 143.387 153.757 143.52C154.184 143.64 154.59 143.807 154.977 144.02C155.364 144.233 155.677 144.52 155.917 144.88C156.17 145.24 156.297 145.713 156.297 146.3C156.297 147.193 155.977 147.9 155.337 148.42C154.71 148.94 153.864 149.2 152.797 149.2ZM171.892 149L165.252 141.88C164.732 141.32 164.346 140.787 164.092 140.28C163.839 139.773 163.712 139.213 163.712 138.6C163.712 137.893 163.879 137.267 164.212 136.72C164.546 136.16 165.006 135.72 165.592 135.4C166.179 135.067 166.852 134.9 167.612 134.9C168.172 134.9 168.679 134.993 169.132 135.18C169.599 135.353 170.006 135.587 170.352 135.88C170.712 136.173 171.012 136.507 171.252 136.88L169.952 138.06C169.646 137.633 169.306 137.293 168.932 137.04C168.572 136.773 168.132 136.64 167.612 136.64C167.012 136.64 166.512 136.82 166.112 137.18C165.712 137.54 165.512 138.007 165.512 138.58C165.512 139.06 165.612 139.467 165.812 139.8C166.012 140.133 166.312 140.52 166.712 140.96L174.092 149H171.892ZM166.912 149.2C165.992 149.2 165.186 149.02 164.492 148.66C163.799 148.3 163.259 147.807 162.872 147.18C162.499 146.54 162.312 145.813 162.312 145C162.312 144.16 162.539 143.4 162.992 142.72C163.446 142.04 164.106 141.5 164.972 141.1L165.832 142.22C165.299 142.487 164.879 142.853 164.572 143.32C164.266 143.773 164.112 144.32 164.112 144.96C164.112 145.48 164.232 145.927 164.472 146.3C164.712 146.673 165.046 146.967 165.472 147.18C165.912 147.38 166.412 147.48 166.972 147.48C167.679 147.48 168.279 147.333 168.772 147.04C169.266 146.747 169.639 146.373 169.892 145.92L171.072 147.3C170.806 147.66 170.452 147.987 170.012 148.28C169.586 148.56 169.106 148.787 168.572 148.96C168.052 149.12 167.499 149.2 166.912 149.2ZM183.394 149.2C182.461 149.2 181.621 148.98 180.874 148.54C180.128 148.1 179.534 147.507 179.094 146.76C178.654 146 178.434 145.153 178.434 144.22C178.434 143.3 178.654 142.473 179.094 141.74C179.534 140.993 180.128 140.4 180.874 139.96C181.621 139.52 182.461 139.3 183.394 139.3C184.314 139.3 185.148 139.52 185.894 139.96C186.654 140.387 187.254 140.973 187.694 141.72C188.134 142.467 188.354 143.3 188.354 144.22C188.354 145.153 188.134 146 187.694 146.76C187.254 147.507 186.654 148.1 185.894 148.54C185.148 148.98 184.314 149.2 183.394 149.2ZM183.394 147.46C183.994 147.46 184.528 147.32 184.994 147.04C185.461 146.76 185.828 146.38 186.094 145.9C186.361 145.407 186.494 144.847 186.494 144.22C186.494 143.607 186.354 143.06 186.074 142.58C185.808 142.1 185.441 141.727 184.974 141.46C184.521 141.18 183.994 141.04 183.394 141.04C182.794 141.04 182.261 141.18 181.794 141.46C181.328 141.727 180.961 142.1 180.694 142.58C180.428 143.06 180.294 143.607 180.294 144.22C180.294 144.847 180.428 145.407 180.694 145.9C180.961 146.38 181.328 146.76 181.794 147.04C182.261 147.32 182.794 147.46 183.394 147.46ZM194.223 149.2C193.436 149.2 192.729 149.027 192.103 148.68C191.489 148.32 191.009 147.827 190.663 147.2C190.316 146.573 190.143 145.847 190.143 145.02V139.5H191.943V144.94C191.943 145.46 192.029 145.913 192.203 146.3C192.389 146.673 192.656 146.96 193.003 147.16C193.349 147.36 193.756 147.46 194.223 147.46C194.929 147.46 195.483 147.24 195.883 146.8C196.283 146.347 196.483 145.727 196.483 144.94V139.5H198.283V145.02C198.283 145.847 198.109 146.573 197.763 147.2C197.416 147.827 196.936 148.32 196.323 148.68C195.723 149.027 195.023 149.2 194.223 149.2ZM200.695 149V139.5H202.495V149H200.695ZM202.495 143.58L201.815 143.28C201.815 142.067 202.095 141.1 202.655 140.38C203.215 139.66 204.022 139.3 205.075 139.3C205.555 139.3 205.988 139.387 206.375 139.56C206.762 139.72 207.122 139.993 207.455 140.38L206.275 141.6C206.075 141.387 205.855 141.233 205.615 141.14C205.375 141.047 205.095 141 204.775 141C204.108 141 203.562 141.213 203.135 141.64C202.708 142.067 202.495 142.713 202.495 143.58ZM217.574 149.2C216.641 149.2 215.801 148.98 215.054 148.54C214.307 148.1 213.714 147.507 213.274 146.76C212.834 146 212.614 145.153 212.614 144.22C212.614 143.3 212.834 142.473 213.274 141.74C213.714 140.993 214.307 140.4 215.054 139.96C215.801 139.52 216.641 139.3 217.574 139.3C218.494 139.3 219.327 139.52 220.074 139.96C220.834 140.387 221.434 140.973 221.874 141.72C222.314 142.467 222.534 143.3 222.534 144.22C222.534 145.153 222.314 146 221.874 146.76C221.434 147.507 220.834 148.1 220.074 148.54C219.327 148.98 218.494 149.2 217.574 149.2ZM217.574 147.46C218.174 147.46 218.707 147.32 219.174 147.04C219.641 146.76 220.007 146.38 220.274 145.9C220.541 145.407 220.674 144.847 220.674 144.22C220.674 143.607 220.534 143.06 220.254 142.58C219.987 142.1 219.621 141.727 219.154 141.46C218.701 141.18 218.174 141.04 217.574 141.04C216.974 141.04 216.441 141.18 215.974 141.46C215.507 141.727 215.141 142.1 214.874 142.58C214.607 143.06 214.474 143.607 214.474 144.22C214.474 144.847 214.607 145.407 214.874 145.9C215.141 146.38 215.507 146.76 215.974 147.04C216.441 147.32 216.974 147.46 217.574 147.46ZM227.009 149L223.249 139.5H225.129L227.849 146.9H227.249L229.949 139.5H230.989L233.689 146.9H233.089L235.809 139.5H237.689L233.949 149H232.889L230.149 141.82H230.809L228.049 149H227.009ZM246.009 149V143.46C246.009 142.74 245.782 142.147 245.329 141.68C244.875 141.213 244.289 140.98 243.569 140.98C243.089 140.98 242.662 141.087 242.289 141.3C241.915 141.513 241.622 141.807 241.409 142.18C241.195 142.553 241.089 142.98 241.089 143.46L240.349 143.04C240.349 142.32 240.509 141.68 240.829 141.12C241.149 140.56 241.595 140.12 242.169 139.8C242.742 139.467 243.389 139.3 244.109 139.3C244.829 139.3 245.462 139.48 246.009 139.84C246.569 140.2 247.009 140.673 247.329 141.26C247.649 141.833 247.809 142.447 247.809 143.1V149H246.009ZM239.289 149V139.5H241.089V149H239.289ZM46.32 179.2C45.6 179.2 44.9467 179.053 44.36 178.76C43.7867 178.453 43.3267 178.033 42.98 177.5C42.6333 176.967 42.44 176.36 42.4 175.68V172.82C42.44 172.127 42.6333 171.52 42.98 171C43.34 170.467 43.8067 170.053 44.38 169.76C44.9667 169.453 45.6133 169.3 46.32 169.3C47.1867 169.3 47.9667 169.52 48.66 169.96C49.3667 170.4 49.92 170.993 50.32 171.74C50.72 172.487 50.92 173.327 50.92 174.26C50.92 175.193 50.72 176.033 50.32 176.78C49.92 177.527 49.3667 178.12 48.66 178.56C47.9667 178.987 47.1867 179.2 46.32 179.2ZM41.32 182.98V169.5H43.12V172L42.78 174.3L43.12 176.62V182.98H41.32ZM46.02 177.5C46.62 177.5 47.1467 177.36 47.6 177.08C48.0533 176.8 48.4133 176.42 48.68 175.94C48.9467 175.447 49.08 174.88 49.08 174.24C49.08 173.613 48.9467 173.053 48.68 172.56C48.4133 172.067 48.0533 171.687 47.6 171.42C47.1467 171.14 46.6267 171 46.04 171C45.44 171 44.9133 171.14 44.46 171.42C44.0067 171.687 43.6533 172.067 43.4 172.56C43.1467 173.053 43.02 173.62 43.02 174.26C43.02 174.887 43.14 175.447 43.38 175.94C43.6333 176.42 43.9867 176.8 44.44 177.08C44.9067 177.36 45.4333 177.5 46.02 177.5ZM52.9606 179V169.5H54.7606V179H52.9606ZM54.7606 173.58L54.0806 173.28C54.0806 172.067 54.3606 171.1 54.9206 170.38C55.4806 169.66 56.2873 169.3 57.3406 169.3C57.8206 169.3 58.254 169.387 58.6406 169.56C59.0273 169.72 59.3873 169.993 59.7206 170.38L58.5406 171.6C58.3406 171.387 58.1206 171.233 57.8806 171.14C57.6406 171.047 57.3606 171 57.0406 171C56.374 171 55.8273 171.213 55.4006 171.64C54.974 172.067 54.7606 172.713 54.7606 173.58ZM65.0155 179.2C64.0821 179.2 63.2421 178.98 62.4955 178.54C61.7488 178.1 61.1555 177.507 60.7155 176.76C60.2755 176 60.0555 175.153 60.0555 174.22C60.0555 173.3 60.2755 172.473 60.7155 171.74C61.1555 170.993 61.7488 170.4 62.4955 169.96C63.2421 169.52 64.0821 169.3 65.0155 169.3C65.9355 169.3 66.7688 169.52 67.5155 169.96C68.2755 170.387 68.8755 170.973 69.3155 171.72C69.7555 172.467 69.9755 173.3 69.9755 174.22C69.9755 175.153 69.7555 176 69.3155 176.76C68.8755 177.507 68.2755 178.1 67.5155 178.54C66.7688 178.98 65.9355 179.2 65.0155 179.2ZM65.0155 177.46C65.6155 177.46 66.1488 177.32 66.6155 177.04C67.0821 176.76 67.4488 176.38 67.7155 175.9C67.9821 175.407 68.1155 174.847 68.1155 174.22C68.1155 173.607 67.9755 173.06 67.6955 172.58C67.4288 172.1 67.0621 171.727 66.5955 171.46C66.1421 171.18 65.6155 171.04 65.0155 171.04C64.4155 171.04 63.8821 171.18 63.4155 171.46C62.9488 171.727 62.5821 172.1 62.3155 172.58C62.0488 173.06 61.9155 173.607 61.9155 174.22C61.9155 174.847 62.0488 175.407 62.3155 175.9C62.5821 176.38 62.9488 176.76 63.4155 177.04C63.8821 177.32 64.4155 177.46 65.0155 177.46ZM77.0036 179.2C76.2836 179.2 75.6303 179.053 75.0436 178.76C74.4703 178.453 74.0103 178.033 73.6636 177.5C73.3169 176.967 73.1236 176.36 73.0836 175.68V172.82C73.1236 172.127 73.3169 171.52 73.6636 171C74.0236 170.467 74.4903 170.053 75.0636 169.76C75.6503 169.453 76.2969 169.3 77.0036 169.3C77.8703 169.3 78.6503 169.52 79.3436 169.96C80.0503 170.4 80.6036 170.993 81.0036 171.74C81.4036 172.487 81.6036 173.327 81.6036 174.26C81.6036 175.193 81.4036 176.033 81.0036 176.78C80.6036 177.527 80.0503 178.12 79.3436 178.56C78.6503 178.987 77.8703 179.2 77.0036 179.2ZM72.0036 182.98V169.5H73.8036V172L73.4636 174.3L73.8036 176.62V182.98H72.0036ZM76.7036 177.5C77.3036 177.5 77.8303 177.36 78.2836 177.08C78.7369 176.8 79.0969 176.42 79.3636 175.94C79.6303 175.447 79.7636 174.88 79.7636 174.24C79.7636 173.613 79.6303 173.053 79.3636 172.56C79.0969 172.067 78.7369 171.687 78.2836 171.42C77.8303 171.14 77.3103 171 76.7236 171C76.1236 171 75.5969 171.14 75.1436 171.42C74.6903 171.687 74.3369 172.067 74.0836 172.56C73.8303 173.053 73.7036 173.62 73.7036 174.26C73.7036 174.887 73.8236 175.447 74.0636 175.94C74.3169 176.42 74.6703 176.8 75.1236 177.08C75.5903 177.36 76.1169 177.5 76.7036 177.5ZM83.6442 179V169.5H85.4442V179H83.6442ZM85.4442 173.58L84.7642 173.28C84.7642 172.067 85.0442 171.1 85.6042 170.38C86.1642 169.66 86.9709 169.3 88.0242 169.3C88.5042 169.3 88.9376 169.387 89.3242 169.56C89.7109 169.72 90.0709 169.993 90.4042 170.38L89.2242 171.6C89.0242 171.387 88.8042 171.233 88.5642 171.14C88.3242 171.047 88.0442 171 87.7242 171C87.0576 171 86.5109 171.213 86.0842 171.64C85.6576 172.067 85.4442 172.713 85.4442 173.58ZM91.6916 179V169.5H93.4916V179H91.6916ZM92.5916 167.6C92.2582 167.6 91.9849 167.493 91.7716 167.28C91.5582 167.053 91.4516 166.773 91.4516 166.44C91.4516 166.12 91.5582 165.853 91.7716 165.64C91.9849 165.413 92.2582 165.3 92.5916 165.3C92.9249 165.3 93.1982 165.413 93.4116 165.64C93.6249 165.853 93.7316 166.12 93.7316 166.44C93.7316 166.773 93.6249 167.053 93.4116 167.28C93.1982 167.493 92.9249 167.6 92.5916 167.6ZM100.544 179.2C99.5976 179.2 98.7442 178.987 97.9842 178.56C97.2242 178.12 96.6242 177.527 96.1842 176.78C95.7442 176.033 95.5242 175.187 95.5242 174.24C95.5242 173.307 95.7376 172.467 96.1642 171.72C96.6042 170.973 97.1909 170.387 97.9242 169.96C98.6709 169.52 99.5042 169.3 100.424 169.3C101.304 169.3 102.078 169.5 102.744 169.9C103.424 170.3 103.951 170.853 104.324 171.56C104.711 172.267 104.904 173.067 104.904 173.96C104.904 174.093 104.898 174.24 104.884 174.4C104.871 174.547 104.844 174.72 104.804 174.92H96.7842V173.42H103.844L103.184 174C103.184 173.36 103.071 172.82 102.844 172.38C102.618 171.927 102.298 171.58 101.884 171.34C101.471 171.087 100.971 170.96 100.384 170.96C99.7709 170.96 99.2309 171.093 98.7642 171.36C98.2976 171.627 97.9376 172 97.6842 172.48C97.4309 172.96 97.3042 173.527 97.3042 174.18C97.3042 174.847 97.4376 175.433 97.7042 175.94C97.9709 176.433 98.3509 176.82 98.8442 177.1C99.3376 177.367 99.9042 177.5 100.544 177.5C101.078 177.5 101.564 177.407 102.004 177.22C102.458 177.033 102.844 176.753 103.164 176.38L104.324 177.56C103.871 178.093 103.311 178.5 102.644 178.78C101.991 179.06 101.291 179.2 100.544 179.2ZM108.053 179V165.52H109.853V179H108.053ZM105.713 171.14V169.5H112.193V171.14H105.713ZM117.704 179.2C116.837 179.2 116.05 178.987 115.344 178.56C114.637 178.12 114.077 177.527 113.664 176.78C113.264 176.033 113.064 175.193 113.064 174.26C113.064 173.327 113.264 172.487 113.664 171.74C114.077 170.993 114.63 170.4 115.324 169.96C116.03 169.52 116.824 169.3 117.704 169.3C118.424 169.3 119.064 169.453 119.624 169.76C120.197 170.053 120.657 170.467 121.004 171C121.35 171.52 121.544 172.127 121.584 172.82V175.68C121.544 176.36 121.35 176.967 121.004 177.5C120.67 178.033 120.217 178.453 119.644 178.76C119.084 179.053 118.437 179.2 117.704 179.2ZM118.004 177.5C118.897 177.5 119.617 177.2 120.164 176.6C120.71 175.987 120.984 175.207 120.984 174.26C120.984 173.607 120.857 173.04 120.604 172.56C120.364 172.067 120.017 171.687 119.564 171.42C119.11 171.14 118.584 171 117.984 171C117.384 171 116.85 171.14 116.384 171.42C115.93 171.7 115.57 172.087 115.304 172.58C115.05 173.06 114.924 173.613 114.924 174.24C114.924 174.88 115.05 175.447 115.304 175.94C115.57 176.42 115.937 176.8 116.404 177.08C116.87 177.36 117.404 177.5 118.004 177.5ZM120.864 179V176.44L121.204 174.12L120.864 171.82V169.5H122.684V179H120.864ZM125.304 179V169.5H127.104V179H125.304ZM127.104 173.58L126.424 173.28C126.424 172.067 126.704 171.1 127.264 170.38C127.824 169.66 128.631 169.3 129.684 169.3C130.164 169.3 130.598 169.387 130.984 169.56C131.371 169.72 131.731 169.993 132.064 170.38L130.884 171.6C130.684 171.387 130.464 171.233 130.224 171.14C129.984 171.047 129.704 171 129.384 171C128.718 171 128.171 171.213 127.744 171.64C127.318 172.067 127.104 172.713 127.104 173.58ZM136.276 179.08L132.156 169.5H134.156L137.216 177H136.576L139.796 169.5H141.796L137.356 179.08H136.276ZM133.556 182.98L136.356 177.24L137.356 179.08L135.556 182.98H133.556ZM147.59 179V169.5H149.39V179H147.59ZM154.01 179V173.26C154.01 172.553 153.79 172 153.35 171.6C152.923 171.187 152.383 170.98 151.73 170.98C151.29 170.98 150.896 171.073 150.55 171.26C150.203 171.447 149.923 171.707 149.71 172.04C149.496 172.373 149.39 172.773 149.39 173.24L148.65 172.88C148.65 172.16 148.803 171.533 149.11 171C149.43 170.467 149.863 170.053 150.41 169.76C150.956 169.453 151.57 169.3 152.25 169.3C152.916 169.3 153.516 169.447 154.05 169.74C154.596 170.033 155.023 170.447 155.33 170.98C155.65 171.513 155.81 172.147 155.81 172.88V179H154.01ZM160.43 179V173.26C160.43 172.553 160.21 172 159.77 171.6C159.343 171.187 158.81 170.98 158.17 170.98C157.73 170.98 157.33 171.073 156.97 171.26C156.623 171.447 156.343 171.707 156.13 172.04C155.916 172.373 155.81 172.773 155.81 173.24L154.79 172.88C154.83 172.147 155.023 171.52 155.37 171C155.73 170.467 156.19 170.053 156.75 169.76C157.31 169.453 157.923 169.3 158.59 169.3C159.283 169.3 159.903 169.447 160.45 169.74C160.996 170.033 161.43 170.447 161.75 170.98C162.083 171.513 162.25 172.153 162.25 172.9V179H160.43ZM169.039 179.2C168.106 179.2 167.266 178.98 166.519 178.54C165.772 178.1 165.179 177.507 164.739 176.76C164.299 176 164.079 175.153 164.079 174.22C164.079 173.3 164.299 172.473 164.739 171.74C165.179 170.993 165.772 170.4 166.519 169.96C167.266 169.52 168.106 169.3 169.039 169.3C169.959 169.3 170.792 169.52 171.539 169.96C172.299 170.387 172.899 170.973 173.339 171.72C173.779 172.467 173.999 173.3 173.999 174.22C173.999 175.153 173.779 176 173.339 176.76C172.899 177.507 172.299 178.1 171.539 178.54C170.792 178.98 169.959 179.2 169.039 179.2ZM169.039 177.46C169.639 177.46 170.172 177.32 170.639 177.04C171.106 176.76 171.472 176.38 171.739 175.9C172.006 175.407 172.139 174.847 172.139 174.22C172.139 173.607 171.999 173.06 171.719 172.58C171.452 172.1 171.086 171.727 170.619 171.46C170.166 171.18 169.639 171.04 169.039 171.04C168.439 171.04 167.906 171.18 167.439 171.46C166.972 171.727 166.606 172.1 166.339 172.58C166.072 173.06 165.939 173.607 165.939 174.22C165.939 174.847 166.072 175.407 166.339 175.9C166.606 176.38 166.972 176.76 167.439 177.04C167.906 177.32 168.439 177.46 169.039 177.46ZM180.047 179.2C179.167 179.2 178.38 178.987 177.687 178.56C176.994 178.12 176.44 177.527 176.027 176.78C175.627 176.033 175.427 175.193 175.427 174.26C175.427 173.327 175.627 172.487 176.027 171.74C176.44 170.993 176.994 170.4 177.687 169.96C178.38 169.52 179.167 169.3 180.047 169.3C180.754 169.3 181.394 169.453 181.967 169.76C182.54 170.053 183 170.467 183.347 171C183.707 171.52 183.907 172.127 183.947 172.82V175.68C183.907 176.36 183.714 176.967 183.367 177.5C183.02 178.033 182.56 178.453 181.987 178.76C181.414 179.053 180.767 179.2 180.047 179.2ZM180.347 177.5C180.947 177.5 181.467 177.36 181.907 177.08C182.36 176.8 182.714 176.42 182.967 175.94C183.22 175.447 183.347 174.887 183.347 174.26C183.347 173.607 183.214 173.04 182.947 172.56C182.694 172.08 182.34 171.7 181.887 171.42C181.447 171.14 180.927 171 180.327 171C179.727 171 179.2 171.14 178.747 171.42C178.294 171.7 177.934 172.087 177.667 172.58C177.414 173.06 177.287 173.613 177.287 174.24C177.287 174.88 177.414 175.447 177.667 175.94C177.934 176.42 178.294 176.8 178.747 177.08C179.214 177.36 179.747 177.5 180.347 177.5ZM185.047 179H183.227V176.44L183.567 174.12L183.227 171.82V164.72H185.047V179ZM192.068 179.2C191.121 179.2 190.268 178.987 189.508 178.56C188.748 178.12 188.148 177.527 187.708 176.78C187.268 176.033 187.048 175.187 187.048 174.24C187.048 173.307 187.261 172.467 187.688 171.72C188.128 170.973 188.714 170.387 189.448 169.96C190.194 169.52 191.028 169.3 191.948 169.3C192.828 169.3 193.601 169.5 194.268 169.9C194.948 170.3 195.474 170.853 195.848 171.56C196.234 172.267 196.428 173.067 196.428 173.96C196.428 174.093 196.421 174.24 196.408 174.4C196.394 174.547 196.368 174.72 196.328 174.92H188.308V173.42H195.368L194.708 174C194.708 173.36 194.594 172.82 194.368 172.38C194.141 171.927 193.821 171.58 193.408 171.34C192.994 171.087 192.494 170.96 191.908 170.96C191.294 170.96 190.754 171.093 190.288 171.36C189.821 171.627 189.461 172 189.208 172.48C188.954 172.96 188.828 173.527 188.828 174.18C188.828 174.847 188.961 175.433 189.228 175.94C189.494 176.433 189.874 176.82 190.368 177.1C190.861 177.367 191.428 177.5 192.068 177.5C192.601 177.5 193.088 177.407 193.528 177.22C193.981 177.033 194.368 176.753 194.688 176.38L195.848 177.56C195.394 178.093 194.834 178.5 194.168 178.78C193.514 179.06 192.814 179.2 192.068 179.2ZM198.39 179V164.72H200.19V179H198.39ZM205.844 179.2C205.311 179.2 204.804 179.133 204.324 179C203.857 178.853 203.424 178.653 203.024 178.4C202.624 178.133 202.277 177.82 201.984 177.46L203.144 176.3C203.491 176.727 203.891 177.047 204.344 177.26C204.797 177.46 205.304 177.56 205.864 177.56C206.424 177.56 206.857 177.467 207.164 177.28C207.471 177.08 207.624 176.807 207.624 176.46C207.624 176.113 207.497 175.847 207.244 175.66C207.004 175.46 206.691 175.3 206.304 175.18C205.917 175.047 205.504 174.92 205.064 174.8C204.637 174.667 204.231 174.5 203.844 174.3C203.457 174.1 203.137 173.827 202.884 173.48C202.644 173.133 202.524 172.673 202.524 172.1C202.524 171.527 202.664 171.033 202.944 170.62C203.224 170.193 203.611 169.867 204.104 169.64C204.611 169.413 205.217 169.3 205.924 169.3C206.671 169.3 207.331 169.433 207.904 169.7C208.491 169.953 208.971 170.34 209.344 170.86L208.184 172.02C207.917 171.673 207.584 171.407 207.184 171.22C206.797 171.033 206.357 170.94 205.864 170.94C205.344 170.94 204.944 171.033 204.664 171.22C204.397 171.393 204.264 171.64 204.264 171.96C204.264 172.28 204.384 172.527 204.624 172.7C204.864 172.873 205.177 173.02 205.564 173.14C205.964 173.26 206.377 173.387 206.804 173.52C207.231 173.64 207.637 173.807 208.024 174.02C208.411 174.233 208.724 174.52 208.964 174.88C209.217 175.24 209.344 175.713 209.344 176.3C209.344 177.193 209.024 177.9 208.384 178.42C207.757 178.94 206.911 179.2 205.844 179.2Z" fill="black"/>
<defs>
<linearGradient id="paint0_linear_6951_1012" x1="197.113" y1="228" x2="131.055" y2="21.0898" gradientUnits="userSpaceOnUse">
<stop stop-color="#E7EDF2"/>
<stop offset="1" stop-color="#F7FAFB"/>
</linearGradient>
<linearGradient id="paint1_linear_6951_1012" x1="344" y1="60.5" x2="40" y2="60.5" gradientUnits="userSpaceOnUse">
<stop stop-color="#2DD5C3"/>
<stop offset="1" stop-color="#0076FF"/>
</linearGradient>
</defs>
</svg>
