<svg width="32" height="33" viewBox="0 0 32 33" fill="none" xmlns="http://www.w3.org/2000/svg">
<path fill-rule="evenodd" clip-rule="evenodd" d="M16 32.6772C24.8366 32.6772 32 25.5138 32 16.6772C32 7.8407 24.8366 0.677246 16 0.677246C7.16343 0.677246 0 7.8407 0 16.6772C0 25.5138 7.16343 32.6772 16 32.6772ZM20.9915 8.13072C21.2344 7.26769 20.3969 6.75735 19.632 7.30229L8.9545 14.9089C8.12498 15.4999 8.25546 16.6772 9.1505 16.6772H11.9622V16.6555H17.442L12.977 18.2309L11.0086 25.2238C10.7656 26.0868 11.6031 26.5972 12.368 26.0522L23.0455 18.4456C23.8751 17.8547 23.7445 16.6772 22.8496 16.6772H18.5857L20.9915 8.13072Z" fill="#697077"/>
</svg>
